<svg width="59" height="56" viewBox="0 0 59 56" fill="none" xmlns="http://www.w3.org/2000/svg">
<mask id="mask0_765_10398" style="mask-type:alpha" maskUnits="userSpaceOnUse" x="0" y="0" width="59" height="56">
<ellipse cx="29.3131" cy="28" rx="29.3131" ry="28" fill="#D9D9D9"/>
</mask>
<g mask="url(#mask0_765_10398)">
<ellipse cx="29.3131" cy="28" rx="29.3131" ry="28" fill="#FBF0DC"/>
<path d="M153.506 25.6719C153.05 12.5248 146.904 1.82434 134.015 -4.8337C120.696 -11.717 107.311 -11.0913 94.3749 -3.50084C93.9057 -3.22551 93.4298 -2.94392 92.974 -2.64355C91.6603 -1.76124 90.2527 -1.29192 89.2272 -2.82502C88.329 -4.17666 88.8854 -5.37185 90.2728 -6.31048C95.4205 -9.77717 101.071 -12.155 107.325 -13.2001C131.997 -17.3175 154.559 -2.41828 157.896 20.8786C161.167 43.6874 143.667 63.1234 120.837 65.8642C97.8737 68.6238 76.7401 53.5368 73.0603 32.599C72.6648 30.3463 72.6447 28.0373 72.2828 25.7783C71.827 22.8935 69.5883 21.0413 66.8938 21.373C63.9312 21.7359 62.356 23.4505 62.2689 26.2413C61.9606 36.0532 58.6227 44.7825 51.7457 52.2853C45.1033 59.5378 36.6713 64.0057 26.6842 65.6202C13.6408 67.7352 1.93112 64.6315 -8.2704 56.7407C-18.0295 49.1878 -22.7415 39.2821 -23.6062 27.6368C-23.7134 26.185 -23.5392 24.702 -24.5312 23.4317C-25.8382 21.7547 -27.6479 20.9725 -29.7861 21.4168C-32.38 21.9612 -33.734 23.8134 -33.9753 26.1412C-34.3372 29.5516 -34.4244 32.9494 -35.3762 36.3285C-39.8536 52.2352 -54.1772 63.7179 -71.7048 65.8642C-96.7797 68.9367 -119.462 50.0326 -119.562 27.3489C-119.582 23.6006 -121.7 21.3292 -124.857 21.3292C-128.142 21.3292 -129.978 23.438 -130.065 27.2989C-130.488 46.9539 -146.534 63.1422 -167.681 65.8705C-190.303 68.7865 -212.763 53.105 -215.384 31.2161C-215.545 29.877 -215.78 28.5441 -215.914 27.1987C-216.088 25.5217 -215.411 24.12 -213.534 24.0262C-211.483 23.926 -211.188 25.4904 -211.094 27.0736C-210.531 36.8416 -206.892 45.4395 -199.076 52.0538C-188.138 61.3149 -175.329 64.2372 -161.199 59.9133C-147.09 55.5955 -138.658 46.253 -135.508 32.7179C-135.005 30.5653 -134.891 28.4002 -134.838 26.21C-134.71 21.1101 -130.695 17.1178 -125.541 16.8487C-120.46 16.5797 -116.104 19.8837 -115.185 24.7645C-114.361 29.1511 -114.515 33.6503 -112.819 37.943C-106.673 53.4867 -91.0757 62.8919 -73.9972 61.7029C-56.1814 60.4639 -41.7102 47.7048 -39.1498 31.6166C-38.8079 29.4577 -38.7811 27.2613 -38.4728 25.0962C-37.7556 20.0464 -33.3653 16.5734 -28.1439 16.8425C-22.9828 17.1053 -18.9009 21.0914 -18.8272 26.185C-18.6864 36.0469 -15.0535 44.6323 -7.46606 51.4092C3.62021 61.3087 16.838 64.4062 31.4365 59.8069C45.7534 55.2952 54.1318 45.6398 56.8867 31.7417C57.2553 29.8832 57.4027 28.0373 57.4631 26.16C57.6373 20.9287 61.8265 16.9176 67.1351 16.8362C72.524 16.7486 76.8272 20.5657 77.1087 25.8096C77.7857 38.5687 83.1009 49.0877 94.8307 56.0336C107.713 63.6615 121.226 63.9744 134.437 56.8658C146.917 50.1515 153.111 39.6951 153.506 25.6719Z" fill="#FEC914"/>
<path d="M115.573 58.1103C96.8157 58.1165 81.5266 44.3727 81.1107 27.1199C80.9228 19.2681 75.5089 13.768 67.767 13.5441C59.9917 13.3263 54.1014 18.8139 53.719 26.8212C53.0884 39.9117 46.5139 49.5243 33.8412 55.1612C12.1519 64.7986 -13.3545 50.7811 -14.9311 28.5758C-15.0854 26.4106 -15.0854 24.2268 -15.8636 22.1363C-18.0573 16.263 -24.1824 12.841 -30.8709 13.7556C-37.5126 14.664 -42.2154 19.7845 -42.4032 26.3048C-42.7923 40.341 -51.6612 51.8761 -65.5281 56.3993C-87.3582 63.517 -110.678 48.6782 -111.328 27.263C-111.57 19.2058 -115.535 14.9688 -124.162 13.6063C-125.685 13.3636 -127.208 13.1583 -126.973 11.2794C-126.738 9.39417 -125.115 9.53728 -123.639 9.58705C-114.649 9.87947 -106.961 17.2024 -107.015 26.3919C-107.088 38.9598 -96.4149 52.3054 -79.8646 54.0848C-64.0455 55.7834 -48.0452 43.9185 -46.9316 29.1668C-46.7974 27.4123 -46.737 25.6453 -46.462 23.9095C-45.0531 15.0062 -37.1235 9.08309 -27.369 9.58705C-18.2385 10.0599 -11.0333 17.2709 -10.8321 26.1493C-10.5033 40.4593 0.337929 52.0503 15.0702 53.8484C33.5728 56.1007 49.1035 43.5701 49.5395 26.0311C49.7408 18.0548 55.148 11.8455 63.5473 9.96035C71.2421 8.23071 79.5073 11.7958 83.3313 18.4343C84.8474 21.0661 85.2701 23.9032 85.4646 26.815C86.5045 42.0396 96.9968 52.3303 113.319 54.147C128.628 55.8518 144.394 43.5701 145.494 29.0673C146.366 17.6255 141.798 8.47336 131.278 2.46317C120.779 -3.53457 109.925 -3.25459 99.3181 2.66227C97.9428 3.42754 96.4467 4.39191 95.2996 2.62494C94.1926 0.920187 95.6887 0.0367026 97.0505 -0.790787C117.707 -13.3649 146.037 -1.32586 149.533 21.5203C152.538 41.0814 136.732 58.1041 115.573 58.1103Z" fill="#FEC914"/>
<path d="M18.7361 51.6907C4.60064 51.6647 -6.97879 40.8146 -7.32765 27.2697C-7.64967 14.8027 -15.1568 6.72518 -28.0646 5.03695C-29.6613 4.82916 -31.5733 4.92007 -31.3184 2.77081C-31.0568 0.537149 -29.2118 0.387805 -27.2327 0.654027C-12.366 2.63446 -3.00716 12.647 -2.56438 27.1204C-2.21552 38.4315 7.12985 47.074 18.9978 47.0545C30.6644 47.0351 40.0635 38.3536 40.3989 27.2697C40.8618 12.0496 50.5628 1.43971 66.1541 0.595588C77.7402 -0.0342539 89.2593 6.91998 92.721 20.5427C93.2242 22.5297 93.4254 24.562 93.4455 26.6334C93.5395 36.9511 102.294 46.1974 112.639 47.0221C124.387 47.9571 134.222 40.8795 136.342 30.0228C137.979 21.6466 135.087 14.7508 128.378 9.65362C121.166 4.17335 113.109 3.55649 104.837 7.69267C103.267 8.47835 101.483 9.84842 100.268 7.56281C99.1816 5.51744 100.866 4.49801 102.563 3.62143C118.838 -4.78729 138.133 4.85514 141.212 22.5946C143.319 34.7434 134.054 49.3531 118.805 51.5803C105.367 53.5413 91.8287 44.1586 89.1855 30.9449C88.5414 27.7437 88.897 24.5101 88.0852 21.3154C85.6834 11.8743 77.3981 5.07591 66.5767 5.06292C56.2451 5.05643 47.6847 12.5886 45.6854 22.4388C44.9139 26.2503 45.4238 30.1397 44.0552 33.9382C40.1842 44.717 30.4631 51.7102 18.7361 51.6907Z" fill="#41B9D5"/>
</g>
</svg>
