<svg width="58" height="129" viewBox="0 0 58 129" fill="none" xmlns="http://www.w3.org/2000/svg">
<g style="mix-blend-mode:luminosity" opacity="0.3" clip-path="url(#clip0_1748_12598)">
<path d="M35.1598 74.1841C29.7164 74.1841 12.6957 67.8649 6.57807 53.6303C2.02276 43.0161 0.0657807 27.6789 0 26.9878V22.3965H21.9872V28.7321H7.05498C7.76213 34.0145 9.42309 44.1845 12.3997 51.1125C17.3497 62.6154 31.5419 67.832 35.1598 67.832V74.1841Z" fill="#FED03D"/>
<path d="M35.1598 78.7759C29.7164 78.7759 12.6957 72.4567 6.57807 58.2221C2.02276 47.6243 0.394684 31.1517 0.328904 30.4605L0 26.9883H21.9872V33.3239H7.05498C7.76213 38.6063 9.42309 48.7763 12.3997 55.7043C17.3497 67.2072 31.5419 72.4238 35.1598 72.4238V78.7759Z" fill="#FFB81A"/>
<path d="M74.3487 115.407C74.3487 122.911 63.2153 129 49.4671 129C35.719 129 24.5856 122.911 24.5856 115.407C24.5856 107.903 35.719 101.814 49.4671 101.814C63.1989 101.798 74.3487 107.887 74.3487 115.407Z" fill="#F8B505"/>
<path d="M74.3487 111.441H24.5856V116.033H74.3487V111.441Z" fill="#F8B505"/>
<path d="M74.3487 111.441C74.3487 118.945 63.2153 125.034 49.4671 125.034C35.719 125.034 24.5856 118.945 24.5856 111.441C24.5856 103.937 35.719 97.8486 49.4671 97.8486C63.1989 97.8486 74.3487 103.937 74.3487 111.441Z" fill="#FED03D"/>
<path d="M63.7579 103.016C63.7579 103.016 54.121 93.6689 54.121 88.4358C54.121 84.3876 54.121 82.4951 54.121 82.4951H49.9604H48.9737H44.8131C44.8131 82.4951 44.8131 84.3876 44.8131 88.4358C44.8131 93.6689 35.1762 103.016 35.1762 103.016C33.7126 104.365 32.8574 105.945 32.8574 107.624C32.8574 112.643 40.2906 116.708 49.4671 116.708C58.6435 116.708 66.0767 112.643 66.0767 107.624C66.0767 105.945 65.2215 104.365 63.7579 103.016Z" fill="#FFB81A"/>
<path opacity="0.5" d="M63.7579 103.016C63.7579 103.016 54.121 93.6689 54.121 88.4358C54.121 84.3876 54.121 82.4951 54.121 82.4951H44.7966C44.7966 82.4951 44.7966 84.223 44.7966 87.8598C46.5234 88.4029 48.3817 88.4687 50.2564 88.3371C50.5031 88.3206 50.7827 88.5016 50.832 88.7485C52.3614 95.298 55.042 106.752 47.2141 110.454C42.3956 112.725 36.4918 110.717 32.9561 106.801C32.9068 107.081 32.8574 107.344 32.8574 107.64C32.8574 112.659 40.2906 116.724 49.4671 116.724C58.6435 116.724 66.0767 112.659 66.0767 107.64C66.0767 105.945 65.2215 104.365 63.7579 103.016Z" fill="#F8B505"/>
<path d="M49.1382 20.0598L18.1884 17.0977C18.1884 17.0977 20.1947 39.7084 24.6678 57.6128C29.3217 76.1753 36.8372 83.4654 46.6221 84.749C47.1483 84.8971 47.7075 84.9794 48.2995 84.9794C48.5791 84.9794 48.8422 84.9629 49.1217 84.9465C49.4013 84.9465 49.6644 84.9794 49.944 84.9794C50.536 84.9794 51.0952 84.8971 51.6214 84.749C61.4063 83.4819 68.9382 76.1918 73.5757 57.6128C78.0488 39.7084 80.0551 17.0977 80.0551 17.0977L49.1382 20.0598Z" fill="#F8B505"/>
<path opacity="0.5" d="M68.9874 18.7104C68.4283 31.5626 72.3751 62.0395 60.4359 76.2576C55.93 81.6223 48.2501 83.811 40.5537 82.9717C42.4778 83.8768 44.5006 84.4693 46.6384 84.749C47.1647 84.8971 47.7238 84.9794 48.3158 84.9794C48.5954 84.9794 48.8585 84.9629 49.1381 84.9465C49.4177 84.9465 49.6808 84.9794 49.9604 84.9794C50.5524 84.9794 51.1115 84.8971 51.6378 84.749C61.4226 83.4819 68.9545 76.1918 73.5921 57.6128C78.0652 39.7084 80.0715 17.0977 80.0715 17.0977L68.9874 18.7104Z" fill="#F8B505"/>
<path d="M80.7293 17.098C80.7293 26.5438 66.7345 34.1959 49.4506 34.1959C32.1832 34.1959 18.1719 26.5438 18.1719 17.098C18.1883 7.65212 32.1832 0 49.4671 0C66.7345 0 80.7293 7.65212 80.7293 17.098Z" fill="#FED03D"/>
<path d="M76.9306 16.4563C76.9306 24.7502 64.6296 31.4643 49.4671 31.4643C34.2882 31.4643 22.0037 24.7502 22.0037 16.4563C22.0037 8.16236 34.3047 1.44824 49.4671 1.44824C64.6296 1.44824 76.9306 8.16236 76.9306 16.4563Z" fill="#F8B505"/>
<g opacity="0.4">
<path d="M71.3885 7.43848C66.4385 14.1691 58.2817 19.2376 51.2925 21.887C43.8099 24.7175 34.7651 26.1492 26.4932 24.6681C31.3938 28.7657 39.8466 31.4645 49.4671 31.4645C64.646 31.4645 76.9305 24.7504 76.9305 16.4565C76.9305 13.0665 74.8584 9.95627 71.3885 7.43848Z" fill="#F8B505"/>
</g>
<path d="M49.4671 77.1634C57.8139 77.1634 64.5802 68.4106 64.5802 57.6134C64.5802 46.8163 57.8139 38.0635 49.4671 38.0635C41.1204 38.0635 34.354 46.8163 34.354 57.6134C34.354 68.4106 41.1204 77.1634 49.4671 77.1634Z" fill="#FED03D"/>
<path d="M49.467 74.7107C56.7148 74.7107 62.5903 67.1072 62.5903 57.7279C62.5903 48.3486 56.7148 40.7451 49.467 40.7451C42.2192 40.7451 36.3438 48.3486 36.3438 57.7279C36.3438 67.1072 42.2192 74.7107 49.467 74.7107Z" fill="#FFDA71"/>
</g>
<defs>
<clipPath id="clip0_1748_12598">
<rect width="98.3257" height="129" fill="white"/>
</clipPath>
</defs>
</svg>
