<svg width="63" height="92" viewBox="0 0 63 92" fill="none" xmlns="http://www.w3.org/2000/svg">
<g style="mix-blend-mode:luminosity" clip-path="url(#clip0_1748_12732)">
<path d="M49.9223 8.49789C50.0485 8.43191 51.2175 9.06529 51.8684 9.86361C52.5259 10.6619 52.8314 11.3811 53.0041 12.4433C53.9207 13.1493 54.1797 13.7827 54.6646 14.3501C55.1428 14.9109 55.6276 15.6498 55.6276 15.6498C55.6276 15.6498 57.6733 14.0598 58.4637 13.3538C58.995 12.8788 59.6924 12.2388 59.5596 11.4537C59.5264 11.2425 59.2873 10.0681 60.164 9.87021C60.2968 8.96633 60.8614 8.61005 61.7779 8.96633C62.6945 9.3292 63.0266 9.87021 63 10.6685C62.9801 11.3283 62.0038 11.7572 61.2134 12.7468C60.4695 13.3142 60.0378 15.2078 58.8024 16.7648C58.2777 17.4246 57.4342 17.9788 56.7634 18.4208C56.4114 18.6518 56.0992 18.9157 55.1029 18.6715C54.3391 18.4868 50.5002 16.2964 50.0751 15.1682C49.65 14.0466 47.9763 9.49414 49.9223 8.49789Z" fill="#FFB8A3"/>
<path d="M45.8244 0.547733C44.8149 0.0529048 42.736 -0.732222 41.8659 1.4978C40.9958 3.72783 40.0062 4.06431 39.1162 3.73442C38.2262 3.40454 38.286 2.00583 38.286 2.00583C38.286 2.00583 36.9377 3.18681 38.0801 5.08035C37.748 7.19822 40.956 7.02008 41.6666 5.87208C43.7455 7.19822 43.4666 2.96249 44.5625 3.2198C45.5986 3.46392 46.9203 3.86638 47.2457 2.69858C47.5712 1.53079 46.4487 0.857825 45.8244 0.547733Z" fill="#2B221D"/>
<path d="M39.0696 29.3668C37.7811 28.8456 36.3266 28.4827 35.3701 27.9087C35.0314 28.2782 34.7259 28.674 34.5399 29.1359C34.4801 29.281 34.4469 29.4328 34.427 29.5845C36.3863 30.7523 39.5478 33.8136 40.491 34.9682C41.6267 36.3604 42.8156 36.4659 43.2473 35.9645C43.9779 35.1266 44.8546 33.9258 44.8413 33.8598C44.3565 31.5374 40.5441 29.9606 39.0696 29.3668Z" fill="#FFB8A3"/>
<path d="M46.9402 18.0183C48.2884 18.1898 49.2316 18.4669 50.5533 17.8665C50.3142 18.9617 50.1149 20.5386 50.4138 22.2342C50.2079 23.2634 49.743 24.2465 47.7637 24.4642C44.2037 24.8601 42.2909 23.0391 42.1116 22.2738C42.3042 21.746 43.0215 20.8289 43.3802 20.0108C43.7787 19.1135 43.5528 18.0974 43.772 16.7119C44.8546 17.2661 45.9173 17.8863 46.9402 18.0183Z" fill="#FFC8B5"/>
<path d="M41.3743 26.2855C41.8259 24.6691 41.9455 23.6068 42.9351 22.2147C43.0547 22.0432 43.1742 21.9178 43.3004 21.8188C44.2967 22.2609 45.3726 22.505 46.4287 22.5182C47.5047 22.5248 49.4175 23.0922 50.4138 22.2345C50.5466 23.8048 50.5931 24.6691 49.9953 26.1206C49.0854 28.3308 45.5985 33.6221 44.7217 34.5062C44.2635 34.5062 41.1285 33.7541 41.1285 30.5278C41.7197 28.8388 41.0023 27.605 41.3743 26.2855Z" fill="#2B221D"/>
<path d="M50.5467 37.6204C50.3807 33.3649 48.2553 28.9708 47.7904 27.4269C48.4413 26.4637 49.039 23.8246 48.8929 22.703C47.9764 23.0856 45.8443 23.4023 44.7484 22.6832C44.1241 22.2741 43.2872 21.6869 42.9087 20.9546C41.0755 23.0791 39.2955 26.4241 41.2681 28.9774C41.0357 30.4421 42.5035 32.7447 42.9684 33.543C44.3699 35.9512 46.3026 37.3037 47.6642 38.7486C48.0693 38.7882 50.1681 38.102 50.5467 37.6204Z" fill="#3D322C"/>
<path d="M43.1145 21.9443C43.2938 22.228 43.4997 22.4919 43.6923 22.7295C43.7189 22.7625 43.7454 22.7954 43.7786 22.8284C43.2141 23.5608 42.4104 25.0123 42.7226 27.1103C43.1875 30.2508 47.4316 35.4432 47.4316 35.4432L46.8339 36.103C46.8339 36.103 43.0148 31.0426 42.1913 28.166C41.454 25.5995 42.2178 23.6861 43.0148 22.1423C43.0414 22.0631 43.0746 22.0037 43.1145 21.9443Z" fill="#61A1FF"/>
<path d="M50.2876 21.2647L50.4072 22.2346C50.4072 22.2346 49.6367 23.1187 47.3387 23.31C44.5956 23.5344 42.0784 21.7134 42.0784 21.7134L42.6562 20.6182C42.6562 20.6182 44.4628 21.7662 46.4221 21.9707C48.3814 22.1818 50.2876 21.2647 50.2876 21.2647Z" fill="#668BF7"/>
<path d="M50.4669 18.2888C49.0522 18.8694 47.8567 19.2719 46.3822 19.0212C45.2465 18.8298 44.6022 18.7177 43.6657 18.1569C43.679 17.9325 43.5727 15.9136 43.5528 15.6893C43.3801 14.0069 42.6097 14.1718 42.8156 12.9645C43.1676 10.9654 44.9675 10.167 45.8907 9.72499C49.5769 7.95681 49.8891 8.33288 49.7695 8.47803C49.9887 8.69575 50.3142 9.24996 51.2905 11.0379C51.7687 11.9154 52.7185 13.4857 52.8248 13.9673C53.1104 15.2869 52.0875 16.0258 51.6757 16.5668C51.4566 16.8373 50.706 17.2662 50.4669 18.2888Z" fill="#61A1FF"/>
<path d="M49.9622 9.55369C49.9888 9.63286 50.2744 10.2398 50.6862 11.0975C51.1046 11.9552 51.5363 12.6612 50.8854 13.3738C50.2345 14.0863 48.9261 13.9148 48.1955 13.1626C47.4649 12.4105 45.6583 9.82419 45.6583 9.82419L46.7609 9.30957L49.9622 9.55369Z" fill="#2B221D"/>
<path d="M46.7608 7.49512C47.8169 7.71284 48.9858 8.03613 49.909 7.95696C49.7164 8.73549 49.4574 8.96641 49.9223 10.3981C50.2478 11.3944 51.1975 12.6083 50.3474 13.057C49.9489 13.2681 49.1718 13.4726 48.2685 12.4236C47.4914 11.5263 46.3357 10.154 46.1033 9.65916C46.5416 9.13135 46.5549 8.14829 46.7608 7.49512Z" fill="#FFB8A3"/>
<path d="M51.2042 4.2952C49.8161 3.9851 49.0921 3.93232 47.8634 4.42715C47.1727 4.61189 46.5218 4.92198 45.8974 5.32444C45.8509 5.35743 45.8111 5.4234 45.8244 5.48278C46.1432 7.29715 46.7542 9.21708 48.7999 10.022C50.4869 10.6818 51.43 8.84761 51.7223 7.62044C52.061 6.18214 52.1673 4.51292 51.2042 4.2952Z" fill="#FFC8B5"/>
<path d="M46.7609 2.46112C48.0826 1.39889 49.7563 1.53085 50.6596 2.26319C51.9614 2.32257 52.5924 3.08791 51.9614 4.38765C51.1312 5.44329 49.0257 6.21522 47.8236 6.04368C47.5844 6.80241 47.1859 8.52442 46.4885 8.47823C45.1004 5.62802 44.6355 4.16993 46.7609 2.46112Z" fill="#3D322C"/>
<path d="M48.0826 6.88151C48.0826 6.88151 47.7505 5.76649 47.0199 6.34049C46.2893 6.91449 47.3254 8.03611 47.3254 8.03611L48.0826 6.88151Z" fill="#FFC8B5"/>
<path d="M39.1162 18.3815C38.6646 18.9753 39.0166 19.9452 39.3487 20.6379C39.6807 21.3307 40.9892 22.6766 42.7227 24.6098C43.978 26.0085 45.3728 27.3214 46.017 26.5561C46.9535 25.4279 47.4716 24.3393 46.3823 23.9434C46.5019 22.9339 44.3433 23.7191 44.3433 23.7191C44.3433 23.7191 43.5064 22.129 42.9485 21.0536C42.3906 19.9782 41.826 19.0347 41.826 19.0347C41.826 19.0347 43.9448 17.5568 44.164 16.6595C46.0502 17.3061 46.6214 15.2674 46.1299 13.2353C45.8178 11.9422 45.1337 10.5567 44.6023 10.3719C43.8784 10.1212 42.2312 11.9488 42.0519 13.2815C40.2918 15.3202 39.5678 17.7877 39.1162 18.3815Z" fill="#FFC8B5"/>
<path d="M50.7724 17.5432C50.7724 17.5432 49.1851 18.5461 46.628 18.269C44.3233 18.0183 43.6392 17.5234 43.6392 17.5234L43.6591 18.269C43.6591 18.269 44.941 19.2454 47.1992 19.2388C49.3445 19.2322 50.4072 18.5923 50.4072 18.5923L50.7724 17.5432Z" fill="#2B221D"/>
<path d="M51.1045 16.7188C51.1045 16.7188 50.1548 16.4615 49.6699 16.7716C49.0854 17.1477 48.315 17.5568 47.8168 17.5304C46.7608 17.4776 45.9904 16.6199 45.9904 16.6199C45.9904 16.6199 46.2427 17.6623 47.6508 17.8734C48.0227 17.9328 48.9924 17.8141 49.4175 17.537C50.0086 17.1411 51.1045 16.7188 51.1045 16.7188Z" fill="#668BF7"/>
<path d="M49.0921 20.618C49.4242 20.7038 49.1452 21.5087 48.8995 21.2514C48.6471 20.9875 48.76 20.5322 49.0921 20.618Z" fill="#FFB8A3"/>
<path d="M52.1606 3.8402C52.1672 3.80062 52.4462 3.89298 52.4528 4.38121C52.4661 5.05418 52.2137 5.46984 51.9613 5.92508C51.9016 6.03724 50.7725 6.7168 48.5475 6.93453C47.4183 7.04669 45.7313 6.87515 45.7313 6.87515C45.7313 6.87515 45.2199 6.08342 45.1336 5.76013C45.0539 5.43685 45.3195 5.25871 45.3195 5.25871C45.3195 5.25871 45.3195 5.42365 46.3291 5.46984C47.3386 5.51602 49.65 5.15315 50.4072 4.90903C50.8455 4.77048 51.523 4.7243 51.8816 4.46039C52.1008 4.05793 52.1606 3.8402 52.1606 3.8402Z" fill="#61A1FF"/>
<path d="M45.9971 37.1388C45.9971 37.1388 46.6347 37.7656 46.9933 39.0126C47.1793 39.6658 47.5911 41.9881 47.8236 43.8685C48.056 45.7488 49.7762 49.7207 49.7762 49.7207H51.6957C51.6957 49.7207 51.2507 44.9373 51.1046 42.1135C51.0382 40.8467 51.1245 38.8278 50.8389 37.4819C50.4869 35.8259 50.1283 34.5063 50.1283 34.5063C50.1283 34.5063 46.8671 34.922 45.9971 37.1388Z" fill="#FFC8B5"/>
<path d="M49.2382 48.4209C49.2382 48.4209 49.3511 49.4501 49.2382 50.255C49.1054 51.1787 48.8397 51.8187 49.8493 52.1947C50.2212 52.3333 50.8057 52.6368 51.6891 53.1118C52.4794 53.5341 53.5355 54.1411 54.4055 53.9827C55.3553 53.8112 55.9265 53.5869 55.7738 52.9601C55.6077 52.2673 54.5982 51.469 53.7347 50.829C52.2536 49.7338 51.5496 48.2031 51.5496 48.2031L50.0552 49.2522L49.2382 48.4209Z" fill="#61A1FF"/>
<path d="M49.112 50.71C49.112 50.71 49.5504 51.2906 49.9556 51.5413C50.7659 52.0361 50.912 52.3132 51.6957 52.9268C52.5459 53.5932 53.6816 53.6591 54.5849 53.3161C54.9967 53.1577 55.7871 52.9532 55.7871 52.9532C55.7871 52.9532 56.1524 53.923 54.4188 54.2529C52.692 54.5828 50.4138 52.4781 50.4138 52.4781C50.4138 52.4781 48.5873 52.6035 49.112 50.71Z" fill="#3D322C"/>
<path d="M50.5466 48.9024C50.5466 48.9024 50.706 49.826 51.6957 50.7101C52.6853 51.5942 53.0772 51.8713 53.5222 51.8185C53.9672 51.7658 54.4188 51.3765 54.4188 51.3765C54.4188 51.3765 52.838 50.1691 52.3133 49.3906C51.7886 48.6121 51.9281 47.3651 51.2241 47.662C50.5134 47.9589 50.5466 48.9024 50.5466 48.9024Z" fill="#2B221D"/>
<path d="M36.2071 28.3244C36.2071 28.3244 35.6359 27.5591 35.0249 27.0313C34.5998 26.6684 33.1519 28.6873 32.9061 29.0238C32.6537 29.3602 31.146 29.987 30.8937 31.1218C30.6413 32.2566 31.2125 32.4546 31.6309 32.5997C32.0493 32.7383 35.3437 30.1982 35.3437 30.1982C35.3437 30.1982 34.9451 29.5582 34.8057 29.0238C35.3769 28.7928 36.2071 28.3244 36.2071 28.3244Z" fill="#61A1FF"/>
<path d="M35.4898 27.4796C35.4898 27.4796 33.9422 27.6313 33.1386 28.9047C31.0198 30.5277 30.8604 31.1017 31.073 31.8671C31.2922 32.639 31.6242 32.5928 31.6242 32.5928C31.6242 32.5928 31.0198 32.7775 30.6213 32.0716C30.2228 31.3656 30.5151 30.7586 31.1062 30.0857C31.6907 29.4127 32.9061 28.5682 32.9061 28.5682C32.9061 28.5682 33.8426 27.0969 34.5931 26.9848C35.2573 26.8858 35.4898 27.4796 35.4898 27.4796Z" fill="#3D322C"/>
<path d="M32.3946 32.2698C32.3946 32.2698 32.1024 31.6694 32.8927 31.003C33.6898 30.3367 34.3938 29.215 35.3569 29.6505C36.3199 30.0859 36.5922 30.7787 35.9613 30.6797C35.3303 30.5808 34.8919 30.528 34.8919 30.528L32.3946 32.2698Z" fill="#3D322C"/>
<path d="M8.15873 70.4832C10.0317 69.797 15.3651 68.4445 17.1451 68.6292C17.8757 68.0948 20.4261 64.9741 20.4793 64.7432C21.7744 66.1815 23.2356 66.6499 24.8761 66.9864C24.1123 67.7649 20.5789 71.2485 19.8151 71.9742C18.9118 72.5021 18.0616 73.2938 16.7599 72.9309C13.3725 71.9743 10.4568 71.8753 8.1853 72.0204C7.38164 71.0572 6.63776 72.4097 8.15873 70.4832Z" fill="#FFC8B5"/>
<path d="M32.2883 68.3521C32.5607 68.1872 33.3245 67.9035 33.3112 67.5406C33.2979 67.1843 30.8471 66.0297 29.4324 67.5406C28.0177 69.0515 26.1447 70.2391 26.3041 70.5888C26.4701 70.9384 26.9882 71.1034 28.3033 70.5888C29.625 70.0807 31.9164 68.5765 32.2883 68.3521Z" fill="#2B221D"/>
<path d="M11.0013 72.3108C11.4995 71.6444 11.0146 70.978 10.377 70.4634C10.9216 70.1929 10.9349 69.7377 11.0279 69.5133C10.2043 69.5002 8.88925 69.4078 8.09888 69.6189C7.41477 69.8036 6.95649 71.8291 6.83029 72.6341C6.50485 74.6859 6.54469 76.177 8.30477 76.7708C8.87596 76.9622 9.4538 76.5663 9.67962 75.7284C10.025 74.4748 10.5431 73.4984 11.0013 72.3108Z" fill="#F46269"/>
<path d="M8.56385 69.5067C8.56385 69.5067 8.20519 70.404 7.76019 71.3804C7.31519 72.3503 6.6643 73.6368 6.86355 74.6463C7.06281 75.6557 7.9196 75.7349 8.50407 75.8933C9.08855 76.0516 9.07527 76.6718 9.07527 76.6718C9.07527 76.6718 8.61034 77.193 7.5078 76.5134C6.41191 75.8339 6.32557 74.6793 6.43848 73.5973C6.55803 72.5152 7.04288 70.9318 7.22221 70.2786C7.30855 69.9487 7.60743 69.6452 7.91295 69.5727C8.21848 69.4935 8.56385 69.5067 8.56385 69.5067Z" fill="#3D322C"/>
<path d="M10.1645 71.0835C10.1645 71.0835 9.5601 72.1523 9.33428 72.7593C9.10846 73.3597 9.09517 74.3889 9.66637 74.5737C10.0582 74.699 10.8021 73.0694 11.1143 72.1523C11.4264 71.2352 10.1645 71.0835 10.1645 71.0835Z" fill="#3D322C"/>
<path d="M8.96894 72.0732C8.96894 72.0732 9.61319 72.2184 10.0117 72.5087C10.4169 72.8056 10.7423 73.0827 10.7423 73.0827L10.6095 73.4654C10.6095 73.4654 10.2043 73.0365 9.81909 72.7726C9.41394 72.4955 8.86267 72.3701 8.86267 72.3701L8.96894 72.0732Z" fill="white"/>
<path d="M8.69008 72.8584C8.69008 72.8584 9.33434 73.0035 9.73284 73.2938C10.138 73.5907 10.3638 73.8283 10.3638 73.8283L10.231 74.1384C10.231 74.1384 9.9321 73.8151 9.54687 73.5512C9.14172 73.2741 8.59045 73.1487 8.59045 73.1487L8.69008 72.8584Z" fill="white"/>
<path d="M10.3904 71.968C10.3904 71.968 10.0251 71.3082 10.1646 71.0773C10.3107 70.8463 11.9844 71.1894 12.1305 71.704C12.2767 72.2253 11.4863 72.1593 10.9948 72.3044C10.5166 72.4628 10.3904 71.968 10.3904 71.968Z" fill="#3D322C"/>
<path d="M30.5016 63.7339C30.5016 63.7339 31.9628 66.1157 32.7067 68.3391C33.0521 69.3617 33.0388 69.652 33.0454 71.2157C33.0521 72.7793 33.1251 73.3072 33.3908 76.1178C33.6565 78.9284 34.1413 82.6891 34.1413 82.6891L32.1488 83.9822C32.1488 83.9822 29.7312 78.4798 29.0537 76.5466C28.3763 74.6135 28.5622 71.0375 28.5622 71.0375L26.118 65.9441L30.5016 63.7339Z" fill="#FFC8B5"/>
<path d="M31.146 82.8012C31.146 82.8012 31.4382 84.0086 31.4914 84.8135C31.5445 85.6184 31.8102 86.3178 32.6072 86.4563C33.4042 86.5949 34.075 86.4827 35.3835 86.2584C37.5885 85.8823 38.804 85.4997 38.9767 84.7211C39.1427 83.9426 38.7243 83.3356 37.3029 83.2367C36.8911 83.2103 35.855 83.1641 35.4167 82.9002C35.0314 82.6627 34.7791 82.4185 34.6728 82.2008C34.4536 81.772 33.8691 81.673 33.1053 82.2404C32.574 82.6297 32.4212 82.92 32.3747 83.2169C31.7703 82.9134 31.4183 82.7682 31.146 82.8012Z" fill="#F46269"/>
<path d="M33.4706 82.5836C33.4706 82.5836 33.537 83.1246 34.3407 83.4875C35.1443 83.8438 35.7952 83.7646 36.2469 83.6326C36.7649 83.4743 37.2166 83.2236 37.2166 83.2236C37.2166 83.2236 36.0808 83.2104 35.5163 82.9399C34.9517 82.6694 34.6595 82.1943 34.6595 82.1943L33.4706 82.5836Z" fill="#3D322C"/>
<path d="M38.173 83.883C37.5022 83.7972 36.6255 84.4702 36.2602 84.7209C35.151 85.4598 34.7392 85.4598 33.5968 85.5918C32.4544 85.7303 31.5511 85.2487 31.5511 85.2487C31.5511 85.2487 31.591 86.1196 31.8235 86.3901C32.036 86.6408 33.0522 86.8058 33.8957 86.7794C34.7392 86.7464 36.8911 86.2977 37.9273 85.8425C38.9567 85.3807 39.6674 84.0743 38.173 83.883Z" fill="#3D322C"/>
<path d="M38.97 84.7145C38.97 84.7145 38.505 84.2989 37.4689 84.7145C36.4262 85.1302 35.9612 85.9351 34.6794 86.2914C33.3975 86.6476 32.0625 86.5421 32.0625 86.5421C32.0625 86.5421 32.3082 86.74 32.9591 86.7862C33.7628 86.839 35.0845 86.7136 36.2136 86.4035C38.246 85.8625 38.8438 85.3677 38.97 84.7145Z" fill="#2B221D"/>
<path d="M33.982 83.5599L35.41 82.8936L35.0314 82.623C35.0314 82.623 34.0418 83.0453 33.5968 83.2366C33.6499 83.3158 33.7894 83.4346 33.982 83.5599Z" fill="white"/>
<path d="M35.6558 82.9858L34.4536 83.7446C34.4536 83.7446 34.7791 83.8633 34.965 83.8567C35.2108 83.7248 36.0809 83.0914 36.0809 83.0914L35.6558 82.9858Z" fill="white"/>
<path d="M41.1286 48.0245C40.7434 47.0744 40.4578 46.5004 39.8334 46.1969C39.1759 45.8737 38.6977 46.2695 38.3191 46.8567C36.9509 47.18 37.3561 48.4666 37.8143 48.8954C36.9376 50.1226 35.9148 50.5316 35.3436 51.5279C35.0978 50.9209 34.2809 49.1065 33.4308 47.9453C33.3577 47.8398 30.8869 49.1263 31.3187 50.2941C31.6574 51.2112 31.9297 51.6664 32.4013 52.5637C32.9459 53.6062 33.7296 54.2329 34.3008 54.5628C34.9584 54.9455 35.6757 54.9257 36.9443 53.7513C38.0867 52.6957 38.5582 51.099 39.2091 50.1754C39.6276 49.5882 41.5337 49.0208 41.1286 48.0245Z" fill="#FFC8B5"/>
<path d="M23.7802 59.7553C24.5041 59.5046 28.4826 56.8985 29.8109 56.5225C30.2692 57.8948 31.3253 61.4707 32.0625 64.2154C32.2751 65.0005 33.3112 65.7131 33.3112 67.534C32.0625 67.1844 30.6744 67.6198 29.9172 68.1278C29.0206 68.7282 27.6457 69.9884 26.3107 70.5822C25.5469 68.8668 23.7337 64.4661 23.4813 63.2389C23.2489 62.1371 22.4319 60.2172 23.7802 59.7553Z" fill="#2B221D"/>
<path d="M16.5938 67.7916C18.0417 65.5747 18.0815 65.5352 19.0047 62.2099C18.8121 58.5746 19.9346 58.2051 21.4157 55.5C21.4223 55.4868 25.0155 55.5066 25.0222 55.5132C25.0355 55.5066 28.197 58.1985 28.3032 59.6236C28.3962 60.8838 28.642 64.1562 26.6893 64.7368C26.3173 66.6963 23.282 69.8698 22.4319 71.7238C20.3995 72.1329 18.1214 69.4344 16.5938 67.7916Z" fill="#3D322C"/>
<path d="M30.1099 42.6803C29.7313 43.1421 29.7047 43.1289 29.2996 43.5578C29.3128 44.5408 29.4191 45.5173 29.6715 46.4806C30.0634 47.965 29.791 51.1056 30.774 50.9604C32.0493 50.7691 33.4706 49.5221 34.354 48.5193C33.8758 47.3383 33.3378 46.7445 32.4743 45.3524C32.481 43.7689 31.0198 42.5549 30.1099 42.6803Z" fill="#3D322C"/>
<path d="M30.4818 43.5842C28.7151 41.5455 27.7188 42.8387 25.3278 44.2044C23.7338 45.3128 22.2128 45.801 22.0202 48.5853C21.9139 50.2083 21.3826 50.6503 21.3161 52.1876C21.2364 53.8502 19.8616 57.8154 19.2107 59.4649C19.5826 61.5695 27.9845 63.9975 31.2722 60.9428C31.5976 59.8805 30.8471 58.2707 30.4818 57.413C30.9932 55.9483 30.8006 53.9954 31.7504 51.7258C33.3112 47.6352 32.1223 45.4711 30.4818 43.5842Z" fill="#F46269"/>
<path d="M23.8599 58.1458C23.8599 58.1458 26.0716 58.8584 27.1874 58.7594C28.3032 58.6604 29.0537 57.8159 29.0537 57.8159C29.0537 57.8159 27.8516 58.1986 26.935 58.1524C26.0251 58.0996 23.8599 58.1458 23.8599 58.1458Z" fill="#DD4A5F"/>
<path d="M25.3278 44.1977C25.3278 44.1977 26.7757 45.5173 27.4266 46.4475C28.0775 47.3778 29.014 48.6907 30.4021 48.1365C31.7902 47.5823 31.2124 46.6257 30.7275 45.3457C30.2427 44.0592 29.1601 42.8848 29.1601 42.8848C29.1601 42.8848 26.7757 43.2146 25.3278 44.1977Z" fill="#3D322C"/>
<path d="M27.2406 41.6184C27.2406 41.6184 29.3527 41.3545 30.0235 42.4036C29.625 43.4526 29.6516 44.4027 30.4353 45.8014C30.9998 46.8174 30.6677 47.3782 30.1364 47.5828C29.5785 47.8005 28.5158 47.1011 28.0708 46.4875C27.1409 45.2142 26.5498 44.6072 25.8325 43.921C26.2842 43.38 27.2406 41.6184 27.2406 41.6184Z" fill="#FFB8A3"/>
<path d="M31.9363 40.325C31.8964 39.4475 31.7105 38.3523 31.033 37.7255C30.3622 37.1119 29.2131 37.0459 28.3497 37.1053C27.0014 37.1977 26.0583 38.6756 26.2908 40.391C26.5099 41.9678 27.5726 44.4024 29.346 44.7323C30.2493 44.8972 30.9466 44.2308 31.3651 43.3665C31.8566 42.3505 31.9695 41.0507 31.9363 40.325Z" fill="#FFC8B5"/>
<path d="M26.8288 36.8878C25.8989 36.9075 24.9823 37.9566 25.3676 40.2262C25.5203 41.1169 25.879 42.0999 26.3173 43.1226C26.3771 43.2677 27.8051 41.4929 27.9911 39.6984C29.5054 40.2328 31.5577 39.2959 33.0255 38.7219C32.4477 36.3072 28.642 34.4994 26.8288 36.8878Z" fill="#2B221D"/>
<path d="M27.7985 41.5785C27.7985 41.5785 27.4464 40.6747 26.8952 41.0573C26.3439 41.44 27.0811 42.6936 27.0811 42.6936L27.7985 41.5785Z" fill="#FFC8B5"/>
<path d="M23.8599 58.4818C23.468 58.3895 23.0164 58.6995 22.6113 58.7655C22.0334 57.0633 21.1501 54.5628 20.8711 54.3385C21.1036 54.0086 22.319 52.5571 22.857 51.7258C22.5515 51.5278 20.984 49.4496 20.6984 48.7832C19.742 50.2017 18.8387 51.1188 18.2144 52.2272C17.6897 53.1575 17.3111 54.0218 17.8159 55.117C18.4469 56.4695 19.8416 58.4158 20.9442 59.6562C20.9442 59.6562 21.0504 60.857 21.9404 61.7081C22.7242 62.4602 24.4577 62.038 24.9292 61.0747C25.341 60.2302 24.7167 59.9729 24.4112 59.577C24.4909 58.7655 24.1654 58.5544 23.8599 58.4818Z" fill="#FFC8B5"/>
<path d="M22.0003 53.7382C22.6047 53.2764 23.2091 52.7024 23.5478 52.2472C24.3714 51.1387 25.4274 49.7466 25.3278 48.183C25.2547 47.0614 24.7433 45.7946 23.6474 45.3394C21.967 45.6824 21.0438 45.8078 20.3265 48.1302C19.6557 48.6382 18.6528 50.3008 18.3672 50.954C18.3738 51.561 19.855 53.7382 22.0003 53.7382Z" fill="#3D322C"/>
<path d="M34.5532 82.445L34.7325 82.2867C34.7325 82.2867 34.7325 81.5741 34.7325 81.33C34.7325 81.0859 33.8425 80.9078 33.4706 81.5016C33.0986 82.0953 33.4971 82.6891 33.4971 82.6891L34.5532 82.445Z" fill="#3D322C"/>
<path d="M25.3609 40.226C25.3609 40.226 27.2272 40.6615 29.2995 40.5493C31.3717 40.4372 31.9363 40.325 31.9363 40.325L31.8234 38.7152C31.8234 38.7152 28.4028 38.8801 27.2339 38.7152C26.0649 38.5502 25.3543 38.3721 25.3543 38.3721C25.3543 38.3721 24.8761 39.4607 25.3609 40.226Z" fill="#F46269"/>
</g>
<defs>
<clipPath id="clip0_1748_12732">
<rect width="63" height="91.7609" fill="white"/>
</clipPath>
</defs>
</svg>
