<svg width="82" height="103" viewBox="0 0 82 103" fill="none" xmlns="http://www.w3.org/2000/svg">
<g clip-path="url(#clip0_1749_16680)">
<path d="M48.2597 41.9574C44.6776 44.0088 38.8728 44.0088 35.2907 41.9574C31.7086 39.906 31.7086 36.5832 35.2907 34.5425C38.8728 32.4911 44.6776 32.4911 48.2597 34.5425C51.8418 36.5832 51.8418 39.906 48.2597 41.9574Z" fill="#102C55"/>
<path d="M35.7115 26.3262H33.4133V38.3461C33.4133 38.7628 33.6399 39.1368 33.996 39.3505L35.1073 39.9808C35.172 40.0236 35.431 40.1518 35.7115 40.1518C36.0028 40.1518 36.2618 40.0129 36.3265 39.9702L37.2328 39.4466C37.7183 39.1688 38.0097 38.656 38.0097 38.1111V26.3262H35.7115Z" fill="#06152A"/>
<path d="M35.7224 32.0211C40.6682 32.0211 44.6777 24.9128 44.6777 16.1441C44.6777 7.37548 40.6682 0.26709 35.7224 0.26709C30.7765 0.26709 26.7671 7.37548 26.7671 16.1441C26.7671 24.9128 30.7765 32.0211 35.7224 32.0211Z" fill="#21539D"/>
<path d="M44.6668 16.144C44.6668 10.6202 43.4908 6.42124 41.6242 3.72877C41.3976 3.7074 41.1603 3.68604 40.9337 3.68604C35.9921 3.68604 31.9784 9.49835 31.9784 19.5631C31.9784 25.0442 33.176 29.2645 35.0534 31.9783C35.2692 31.9997 35.4958 32.0211 35.7116 32.0211C40.6639 32.0211 44.6668 26.3263 44.6668 16.144Z" fill="#2D64B5"/>
<path d="M35.7223 32.2776C30.1981 32.2776 26.4973 25.7922 26.4973 16.1441C26.4973 6.49612 30.1981 0 35.7223 0C41.2358 0 44.9474 6.48543 44.9474 16.1441C44.9474 25.8028 41.2358 32.2776 35.7223 32.2776ZM35.7223 0.53422C30.6081 0.53422 27.0368 6.95555 27.0368 16.1441C27.0368 25.3327 30.6081 31.754 35.7223 31.754C40.9121 31.754 44.4079 25.4823 44.4079 16.1441C44.4079 6.80597 40.9121 0.53422 35.7223 0.53422Z" fill="#06152A"/>
<path d="M57.6897 55.4305C55.4023 56.734 51.7015 56.734 49.4141 55.4305C47.1268 54.127 47.1268 52.0115 49.4141 50.6973C51.7015 49.3939 55.4023 49.3939 57.6897 50.6973C59.9771 52.0115 59.9771 54.127 57.6897 55.4305Z" fill="#102C55"/>
<path d="M49.2308 45.0771H47.7095V53.037C47.7095 53.3148 47.8605 53.5606 48.0979 53.6995L48.8316 54.1162C48.8747 54.1375 49.0474 54.2337 49.2308 54.2337C49.4142 54.2337 49.5976 54.1375 49.6408 54.1162L50.245 53.7743C50.5687 53.5926 50.7629 53.2507 50.7629 52.8874V45.0771H49.2308Z" fill="#06152A"/>
<path d="M49.2308 37.3203C45.4544 37.3203 43.2426 44.949 43.2318 45.0451C43.2318 45.0772 43.2318 45.1092 43.2318 45.1413C43.2318 45.1627 43.2318 45.184 43.2318 45.2161C43.2318 45.2481 43.2318 45.2695 43.2318 45.2802C43.2534 46.1349 43.8468 46.9897 44.9905 47.6521C47.3318 48.9877 51.1405 48.9877 53.4818 47.6521C54.6255 47.0004 55.2082 46.1456 55.2405 45.2802C55.2405 45.2695 55.2405 45.2481 55.2405 45.2161C55.2297 45.0131 53.0071 37.3203 49.2308 37.3203Z" fill="#21539D"/>
<path d="M49.2307 48.9023C47.6447 48.9023 46.0586 48.5604 44.8502 47.866C43.6634 47.1822 42.9944 46.2633 42.962 45.2803V45.2162L43.2318 45.1735L42.962 45.1414V45.0453C42.9728 44.9598 45.1955 37.0747 49.2307 37.0747C53.3523 37.0747 55.4994 45.1521 55.4994 45.2269L55.4886 45.3338C55.4671 46.2847 54.7873 47.2142 53.6005 47.8873C52.4028 48.5498 50.8168 48.9023 49.2307 48.9023ZM49.2307 37.5876C45.9615 37.5876 43.7173 44.1157 43.5015 45.0987V45.259C43.5231 46.0603 44.1057 46.8189 45.1199 47.4065C47.3857 48.6993 51.0757 48.6993 53.3415 47.4065C54.3665 46.8189 54.9384 46.0603 54.96 45.259C54.8629 44.5858 52.6294 37.5876 49.2307 37.5876Z" fill="#06152A"/>
<path d="M53.3955 47.6308C54.5392 46.9791 55.1218 46.1243 55.1542 45.2589C55.1542 45.2482 55.1542 45.2268 55.1542 45.1948C55.1542 45.0879 54.4205 42.5237 53.0934 40.3441C52.5215 39.9381 51.8957 39.6816 51.216 39.6816C47.4397 39.6816 45.2278 47.3103 45.217 47.4065C45.217 47.4385 45.217 47.4706 45.217 47.5026C45.217 47.524 45.217 47.5454 45.217 47.5774C45.217 47.6095 45.217 47.6308 45.217 47.6415C45.217 47.6949 45.217 47.7377 45.2278 47.7911C47.5907 48.9664 51.1621 48.913 53.3955 47.6308Z" fill="#2D64B5"/>
</g>
<path d="M27.8205 52.6338L0.069458 68.7585V70.1285L27.8274 86.2532L55.5716 70.1355V68.7655L27.8205 52.6338Z" fill="#0F3061"/>
<path d="M27.8274 86.3301C27.8135 86.3301 27.7997 86.3301 27.7927 86.3231L0.0347256 70.1984C0.0138915 70.1844 0 70.1634 0 70.1355V68.7655C0 68.7376 0.0138915 68.7166 0.0347256 68.7026L27.7788 52.5779C27.7997 52.5639 27.8274 52.5639 27.8552 52.5779L55.6132 68.7026C55.634 68.7166 55.6479 68.7376 55.6479 68.7655V70.1355C55.6479 70.1634 55.634 70.1844 55.6132 70.1984L27.8691 86.3231C27.8552 86.3231 27.8413 86.3301 27.8274 86.3301ZM0.145838 70.0865L27.8274 86.1693L55.5021 70.0865V68.8075L27.8205 52.7177L0.145838 68.8005V70.0865Z" fill="#0F3061"/>
<path d="M55.1757 68.6325L27.8205 84.5266L0.458374 68.6255L27.8136 52.7314L55.1757 68.6325Z" fill="#194688"/>
<path d="M27.8205 84.6035C27.8066 84.6035 27.7927 84.6035 27.7858 84.5965L0.423636 68.6954C0.402802 68.6814 0.388916 68.6605 0.388916 68.6325C0.388916 68.6046 0.402802 68.5836 0.423636 68.5696L27.7788 52.6755C27.7997 52.6615 27.8275 52.6615 27.8552 52.6755L55.2174 68.5766C55.2382 68.5906 55.2521 68.6116 55.2521 68.6395C55.2521 68.6675 55.2382 68.6884 55.2174 68.7024L27.8622 84.5965C27.8483 84.5965 27.8344 84.6035 27.8205 84.6035ZM0.6042 68.6255L27.8205 84.4427L55.0299 68.6325L27.8136 52.8153L0.6042 68.6255Z" fill="#0F3061"/>
<path d="M0.458252 68.6255V69.9745L27.8204 85.8755V84.5266L0.458252 68.6255Z" fill="#0C274E"/>
<path d="M27.8205 85.9524C27.8066 85.9524 27.7927 85.9524 27.7858 85.9454L0.423636 70.0443C0.402802 70.0304 0.388916 70.0094 0.388916 69.9814V68.6325C0.388916 68.6045 0.402802 68.5835 0.423636 68.5696C0.44447 68.5556 0.47225 68.5556 0.500029 68.5696L27.8622 84.4707C27.883 84.4846 27.8969 84.5056 27.8969 84.5336V85.8825C27.8969 85.9105 27.883 85.9315 27.8622 85.9454C27.8483 85.9454 27.8344 85.9524 27.8205 85.9524ZM0.534754 69.9325L27.7511 85.7497V84.5685L0.534754 68.7513V69.9325Z" fill="#0F3061"/>
<path d="M55.1756 68.6323V69.9813L27.8204 85.8754V84.5264L55.1756 68.6323Z" fill="#0C274E"/>
<path d="M27.8204 85.9523C27.8065 85.9523 27.7926 85.9523 27.7857 85.9453C27.7649 85.9313 27.751 85.9103 27.751 85.8824V84.5334C27.751 84.5054 27.7649 84.4845 27.7857 84.4705L55.1409 68.5764C55.1617 68.5624 55.1895 68.5624 55.2173 68.5764C55.2381 68.5904 55.252 68.6113 55.252 68.6393V69.9883C55.252 70.0162 55.2381 70.0372 55.2173 70.0512L27.8621 85.9453C27.8482 85.9453 27.8343 85.9523 27.8204 85.9523ZM27.8968 84.5684V85.7496L55.1062 69.9394V68.7581L27.8968 84.5684Z" fill="#0F3061"/>
<path d="M55.1726 68.874L27.4215 84.9988V86.3687L55.1795 102.493L82.9236 86.3757V85.0058L55.1726 68.874Z" fill="#0F3061"/>
<path d="M55.1795 102.57C55.1656 102.57 55.1517 102.57 55.1448 102.563L27.3868 86.4386C27.3659 86.4246 27.3521 86.4037 27.3521 86.3757V85.0058C27.3521 84.9778 27.3659 84.9568 27.3868 84.9429L55.1309 68.8181C55.1517 68.8041 55.1795 68.8041 55.2073 68.8181L82.9653 84.9429C82.9861 84.9568 83 84.9778 83 85.0058V86.3757C83 86.4037 82.9861 86.4246 82.9653 86.4386L55.2212 102.563C55.2073 102.563 55.1934 102.57 55.1795 102.57ZM27.4979 86.3268L55.1795 102.41L82.8541 86.3268V85.0477L55.1725 68.9579L27.4979 85.0407V86.3268Z" fill="#0F3061"/>
<path d="M82.5278 84.8728L55.1726 100.767L27.8104 84.8658L55.1656 68.9717L82.5278 84.8728Z" fill="#194688"/>
<path d="M55.1726 100.844C55.1587 100.844 55.1448 100.844 55.1378 100.837L27.7757 84.9357C27.7549 84.9217 27.741 84.9007 27.741 84.8728C27.741 84.8448 27.7549 84.8238 27.7757 84.8098L55.1309 68.9158C55.1517 68.9018 55.1795 68.9018 55.2073 68.9158L82.5694 84.8168C82.5903 84.8308 82.6041 84.8518 82.6041 84.8797C82.6041 84.9077 82.5903 84.9287 82.5694 84.9427L55.2142 100.837C55.2003 100.837 55.1864 100.844 55.1726 100.844ZM27.9563 84.8658L55.1726 100.683L82.3819 84.8728L55.1656 69.0555L27.9563 84.8658Z" fill="#0F3061"/>
<path d="M27.8104 84.8657V86.2147L55.1726 102.116V100.767L27.8104 84.8657Z" fill="#0C274E"/>
<path d="M55.1726 102.193C55.1587 102.193 55.1448 102.193 55.1378 102.186L27.7757 86.2846C27.7549 86.2706 27.741 86.2496 27.741 86.2217V84.8727C27.741 84.8447 27.7549 84.8238 27.7757 84.8098C27.7965 84.7958 27.8243 84.7958 27.8521 84.8098L55.2142 100.711C55.2351 100.725 55.2489 100.746 55.2489 100.774V102.123C55.2489 102.151 55.2351 102.172 55.2142 102.186C55.2003 102.186 55.1864 102.193 55.1726 102.193ZM27.8868 86.1728L55.1031 101.99V100.809L27.8868 84.9915V86.1728Z" fill="#0F3061"/>
<path d="M82.5277 84.8726V86.2215L55.1725 102.116V100.767L82.5277 84.8726Z" fill="#0C274E"/>
<path d="M55.1726 102.193C55.1587 102.193 55.1448 102.193 55.1379 102.186C55.117 102.172 55.1031 102.151 55.1031 102.123V100.774C55.1031 100.746 55.117 100.725 55.1379 100.711L82.4931 84.8171C82.5139 84.8031 82.5417 84.8031 82.5695 84.8171C82.5903 84.8311 82.6042 84.8521 82.6042 84.88V86.229C82.6042 86.257 82.5903 86.2779 82.5695 86.2919L55.2143 102.186C55.2004 102.186 55.1865 102.193 55.1726 102.193ZM55.249 100.809V101.99L82.4583 86.1801V84.9989L55.249 100.809Z" fill="#0F3061"/>
<defs>
<clipPath id="clip0_1749_16680">
<rect width="32.908" height="56.4137" fill="white" transform="translate(26.4973)"/>
</clipPath>
</defs>
</svg>
