<svg width="48" height="82" viewBox="0 0 48 82" fill="none" xmlns="http://www.w3.org/2000/svg">
<g clip-path="url(#clip0_1240_29348)">
<path d="M31.3384 60.3934C26.1801 63.3461 17.8211 63.3461 12.6627 60.3934C7.50436 57.4406 7.50436 52.6577 12.6627 49.7203C17.8211 46.7676 26.1801 46.7676 31.3384 49.7203C36.4968 52.6577 36.4968 57.4406 31.3384 60.3934Z" fill="#102C55"/>
<path d="M13.2687 37.8936H9.95923V55.1949C9.95923 55.7947 10.2855 56.333 10.7982 56.6406L12.3986 57.5479C12.4918 57.6094 12.8647 57.794 13.2687 57.794C13.6882 57.794 14.061 57.5941 14.1543 57.5325L15.4594 56.779C16.1586 56.3791 16.5781 55.6409 16.5781 54.8566V37.8936H13.2687Z" fill="#06152A"/>
<path d="M13.2843 46.0912C20.4065 46.0912 26.1802 35.8595 26.1802 23.238C26.1802 10.6165 20.4065 0.384766 13.2843 0.384766C6.16211 0.384766 0.388428 10.6165 0.388428 23.238C0.388428 35.8595 6.16211 46.0912 13.2843 46.0912Z" fill="#21539D"/>
<path d="M26.1646 23.2377C26.1646 15.2867 24.471 9.24278 21.7831 5.36727C21.4568 5.33651 21.115 5.30576 20.7887 5.30576C13.6727 5.30576 7.89282 13.6719 7.89282 28.159C7.89282 36.0484 9.61745 42.1231 12.3209 46.0294C12.6317 46.0601 12.9579 46.0909 13.2687 46.0909C20.4003 46.0909 26.1646 37.8939 26.1646 23.2377Z" fill="#2D64B5"/>
<path d="M13.2843 46.46C5.32926 46.46 0 37.1249 0 23.2377C0 9.35044 5.32926 0 13.2843 0C21.2238 0 26.5686 9.33506 26.5686 23.2377C26.5686 37.1403 21.2238 46.46 13.2843 46.46ZM13.2843 0.76895C5.91967 0.76895 0.77686 10.0117 0.77686 23.2377C0.77686 36.4636 5.91967 45.7064 13.2843 45.7064C20.7577 45.7064 25.7918 36.6789 25.7918 23.2377C25.7918 9.79643 20.7577 0.76895 13.2843 0.76895Z" fill="#06152A"/>
<path d="M44.918 79.7863C41.6241 81.6625 36.2948 81.6625 33.0009 79.7863C29.707 77.91 29.707 74.865 33.0009 72.9734C36.2948 71.0971 41.6241 71.0971 44.918 72.9734C48.2119 74.865 48.2119 77.91 44.918 79.7863Z" fill="#102C55"/>
<path d="M32.7369 64.8837H30.5461V76.3411C30.5461 76.7409 30.7637 77.0946 31.1055 77.2946L32.162 77.8944C32.2242 77.9251 32.4728 78.0635 32.7369 78.0635C33.001 78.0635 33.2652 77.9251 33.3273 77.8944L34.1974 77.4022C34.6635 77.1408 34.9432 76.6487 34.9432 76.1258V64.8837H32.7369Z" fill="#06152A"/>
<path d="M32.7368 53.7189C27.2988 53.7189 24.1137 64.6995 24.0981 64.8379C24.0981 64.884 24.0981 64.9302 24.0981 64.9763C24.0981 65.0071 24.0981 65.0378 24.0981 65.084C24.0981 65.1301 24.0981 65.1609 24.0981 65.1762C24.1292 66.4066 24.9838 67.6369 26.6307 68.5904C30.0023 70.5127 35.4869 70.5127 38.8585 68.5904C40.5054 67.6523 41.3444 66.4219 41.391 65.1762C41.391 65.1609 41.391 65.1301 41.391 65.084C41.3755 64.7918 38.1748 53.7189 32.7368 53.7189Z" fill="#21539D"/>
<path d="M32.7368 70.3897C30.4529 70.3897 28.1689 69.8976 26.4287 68.898C24.7196 67.9137 23.7563 66.5911 23.7097 65.1762V65.084L24.0981 65.0224L23.7097 64.9763V64.8379C23.7253 64.7149 26.9259 53.3652 32.7368 53.3652C38.672 53.3652 41.7639 64.9917 41.7639 65.0993L41.7484 65.2531C41.7173 66.6219 40.7385 67.9598 39.0294 68.9287C37.3048 69.8822 35.0208 70.3897 32.7368 70.3897ZM32.7368 54.1033C28.0291 54.1033 24.7973 63.4999 24.4866 64.9148V65.1455C24.5177 66.2989 25.3567 67.3908 26.8172 68.2367C30.08 70.0975 35.3937 70.0975 38.6565 68.2367C40.1325 67.3908 40.956 66.2989 40.9871 65.1455C40.8472 64.1766 37.631 54.1033 32.7368 54.1033Z" fill="#06152A"/>
<path d="M38.7342 68.5601C40.3812 67.622 41.2202 66.3916 41.2668 65.1459C41.2668 65.1306 41.2668 65.0998 41.2668 65.0537C41.2668 64.8999 40.2103 61.2089 38.2992 58.0716C37.4757 57.4872 36.5746 57.1181 35.5957 57.1181C30.1577 57.1181 26.9726 68.0987 26.957 68.2371C26.957 68.2832 26.957 68.3294 26.957 68.3755C26.957 68.4063 26.957 68.437 26.957 68.4832C26.957 68.5293 26.957 68.5601 26.957 68.5755C26.957 68.6523 26.957 68.7139 26.9726 68.7908C30.3752 70.4824 35.518 70.4056 38.7342 68.5601Z" fill="#2D64B5"/>
</g>
<defs>
<clipPath id="clip0_1240_29348">
<rect width="47.3885" height="81.2012" fill="white"/>
</clipPath>
</defs>
</svg>
