<svg width="138" height="201" viewBox="0 0 138 201" fill="none" xmlns="http://www.w3.org/2000/svg">
<g style="mix-blend-mode:luminosity" clip-path="url(#clip0_1240_30647)">
<path d="M109.354 18.6144C109.63 18.4698 112.191 19.8572 113.617 21.6059C115.057 23.3546 115.726 24.9299 116.104 27.2567C118.112 28.8031 118.679 30.1905 119.742 31.4334C120.789 32.6618 121.851 34.2804 121.851 34.2804C121.851 34.2804 126.332 30.7975 128.063 29.2511C129.227 28.2106 130.755 26.8087 130.464 25.0889C130.391 24.6264 129.867 22.054 131.788 21.6204C132.079 19.6405 133.315 18.86 135.323 19.6405C137.331 20.4353 138.058 21.6204 138 23.3691C137.956 24.8143 135.818 25.7537 134.087 27.9215C132.457 29.1644 131.511 33.3122 128.805 36.7229C127.656 38.1681 125.808 39.382 124.339 40.3503C123.568 40.8562 122.884 41.4342 120.702 40.8995C119.029 40.4949 110.619 35.6968 109.688 33.2254C108.757 30.7686 105.091 20.7966 109.354 18.6144Z" fill="#FFB8A3"/>
<path d="M100.377 1.19955C98.1658 0.115643 93.612 -1.60416 91.7062 3.28066C89.8003 8.16547 87.6325 8.90253 85.683 8.17992C83.7335 7.45732 83.8644 4.39347 83.8644 4.39347C83.8644 4.39347 80.911 6.9804 83.4134 11.1282C82.686 15.7673 89.713 15.3771 91.2697 12.8624C95.8234 15.7673 95.2124 6.48902 97.6129 7.05266C99.8825 7.58738 102.778 8.46896 103.491 5.91094C104.203 3.35292 101.745 1.8788 100.377 1.19955Z" fill="#2B221D"/>
<path d="M85.5812 64.3264C82.7587 63.1846 79.5726 62.3898 77.4775 61.1324C76.7356 61.9418 76.0663 62.8089 75.659 63.8205C75.528 64.1385 75.4553 64.4709 75.4116 64.8033C79.7035 67.3613 86.6287 74.0671 88.6946 76.5962C91.1824 79.6456 93.7866 79.8768 94.7323 78.7785C96.3327 76.9431 98.2531 74.3128 98.224 74.1683C97.1619 69.0811 88.811 65.6271 85.5812 64.3264Z" fill="#FFB8A3"/>
<path d="M102.821 39.4688C105.775 39.8445 107.841 40.4515 110.736 39.1364C110.212 41.5354 109.776 44.9895 110.43 48.7037C109.979 50.9582 108.961 53.1116 104.625 53.5885C96.8272 54.4556 92.6372 50.4668 92.2444 48.7904C92.6663 47.6342 94.2376 45.6254 95.0232 43.8333C95.8961 41.8678 95.4015 39.6422 95.8816 36.6072C98.253 37.8212 100.581 39.1797 102.821 39.4688Z" fill="#FFC8B5"/>
<path d="M90.6296 57.5772C91.6189 54.0365 91.8808 51.7097 94.0486 48.6603C94.3104 48.2845 94.5723 48.0099 94.8487 47.7932C97.031 48.7614 99.3879 49.2962 101.701 49.3251C104.058 49.3395 108.248 50.5824 110.43 48.7036C110.721 52.1432 110.823 54.0365 109.514 57.2159C107.521 62.0574 99.8826 73.648 97.9621 75.5846C96.9583 75.5846 90.0913 73.937 90.0913 66.8699C91.3861 63.1702 89.8149 60.4677 90.6296 57.5772Z" fill="#2B221D"/>
<path d="M110.721 82.406C110.357 73.0844 105.702 63.4593 104.683 60.0775C106.109 57.9675 107.419 52.1866 107.099 49.7298C105.091 50.568 100.421 51.2617 98.0202 49.6864C96.6526 48.7904 94.8195 47.5041 93.9902 45.9C89.9748 50.5535 86.0757 57.8808 90.3967 63.4737C89.8875 66.6821 93.1027 71.7259 94.1211 73.4746C97.1909 78.7496 101.425 81.7123 104.407 84.8773C105.295 84.964 109.892 83.461 110.721 82.406Z" fill="#3D322C"/>
<path d="M94.4414 48.0677C94.8342 48.6892 95.2852 49.2673 95.7071 49.7876C95.7653 49.8598 95.8235 49.9321 95.8962 50.0043C94.6596 51.6085 92.8992 54.788 93.583 59.3838C94.6014 66.263 103.898 77.6368 103.898 77.6368L102.589 79.082C102.589 79.082 94.2231 67.9972 92.4191 61.6961C90.8042 56.0742 92.4773 51.8831 94.2231 48.5013C94.2813 48.3279 94.3541 48.1978 94.4414 48.0677Z" fill="#61A1FF"/>
<path d="M110.154 46.5792L110.416 48.7037C110.416 48.7037 108.728 50.6403 103.694 51.0594C97.6856 51.5507 92.1716 47.562 92.1716 47.562L93.4374 45.1629C93.4374 45.1629 97.3946 47.6776 101.686 48.1256C105.978 48.5881 110.154 46.5792 110.154 46.5792Z" fill="#668BF7"/>
<path d="M110.547 40.0613C107.448 41.3331 104.829 42.2147 101.599 41.6655C99.1115 41.2464 97.7003 41.0007 95.6489 39.7723C95.678 39.2809 95.4452 34.8586 95.4016 34.3672C95.0233 30.6819 93.3357 31.0432 93.7867 28.3985C94.5578 24.0195 98.5005 22.2708 100.523 21.3025C108.597 17.4293 109.281 18.2531 109.019 18.571C109.499 19.0479 110.212 20.2619 112.351 24.1784C113.398 26.1006 115.479 29.5402 115.712 30.5952C116.337 33.4856 114.097 35.1042 113.195 36.2893C112.715 36.8819 111.071 37.8212 110.547 40.0613Z" fill="#61A1FF"/>
<path d="M109.441 20.9267C109.499 21.1001 110.125 22.4297 111.027 24.3085C111.943 26.1873 112.889 27.7336 111.463 29.2945C110.037 30.8553 107.171 30.4795 105.571 28.832C103.971 27.1845 100.013 21.5192 100.013 21.5192L102.429 20.392L109.441 20.9267Z" fill="#2B221D"/>
<path d="M102.429 16.4176C104.742 16.8945 107.302 17.6027 109.325 17.4293C108.903 19.1346 108.335 19.6404 109.354 22.7765C110.067 24.9588 112.147 27.618 110.285 28.6007C109.412 29.0632 107.71 29.5112 105.731 27.2133C104.029 25.2478 101.497 22.2418 100.988 21.1579C101.948 20.0017 101.978 17.8484 102.429 16.4176Z" fill="#FFB8A3"/>
<path d="M112.161 9.40835C109.121 8.7291 107.535 8.61348 104.843 9.69739C103.33 10.102 101.905 10.7813 100.537 11.6629C100.435 11.7351 100.348 11.8797 100.377 12.0097C101.075 15.9841 102.414 20.1896 106.895 21.9528C110.59 23.398 112.656 19.3803 113.296 16.6922C114.038 13.5417 114.271 9.88527 112.161 9.40835Z" fill="#FFC8B5"/>
<path d="M102.428 5.39068C105.324 3.06389 108.99 3.35293 110.969 4.95711C113.82 5.08718 115.202 6.76363 113.82 9.61069C112.001 11.923 107.39 13.6139 104.756 13.2382C104.232 14.9002 103.36 18.6722 101.832 18.571C98.7913 12.3277 97.7729 9.13377 102.428 5.39068Z" fill="#3D322C"/>
<path d="M105.324 15.0736C105.324 15.0736 104.596 12.6312 102.996 13.8885C101.396 15.1459 103.665 17.6027 103.665 17.6027L105.324 15.0736Z" fill="#FFC8B5"/>
<path d="M85.6829 40.2636C84.6936 41.5643 85.4646 43.6887 86.1921 45.2062C86.9195 46.7237 89.7856 49.6719 93.5828 53.9064C96.3325 56.9702 99.3877 59.8462 100.799 58.1698C102.85 55.6984 103.985 53.3139 101.599 52.4467C101.861 50.2355 97.1327 51.9554 97.1327 51.9554C97.1327 51.9554 95.2996 48.4724 94.0775 46.1167C92.8554 43.761 91.6187 41.6944 91.6187 41.6944C91.6187 41.6944 96.2598 38.4571 96.7399 36.4916C100.872 37.9079 102.123 33.4422 101.046 28.9909C100.363 26.1583 98.864 23.1234 97.7001 22.7187C96.1143 22.1695 92.5062 26.1728 92.1134 29.0921C88.258 33.5578 86.6722 38.9629 85.6829 40.2636Z" fill="#FFC8B5"/>
<path d="M111.216 38.4282C111.216 38.4282 107.739 40.6249 102.137 40.0179C97.0891 39.4687 95.5906 38.3848 95.5906 38.3848L95.6342 40.0179C95.6342 40.0179 98.4421 42.1568 103.389 42.1424C108.088 42.1279 110.416 40.7261 110.416 40.7261L111.216 38.4282Z" fill="#2B221D"/>
<path d="M111.943 36.6217C111.943 36.6217 109.863 36.0581 108.801 36.7373C107.521 37.5611 105.833 38.4571 104.742 38.3993C102.429 38.2837 100.741 36.4049 100.741 36.4049C100.741 36.4049 101.294 38.6883 104.378 39.1508C105.193 39.2809 107.317 39.0207 108.248 38.4137C109.543 37.5466 111.943 36.6217 111.943 36.6217Z" fill="#668BF7"/>
<path d="M107.535 45.1629C108.263 45.3507 107.652 47.1139 107.113 46.5503C106.56 45.9722 106.808 44.975 107.535 45.1629Z" fill="#FFB8A3"/>
<path d="M114.256 8.41115C114.271 8.32444 114.882 8.52677 114.897 9.59622C114.926 11.0703 114.373 11.9808 113.82 12.978C113.689 13.2237 111.216 14.7123 106.342 15.1892C103.869 15.4349 100.173 15.0591 100.173 15.0591C100.173 15.0591 99.0531 13.3249 98.864 12.6167C98.6894 11.9086 99.2713 11.5184 99.2713 11.5184C99.2713 11.5184 99.2713 11.8797 101.483 11.9808C103.694 12.082 108.757 11.2871 110.416 10.7524C111.376 10.4489 112.86 10.3477 113.645 9.76965C114.126 8.88807 114.256 8.41115 114.256 8.41115Z" fill="#61A1FF"/>
<path d="M100.755 81.351C100.755 81.351 102.152 82.7239 102.938 85.4554C103.345 86.8862 104.247 91.9733 104.756 96.0921C105.265 100.211 109.034 108.911 109.034 108.911H113.238C113.238 108.911 112.263 98.4334 111.943 92.2479C111.798 89.4731 111.987 85.0507 111.361 82.1025C110.59 78.475 109.805 75.5846 109.805 75.5846C109.805 75.5846 102.661 76.4951 100.755 81.351Z" fill="#FFC8B5"/>
<path d="M107.855 106.064C107.855 106.064 108.102 108.319 107.855 110.082C107.564 112.105 106.982 113.507 109.194 114.331C110.008 114.634 111.289 115.299 113.224 116.34C114.955 117.264 117.268 118.594 119.174 118.247C121.254 117.871 122.506 117.38 122.171 116.007C121.807 114.49 119.596 112.741 117.705 111.339C114.46 108.94 112.918 105.587 112.918 105.587L109.645 107.885L107.855 106.064Z" fill="#61A1FF"/>
<path d="M107.579 111.079C107.579 111.079 108.539 112.351 109.426 112.9C111.201 113.984 111.521 114.591 113.238 115.935C115.1 117.395 117.588 117.539 119.567 116.788C120.469 116.441 122.2 115.993 122.2 115.993C122.2 115.993 123 118.117 119.203 118.84C115.421 119.562 110.43 114.952 110.43 114.952C110.43 114.952 106.429 115.227 107.579 111.079Z" fill="#3D322C"/>
<path d="M110.721 107.119C110.721 107.119 111.07 109.142 113.238 111.079C115.406 113.016 116.264 113.623 117.239 113.507C118.214 113.391 119.203 112.539 119.203 112.539C119.203 112.539 115.741 109.894 114.591 108.189C113.442 106.483 113.747 103.752 112.205 104.402C110.648 105.052 110.721 107.119 110.721 107.119Z" fill="#2B221D"/>
<path d="M79.3107 62.0429C79.3107 62.0429 78.0595 60.3665 76.721 59.2103C75.7899 58.4155 72.6183 62.8378 72.08 63.5749C71.5271 64.3119 68.2245 65.6849 67.6717 68.1706C67.1188 70.6564 68.37 71.09 69.2866 71.4079C70.2032 71.7114 77.4193 66.1473 77.4193 66.1473C77.4193 66.1473 76.5464 64.7455 76.2409 63.5749C77.4921 63.069 79.3107 62.0429 79.3107 62.0429Z" fill="#61A1FF"/>
<path d="M77.7394 60.1931C77.7394 60.1931 74.3495 60.5255 72.5891 63.3147C67.9481 66.8699 67.5989 68.1273 68.0645 69.8037C68.5446 71.4946 69.272 71.3934 69.272 71.3934C69.272 71.3934 67.9481 71.7981 67.0752 70.2517C66.2023 68.7054 66.8424 67.3758 68.1372 65.9016C69.4175 64.4275 72.0799 62.5777 72.0799 62.5777C72.0799 62.5777 74.1313 59.3548 75.7753 59.1091C77.2302 58.8924 77.7394 60.1931 77.7394 60.1931Z" fill="#3D322C"/>
<path d="M70.9597 70.6853C70.9597 70.6853 70.3195 69.3702 72.0508 67.9105C73.7967 66.4509 75.3388 63.994 77.4484 64.9478C79.558 65.9017 80.1545 67.4191 78.7723 67.2024C77.3902 66.9856 76.43 66.87 76.43 66.87L70.9597 70.6853Z" fill="#3D322C"/>
<path d="M17.8713 154.392C21.974 152.889 33.6566 149.926 37.5557 150.331C39.156 149.16 44.7427 142.324 44.8591 141.819C47.6961 144.969 50.8968 145.995 54.4904 146.732C52.8173 148.438 45.0774 156.068 43.4043 157.658C41.4256 158.814 39.5634 160.549 36.7119 159.754C29.292 157.658 22.9052 157.441 17.9295 157.759C16.1691 155.649 14.5397 158.612 17.8713 154.392Z" fill="#FFC8B5"/>
<path d="M70.7269 149.724C71.3234 149.363 72.9965 148.741 72.9674 147.946C72.9383 147.166 67.5698 144.637 64.471 147.946C61.3721 151.256 57.2694 153.857 57.6185 154.623C57.9823 155.389 59.1171 155.75 61.9977 154.623C64.8929 153.51 69.9122 150.215 70.7269 149.724Z" fill="#2B221D"/>
<path d="M24.0982 158.395C25.1894 156.936 24.1273 155.476 22.7307 154.349C23.9237 153.756 23.9528 152.759 24.1564 152.267C22.3524 152.239 19.4718 152.036 17.7405 152.499C16.2419 152.903 15.2381 157.34 14.9617 159.103C14.2488 163.598 14.3361 166.864 18.1915 168.165C19.4427 168.584 20.7084 167.717 21.203 165.881C21.9596 163.135 23.0944 160.997 24.0982 158.395Z" fill="#F46269"/>
<path d="M18.7589 152.253C18.7589 152.253 17.9733 154.219 16.9985 156.357C16.0237 158.482 14.598 161.3 15.0344 163.511C15.4709 165.722 17.3477 165.896 18.6279 166.243C19.9082 166.59 19.8791 167.948 19.8791 167.948C19.8791 167.948 18.8607 169.09 16.4456 167.601C14.0451 166.113 13.856 163.583 14.1033 161.213C14.3652 158.843 15.4272 155.375 15.8201 153.944C16.0092 153.221 16.6639 152.557 17.3331 152.398C18.0024 152.224 18.7589 152.253 18.7589 152.253Z" fill="#3D322C"/>
<path d="M22.265 155.707C22.265 155.707 20.9411 158.048 20.4465 159.378C19.9518 160.693 19.9227 162.948 21.1739 163.352C22.0323 163.627 23.6617 160.057 24.3455 158.048C25.0293 156.039 22.265 155.707 22.265 155.707Z" fill="#3D322C"/>
<path d="M19.6464 157.875C19.6464 157.875 21.0576 158.193 21.9305 158.829C22.818 159.479 23.5309 160.086 23.5309 160.086L23.2399 160.924C23.2399 160.924 22.3524 159.985 21.5086 159.407C20.6211 158.8 19.4136 158.525 19.4136 158.525L19.6464 157.875Z" fill="white"/>
<path d="M19.0354 159.595C19.0354 159.595 20.4466 159.913 21.3195 160.549C22.207 161.199 22.7016 161.719 22.7016 161.719L22.4107 162.398C22.4107 162.398 21.756 161.69 20.9122 161.112C20.0247 160.505 18.8171 160.231 18.8171 160.231L19.0354 159.595Z" fill="white"/>
<path d="M22.7598 157.644C22.7598 157.644 21.9596 156.198 22.2651 155.693C22.5852 155.187 26.2514 155.938 26.5715 157.066C26.8916 158.207 25.1603 158.063 24.0837 158.381C23.0362 158.728 22.7598 157.644 22.7598 157.644Z" fill="#3D322C"/>
<path d="M66.8133 139.607C66.8133 139.607 70.014 144.825 71.6435 149.695C72.4 151.935 72.3709 152.571 72.3855 155.996C72.4 159.421 72.56 160.577 73.142 166.734C73.7239 172.891 74.786 181.128 74.786 181.128L70.4214 183.961C70.4214 183.961 65.1257 171.908 63.6417 167.673C62.1577 163.439 62.5651 155.606 62.5651 155.606L57.2112 144.449L66.8133 139.607Z" fill="#FFC8B5"/>
<path d="M68.2244 181.374C68.2244 181.374 68.8645 184.019 68.9809 185.782C69.0973 187.545 69.6792 189.077 71.4251 189.38C73.1709 189.684 74.6403 189.438 77.5064 188.947C82.3366 188.123 84.999 187.285 85.3773 185.58C85.741 183.874 84.8244 182.545 81.711 182.328C80.809 182.27 78.5394 182.169 77.5792 181.591C76.7354 181.071 76.1825 180.536 75.9497 180.059C75.4696 179.119 74.1893 178.903 72.5162 180.146C71.3523 180.998 71.0177 181.634 70.9159 182.284C69.5919 181.62 68.8209 181.302 68.2244 181.374Z" fill="#F46269"/>
<path d="M73.3164 180.897C73.3164 180.897 73.4619 182.082 75.2223 182.877C76.9827 183.657 78.4084 183.484 79.3978 183.195C80.5326 182.848 81.5219 182.299 81.5219 182.299C81.5219 182.299 79.034 182.27 77.7974 181.678C76.5608 181.085 75.9206 180.044 75.9206 180.044L73.3164 180.897Z" fill="#3D322C"/>
<path d="M83.6169 183.744C82.1474 183.556 80.227 185.03 79.4268 185.58C76.9972 187.198 76.0952 187.198 73.5928 187.487C71.0904 187.791 69.1118 186.736 69.1118 186.736C69.1118 186.736 69.1991 188.643 69.7083 189.236C70.1739 189.785 72.3998 190.146 74.2475 190.089C76.0952 190.016 80.809 189.034 83.0786 188.036C85.3336 187.025 86.8903 184.163 83.6169 183.744Z" fill="#3D322C"/>
<path d="M85.3628 185.565C85.3628 185.565 84.3444 184.655 82.0748 185.565C79.7907 186.476 78.7723 188.239 75.9644 189.019C73.1565 189.8 70.2322 189.568 70.2322 189.568C70.2322 189.568 70.7705 190.002 72.1962 190.103C73.9566 190.219 76.8518 189.944 79.3251 189.265C83.777 188.08 85.0864 186.996 85.3628 185.565Z" fill="#2B221D"/>
<path d="M74.4366 183.036L77.5646 181.576L76.7353 180.984C76.7353 180.984 74.5675 181.909 73.5928 182.328C73.7092 182.501 74.0147 182.761 74.4366 183.036Z" fill="white"/>
<path d="M78.103 181.779L75.4697 183.441C75.4697 183.441 76.1826 183.701 76.59 183.686C77.1283 183.397 79.0342 182.01 79.0342 182.01L78.103 181.779Z" fill="white"/>
<path d="M90.0912 105.197C89.2474 103.116 88.6218 101.859 87.2542 101.194C85.8139 100.486 84.7664 101.353 83.9371 102.639C80.9401 103.347 81.8275 106.165 82.8314 107.105C80.911 109.793 78.6705 110.689 77.4193 112.871C76.881 111.541 75.0915 107.567 73.2293 105.024C73.0692 104.792 67.6571 107.61 68.6028 110.168C69.3448 112.177 69.9413 113.175 70.9742 115.14C72.1672 117.423 73.884 118.796 75.1351 119.519C76.5755 120.357 78.1467 120.314 80.9255 117.741C83.4279 115.429 84.4609 111.932 85.8866 109.908C86.8032 108.622 90.9787 107.379 90.0912 105.197Z" fill="#FFC8B5"/>
<path d="M52.0901 130.893C53.6759 130.344 62.3905 124.635 65.3003 123.811C66.3041 126.817 68.6174 134.65 70.2323 140.662C70.6978 142.382 72.9674 143.943 72.9674 147.932C70.2323 147.166 67.1916 148.12 65.5331 149.233C63.569 150.548 60.5574 153.308 57.6331 154.609C55.96 150.851 51.9882 141.212 51.4354 138.524C50.9262 136.11 49.1367 131.904 52.0901 130.893Z" fill="#2B221D"/>
<path d="M36.3481 148.495C39.5198 143.64 39.6071 143.553 41.6293 136.269C41.2074 128.306 43.6661 127.497 46.9105 121.571C46.925 121.542 54.7959 121.586 54.8104 121.6C54.8395 121.586 61.7647 127.482 61.9975 130.604C62.2012 133.364 62.7395 140.532 58.4622 141.804C57.6474 146.096 50.9987 153.048 49.1364 157.109C44.6845 158.005 39.6943 152.094 36.3481 148.495Z" fill="#3D322C"/>
<path d="M65.9549 93.4908C65.1256 94.5024 65.0674 94.4735 64.1799 95.4129C64.209 97.5662 64.4418 99.7052 64.9947 101.815C65.853 105.067 65.2565 111.946 67.4097 111.628C70.2031 111.209 73.3165 108.478 75.2515 106.281C74.204 103.694 73.0255 102.393 71.1342 99.3439C71.1488 95.8753 67.948 93.2162 65.9549 93.4908Z" fill="#3D322C"/>
<path d="M66.7697 95.4707C62.8997 91.005 60.7174 93.8376 55.4799 96.8292C51.9882 99.2571 48.6566 100.327 48.2347 106.425C48.0019 109.981 46.838 110.949 46.6925 114.316C46.5179 117.958 43.5063 126.644 42.0806 130.257C42.8953 134.867 61.2994 140.186 68.501 133.494C69.2139 131.167 67.5699 127.641 66.7697 125.762C67.89 122.554 67.468 118.276 69.5485 113.305C72.9674 104.344 70.3632 99.604 66.7697 95.4707Z" fill="#F46269"/>
<path d="M52.2646 127.366C52.2646 127.366 57.1094 128.927 59.5535 128.711C61.9977 128.494 63.6417 126.644 63.6417 126.644C63.6417 126.644 61.0084 127.482 59.0007 127.381C57.0075 127.265 52.2646 127.366 52.2646 127.366Z" fill="#DD4A5F"/>
<path d="M55.4797 96.8147C55.4797 96.8147 58.6514 99.7051 60.0771 101.743C61.5029 103.781 63.5543 106.657 66.5949 105.443C69.6356 104.229 68.3699 102.133 67.3078 99.3294C66.2458 96.5112 63.8743 93.9387 63.8743 93.9387C63.8743 93.9387 58.6514 94.6613 55.4797 96.8147Z" fill="#3D322C"/>
<path d="M59.6698 91.164C59.6698 91.164 64.2963 90.5859 65.7657 92.8837C64.8927 95.1816 64.9509 97.2627 66.6677 100.327C67.9043 102.552 67.1769 103.781 66.013 104.229C64.7909 104.706 62.4631 103.174 61.4884 101.83C59.4515 99.0404 58.1567 97.7108 56.5854 96.2077C57.5748 95.0227 59.6698 91.164 59.6698 91.164Z" fill="#FFB8A3"/>
<path d="M69.9558 88.3313C69.8685 86.4092 69.4612 84.0101 67.9772 82.6372C66.5078 81.2931 63.9909 81.1486 62.0995 81.2787C59.1462 81.481 57.0802 84.7183 57.5894 88.4758C58.0695 91.9299 60.3973 97.2627 64.2818 97.9853C66.2605 98.3466 67.7881 96.887 68.7046 94.9938C69.7812 92.7681 70.0286 89.9211 69.9558 88.3313Z" fill="#FFC8B5"/>
<path d="M58.7677 80.8018C56.7309 80.8451 54.7232 83.143 55.567 88.1145C55.9016 90.0656 56.6872 92.2189 57.6474 94.459C57.7784 94.777 60.9064 90.8893 61.3137 86.9584C64.6308 88.129 69.1264 86.0768 72.3416 84.8195C71.0759 79.53 62.7395 75.5701 58.7677 80.8018Z" fill="#2B221D"/>
<path d="M60.8919 91.0772C60.8919 91.0772 60.1208 89.0973 58.9133 89.9355C57.7057 90.7737 59.3207 93.5196 59.3207 93.5196L60.8919 91.0772Z" fill="#FFC8B5"/>
<path d="M52.2645 128.104C51.4061 127.901 50.4168 128.58 49.5293 128.725C48.2636 124.996 46.3286 119.519 45.7176 119.028C46.2268 118.305 48.8892 115.126 50.0676 113.305C49.3984 112.871 45.9649 108.319 45.3393 106.859C43.2443 109.966 41.2657 111.975 39.8981 114.403C38.7487 116.441 37.9195 118.334 39.0252 120.733C40.4073 123.696 43.4625 127.959 45.8776 130.676C45.8776 130.676 46.1104 133.306 48.0599 135.171C49.7767 136.818 53.5739 135.893 54.6068 133.783C55.5088 131.933 54.1413 131.37 53.472 130.503C53.6466 128.725 52.9337 128.263 52.2645 128.104Z" fill="#FFC8B5"/>
<path d="M48.1908 117.712C49.5147 116.701 50.8387 115.444 51.5807 114.446C53.3847 112.018 55.6979 108.969 55.4797 105.544C55.3197 103.087 54.1994 100.312 51.7989 99.3149C48.1181 100.066 46.0958 100.341 44.5245 105.428C43.0551 106.541 40.8583 110.183 40.2327 111.614C40.2472 112.943 43.4916 117.712 48.1908 117.712Z" fill="#3D322C"/>
<path d="M75.688 180.594L76.0809 180.247C76.0809 180.247 76.0809 178.686 76.0809 178.151C76.0809 177.616 74.1313 177.226 73.3166 178.527C72.5019 179.828 73.3748 181.128 73.3748 181.128L75.688 180.594Z" fill="#3D322C"/>
<path d="M55.5525 88.1145C55.5525 88.1145 59.6407 89.0683 64.1799 88.8227C68.7191 88.577 69.9557 88.3313 69.9557 88.3313L69.7084 84.805C69.7084 84.805 62.2158 85.1663 59.6552 84.805C57.0946 84.4437 55.5379 84.0535 55.5379 84.0535C55.5379 84.0535 54.4904 86.4381 55.5525 88.1145Z" fill="#F46269"/>
</g>
<defs>
<clipPath id="clip0_1240_30647">
<rect width="138" height="201" fill="white"/>
</clipPath>
</defs>
</svg>
