<svg width="128" height="32" viewBox="0 0 128 32" fill="none" xmlns="http://www.w3.org/2000/svg">
<g clip-path="url(#clip0_371_10958)">
<path fill-rule="evenodd" clip-rule="evenodd" d="M13.0834 0C13.8854 0 14.5336 0.667429 14.5336 1.49257V8.99429C11.5085 9.33943 9.1048 11.8103 8.77065 14.9211H4.3799C3.57794 14.9211 2.92969 14.2537 2.92969 13.4286V1.49257C2.92969 0.667429 3.58017 0 4.3799 0H13.0834Z" fill="#ED5116"/>
<path fill-rule="evenodd" clip-rule="evenodd" d="M28.9713 3.00562C29.7732 3.00562 30.4237 3.67304 30.4237 4.4959V13.433C30.4237 14.2559 29.7732 14.9233 28.9713 14.9233H21.6645C21.3303 11.8148 18.9244 9.34847 15.8926 9.00333V4.4959C15.8926 3.67304 16.5431 3.00562 17.345 3.00562H28.9713Z" fill="#99C12F"/>
<path fill-rule="evenodd" clip-rule="evenodd" d="M26.0463 16.3176C26.8483 16.3176 27.4965 16.9851 27.4965 17.8102V29.7462C27.4965 30.5713 26.8461 31.2388 26.0463 31.2388H17.3428C16.5408 31.2388 15.8926 30.5713 15.8926 29.7462V22.2445C18.9178 21.8993 21.3214 19.4285 21.6556 16.3176H26.0463Z" fill="#B4091B"/>
<path fill-rule="evenodd" clip-rule="evenodd" d="M14.5334 22.3406V26.8503C14.5334 27.6731 13.8829 28.3406 13.0809 28.3406H1.45244C0.650481 28.3406 0 27.6731 0 26.8503V17.9131C0 17.0903 0.650481 16.4229 1.45244 16.4229H8.75922C9.0956 19.5314 11.5015 21.9977 14.5334 22.3406Z" fill="#13A5A7"/>
<path d="M47.2283 14.9371H39.4827V9.05593H48.3667V6.28564H36.1367V26.0639H39.4827V17.6822H47.2283V14.9371Z" fill="white"/>
<path d="M50.9622 8.7908C51.2763 9.12223 51.7219 9.2868 52.3033 9.2868C52.8847 9.2868 53.3347 9.12223 53.651 8.7908C53.9674 8.45937 54.1278 8.04566 54.1278 7.54737C54.1278 7.03995 53.9696 6.61937 53.651 6.28337C53.3347 5.94737 52.8847 5.78052 52.3033 5.78052C51.7219 5.78052 51.2741 5.94737 50.9622 6.28337C50.6481 6.61937 50.4922 7.03995 50.4922 7.54737C50.4922 8.04566 50.6481 8.46166 50.9622 8.7908ZM53.9028 11.3645H50.6905V26.0639H53.9028V11.3645Z" fill="white"/>
<path d="M58.4675 7.79199V11.3646H56.1151V13.8103H58.4675V22.1371C58.4675 24.9348 59.7017 26.3337 62.1699 26.3337C62.8494 26.3337 63.5533 26.2286 64.2862 26.0206V23.4674C63.9075 23.5588 63.5333 23.6046 63.1613 23.6046C62.6066 23.6046 62.2212 23.4811 62.0051 23.232C61.789 22.9828 61.6798 22.5783 61.6798 22.016V13.8103H64.206V11.3646H61.6798V7.79199H58.4675Z" fill="white"/>
<path d="M68.0946 7.79199V11.3646H65.7422V13.8103H68.0946V22.1371C68.0946 24.9348 69.3287 26.3337 71.7948 26.3337C72.4742 26.3337 73.1782 26.2286 73.9111 26.0206V23.4674C73.5324 23.5588 73.1581 23.6046 72.7883 23.6046C72.2336 23.6046 71.8482 23.4811 71.6322 23.232C71.4161 22.9828 71.3069 22.5783 71.3069 22.016V13.8103H73.8309V11.3646H71.3069V7.79199H68.0946Z" fill="white"/>
<path d="M83.6868 14.5921C84.188 15.159 84.4754 15.9933 84.5467 17.0995V17.3441H78.425C78.5743 16.2127 78.9196 15.3281 79.4631 14.695C80.0045 14.0618 80.7173 13.7441 81.5973 13.7441C82.4883 13.7418 83.1834 14.0253 83.6868 14.5921ZM85.1994 25.6093C86.1551 25.1247 86.9214 24.4435 87.4939 23.5658L85.763 21.8675C84.8385 23.0904 83.6378 23.703 82.1675 23.703C81.1183 23.703 80.2473 23.3487 79.5567 22.6424C78.8639 21.9361 78.4696 20.9761 78.3738 19.7624H87.7211V18.4298C87.7211 16.0938 87.1909 14.2858 86.1283 13.0104C85.0657 11.7327 83.5621 11.095 81.6128 11.095C80.3876 11.095 79.2782 11.4173 78.2802 12.0595C77.2845 12.7018 76.5115 13.6001 75.9612 14.7567C75.411 15.911 75.1348 17.223 75.1348 18.6904V19.0973C75.1348 21.2893 75.7674 23.0447 77.0327 24.3613C78.2981 25.6778 79.9488 26.3384 81.9826 26.3384C83.17 26.3361 84.2437 26.0938 85.1994 25.6093Z" fill="white"/>
<path d="M97.7868 11.2847C97.4861 11.159 97.1074 11.095 96.6507 11.095C95.2762 11.095 94.2003 11.7327 93.425 13.0104L93.3449 11.367H90.2773V26.0664H93.4897V16.0115C94.002 14.8527 94.9933 14.2721 96.4636 14.2721C96.9136 14.2721 97.3502 14.3087 97.7735 14.3818L97.7868 11.2847Z" fill="white"/>
<path d="M104.5 26.064V13.8103H107.41V11.3646H104.5V10.0594C104.5 8.43884 105.267 7.62742 106.801 7.62742C107.269 7.62742 107.679 7.66399 108.031 7.73713L108.111 5.15656C107.476 4.99427 106.877 4.91199 106.314 4.91199C104.727 4.91199 103.493 5.35542 102.613 6.24227C101.731 7.12913 101.29 8.38856 101.29 10.0183V11.3623H99.1093V13.808H101.29V26.0617H104.5V26.064Z" fill="white"/>
<path d="M113.425 5.19775H110.213V26.064H113.425V5.19775Z" fill="white"/>
<path d="M118.642 11.3646H115.177L120.201 25.9841L119.738 27.2458C119.499 27.9612 119.176 28.4686 118.766 28.7726C118.356 29.0743 117.746 29.2275 116.935 29.2275L116.327 29.1863V31.7532C116.891 31.9178 117.407 32.0001 117.873 32.0001C119.963 32.0001 121.442 30.7635 122.315 28.2926L128 11.3669H124.576L121.667 21.3372L118.642 11.3646Z" fill="white"/>
</g>
<defs>
<clipPath id="clip0_371_10958">
<rect width="128" height="32" fill="white"/>
</clipPath>
</defs>
</svg>
