<svg width="22" height="22" viewBox="0 0 22 22" fill="none" xmlns="http://www.w3.org/2000/svg">
<g clip-path="url(#clip0_244_12496)">
<path d="M11 14.2659C8.91168 14.2659 7.21875 15.9588 7.21875 18.0471V21.5703H14.7812V18.0471C14.7812 15.9588 13.0883 14.2659 11 14.2659Z" fill="#ADE5FF"/>
<path d="M17.7891 15.2969C16.4702 15.2969 15.3096 15.9724 14.6331 16.996C14.7294 17.3298 14.7813 17.6824 14.7813 18.0471V19.0781V21.5703H21.5703V19.0781C21.5703 16.9898 19.8774 15.2969 17.7891 15.2969Z" fill="#41B9D5"/>
<path d="M7.21875 18.0471C7.21875 17.6824 7.27057 17.3297 7.36695 16.996C6.69032 15.9724 5.52978 15.2969 4.21094 15.2969C2.12261 15.2969 0.429688 16.9898 0.429688 19.0781V21.5703H7.21875V19.0781V18.0471Z" fill="#41B9D5"/>
<path d="M11 14.2661C12.234 14.2661 13.2344 13.2658 13.2344 12.0317C13.2344 10.7977 12.234 9.79736 11 9.79736C9.76599 9.79736 8.76562 10.7977 8.76562 12.0317C8.76562 13.2658 9.76599 14.2661 11 14.2661Z" fill="#FFCDAC"/>
<path d="M4.21094 15.2969C5.44495 15.2969 6.44531 14.2965 6.44531 13.0625C6.44531 11.8285 5.44495 10.8281 4.21094 10.8281C2.97693 10.8281 1.97656 11.8285 1.97656 13.0625C1.97656 14.2965 2.97693 15.2969 4.21094 15.2969Z" fill="#FFCDAC"/>
<path d="M17.7891 15.2969C19.0231 15.2969 20.0234 14.2965 20.0234 13.0625C20.0234 11.8285 19.0231 10.8281 17.7891 10.8281C16.5551 10.8281 15.5547 11.8285 15.5547 13.0625C15.5547 14.2965 16.5551 15.2969 17.7891 15.2969Z" fill="#FFCDAC"/>
<path d="M10.8162 2.9717C10.8913 2.81933 11.1086 2.81933 11.1838 2.9717L11.9814 4.58767L11.9876 4.58857L13.7647 4.84681C13.9328 4.87126 14 5.0779 13.8783 5.19649L12.6651 6.37912C12.6168 6.42621 12.5947 6.49406 12.6061 6.56058L12.8925 8.23047C12.9212 8.39792 12.7455 8.52567 12.5951 8.4466L11.0954 7.65817C11.0357 7.62676 10.9643 7.62676 10.9046 7.65817L9.40497 8.4466C9.25458 8.52567 9.07879 8.39796 9.1075 8.23047L9.39393 6.56058C9.40531 6.49406 9.38327 6.42621 9.33497 6.37912L8.12171 5.19649C8.00002 5.0779 8.06718 4.87126 8.23532 4.84681L9.912 4.60318C9.97877 4.59347 10.0365 4.55153 10.0663 4.49103L10.8162 2.9717Z" fill="#FEC914"/>
<path d="M19.3956 15.1859C20.0375 14.699 20.4531 13.9285 20.4531 13.0625C20.4531 11.5935 19.258 10.3984 17.7891 10.3984C16.3201 10.3984 15.125 11.5935 15.125 13.0625C15.125 13.9282 15.5403 14.6985 16.1819 15.1854C15.6495 15.4052 15.165 15.7333 14.7602 16.1531C14.3064 15.2557 13.5407 14.5419 12.6065 14.1549C13.2485 13.668 13.6641 12.8975 13.6641 12.0315C13.6641 10.5625 12.469 9.36743 11 9.36743C9.53103 9.36743 8.33594 10.5625 8.33594 12.0315C8.33594 12.8975 8.75153 13.668 9.39348 14.1549C8.4593 14.5419 7.69364 15.2557 7.23976 16.1531C6.83495 15.7332 6.35048 15.4052 5.81805 15.1854C6.45966 14.6985 6.875 13.9282 6.875 13.0625C6.875 11.5935 5.67991 10.3984 4.21094 10.3984C2.74196 10.3984 1.54688 11.5935 1.54688 13.0625C1.54688 13.9285 1.96247 14.699 2.60442 15.1859C1.07718 15.8186 0 17.3249 0 19.0781V21.5703C0 21.8076 0.192371 22 0.429688 22H7.21875H14.7812H21.5703C21.8076 22 22 21.8076 22 21.5703V19.0781C22 17.3249 20.9228 15.8186 19.3956 15.1859ZM15.9844 13.0625C15.9844 12.0674 16.7939 11.2578 17.7891 11.2578C18.7842 11.2578 19.5938 12.0674 19.5938 13.0625C19.5938 14.0576 18.7842 14.8672 17.7891 14.8672C16.7939 14.8672 15.9844 14.0576 15.9844 13.0625ZM9.19531 12.0315C9.19531 11.0364 10.0049 10.2268 11 10.2268C11.9951 10.2268 12.8047 11.0364 12.8047 12.0315C12.8047 13.0266 11.9951 13.8362 11 13.8362C10.0049 13.8362 9.19531 13.0266 9.19531 12.0315ZM2.40625 13.0625C2.40625 12.0674 3.21582 11.2578 4.21094 11.2578C5.20605 11.2578 6.01562 12.0674 6.01562 13.0625C6.01562 14.0576 5.20605 14.8672 4.21094 14.8672C3.21582 14.8672 2.40625 14.0576 2.40625 13.0625ZM0.859375 19.0781C0.859375 17.23 2.36289 15.7265 4.21094 15.7265C5.27686 15.7265 6.26901 16.2294 6.90121 17.0805C6.82799 17.391 6.78906 17.7146 6.78906 18.0471V21.1406H0.859375V19.0781ZM7.64844 18.0471C7.64844 16.199 9.15196 14.6956 11 14.6956C12.848 14.6956 14.3516 16.199 14.3516 18.0471V21.1406H13.4994V19.7859C13.4994 19.5487 13.307 19.3562 13.0697 19.3562C12.8324 19.3562 12.64 19.5487 12.64 19.7859V21.1406H7.64844V18.0471ZM21.1406 21.1406H15.2109V18.0471C15.2109 17.7146 15.172 17.391 15.0988 17.0805C15.731 16.2294 16.7231 15.7265 17.7891 15.7265C19.6371 15.7265 21.1406 17.23 21.1406 19.0781V21.1406Z" fill="#1C4685"/>
<path d="M13.4787 3.53136C13.5887 3.53136 13.6987 3.48943 13.7826 3.40551L15.257 1.93108C15.4248 1.76328 15.4248 1.49121 15.257 1.32337C15.0892 1.15553 14.8171 1.15558 14.6493 1.32337L13.1749 2.7978C13.0071 2.96559 13.0071 3.23767 13.1749 3.40551C13.2588 3.48938 13.3687 3.53136 13.4787 3.53136Z" fill="#1C4685"/>
<path d="M8.21746 3.40574C8.30138 3.48965 8.41134 3.53159 8.52129 3.53159C8.63125 3.53159 8.74125 3.48965 8.82512 3.40574C8.99292 3.23794 8.99292 2.96586 8.82512 2.79803L7.35069 1.3236C7.1829 1.15581 6.91082 1.15581 6.74299 1.3236C6.57515 1.49139 6.57519 1.76347 6.74299 1.93131L8.21746 3.40574Z" fill="#1C4685"/>
<path d="M11 1.78264C11.2373 1.78264 11.4297 1.59027 11.4297 1.35296V0.429688C11.4297 0.192371 11.2373 0 11 0C10.7627 0 10.5703 0.192371 10.5703 0.429688V1.35296C10.5703 1.59027 10.7627 1.78264 11 1.78264Z" fill="#1C4685"/>
<path d="M8.17358 4.42161C7.93274 4.45659 7.73642 4.62211 7.66118 4.85354C7.58599 5.08496 7.64747 5.33427 7.82175 5.50417L8.95046 6.60434L8.68401 8.15779C8.64284 8.39764 8.73957 8.63552 8.93645 8.7786C9.0477 8.85943 9.17789 8.9005 9.3089 8.9005C9.40979 8.9005 9.5112 8.87618 9.60487 8.82694L11 8.09346L12.3951 8.8269C12.6105 8.94016 12.8667 8.92164 13.0636 8.7786C13.2605 8.63552 13.3572 8.39764 13.316 8.15783L13.0496 6.60434L14.1783 5.50417C14.3526 5.33427 14.4141 5.08496 14.3389 4.85354C14.2637 4.62206 14.0673 4.45659 13.8265 4.42161L12.2667 4.19495L11.5692 2.78154C11.4615 2.5633 11.2434 2.42773 11 2.42773C10.7566 2.42773 10.5386 2.5633 10.4309 2.78154L9.73331 4.19495L8.17358 4.42161ZM10.4517 4.68119L11 3.5701L11.5961 4.77782C11.6586 4.90458 11.7796 4.99245 11.9194 5.01286L13.2524 5.20657L12.3651 6.07144C12.2156 6.21728 12.1473 6.42722 12.1826 6.63321L12.3921 7.85443L11.2954 7.27788C11.2029 7.22923 11.1015 7.20496 11 7.20496C10.8986 7.20496 10.7971 7.22923 10.7047 7.27788L9.60797 7.85443L9.81744 6.63317C9.85272 6.42727 9.78448 6.21728 9.63486 6.07144L8.7476 5.20661L9.97372 5.02842C10.1806 4.99838 10.3592 4.86857 10.4517 4.68119Z" fill="#1C4685"/>
<path d="M13.0698 18.5427C13.1828 18.5427 13.2933 18.4967 13.3736 18.4168C13.4535 18.3365 13.4995 18.226 13.4995 18.113C13.4995 18 13.4535 17.8892 13.3736 17.8088C13.2933 17.7289 13.1828 17.6833 13.0698 17.6833C12.9564 17.6833 12.846 17.7289 12.766 17.8088C12.6857 17.8892 12.6401 17.9996 12.6401 18.113C12.6401 18.226 12.6857 18.3369 12.766 18.4168C12.846 18.4967 12.9564 18.5427 13.0698 18.5427Z" fill="#1C4685"/>
</g>
<defs>
<clipPath id="clip0_244_12496">
<rect width="22" height="22" fill="white"/>
</clipPath>
</defs>
</svg>
