<svg width="32" height="32" viewBox="0 0 32 32" fill="none" xmlns="http://www.w3.org/2000/svg">
<path d="M13.575 22.0875C13.0937 21.5875 12.475 21.2188 11.7625 21.05L9.19375 20.4313V18.8625H6.05V20.4375L3.4875 21.05C1.8125 21.45 0.625 22.95 0.625 24.675V28.875H6.3125L13.575 22.0875Z" fill="#EFF5FA"/>
<path d="M9.25625 18.8625V20.475L7.625 24.375L6 20.4813V18.8625H9.25625Z" fill="#FFB487"/>
<path d="M11.125 13.4563V15.6313C11.125 17.5625 9.55625 19.1313 7.625 19.1313C5.69375 19.1313 4.125 17.5625 4.125 15.6313V13.4563H11.125Z" fill="#FFCDAC"/>
<path d="M11.125 14.1438V13.3C11.125 11.3688 9.55625 9.8 7.625 9.8C5.69375 9.8 4.125 11.3688 4.125 13.3V14.1438H6.5375C8.05 14.1438 9.53125 13.7313 10.825 12.9563" fill="#878791"/>
<path d="M18.425 22.0875C18.9062 21.5875 19.525 21.2188 20.2375 21.05L22.8062 20.4313V18.8625H25.9437V20.4375L28.5062 21.05C30.1812 21.45 31.3687 22.95 31.3687 24.675V28.875H25.6812L18.425 22.0875Z" fill="#FCD7D1"/>
<path d="M13.8125 22.025L10.2312 22.8813C7.9 23.4438 6.25 25.525 6.25 27.925V31.375H25.7437V27.9313C25.7437 25.5313 24.0938 23.4438 21.7625 22.8813L18.1875 22.025H13.8125Z" fill="#FBF0DC"/>
<path d="M26 18.8625V20.4813L24.375 24.375L22.7438 20.475V18.8625H26Z" fill="#FFB487"/>
<path d="M16 27.0438L18.3313 21.75C18.1563 21.4625 18.0625 21.1188 18.0625 20.7625V20.2563H13.9375V20.7625C13.9375 21.1188 13.8375 21.4563 13.6688 21.75L16 27.0438Z" fill="#FFB487"/>
<path d="M20.875 11.9688V15.3313C20.875 18.025 18.6937 20.2062 16 20.2062C13.3063 20.2062 11.125 18.025 11.125 15.3313V11.9688H20.875Z" fill="#FFCDAC"/>
<path d="M16 7.2125C13.3063 7.2125 11.125 9.39375 11.125 12.0875V13.2625H13.5063C15.0938 13.2625 16.5937 12.5625 17.6125 11.3438L20.875 13.2625V12.0875C20.875 9.4 18.6937 7.2125 16 7.2125Z" fill="#F5B955"/>
<path d="M20.875 13.4563V15.6313C20.875 17.5625 22.4438 19.1313 24.375 19.1313C26.3063 19.1313 27.875 17.5625 27.875 15.6313V13.4563H20.875Z" fill="#FFCDAC"/>
<path d="M20.875 14.1438V13.3C20.875 11.3688 22.4438 9.8 24.375 9.8C26.3063 9.8 27.875 11.3688 27.875 13.3V14.1438H25.4625C23.95 14.1438 22.4687 13.7313 21.175 12.9563" fill="#878791"/>
<path d="M15.9813 30.75C15.8188 30.75 15.6563 30.8187 15.5375 30.9312C15.4188 31.05 15.3563 31.2063 15.3563 31.375C15.3563 31.5437 15.425 31.7 15.5375 31.8188C15.6563 31.9375 15.8125 32 15.9813 32C16.1438 32 16.3063 31.9313 16.425 31.8188C16.5438 31.7 16.6063 31.5437 16.6063 31.375C16.6063 31.2063 16.5375 31.05 16.425 30.9312C16.3125 30.8187 16.15 30.75 15.9813 30.75Z" fill="#1C4685"/>
<path d="M28.6625 20.4438L26.575 19.9438V19.1187C27.7313 18.3875 28.5 17.1 28.5 15.6313V13.3C28.5 11.025 26.65 9.175 24.375 9.175C23.15 9.175 22.0438 9.7125 21.2875 10.5688C20.625 8.275 18.5063 6.59375 16 6.59375C13.4937 6.59375 11.3687 8.28125 10.7125 10.5813C9.95625 9.71875 8.85 9.18125 7.61875 9.18125C5.34375 9.18125 3.49375 11.0312 3.49375 13.3062V15.6375C3.49375 17.1062 4.2625 18.3938 5.41875 19.125V19.95L3.33125 20.45C1.375 20.9125 0 22.65 0 24.675V28.875C0 29.2188 0.28125 29.5 0.625 29.5H5.625V31.375C5.625 31.7188 5.90625 32 6.25 32H13.1062C13.45 32 13.7312 31.7188 13.7312 31.375C13.7312 31.0312 13.45 30.75 13.1062 30.75H10.3125V28C10.3125 27.6562 10.0312 27.375 9.6875 27.375C9.34375 27.375 9.0625 27.6562 9.0625 28V30.75H6.875V27.9312C6.875 25.8125 8.3125 23.9875 10.375 23.4937L13.45 22.7563L15.425 27.2563C15.525 27.4813 15.75 27.6313 16 27.6313C16.25 27.6313 16.475 27.4875 16.575 27.2563L18.55 22.7625L21.6125 23.4937C23.675 23.9875 25.1187 25.8125 25.1187 27.9312V28.6313C25.0875 28.7063 25.0688 28.7875 25.0688 28.875C25.0688 28.9625 25.0875 29.0437 25.1187 29.1187V30.75H22.9375V28C22.9375 27.6562 22.6562 27.375 22.3125 27.375C21.9688 27.375 21.6875 27.6562 21.6875 28V30.75H18.625C18.2812 30.75 18 31.0312 18 31.375C18 31.7188 18.2812 32 18.625 32H25.7375C26.0812 32 26.3625 31.7188 26.3625 31.375V29.5H31.375C31.7188 29.5 32 29.2188 32 28.875V24.675C32 22.65 30.625 20.9125 28.6625 20.4438ZM25.325 20.4688L24.375 22.7563L23.4312 20.5C23.4312 20.475 23.4375 20.4562 23.4375 20.4312C23.4375 20.425 23.4375 20.4188 23.4375 20.4125V19.6375C23.7437 19.7063 24.0562 19.75 24.3813 19.75C24.7063 19.75 25.025 19.7125 25.3312 19.6375V20.4375C25.325 20.45 25.325 20.4625 25.325 20.4688ZM13.1875 20.975C12.7937 20.7313 12.3625 20.55 11.9125 20.4438L9.81875 19.9438V19.125C10.3375 18.8 10.7812 18.3562 11.1125 17.8375C11.5813 18.7562 12.3062 19.5312 13.1875 20.0562V20.975ZM11.7563 15.3313V13.8875H13.5125C15.1062 13.8875 16.6187 13.2563 17.7375 12.1438L20.25 13.6187V15.4812C20.175 17.7563 18.3 19.5875 16.0063 19.5875C13.6625 19.5812 11.7563 17.675 11.7563 15.3313ZM18.8062 20.0625C19.6938 19.5312 20.425 18.7625 20.9 17.8375C21.2312 18.35 21.6688 18.7875 22.1875 19.1125V19.9375L20.0938 20.4375C19.6375 20.55 19.2062 20.7313 18.8062 20.975V20.0625ZM24.375 18.5063C22.7875 18.5063 21.5 17.2188 21.5 15.6313V15.5312C21.5 15.4688 21.5063 13.85 21.5063 13.85C22.7375 14.4563 24.0875 14.7688 25.4625 14.7688H27.25V15.6313C27.25 17.2125 25.9625 18.5063 24.375 18.5063ZM24.375 10.425C25.9625 10.425 27.25 11.7125 27.25 13.3V13.4563V13.5188H25.4625C24.1125 13.5188 22.7875 13.1625 21.6187 12.4937C21.9688 11.3 23.075 10.425 24.375 10.425ZM11.7563 12.0875C11.7563 9.74375 13.6625 7.8375 16.0063 7.8375C18.35 7.8375 20.2563 9.74375 20.2563 12.0875V12.1687L17.9375 10.8062C17.675 10.65 17.3375 10.7125 17.1437 10.9438C16.2437 12.0188 14.9187 12.6375 13.5188 12.6375H11.7625V12.0875H11.7563ZM4.75 13.3C4.75 11.7125 6.0375 10.425 7.625 10.425C8.93125 10.425 10.0312 11.3 10.3813 12.4937C9.2125 13.1687 7.8875 13.5188 6.5375 13.5188H4.75V13.4563V13.3ZM4.75 14.7688H6.5375C7.9125 14.7688 9.26875 14.45 10.5 13.8438V15.625C10.5 17.2125 9.2125 18.5 7.625 18.5C6.0375 18.5 4.75 17.2125 4.75 15.625C4.75 15.6313 4.75 14.7688 4.75 14.7688ZM7.625 19.7563C7.95 19.7563 8.2625 19.7187 8.56875 19.6437V20.4C8.56875 20.4125 8.56875 20.425 8.56875 20.4375C8.56875 20.4563 8.56875 20.475 8.575 20.4937L7.625 22.7563L6.675 20.4813C6.675 20.4688 6.675 20.45 6.675 20.4375V19.6437C6.98125 19.7125 7.29375 19.7563 7.625 19.7563ZM5.625 27.9312V28.25H3.75V25.475C3.75 25.1313 3.46875 24.85 3.125 24.85C2.78125 24.85 2.5 25.1313 2.5 25.475V28.25H1.25V24.675C1.25 23.2312 2.23125 21.9937 3.63125 21.6562L5.6125 21.1812L6.90625 24.2812C6.09375 25.2875 5.625 26.5625 5.625 27.9312ZM10.0813 22.275C9.7125 22.3625 9.3625 22.4875 9.025 22.6375L9.63125 21.1812L11.6125 21.6562C11.7688 21.6938 11.9187 21.7437 12.0625 21.8L10.0813 22.275ZM16 25.45L14.4375 21.8937V20.6063C14.9375 20.7563 15.4625 20.8375 16.0063 20.8375C16.5438 20.8375 17.0688 20.7562 17.5562 20.6125V21.9L16 25.45ZM19.925 21.8062C20.075 21.7437 20.225 21.6938 20.3875 21.6562L22.3625 21.1812L22.975 22.6437C22.6375 22.4875 22.2812 22.3625 21.9062 22.275L19.925 21.8062ZM30.75 28.25H29.5V25.475C29.5 25.1313 29.2188 24.85 28.875 24.85C28.5312 24.85 28.25 25.1313 28.25 25.475V28.25H26.3625V27.9312C26.3625 26.5625 25.8937 25.2938 25.0875 24.2875L26.3875 21.1812L28.375 21.6562C29.775 21.9937 30.7563 23.2312 30.7563 24.675V28.25H30.75Z" fill="#1C4685"/>
<path d="M13.9062 14.45C13.7438 14.45 13.5812 14.5187 13.4625 14.6312C13.3437 14.75 13.2812 14.9062 13.2812 15.075C13.2812 15.2437 13.35 15.4 13.4625 15.5187C13.575 15.6375 13.7375 15.7 13.9062 15.7C14.0688 15.7 14.2313 15.6312 14.35 15.5187C14.4688 15.4 14.5312 15.2437 14.5312 15.075C14.5312 14.9062 14.4625 14.75 14.35 14.6312C14.2313 14.5187 14.0688 14.45 13.9062 14.45Z" fill="#1C4685"/>
<path d="M18.0812 15.7C18.2437 15.7 18.4062 15.6312 18.525 15.5187C18.6437 15.4 18.7062 15.2437 18.7062 15.075C18.7062 14.9062 18.6375 14.75 18.525 14.6312C18.4062 14.5125 18.25 14.45 18.0812 14.45C17.9125 14.45 17.7562 14.5187 17.6375 14.6312C17.5187 14.75 17.4562 14.9062 17.4562 15.075C17.4562 15.2437 17.525 15.4 17.6375 15.5187C17.75 15.6375 17.9187 15.7 18.0812 15.7Z" fill="#1C4685"/>
<path d="M17.2 16.7375C16.9563 16.4938 16.5625 16.4938 16.3188 16.7375C16.1313 16.925 15.8312 16.925 15.65 16.7375C15.4062 16.4938 15.0125 16.4938 14.7688 16.7375C14.525 16.9813 14.525 17.375 14.7688 17.6188C15.1063 17.9563 15.5438 18.125 15.9875 18.125C16.4313 18.125 16.8687 17.9563 17.2062 17.6188C17.45 17.3813 17.45 16.9813 17.2 16.7375Z" fill="#1C4685"/>
</svg>
