<svg width="19" height="19" viewBox="0 0 19 19" fill="none" xmlns="http://www.w3.org/2000/svg">
<path d="M13.9436 18.7217H2.42761C1.81275 18.7217 1.31433 18.2233 1.31433 17.6084V1.94824C1.31433 1.33338 1.81275 0.834961 2.42761 0.834961H13.9436C14.5584 0.834961 15.0569 1.33338 15.0569 1.94824V17.6084C15.0569 18.2233 14.5584 18.7217 13.9436 18.7217Z" fill="#41B9D5"/>
<path d="M13.9436 0.834961H12.8303C13.4452 0.834961 13.9436 1.33341 13.9436 1.94824V17.6084C13.9436 18.2232 13.4452 18.7217 12.8303 18.7217H13.9436C14.5584 18.7217 15.0569 18.2232 15.0569 17.6084V1.94824C15.0569 1.33341 14.5584 0.834961 13.9436 0.834961Z" fill="#41B9D5"/>
<path d="M2.79871 17.0889V2.46777C2.79871 2.3858 2.86517 2.31934 2.94714 2.31934H13.424C13.506 2.31934 13.5724 2.3858 13.5724 2.46777V17.0889C13.5724 17.1708 13.506 17.2373 13.424 17.2373H2.94714C2.86517 17.2373 2.79871 17.1708 2.79871 17.0889Z" fill="white"/>
<path d="M13.424 2.31934H12.3107C12.3927 2.31934 12.4592 2.3858 12.4592 2.46777V17.0889C12.4592 17.1708 12.3927 17.2373 12.3107 17.2373H13.424C13.506 17.2373 13.5724 17.1708 13.5724 17.0889V2.46777C13.5724 2.3858 13.506 2.31934 13.424 2.31934Z" fill="#EDEBED"/>
<path d="M10.1338 6.16016H8.85352C8.79203 6.16016 8.74219 6.11032 8.74219 6.04883V4.76855C8.74219 4.64557 8.64251 4.5459 8.51953 4.5459H7.85156C7.72858 4.5459 7.62891 4.64557 7.62891 4.76855V6.04883C7.62891 6.11032 7.57907 6.16016 7.51758 6.16016H6.2373C6.11432 6.16016 6.01465 6.25983 6.01465 6.38281V7.05078C6.01465 7.17376 6.11432 7.27344 6.2373 7.27344H7.51758C7.57907 7.27344 7.62891 7.32328 7.62891 7.38477V8.66504C7.62891 8.78802 7.72858 8.8877 7.85156 8.8877H8.51953C8.64251 8.8877 8.74219 8.78802 8.74219 8.66504V7.38477C8.74219 7.32328 8.79203 7.27344 8.85352 7.27344H10.1338C10.2568 7.27344 10.3564 7.17376 10.3564 7.05078V6.38281C10.3564 6.25983 10.2568 6.16016 10.1338 6.16016Z" fill="#DD636E"/>
<path d="M9.95931 2.87598H6.96844C6.14866 2.87598 5.48407 2.21138 5.48407 1.3916V0.649414C5.48407 0.444459 5.65021 0.27832 5.85516 0.27832H11.0726C11.2775 0.27832 11.4437 0.444459 11.4437 0.649414V1.3916C11.4437 2.21138 10.7791 2.87598 9.95931 2.87598Z" fill="#F0E7D2"/>
<path d="M11.0726 0.27832H9.95935C10.1643 0.27832 10.3304 0.444459 10.3304 0.649414V1.3916C10.3304 2.21138 9.66585 2.87598 8.84607 2.87598H9.95935C10.7791 2.87598 11.4437 2.21138 11.4437 1.3916V0.649414C11.4437 0.444459 11.2776 0.27832 11.0726 0.27832Z" fill="#544F56"/>
<path d="M14.4743 18.7217C16.2478 18.7217 17.6856 17.2839 17.6856 15.5104C17.6856 13.7368 16.2478 12.2991 14.4743 12.2991C12.7007 12.2991 11.263 13.7368 11.263 15.5104C11.263 17.2839 12.7007 18.7217 14.4743 18.7217Z" fill="#BED8FB"/>
<path d="M14.4743 12.2991C14.2843 12.2991 14.0986 12.3165 13.9177 12.3481C15.4257 12.6118 16.5723 13.9268 16.5723 15.5103C16.5723 17.0939 15.4258 18.4088 13.9177 18.6726C14.0986 18.7042 14.2843 18.7216 14.4743 18.7216C16.2478 18.7216 17.6856 17.2839 17.6856 15.5103C17.6856 13.7368 16.2479 12.2991 14.4743 12.2991Z" fill="#F0E7D2"/>
<path d="M14.4743 18.7218C15.2789 18.7218 16.0139 18.4251 16.5774 17.9361C16.1966 17.159 15.3981 16.6238 14.4743 16.6238C13.5505 16.6238 12.7519 17.159 12.3711 17.9361C12.9346 18.4251 13.6696 18.7218 14.4743 18.7218Z" fill="#DD636E"/>
<path d="M15.3171 18.6092C15.7803 18.4832 16.217 18.2492 16.5773 17.9362C16.5773 17.9362 16.5774 17.9361 16.5774 17.936C16.4494 17.6749 16.2741 17.4412 16.0629 17.2458C15.5871 17.9845 14.8167 18.5154 13.9177 18.6727C14.053 18.6963 14.1912 18.712 14.3317 18.7185C14.6633 18.7336 14.9971 18.6962 15.3171 18.6092Z" fill="#DA4A54"/>
<path d="M14.4743 15.5105C15.0254 15.5105 15.4722 15.0637 15.4722 14.5126C15.4722 13.9614 15.0254 13.5146 14.4743 13.5146C13.9232 13.5146 13.4764 13.9614 13.4764 14.5126C13.4764 15.0637 13.9232 15.5105 14.4743 15.5105Z" fill="#F1CCBD"/>
<path d="M15.3351 12.1283V1.94824C15.3351 1.18089 14.7108 0.556641 13.9435 0.556641H11.7146C11.6693 0.242473 11.3991 0 11.0726 0H7.89953C7.74578 0 7.62121 0.124613 7.62121 0.27832C7.62121 0.432027 7.74578 0.556641 7.89953 0.556641H11.0726C11.1238 0.556641 11.1654 0.598277 11.1654 0.649414V1.3916C11.1654 2.0566 10.6244 2.59766 9.95932 2.59766H6.96845C6.30341 2.59766 5.7624 2.0566 5.7624 1.3916V0.649414C5.7624 0.598277 5.804 0.556641 5.85517 0.556641H6.6007C6.75444 0.556641 6.87902 0.432027 6.87902 0.27832C6.87902 0.124613 6.75444 0 6.6007 0H5.85517C5.52868 0 5.25841 0.242473 5.21318 0.556641H2.42767C1.66033 0.556641 1.03607 1.18089 1.03607 1.94824V17.6084C1.03607 18.3757 1.66033 19 2.42767 19H13.9435C14.0118 19 14.0801 18.9946 14.1473 18.9846C14.2067 18.9757 14.2672 18.9942 14.3275 18.9967C15.2192 19.0339 16.1027 18.719 16.767 18.1389C17.4999 17.4987 17.9638 16.5578 17.9638 15.5104C17.9639 13.8832 16.8443 12.5126 15.3351 12.1283ZM5.68469 2.59766C6.00643 2.93992 6.46276 3.1543 6.96845 3.1543H9.95932C10.465 3.1543 10.9213 2.93992 11.2431 2.59766H13.2941V11.1287C13.2941 11.2824 13.4187 11.4071 13.5724 11.4071C13.7261 11.4071 13.8507 11.2824 13.8507 11.1287V2.46777C13.8507 2.23246 13.6593 2.04102 13.424 2.04102H11.5975C11.6776 1.83988 11.7221 1.6209 11.7221 1.3916V1.11328H13.9435C14.4039 1.11328 14.7785 1.48783 14.7785 1.94824V12.0342C14.6782 12.0255 14.5768 12.0208 14.4743 12.0208C12.5501 12.0208 10.9847 13.5862 10.9847 15.5104C10.9847 16.0269 11.0976 16.5175 11.2999 16.959H3.07709V2.59766H5.68469ZM2.42767 18.4434C1.96729 18.4434 1.59271 18.0688 1.59271 17.6084V1.94824C1.59271 1.48783 1.96729 1.11328 2.42767 1.11328H5.20576V1.3916C5.20576 1.6209 5.25025 1.83988 5.33026 2.04102H2.9472C2.71189 2.04102 2.52045 2.23246 2.52045 2.46777V17.0889C2.52045 17.3242 2.71189 17.5156 2.9472 17.5156H11.62C11.8786 17.8826 12.2044 18.2044 12.5837 18.4422C12.5843 18.4426 2.42767 18.4434 2.42767 18.4434ZM14.4743 18.4434C13.846 18.4434 13.2316 18.2399 12.7284 17.8655C13.1042 17.2661 13.755 16.902 14.4743 16.902C15.1936 16.902 15.8443 17.2661 16.2202 17.8655C15.7179 18.2399 15.0997 18.4434 14.4743 18.4434ZM16.6383 17.4878C16.1544 16.775 15.3548 16.3453 14.4743 16.3453C13.5937 16.3453 12.7941 16.775 12.3102 17.4878C11.833 16.9659 11.5413 16.2716 11.5413 15.5103C11.5413 13.8931 12.857 12.5774 14.4743 12.5774C16.0915 12.5774 17.4072 13.8931 17.4072 15.5103C17.4072 16.2716 17.1156 16.966 16.6383 17.4878ZM6.23732 7.55176H7.3506V8.66504C7.3506 8.94128 7.57534 9.16602 7.85158 9.16602H8.51955C8.79579 9.16602 9.02053 8.94128 9.02053 8.66504V7.55176H10.1338C10.41 7.55176 10.6348 7.32702 10.6348 7.05078V6.38281C10.6348 6.10657 10.41 5.88184 10.1338 5.88184H9.02053V4.76855C9.02053 4.49231 8.79579 4.26758 8.51955 4.26758H7.85158C7.57534 4.26758 7.3506 4.49231 7.3506 4.76855V5.88184H6.23732C5.96108 5.88184 5.73635 6.10657 5.73635 6.38281V7.05078C5.73635 7.32702 5.96108 7.55176 6.23732 7.55176ZM6.29299 6.43848H7.5176C7.73246 6.43848 7.90724 6.26369 7.90724 6.04883V4.82422H8.46389V6.04883C8.46389 6.26369 8.63867 6.43848 8.85353 6.43848H10.0781V6.99512H8.85353C8.63867 6.99512 8.46389 7.1699 8.46389 7.38477V8.60938H7.90724V7.38477C7.90724 7.1699 7.73246 6.99512 7.5176 6.99512H6.29299V6.43848ZM4.56799 12.5059H11.2842C11.4379 12.5059 11.5625 12.3812 11.5625 12.2275C11.5625 12.0738 11.4379 11.9492 11.2842 11.9492H4.56799C4.41425 11.9492 4.28967 12.0738 4.28967 12.2275C4.28967 12.3812 4.41425 12.5059 4.56799 12.5059ZM4.56799 10.8359H11.9025C12.0563 10.8359 12.1808 10.7113 12.1808 10.5576C12.1808 10.4039 12.0563 10.2793 11.9025 10.2793H4.56799C4.41425 10.2793 4.28967 10.4039 4.28967 10.5576C4.28967 10.7113 4.41425 10.8359 4.56799 10.8359ZM14.4743 13.2363C13.7706 13.2363 13.198 13.8088 13.198 14.5125C13.198 15.2162 13.7706 15.7887 14.4743 15.7887C15.178 15.7887 15.7505 15.2162 15.7505 14.5125C15.7505 13.8088 15.178 13.2363 14.4743 13.2363ZM14.4743 15.2321C14.0775 15.2321 13.7547 14.9092 13.7547 14.5125C13.7547 14.1157 14.0775 13.7929 14.4743 13.7929C14.8711 13.7929 15.1939 14.1157 15.1939 14.5125C15.1939 14.9092 14.871 15.2321 14.4743 15.2321ZM4.56799 15.8457H9.67595C9.8297 15.8457 9.95427 15.7211 9.95427 15.5674C9.95427 15.4137 9.8297 15.2891 9.67595 15.2891H4.56799C4.41425 15.2891 4.28967 15.4137 4.28967 15.5674C4.28967 15.7211 4.41425 15.8457 4.56799 15.8457ZM4.56799 14.1758H10.2326C10.3863 14.1758 10.5109 14.0512 10.5109 13.8975C10.5109 13.7438 10.3863 13.6191 10.2326 13.6191H4.56799C4.41425 13.6191 4.28967 13.7438 4.28967 13.8975C4.28967 14.0512 4.41425 14.1758 4.56799 14.1758Z" fill="#1C4685"/>
</svg>
