<svg width="304" height="320" viewBox="0 0 304 320" fill="none" xmlns="http://www.w3.org/2000/svg">
<g opacity="0.1">
<path d="M218.839 315.312H24.8862C14.5306 315.312 6.13623 306.918 6.13623 296.562V32.8125C6.13623 22.4569 14.5306 14.0625 24.8862 14.0625H218.839C229.195 14.0625 237.589 22.4569 237.589 32.8125V296.562C237.589 306.918 229.194 315.312 218.839 315.312Z" fill="#41B9D5"/>
<path d="M218.839 14.0625H200.089C210.444 14.0625 218.839 22.4575 218.839 32.8125V296.562C218.839 306.918 210.444 315.312 200.089 315.312H218.839C229.194 315.312 237.589 306.918 237.589 296.562V32.8125C237.589 22.4575 229.194 14.0625 218.839 14.0625Z" fill="#41B9D5"/>
<path d="M31.1362 287.812V41.5625C31.1362 40.1819 32.2556 39.0625 33.6362 39.0625H210.089C211.469 39.0625 212.589 40.1819 212.589 41.5625V287.812C212.589 289.193 211.469 290.312 210.089 290.312H33.6362C32.2556 290.312 31.1362 289.193 31.1362 287.812Z" fill="white"/>
<path d="M210.089 39.0625H191.339C192.719 39.0625 193.839 40.1819 193.839 41.5625V287.812C193.839 289.193 192.719 290.312 191.339 290.312H210.089C211.469 290.312 212.589 289.193 212.589 287.812V41.5625C212.589 40.1819 211.469 39.0625 210.089 39.0625Z" fill="#EDEBED"/>
<path d="M154.675 103.75H133.113C132.077 103.75 131.238 102.911 131.238 101.875V80.3125C131.238 78.2413 129.559 76.5625 127.488 76.5625H116.238C114.166 76.5625 112.488 78.2413 112.488 80.3125V101.875C112.488 102.911 111.648 103.75 110.613 103.75H89.05C86.9788 103.75 85.3 105.429 85.3 107.5V118.75C85.3 120.821 86.9788 122.5 89.05 122.5H110.613C111.648 122.5 112.488 123.339 112.488 124.375V145.938C112.488 148.009 114.166 149.688 116.238 149.688H127.488C129.559 149.688 131.238 148.009 131.238 145.938V124.375C131.238 123.339 132.077 122.5 133.113 122.5H154.675C156.746 122.5 158.425 120.821 158.425 118.75V107.5C158.425 105.429 156.746 103.75 154.675 103.75Z" fill="#DD636E"/>
<path d="M151.736 48.4375H101.364C87.5569 48.4375 76.3638 37.2444 76.3638 23.4375V10.9375C76.3638 7.48563 79.1619 4.6875 82.6138 4.6875H170.486C173.938 4.6875 176.736 7.48563 176.736 10.9375V23.4375C176.736 37.2444 165.544 48.4375 151.736 48.4375Z" fill="#F0E7D2"/>
<path d="M170.486 4.6875H151.736C155.188 4.6875 157.986 7.48563 157.986 10.9375V23.4375C157.986 37.2444 146.793 48.4375 132.986 48.4375H151.736C165.543 48.4375 176.736 37.2444 176.736 23.4375V10.9375C176.736 7.48563 173.938 4.6875 170.486 4.6875Z" fill="#544F56"/>
<path d="M227.777 315.313C257.648 315.313 281.862 291.098 281.862 261.228C281.862 231.357 257.648 207.143 227.777 207.143C197.907 207.143 173.692 231.357 173.692 261.228C173.692 291.098 197.907 315.313 227.777 315.313Z" fill="#BED8FB"/>
<path d="M227.777 207.143C224.578 207.143 221.449 207.436 218.402 207.969C243.801 212.41 263.112 234.556 263.112 261.227C263.112 287.898 243.802 310.044 218.402 314.486C221.449 315.019 224.578 315.312 227.777 315.312C257.647 315.312 281.862 291.097 281.862 261.227C281.862 231.357 257.648 207.143 227.777 207.143Z" fill="#F0E7D2"/>
<path d="M227.778 315.313C241.33 315.313 253.709 310.316 263.199 302.08C256.785 288.992 243.336 279.978 227.778 279.978C212.219 279.978 198.77 288.992 192.356 302.08C201.846 310.316 214.225 315.313 227.778 315.313Z" fill="#DD636E"/>
<path d="M241.972 313.417C249.774 311.296 257.128 307.354 263.196 302.082C263.197 302.082 263.198 302.081 263.199 302.08C261.044 297.681 258.091 293.746 254.533 290.456C246.521 302.896 233.545 311.838 218.403 314.486C220.683 314.885 223.009 315.149 225.376 315.257C230.961 315.512 236.582 314.883 241.972 313.417Z" fill="#DA4A54"/>
<path d="M227.777 261.228C237.06 261.228 244.584 253.703 244.584 244.421C244.584 235.138 237.06 227.614 227.777 227.614C218.495 227.614 210.971 235.138 210.971 244.421C210.971 253.703 218.495 261.228 227.777 261.228Z" fill="#F1CCBD"/>
<path d="M242.275 204.266V32.8125C242.275 19.8888 231.761 9.375 218.837 9.375H181.299C180.536 4.08375 175.985 0 170.486 0H117.045C114.456 0 112.357 2.09875 112.357 4.6875C112.357 7.27625 114.456 9.375 117.045 9.375H170.486C171.348 9.375 172.049 10.0763 172.049 10.9375V23.4375C172.049 34.6375 162.937 43.75 151.736 43.75H101.364C90.1631 43.75 81.0512 34.6375 81.0512 23.4375V10.9375C81.0512 10.0763 81.7518 9.375 82.6137 9.375H95.17C97.7593 9.375 99.8575 7.27625 99.8575 4.6875C99.8575 2.09875 97.7593 0 95.17 0H82.6137C77.115 0 72.5631 4.08375 71.8012 9.375H24.8875C11.9637 9.375 1.44995 19.8888 1.44995 32.8125V296.562C1.44995 309.486 11.9637 320 24.8875 320H218.837C219.989 320 221.139 319.909 222.271 319.74C223.271 319.59 224.289 319.902 225.306 319.944C240.324 320.571 255.204 315.268 266.391 305.497C278.736 294.716 286.549 278.867 286.549 261.227C286.55 233.822 267.694 210.739 242.275 204.266ZM79.7425 43.75C85.1612 49.5144 92.8468 53.125 101.364 53.125H151.736C160.253 53.125 167.939 49.5144 173.357 43.75H207.901V187.431C207.901 190.02 209.999 192.119 212.588 192.119C215.177 192.119 217.276 190.02 217.276 187.431V41.5625C217.276 37.5994 214.051 34.375 210.088 34.375H179.327C180.675 30.9875 181.424 27.2994 181.424 23.4375V18.75H218.838C226.592 18.75 232.901 25.0581 232.901 32.8125V202.681C231.212 202.535 229.504 202.456 227.778 202.456C195.371 202.456 169.006 228.821 169.006 261.228C169.006 269.927 170.907 278.19 174.314 285.626H35.825V43.75H79.7425ZM24.8875 310.625C17.1337 310.625 10.825 304.317 10.825 296.562V32.8125C10.825 25.0581 17.1337 18.75 24.8875 18.75H71.6762V23.4375C71.6762 27.2994 72.4256 30.9875 73.7731 34.375H33.6375C29.6743 34.375 26.45 37.5994 26.45 41.5625V287.812C26.45 291.776 29.6743 295 33.6375 295H179.705C184.061 301.181 189.548 306.601 195.936 310.605C195.946 310.612 24.8875 310.625 24.8875 310.625ZM227.777 310.625C217.196 310.625 206.849 307.197 198.373 300.893C204.703 290.797 215.664 284.665 227.777 284.665C239.892 284.665 250.852 290.797 257.182 300.893C248.723 307.199 238.311 310.625 227.777 310.625ZM264.224 294.531C256.075 282.526 242.608 275.289 227.777 275.289C212.947 275.289 199.48 282.526 191.331 294.531C183.292 285.742 178.38 274.048 178.38 261.227C178.38 233.989 200.539 211.829 227.777 211.829C255.016 211.829 277.175 233.989 277.175 261.227C277.175 274.049 272.262 285.742 264.224 294.531ZM89.05 127.188H107.8V145.938C107.8 150.59 111.585 154.375 116.237 154.375H127.487C132.14 154.375 135.925 150.59 135.925 145.938V127.188H154.675C159.327 127.188 163.112 123.402 163.112 118.75V107.5C163.112 102.848 159.327 99.0625 154.675 99.0625H135.925V80.3125C135.925 75.66 132.14 71.875 127.487 71.875H116.237C111.585 71.875 107.8 75.66 107.8 80.3125V99.0625H89.05C84.3975 99.0625 80.6125 102.848 80.6125 107.5V118.75C80.6125 123.402 84.3975 127.188 89.05 127.188ZM89.9875 108.438H110.612C114.231 108.438 117.175 105.494 117.175 101.875V81.25H126.55V101.875C126.55 105.494 129.494 108.438 133.112 108.438H153.737V117.812H133.112C129.494 117.812 126.55 120.756 126.55 124.375V145H117.175V124.375C117.175 120.756 114.231 117.812 110.612 117.812H89.9875V108.438ZM60.935 210.625H174.05C176.639 210.625 178.737 208.526 178.737 205.938C178.737 203.349 176.639 201.25 174.05 201.25H60.935C58.3456 201.25 56.2475 203.349 56.2475 205.938C56.2475 208.526 58.3456 210.625 60.935 210.625ZM60.935 182.5H184.464C187.053 182.5 189.151 180.401 189.151 177.812C189.151 175.224 187.053 173.125 184.464 173.125H60.935C58.3456 173.125 56.2475 175.224 56.2475 177.812C56.2475 180.401 58.3456 182.5 60.935 182.5ZM227.777 222.927C215.926 222.927 206.283 232.569 206.283 244.421C206.283 256.273 215.926 265.916 227.777 265.916C239.629 265.916 249.272 256.273 249.272 244.421C249.272 232.569 239.629 222.927 227.777 222.927ZM227.777 256.54C221.095 256.54 215.658 251.103 215.658 244.421C215.658 237.738 221.094 232.301 227.777 232.301C234.461 232.301 239.897 237.738 239.897 244.421C239.897 251.103 234.46 256.54 227.777 256.54ZM60.935 266.875H146.964C149.553 266.875 151.651 264.776 151.651 262.188C151.651 259.599 149.553 257.5 146.964 257.5H60.935C58.3456 257.5 56.2475 259.599 56.2475 262.188C56.2475 264.776 58.3456 266.875 60.935 266.875ZM60.935 238.75H156.339C158.928 238.75 161.026 236.651 161.026 234.062C161.026 231.474 158.928 229.375 156.339 229.375H60.935C58.3456 229.375 56.2475 231.474 56.2475 234.062C56.2475 236.651 58.3456 238.75 60.935 238.75Z" fill="#1C4685"/>
</g>
</svg>
