<svg width="524" height="37" viewBox="0 0 524 37" fill="none" xmlns="http://www.w3.org/2000/svg">
<g opacity="0.04">
<path d="M0 4.13131H7.33268L15.0773 23.026H15.4069L23.1515 4.13131H30.4842V32.2536H24.7169V13.9494H24.4835L17.2057 32.1163H13.2785L6.00071 13.8808H5.76728V32.2536H0V4.13131Z" fill="white"/>
<path d="M50.4635 32.2536V4.13131H69.4131V9.0335H56.4093V15.7345H68.4382V20.6367H56.4093V27.3515H69.4681V32.2536H50.4635Z" fill="white"/>
<path d="M88.1498 9.0335V4.13131H111.246V9.0335H102.637V32.2536H96.7595V9.0335H88.1498Z" fill="white"/>
<path d="M131.542 32.2536H125.17L134.878 4.13131H142.541L152.235 32.2536H145.864L138.819 10.5577H138.6L131.542 32.2536ZM131.143 21.1997H146.193V25.841H131.143V21.1997Z" fill="white"/>
<path d="M170.701 4.13131H178.033L185.778 23.026H186.107L193.852 4.13131H201.185V32.2536H195.417V13.9494H195.184L187.906 32.1163H183.979L176.701 13.8808H176.468V32.2536H170.701V4.13131Z" fill="white"/>
<path d="M266.492 32.2536V4.13131H277.587C279.711 4.13131 281.523 4.51122 283.025 5.27104C284.535 6.0217 285.684 7.08819 286.471 8.4705C287.268 9.84366 287.666 11.4594 287.666 13.3178C287.666 15.1853 287.263 16.7919 286.458 18.1376C285.652 19.4741 284.485 20.4994 282.956 21.2134C281.437 21.9275 279.596 22.2845 277.436 22.2845H270.007V17.5059H276.475C277.61 17.5059 278.553 17.3503 279.304 17.039C280.054 16.7278 280.613 16.2609 280.979 15.6384C281.354 15.0159 281.542 14.2424 281.542 13.3178C281.542 12.384 281.354 11.5967 280.979 10.9559C280.613 10.3151 280.05 9.82993 279.29 9.50037C278.539 9.16166 277.592 8.9923 276.447 8.9923H272.438V32.2536H266.492ZM281.679 19.4558L288.668 32.2536H282.105L275.266 19.4558H281.679Z" fill="white"/>
<path d="M306.949 32.2536V4.13131H318.044C320.177 4.13131 321.994 4.53868 323.495 5.35343C324.996 6.15901 326.141 7.28043 326.928 8.71767C327.724 10.1458 328.123 11.7935 328.123 13.661C328.123 15.5285 327.72 17.1763 326.914 18.6044C326.109 20.0325 324.942 21.1448 323.413 21.9412C321.893 22.7376 320.053 23.1359 317.893 23.1359H310.821V18.371H316.931C318.076 18.371 319.019 18.1742 319.76 17.7805C320.511 17.3777 321.069 16.8239 321.435 16.119C321.811 15.405 321.998 14.5856 321.998 13.661C321.998 12.7273 321.811 11.9126 321.435 11.2168C321.069 10.5119 320.511 9.96725 319.76 9.58276C319.009 9.18912 318.057 8.9923 316.904 8.9923H312.894V32.2536H306.949Z" fill="white"/>
<path d="M347.065 32.2536V4.13131H353.011V15.7345H365.081V4.13131H371.013V32.2536H365.081V20.6367H353.011V32.2536H347.065Z" fill="white"/>
<path d="M416.839 18.1925C416.839 21.2592 416.258 23.8682 415.095 26.0195C413.942 28.1708 412.367 29.814 410.371 30.9491C408.385 32.0751 406.151 32.6381 403.67 32.6381C401.171 32.6381 398.928 32.0706 396.942 30.9354C394.955 29.8003 393.385 28.1571 392.232 26.0058C391.078 23.8545 390.502 21.2501 390.502 18.1925C390.502 15.1258 391.078 12.5167 392.232 10.3655C393.385 8.21418 394.955 6.57554 396.942 5.44955C398.928 4.3144 401.171 3.74683 403.67 3.74683C406.151 3.74683 408.385 4.3144 410.371 5.44955C412.367 6.57554 413.942 8.21418 415.095 10.3655C416.258 12.5167 416.839 15.1258 416.839 18.1925ZM410.811 18.1925C410.811 16.206 410.513 14.5307 409.918 13.1667C409.332 11.8027 408.504 10.7683 407.433 10.0634C406.362 9.35848 405.108 9.00603 403.67 9.00603C402.233 9.00603 400.979 9.35848 399.908 10.0634C398.837 10.7683 398.004 11.8027 397.409 13.1667C396.823 14.5307 396.53 16.206 396.53 18.1925C396.53 20.179 396.823 21.8542 397.409 23.2183C398.004 24.5823 398.837 25.6167 399.908 26.3216C400.979 27.0265 402.233 27.3789 403.67 27.3789C405.108 27.3789 406.362 27.0265 407.433 26.3216C408.504 25.6167 409.332 24.5823 409.918 23.2183C410.513 21.8542 410.811 20.179 410.811 18.1925Z" fill="white"/>
<path d="M451.58 12.2192C451.47 11.1115 450.998 10.251 450.165 9.63769C449.332 9.02434 448.202 8.71767 446.774 8.71767C445.803 8.71767 444.984 8.85498 444.316 9.12962C443.647 9.3951 443.135 9.76585 442.778 10.2419C442.43 10.7179 442.256 11.258 442.256 11.8622C442.238 12.3657 442.343 12.8051 442.572 13.1804C442.81 13.5558 443.135 13.8808 443.547 14.1554C443.959 14.4209 444.435 14.6543 444.975 14.8557C445.515 15.0479 446.092 15.2127 446.705 15.35L449.232 15.9542C450.458 16.2289 451.584 16.595 452.61 17.0528C453.635 17.5105 454.523 18.0735 455.274 18.7417C456.024 19.41 456.606 20.1973 457.017 21.1036C457.439 22.0099 457.654 23.0489 457.663 24.2207C457.654 25.9417 457.214 27.4339 456.345 28.6972C455.484 29.9513 454.239 30.9263 452.61 31.622C450.989 32.3086 449.035 32.6519 446.746 32.6519C444.476 32.6519 442.499 32.304 440.814 31.6083C439.139 30.9125 437.83 29.8827 436.887 28.5187C435.953 27.1455 435.463 25.4473 435.418 23.4242H441.171C441.235 24.3671 441.505 25.1544 441.981 25.7861C442.467 26.4086 443.112 26.88 443.918 27.2004C444.732 27.5117 445.652 27.6673 446.678 27.6673C447.685 27.6673 448.559 27.5208 449.3 27.2279C450.051 26.9349 450.632 26.5276 451.044 26.0058C451.456 25.484 451.662 24.8844 451.662 24.2069C451.662 23.5753 451.474 23.0443 451.099 22.6141C450.733 22.1838 450.193 21.8176 449.479 21.5155C448.774 21.2134 447.909 20.9388 446.884 20.6916L443.821 19.9227C441.45 19.3459 439.578 18.4442 438.205 17.2175C436.832 15.9908 436.15 14.3385 436.159 12.2604C436.15 10.5577 436.603 9.07011 437.519 7.79765C438.443 6.52519 439.711 5.53194 441.322 4.81789C442.933 4.10385 444.764 3.74683 446.815 3.74683C448.902 3.74683 450.724 4.10385 452.28 4.81789C453.845 5.53194 455.063 6.52519 455.933 7.79765C456.802 9.07011 457.251 10.544 457.278 12.2192H451.58Z" fill="white"/>
<path d="M482.689 4.13131V32.2536H476.743V4.13131H482.689Z" fill="white"/>
<path d="M517.917 12.2192C517.807 11.1115 517.336 10.251 516.503 9.63769C515.669 9.02434 514.539 8.71767 513.111 8.71767C512.141 8.71767 511.321 8.85498 510.653 9.12962C509.985 9.3951 509.472 9.76585 509.115 10.2419C508.767 10.7179 508.593 11.258 508.593 11.8622C508.575 12.3657 508.68 12.8051 508.909 13.1804C509.147 13.5558 509.472 13.8808 509.884 14.1554C510.296 14.4209 510.772 14.6543 511.312 14.8557C511.852 15.0479 512.429 15.2127 513.042 15.35L515.569 15.9542C516.795 16.2289 517.921 16.595 518.947 17.0528C519.972 17.5105 520.86 18.0735 521.611 18.7417C522.361 19.41 522.943 20.1973 523.355 21.1036C523.776 22.0099 523.991 23.0489 524 24.2207C523.991 25.9417 523.551 27.4339 522.682 28.6972C521.821 29.9513 520.576 30.9263 518.947 31.622C517.326 32.3086 515.372 32.6519 513.083 32.6519C510.813 32.6519 508.836 32.304 507.151 31.6083C505.476 30.9125 504.167 29.8827 503.224 28.5187C502.29 27.1455 501.801 25.4473 501.755 23.4242H507.508C507.572 24.3671 507.842 25.1544 508.318 25.7861C508.804 26.4086 509.449 26.88 510.255 27.2004C511.069 27.5117 511.989 27.6673 513.015 27.6673C514.022 27.6673 514.896 27.5208 515.637 27.2279C516.388 26.9349 516.969 26.5276 517.381 26.0058C517.793 25.484 517.999 24.8844 517.999 24.2069C517.999 23.5753 517.812 23.0443 517.436 22.6141C517.07 22.1838 516.53 21.8176 515.816 21.5155C515.111 21.2134 514.246 20.9388 513.221 20.6916L510.159 19.9227C507.788 19.3459 505.915 18.4442 504.542 17.2175C503.169 15.9908 502.487 14.3385 502.496 12.2604C502.487 10.5577 502.94 9.07011 503.856 7.79765C504.78 6.52519 506.048 5.53194 507.659 4.81789C509.271 4.10385 511.101 3.74683 513.152 3.74683C515.239 3.74683 517.061 4.10385 518.617 4.81789C520.183 5.53194 521.4 6.52519 522.27 7.79765C523.139 9.07011 523.588 10.544 523.615 12.2192H517.917Z" fill="white"/>
<circle cx="230.89" cy="18.2651" r="6.70842" stroke="white" stroke-width="10"/>
<circle cx="230.89" cy="18.2651" r="13.2651" stroke="#FEC914" stroke-width="10"/>
</g>
</svg>
