<svg width="32" height="29" viewBox="0 0 32 29" fill="none" xmlns="http://www.w3.org/2000/svg">
<path d="M20.6442 23.3595V23.3601L28.2606 20.5447C29.4575 20.0794 30.7647 20.9607 30.7647 22.2588C30.7647 22.993 30.3345 23.6267 29.7125 23.9214C29.5899 23.9791 20.5915 28.3872 16.9145 28.3872C12.0117 28.3872 10.786 25.9359 5.8833 25.9359V18.5817C7.35903 18.5817 9.31522 16.2223 12.4499 17.9855L15.4087 19.6499C15.5926 19.7535 15.7991 19.8074 16.0099 19.8074H19.9787C20.9942 19.8074 21.8172 20.6305 21.8172 21.646C21.8172 22.4267 21.3306 23.0935 20.6442 23.3595Z" fill="#EFF5FA"/>
<path d="M24.8875 1.41046C28.7111 1.41046 33.9503 7.34584 20.5989 16.1303C7.22481 7.33052 12.5179 1.41046 16.3108 1.41046C19.1581 1.41046 20.5989 3.87348 20.5989 3.87348C20.5989 3.87348 22.0397 1.41046 24.8875 1.41046Z" fill="#FEC914"/>
<path d="M5.8833 27.1616H0.612854V18.5818H5.8833V27.1616Z" fill="#FBF0DC"/>
<path d="M0.612842 27.7744H5.88329C6.2217 27.7744 6.49613 27.5 6.49613 27.1615V26.5626C8.47726 26.6532 9.78954 27.1779 11.1713 27.7306C12.7316 28.3547 14.345 29.0001 16.9144 29.0001C18.0431 29.0001 19.7183 28.6205 21.8935 27.872C22.2136 27.7619 22.3837 27.4132 22.2736 27.0931C22.1634 26.7731 21.8146 26.6029 21.4946 26.7131C19.4481 27.4173 17.9071 27.7744 16.9144 27.7744C14.5811 27.7744 13.146 27.2003 11.6265 26.5925C10.1941 26.0196 8.7164 25.4291 6.49613 25.3361V19.1095C6.88896 19.0078 7.28473 18.8277 7.69546 18.6403C8.9035 18.089 10.2727 17.4639 12.1494 18.5195L15.1079 20.1839C15.3823 20.3385 15.6943 20.4203 16.0099 20.4203H19.9787C20.6545 20.4203 21.2043 20.9701 21.2043 21.646C21.2043 22.1479 20.8903 22.6069 20.4208 22.7888C20.2804 22.8438 20.1317 22.8716 19.9787 22.8716H13.7485C13.4101 22.8716 13.1357 23.146 13.1357 23.4845C13.1357 23.823 13.4101 24.0973 13.7485 24.0973H19.9787C20.2767 24.0973 20.5675 24.0437 20.8419 23.9396C20.8468 23.9379 20.8518 23.9368 20.8567 23.9349C20.8567 23.9349 28.4794 21.1171 28.4826 21.1159C28.624 21.0609 28.7732 21.0331 28.9262 21.0331C29.602 21.0331 30.1518 21.5829 30.1518 22.2587C30.1518 22.7303 29.8764 23.1655 29.4514 23.3669C29.3466 23.4174 29.2415 23.4684 29.0387 23.565L28.8614 23.2104C28.7101 22.9076 28.3417 22.7849 28.0393 22.9363C27.7365 23.0877 27.6138 23.4558 27.7651 23.7585L27.9279 24.0842C27.5267 24.2683 27.0707 24.4741 26.5721 24.6935C26.2623 24.8299 26.1217 25.1915 26.2581 25.5013C26.3946 25.8116 26.7565 25.9514 27.0659 25.8154C28.2715 25.2848 29.0693 24.9084 29.9749 24.4753C30.827 24.0715 31.3775 23.2015 31.3775 22.2588C31.3775 20.9071 30.2778 19.8074 28.9262 19.8074C28.6226 19.8074 28.3257 19.8626 28.0437 19.9715L22.3937 22.06C22.4173 21.9245 22.43 21.7861 22.43 21.646C22.43 20.2943 21.3303 19.1946 19.9787 19.1946H16.0099C15.9046 19.1946 15.8007 19.1674 15.7092 19.1158L12.7504 17.4513C10.3306 16.0903 8.51342 16.9197 7.18662 17.5252C6.66497 17.7633 6.21453 17.9689 5.88329 17.9689H0.612842C0.274431 17.9689 0 18.2433 0 18.5817V27.1615C0 27.5 0.274431 27.7744 0.612842 27.7744ZM1.22568 19.1946H5.27044V26.5487H1.22568V19.1946Z" fill="#1C4685"/>
<path d="M20.2619 16.6423C20.3642 16.7095 20.4815 16.7432 20.5988 16.7432C20.7161 16.7432 20.8335 16.7095 20.9356 16.6423C29.9252 10.7277 30.2214 6.35131 29.5978 4.26905C28.9153 1.99002 26.7116 0.797607 24.8875 0.797607C22.7328 0.797607 21.3087 2.02899 20.5989 2.84977C19.8891 2.02899 18.4651 0.797607 16.3108 0.797607C14.4887 0.797607 12.2864 1.99204 11.6027 4.275C10.9795 6.35584 11.2758 10.7296 20.2619 16.6423ZM12.7768 4.62665C13.2832 2.93575 14.9756 2.02335 16.3108 2.02335C18.755 2.02335 20.0151 4.09121 20.0707 4.18442C20.1808 4.37152 20.3817 4.48637 20.5988 4.48637C20.8166 4.48637 21.0179 4.37085 21.1278 4.18295C21.1404 4.16132 22.4196 2.02335 24.8875 2.02335C26.2246 2.02335 27.9184 2.93367 28.4236 4.6207C28.8414 6.01565 28.8974 9.83342 20.5988 15.3948C12.3036 9.83538 12.3594 6.0205 12.7768 4.62665Z" fill="#1C4685"/>
<path d="M18.1401 9.38921H19.9787V11.2277C19.9787 11.5662 20.2531 11.8406 20.5915 11.8406C20.9299 11.8406 21.2043 11.5662 21.2043 11.2277V9.38921H23.0429C23.3813 9.38921 23.6557 9.11484 23.6557 8.77637C23.6557 8.4379 23.3813 8.16353 23.0429 8.16353H21.2043V6.325C21.2043 5.98653 20.9299 5.71216 20.5915 5.71216C20.2531 5.71216 19.9787 5.98653 19.9787 6.325V8.16353H18.1401C17.8017 8.16353 17.5273 8.4379 17.5273 8.77637C17.5273 9.11484 17.8017 9.38921 18.1401 9.38921Z" fill="#1C4685"/>
<path d="M24.2685 26.9164C24.607 26.9164 24.8814 26.642 24.8814 26.3035C24.8814 25.9651 24.607 25.6907 24.2685 25.6907C23.9301 25.6907 23.6557 25.9651 23.6557 26.3035C23.6557 26.642 23.9301 26.9164 24.2685 26.9164Z" fill="#1C4685"/>
</svg>
