<svg width="22" height="21" viewBox="0 0 22 21" fill="none" xmlns="http://www.w3.org/2000/svg">
<path d="M14.4745 16.6165V16.6169L19.8146 14.6429C20.6538 14.3167 21.5703 14.9346 21.5703 15.8448C21.5703 16.3595 21.2687 16.8038 20.8325 17.0105C20.7466 17.0509 14.4375 20.1416 11.8594 20.1416C8.42188 20.1416 7.5625 18.4229 4.125 18.4229V13.2666C5.15969 13.2666 6.53125 11.6123 8.7291 12.8485L10.8036 14.0156C10.9325 14.0882 11.0773 14.126 11.2252 14.126H14.0078C14.7198 14.126 15.2969 14.7031 15.2969 15.4151C15.2969 15.9625 14.9557 16.43 14.4745 16.6165Z" fill="#EFF5FA"/>
<path d="M17.4496 1.22729C20.1304 1.22729 23.8038 5.38882 14.4427 11.548C5.0656 5.37808 8.77682 1.22729 11.4362 1.22729C13.4325 1.22729 14.4427 2.95421 14.4427 2.95421C14.4427 2.95421 15.4529 1.22729 17.4496 1.22729Z" fill="#FEC914"/>
<path d="M4.125 19.2825H0.429688V13.2668H4.125V19.2825Z" fill="#FBF0DC"/>
<path d="M0.429688 19.7119H4.125C4.36227 19.7119 4.55469 19.5196 4.55469 19.2823V18.8623C5.94374 18.9258 6.86383 19.2937 7.8326 19.6812C8.92663 20.1189 10.0579 20.5713 11.8594 20.5713C12.6507 20.5713 13.8252 20.3052 15.3504 19.7804C15.5748 19.7032 15.6941 19.4587 15.6169 19.2343C15.5396 19.0099 15.295 18.8906 15.0707 18.9678C13.6358 19.4616 12.5553 19.7119 11.8594 19.7119C10.2234 19.7119 9.21714 19.3095 8.15177 18.8833C7.14747 18.4816 6.1114 18.0676 4.55469 18.0024V13.6367C4.83012 13.5654 5.10761 13.4391 5.39559 13.3077C6.24259 12.9211 7.20259 12.4829 8.51843 13.223L10.5927 14.39C10.7852 14.4984 11.0039 14.5557 11.2252 14.5557H14.0078C14.4817 14.5557 14.8672 14.9412 14.8672 15.4151C14.8672 15.767 14.647 16.0888 14.3178 16.2164C14.2194 16.2549 14.1151 16.2744 14.0078 16.2744H9.63961C9.40234 16.2744 9.20992 16.4668 9.20992 16.7041C9.20992 16.9415 9.40234 17.1338 9.63961 17.1338H14.0078C14.2168 17.1338 14.4207 17.0962 14.6131 17.0232C14.6165 17.0221 14.62 17.0212 14.6234 17.02C14.6234 17.02 19.968 15.0443 19.9702 15.0434C20.0694 15.0049 20.174 14.9853 20.2812 14.9853C20.7551 14.9853 21.1406 15.3709 21.1406 15.8447C21.1406 16.1753 20.9475 16.4805 20.6495 16.6217C20.576 16.6571 20.5024 16.6928 20.3602 16.7606L20.2359 16.5119C20.1297 16.2997 19.8715 16.2136 19.6594 16.3198C19.4471 16.4259 19.3611 16.684 19.4672 16.8963L19.5813 17.1246C19.3001 17.2537 18.9803 17.398 18.6307 17.5518C18.4135 17.6474 18.3149 17.901 18.4106 18.1182C18.5063 18.3357 18.76 18.4338 18.9769 18.3384C19.8222 17.9664 20.3816 17.7025 21.0165 17.3988C21.614 17.1157 22 16.5057 22 15.8448C22 14.897 21.229 14.126 20.2812 14.126C20.0684 14.126 19.8602 14.1647 19.6625 14.241L15.7011 15.7054C15.7177 15.6104 15.7266 15.5133 15.7266 15.4151C15.7266 14.4674 14.9555 13.6963 14.0078 13.6963H11.2252C11.1513 13.6963 11.0785 13.6773 11.0143 13.6411L8.93978 12.474C7.2432 11.5198 5.96909 12.1013 5.03882 12.5259C4.67307 12.6928 4.35725 12.8369 4.125 12.8369H0.429688C0.192414 12.8369 0 13.0293 0 13.2666V19.2823C0 19.5196 0.192414 19.7119 0.429688 19.7119ZM0.859375 13.6963H3.69531V18.8526H0.859375V13.6963Z" fill="#1C4685"/>
<path d="M14.2064 11.9069C14.2782 11.9541 14.3604 11.9776 14.4426 11.9776C14.5249 11.9776 14.6072 11.9541 14.6788 11.9069C20.9818 7.75996 21.1894 4.69152 20.7522 3.23157C20.2737 1.63365 18.7286 0.797607 17.4496 0.797607C15.9389 0.797607 14.9404 1.66098 14.4427 2.23646C13.945 1.66098 12.9466 0.797607 11.4362 0.797607C10.1586 0.797607 8.61449 1.63507 8.13513 3.23574C7.69813 4.6947 7.90589 7.7613 14.2064 11.9069ZM8.95832 3.4823C9.31337 2.29674 10.5 1.65703 11.4361 1.65703C13.1498 1.65703 14.0334 3.10688 14.0723 3.17223C14.1495 3.30342 14.2904 3.38394 14.4426 3.38394C14.5953 3.38394 14.7365 3.30294 14.8135 3.1712C14.8224 3.15603 15.7193 1.65703 17.4496 1.65703C18.3871 1.65703 19.5747 2.29528 19.9289 3.47813C20.2218 4.45618 20.2611 7.13296 14.4426 11.0322C8.62652 7.13434 8.66566 4.45958 8.95832 3.4823Z" fill="#1C4685"/>
<path d="M12.7188 6.82153H14.0078V8.1106C14.0078 8.34791 14.2002 8.54028 14.4375 8.54028C14.6748 8.54028 14.8672 8.34791 14.8672 8.1106V6.82153H16.1562C16.3935 6.82153 16.5859 6.62916 16.5859 6.39185C16.5859 6.15453 16.3935 5.96216 16.1562 5.96216H14.8672V4.6731C14.8672 4.43578 14.6748 4.24341 14.4375 4.24341C14.2002 4.24341 14.0078 4.43578 14.0078 4.6731V5.96216H12.7188C12.4815 5.96216 12.2891 6.15453 12.2891 6.39185C12.2891 6.62916 12.4815 6.82153 12.7188 6.82153Z" fill="#1C4685"/>
<path d="M17.0156 19.1104C17.2529 19.1104 17.4453 18.918 17.4453 18.6807C17.4453 18.4434 17.2529 18.251 17.0156 18.251C16.7783 18.251 16.5859 18.4434 16.5859 18.6807C16.5859 18.918 16.7783 19.1104 17.0156 19.1104Z" fill="#1C4685"/>
</svg>
