<svg width="22" height="22" viewBox="0 0 22 22" fill="none" xmlns="http://www.w3.org/2000/svg">
<path d="M18.1045 2.94879L11.4532 1.13478C11.1565 1.05387 10.8436 1.05387 10.5469 1.13478L3.89554 2.94879C3.61388 3.02562 3.37918 3.21546 3.24766 3.47606C2.94868 4.06838 2.22608 5.19369 0.781981 5.95828C0.508485 6.10308 0.35947 6.40868 0.426157 6.71088C0.871958 8.73062 2.96552 16.0381 10.6382 20.7702C10.8584 20.9059 11.1418 20.9059 11.3619 20.7702C19.0346 16.0381 21.1282 8.73067 21.574 6.71088C21.6407 6.40868 21.4917 6.10308 21.2182 5.95828C19.774 5.19369 19.0515 4.06838 18.7525 3.47606C18.6209 3.21546 18.3862 3.02558 18.1045 2.94879Z" fill="#ECEAEC"/>
<path d="M16.8756 4.75568L11.272 3.22746C11.0939 3.1789 10.9062 3.1789 10.7282 3.22746L5.12451 4.75573C4.96324 4.79973 4.82123 4.89924 4.73134 5.04018C4.3698 5.60715 3.82483 6.29766 3.03889 6.93377C2.82353 7.10805 2.7394 7.39792 2.8231 7.66205C3.6331 10.218 5.69186 14.8021 10.6046 18.2724C10.84 18.4387 11.1601 18.4387 11.3955 18.2724C16.3091 14.8021 18.3671 10.2182 19.177 7.66205C19.2608 7.39796 19.1766 7.10809 18.9613 6.93381C18.1753 6.2977 17.6303 5.60715 17.2688 5.04018C17.1789 4.8992 17.0369 4.79968 16.8756 4.75568Z" fill="#A4CCFF"/>
<path d="M16.5111 18.2333C18.0329 18.2333 19.2666 16.9996 19.2666 15.4777C19.2666 13.9559 18.0329 12.7222 16.5111 12.7222C14.9893 12.7222 13.7556 13.9559 13.7556 15.4777C13.7556 16.9996 14.9893 18.2333 16.5111 18.2333Z" fill="#FF8086"/>
<path d="M17.1139 17.6306C15.5921 17.6306 14.3584 16.3969 14.3584 14.8751C14.3584 14.268 14.557 13.7088 14.8895 13.2534C14.2032 13.7546 13.7556 14.563 13.7556 15.4778C13.7556 16.9996 14.9893 18.2334 16.5111 18.2334C17.4259 18.2334 18.2343 17.7857 18.7355 17.0994C18.2802 17.432 17.7209 17.6306 17.1139 17.6306Z" fill="#E83D62"/>
<path d="M10.7282 3.22748L5.12443 4.75575C4.96316 4.79975 4.82115 4.89926 4.73126 5.0402C4.36977 5.60717 3.82479 6.29768 3.03881 6.93379C2.82345 7.10811 2.73936 7.39798 2.82302 7.66207C3.63302 10.2181 5.69179 14.8021 10.6045 18.2724C10.7223 18.3556 10.8611 18.3972 11 18.3972V3.19104C10.9086 3.19104 10.8171 3.2032 10.7282 3.22748Z" fill="#41B9D5"/>
<path d="M11.799 20.3073C3.22447 15.1861 1.45231 6.74757 1.27846 5.80221L1.25547 5.677C1.10637 5.77441 0.95009 5.86916 0.781953 5.95819C0.5085 6.10299 0.359441 6.40859 0.426172 6.71079C0.87193 8.73058 2.9655 16.038 10.6382 20.7701C10.8584 20.9059 11.1418 20.9059 11.3619 20.7701C11.5612 20.6472 11.7545 20.5215 11.9463 20.3953L11.799 20.3073Z" fill="#DAD8DB"/>
<path d="M16.5111 14.7667C16.6891 14.7667 16.8334 14.6224 16.8334 14.4444V14.1C16.8334 13.922 16.6891 13.7777 16.5111 13.7777C16.3331 13.7777 16.1888 13.922 16.1888 14.1V14.4444C16.1888 14.6224 16.3331 14.7667 16.5111 14.7667Z" fill="#1C4685"/>
<path d="M16.1888 16.8555C16.1888 17.0335 16.3331 17.1778 16.5111 17.1778C16.6891 17.1778 16.8334 17.0335 16.8334 16.8555V16.5111C16.8334 16.3331 16.6891 16.1888 16.5111 16.1888C16.3331 16.1888 16.1888 16.3331 16.1888 16.5111V16.8555Z" fill="#1C4685"/>
<path d="M20.6444 15.1554H19.572C19.5377 14.8278 19.4513 14.5158 19.3222 14.2268L20.2518 13.6901C20.4059 13.6011 20.4587 13.404 20.3697 13.2499C20.2807 13.0957 20.0836 13.0429 19.9295 13.1319L18.9992 13.6691C18.8095 13.4088 18.58 13.1793 18.3197 12.9896L18.8569 12.0593C18.9458 11.9051 18.893 11.708 18.7389 11.6191C18.5848 11.53 18.3877 11.5829 18.2987 11.737L17.762 12.6666C17.473 12.5375 17.1609 12.4511 16.8334 12.4168V11.3444C16.8334 11.1664 16.6891 11.0221 16.5111 11.0221C16.3332 11.0221 16.1889 11.1664 16.1889 11.3444V12.4168C15.8613 12.4511 15.5493 12.5375 15.2602 12.6666L14.7236 11.737C14.6345 11.5829 14.4375 11.53 14.2833 11.6191C14.1292 11.708 14.0764 11.9051 14.1654 12.0593L14.7025 12.9896C14.4422 13.1793 14.2128 13.4088 14.023 13.6691L13.0927 13.1319C12.9386 13.0429 12.7415 13.0958 12.6525 13.2499C12.5635 13.404 12.6163 13.6011 12.7705 13.6901L13.7 14.2268C13.5709 14.5158 13.4845 14.8279 13.4503 15.1554H12.3778C12.1998 15.1554 12.0555 15.2997 12.0555 15.4777C12.0555 15.6556 12.1998 15.7999 12.3778 15.7999H13.4504C13.4842 16.1212 13.5681 16.435 13.699 16.7292L12.7705 17.2652C12.6163 17.3542 12.5635 17.5513 12.6525 17.7055C12.7122 17.8088 12.8205 17.8666 12.9319 17.8666C12.9865 17.8666 13.042 17.8527 13.0927 17.8234L14.2859 17.1345C14.44 17.0455 14.4929 16.8484 14.4039 16.6943C14.4027 16.6923 14.4013 16.6905 14.4001 16.6886C14.1893 16.3219 14.0779 15.9034 14.0779 15.4777C14.0779 14.136 15.1694 13.0444 16.5111 13.0444C17.8528 13.0444 18.9444 14.136 18.9444 15.4777C18.9444 16.8194 17.8528 17.9109 16.5111 17.9109C16.0855 17.9109 15.667 17.7995 15.3005 17.5888C15.2984 17.5875 15.2965 17.5861 15.2945 17.5849C15.1404 17.4959 14.9433 17.5487 14.8543 17.7029L14.1654 18.8961C14.0764 19.0502 14.1292 19.2473 14.2833 19.3363C14.3341 19.3656 14.3895 19.3795 14.4442 19.3795C14.5555 19.3795 14.6639 19.3217 14.7236 19.2183L15.2596 18.2898C15.5538 18.4207 15.8676 18.5046 16.1889 18.5383V19.6109C16.1889 19.7889 16.3332 19.9332 16.5111 19.9332C16.6891 19.9332 16.8334 19.7889 16.8334 19.6109V18.5385C17.161 18.5042 17.473 18.4178 17.762 18.2887L18.2987 19.2183C18.3584 19.3217 18.4667 19.3795 18.5781 19.3795C18.6327 19.3795 18.6882 19.3656 18.7389 19.3362C18.893 19.2473 18.9458 19.0502 18.8569 18.896L18.3197 17.9657C18.58 17.776 18.8095 17.5466 18.9992 17.2863L19.9295 17.8234C19.9803 17.8527 20.0357 17.8666 20.0904 17.8666C20.2017 17.8666 20.3101 17.8088 20.3697 17.7054C20.4587 17.5513 20.4059 17.3542 20.2518 17.2652L19.3222 16.7285C19.4513 16.4395 19.5377 16.1274 19.572 15.7999H20.6444C20.8224 15.7999 20.9667 15.6556 20.9667 15.4776C20.9667 15.2996 20.8224 15.1554 20.6444 15.1554Z" fill="#1C4685"/>
<path d="M17.8889 15.7999C18.0668 15.7999 18.2111 15.6556 18.2111 15.4777C18.2111 15.2997 18.0668 15.1554 17.8889 15.1554H17.5444C17.3665 15.1554 17.2222 15.2997 17.2222 15.4777C17.2222 15.6556 17.3665 15.7999 17.5444 15.7999H17.8889Z" fill="#1C4685"/>
<path d="M15.1333 15.7999H15.4777C15.6557 15.7999 15.8 15.6556 15.8 15.4777C15.8 15.2997 15.6557 15.1554 15.4777 15.1554H15.1333C14.9553 15.1554 14.811 15.2997 14.811 15.4777C14.811 15.6556 14.9553 15.7999 15.1333 15.7999Z" fill="#1C4685"/>
<path d="M21.8047 5.88155C19.5654 4.92185 18.8898 2.99445 18.8835 2.97584C18.8494 2.87362 18.7665 2.7952 18.6626 2.76684L11.0848 0.700219C11.0293 0.685051 10.9707 0.685051 10.9152 0.700219L3.33748 2.76688C3.2341 2.79507 3.15121 2.87362 3.11679 2.97511C3.11022 2.99444 2.43462 4.92189 0.19531 5.8816C0.0608177 5.93926 -0.0179439 6.08028 0.00349751 6.22504C0.017849 6.32207 0.372856 8.63572 1.8854 11.6608C2.77253 13.4351 3.87609 15.0839 5.16532 16.5615C6.77708 18.4087 8.68484 19.9915 10.8356 21.2661C10.8863 21.2961 10.9431 21.3111 11 21.3111C11.0568 21.3111 11.1136 21.2961 11.1643 21.2661C11.8895 20.8362 12.5951 20.3663 13.2612 19.8694C13.4039 19.763 13.4332 19.5611 13.3268 19.4184C13.2204 19.2757 13.0184 19.2464 12.8758 19.3527C12.2782 19.7985 11.6479 20.222 10.9999 20.6133C8.98004 19.3939 7.18489 17.8931 5.66183 16.1502C4.40933 14.7169 3.33653 13.1172 2.47325 11.3953C1.39809 9.25098 0.858187 7.29724 0.681887 6.3689C2.65101 5.43421 3.44748 3.86134 3.66383 3.34589L11 1.34518L18.3361 3.34593C18.5523 3.86125 19.3482 5.43317 21.316 6.368C21.1833 7.04201 20.7103 9.07769 19.4522 11.5424C19.3713 11.7009 19.4342 11.8951 19.5928 11.976C19.7513 12.0569 19.9454 11.9939 20.0263 11.8354C21.6129 8.72702 21.9816 6.32572 21.9965 6.225C22.0179 6.08024 21.9392 5.93922 21.8047 5.88155Z" fill="#1C4685"/>
<path d="M16.927 5.10376C17.3122 5.73214 17.9567 6.58219 18.9481 7.33595C18.6899 8.19696 18.2406 9.44803 17.5022 10.8497C17.4192 11.0072 17.4796 11.2021 17.637 11.285C17.7945 11.368 17.9894 11.3075 18.0723 11.1501C18.9004 9.57866 19.3767 8.18841 19.6305 7.29887C19.6679 7.16798 19.619 7.02773 19.5084 6.94846C18.4395 6.18258 17.7796 5.28299 17.4142 4.66321C17.3716 4.59089 17.3024 4.53804 17.2214 4.51595L11.0901 2.84382C11.0612 2.8354 11.031 2.83093 11.0002 2.83093C11.0002 2.83093 11.0001 2.83093 11 2.83093C10.9694 2.83128 10.939 2.83536 10.9101 2.84378L4.77868 4.51599C4.69768 4.53808 4.6285 4.59093 4.58583 4.66325C4.22038 5.28316 3.5603 6.18288 2.49128 6.94876C2.38063 7.02803 2.33174 7.16824 2.36908 7.29912C2.72383 8.54247 3.42215 10.4626 4.73451 12.5497C6.30368 15.0453 8.35119 17.1525 10.8201 18.8129C10.8745 18.8495 10.9373 18.8677 11 18.8677C11.0627 18.8677 11.1255 18.8495 11.1799 18.8129C11.4158 18.6542 11.6511 18.4892 11.8791 18.3224C12.0228 18.2174 12.0541 18.0157 11.949 17.8721C11.8439 17.7284 11.6423 17.6971 11.4987 17.8021C11.4405 17.8447 11.3813 17.8869 11.3223 17.9292V3.57524L16.927 5.10376ZM5.28017 12.2066C4.08142 10.3001 3.41188 8.53959 3.05146 7.33625C4.04301 6.58249 4.68767 5.73227 5.07297 5.10376L10.6777 3.57524V17.9292C8.50755 16.3767 6.69345 14.4542 5.28017 12.2066Z" fill="#1C4685"/>
</svg>
