<svg width="348" height="284" viewBox="0 0 348 284" fill="none" xmlns="http://www.w3.org/2000/svg">
<g opacity="0.11" clip-path="url(#clip0_465_21039)">
<path d="M286.38 46.6442L181.168 17.9499C176.475 16.67 171.525 16.67 166.832 17.9499L61.6198 46.6442C57.1645 47.8595 53.452 50.8624 51.3715 54.9847C46.6422 64.3542 35.2119 82.1545 12.369 94.2489C8.04278 96.5394 5.68563 101.373 6.7405 106.154C13.7923 138.102 46.9087 253.693 168.277 328.546C171.759 330.694 176.242 330.694 179.724 328.546C301.093 253.693 334.209 138.103 341.261 106.154C342.316 101.373 339.959 96.5394 335.632 94.2489C312.789 82.1545 301.359 64.3542 296.63 54.9847C294.548 50.8624 290.836 47.8588 286.38 46.6442Z" fill="#ECEAEC"/>
<path d="M266.941 75.2265L178.301 51.0527C175.485 50.2846 172.516 50.2846 169.7 51.0527L81.0596 75.2271C78.5087 75.9231 76.2623 77.4973 74.8404 79.7267C69.1215 88.6951 60.501 99.6177 48.0689 109.68C44.6623 112.437 43.3315 117.022 44.6555 121.2C57.4683 161.631 90.0341 234.142 167.745 289.036C171.469 291.667 176.532 291.667 180.256 289.037C257.979 234.143 290.533 161.633 303.345 121.2C304.669 117.022 303.338 112.437 299.932 109.681C287.5 99.6184 278.879 88.6951 273.16 79.7267C271.738 77.4966 269.492 75.9225 266.941 75.2265Z" fill="#A4CCFF"/>
<path d="M261.175 288.418C285.248 288.418 304.763 268.903 304.763 244.83C304.763 220.757 285.248 201.242 261.175 201.242C237.102 201.242 217.587 220.757 217.587 244.83C217.587 268.903 237.102 288.418 261.175 288.418Z" fill="#FF8086"/>
<path d="M270.71 278.883C246.638 278.883 227.123 259.368 227.123 235.295C227.123 225.693 230.265 216.846 235.524 209.644C224.669 217.572 217.587 230.359 217.587 244.83C217.587 268.902 237.102 288.418 261.175 288.418C275.646 288.418 288.433 281.336 296.361 270.481C289.159 275.741 280.312 278.883 270.71 278.883Z" fill="#E83D62"/>
<path d="M169.7 51.0527L81.0589 75.2271C78.508 75.9231 76.2617 77.4973 74.8398 79.7267C69.1215 88.6951 60.5011 99.6177 48.0682 109.68C44.6616 112.437 43.3315 117.022 44.6548 121.2C57.4676 161.631 90.0335 234.142 167.744 289.036C169.607 290.352 171.803 291.01 174 291.01V50.4763C172.554 50.4763 171.107 50.6687 169.7 51.0527Z" fill="#41B9D5"/>
<path d="M186.638 321.225C51.0051 240.217 22.9728 106.735 20.2228 91.7808L19.8591 89.8001C17.5006 91.341 15.0286 92.8397 12.369 94.248C8.04344 96.5386 5.68561 101.373 6.74116 106.153C13.7922 138.102 46.9087 253.692 168.277 328.545C171.76 330.693 176.242 330.693 179.724 328.545C182.877 326.601 185.934 324.613 188.968 322.616L186.638 321.225Z" fill="#DAD8DB"/>
<path d="M261.176 233.582C263.991 233.582 266.273 231.3 266.273 228.485V223.036C266.273 220.221 263.991 217.939 261.176 217.939C258.36 217.939 256.078 220.221 256.078 223.036V228.485C256.078 231.3 258.36 233.582 261.176 233.582Z" fill="#1C4685"/>
<path d="M256.078 266.624C256.078 269.439 258.36 271.722 261.176 271.722C263.991 271.722 266.273 269.439 266.273 266.624V261.176C266.273 258.36 263.991 256.078 261.176 256.078C258.36 256.078 256.078 258.36 256.078 261.176V266.624Z" fill="#1C4685"/>
<path d="M326.557 239.732H309.593C309.051 234.551 307.684 229.615 305.642 225.044L320.346 216.554C322.784 215.147 323.619 212.029 322.212 209.591C320.804 207.152 317.686 206.317 315.248 207.725L300.532 216.221C297.531 212.104 293.902 208.475 289.784 205.473L298.281 190.757C299.688 188.319 298.853 185.202 296.415 183.794C293.977 182.386 290.859 183.222 289.451 185.66L280.962 200.364C276.39 198.322 271.454 196.955 266.273 196.413V179.449C266.273 176.633 263.991 174.351 261.176 174.351C258.36 174.351 256.078 176.633 256.078 179.449V196.413C250.897 196.955 245.961 198.322 241.389 200.364L232.899 185.66C231.491 183.222 228.374 182.386 225.936 183.794C223.498 185.202 222.663 188.319 224.07 190.757L232.566 205.473C228.449 208.475 224.82 212.104 221.818 216.221L207.102 207.725C204.664 206.317 201.547 207.153 200.139 209.591C198.731 212.029 199.567 215.147 202.005 216.554L216.709 225.044C214.667 229.615 213.3 234.552 212.758 239.732H195.794C192.979 239.732 190.696 242.015 190.696 244.83C190.696 247.645 192.979 249.928 195.794 249.928H212.761C213.294 255.009 214.623 259.973 216.692 264.626L202.005 273.106C199.567 274.514 198.731 277.632 200.139 280.07C201.083 281.705 202.797 282.619 204.558 282.619C205.423 282.619 206.3 282.399 207.102 281.935L225.977 271.039C228.415 269.631 229.25 266.513 227.842 264.075C227.824 264.043 227.802 264.015 227.783 263.984C224.449 258.184 222.686 251.564 222.686 244.83C222.686 223.607 239.952 206.34 261.176 206.34C282.399 206.34 299.666 223.607 299.666 244.83C299.666 266.054 282.399 283.32 261.176 283.32C254.443 283.32 247.823 281.558 242.025 278.224C241.993 278.205 241.963 278.182 241.93 278.163C239.492 276.755 236.375 277.591 234.967 280.029L224.07 298.903C222.663 301.341 223.498 304.459 225.936 305.867C226.739 306.33 227.615 306.55 228.48 306.55C230.242 306.55 231.955 305.635 232.899 304.001L241.379 289.313C246.032 291.383 250.997 292.71 256.078 293.244V310.211C256.078 313.026 258.36 315.309 261.176 315.309C263.991 315.309 266.273 313.026 266.273 310.211V293.247C271.455 292.705 276.39 291.338 280.962 289.296L289.451 304C290.395 305.635 292.109 306.55 293.871 306.55C294.735 306.55 295.612 306.329 296.415 305.866C298.853 304.458 299.688 301.34 298.281 298.902L289.784 284.187C293.902 281.185 297.531 277.556 300.532 273.439L315.248 281.935C316.051 282.398 316.928 282.618 317.792 282.618C319.554 282.618 321.268 281.704 322.212 280.069C323.619 277.631 322.784 274.513 320.346 273.106L305.642 264.616C307.684 260.045 309.051 255.108 309.593 249.927H326.557C329.372 249.927 331.655 247.645 331.655 244.829C331.655 242.014 329.372 239.732 326.557 239.732Z" fill="#1C4685"/>
<path d="M282.969 249.927C285.784 249.927 288.067 247.645 288.067 244.83C288.067 242.014 285.784 239.732 282.969 239.732H277.521C274.705 239.732 272.423 242.014 272.423 244.83C272.423 247.645 274.705 249.927 277.521 249.927H282.969Z" fill="#1C4685"/>
<path d="M239.381 249.927H244.83C247.645 249.927 249.927 247.645 249.927 244.83C249.927 242.014 247.645 239.732 244.83 239.732H239.381C236.566 239.732 234.284 242.014 234.284 244.83C234.284 247.645 236.566 249.927 239.381 249.927Z" fill="#1C4685"/>
<path d="M344.91 93.0362C309.489 77.8554 298.802 47.3674 298.702 47.0731C298.163 45.4561 296.852 44.2157 295.207 43.7671L175.341 11.0769C174.463 10.8369 173.537 10.8369 172.659 11.0769L52.7926 43.7677C51.1573 44.2136 49.8462 45.4561 49.3017 47.0615C49.1978 47.3674 38.511 77.856 3.0892 93.0368C0.961781 93.949 -0.284083 96.1797 0.0550801 98.4696C0.282095 100.004 5.89766 136.602 29.8233 184.453C43.8561 212.519 61.3125 238.6 81.7058 261.974C107.201 291.193 137.378 316.23 171.4 336.391C172.201 336.866 173.1 337.103 173.999 337.103C174.898 337.103 175.797 336.866 176.598 336.391C188.071 329.592 199.231 322.159 209.768 314.299C212.025 312.615 212.489 309.421 210.805 307.164C209.122 304.908 205.928 304.443 203.671 306.126C194.218 313.178 184.249 319.877 173.998 326.065C142.048 306.777 113.652 283.038 89.5596 255.467C69.7474 232.795 52.7777 207.491 39.1221 180.254C22.115 146.334 13.5747 115.43 10.786 100.745C41.9339 85.9599 54.5326 61.08 57.9548 52.9265L174 21.279L290.043 52.9272C293.464 61.0787 306.053 85.9436 337.18 100.731C335.081 111.392 327.599 143.593 307.699 182.581C306.419 185.088 307.414 188.159 309.922 189.439C312.43 190.719 315.499 189.723 316.78 187.216C341.876 138.046 347.708 100.062 347.944 98.4689C348.283 96.179 347.038 93.9483 344.91 93.0362Z" fill="#1C4685"/>
<path d="M267.755 80.7326C273.848 90.6724 284.043 104.119 299.725 116.042C295.641 129.661 288.534 149.451 276.852 171.622C275.54 174.114 276.496 177.197 278.986 178.508C281.476 179.821 284.559 178.865 285.872 176.375C298.969 151.517 306.504 129.526 310.519 115.455C311.11 113.385 310.337 111.166 308.587 109.912C291.679 97.7975 281.24 83.5676 275.461 73.7638C274.787 72.6199 273.692 71.7838 272.411 71.4345L175.425 44.9845C174.969 44.8512 174.491 44.7805 174.003 44.7805C174.003 44.7805 174.001 44.7805 174.001 44.7805C173.515 44.786 173.035 44.8506 172.578 44.9838L75.5901 71.4352C74.3089 71.7845 73.2146 72.6205 72.5397 73.7645C66.759 83.5703 56.3176 97.8023 39.4076 109.917C37.6575 111.171 36.884 113.389 37.4746 115.459C43.0861 135.127 54.1324 165.5 74.8914 198.514C99.7129 237.99 132.101 271.322 171.155 297.586C172.015 298.165 173.008 298.453 174 298.453C174.992 298.453 175.985 298.165 176.845 297.586C180.577 295.076 184.299 292.465 187.906 289.828C190.179 288.166 190.674 284.976 189.012 282.704C187.35 280.431 184.161 279.937 181.889 281.598C180.968 282.271 180.032 282.939 179.098 283.607V56.5541L267.755 80.7326ZM83.5228 193.087C64.5608 162.929 53.97 135.081 48.2687 116.046C63.9532 104.123 74.1506 90.6744 80.2453 80.7326L168.902 56.5541V283.608C134.574 259.051 105.878 228.64 83.5228 193.087Z" fill="#1C4685"/>
</g>
<defs>
<clipPath id="clip0_465_21039">
<rect width="348" height="348" fill="white"/>
</clipPath>
</defs>
</svg>
