<svg width="22" height="22" viewBox="0 0 22 22" fill="none" xmlns="http://www.w3.org/2000/svg">
<g clip-path="url(#clip0_244_12210)">
<path d="M18.1045 2.94891L11.4532 1.1349C11.1565 1.05399 10.8436 1.05399 10.5469 1.1349L3.89554 2.94891C3.61388 3.02574 3.37918 3.21558 3.24766 3.47618C2.94868 4.06851 2.22608 5.19382 0.781981 5.9584C0.508485 6.10321 0.35947 6.4088 0.426157 6.711C0.871958 8.73074 2.96552 16.0382 10.6382 20.7703C10.8584 20.9061 11.1418 20.9061 11.3619 20.7703C19.0346 16.0382 21.1282 8.73079 21.574 6.711C21.6407 6.4088 21.4917 6.10321 21.2182 5.9584C19.774 5.19382 19.0515 4.06851 18.7525 3.47618C18.6209 3.21558 18.3862 3.0257 18.1045 2.94891V2.94891Z" fill="#ECEAEC"/>
<path d="M16.8756 4.7558L11.272 3.22758C11.0939 3.17902 10.9062 3.17902 10.7282 3.22758L5.12451 4.75585C4.96324 4.79985 4.82123 4.89936 4.73134 5.0403C4.3698 5.60727 3.82483 6.29778 3.03889 6.93389C2.82353 7.10817 2.7394 7.39804 2.8231 7.66217C3.6331 10.2182 5.69187 14.8022 10.6046 18.2725C10.84 18.4388 11.1601 18.4388 11.3955 18.2726C16.3091 14.8022 18.3671 10.2183 19.177 7.66217C19.2608 7.39808 19.1766 7.10822 18.9613 6.93393C18.1753 6.29782 17.6303 5.60727 17.2688 5.0403C17.1789 4.89932 17.0369 4.7998 16.8756 4.7558V4.7558Z" fill="#A4CCFF"/>
<path d="M16.5111 18.2335C18.0329 18.2335 19.2666 16.9998 19.2666 15.478C19.2666 13.9561 18.0329 12.7224 16.5111 12.7224C14.9893 12.7224 13.7556 13.9561 13.7556 15.478C13.7556 16.9998 14.9893 18.2335 16.5111 18.2335Z" fill="#FF8086"/>
<path d="M17.1139 17.6306C15.5921 17.6306 14.3584 16.3969 14.3584 14.8751C14.3584 14.268 14.557 13.7088 14.8895 13.2534C14.2032 13.7546 13.7556 14.563 13.7556 15.4778C13.7556 16.9996 14.9893 18.2334 16.5111 18.2334C17.4259 18.2334 18.2343 17.7857 18.7355 17.0994C18.2802 17.432 17.7209 17.6306 17.1139 17.6306Z" fill="#E83D62"/>
<path d="M10.7282 3.2276L5.12443 4.75587C4.96316 4.79987 4.82115 4.89938 4.73126 5.04032C4.36977 5.6073 3.82479 6.2978 3.03881 6.93391C2.82345 7.10824 2.73936 7.3981 2.82302 7.66219C3.63302 10.2182 5.69179 14.8022 10.6045 18.2725C10.7223 18.3557 10.8611 18.3973 11 18.3973V3.19116C10.9086 3.19116 10.8171 3.20332 10.7282 3.2276V3.2276Z" fill="#41B9D5"/>
<path d="M11.799 20.3075C3.22447 15.1864 1.45231 6.74781 1.27846 5.80246L1.25547 5.67725C1.10637 5.77466 0.95009 5.8694 0.781953 5.95843C0.5085 6.10324 0.359441 6.40883 0.426172 6.71103C0.87193 8.73082 2.9655 16.0382 10.6382 20.7703C10.8584 20.9061 11.1418 20.9061 11.3619 20.7703C11.5612 20.6474 11.7545 20.5217 11.9463 20.3955L11.799 20.3075Z" fill="#DAD8DB"/>
<path d="M16.5111 14.7668C16.6891 14.7668 16.8334 14.6225 16.8334 14.4445V14.1001C16.8334 13.9221 16.6891 13.7778 16.5111 13.7778C16.3331 13.7778 16.1888 13.9221 16.1888 14.1001V14.4445C16.1888 14.6225 16.3331 14.7668 16.5111 14.7668Z" fill="#1C4685"/>
<path d="M16.1888 16.8557C16.1888 17.0336 16.3331 17.1779 16.5111 17.1779C16.6891 17.1779 16.8334 17.0336 16.8334 16.8557V16.5112C16.8334 16.3333 16.6891 16.189 16.5111 16.189C16.3331 16.189 16.1888 16.3333 16.1888 16.5112V16.8557Z" fill="#1C4685"/>
<path d="M20.6444 15.1555H19.572C19.5377 14.828 19.4513 14.5159 19.3222 14.2269L20.2518 13.6902C20.4059 13.6012 20.4587 13.4041 20.3697 13.25C20.2807 13.0958 20.0836 13.043 19.9295 13.1321L18.9992 13.6692C18.8095 13.4089 18.58 13.1795 18.3197 12.9897L18.8569 12.0594C18.9458 11.9053 18.893 11.7082 18.7389 11.6192C18.5848 11.5302 18.3877 11.583 18.2987 11.7371L17.762 12.6667C17.473 12.5376 17.1609 12.4512 16.8334 12.4169V11.3445C16.8334 11.1665 16.6891 11.0222 16.5111 11.0222C16.3332 11.0222 16.1889 11.1665 16.1889 11.3445V12.4169C15.8613 12.4512 15.5493 12.5376 15.2602 12.6667L14.7236 11.7371C14.6345 11.583 14.4375 11.5302 14.2833 11.6192C14.1292 11.7082 14.0764 11.9053 14.1654 12.0594L14.7025 12.9897C14.4422 13.1795 14.2128 13.4089 14.023 13.6692L13.0927 13.1321C12.9386 13.043 12.7415 13.0959 12.6525 13.25C12.5635 13.4041 12.6163 13.6012 12.7705 13.6902L13.7 14.2269C13.5709 14.5159 13.4845 14.828 13.4503 15.1555H12.3778C12.1998 15.1555 12.0555 15.2998 12.0555 15.4778C12.0555 15.6558 12.1998 15.8 12.3778 15.8H13.4504C13.4842 16.1213 13.5681 16.4351 13.699 16.7293L12.7705 17.2654C12.6163 17.3544 12.5635 17.5514 12.6525 17.7056C12.7122 17.809 12.8205 17.8668 12.9319 17.8668C12.9865 17.8668 13.042 17.8528 13.0927 17.8235L14.2859 17.1346C14.44 17.0457 14.4929 16.8486 14.4039 16.6944C14.4027 16.6924 14.4013 16.6907 14.4001 16.6887C14.1893 16.322 14.0779 15.9035 14.0779 15.4778C14.0779 14.1361 15.1694 13.0445 16.5111 13.0445C17.8528 13.0445 18.9444 14.1361 18.9444 15.4778C18.9444 16.8195 17.8528 17.9111 16.5111 17.9111C16.0855 17.9111 15.667 17.7996 15.3005 17.5889C15.2984 17.5877 15.2965 17.5863 15.2945 17.585C15.1404 17.496 14.9433 17.5489 14.8543 17.703L14.1654 18.8962C14.0764 19.0503 14.1292 19.2474 14.2833 19.3364C14.3341 19.3657 14.3895 19.3796 14.4442 19.3796C14.5555 19.3796 14.6639 19.3218 14.7236 19.2185L15.2596 18.29C15.5538 18.4208 15.8676 18.5047 16.1889 18.5384V19.6111C16.1889 19.789 16.3332 19.9333 16.5111 19.9333C16.6891 19.9333 16.8334 19.789 16.8334 19.6111V18.5386C17.161 18.5044 17.473 18.418 17.762 18.2888L18.2987 19.2184C18.3584 19.3218 18.4667 19.3796 18.5781 19.3796C18.6327 19.3796 18.6882 19.3657 18.7389 19.3364C18.893 19.2474 18.9458 19.0503 18.8569 18.8962L18.3197 17.9658C18.58 17.7761 18.8095 17.5467 18.9992 17.2864L19.9295 17.8235C19.9803 17.8528 20.0357 17.8667 20.0904 17.8667C20.2017 17.8667 20.3101 17.8089 20.3697 17.7055C20.4587 17.5514 20.4059 17.3543 20.2518 17.2653L19.3222 16.7286C19.4513 16.4396 19.5377 16.1275 19.572 15.8H20.6444C20.8224 15.8 20.9667 15.6557 20.9667 15.4777C20.9667 15.2998 20.8224 15.1555 20.6444 15.1555V15.1555Z" fill="#1C4685"/>
<path d="M17.8889 15.8C18.0668 15.8 18.2111 15.6558 18.2111 15.4778C18.2111 15.2998 18.0668 15.1555 17.8889 15.1555H17.5444C17.3665 15.1555 17.2222 15.2998 17.2222 15.4778C17.2222 15.6558 17.3665 15.8 17.5444 15.8H17.8889Z" fill="#1C4685"/>
<path d="M15.1333 15.8H15.4777C15.6557 15.8 15.8 15.6558 15.8 15.4778C15.8 15.2998 15.6557 15.1555 15.4777 15.1555H15.1333C14.9553 15.1555 14.811 15.2998 14.811 15.4778C14.811 15.6558 14.9553 15.8 15.1333 15.8Z" fill="#1C4685"/>
<path d="M21.8047 5.88167C19.5654 4.92197 18.8898 2.99457 18.8835 2.97596C18.8494 2.87374 18.7665 2.79532 18.6626 2.76696L11.0848 0.700341C11.0293 0.685173 10.9707 0.685173 10.9152 0.700341L3.33748 2.767C3.2341 2.79519 3.15121 2.87374 3.11679 2.97523C3.11022 2.99457 2.43462 4.92201 0.19531 5.88172C0.0608177 5.93938 -0.0179439 6.0804 0.00349751 6.22517C0.017849 6.32219 0.372856 8.63584 1.8854 11.6609C2.77253 13.4352 3.87609 15.084 5.16532 16.5616C6.77708 18.4088 8.68484 19.9916 10.8356 21.2662C10.8863 21.2962 10.9431 21.3112 11 21.3112C11.0568 21.3112 11.1136 21.2962 11.1643 21.2662C11.8895 20.8364 12.5951 20.3665 13.2612 19.8695C13.4039 19.7631 13.4332 19.5612 13.3268 19.4185C13.2204 19.2759 13.0184 19.2465 12.8758 19.3529C12.2782 19.7987 11.6479 20.2222 10.9999 20.6134C8.98004 19.394 7.18489 17.8933 5.66183 16.1503C4.40933 14.717 3.33653 13.1173 2.47325 11.3955C1.39809 9.25111 0.858187 7.29736 0.681887 6.36903C2.65101 5.43433 3.44748 3.86146 3.66383 3.34601L11 1.3453L18.3361 3.34605C18.5523 3.86137 19.3482 5.4333 21.316 6.36812C21.1833 7.04213 20.7103 9.07781 19.4522 11.5425C19.3713 11.701 19.4342 11.8952 19.5928 11.9761C19.7513 12.057 19.9454 11.9941 20.0263 11.8355C21.6129 8.72715 21.9816 6.32584 21.9965 6.22512C22.0179 6.08036 21.9392 5.93934 21.8047 5.88167V5.88167Z" fill="#1C4685"/>
<path d="M16.927 5.10389C17.3122 5.73226 17.9567 6.58231 18.9481 7.33607C18.6899 8.19708 18.2406 9.44816 17.5022 10.8498C17.4192 11.0073 17.4796 11.2022 17.637 11.2851C17.7945 11.3681 17.9894 11.3077 18.0723 11.1502C18.9004 9.57878 19.3767 8.18853 19.6305 7.29899C19.6679 7.16811 19.619 7.02786 19.5084 6.94858C18.4395 6.1827 17.7796 5.28311 17.4142 4.66333C17.3716 4.59101 17.3024 4.53816 17.2214 4.51607L11.0901 2.84395C11.0612 2.83552 11.031 2.83105 11.0002 2.83105C11.0002 2.83105 11.0001 2.83105 11 2.83105C10.9694 2.8314 10.939 2.83548 10.9101 2.8439L4.77868 4.51612C4.69768 4.5382 4.6285 4.59105 4.58583 4.66337C4.22038 5.28328 3.5603 6.183 2.49128 6.94888C2.38063 7.02816 2.33174 7.16836 2.36908 7.29925C2.72383 8.54259 3.42215 10.4627 4.73451 12.5499C6.30368 15.0454 8.35119 17.1527 10.8201 18.813C10.8745 18.8496 10.9373 18.8679 11 18.8679C11.0627 18.8679 11.1255 18.8496 11.1799 18.813C11.4158 18.6543 11.6511 18.4893 11.8791 18.3225C12.0228 18.2175 12.0541 18.0158 11.949 17.8722C11.8439 17.7285 11.6423 17.6973 11.4987 17.8023C11.4405 17.8449 11.3813 17.887 11.3223 17.9293V3.57536L16.927 5.10389ZM5.28017 12.2067C4.08142 10.3002 3.41188 8.53971 3.05146 7.33637C4.04301 6.58261 4.68767 5.73239 5.07297 5.10389L10.6777 3.57536V17.9294C8.50755 16.3769 6.69345 14.4544 5.28017 12.2067V12.2067Z" fill="#1C4685"/>
</g>
<defs>
<clipPath id="clip0_244_12210">
<rect width="22" height="22" fill="white"/>
</clipPath>
</defs>
</svg>
