<svg width="31" height="31" viewBox="0 0 31 31" fill="none" xmlns="http://www.w3.org/2000/svg">
<g clip-path="url(#clip0_462_20514)">
<path d="M25.5109 4.1551L16.1386 1.599C15.7205 1.48499 15.2796 1.48499 14.8615 1.599L5.48915 4.1551C5.09227 4.26336 4.76156 4.53086 4.57622 4.89807C4.15494 5.73271 3.13672 7.31837 1.10186 8.39575C0.716482 8.59979 0.506506 9.0304 0.600475 9.45622C1.22865 12.3022 4.17867 22.5991 14.9902 29.267C15.3004 29.4584 15.6998 29.4584 16.01 29.267C26.8215 22.5991 29.7715 12.3023 30.3997 9.45622C30.4937 9.0304 30.2837 8.59979 29.8983 8.39575C27.8634 7.31837 26.8452 5.73271 26.424 4.89807C26.2385 4.53086 25.9078 4.2633 25.5109 4.1551Z" fill="#ECEAEC"/>
<path d="M23.7792 6.70121L15.8831 4.5478C15.6323 4.47939 15.3678 4.47939 15.1169 4.5478L7.22082 6.70127C6.99359 6.76327 6.79348 6.9035 6.66682 7.1021C6.15738 7.90101 5.38946 8.874 4.282 9.77034C3.97854 10.0159 3.85999 10.4244 3.97793 10.7965C5.1193 14.3982 8.02029 20.8575 14.9428 25.7475C15.2745 25.9818 15.7255 25.9818 16.0573 25.7476C22.9809 20.8576 25.8808 14.3984 27.0221 10.7965C27.1401 10.4244 27.0215 10.016 26.7181 9.7704C25.6106 8.87406 24.8427 7.90101 24.3332 7.1021C24.2066 6.90344 24.0065 6.76321 23.7792 6.70121Z" fill="#A4CCFF"/>
<path d="M23.2656 25.6924C25.41 25.6924 27.1484 23.954 27.1484 21.8096C27.1484 19.6652 25.41 17.9268 23.2656 17.9268C21.1212 17.9268 19.3828 19.6652 19.3828 21.8096C19.3828 23.954 21.1212 25.6924 23.2656 25.6924Z" fill="#FF8086"/>
<path d="M24.115 24.843C21.9706 24.843 20.2322 23.1046 20.2322 20.9602C20.2322 20.1049 20.5121 19.3168 20.9806 18.6752C20.0137 19.3814 19.3828 20.5205 19.3828 21.8096C19.3828 23.954 21.1212 25.6924 23.2656 25.6924C24.5547 25.6924 25.6938 25.0615 26.4 24.0945C25.7585 24.5631 24.9703 24.843 24.115 24.843Z" fill="#E83D62"/>
<path d="M15.117 4.5478L7.2208 6.70127C6.99357 6.76327 6.79346 6.9035 6.6668 7.10209C6.15741 7.90101 5.3895 8.874 4.28197 9.77033C3.97851 10.016 3.86002 10.4244 3.97791 10.7965C5.11928 14.3982 8.02026 20.8575 14.9428 25.7475C15.1087 25.8647 15.3043 25.9233 15.5 25.9233V4.49646C15.3712 4.49646 15.2424 4.51359 15.117 4.5478Z" fill="#41B9D5"/>
<path d="M16.6259 28.6149C4.54361 21.3987 2.04648 9.50798 1.8015 8.17588L1.76911 7.99945C1.55901 8.13671 1.3388 8.27022 1.10188 8.39567C0.716564 8.59971 0.506527 9.03032 0.600556 9.45615C1.22867 12.3022 4.1787 22.599 14.9902 29.267C15.3005 29.4583 15.6998 29.4583 16.01 29.267C16.2908 29.0938 16.5631 28.9167 16.8334 28.7388L16.6259 28.6149Z" fill="#DAD8DB"/>
<path d="M23.2657 20.8076C23.5165 20.8076 23.7198 20.6043 23.7198 20.3535V19.8682C23.7198 19.6174 23.5165 19.4141 23.2657 19.4141C23.0149 19.4141 22.8116 19.6174 22.8116 19.8682V20.3535C22.8116 20.6043 23.0149 20.8076 23.2657 20.8076Z" fill="#1C4685"/>
<path d="M22.8116 23.751C22.8116 24.0018 23.0149 24.2051 23.2657 24.2051C23.5165 24.2051 23.7198 24.0018 23.7198 23.751V23.2656C23.7198 23.0148 23.5165 22.8115 23.2657 22.8115C23.0149 22.8115 22.8116 23.0148 22.8116 23.2656V23.751Z" fill="#1C4685"/>
<path d="M29.0898 21.3555H27.5786C27.5304 20.8939 27.4086 20.4542 27.2267 20.047L28.5366 19.2908C28.7537 19.1654 28.8282 18.8876 28.7028 18.6705C28.5774 18.4532 28.2996 18.3788 28.0825 18.5043L26.7716 19.2611C26.5042 18.8943 26.1809 18.571 25.8141 18.3037L26.571 16.9928C26.6964 16.7756 26.6219 16.4979 26.4048 16.3725C26.1876 16.247 25.9099 16.3215 25.7845 16.5387L25.0282 17.8485C24.621 17.6666 24.1812 17.5448 23.7198 17.4966V15.9854C23.7198 15.7346 23.5164 15.5313 23.2657 15.5313C23.0149 15.5313 22.8116 15.7346 22.8116 15.9854V17.4966C22.35 17.5448 21.9103 17.6666 21.503 17.8485L20.7468 16.5387C20.6213 16.3215 20.3437 16.247 20.1265 16.3725C19.9093 16.4979 19.8349 16.7756 19.9603 16.9928L20.7171 18.3037C20.3503 18.571 20.0271 18.8943 19.7597 19.2611L18.4488 18.5043C18.2316 18.3788 17.9539 18.4533 17.8285 18.6705C17.7031 18.8876 17.7775 19.1654 17.9947 19.2908L19.3046 20.047C19.1226 20.4542 19.0009 20.894 18.9526 21.3555H17.4414C17.1906 21.3555 16.9873 21.5588 16.9873 21.8096C16.9873 22.0604 17.1906 22.2637 17.4414 22.2637H18.9528C19.0004 22.7163 19.1187 23.1586 19.303 23.5731L17.9947 24.3284C17.7775 24.4538 17.7031 24.7316 17.8285 24.9487C17.9126 25.0944 18.0652 25.1759 18.2222 25.1759C18.2992 25.1759 18.3773 25.1562 18.4488 25.1149L20.1301 24.1443C20.3473 24.0189 20.4217 23.7411 20.2963 23.524C20.2947 23.5211 20.2927 23.5186 20.291 23.5158C19.994 22.9992 19.8369 22.4095 19.8369 21.8096C19.8369 19.919 21.3751 18.3809 23.2657 18.3809C25.1562 18.3809 26.6944 19.919 26.6944 21.8096C26.6944 23.7002 25.1562 25.2383 23.2657 25.2383C22.6659 25.2383 22.0762 25.0813 21.5597 24.7844C21.5568 24.7826 21.5542 24.7806 21.5513 24.7789C21.3341 24.6535 21.0564 24.7279 20.931 24.9451L19.9603 26.6264C19.8349 26.8436 19.9093 27.1213 20.1265 27.2467C20.198 27.288 20.2761 27.3076 20.3531 27.3076C20.51 27.3076 20.6627 27.2262 20.7468 27.0805L21.5022 25.7722C21.9167 25.9565 22.3589 26.0748 22.8116 26.1223V27.6338C22.8116 27.8845 23.0149 28.0879 23.2657 28.0879C23.5164 28.0879 23.7198 27.8845 23.7198 27.6338V26.1226C24.1813 26.0743 24.621 25.9525 25.0282 25.7706L25.7845 27.0805C25.8686 27.2262 26.0212 27.3076 26.1781 27.3076C26.2552 27.3076 26.3333 27.288 26.4048 27.2467C26.6219 27.1213 26.6964 26.8436 26.571 26.6264L25.8141 25.3155C26.1809 25.0481 26.5042 24.7248 26.7716 24.358L28.0825 25.1149C28.154 25.1562 28.2321 25.1758 28.3091 25.1758C28.466 25.1758 28.6187 25.0943 28.7028 24.9487C28.8282 24.7315 28.7537 24.4538 28.5366 24.3284L27.2267 23.5721C27.4086 23.1649 27.5304 22.7252 27.5786 22.2636H29.0898C29.3406 22.2636 29.5439 22.0603 29.5439 21.8095C29.5439 21.5587 29.3406 21.3555 29.0898 21.3555Z" fill="#1C4685"/>
<path d="M25.207 22.2636C25.4578 22.2636 25.6611 22.0603 25.6611 21.8095C25.6611 21.5588 25.4578 21.3554 25.207 21.3554H24.7217C24.4709 21.3554 24.2676 21.5588 24.2676 21.8095C24.2676 22.0603 24.4709 22.2636 24.7217 22.2636H25.207Z" fill="#1C4685"/>
<path d="M21.3242 22.2636H21.8096C22.0603 22.2636 22.2637 22.0603 22.2637 21.8095C22.2637 21.5588 22.0603 21.3554 21.8096 21.3554H21.3242C21.0734 21.3554 20.8701 21.5588 20.8701 21.8095C20.8701 22.0603 21.0734 22.2636 21.3242 22.2636Z" fill="#1C4685"/>
<path d="M30.7248 8.2877C27.5694 6.93539 26.6174 4.21951 26.6086 4.19329C26.5606 4.04925 26.4437 3.93875 26.2972 3.89879L15.6195 0.986733C15.5413 0.96536 15.4588 0.96536 15.3805 0.986733L4.70281 3.89885C4.55714 3.93857 4.44034 4.04925 4.39184 4.19226C4.38258 4.21951 3.4306 6.93545 0.275209 8.28776C0.0856977 8.36902 -0.0252845 8.56773 0.00492831 8.77171C0.0251509 8.90843 0.525388 12.1686 2.65669 16.4312C3.90674 18.9313 5.46177 21.2546 7.27841 23.3367C9.54952 25.9396 12.2377 28.1699 15.2684 29.9659C15.3398 30.0082 15.4198 30.0293 15.4999 30.0293C15.58 30.0293 15.6601 30.0082 15.7315 29.9659C16.7534 29.3602 17.7476 28.6981 18.6863 27.9979C18.8873 27.8479 18.9286 27.5634 18.7787 27.3623C18.6287 27.1613 18.3442 27.1199 18.1432 27.2698C17.3011 27.898 16.413 28.4948 15.4999 29.046C12.6537 27.3278 10.1242 25.2131 7.97803 22.7571C6.21315 20.7375 4.70148 18.4834 3.48503 16.0571C1.97003 13.0355 1.20926 10.2825 0.960841 8.97442C3.73552 7.65735 4.85781 5.44104 5.16266 4.71472L15.5 1.89554L25.8372 4.71478C26.1419 5.44092 27.2634 7.6559 30.0362 8.97315C29.8492 9.92289 29.1827 12.7914 27.41 16.2644C27.296 16.4877 27.3846 16.7613 27.608 16.8753C27.8314 16.9893 28.1049 16.9006 28.2189 16.6772C30.4545 12.2972 30.9741 8.91357 30.9951 8.77165C31.0253 8.56767 30.9143 8.36896 30.7248 8.2877Z" fill="#1C4685"/>
<path d="M23.8517 7.1917C24.3945 8.07714 25.3027 9.27494 26.6997 10.3371C26.3358 11.5503 25.7027 13.3132 24.6621 15.2882C24.5452 15.5101 24.6304 15.7848 24.8522 15.9016C25.074 16.0185 25.3487 15.9334 25.4656 15.7116C26.6323 13.4972 27.3036 11.5382 27.6612 10.2848C27.7138 10.1004 27.6449 9.90275 27.4891 9.79104C25.9829 8.71185 25.053 7.44424 24.5382 6.57091C24.4781 6.46901 24.3806 6.39454 24.2665 6.36342L15.627 4.00724C15.5863 3.99537 15.5437 3.98907 15.5003 3.98907C15.5002 3.98907 15.5001 3.98907 15.5001 3.98907C15.4568 3.98956 15.414 3.99531 15.3733 4.00718L6.7336 6.36348C6.61947 6.3946 6.52199 6.46907 6.46187 6.57097C5.94692 7.44448 5.0168 8.71228 3.51045 9.79146C3.35454 9.90317 3.28564 10.1007 3.33825 10.2852C3.83813 12.0371 4.82214 14.7428 6.67136 17.6837C8.88247 21.2002 11.7676 24.1695 15.2466 26.5091C15.3232 26.5606 15.4116 26.5864 15.5 26.5864C15.5884 26.5864 15.6768 26.5606 15.7535 26.5091C16.0859 26.2855 16.4175 26.053 16.7388 25.818C16.9412 25.6699 16.9853 25.3858 16.8373 25.1834C16.6892 24.9809 16.4051 24.9369 16.2027 25.0849C16.1207 25.1449 16.0374 25.2043 15.9542 25.2639V5.03787L23.8517 7.1917ZM7.44025 17.2003C5.75111 14.5138 4.80767 12.0331 4.2998 10.3375C5.69698 9.27536 6.60536 8.07732 7.14829 7.1917L15.0459 5.03787V25.264C11.9879 23.0764 9.43169 20.3674 7.44025 17.2003Z" fill="#1C4685"/>
</g>
<defs>
<clipPath id="clip0_462_20514">
<rect width="31" height="31" fill="white"/>
</clipPath>
</defs>
</svg>
