<svg width="270" height="210" viewBox="0 0 270 210" fill="none" xmlns="http://www.w3.org/2000/svg">
<g opacity="0.11">
<path d="M168.747 212.837V212.843L240.597 186.284C251.887 181.895 264.219 190.209 264.219 202.454C264.219 209.38 260.16 215.358 254.292 218.139C253.136 218.682 168.25 260.267 133.562 260.267C87.3125 260.267 75.75 237.142 29.5 237.142V167.767C43.4213 167.767 61.875 145.509 91.4461 162.142L119.358 177.843C121.092 178.82 123.041 179.329 125.029 179.329H162.469C172.048 179.329 179.812 187.093 179.812 196.673C179.812 204.038 175.222 210.328 168.747 212.837Z" fill="#EFF5FA"/>
<path d="M208.777 5.78125C244.846 5.78125 294.27 61.7727 168.32 144.641C42.1554 61.6281 92.088 5.78125 127.868 5.78125C154.728 5.78125 168.32 29.0161 168.32 29.0161C168.32 29.0161 181.911 5.78125 208.777 5.78125Z" fill="#FEC914"/>
<path d="M29.5 248.706H-20.2188V167.768H29.5V248.706Z" fill="#FBF0DC"/>
<path d="M-20.2188 254.486H29.5C32.6924 254.486 35.2812 251.897 35.2812 248.704V243.054C53.9703 243.909 66.3497 248.859 79.3841 254.072C94.1037 259.96 109.324 266.048 133.562 266.048C144.21 266.048 160.012 262.468 180.532 255.406C183.552 254.368 185.157 251.078 184.118 248.059C183.078 245.04 179.788 243.434 176.77 244.474C157.463 251.117 142.926 254.486 133.562 254.486C111.551 254.486 98.0124 249.07 83.6784 243.336C70.1659 237.932 56.2261 232.361 35.2812 231.484V172.746C38.987 171.786 42.7206 170.087 46.5952 168.319C57.9912 163.118 70.9076 157.222 88.6115 167.18L116.52 182.881C119.109 184.339 122.052 185.111 125.029 185.111H162.469C168.844 185.111 174.031 190.297 174.031 196.673C174.031 201.408 171.068 205.738 166.639 207.454C165.315 207.972 163.912 208.236 162.469 208.236H103.697C100.504 208.236 97.9153 210.824 97.9153 214.017C97.9153 217.21 100.504 219.798 103.697 219.798H162.469C165.28 219.798 168.024 219.292 170.612 218.31C170.658 218.294 170.705 218.283 170.752 218.266C170.752 218.266 242.66 191.684 242.691 191.672C244.024 191.154 245.432 190.891 246.875 190.891C253.251 190.891 258.438 196.078 258.438 202.454C258.438 206.902 255.839 211.008 251.83 212.907C250.841 213.384 249.85 213.865 247.937 214.776L246.264 211.431C244.837 208.575 241.361 207.417 238.508 208.845C235.652 210.273 234.495 213.746 235.922 216.602L237.458 219.674C233.674 221.41 229.372 223.352 224.668 225.422C221.746 226.708 220.419 230.12 221.706 233.042C222.994 235.969 226.408 237.289 229.326 236.005C240.699 231 248.225 227.45 256.768 223.363C264.806 219.554 270 211.347 270 202.454C270 189.703 259.626 179.329 246.875 179.329C244.011 179.329 241.211 179.85 238.551 180.877L185.251 200.579C185.474 199.301 185.594 197.995 185.594 196.673C185.594 183.922 175.22 173.548 162.469 173.548H125.029C124.036 173.548 123.056 173.292 122.193 172.805L94.2806 157.103C71.4539 144.264 54.3114 152.088 41.795 157.8C36.874 160.046 32.6248 161.986 29.5 161.986H-20.2188C-23.4112 161.986 -26 164.574 -26 167.767V248.704C-26 251.897 -23.4112 254.486 -20.2188 254.486ZM-14.4375 173.548H23.7188V242.923H-14.4375V173.548Z" fill="#1C4685"/>
<path d="M165.141 149.471C166.106 150.105 167.212 150.422 168.319 150.422C169.426 150.422 170.533 150.105 171.497 149.471C256.3 93.6753 259.094 52.3908 253.211 32.7479C246.773 11.2486 225.984 0 208.776 0C188.45 0 175.016 11.6163 168.32 19.3591C161.624 11.6163 148.191 0 127.868 0C110.68 0 89.904 11.2677 83.4544 32.804C77.5749 52.4336 80.3701 93.6933 165.141 149.471ZM94.5302 36.1213C99.3072 20.1702 115.272 11.5631 127.868 11.5631C150.925 11.5631 162.813 31.0702 163.337 31.9495C164.376 33.7145 166.271 34.7979 168.319 34.7979C170.373 34.7979 172.272 33.7082 173.31 31.9356C173.429 31.7315 185.496 11.5631 208.776 11.5631C221.39 11.5631 237.369 20.1505 242.135 36.0652C246.075 49.2245 246.604 85.2393 168.319 137.702C90.0659 85.2578 90.5926 49.2701 94.5302 36.1213Z" fill="#1C4685"/>
<path d="M145.125 81.0492H162.469V98.3929C162.469 101.586 165.058 104.174 168.25 104.174C171.442 104.174 174.031 101.586 174.031 98.3929V81.0492H191.375C194.567 81.0492 197.156 78.4609 197.156 75.2679C197.156 72.075 194.567 69.4867 191.375 69.4867H174.031V52.1429C174.031 48.95 171.442 46.3617 168.25 46.3617C165.058 46.3617 162.469 48.95 162.469 52.1429V69.4867H145.125C141.933 69.4867 139.344 72.075 139.344 75.2679C139.344 78.4609 141.933 81.0492 145.125 81.0492Z" fill="#1C4685"/>
</g>
</svg>
