<svg width="22" height="21" viewBox="0 0 22 21" fill="none" xmlns="http://www.w3.org/2000/svg">
<path d="M14.4745 16.6166V16.617L19.8146 14.643C20.6538 14.3168 21.5703 14.9348 21.5703 15.8449C21.5703 16.3596 21.2687 16.8039 20.8325 17.0106C20.7466 17.051 14.4375 20.1418 11.8594 20.1418C8.42188 20.1418 7.5625 18.423 4.125 18.423V13.2668C5.15969 13.2668 6.53125 11.6125 8.7291 12.8487L10.8036 14.0157C10.9325 14.0883 11.0773 14.1261 11.2252 14.1261H14.0078C14.7198 14.1261 15.2969 14.7032 15.2969 15.4152C15.2969 15.9626 14.9557 16.4301 14.4745 16.6166Z" fill="#EFF5FA"/>
<path d="M17.4496 1.22729C20.1304 1.22729 23.8038 5.38882 14.4427 11.548C5.0656 5.37808 8.77682 1.22729 11.4362 1.22729C13.4325 1.22729 14.4427 2.95421 14.4427 2.95421C14.4427 2.95421 15.4529 1.22729 17.4496 1.22729Z" fill="#FEC914"/>
<path d="M4.125 19.2825H0.429688V13.2668H4.125V19.2825Z" fill="#EEFAFF"/>
<path d="M0.429688 19.7121H4.125C4.36227 19.7121 4.55469 19.5197 4.55469 19.2824V18.8624C5.94374 18.926 6.86383 19.2939 7.8326 19.6813C8.92663 20.119 10.0579 20.5714 11.8594 20.5714C12.6507 20.5714 13.8252 20.3053 15.3504 19.7805C15.5748 19.7033 15.6941 19.4588 15.6169 19.2344C15.5396 19.01 15.295 18.8907 15.0707 18.9679C13.6358 19.4617 12.5553 19.7121 11.8594 19.7121C10.2234 19.7121 9.21714 19.3096 8.15177 18.8834C7.14747 18.4817 6.1114 18.0677 4.55469 18.0025V13.6368C4.83012 13.5655 5.10761 13.4392 5.39559 13.3078C6.24259 12.9212 7.20259 12.483 8.51843 13.2231L10.5927 14.3901C10.7852 14.4985 11.0039 14.5558 11.2252 14.5558H14.0078C14.4817 14.5558 14.8672 14.9413 14.8672 15.4152C14.8672 15.7671 14.647 16.0889 14.3178 16.2165C14.2194 16.255 14.1151 16.2746 14.0078 16.2746H9.63961C9.40234 16.2746 9.20992 16.4669 9.20992 16.7043C9.20992 16.9416 9.40234 17.1339 9.63961 17.1339H14.0078C14.2168 17.1339 14.4207 17.0963 14.6131 17.0233C14.6165 17.0222 14.62 17.0214 14.6234 17.0201C14.6234 17.0201 19.968 15.0444 19.9702 15.0435C20.0694 15.005 20.174 14.9855 20.2812 14.9855C20.7551 14.9855 21.1406 15.371 21.1406 15.8448C21.1406 16.1754 20.9475 16.4806 20.6495 16.6218C20.576 16.6573 20.5024 16.693 20.3602 16.7607L20.2359 16.5121C20.1297 16.2998 19.8715 16.2138 19.6594 16.3199C19.4471 16.426 19.3611 16.6841 19.4672 16.8964L19.5813 17.1247C19.3001 17.2538 18.9803 17.3981 18.6307 17.5519C18.4135 17.6476 18.3149 17.9011 18.4106 18.1183C18.5063 18.3359 18.76 18.4339 18.9769 18.3385C19.8222 17.9665 20.3816 17.7026 21.0165 17.3989C21.614 17.1158 22 16.5058 22 15.8449C22 14.8972 21.229 14.1261 20.2812 14.1261C20.0684 14.1261 19.8602 14.1648 19.6625 14.2412L15.7011 15.7055C15.7177 15.6105 15.7266 15.5135 15.7266 15.4152C15.7266 14.4675 14.9555 13.6964 14.0078 13.6964H11.2252C11.1513 13.6964 11.0785 13.6774 11.0143 13.6412L8.93978 12.4742C7.2432 11.5199 5.96909 12.1014 5.03882 12.526C4.67307 12.6929 4.35725 12.8371 4.125 12.8371H0.429688C0.192414 12.8371 0 13.0294 0 13.2668V19.2824C0 19.5197 0.192414 19.7121 0.429688 19.7121ZM0.859375 13.6964H3.69531V18.8527H0.859375V13.6964Z" fill="#1C4685"/>
<path d="M14.2064 11.9069C14.2782 11.9541 14.3604 11.9776 14.4426 11.9776C14.5249 11.9776 14.6072 11.9541 14.6788 11.9069C20.9818 7.75996 21.1894 4.69152 20.7522 3.23157C20.2737 1.63365 18.7286 0.797607 17.4496 0.797607C15.9389 0.797607 14.9404 1.66098 14.4427 2.23646C13.945 1.66098 12.9466 0.797607 11.4362 0.797607C10.1586 0.797607 8.61449 1.63507 8.13513 3.23574C7.69813 4.6947 7.90589 7.7613 14.2064 11.9069ZM8.95832 3.4823C9.31337 2.29674 10.5 1.65703 11.4361 1.65703C13.1498 1.65703 14.0334 3.10688 14.0723 3.17223C14.1495 3.30342 14.2904 3.38394 14.4426 3.38394C14.5953 3.38394 14.7365 3.30294 14.8135 3.1712C14.8224 3.15603 15.7193 1.65703 17.4496 1.65703C18.3871 1.65703 19.5747 2.29528 19.9289 3.47813C20.2218 4.45618 20.2611 7.13296 14.4426 11.0322C8.62652 7.13434 8.66566 4.45958 8.95832 3.4823Z" fill="#1C4685"/>
<path d="M12.7188 6.82153H14.0078V8.1106C14.0078 8.34791 14.2002 8.54028 14.4375 8.54028C14.6748 8.54028 14.8672 8.34791 14.8672 8.1106V6.82153H16.1562C16.3935 6.82153 16.5859 6.62916 16.5859 6.39185C16.5859 6.15453 16.3935 5.96216 16.1562 5.96216H14.8672V4.6731C14.8672 4.43578 14.6748 4.24341 14.4375 4.24341C14.2002 4.24341 14.0078 4.43578 14.0078 4.6731V5.96216H12.7188C12.4815 5.96216 12.2891 6.15453 12.2891 6.39185C12.2891 6.62916 12.4815 6.82153 12.7188 6.82153Z" fill="#1C4685"/>
<path d="M17.0156 19.1105C17.2529 19.1105 17.4453 18.9181 17.4453 18.6808C17.4453 18.4435 17.2529 18.2511 17.0156 18.2511C16.7783 18.2511 16.5859 18.4435 16.5859 18.6808C16.5859 18.9181 16.7783 19.1105 17.0156 19.1105Z" fill="#1C4685"/>
</svg>
