<svg width="156" height="163" viewBox="0 0 156 163" fill="none" xmlns="http://www.w3.org/2000/svg">
<path d="M-9.0285 73.0152L-5.9595 71.2472L-39.8715 51.673L-42.171 53.0091C-45.5145 54.9391 -50.9325 54.9391 -54.2715 53.0091C-54.294 52.9956 -54.312 52.9866 -54.33 52.9731L-65.337 46.5849L-87 34.0962V29.2691L-65.5215 41.6542L-65.508 41.6452L-61.3545 44.0565L-58.5285 45.6851L-58.5375 45.6896L-50.154 50.5573H-50.1495C-50.1315 50.5708 -50.109 50.5798 -50.091 50.5933C-49.0605 51.1871 -47.382 51.1871 -46.3515 50.5933L-31.029 41.6992C-31.0065 41.6857 -30.9885 41.6767 -30.9705 41.6632C-27.6405 39.7422 -22.2585 39.7377 -18.9105 41.6407L-18.906 41.6362L-3.552 50.5483C-3.534 50.5618 -3.51149 50.5708 -3.4935 50.5843C-2.463 51.1781 -0.789001 51.1781 0.241501 50.5888L14.3535 42.4415C14.3715 42.428 14.394 42.419 14.412 42.4055C17.7555 40.4755 23.1735 40.4755 26.5125 42.4055C27.543 42.9993 29.2215 42.9993 30.252 42.4055C30.2745 42.392 30.2925 42.383 30.3105 42.3695C33.645 40.4845 38.973 40.489 42.294 42.383L42.303 42.3785L46.1505 44.5964C48.378 44.0071 50.9565 44.0071 53.184 44.5964L56.9235 42.437C56.946 42.4235 56.964 42.4145 56.982 42.401C56.991 42.3965 57 42.392 57.009 42.3875L57.0315 42.374C60.366 40.4755 65.7255 40.48 69.0555 42.383L73.866 45.1587C73.884 45.1677 73.902 45.1812 73.92 45.1902C74.9505 45.7841 76.629 45.7841 77.6595 45.1902L93.009 36.3501L92.982 36.3366L156 0V4.83169L133.824 17.6127L81.849 47.6106L81.813 47.5926L81.849 47.6151C78.5505 49.5181 73.2315 49.5406 69.879 47.6826L60.6855 52.9866L61.2165 53.2925L120.977 87.7847L67.7415 118.502L70.3515 120.005L70.356 120L143.558 162.194H135.17L78.5595 129.551L46.704 111.201L46.659 111.228L41.8485 108.452L37.038 111.228L32.268 113.981L32.241 113.999L28.281 116.284H28.2765C24.9645 118.196 19.6095 118.205 16.275 116.32L12.297 114.031C11.2665 113.437 9.58801 113.437 8.55751 114.031C8.535 114.044 8.517 114.053 8.49901 114.067L-5.883 122.416L-6.12599 122.556L-6.855 122.979H-6.8595L-74.8725 162.194H-83.2605L-41.451 138.099L-77.442 117.292L-87 122.794V117.958L-9.0285 73.0152ZM4.4355 53.0001C1.09651 54.9301 -4.3215 54.9301 -7.66501 53.0001C-7.6875 52.9866 -7.70549 52.9776 -7.7235 52.9641L-23.037 44.0745L-23.0415 44.079C-24.072 43.4852 -25.7505 43.4852 -26.781 44.079C-26.8035 44.0925 -26.8215 44.1015 -26.8395 44.115H-26.844L-38.9715 51.1556L-5.04601 70.7388C-1.7025 68.9258 3.54901 68.9618 6.81601 70.8468H6.8205L10.7805 73.1322L10.8075 73.1502L15.1905 75.6785L32.5785 65.6417L7.5585 51.2006L4.4355 53.0001ZM41.9835 47.0167L38.1765 44.8213L38.172 44.8258C37.164 44.2455 35.535 44.232 34.5 44.7898C34.4955 44.7943 34.464 44.8168 34.446 44.8258C31.1025 46.7558 25.6935 46.7513 22.3545 44.8213L22.35 44.8258C21.3195 44.232 19.641 44.232 18.6105 44.8258C18.588 44.8393 18.57 44.8483 18.552 44.8618H18.5475L8.472 50.6787L33.492 65.1198L38.1855 62.4116L38.181 62.4071C39.189 61.8267 39.2115 60.8865 38.244 60.2881C38.235 60.2836 38.199 60.2656 38.181 60.2566C34.8555 58.3357 34.851 55.2315 38.145 53.3015L38.1855 53.279C38.1855 53.279 38.1855 53.279 38.19 53.279L41.9925 51.0836C40.9665 49.788 40.9665 48.3034 41.9835 47.0167ZM51.7035 47.876C50.583 47.2282 48.7695 47.2282 47.649 47.876C46.5285 48.5238 46.5285 49.572 47.649 50.2154C48.7695 50.8632 50.583 50.8632 51.7035 50.2154C52.824 49.5676 52.824 48.5193 51.7035 47.876ZM68.979 47.1652L64.92 44.8213H64.9155C63.885 44.2275 62.2065 44.2275 61.176 44.8213C61.1535 44.8348 61.1355 44.8438 61.1175 44.8573H61.113L57.3735 47.0167H57.369C58.386 48.3034 58.386 49.7925 57.369 51.0791H57.3735L59.79 52.4738L68.979 47.1652ZM66.846 117.989L115.896 89.6787L57 55.6859L53.193 53.4905C50.9655 54.0798 48.387 54.0798 46.1595 53.4905L42.312 55.7084C41.3265 56.3067 41.3355 57.2515 42.3525 57.8408C42.375 57.8543 42.393 57.8633 42.4155 57.8768C45.678 59.7978 45.669 62.8704 42.3975 64.7869L42.4065 64.7914L10.281 83.3354C9.3405 83.9202 9.3495 84.829 10.299 85.4138L66.846 117.989ZM20.478 113.932C21.4725 114.449 22.9845 114.449 23.9835 113.941L28.056 111.588L28.083 111.57L32.862 108.812L37.695 106.023L37.659 106.045L32.8485 103.269L32.88 103.251L32.8305 103.22L17.3685 112.146L20.478 113.932ZM4.30951 111.655C4.3275 111.642 4.3455 111.628 4.36801 111.619C7.707 109.694 13.116 109.689 16.4595 111.615C16.464 111.615 16.464 111.619 16.4685 111.619L16.4775 111.624L31.9395 102.698L6.1725 87.8522H6.16801C2.84702 85.9357 2.82451 82.8405 6.105 80.9105L11.0145 78.0763L6.6315 75.548L6.60451 75.53L2.532 73.1771C1.533 72.6643 0.0210114 72.6688 -0.973495 73.1816L-4.839 75.413L-54.5235 104.061L-18.528 124.873L-10.2255 120.086L4.30951 111.655ZM-40.5645 137.577L-19.428 125.394L-55.4235 104.583L-76.5555 116.766L-40.5645 137.577Z" fill="#0E2D5C"/>
</svg>
