<svg width="271" height="334" viewBox="0 0 271 334" fill="none" xmlns="http://www.w3.org/2000/svg">
<path d="M110.886 149.953L104.583 146.322L174.222 106.122L178.944 108.866C185.81 112.83 196.935 112.83 203.792 108.866C203.838 108.839 203.875 108.82 203.912 108.792L226.515 95.6726L271 70.0244V60.1107L226.894 85.5464L226.866 85.5279L218.337 90.4801L212.534 93.8247L212.552 93.834L195.337 103.831H195.328C195.291 103.859 195.244 103.877 195.207 103.905C193.091 105.124 189.645 105.124 187.528 103.905L156.064 85.6388C156.017 85.611 155.98 85.5926 155.944 85.5648C149.105 81.6197 138.053 81.6104 131.178 85.5186L131.169 85.5094L99.6397 103.812C99.6027 103.84 99.5565 103.859 99.5196 103.886C97.4034 105.106 93.9659 105.106 91.8498 103.896L62.8708 87.1632C62.8338 87.1355 62.7876 87.117 62.7507 87.0893C55.8848 83.1257 44.7589 83.1257 37.9023 87.0893C35.7862 88.3089 32.3394 88.3089 30.2233 87.0893C30.1771 87.0616 30.1401 87.0431 30.1031 87.0154C23.2557 83.1441 12.3147 83.1534 5.49503 87.0431L5.47655 87.0339L-2.42429 91.5888C-6.99844 90.3785 -12.2934 90.3785 -16.8676 91.5888L-24.5466 87.154C-24.5928 87.1263 -24.6298 87.1078 -24.6667 87.0801C-24.6852 87.0708 -24.7037 87.0616 -24.7222 87.0524L-24.7684 87.0246C-31.6158 83.1257 -42.6215 83.1349 -49.4596 87.0431L-59.338 92.7437C-59.375 92.7622 -59.4119 92.7899 -59.4489 92.8084C-61.565 94.028 -65.0118 94.028 -67.1279 92.8084L-98.6481 74.6533L-98.5927 74.6255L-228 0V9.92297L-182.462 36.1717L-75.7311 97.7791L-75.6572 97.7422L-75.7311 97.7884C-68.9576 101.697 -58.035 101.743 -51.1507 97.927L-32.2719 108.82L-33.3623 109.448L-156.079 180.286L-46.7614 243.371L-52.121 246.457L-52.1302 246.448L-202.449 333.103H-185.225L-68.9761 266.063L-3.56088 228.376L-3.46849 228.432L6.40987 222.731L16.2882 228.432L26.0834 234.086L26.1388 234.123L34.2707 238.817H34.2799C41.0811 242.743 52.0776 242.762 58.925 238.89L67.0938 234.188C69.2099 232.968 72.6567 232.968 74.7729 234.188C74.8191 234.215 74.856 234.234 74.893 234.262L104.426 251.41L104.925 251.696L106.422 252.565H106.432L246.096 333.103H263.321L177.465 283.618L251.373 240.886L271 252.186V242.254L110.886 149.953ZM83.2374 108.848C90.094 112.811 101.22 112.811 108.086 108.848C108.132 108.82 108.169 108.802 108.206 108.774L139.652 90.5171L139.661 90.5263C141.777 89.3067 145.224 89.3067 147.34 90.5263C147.387 90.554 147.424 90.5725 147.461 90.6002H147.47L172.374 105.06L102.708 145.278C95.8418 141.555 85.0578 141.629 78.349 145.5H78.3398L70.2079 150.193L70.1525 150.23L61.152 155.423L25.4458 134.81L76.8243 105.152L83.2374 108.848ZM6.13264 96.5596L13.9503 92.0508L13.9595 92.06C16.0295 90.8682 19.3746 90.8405 21.5 91.9861C21.5092 91.9954 21.5739 92.0416 21.6109 92.06C28.4767 96.0237 39.5841 96.0144 46.4407 92.0508L46.45 92.06C48.5661 90.8405 52.0129 90.8405 54.1291 92.06C54.1753 92.0878 54.2122 92.1062 54.2492 92.134H54.2584L74.9484 104.08L23.5699 133.738L13.9318 128.176L13.9411 128.167C11.8712 126.975 11.8249 125.044 13.8117 123.815C13.8302 123.806 13.9041 123.769 13.9411 123.751C20.77 119.806 20.7792 113.43 14.015 109.467L13.9318 109.421C13.9318 109.421 13.9318 109.421 13.9226 109.421L6.11417 104.912C8.22105 102.251 8.22104 99.202 6.13264 96.5596ZM-13.8273 98.3243C-11.5264 96.9938 -7.8024 96.9938 -5.50145 98.3243C-3.2005 99.6547 -3.2005 101.807 -5.50145 103.129C-7.8024 104.459 -11.5264 104.459 -13.8273 103.129C-16.1283 101.798 -16.1283 99.6455 -13.8273 98.3243ZM-49.3026 96.8645L-40.9674 92.0508H-40.9582C-38.842 90.8312 -35.3952 90.8312 -33.2791 92.0508C-33.2329 92.0785 -33.1959 92.097 -33.159 92.1247H-33.1497L-25.4707 96.5596H-25.4615C-27.5499 99.202 -27.5499 102.26 -25.4615 104.903H-25.4707L-30.433 107.767L-49.3026 96.8645ZM-44.9225 242.318L-145.647 184.176L-24.7037 114.364L-16.886 109.855C-12.3119 111.065 -7.01694 111.065 -2.44276 109.855L5.45807 114.41C7.4818 115.639 7.46332 117.579 5.37491 118.789C5.3287 118.817 5.29173 118.835 5.24553 118.863C-1.45399 122.808 -1.43553 129.119 5.28249 133.055L5.26401 133.064L71.2337 171.148C73.165 172.349 73.1465 174.216 71.1967 175.417L-44.9225 242.318ZM50.2942 233.984C48.252 235.047 45.147 235.047 43.0956 234.003L34.7327 229.171L34.6773 229.134L24.8636 223.47L14.9391 217.742L15.013 217.788L24.8914 212.087L24.8267 212.05L24.9283 211.986L56.6795 230.316L50.2942 233.984ZM83.4961 229.309C83.4592 229.282 83.4222 229.254 83.376 229.235C76.5193 225.281 65.412 225.272 58.5461 229.226C58.5369 229.226 58.5369 229.235 58.5276 229.235L58.5092 229.245L26.758 210.914L79.6705 180.424H79.6797C86.4994 176.488 86.5456 170.132 79.8091 166.168L69.7274 160.347L78.7279 155.155L78.7833 155.118L87.1462 150.286C89.1977 149.233 92.3026 149.242 94.3447 150.295L102.283 154.878L204.31 213.713L130.393 256.454L113.344 246.624L83.4961 229.309ZM175.645 282.546L132.241 257.526L206.158 214.785L249.552 239.805L175.645 282.546Z" fill="#0E2D5C"/>
</svg>
