<svg width="32" height="32" viewBox="0 0 32 32" fill="none" xmlns="http://www.w3.org/2000/svg">
<g clip-path="url(#clip0_1008_11262)">
<g clip-path="url(#clip1_1008_11262)">
<path fill-rule="evenodd" clip-rule="evenodd" d="M4.35671 17.3569C-3.17649 30.4751 24.4905 29.8874 20.0818 18.219C19.7224 18.1181 19.4444 17.2666 19.0635 17.2153C15.6751 16.7531 12.4336 17.0896 7.97365 16.8806C7.28274 16.8664 5.65139 16.8293 4.35671 17.3569Z" fill="#E6E6E6"/>
<path fill-rule="evenodd" clip-rule="evenodd" d="M0.472412 23.6062V31.0081C0.472412 31.8101 1.12769 32.4651 1.93018 32.4651H30.0701C30.8706 32.4651 31.5278 31.8101 31.5278 31.0081V23.6062H4.98193C4.63843 23.6062 4.35669 23.3247 4.35669 22.9812V11.2334C4.35669 10.1658 3.4834 9.29297 2.41528 9.29297C1.34546 9.29297 0.472412 10.1658 0.472412 11.2334V23.6062Z" fill="#41B9D5"/>
<path fill-rule="evenodd" clip-rule="evenodd" d="M7.14648 16.877C7.22974 20.0531 9.48438 22.7191 12.563 23.6061H18.3496L19.9207 21.0001L18.8315 18.2191C18.75 19.0033 18.4878 19.5343 17.9067 20.1185C17.8926 20.1327 17.8767 20.1488 17.8608 20.1627C17.363 20.6495 16.7341 21.0301 16.0647 21.2923C14.8247 21.7738 13.4434 21.8429 12.4814 21.4056L10.2283 20.3807C8.6731 19.6742 8.00195 18.3165 7.97363 16.8807C7.76807 16.877 7.4812 16.87 7.14648 16.877Z" fill="#C2C7CC"/>
<path fill-rule="evenodd" clip-rule="evenodd" d="M15.999 25.2759C15.79 27.5879 18.206 30.0134 20.5883 30.1887H27.7973C30.6721 30.1887 31.5275 29.5903 31.5275 26.8621V23.6064H16.4082C16.2346 24.1111 16.061 24.5962 15.999 25.2759Z" fill="#41B9D5"/>
<path fill-rule="evenodd" clip-rule="evenodd" d="M14.885 11.5875L14.5396 12.3434L16.2507 13.1225C16.4348 13.2055 16.6155 13.3136 16.7908 13.4411C17.085 12.8161 16.752 11.8283 16.116 11.5397L15.6165 11.3131C15.3401 11.1874 15.0107 11.3095 14.885 11.5875Z" fill="#EDA93B"/>
<path fill-rule="evenodd" clip-rule="evenodd" d="M13.9976 12.0972C13.6274 17.9163 10.8997 16.3213 10.2283 20.3806L12.4814 21.4058C13.4434 21.843 14.8247 21.7739 16.0647 21.2925C16.7556 21.0234 17.4021 20.6267 17.9067 20.1187C18.4878 19.5344 18.75 19.0034 18.8315 18.219C18.8384 18.1643 18.842 18.1074 18.8474 18.0474C18.8616 17.8401 18.8616 17.6294 18.8474 17.417C18.8137 16.916 18.7021 16.4097 18.532 15.9282C18.1689 14.905 17.533 13.9878 16.791 13.4409C16.6155 13.3135 16.4351 13.2053 16.2507 13.1223L14.5398 12.3433L13.9976 12.0972Z" fill="#FFDDA6"/>
<path fill-rule="evenodd" clip-rule="evenodd" d="M13.9971 12.0954C10.702 10.5974 8.00909 13.7776 7.97174 16.7226C7.97003 16.7756 7.97003 16.8288 7.97174 16.8801C8.00006 18.3164 8.67145 19.6745 10.2271 20.3811C10.8985 16.3205 13.627 17.916 13.9971 12.0954Z" fill="#808080"/>
<path fill-rule="evenodd" clip-rule="evenodd" d="M13.9971 12.0956C11.6833 11.0436 9.66724 12.2975 8.65723 14.1586C9.76465 12.9332 11.4175 12.3117 13.2566 13.1493L13.7986 13.3954L13.8555 13.422C13.9192 13.027 13.967 12.5878 13.9971 12.0956Z" fill="#666666"/>
<path fill-rule="evenodd" clip-rule="evenodd" d="M13.9976 12.0972C13.9675 12.5769 13.9214 13.0071 13.8613 13.3931L15.5085 14.1421C15.6946 14.2271 15.8752 14.335 16.0488 14.4624C16.7927 15.0078 17.4268 15.9248 17.7898 16.9497C17.9617 17.4314 18.0715 17.9358 18.1052 18.4387C18.1194 18.6494 18.1194 18.8618 18.1052 19.0688C18.1016 19.1272 18.0962 19.1858 18.0911 19.2407C18.0537 19.5894 17.9812 19.8887 17.8608 20.1631C17.8767 20.1489 17.8926 20.1328 17.9067 20.1187C18.4878 19.5347 18.75 19.0034 18.8315 18.2192C18.8384 18.1643 18.842 18.1077 18.8474 18.0474C18.8616 17.8403 18.8616 17.6296 18.8474 17.4172C18.8137 16.9163 18.7021 16.4099 18.532 15.9282C18.1689 14.905 17.533 13.988 16.791 13.4409C16.6155 13.3135 16.4351 13.2056 16.2507 13.1223L14.5398 12.3433L13.9976 12.0972Z" fill="#FCC368"/>
<path fill-rule="evenodd" clip-rule="evenodd" d="M18.3495 23.6064C18.1723 25.5061 19.3378 27.2056 21.2118 27.6428H28.3625C30.8014 27.6428 31.5275 27.1506 31.5275 24.9094V15.0789C31.5275 14.4946 31.0492 14.0166 30.4648 14.0166H22.9601C19.0988 14.0166 19.0634 15.3921 18.8471 17.4175C18.8612 17.6299 18.8612 17.8406 18.8471 18.0476C18.842 18.1079 18.8383 18.1646 18.8312 18.2195C19.506 21.6963 18.5053 21.9441 18.3495 23.6064Z" fill="#F0E7D2"/>
<path fill-rule="evenodd" clip-rule="evenodd" d="M22.9798 22.9158L22.7601 23.6062L22.4625 24.5444C22.3421 24.927 22.0799 25.1233 21.9117 25.019C20.9231 24.3994 20.1014 25.7217 21.2474 26.3696C21.5291 26.5273 21.2881 26.9468 21.251 27.1045C21.2315 27.1929 21.219 27.2778 21.212 27.3628C21.2032 27.4585 21.2032 27.5522 21.212 27.6426C21.3377 29.0818 23.4083 29.6572 24.3807 27.6426C24.4568 27.4851 24.5259 27.3115 24.5879 27.1221L25.7217 23.6062C25.9944 22.7617 25.9307 22.1387 25.6702 21.3047L25.0699 19.3804H22.7867L22.7796 20.9683L23.0472 21.9385C23.118 22.4023 23.1197 22.4731 22.9798 22.9158Z" fill="#FFDDA6"/>
<path fill-rule="evenodd" clip-rule="evenodd" d="M24.5295 21.3049C24.7881 22.1387 24.8535 22.7617 24.5808 23.6062L23.7625 26.145L23.4456 27.1223C23.3853 27.3115 23.3162 27.4851 23.24 27.6426C22.9299 28.2834 22.5103 28.6624 22.0764 28.8342C22.7954 29.1333 23.7891 28.8643 24.3806 27.6426C24.4568 27.4851 24.5259 27.3115 24.5879 27.1223L24.8838 26.2051L25.7217 23.6062C25.7217 23.6045 25.7217 23.6028 25.7234 23.6008C25.7234 23.6008 25.7234 23.5991 25.7234 23.5974C25.7463 23.5283 25.7659 23.4612 25.7834 23.3955C25.9819 22.6555 25.9075 22.0696 25.6702 21.3083C25.6702 21.3066 25.6702 21.3066 25.6702 21.3047L25.0698 19.3804L25.0486 19.407C25.0486 19.4087 25.0486 19.4087 25.0466 19.4087C25.0449 19.4124 25.0432 19.4141 25.0415 19.4175C24.9209 19.5698 24.7722 19.7043 24.6145 19.8284C24.4692 19.9399 24.3169 20.0444 24.1665 20.147L24.5295 21.3049Z" fill="#FCC368"/>
<path fill-rule="evenodd" clip-rule="evenodd" d="M18.8474 17.4171L20.6787 19.9665C21.1445 20.6161 21.9753 21.1383 22.7795 20.9684C22.8928 20.9455 23.0063 20.9081 23.1179 20.8551C23.394 20.7223 23.7183 20.4601 23.9751 20.2797C24.3452 20.0177 24.7705 19.7663 25.0486 19.4069L25.0698 19.3803C25.6206 18.6493 25.6667 17.6117 25.1106 16.8258L23.6917 14.8146C23.4614 14.4977 23.2153 14.2338 22.9602 14.0163C20.9001 12.2741 18.2239 13.6461 18.5322 15.9281C18.7021 16.4098 18.8137 16.9159 18.8474 17.4171Z" fill="#64B0D9"/>
<path fill-rule="evenodd" clip-rule="evenodd" d="M22.5972 15.7125L24.0159 17.7235C24.2656 18.0775 24.3931 18.4813 24.4092 18.8866C24.416 19.0514 24.4021 19.2177 24.3718 19.3808C24.3098 19.7028 24.1753 20.0109 23.9751 20.2799C23.9768 20.2782 23.9788 20.2765 23.9822 20.2746C24.1877 20.1295 24.4092 19.9879 24.6145 19.8285C24.7756 19.7028 24.9246 19.5665 25.0466 19.4091C25.0483 19.4091 25.0483 19.4091 25.0483 19.4071L25.0696 19.3808C25.1848 19.2284 25.2769 19.0602 25.3477 18.8866C25.6135 18.2245 25.5498 17.4474 25.1104 16.8261L23.6917 14.8148C23.4614 14.4979 23.2151 14.2343 22.9602 14.0165C21.46 12.7472 19.6301 13.1312 18.8684 14.3173C19.7434 13.9599 20.8752 14.0785 21.8655 14.9157C22.1206 15.1317 22.3667 15.3954 22.5972 15.7125Z" fill="#4A83C9"/>
<path d="M30.4648 13.5442H27.8364C27.5754 13.5442 27.364 13.7556 27.364 14.0164C27.364 14.2773 27.5754 14.4888 27.8364 14.4888H30.4648C30.7905 14.4888 31.0554 14.7534 31.0554 15.0786V24.9092C31.0554 25.9126 30.9067 26.4639 30.5583 26.7529C30.2051 27.0454 29.5486 27.1704 28.3625 27.1704H25.0686L26.1729 23.7461C26.4912 22.7605 26.3892 22.0276 26.1211 21.1643L25.5884 19.4573C25.761 19.1755 25.8806 18.8604 25.9385 18.5237C26.0586 17.8271 25.9016 17.1277 25.4963 16.5537L24.074 14.5376C24.0618 14.5208 24.0493 14.5051 24.0371 14.4888H26.0244C26.2854 14.4888 26.4968 14.2773 26.4968 14.0164C26.4968 13.7556 26.2854 13.5442 26.0244 13.5442H23.1299C21.9624 12.6321 20.678 12.6235 19.8022 12.9741C19.1008 13.2549 18.5781 13.7576 18.2898 14.3843C18.0125 13.9604 17.6907 13.5825 17.3372 13.2754C17.4058 12.9304 17.3723 12.5452 17.2354 12.1729C17.0547 11.6816 16.7178 11.2939 16.311 11.1096L15.812 10.8831C15.5627 10.7698 15.2842 10.7605 15.0271 10.8572C14.7705 10.9536 14.5671 11.1438 14.4553 11.3911L14.3057 11.7188L14.1931 11.6675C14.1929 11.6672 14.1924 11.667 14.1919 11.667C12.7917 11.0308 11.3345 11.116 10.0884 11.907C8.64893 12.8213 7.6416 14.5979 7.51489 16.4021C6.82788 16.3997 5.80176 16.4368 4.82886 16.7017V11.2334C4.82886 9.90308 3.74609 8.8208 2.41528 8.8208C1.0835 8.8208 0 9.90283 0 11.2334V31.0081C0 32.0718 0.865723 32.9373 1.93018 32.9373H30.0701C31.1343 32.9373 32 32.0718 32 31.0081V15.0786C32 14.2324 31.3113 13.5442 30.4648 13.5442ZM25.2737 23.4561L24.1384 26.9771C23.7397 28.2122 22.9651 28.6008 22.3738 28.4382C22.0383 28.3457 21.7275 28.0579 21.6831 27.6121C21.6826 27.6033 21.6814 27.5945 21.6804 27.5857C21.6719 27.4719 21.6799 27.3489 21.71 27.2161C21.7139 27.2026 21.7258 27.1707 21.7346 27.1472C21.7788 27.0283 21.8391 26.8655 21.8521 26.6848C21.8745 26.3684 21.738 26.1033 21.4797 25.9587C21.2771 25.8442 21.1611 25.6997 21.1621 25.562C21.1626 25.4771 21.2083 25.3992 21.281 25.3591C21.3787 25.3057 21.5134 25.3271 21.6624 25.4204C21.8379 25.5295 22.0549 25.5488 22.2576 25.4739C22.5505 25.3652 22.7896 25.0784 22.9124 24.6875L23.4297 23.0583C23.5947 22.5369 23.5933 22.3892 23.5137 21.8674C23.5107 21.8491 23.5071 21.8311 23.502 21.8132L23.3513 21.2664C23.4463 21.219 23.54 21.1631 23.6321 21.0979L24.8442 20.2444L25.219 21.4448C25.4802 22.2866 25.4937 22.7751 25.2737 23.4561ZM18.8198 23.6504C18.8647 23.1719 18.9854 22.8325 19.1252 22.4395C19.3889 21.6987 19.6824 20.8713 19.4475 19.062L20.2952 20.2417C20.7932 20.9363 21.5981 21.457 22.4287 21.4734L22.5842 22.0374C22.6421 22.4167 22.6396 22.4248 22.5295 22.7729L22.012 24.4026C21.9978 24.4473 21.9819 24.4839 21.9668 24.5132C21.5789 24.3364 21.1729 24.3408 20.8267 24.5312C20.4536 24.7358 20.2205 25.1287 20.2178 25.5562C20.2148 26.0039 20.4573 26.4153 20.8894 26.7036C20.8762 26.7454 20.8596 26.79 20.8491 26.8181C20.8267 26.8787 20.8054 26.9358 20.7905 26.999C20.7896 27.0034 20.7888 27.0078 20.7878 27.0122C19.4712 26.4692 18.6794 25.1575 18.8198 23.6504ZM20.1531 13.8511C20.9597 13.5283 22.27 13.6597 23.3057 15.0869L24.7246 17.0981C24.9844 17.4661 25.0847 17.9155 25.0076 18.3633C24.9307 18.811 24.6855 19.2007 24.3179 19.4597L23.0879 20.3259C22.3291 20.8623 21.4429 20.2212 21.0623 19.6909L19.3064 17.2466C19.2617 16.7717 19.1553 16.2942 18.9971 15.8337C18.8914 14.9519 19.342 14.1758 20.1531 13.8511ZM18.0796 16.0625C18.0845 16.0789 18.0901 16.095 18.0967 16.1106C18.3125 16.7332 18.4197 17.3938 18.3762 18.0142C18.3728 18.0603 18.3689 18.1052 18.3645 18.1494C18.363 18.1604 18.3616 18.1714 18.3608 18.1826C18.2881 18.8496 18.0708 19.2842 17.5718 19.7856C16.3262 21.0383 14.0388 21.5945 12.677 20.9758L10.7615 20.1045C11.0576 18.728 11.623 18.166 12.2703 17.5237C13.1343 16.6665 14.1052 15.7019 14.4116 12.8047L16.0554 13.5525C16.2083 13.6218 16.3572 13.7104 16.5015 13.8142C16.5093 13.8201 16.5173 13.8257 16.5254 13.8313C17.1917 14.3196 17.7532 15.1472 18.0796 16.0625ZM15.3154 11.782C15.3262 11.7581 15.3452 11.7466 15.3596 11.7412C15.3738 11.7358 15.3965 11.7317 15.4214 11.7432L15.9207 11.9697C16.0959 12.0493 16.2561 12.2471 16.3486 12.499C16.3696 12.5557 16.3853 12.6133 16.3979 12.6704L15.1655 12.1096L15.3154 11.782ZM8.4458 16.7292C8.46606 15.1252 9.32983 13.5078 10.595 12.7043C11.0178 12.4358 11.604 12.1868 12.3228 12.1868C12.6836 12.1868 13.0776 12.2495 13.5015 12.4041C13.2678 15.2036 12.4592 16.0056 11.6052 16.853C10.9458 17.5071 10.2668 18.1807 9.89502 19.6597C8.62598 18.8186 8.43579 17.4963 8.4458 16.7292ZM30.0698 31.9927H1.93018C1.38672 31.9927 0.94458 31.551 0.94458 31.0081V11.2334C0.94458 10.4238 1.60449 9.76538 2.41528 9.76538C3.22534 9.76538 3.88428 10.4238 3.88428 11.2334V17.3494V17.3538V22.9814C3.88428 23.5864 4.37671 24.0786 4.98193 24.0786H7.87256C8.13354 24.0786 8.34497 23.8672 8.34497 23.6062C8.34497 23.3455 8.13354 23.134 7.87256 23.134H4.98193C4.89893 23.134 4.82886 23.064 4.82886 22.9812V17.6873C5.75903 17.3831 6.83252 17.344 7.53101 17.3469C7.70044 18.9121 8.58838 20.155 10.0322 20.8103C10.0325 20.8105 10.0327 20.8105 10.0327 20.8105L12.2859 21.8357C12.7834 22.0615 13.3667 22.1682 13.9814 22.1682C15.4802 22.1682 17.165 21.5344 18.2415 20.4517C18.3691 20.3235 18.4832 20.1965 18.5854 20.0688C18.6152 21.0537 18.4231 21.5947 18.2351 22.123C18.1255 22.4312 18.0132 22.7473 17.9397 23.134H9.65967C9.39893 23.134 9.1875 23.3455 9.1875 23.6062C9.1875 23.8672 9.39893 24.0786 9.65967 24.0786H17.8616C17.8801 24.9355 18.1426 25.761 18.623 26.4456C19.1465 27.1914 19.9092 27.7407 20.7939 28.0171C20.9741 28.7036 21.5156 29.1816 22.123 29.3489C22.292 29.3953 22.4685 29.4197 22.6479 29.4197C23.3655 29.4197 24.1316 29.03 24.665 28.115H28.3625C29.7156 28.115 30.5127 27.9534 31.0554 27.5618V31.0081C31.0554 31.551 30.6133 31.9927 30.0698 31.9927Z" fill="#1C4685"/>
<path d="M19.3999 8.21655H20.4675L19.1394 9.53735C19.0039 9.67212 18.9629 9.87549 19.0359 10.0522C19.1089 10.229 19.2812 10.3445 19.4727 10.3445H21.7222C21.9829 10.3445 22.1943 10.1331 22.1943 9.87207C22.1943 9.61133 21.9829 9.3999 21.7222 9.3999H20.6172L21.9453 8.0791C22.0811 7.94409 22.1218 7.74072 22.0488 7.56396C21.9758 7.38721 21.8035 7.27197 21.6123 7.27197H19.3999C19.1392 7.27197 18.9277 7.4834 18.9277 7.74414C18.9277 8.00513 19.1392 8.21655 19.3999 8.21655Z" fill="#1C4685"/>
<path d="M24.0388 6.00708H25.1057L23.7786 7.32593C23.6428 7.46069 23.6018 7.66431 23.6748 7.84106C23.7478 8.01782 23.9202 8.1333 24.1116 8.1333H26.3611C26.6218 8.1333 26.8333 7.92188 26.8333 7.66089C26.8333 7.40015 26.6218 7.18872 26.3611 7.18872H25.2568L26.584 5.86987C26.7197 5.73511 26.7607 5.53174 26.6877 5.35474C26.615 5.17798 26.4424 5.0625 26.2512 5.0625H24.0388C23.7778 5.0625 23.5664 5.27393 23.5664 5.53491C23.5664 5.79565 23.7778 6.00708 24.0388 6.00708Z" fill="#1C4685"/>
</g>
</g>
<defs>
<clipPath id="clip0_1008_11262">
<rect width="32" height="32" fill="white"/>
</clipPath>
<clipPath id="clip1_1008_11262">
<rect width="32" height="32" fill="white" transform="translate(0 3)"/>
</clipPath>
</defs>
</svg>
