<svg width="307" height="281" viewBox="0 0 307 281" fill="none" xmlns="http://www.w3.org/2000/svg">
<g opacity="0.1">
<path fill-rule="evenodd" clip-rule="evenodd" d="M187.567 157.74C218.642 156.229 222.321 180.669 222.649 187.764C222.781 182.968 223.832 170.157 231.453 159.054V44.0176C231.453 31.0095 220.81 20.4321 207.802 20.4321H170.814V29.9583C170.814 32.9804 168.383 35.4112 165.361 35.4112H72.596C69.5739 35.4112 67.1431 32.9804 67.1431 29.9583V20.4321H30.221C17.2128 20.4321 6.56982 31.0751 6.56982 44.0176V270.346C6.56982 283.354 17.2128 293.997 30.221 293.997H154.39C134.286 249.717 148.74 180.669 203.137 185.333C194.399 180.143 189.472 170.617 187.567 157.74Z" fill="#F9F9F9"/>
<path fill-rule="evenodd" clip-rule="evenodd" d="M114.577 229.416C119.176 209.904 107.022 190.326 87.5095 185.728C67.9316 181.129 48.4194 193.283 43.8205 212.795C39.2217 232.373 51.3758 251.885 70.888 256.484C90.4659 261.083 110.044 248.929 114.577 229.416Z" fill="#41B9D5"/>
<path fill-rule="evenodd" clip-rule="evenodd" d="M231.453 159.12C223.832 170.223 222.715 183.034 222.649 187.83C222.715 188.815 222.649 189.472 222.649 189.669V189.735C232.241 186.385 240.848 184.939 248.6 185.136C264.63 177.844 273.368 162.274 276.587 140.593C252.213 139.411 238.811 148.477 231.453 159.12Z" fill="#41B9D5"/>
<path fill-rule="evenodd" clip-rule="evenodd" d="M222.649 187.83C222.321 180.734 218.708 156.295 187.567 157.806C189.472 170.617 194.334 180.143 203.072 185.333C209.116 185.859 215.62 187.238 222.649 189.735V189.669C222.649 189.472 222.584 188.815 222.649 187.83Z" fill="#E2F1A1"/>
<path fill-rule="evenodd" clip-rule="evenodd" d="M222.65 189.735C215.62 187.304 209.116 185.859 203.072 185.333C148.674 180.734 134.221 249.717 154.324 293.997C163.653 314.56 180.472 329.802 204.254 329.802H240.979C313.772 329.802 321.459 186.778 248.6 185.136C240.848 184.939 232.241 186.318 222.65 189.735Z" fill="#F0E7D2"/>
<path fill-rule="evenodd" clip-rule="evenodd" d="M72.5957 35.3454H165.361C168.383 35.3454 170.814 32.9146 170.814 29.8925V12.0227C170.814 9.00064 168.383 6.56982 165.361 6.56982H72.5957C69.5736 6.56982 67.1428 9.00064 67.1428 12.0227V29.8925C67.1428 32.9146 69.6393 35.3454 72.5957 35.3454Z" fill="#F0E7D2"/>
<path d="M37.4476 211.284C32.0604 234.344 46.3825 257.469 69.4423 262.856C72.7272 263.645 76.0778 264.039 79.3627 264.039C87.2464 264.039 94.9987 261.871 101.831 257.601C111.555 251.556 118.387 242.096 121.015 230.927C126.402 207.868 112.08 184.742 89.0202 179.355C66.0261 173.902 42.9005 188.224 37.4476 211.284ZM50.2586 214.306C54.0034 198.341 70.0993 188.355 86.0639 192.1C102.028 195.845 111.949 211.875 108.204 227.905C106.364 235.658 101.634 242.227 94.933 246.432C88.1662 250.637 80.2168 251.951 72.4644 250.111C56.4342 246.301 46.5139 230.27 50.2586 214.306Z" fill="#1C4685"/>
<path d="M48.8791 91.057H197.947C201.56 91.057 204.517 88.1006 204.517 84.4873C204.517 80.8739 201.56 77.9175 197.947 77.9175H48.8791C45.2657 77.9175 42.3093 80.8739 42.3093 84.4873C42.3093 88.1006 45.2657 91.057 48.8791 91.057Z" fill="#1C4685"/>
<path d="M48.8791 125.286H169.171C172.785 125.286 175.741 122.329 175.741 118.716C175.741 115.102 172.785 112.146 169.171 112.146H48.8791C45.2657 112.146 42.3093 115.102 42.3093 118.716C42.3093 122.395 45.2657 125.286 48.8791 125.286Z" fill="#1C4685"/>
<path d="M70.3622 235.395C71.6105 236.511 73.1872 237.168 74.8297 237.168C74.8954 237.168 75.0268 237.168 75.0925 237.168C76.8663 237.103 78.5087 236.314 79.6913 235L97.0355 215.882C99.4663 213.189 99.2692 209.05 96.5756 206.619C93.882 204.188 89.743 204.385 87.3122 207.079L74.4355 221.27L70.7564 217.788C68.1285 215.291 63.9239 215.423 61.4931 218.05C58.9965 220.678 59.1279 224.883 61.7558 227.314L70.3622 235.395Z" fill="#1C4685"/>
<path d="M48.8791 159.579H150.448C154.061 159.579 157.017 156.623 157.017 153.01C157.017 149.396 154.061 146.44 150.448 146.44H48.8791C45.2657 146.44 42.3093 149.396 42.3093 153.01C42.3093 156.623 45.2657 159.579 48.8791 159.579Z" fill="#1C4685"/>
<path d="M305.691 242.49C303.983 223.372 297.216 206.685 286.705 195.319C280.66 188.749 273.434 184.085 265.353 181.326C274.55 172.128 280.529 158.791 283.091 141.513C283.354 139.673 282.828 137.834 281.646 136.388C280.463 134.943 278.755 134.089 276.916 133.958C261.148 133.169 248.14 136.323 238.023 143.287V44.0174C238.023 27.3959 224.489 13.8622 207.802 13.8622H177.384V12.0227C177.384 5.38721 171.996 0 165.361 0H72.5959C65.9604 0 60.5732 5.38721 60.5732 12.0227V13.8622H30.2209C13.5994 13.8622 0 27.3959 0 44.0174V140.724C0 144.338 2.95639 147.294 6.56976 147.294C10.1831 147.294 13.1395 144.338 13.1395 140.724V44.0174C13.1395 34.6227 20.7605 27.0017 30.2209 27.0017H60.6389V29.9581C60.6389 36.5936 66.0261 41.9808 72.6616 41.9808H165.427C172.062 41.9808 177.449 36.5936 177.449 29.9581V27.0017H207.867C217.262 27.0017 224.883 34.6227 224.883 44.0174V157.214C223.372 159.645 222.124 162.076 221.073 164.507C214.503 156.163 203.663 150.448 187.238 151.236C185.399 151.302 183.625 152.221 182.508 153.601C181.326 155.046 180.8 156.886 181.063 158.726C182.311 166.872 184.61 173.77 188.092 179.355C187.501 179.486 186.91 179.552 186.319 179.683C175.544 181.851 166.149 187.173 158.528 195.385C148.017 206.685 141.316 223.438 139.542 242.556C138.162 257.798 140.002 273.434 144.666 287.427H30.2209C20.8262 287.427 13.1395 279.806 13.1395 270.346V193.217C13.1395 189.603 10.1831 186.647 6.56976 186.647C2.95639 186.647 0 189.603 0 193.217V270.346C0 287.033 13.5337 300.567 30.2209 300.567H150.251C161.945 323.43 181.391 336.372 204.32 336.372H241.045C265.616 336.372 286.179 321.459 297.545 295.442C304.443 279.478 307.334 260.688 305.691 242.49ZM164.31 28.7756H73.7128V13.1395H164.244V28.7756H164.31ZM268.703 147.163C265.024 162.864 257.929 173.179 247.089 178.566C241.636 178.566 235.92 179.289 229.942 180.734C231.059 174.164 233.884 165.033 240.913 158.003C247.549 151.367 256.878 147.754 268.703 147.163ZM209.116 170.748C212.072 173.705 213.78 177.318 214.766 180.537C211.546 179.814 208.393 179.223 205.371 178.895C200.969 175.873 197.816 171.208 195.845 164.573C201.363 165.427 205.831 167.463 209.116 170.748ZM285.456 290.187C280.069 302.538 267.127 323.232 241.045 323.232H204.32C179.092 323.232 166.149 303.852 160.434 291.435C160.434 291.435 160.434 291.369 160.368 291.369C160.171 290.975 160.039 290.581 159.842 290.187C147.031 260.885 150.71 223.109 168.186 204.32C175.938 195.976 186.056 191.706 198.078 191.706C204.977 191.706 212.466 193.085 220.481 195.91C221.861 196.37 223.438 196.37 224.817 195.91C246.76 188.224 264.827 191.114 277.113 204.32C294.588 223.109 298.202 260.885 285.456 290.187Z" fill="#1C4685"/>
<path d="M6.56977 173.573C10.1831 173.573 13.1395 170.617 13.1395 167.003V166.872C13.1395 163.259 10.1831 160.302 6.56977 160.302C2.95639 160.302 0 163.259 0 166.872V167.003C0 170.617 2.95639 173.573 6.56977 173.573Z" fill="#1C4685"/>
</g>
</svg>
