<svg width="25" height="25" viewBox="0 0 25 25" fill="none" xmlns="http://www.w3.org/2000/svg">
<path fill-rule="evenodd" clip-rule="evenodd" d="M15.0635 11.7236C17.373 11.6113 17.6465 13.4277 17.6709 13.9551C17.6807 13.5986 17.7588 12.6465 18.3252 11.8213V3.27148C18.3252 2.30469 17.5342 1.51855 16.5674 1.51855H13.8184V2.22656C13.8184 2.45117 13.6377 2.63184 13.4131 2.63184H6.51855C6.29395 2.63184 6.11328 2.45117 6.11328 2.22656V1.51855H3.36914C2.40234 1.51855 1.61133 2.30957 1.61133 3.27148V20.0928C1.61133 21.0596 2.40234 21.8506 3.36914 21.8506H12.5977C11.1035 18.5596 12.1777 13.4277 16.2207 13.7744C15.5713 13.3887 15.2051 12.6807 15.0635 11.7236Z" fill="#F9F9F9"/>
<path fill-rule="evenodd" clip-rule="evenodd" d="M9.63869 17.0508C9.98049 15.6006 9.07717 14.1455 7.62698 13.8037C6.1719 13.4619 4.7217 14.3653 4.37991 15.8155C4.03811 17.2705 4.94143 18.7207 6.39162 19.0625C7.8467 19.4043 9.30178 18.501 9.63869 17.0508Z" fill="#41B9D5"/>
<path fill-rule="evenodd" clip-rule="evenodd" d="M18.3252 11.8262C17.7588 12.6514 17.6758 13.6036 17.6709 13.96C17.6758 14.0332 17.6709 14.0821 17.6709 14.0967V14.1016C18.3838 13.8526 19.0234 13.7452 19.5996 13.7598C20.791 13.2178 21.4404 12.0606 21.6797 10.4493C19.8682 10.3614 18.8721 11.0352 18.3252 11.8262Z" fill="#41B9D5"/>
<path fill-rule="evenodd" clip-rule="evenodd" d="M17.6709 13.9599C17.6465 13.4326 17.3779 11.6162 15.0635 11.7285C15.2051 12.6806 15.5664 13.3887 16.2158 13.7744C16.665 13.8135 17.1484 13.916 17.6709 14.1015V14.0967C17.6709 14.082 17.666 14.0332 17.6709 13.9599Z" fill="#E2F1A1"/>
<path fill-rule="evenodd" clip-rule="evenodd" d="M17.6709 14.1016C17.1484 13.9209 16.665 13.8135 16.2158 13.7744C12.1728 13.4326 11.0986 18.5596 12.5928 21.8506C13.2861 23.3789 14.5361 24.5117 16.3037 24.5117H19.0332C24.4433 24.5117 25.0146 13.8819 19.5996 13.7598C19.0234 13.7451 18.3838 13.8477 17.6709 14.1016Z" fill="#F0E7D2"/>
<path fill-rule="evenodd" clip-rule="evenodd" d="M6.51855 2.62695H13.4131C13.6377 2.62695 13.8184 2.44629 13.8184 2.22168V0.893555C13.8184 0.668945 13.6377 0.488281 13.4131 0.488281H6.51855C6.29395 0.488281 6.11328 0.668945 6.11328 0.893555V2.22168C6.11328 2.44629 6.29883 2.62695 6.51855 2.62695Z" fill="#F0E7D2"/>
<path d="M3.90625 15.7032C3.50586 17.417 4.57031 19.1358 6.28418 19.5362C6.52832 19.5948 6.77734 19.6241 7.02149 19.6241C7.60742 19.6241 8.18359 19.4629 8.69141 19.1455C9.41406 18.6963 9.92187 17.9932 10.1172 17.1631C10.5176 15.4493 9.45312 13.7305 7.73926 13.3301C6.03027 12.9248 4.31152 13.9893 3.90625 15.7032ZM4.8584 15.9278C5.13672 14.7413 6.33301 13.9991 7.51953 14.2774C8.70606 14.5557 9.44336 15.7471 9.16504 16.9385C9.02832 17.5147 8.67676 18.003 8.17871 18.3155C7.67578 18.628 7.08496 18.7256 6.50879 18.5889C5.31738 18.3057 4.58008 17.1143 4.8584 15.9278Z" fill="#1C4685"/>
<path d="M4.75586 6.76758H15.835C16.1035 6.76758 16.3232 6.54785 16.3232 6.2793C16.3232 6.01074 16.1035 5.79102 15.835 5.79102H4.75586C4.4873 5.79102 4.26758 6.01074 4.26758 6.2793C4.26758 6.54785 4.4873 6.76758 4.75586 6.76758Z" fill="#1C4685"/>
<path d="M4.75586 9.31152H13.6963C13.9648 9.31152 14.1846 9.0918 14.1846 8.82324C14.1846 8.55469 13.9648 8.33496 13.6963 8.33496H4.75586C4.4873 8.33496 4.26758 8.55469 4.26758 8.82324C4.26758 9.09668 4.4873 9.31152 4.75586 9.31152Z" fill="#1C4685"/>
<path d="M6.35257 17.4951C6.44534 17.5781 6.56253 17.6269 6.6846 17.6269C6.68948 17.6269 6.69925 17.6269 6.70413 17.6269C6.83597 17.622 6.95804 17.5635 7.04593 17.4658L8.33499 16.0449C8.51565 15.8447 8.501 15.5371 8.30081 15.3564C8.10061 15.1758 7.793 15.1904 7.61233 15.3906L6.6553 16.4453L6.38186 16.1865C6.18655 16.001 5.87405 16.0107 5.69339 16.206C5.50784 16.4013 5.51761 16.7138 5.71292 16.8945L6.35257 17.4951Z" fill="#1C4685"/>
<path d="M4.75586 11.8604H12.3047C12.5732 11.8604 12.793 11.6406 12.793 11.3721C12.793 11.1035 12.5732 10.8838 12.3047 10.8838H4.75586C4.4873 10.8838 4.26758 11.1035 4.26758 11.3721C4.26758 11.6406 4.4873 11.8604 4.75586 11.8604Z" fill="#1C4685"/>
<path d="M23.8428 18.0225C23.7158 16.6016 23.2129 15.3613 22.4316 14.5166C21.9824 14.0283 21.4453 13.6816 20.8447 13.4766C21.5283 12.793 21.9727 11.8018 22.1631 10.5176C22.1826 10.3809 22.1436 10.2441 22.0557 10.1367C21.9678 10.0293 21.8408 9.96582 21.7041 9.95605C20.5322 9.89746 19.5654 10.1318 18.8135 10.6494V3.27148C18.8135 2.03613 17.8076 1.03027 16.5674 1.03027H14.3066V0.893555C14.3066 0.400391 13.9062 0 13.4131 0H6.51855C6.02539 0 5.625 0.400391 5.625 0.893555V1.03027H3.36914C2.13379 1.03027 1.12305 2.03613 1.12305 3.27148V10.459C1.12305 10.7275 1.34277 10.9473 1.61133 10.9473C1.87988 10.9473 2.09961 10.7275 2.09961 10.459V3.27148C2.09961 2.57324 2.66602 2.00684 3.36914 2.00684H5.62988V2.22656C5.62988 2.71973 6.03027 3.12012 6.52344 3.12012H13.418C13.9111 3.12012 14.3115 2.71973 14.3115 2.22656V2.00684H16.5723C17.2705 2.00684 17.8369 2.57324 17.8369 3.27148V11.6846C17.7246 11.8652 17.6318 12.0459 17.5537 12.2266C17.0654 11.6064 16.2598 11.1816 15.0391 11.2402C14.9023 11.2451 14.7705 11.3135 14.6875 11.416C14.5996 11.5234 14.5605 11.6602 14.5801 11.7969C14.6729 12.4023 14.8437 12.915 15.1025 13.3301C15.0586 13.3398 15.0146 13.3447 14.9707 13.3545C14.1699 13.5156 13.4717 13.9111 12.9053 14.5215C12.124 15.3613 11.626 16.6064 11.4941 18.0273C11.3916 19.1602 11.5283 20.3223 11.875 21.3623H3.36914C2.6709 21.3623 2.09961 20.7959 2.09961 20.0928V14.3604C2.09961 14.0918 1.87988 13.8721 1.61133 13.8721C1.34277 13.8721 1.12305 14.0918 1.12305 14.3604V20.0928C1.12305 21.333 2.12891 22.3389 3.36914 22.3389H12.29C13.1592 24.0381 14.6045 25 16.3086 25H19.0381C20.8643 25 22.3926 23.8916 23.2373 21.958C23.75 20.7715 23.9648 19.375 23.8428 18.0225ZM13.335 2.13867H6.60156V0.976562H13.3301V2.13867H13.335ZM21.0937 10.9375C20.8203 12.1045 20.293 12.8711 19.4873 13.2715C19.082 13.2715 18.6572 13.3252 18.2129 13.4326C18.2959 12.9443 18.5059 12.2656 19.0283 11.7432C19.5215 11.25 20.2148 10.9814 21.0937 10.9375ZM16.665 12.6904C16.8848 12.9102 17.0117 13.1787 17.085 13.418C16.8457 13.3643 16.6113 13.3203 16.3867 13.2959C16.0596 13.0713 15.8252 12.7246 15.6787 12.2314C16.0889 12.2949 16.4209 12.4463 16.665 12.6904ZM22.3389 21.5674C21.9385 22.4854 20.9766 24.0234 19.0381 24.0234H16.3086C14.4336 24.0234 13.4717 22.583 13.0469 21.6602C13.0469 21.6602 13.0469 21.6553 13.042 21.6553C13.0273 21.626 13.0176 21.5967 13.0029 21.5674C12.0508 19.3896 12.3242 16.582 13.623 15.1855C14.1992 14.5654 14.9512 14.248 15.8447 14.248C16.3574 14.248 16.9141 14.3506 17.5098 14.5605C17.6123 14.5947 17.7295 14.5947 17.832 14.5605C19.4629 13.9893 20.8057 14.2041 21.7187 15.1855C23.0176 16.582 23.2861 19.3896 22.3389 21.5674Z" fill="#1C4685"/>
<path d="M1.61133 12.9004C1.87988 12.9004 2.09961 12.6807 2.09961 12.4121V12.4023C2.09961 12.1338 1.87988 11.9141 1.61133 11.9141C1.34277 11.9141 1.12305 12.1338 1.12305 12.4023V12.4121C1.12305 12.6807 1.34277 12.9004 1.61133 12.9004Z" fill="#1C4685"/>
</svg>
