<svg width="32" height="26" viewBox="0 0 32 26" fill="none" xmlns="http://www.w3.org/2000/svg">
<path d="M13.575 16.0875C13.0937 15.5875 12.475 15.2188 11.7625 15.05L9.19375 14.4313V12.8625H6.05V14.4375L3.4875 15.05C1.8125 15.45 0.625 16.95 0.625 18.675V22.875H6.3125L13.575 16.0875Z" fill="#EFF5FA"/>
<path d="M9.25625 12.8625V14.475L7.625 18.375L6 14.4813V12.8625H9.25625Z" fill="#FFB487"/>
<path d="M11.125 7.4563V9.6313C11.125 11.5625 9.55625 13.1313 7.625 13.1313C5.69375 13.1313 4.125 11.5625 4.125 9.6313V7.4563H11.125Z" fill="#FFCDAC"/>
<path d="M11.125 8.1438V7.30005C11.125 5.3688 9.55625 3.80005 7.625 3.80005C5.69375 3.80005 4.125 5.3688 4.125 7.30005V8.1438H6.5375C8.05 8.1438 9.53125 7.7313 10.825 6.9563" fill="#878791"/>
<path d="M18.425 16.0875C18.9062 15.5875 19.525 15.2188 20.2375 15.05L22.8062 14.4313V12.8625H25.9437V14.4375L28.5062 15.05C30.1812 15.45 31.3687 16.95 31.3687 18.675V22.875H25.6812L18.425 16.0875Z" fill="#FCD7D1"/>
<path d="M13.8125 16.0249L10.2312 16.8812C7.9 17.4437 6.25 19.5249 6.25 21.9249V25.3749H25.7437V21.9312C25.7437 19.5312 24.0938 17.4437 21.7625 16.8812L18.1875 16.0249H13.8125Z" fill="#FBF0DC"/>
<path d="M26 12.8625V14.4813L24.375 18.375L22.7438 14.475V12.8625H26Z" fill="#FFB487"/>
<path d="M16 21.0438L18.3313 15.7501C18.1563 15.4626 18.0625 15.1188 18.0625 14.7626V14.2563H13.9375V14.7626C13.9375 15.1188 13.8375 15.4563 13.6688 15.7501L16 21.0438Z" fill="#FFB487"/>
<path d="M20.875 5.96875V9.33125C20.875 12.025 18.6937 14.2062 16 14.2062C13.3063 14.2062 11.125 12.025 11.125 9.33125V5.96875H20.875Z" fill="#FFCDAC"/>
<path d="M16 1.2124C13.3063 1.2124 11.125 3.39365 11.125 6.0874V7.2624H13.5063C15.0938 7.2624 16.5937 6.5624 17.6125 5.34365L20.875 7.2624V6.0874C20.875 3.3999 18.6937 1.2124 16 1.2124Z" fill="#F5B955"/>
<path d="M20.875 7.4563V9.6313C20.875 11.5625 22.4438 13.1313 24.375 13.1313C26.3062 13.1313 27.875 11.5625 27.875 9.6313V7.4563H20.875Z" fill="#FFCDAC"/>
<path d="M20.875 8.1438V7.30005C20.875 5.3688 22.4438 3.80005 24.375 3.80005C26.3062 3.80005 27.875 5.3688 27.875 7.30005V8.1438H25.4625C23.95 8.1438 22.4687 7.7313 21.175 6.9563" fill="#878791"/>
<path d="M15.9813 24.75C15.8188 24.75 15.6563 24.8187 15.5375 24.9312C15.4188 25.05 15.3563 25.2062 15.3563 25.375C15.3563 25.5438 15.425 25.7 15.5375 25.8188C15.6563 25.9375 15.8125 26 15.9813 26C16.1438 26 16.3063 25.9313 16.425 25.8188C16.5438 25.7 16.6063 25.5438 16.6063 25.375C16.6063 25.2062 16.5375 25.05 16.425 24.9312C16.3125 24.8187 16.15 24.75 15.9813 24.75Z" fill="#1C4685"/>
<path d="M28.6625 14.4438L26.575 13.9438V13.1187C27.7313 12.3875 28.5 11.1 28.5 9.63125V7.3C28.5 5.025 26.65 3.175 24.375 3.175C23.15 3.175 22.0438 3.7125 21.2875 4.56875C20.625 2.275 18.5062 0.59375 16 0.59375C13.4938 0.59375 11.3687 2.28125 10.7125 4.58125C9.95625 3.71875 8.85 3.18125 7.61875 3.18125C5.34375 3.18125 3.49375 5.03125 3.49375 7.30625V9.6375C3.49375 11.1062 4.2625 12.3938 5.41875 13.125V13.95L3.33125 14.45C1.375 14.9125 0 16.65 0 18.675V22.875C0 23.2188 0.28125 23.5 0.625 23.5H5.625V25.375C5.625 25.7188 5.90625 26 6.25 26H13.1062C13.45 26 13.7312 25.7188 13.7312 25.375C13.7312 25.0312 13.45 24.75 13.1062 24.75H10.3125V22C10.3125 21.6562 10.0312 21.375 9.6875 21.375C9.34375 21.375 9.0625 21.6562 9.0625 22V24.75H6.875V21.9312C6.875 19.8125 8.3125 17.9875 10.375 17.4937L13.45 16.7563L15.425 21.2563C15.525 21.4813 15.75 21.6313 16 21.6313C16.25 21.6313 16.475 21.4875 16.575 21.2563L18.55 16.7625L21.6125 17.4937C23.675 17.9875 25.1187 19.8125 25.1187 21.9312V22.6313C25.0875 22.7063 25.0688 22.7875 25.0688 22.875C25.0688 22.9625 25.0875 23.0437 25.1187 23.1187V24.75H22.9375V22C22.9375 21.6562 22.6562 21.375 22.3125 21.375C21.9688 21.375 21.6875 21.6562 21.6875 22V24.75H18.625C18.2812 24.75 18 25.0312 18 25.375C18 25.7188 18.2812 26 18.625 26H25.7375C26.0812 26 26.3625 25.7188 26.3625 25.375V23.5H31.375C31.7188 23.5 32 23.2188 32 22.875V18.675C32 16.65 30.625 14.9125 28.6625 14.4438ZM25.325 14.4688L24.375 16.7563L23.4312 14.5C23.4312 14.475 23.4375 14.4562 23.4375 14.4312C23.4375 14.425 23.4375 14.4188 23.4375 14.4125V13.6375C23.7438 13.7063 24.0563 13.75 24.3813 13.75C24.7063 13.75 25.025 13.7125 25.3312 13.6375V14.4375C25.325 14.45 25.325 14.4625 25.325 14.4688ZM13.1875 14.975C12.7937 14.7313 12.3625 14.55 11.9125 14.4438L9.81875 13.9438V13.125C10.3375 12.8 10.7813 12.3562 11.1125 11.8375C11.5813 12.7562 12.3062 13.5312 13.1875 14.0562V14.975ZM11.7563 9.33125V7.8875H13.5125C15.1062 7.8875 16.6187 7.25625 17.7375 6.14375L20.25 7.61875V9.48125C20.175 11.7562 18.3 13.5875 16.0063 13.5875C13.6625 13.5812 11.7563 11.675 11.7563 9.33125ZM18.8062 14.0625C19.6937 13.5312 20.425 12.7625 20.9 11.8375C21.2312 12.35 21.6687 12.7875 22.1875 13.1125V13.9375L20.0938 14.4375C19.6375 14.55 19.2062 14.7313 18.8062 14.975V14.0625ZM24.375 12.5063C22.7875 12.5063 21.5 11.2188 21.5 9.63125V9.53125C21.5 9.46875 21.5063 7.85 21.5063 7.85C22.7375 8.45625 24.0875 8.76875 25.4625 8.76875H27.25V9.63125C27.25 11.2125 25.9625 12.5063 24.375 12.5063ZM24.375 4.425C25.9625 4.425 27.25 5.7125 27.25 7.3V7.45625V7.51875H25.4625C24.1125 7.51875 22.7875 7.1625 21.6187 6.49375C21.9687 5.3 23.075 4.425 24.375 4.425ZM11.7563 6.0875C11.7563 3.74375 13.6625 1.8375 16.0063 1.8375C18.35 1.8375 20.2563 3.74375 20.2563 6.0875V6.16875L17.9375 4.80625C17.675 4.65 17.3375 4.7125 17.1437 4.94375C16.2437 6.01875 14.9188 6.6375 13.5188 6.6375H11.7625V6.0875H11.7563ZM4.75 7.3C4.75 5.7125 6.0375 4.425 7.625 4.425C8.93125 4.425 10.0313 5.3 10.3813 6.49375C9.2125 7.16875 7.8875 7.51875 6.5375 7.51875H4.75V7.45625V7.3ZM4.75 8.76875H6.5375C7.9125 8.76875 9.26875 8.45 10.5 7.84375V9.625C10.5 11.2125 9.2125 12.5 7.625 12.5C6.0375 12.5 4.75 11.2125 4.75 9.625C4.75 9.63125 4.75 8.76875 4.75 8.76875ZM7.625 13.7563C7.95 13.7563 8.2625 13.7187 8.56875 13.6437V14.4C8.56875 14.4125 8.56875 14.425 8.56875 14.4375C8.56875 14.4563 8.56875 14.475 8.575 14.4937L7.625 16.7563L6.675 14.4813C6.675 14.4688 6.675 14.45 6.675 14.4375V13.6437C6.98125 13.7125 7.29375 13.7563 7.625 13.7563ZM5.625 21.9312V22.25H3.75V19.475C3.75 19.1313 3.46875 18.85 3.125 18.85C2.78125 18.85 2.5 19.1313 2.5 19.475V22.25H1.25V18.675C1.25 17.2312 2.23125 15.9938 3.63125 15.6562L5.6125 15.1812L6.90625 18.2812C6.09375 19.2875 5.625 20.5625 5.625 21.9312ZM10.0813 16.275C9.7125 16.3625 9.3625 16.4875 9.025 16.6375L9.63125 15.1812L11.6125 15.6562C11.7688 15.6938 11.9188 15.7437 12.0625 15.8L10.0813 16.275ZM16 19.45L14.4375 15.8937V14.6063C14.9375 14.7563 15.4625 14.8375 16.0063 14.8375C16.5438 14.8375 17.0687 14.7562 17.5562 14.6125V15.9L16 19.45ZM19.925 15.8062C20.075 15.7437 20.225 15.6938 20.3875 15.6562L22.3625 15.1812L22.975 16.6437C22.6375 16.4875 22.2812 16.3625 21.9062 16.275L19.925 15.8062ZM30.75 22.25H29.5V19.475C29.5 19.1313 29.2188 18.85 28.875 18.85C28.5312 18.85 28.25 19.1313 28.25 19.475V22.25H26.3625V21.9312C26.3625 20.5625 25.8937 19.2938 25.0875 18.2875L26.3875 15.1812L28.375 15.6562C29.775 15.9938 30.7563 17.2312 30.7563 18.675V22.25H30.75Z" fill="#1C4685"/>
<path d="M13.9062 8.44995C13.7438 8.44995 13.5812 8.5187 13.4625 8.6312C13.3437 8.74995 13.2812 8.9062 13.2812 9.07495C13.2812 9.2437 13.35 9.39995 13.4625 9.5187C13.575 9.63745 13.7375 9.69995 13.9062 9.69995C14.0687 9.69995 14.2313 9.6312 14.35 9.5187C14.4688 9.39995 14.5312 9.2437 14.5312 9.07495C14.5312 8.9062 14.4625 8.74995 14.35 8.6312C14.2313 8.5187 14.0687 8.44995 13.9062 8.44995Z" fill="#1C4685"/>
<path d="M18.0812 9.69995C18.2437 9.69995 18.4062 9.6312 18.525 9.5187C18.6437 9.39995 18.7062 9.2437 18.7062 9.07495C18.7062 8.9062 18.6375 8.74995 18.525 8.6312C18.4062 8.51245 18.25 8.44995 18.0812 8.44995C17.9125 8.44995 17.7562 8.5187 17.6375 8.6312C17.5187 8.74995 17.4562 8.9062 17.4562 9.07495C17.4562 9.2437 17.525 9.39995 17.6375 9.5187C17.75 9.63745 17.9187 9.69995 18.0812 9.69995Z" fill="#1C4685"/>
<path d="M17.2 10.7375C16.9563 10.4938 16.5625 10.4938 16.3188 10.7375C16.1313 10.925 15.8312 10.925 15.65 10.7375C15.4062 10.4938 15.0125 10.4938 14.7688 10.7375C14.525 10.9813 14.525 11.375 14.7688 11.6188C15.1063 11.9563 15.5438 12.125 15.9875 12.125C16.4313 12.125 16.8687 11.9563 17.2062 11.6188C17.45 11.3813 17.45 10.9813 17.2 10.7375Z" fill="#1C4685"/>
</svg>
