<svg width="347" height="556" viewBox="0 0 347 556" fill="none" xmlns="http://www.w3.org/2000/svg">
<path d="M-218.715 250.295L-208.195 244.234L-324.444 177.134L-332.327 181.714C-343.788 188.33 -362.361 188.33 -373.807 181.714C-373.884 181.668 -373.946 181.637 -374.008 181.591L-411.74 159.692L-486 116.881V100.334L-412.372 142.79L-412.326 142.759L-398.088 151.025L-388.4 156.608L-388.431 156.623L-359.693 173.31H-359.677C-359.615 173.356 -359.538 173.387 -359.477 173.433C-355.944 175.469 -350.19 175.469 -346.658 173.433L-294.132 142.944C-294.055 142.898 -293.994 142.867 -293.932 142.821C-282.517 136.236 -264.067 136.22 -252.59 142.744L-252.575 142.728L-199.942 173.279C-199.88 173.325 -199.803 173.356 -199.741 173.402C-196.209 175.438 -190.47 175.438 -186.938 173.417L-138.562 145.489C-138.5 145.442 -138.423 145.412 -138.361 145.365C-126.9 138.749 -108.327 138.749 -96.881 145.365C-93.3485 147.401 -87.5946 147.401 -84.0621 145.365C-83.985 145.319 -83.9232 145.288 -83.8615 145.242C-72.4309 138.78 -54.1666 138.796 -42.7823 145.288L-42.7515 145.273L-29.5623 152.876C-21.9265 150.855 -13.0874 150.855 -5.45157 152.876L7.36737 145.473C7.44452 145.427 7.50623 145.396 7.56793 145.35C7.59879 145.334 7.62964 145.319 7.66046 145.304L7.73761 145.257C19.1682 138.749 37.5405 138.765 48.9557 145.288L65.446 154.803C65.5077 154.834 65.5694 154.881 65.6311 154.911C69.1636 156.947 74.9175 156.947 78.45 154.911L131.068 124.608L130.975 124.561L347 0V16.5629L270.981 60.3761L92.8116 163.208L92.6882 163.147L92.8116 163.224C81.5044 169.747 63.2709 169.824 51.7786 163.455L20.2635 181.637L22.0837 182.686L226.94 300.924L44.4513 406.224L53.3983 411.375L53.4138 411.359L304.347 556H275.593L81.5352 444.1L-27.6649 381.195L-27.8192 381.287L-44.3095 371.772L-60.7998 381.287L-77.1513 390.725L-77.2438 390.787L-90.8187 398.621H-90.834C-102.188 405.175 -120.544 405.206 -131.975 398.745L-145.612 390.895C-149.144 388.859 -154.898 388.859 -158.43 390.895C-158.508 390.941 -158.569 390.972 -158.631 391.018L-207.932 419.641L-208.765 420.119L-211.264 421.569H-211.28L-444.427 556H-473.181L-329.859 473.401L-453.235 402.076L-486 420.936V404.358L-218.715 250.295ZM-172.561 181.684C-184.007 188.299 -202.58 188.299 -214.041 181.684C-214.118 181.637 -214.18 181.606 -214.241 181.56L-266.736 151.087L-266.751 151.102C-270.284 149.067 -276.038 149.067 -279.57 151.102C-279.647 151.148 -279.709 151.179 -279.771 151.226H-279.786L-321.359 175.361L-205.063 242.491C-193.602 236.276 -175.6 236.4 -164.4 242.862H-164.385L-150.81 250.696L-150.717 250.757L-135.693 259.424L-76.0869 225.019L-161.855 175.515L-172.561 181.684ZM-43.8467 161.173L-56.897 153.647L-56.9124 153.662C-60.3679 151.673 -65.9521 151.627 -69.5 153.539C-69.5154 153.554 -69.6234 153.631 -69.6851 153.662C-81.1466 160.278 -99.6885 160.263 -111.135 153.647L-111.15 153.662C-114.683 151.627 -120.436 151.627 -123.969 153.662C-124.046 153.708 -124.108 153.739 -124.169 153.786H-124.185L-158.724 173.726L-72.9554 223.23L-56.8662 213.946L-56.8816 213.93C-53.4262 211.941 -53.3491 208.718 -56.6656 206.667C-56.6965 206.651 -56.8199 206.59 -56.8816 206.559C-68.2814 199.974 -68.2968 189.333 -57.005 182.717L-56.8662 182.64C-56.8662 182.64 -56.8661 182.64 -56.8507 182.64L-43.8159 175.114C-47.333 170.672 -47.3329 165.583 -43.8467 161.173ZM-10.5267 164.118C-14.3678 161.897 -20.5844 161.897 -24.4254 164.118C-28.2665 166.339 -28.2665 169.932 -24.4254 172.137C-20.5844 174.358 -14.3678 174.358 -10.5267 172.137C-6.68564 169.917 -6.68564 166.323 -10.5267 164.118ZM48.6934 161.682L34.7793 153.647H34.7638C31.2313 151.611 25.4774 151.611 21.9449 153.647C21.8677 153.693 21.806 153.724 21.7443 153.77H21.7289L8.90997 161.173H8.89456C12.3808 165.583 12.3808 170.688 8.89456 175.098H8.90997L17.1937 179.879L48.6934 161.682ZM41.3816 404.466L209.524 307.417L7.62961 190.89L-5.42072 183.364C-13.0565 185.385 -21.8956 185.385 -29.5314 183.364L-42.7206 190.967C-46.0989 193.018 -46.068 196.257 -42.5818 198.277C-42.5046 198.324 -42.4429 198.354 -42.3658 198.401C-31.182 204.986 -31.2129 215.519 -42.4275 222.088L-42.3966 222.104L-152.522 285.672C-155.746 287.677 -155.716 290.792 -152.461 292.797L41.3816 404.466ZM-117.567 390.556C-114.158 392.329 -108.975 392.329 -105.55 390.586L-91.59 382.521L-91.4974 382.459L-75.1151 373.006L-58.5476 363.444L-58.671 363.521L-75.1613 354.006L-75.0533 353.944L-75.223 353.836L-128.227 384.433L-117.567 390.556ZM-172.993 382.752C-172.931 382.706 -172.869 382.66 -172.792 382.629C-161.346 376.028 -142.804 376.013 -131.343 382.613C-131.327 382.613 -131.327 382.629 -131.312 382.629L-131.281 382.644L-78.2774 352.047L-166.606 301.156H-166.622C-178.006 294.586 -178.083 283.976 -166.838 277.36L-150.008 267.644L-165.033 258.977L-165.125 258.916L-179.086 250.85C-182.51 249.092 -187.693 249.107 -191.103 250.865L-204.353 258.515L-374.671 356.72L-251.279 428.061L-222.818 411.652L-172.993 382.752ZM-326.82 471.612L-254.364 429.85L-377.756 358.509L-450.196 400.271L-326.82 471.612Z" fill="#0E2D5C"/>
</svg>
