<svg width="605" height="763" viewBox="0 0 605 763" fill="none" xmlns="http://www.w3.org/2000/svg">
<path d="M238.245 343.48L223.809 335.163L383.321 243.082L394.138 249.367C409.864 258.446 435.349 258.446 451.055 249.367C451.161 249.304 451.245 249.261 451.33 249.198L503.104 219.146L605 160.397V137.688L503.971 195.951L503.908 195.909L484.371 207.252L471.078 214.913L471.121 214.934L431.687 237.833H431.666C431.581 237.896 431.476 237.939 431.391 238.002C426.544 240.796 418.649 240.796 413.801 238.002L341.729 196.163C341.623 196.099 341.538 196.057 341.454 195.993C325.79 186.956 300.475 186.935 284.727 195.887L284.706 195.866L212.485 237.791C212.401 237.854 212.295 237.897 212.21 237.96C207.363 240.754 199.489 240.754 194.642 237.981L128.263 199.654C128.178 199.591 128.073 199.549 127.988 199.485C112.261 190.406 86.7765 190.406 71.0708 199.485C66.2236 202.279 58.3285 202.279 53.4813 199.485C53.3755 199.422 53.2908 199.379 53.2061 199.316C37.5216 190.448 12.4603 190.47 -3.16071 199.379L-3.203 199.358L-21.3005 209.792C-31.778 207.019 -43.9065 207.019 -54.384 209.792L-71.9735 199.633C-72.0794 199.57 -72.164 199.527 -72.2487 199.464C-72.291 199.443 -72.3334 199.422 -72.3757 199.4L-72.4815 199.337C-88.166 190.406 -113.376 190.427 -129.039 199.379L-151.666 212.437C-151.751 212.479 -151.835 212.543 -151.92 212.585C-156.767 215.379 -164.662 215.379 -169.51 212.585L-241.709 170.999L-241.582 170.936L-538 0V22.7294L-433.691 82.8543L-189.216 223.971L-189.046 223.886L-189.216 223.992C-173.701 232.944 -148.682 233.05 -132.912 224.31L-89.6689 249.261L-92.1665 250.7L-373.26 412.959L-122.858 557.462L-135.135 564.531L-135.156 564.51L-479.474 763H-440.02L-173.743 609.439L-23.904 523.114L-23.6924 523.241L-1.06519 510.183L21.562 523.241L43.9986 536.193L44.1256 536.278L62.7523 547.029H62.7734C78.3521 556.023 103.54 556.065 119.225 547.198L137.936 536.426C142.783 533.632 150.679 533.632 155.526 536.426C155.632 536.489 155.716 536.532 155.801 536.595L223.45 575.874L224.593 576.53L228.022 578.52H228.043L547.956 763H587.41L390.751 649.649L560.042 551.769L605 577.652V554.901L238.245 343.48ZM174.914 249.325C190.62 258.404 216.105 258.404 231.832 249.325C231.938 249.261 232.022 249.219 232.107 249.155L304.137 207.337L304.158 207.358C309.005 204.564 316.9 204.564 321.748 207.358C321.853 207.421 321.938 207.464 322.023 207.527H322.044L379.088 240.648L219.513 332.772C203.786 324.243 179.084 324.412 163.717 333.279H163.696L145.069 344.03L144.942 344.115L124.326 356.009L42.5381 308.794L160.225 240.859L174.914 249.325ZM-1.7002 221.178L16.2068 210.85L16.228 210.871C20.9693 208.141 28.6317 208.077 33.5 210.702C33.5211 210.723 33.6693 210.829 33.754 210.871C49.4808 219.95 74.9231 219.929 90.6288 210.85L90.65 210.871C95.4971 208.077 103.392 208.077 108.239 210.871C108.345 210.934 108.43 210.977 108.515 211.04H108.536L155.928 238.404L38.2413 306.339L16.1645 293.598L16.1857 293.577C11.4443 290.847 11.3384 286.424 15.8893 283.609C15.9316 283.588 16.101 283.503 16.1857 283.461C31.8278 274.424 31.8489 259.822 16.355 250.743L16.1645 250.637C16.1645 250.637 16.1644 250.637 16.1432 250.637L-1.74249 240.309C3.0835 234.214 3.08344 227.23 -1.7002 221.178ZM-47.4202 225.22C-42.1497 222.172 -33.6195 222.172 -28.349 225.22C-23.0786 228.267 -23.0786 233.198 -28.349 236.225C-33.6195 239.272 -42.1497 239.272 -47.4202 236.225C-52.6907 233.177 -52.6907 228.246 -47.4202 225.22ZM-128.679 221.876L-109.587 210.85H-109.566C-104.718 208.056 -96.8232 208.056 -91.976 210.85C-91.8702 210.913 -91.7855 210.956 -91.7008 211.019H-91.6797L-74.0902 221.178H-74.069C-78.8527 227.23 -78.8527 234.235 -74.069 240.288H-74.0902L-85.4567 246.849L-128.679 221.876ZM-118.646 555.049L-349.363 421.869L-72.3333 261.959L-54.4263 251.631C-43.9489 254.404 -31.8204 254.404 -21.3429 251.631L-3.24536 262.065C1.39014 264.88 1.34784 269.324 -3.43585 272.096C-3.54169 272.16 -3.62634 272.202 -3.73218 272.266C-19.078 281.302 -19.0357 295.757 -3.64752 304.772L-3.68988 304.794L147.419 392.029C151.843 394.78 151.8 399.055 147.334 401.806L-118.646 555.049ZM99.4553 535.96C94.7775 538.394 87.6655 538.394 82.9664 536.003L63.8107 524.934L63.6837 524.85L41.2047 511.876L18.4716 498.755L18.641 498.861L41.2682 485.803L41.12 485.719L41.3528 485.57L114.081 527.558L99.4553 535.96ZM175.507 525.252C175.422 525.188 175.338 525.125 175.232 525.082C159.526 516.024 134.084 516.003 118.357 525.061C118.336 525.061 118.336 525.082 118.315 525.082L118.272 525.103L45.5438 483.116L166.744 413.277H166.765C182.386 404.261 182.492 389.701 167.062 380.622L143.969 367.289L164.585 355.395L164.712 355.31L183.868 344.242C188.567 341.829 195.679 341.851 200.357 344.263L218.539 354.76L452.24 489.528L282.928 587.429L243.875 564.912L175.507 525.252ZM386.581 647.194L287.161 589.884L456.473 491.983L555.872 549.293L386.581 647.194Z" fill="#0E2D5C"/>
</svg>
