<svg width="786" height="104" viewBox="0 0 786 104" fill="none" xmlns="http://www.w3.org/2000/svg">
<mask id="path-1-inside-1_371_10791" fill="white">
<path d="M0 52C0 23.2812 23.2812 0 52 0H802C830.719 0 854 23.2812 854 52C854 80.7188 830.719 104 802 104H52C23.2812 104 0 80.7188 0 52Z"/>
</mask>
<path d="M0 52C0 23.2812 23.2812 0 52 0H802C830.719 0 854 23.2812 854 52C854 80.7188 830.719 104 802 104H52C23.2812 104 0 80.7188 0 52Z" fill="#0F3061"/>
<path d="M0 0H854H0ZM854 104H0H854ZM0 104V0V104ZM803 0C831.719 0 855 23.2812 855 52C855 80.7188 831.719 104 803 104H802C830.167 104 853 80.7188 853 52C853 23.2812 830.167 0 802 0H803Z" fill="#0F3061" mask="url(#path-1-inside-1_371_10791)"/>
</svg>
