<svg width="72" height="117" viewBox="0 0 72 117" fill="none" xmlns="http://www.w3.org/2000/svg">
<g style="mix-blend-mode:luminosity">
<path d="M59.2296 77.102C59.0113 73.7347 57.9929 67.0289 56.6981 61.3348C53.4683 63.9217 48.3326 66.4508 43.677 66.7832C46.2376 72.434 49.5983 78.157 49.5983 78.157C49.5983 78.157 49.5983 86.0768 52.1007 92.1756C54.6613 98.4189 57.2509 100.645 59.0113 109.085C60.9463 109.677 63.5942 107.538 63.5942 107.538C63.5942 107.538 59.4769 80.8018 59.2296 77.102Z" fill="#FFB8A3"/>
<path d="M44.8262 69.2401C49.409 69.0378 53.4827 66.9856 57.3817 64.5287C57.0471 62.8667 56.6979 61.2192 56.3197 59.6872C54.8502 53.6896 53.8173 47.7064 53.8173 47.7064L37.8865 50.091C37.8865 50.091 36.6644 59.6872 41.4072 60.9301C42.1201 63.3725 43.4441 66.4075 44.8262 69.2401Z" fill="#2B221D"/>
<path d="M52.2752 19.7271C52.2752 19.7271 54.5157 18.6866 56.9308 23.7593C59.2295 28.5863 61.6446 32.9075 63.3468 36.8529C65.5291 41.9256 66.7366 46.189 67.6969 48.9204C68.6571 51.6519 70.0392 58.56 64.7871 57.5483C63.2741 57.2593 62.9831 55.7563 63.0267 54.5423C60.6698 53.8775 63.9433 51.2328 63.9433 51.2328C63.9433 51.2328 62.4884 48.458 60.6553 45.871C58.8804 43.3419 58.0802 38.8328 58.0802 38.8328C58.0802 38.8328 53.8029 36.376 52.2752 31.9681C50.7331 27.5457 52.2752 19.7271 52.2752 19.7271Z" fill="#FFB9A4"/>
<path d="M29.7391 58.6611C27.9206 65.6271 26.9894 75.1365 26.9894 75.1365C26.9894 75.1365 24.8799 71.3645 21.3009 69.0233C16.7035 66.0173 15.7578 66.4797 11.3641 62.9823C9.06545 64.6588 9.90927 64.4853 9.21094 67.1445C10.2439 68.1417 20.5589 80.5416 23.3814 83.6777C26.2184 86.8138 29.4773 85.9178 32.9544 82.9551C35.6605 80.6572 40.6798 71.6247 42.8039 67.7081C37.7846 66.0028 33.0417 62.7366 29.7391 58.6611Z" fill="#FFC9B6"/>
<path d="M37.3336 47.5041C34.2493 51.4929 32.3143 50.0188 30.2047 57.0136C29.5355 59.2103 28.9826 61.8261 28.5171 64.3697C30.9758 67.766 36.4461 70.2228 41.0144 70.9743C42.1783 68.8643 43.7932 65.8583 43.7932 65.8583C43.7932 65.8583 48.6525 62.1441 49.4236 57.9241C50.1946 53.7041 48.3615 47.5186 48.3615 47.5186H37.3336V47.5041Z" fill="#3D322C"/>
<path d="M46.0337 3.16502C46.2083 2.18227 45.7863 1.12727 44.7534 0.635897C43.9387 0.260142 43.0366 0.317951 42.3383 0.92494C42.251 0.9972 42.1783 1.06946 42.1055 1.15617C41.7709 0.534733 41.1162 0.101167 40.2433 0.0867147C39.4577 0.0722626 38.9194 0.375755 38.3374 0.852675C37.5663 1.48857 37.0571 2.24008 35.9805 2.42796C34.6129 2.67364 32.8526 1.64754 33.4782 0C32.2415 0.0144521 31.2086 1.19953 31.354 2.34125C31.4122 2.74591 31.7469 3.35289 32.1979 3.80091C31.2958 4.20557 30.5393 5.20277 30.4229 5.98318C30.3065 6.73469 30.5975 7.57291 31.3686 7.91976C31.7905 8.10764 32.2997 8.13654 32.8089 8.10764C32.9689 8.36777 33.2308 8.55566 33.4927 8.74353C34.0601 9.14819 34.6275 9.42278 34.7584 10.1743C34.9185 10.868 33.6382 11.7496 32.6634 11.9374C33.4782 13.3393 35.1222 13.4116 36.8243 12.6601C37.5809 12.3277 38.352 11.5906 38.8612 10.7379C40.1124 11.7785 42.0328 11.8218 43.5313 11.1281C46.3101 9.82744 48.1578 5.49181 46.0337 3.16502Z" fill="#2B221D"/>
<path d="M45.9028 5.54962C45.9028 5.54962 43.6187 3.85872 41.8874 5.46291C40.1561 7.06709 41.0145 10.1887 43.9824 9.91416C46.9503 9.63957 45.9028 5.54962 45.9028 5.54962Z" fill="#FFB81A"/>
<path d="M43.9823 15.5649C43.9823 15.5649 44.7679 18.0073 42.8329 19.8572C40.898 21.7071 37.8718 22.8921 37.8718 22.8921C37.8718 22.8921 45.7863 30.3783 48.2014 31.549C50.6165 32.7051 53.0607 31.1154 54.1664 29.569C55.2721 28.0226 53.5844 21.9094 53.5844 21.9094C53.5844 21.9094 52.2023 22.3574 50.9656 19.7127C49.729 17.0679 43.9823 15.5649 43.9823 15.5649Z" fill="#FFB9A4"/>
<path d="M44.5643 9.27825C50.1219 4.32118 54.8066 9.6251 55.4758 12.2265C56.3197 15.4493 55.4322 20.1752 51.9114 22.2129C50.3256 23.1378 47.0958 21.9094 45.6846 19.9873C43.5023 17.0101 41.6255 11.9085 44.5643 9.27825Z" fill="#FFC9B6"/>
<path d="M52.9733 6.38783C51.2711 2.80371 42.0036 4.19111 42.1927 9.03257C40.316 10.6657 41.1598 15.406 43.7495 18.412C46.3682 17.0246 46.0627 15.5649 47.1538 12.8046C49.9908 13.3971 56.2904 12.7468 58.5746 10.0587C58.0072 7.44283 55.5921 5.91091 52.9733 6.38783Z" fill="#3D322C"/>
<path d="M40.5197 21.5047C40.5197 21.5047 35.9077 23.1089 35.2821 24.5541C34.0601 27.3579 35.3985 33.2543 36.6497 39.382C37.1153 41.6799 37.7845 44.1512 37.4353 46.0444C37.2462 47.0416 35.5877 48.9927 33.6672 50.6402C34.1619 51.7241 42.8766 60.4532 54.9229 53.415C54.501 48.14 53.2934 41.1018 53.9772 37.6622C55.3739 36.9396 58.2982 34.555 56.3632 30.5807C55.0393 27.8637 52.6242 21.7504 52.6242 21.7504L51.6058 22.3285C51.6058 22.3285 53.2352 28.6874 47.0229 27.1989C42.0618 26.0282 40.5197 21.5047 40.5197 21.5047Z" fill="#FC7734"/>
<path d="M47.0084 15.3915C47.0084 15.3915 45.3789 13.3682 44.2005 14.9724C43.022 16.5766 45.1753 17.9495 45.1753 17.9495L47.0084 15.3915Z" fill="#FFC9B6"/>
<path d="M38.0465 22.5309C38.0465 22.5309 36.1115 22.6465 34.3075 23.7593C32.969 24.5831 32.1252 26.3751 30.9758 28.2828C27.7024 31.8236 26.0729 33.0231 23.6142 36.6795C21.5919 39.6711 21.1118 40.5382 21.781 41.9111C22.4503 43.2985 24.9235 47.4897 29.4918 51.8397C30.1174 55.4672 31.4123 57.3026 32.969 57.505C33.6673 57.5917 34.6566 57.5339 35.2095 56.5656C37.0281 56.2043 36.8971 54.8602 35.7478 53.1982C37.8573 51.4206 34.0456 50.1344 32.8526 48.9927C30.9176 46.5503 28.8662 43.1107 27.3968 41.044C29.2154 39.1797 34.1474 36.8818 35.7187 34.873C36.9553 35.1765 39.1376 35.6967 40.5343 32.4161C41.9455 29.1499 38.0465 22.5309 38.0465 22.5309Z" fill="#FFC9B6"/>
<path d="M40.0833 21.736L40.9998 21.2591C40.9998 21.2591 43.2985 24.8576 45.8736 26.1294C48.4633 27.4012 49.7436 26.9387 50.7329 25.797C51.5913 24.7998 51.213 22.4875 51.213 22.4875L51.9113 22.2418C51.9113 22.2418 53.3662 26.4474 49.569 28.0227C44.8116 29.9448 40.0833 21.736 40.0833 21.736Z" fill="white"/>
<path d="M41.2763 13.0503C41.2763 13.0503 43.3859 15.0447 48.347 14.9001C53.3081 14.7556 55.7814 13.585 55.7814 13.585V10.3911C55.7814 10.3911 50.602 11.634 46.9649 11.2871C43.3132 10.9258 41.2909 9.94307 41.2909 9.94307C41.2909 9.94307 40.4616 11.4894 41.2763 13.0503Z" fill="#FFB81A"/>
<path d="M14.3613 65.1212C14.3613 65.1212 12.95 62.9823 11.4515 61.6672C10.404 60.7567 6.7814 65.7138 6.15581 66.5375C5.53021 67.3613 1.77665 68.8788 1.13651 71.6825C0.481817 74.4717 1.89304 74.992 2.926 75.3533C3.95895 75.7146 12.1644 69.5147 12.1644 69.5147C12.1644 69.5147 11.1897 67.9249 10.855 66.5953C12.2954 66.0317 14.3613 65.1212 14.3613 65.1212Z" fill="#FC7734"/>
<path d="M12.6009 62.7944C12.6009 62.7944 8.77457 63.1268 6.7523 66.2629C1.47113 70.2228 1.06376 71.6247 1.57297 73.5324C2.08217 75.44 2.91145 75.3389 2.91145 75.3389C2.91145 75.3389 1.41293 75.7869 0.43817 74.0237C-0.536593 72.2606 0.21994 70.772 1.67481 69.1245C3.14423 67.4769 6.15581 65.4247 6.15581 65.4247C6.15581 65.4247 8.49815 61.8262 10.3604 61.5516C12.048 61.3059 12.6009 62.7944 12.6009 62.7944Z" fill="#3D322C"/>
<path d="M4.83179 74.5585C4.83179 74.5585 4.24985 73.2144 6.09753 71.4513C8.1489 69.4858 10.8113 67.4191 12.1789 68.4741C14.2448 70.0494 13.9247 73.1566 12.9063 71.9571C12.6299 71.6247 11.8006 70.8009 11.4224 70.5552C10.9713 70.7287 10.3312 71.1911 9.70561 71.6102L4.83179 74.5585Z" fill="#3D322C"/>
<path d="M39.4141 38.2981C39.4141 38.2981 42.8912 39.7289 46.0774 38.8184C49.2635 37.9079 51.184 37.4599 51.184 37.4599C51.184 37.4599 48.3615 39.8156 45.7573 40.6394C43.1531 41.4631 39.4141 38.2981 39.4141 38.2981Z" fill="#F26527"/>
<path d="M10.0549 71.3645L8.45457 68.662L7.66895 69.2401L9.22566 71.8848L10.0549 71.3645Z" fill="white"/>
<path d="M8.33813 72.4485L6.73778 69.7459L5.95215 70.324L7.50886 72.9832L8.33813 72.4485Z" fill="white"/>
<path d="M57.4982 104.07C57.4982 104.07 57.7455 106.324 57.4982 108.087C57.2072 110.125 56.6253 111.513 58.8367 112.336C59.6514 112.64 60.9317 113.305 62.8667 114.345C64.598 115.27 66.9112 116.6 68.8171 116.253C70.8976 115.877 72.1487 115.386 71.8141 114.013C71.4504 112.495 69.239 110.747 67.3477 109.345C64.1033 106.946 62.5612 103.593 62.5612 103.593L59.2877 105.891L57.4982 104.07Z" fill="#FC7734"/>
<path d="M57.2072 109.085C57.2072 109.085 58.1674 110.356 59.0549 110.906C60.8298 111.989 61.1499 112.596 62.8667 113.94C64.7289 115.4 67.2167 115.545 69.1953 114.793C70.0974 114.446 71.8287 113.998 71.8287 113.998C71.8287 113.998 72.6288 116.123 68.8316 116.845C65.049 117.568 60.0588 112.958 60.0588 112.958C60.0588 112.958 56.0579 113.247 57.2072 109.085Z" fill="#3D322C"/>
<path d="M60.3643 105.125C60.3643 105.125 60.7135 107.148 62.8812 109.085C65.049 111.021 65.9074 111.628 66.8821 111.513C67.8569 111.397 68.8462 110.544 68.8462 110.544C68.8462 110.544 65.3836 107.899 64.2343 106.194C63.0849 104.489 63.3904 101.757 61.8483 102.408C60.2916 103.058 60.3643 105.125 60.3643 105.125Z" fill="#2B221D"/>
<path d="M61.019 109.186C61.019 109.186 61.9356 108.29 62.9104 107.726C63.8851 107.162 64.6999 106.801 64.6999 106.801L65.4273 107.582C65.4273 107.582 64.5398 107.842 63.3614 108.521C62.3721 109.099 61.761 109.923 61.761 109.923L61.019 109.186Z" fill="white"/>
<path d="M62.3865 110.616C62.3865 110.616 63.303 109.72 64.2778 109.157C65.2526 108.593 66.0673 108.232 66.0673 108.232L66.9111 108.969C66.9111 108.969 65.9218 109.272 64.7434 109.966C63.7541 110.544 63.143 111.368 63.143 111.368L62.3865 110.616Z" fill="white"/>
</g>
</svg>
