<svg width="230" height="156" viewBox="0 0 230 156" fill="none" xmlns="http://www.w3.org/2000/svg">
<path fill-rule="evenodd" clip-rule="evenodd" d="M29.1305 60.0094C-26.4268 156.756 177.617 152.422 145.103 66.3671C142.453 65.6235 140.402 59.3432 137.593 58.9651C112.603 55.5567 88.6977 58.0378 55.8055 56.4965C50.71 56.3921 38.6788 56.1184 29.1305 60.0094Z" fill="#E6E6E6"/>
<path fill-rule="evenodd" clip-rule="evenodd" d="M0.484009 106.098V160.686C0.484009 166.601 5.31665 171.432 11.235 171.432H218.767C224.671 171.432 229.518 166.601 229.518 160.686V106.098H33.7417C31.2084 106.098 29.1306 104.022 29.1306 101.488V14.8483C29.1306 6.97452 22.69 0.537598 14.8127 0.537598C6.92273 0.537598 0.484009 6.97452 0.484009 14.8483V106.098Z" fill="#41B9D5"/>
<path fill-rule="evenodd" clip-rule="evenodd" d="M49.7053 56.471C50.3193 79.8942 66.9473 99.5561 89.652 106.097H132.328L143.915 86.8785L135.883 66.3686C135.281 72.1519 133.347 76.0681 129.062 80.3768C128.958 80.4812 128.841 80.6 128.724 80.7027C125.052 84.2929 120.414 87.1 115.477 89.0338C106.332 92.5844 96.1448 93.094 89.0507 89.8692L72.4335 82.3106C60.9641 77.0998 56.0144 67.087 55.8055 56.4981C54.2895 56.471 52.1739 56.4188 49.7053 56.471Z" fill="#C2C7CC"/>
<path fill-rule="evenodd" clip-rule="evenodd" d="M114.993 118.41C113.452 135.461 131.27 153.349 148.839 154.642H202.006C223.207 154.642 229.516 150.229 229.516 130.108V106.098H118.01C116.73 109.819 115.45 113.397 114.993 118.41Z" fill="#41B9D5"/>
<path fill-rule="evenodd" clip-rule="evenodd" d="M106.777 17.4589L104.229 23.0334L116.849 28.7789C118.207 29.3911 119.539 30.1887 120.832 31.1286C123.002 26.5192 120.546 19.2342 115.855 17.106L112.171 15.4351C110.133 14.5078 107.704 15.4081 106.777 17.4589Z" fill="#EDA93B"/>
<path fill-rule="evenodd" clip-rule="evenodd" d="M100.232 21.2188C97.5023 64.1345 77.3849 52.3716 72.4335 82.3092L89.0506 89.8696C96.1447 93.0944 106.332 92.5848 115.477 89.0342C120.573 87.05 125.34 84.1241 129.062 80.3772C133.347 76.0685 135.281 72.1523 135.883 66.3672C135.933 65.9639 135.96 65.5444 136 65.1014C136.104 63.5728 136.104 62.0189 136 60.4524C135.751 56.7577 134.928 53.0234 133.673 49.4728C130.996 41.9267 126.306 35.1621 120.834 31.1289C119.539 30.189 118.209 29.3914 116.849 28.7792L104.231 23.0337L100.232 21.2188Z" fill="#FFDDA6"/>
<path fill-rule="evenodd" clip-rule="evenodd" d="M100.228 21.2061C75.9265 10.158 56.0666 33.6118 55.7911 55.3317C55.7785 55.7224 55.7785 56.1149 55.7911 56.493C56 67.0856 60.9515 77.102 72.4245 82.3127C77.376 52.3662 97.4988 64.1327 100.228 21.2061Z" fill="#808080"/>
<path fill-rule="evenodd" clip-rule="evenodd" d="M100.228 21.206C83.1647 13.4474 68.2959 22.695 60.847 36.4205C69.0143 27.3836 81.2039 22.7994 94.7674 28.9771L98.7646 30.792L99.1841 30.9883C99.654 28.075 100.007 24.8358 100.228 21.206Z" fill="#666666"/>
<path fill-rule="evenodd" clip-rule="evenodd" d="M100.232 21.2188C100.011 24.7568 99.6702 27.9294 99.2273 30.776L111.376 36.3C112.748 36.9266 114.08 37.7225 115.36 38.6624C120.846 42.6848 125.522 49.4476 128.2 57.0062C129.467 60.5587 130.278 64.2786 130.526 67.9877C130.63 69.5416 130.63 71.108 130.526 72.6349C130.499 73.0652 130.459 73.4973 130.422 73.9025C130.146 76.4736 129.611 78.6811 128.724 80.7049C128.841 80.6005 128.958 80.4816 129.062 80.3772C133.347 76.0703 135.281 72.1523 135.883 66.369C135.933 65.9639 135.96 65.5462 136 65.1014C136.104 63.5746 136.104 62.0207 136 60.4543C135.751 56.7596 134.928 53.0252 133.673 49.4728C130.996 41.9267 126.306 35.1639 120.834 31.1289C119.539 30.189 118.209 29.3932 116.849 28.7792L104.231 23.0337L100.232 21.2188Z" fill="#FCC368"/>
<path fill-rule="evenodd" clip-rule="evenodd" d="M132.328 106.098C131.021 120.108 139.617 132.641 153.438 135.866H206.174C224.161 135.866 229.516 132.236 229.516 115.707V43.2067C229.516 38.898 225.989 35.3726 221.678 35.3726H166.331C137.854 35.3726 137.593 45.5168 135.998 60.454C136.102 62.0205 136.102 63.5744 135.998 65.1012C135.96 65.546 135.933 65.9637 135.881 66.3688C140.857 92.0103 133.477 93.8378 132.328 106.098Z" fill="#F0E7D2"/>
<path fill-rule="evenodd" clip-rule="evenodd" d="M166.476 101.006L164.855 106.098L162.66 113.017C161.773 115.839 159.839 117.286 158.598 116.517C151.308 111.948 145.247 121.699 153.699 126.478C155.777 127.641 154 130.734 153.726 131.898C153.582 132.549 153.49 133.176 153.438 133.802C153.373 134.508 153.373 135.2 153.438 135.866C154.365 146.48 169.635 150.724 176.807 135.866C177.369 134.705 177.878 133.424 178.336 132.027L186.697 106.098C188.709 99.8696 188.239 95.2746 186.317 89.124L181.89 74.9321H165.051L164.999 86.6428L166.972 93.7982C167.495 97.2192 167.507 97.7413 166.476 101.006Z" fill="#FFDDA6"/>
<path fill-rule="evenodd" clip-rule="evenodd" d="M177.905 89.1258C179.812 95.2746 180.295 99.8696 178.283 106.098L172.248 124.821L169.911 132.029C169.466 133.424 168.957 134.705 168.395 135.866C166.108 140.592 163.013 143.387 159.814 144.654C165.116 146.86 172.444 144.876 176.807 135.866C177.369 134.705 177.878 133.424 178.336 132.029L180.518 125.264L186.697 106.098C186.697 106.085 186.697 106.072 186.71 106.058C186.71 106.058 186.71 106.045 186.71 106.033C186.879 105.523 187.023 105.028 187.153 104.544C188.617 99.0863 188.068 94.765 186.317 89.151C186.317 89.1384 186.317 89.1384 186.317 89.124L181.89 74.9321L181.733 75.1284C181.733 75.141 181.733 75.141 181.719 75.141C181.706 75.168 181.694 75.1806 181.681 75.2058C180.792 76.3293 179.695 77.3214 178.532 78.2361C177.461 79.059 176.337 79.8296 175.228 80.5858L177.905 89.1258Z" fill="#FCC368"/>
<path fill-rule="evenodd" clip-rule="evenodd" d="M136 60.4542L149.505 79.2555C152.941 84.0467 159.068 87.898 164.999 86.6449C165.835 86.4756 166.672 86.2001 167.495 85.8094C169.531 84.8299 171.922 82.8961 173.816 81.5655C176.546 79.6336 179.682 77.779 181.733 75.1286L181.89 74.9324C185.952 69.5416 186.292 61.8893 182.191 56.0933L171.726 41.2605C170.028 38.9234 168.213 36.977 166.332 35.3728C151.139 22.5241 131.401 32.6431 133.675 49.4728C134.928 53.0252 135.751 56.7577 136 60.4542Z" fill="#64B0D9"/>
<path fill-rule="evenodd" clip-rule="evenodd" d="M163.654 47.8807L174.117 62.7118C175.959 65.3225 176.899 68.3006 177.018 71.2895C177.068 72.5049 176.965 73.7311 176.742 74.9338C176.285 77.3087 175.293 79.581 173.816 81.5652C173.829 81.5526 173.843 81.54 173.869 81.5256C175.385 80.4561 177.018 79.4118 178.532 78.236C179.72 77.3087 180.819 76.304 181.719 75.1427C181.731 75.1427 181.731 75.1427 181.731 75.1283L181.888 74.9338C182.738 73.8103 183.417 72.5697 183.939 71.2895C185.9 66.4065 185.43 60.6754 182.189 56.093L171.726 41.2602C170.028 38.9231 168.211 36.9785 166.331 35.3724C155.267 26.0114 141.772 28.8437 136.154 37.5907C142.608 34.9547 150.955 35.8297 158.258 42.0038C160.139 43.5973 161.954 45.5418 163.654 47.8807Z" fill="#4A83C9"/>
</svg>
