<svg width="20" height="20" viewBox="0 0 20 20" fill="none" xmlns="http://www.w3.org/2000/svg">
<g clip-path="url(#clip0_367_10405)">
<path fill-rule="evenodd" clip-rule="evenodd" d="M2.72291 8.97318C-1.98534 17.172 15.3065 16.8048 12.5511 9.51197C12.3265 9.44895 12.1527 8.91672 11.9147 8.88468C9.79689 8.59583 7.77098 8.8061 4.9835 8.67548C4.55168 8.66663 3.53209 8.64344 2.72291 8.97318Z" fill="#E6E6E6"/>
<path fill-rule="evenodd" clip-rule="evenodd" d="M0.295227 12.879V17.5052C0.295227 18.0064 0.704773 18.4158 1.20633 18.4158H18.7938C19.2941 18.4158 19.7049 18.0064 19.7049 17.5052V12.879H3.11368C2.89899 12.879 2.7229 12.7031 2.7229 12.4884V5.146C2.7229 4.47873 2.17709 3.93323 1.50952 3.93323C0.840881 3.93323 0.295227 4.47873 0.295227 5.146V12.879Z" fill="#41B9D5"/>
<path fill-rule="evenodd" clip-rule="evenodd" d="M4.46655 8.6734C4.51859 10.6584 5.92773 12.3247 7.85187 12.879H11.4685L12.4504 11.2503L11.7697 9.51218C11.7188 10.0023 11.5549 10.3342 11.1917 10.6993C11.1829 10.7082 11.1729 10.7182 11.163 10.7269C10.8519 11.0312 10.4588 11.2691 10.0404 11.433C9.26544 11.7339 8.4021 11.777 7.8009 11.5038L6.39267 10.8632C5.42068 10.4216 5.00122 9.57306 4.98352 8.67569C4.85504 8.6734 4.67575 8.66897 4.46655 8.6734Z" fill="#C2C7CC"/>
<path fill-rule="evenodd" clip-rule="evenodd" d="M9.99936 13.9224C9.86875 15.3674 11.3788 16.8834 12.8677 16.993H17.3733C19.17 16.993 19.7047 16.619 19.7047 14.9138V12.879H10.2551C10.1466 13.1944 10.0381 13.4976 9.99936 13.9224Z" fill="#41B9D5"/>
<path fill-rule="evenodd" clip-rule="evenodd" d="M9.30307 5.36728L9.08716 5.83969L10.1566 6.3266C10.2717 6.37848 10.3846 6.44607 10.4942 6.52573C10.678 6.1351 10.4699 5.51773 10.0724 5.33737L9.76022 5.19577C9.58749 5.11719 9.38165 5.19348 9.30307 5.36728Z" fill="#EDA93B"/>
<path fill-rule="evenodd" clip-rule="evenodd" d="M8.74844 5.68585C8.51712 9.32278 6.81226 8.32593 6.39264 10.863L7.80087 11.5037C8.40207 11.777 9.26541 11.7338 10.0404 11.4329C10.4722 11.2648 10.8763 11.0168 11.1917 10.6993C11.5548 10.3341 11.7187 10.0023 11.7697 9.51199C11.774 9.47781 11.7762 9.44226 11.7796 9.40472C11.7885 9.27518 11.7885 9.14349 11.7796 9.01074C11.7585 8.69763 11.6888 8.38116 11.5825 8.08026C11.3556 7.44077 10.9581 6.86749 10.4944 6.5257C10.3846 6.44604 10.2719 6.37845 10.1567 6.32657L9.08734 5.83966L8.74844 5.68585Z" fill="#FFDDA6"/>
<path fill-rule="evenodd" clip-rule="evenodd" d="M8.74812 5.68476C6.68864 4.74848 5.00559 6.73609 4.98225 8.57676C4.98118 8.60987 4.98118 8.64313 4.98225 8.67518C4.99995 9.57285 5.41956 10.4217 6.39185 10.8633C6.81147 8.32545 8.51679 9.32261 8.74812 5.68476Z" fill="#808080"/>
<path fill-rule="evenodd" clip-rule="evenodd" d="M8.74817 5.68481C7.30209 5.02731 6.04202 5.811 5.41077 6.97418C6.10291 6.20834 7.13593 5.81985 8.28537 6.34338L8.62411 6.49719L8.65967 6.51382C8.69949 6.26693 8.7294 5.99243 8.74817 5.68481Z" fill="#666666"/>
<path fill-rule="evenodd" clip-rule="evenodd" d="M8.74847 5.68585C8.72971 5.98569 8.70087 6.25455 8.66333 6.49579L9.69284 6.96393C9.80911 7.01703 9.92203 7.08447 10.0305 7.16412C10.4955 7.505 10.8917 8.07812 11.1186 8.71869C11.226 9.01974 11.2947 9.33499 11.3158 9.64932C11.3246 9.78101 11.3246 9.91376 11.3158 10.0432C11.3135 10.0796 11.3101 10.1162 11.3069 10.1506C11.2836 10.3685 11.2383 10.5555 11.163 10.7271C11.1729 10.7182 11.1829 10.7081 11.1917 10.6993C11.5549 10.3343 11.7188 10.0023 11.7697 9.51215C11.774 9.47781 11.7763 9.44241 11.7796 9.40472C11.7885 9.27533 11.7885 9.14365 11.7796 9.01089C11.7586 8.69778 11.6888 8.38132 11.5825 8.08026C11.3556 7.44077 10.9581 6.86765 10.4944 6.5257C10.3847 6.44604 10.2719 6.3786 10.1567 6.32657L9.08737 5.83966L8.74847 5.68585Z" fill="#FCC368"/>
<path fill-rule="evenodd" clip-rule="evenodd" d="M11.4685 12.879C11.3577 14.0663 12.0862 15.1285 13.2574 15.4018H17.7266C19.2509 15.4018 19.7047 15.0941 19.7047 13.6934V7.54929C19.7047 7.18414 19.4058 6.88538 19.0405 6.88538H14.3501C11.9368 6.88538 11.9146 7.74506 11.7795 9.01093C11.7883 9.14368 11.7883 9.27536 11.7795 9.40475C11.7763 9.44244 11.774 9.47784 11.7695 9.51218C12.1913 11.6852 11.5658 11.8401 11.4685 12.879Z" fill="#F0E7D2"/>
<path fill-rule="evenodd" clip-rule="evenodd" d="M14.3623 12.4475L14.225 12.879L14.039 13.4654C13.9637 13.7045 13.7999 13.8272 13.6947 13.762C13.0769 13.3748 12.5633 14.2012 13.2795 14.6061C13.4556 14.7047 13.305 14.9669 13.2818 15.0654C13.2696 15.1207 13.2618 15.1738 13.2574 15.2269C13.2519 15.2867 13.2519 15.3453 13.2574 15.4017C13.336 16.3012 14.6301 16.6609 15.2379 15.4017C15.2855 15.3033 15.3286 15.1948 15.3674 15.0764L16.076 12.879C16.2465 12.3512 16.2066 11.9618 16.0438 11.4406L15.6686 10.2379H14.2416L14.2372 11.2303L14.4044 11.8367C14.4487 12.1266 14.4497 12.1708 14.3623 12.4475Z" fill="#FFDDA6"/>
<path fill-rule="evenodd" clip-rule="evenodd" d="M15.3309 11.4407C15.4925 11.9618 15.5334 12.3512 15.363 12.879L14.8515 14.4658L14.6534 15.0766C14.6158 15.1948 14.5726 15.3033 14.525 15.4017C14.3312 15.8023 14.0689 16.0391 13.7977 16.1465C14.2471 16.3334 14.8681 16.1653 15.2379 15.4017C15.2855 15.3033 15.3286 15.1948 15.3674 15.0766L15.5523 14.5033L16.076 12.879C16.076 12.8779 16.076 12.8769 16.0771 12.8756C16.0771 12.8756 16.0771 12.8746 16.0771 12.8735C16.0914 12.8303 16.1036 12.7884 16.1146 12.7473C16.2387 12.2848 16.1921 11.9186 16.0438 11.4428C16.0438 11.4418 16.0438 11.4418 16.0438 11.4406L15.6686 10.2379L15.6553 10.2545C15.6553 10.2556 15.6553 10.2556 15.6541 10.2556C15.653 10.2578 15.652 10.2589 15.6509 10.261C15.5755 10.3563 15.4826 10.4403 15.384 10.5179C15.2932 10.5876 15.198 10.6529 15.104 10.717L15.3309 11.4407Z" fill="#FCC368"/>
<path fill-rule="evenodd" clip-rule="evenodd" d="M11.7796 9.01089L12.9242 10.6042C13.2153 11.0103 13.7346 11.3366 14.2372 11.2304C14.308 11.2161 14.379 11.1927 14.4487 11.1596C14.6213 11.0766 14.8239 10.9127 14.9844 10.8C15.2158 10.6363 15.4816 10.4791 15.6554 10.2545L15.6686 10.2379C16.0129 9.781 16.0417 9.13251 15.6941 8.64132L14.8073 7.38431C14.6634 7.18625 14.5096 7.0213 14.3501 6.88534C13.0626 5.79648 11.3899 6.65402 11.5826 8.08026C11.6888 8.38132 11.7586 8.69763 11.7796 9.01089Z" fill="#64B0D9"/>
<path fill-rule="evenodd" clip-rule="evenodd" d="M14.1232 7.9454L15.0099 9.20227C15.166 9.42352 15.2456 9.6759 15.2557 9.9292C15.26 10.0322 15.2513 10.1361 15.2324 10.238C15.1936 10.4393 15.1095 10.6319 14.9844 10.8C14.9855 10.7989 14.9867 10.7979 14.9888 10.7967C15.1173 10.706 15.2557 10.6175 15.384 10.5179C15.4847 10.4393 15.5778 10.3542 15.6541 10.2557C15.6552 10.2557 15.6552 10.2557 15.6552 10.2545L15.6685 10.238C15.7405 10.1428 15.798 10.0377 15.8423 9.9292C16.0084 9.51538 15.9686 9.02969 15.6939 8.64135L14.8073 7.38434C14.6634 7.18628 14.5094 7.02148 14.3501 6.88537C13.4124 6.09207 12.2688 6.33209 11.7927 7.07336C12.3396 6.84997 13.047 6.92413 13.6659 7.44735C13.8253 7.58239 13.9792 7.74719 14.1232 7.9454Z" fill="#4A83C9"/>
<path d="M19.0405 6.59024H17.3978C17.2346 6.59024 17.1025 6.72238 17.1025 6.88535C17.1025 7.04846 17.2346 7.1806 17.3978 7.1806H19.0405C19.2441 7.1806 19.4096 7.34601 19.4096 7.54926V13.6934C19.4096 14.3205 19.3167 14.665 19.099 14.8457C18.8782 15.0285 18.4679 15.1066 17.7266 15.1066H15.6679L16.358 12.9664C16.557 12.3504 16.4932 11.8924 16.3257 11.3528L15.9927 10.2859C16.1006 10.1098 16.1754 9.91284 16.2115 9.70242C16.2866 9.26709 16.1885 8.82993 15.9352 8.47119L15.0462 7.21112C15.0386 7.20059 15.0308 7.19083 15.0232 7.1806H16.2653C16.4284 7.1806 16.5605 7.04846 16.5605 6.88535C16.5605 6.72238 16.4284 6.59024 16.2653 6.59024H14.4562C13.7265 6.02017 12.9237 6.01483 12.3764 6.23395C11.938 6.40942 11.6113 6.7236 11.4311 7.1153C11.2578 6.8504 11.0567 6.6142 10.8357 6.42224C10.8786 6.20663 10.8577 5.96585 10.7721 5.73315C10.6592 5.42615 10.4486 5.18384 10.1944 5.06863L9.88251 4.92703C9.72672 4.85623 9.55261 4.85043 9.39194 4.91086C9.23157 4.97113 9.10446 5.09 9.03458 5.24457L8.94104 5.44934L8.8707 5.4173C8.87054 5.41714 8.87024 5.41699 8.86993 5.41699C7.99484 5.01935 7.08405 5.0726 6.30524 5.56699C5.40558 6.13843 4.776 7.24881 4.69681 8.37643C4.26743 8.37491 3.6261 8.3981 3.01804 8.56366V5.146C3.01804 4.31454 2.34131 3.63812 1.50955 3.63812C0.677185 3.63812 0 4.31439 0 5.146V17.5052C0 18.17 0.541077 18.7109 1.20636 18.7109H18.7938C19.4589 18.7109 20 18.17 20 17.5052V7.54926C20 7.02039 19.5695 6.59024 19.0405 6.59024ZM15.7961 12.7852L15.0865 14.9858C14.8373 15.7577 14.3532 16.0006 13.9836 15.899C13.774 15.8412 13.5797 15.6613 13.5519 15.3827C13.5516 15.3772 13.5509 15.3717 13.5503 15.3662C13.5449 15.2951 13.55 15.2182 13.5687 15.1352C13.5712 15.1268 13.5786 15.1068 13.5841 15.0921C13.6118 15.0178 13.6494 14.916 13.6575 14.8031C13.6716 14.6054 13.5863 14.4397 13.4248 14.3493C13.2982 14.2778 13.2257 14.1874 13.2263 14.1014C13.2266 14.0483 13.2552 13.9996 13.3006 13.9746C13.3617 13.9412 13.4459 13.9546 13.539 14.0129C13.6487 14.0811 13.7843 14.0931 13.911 14.0463C14.0941 13.9784 14.2435 13.7991 14.3202 13.5548L14.6436 12.5366C14.7467 12.2107 14.7458 12.1183 14.696 11.7923C14.6942 11.7808 14.6919 11.7695 14.6887 11.7584L14.5946 11.4166C14.6539 11.387 14.7125 11.3521 14.7701 11.3113L15.5276 10.7779L15.7619 11.5281C15.9251 12.0543 15.9335 12.3596 15.7961 12.7852ZM11.7624 12.9066C11.7905 12.6075 11.8658 12.3954 11.9533 12.1498C12.1181 11.6868 12.3015 11.1697 12.1547 10.0389L12.6845 10.7762C12.9958 11.2103 13.4988 11.5358 14.0179 11.546L14.1151 11.8985C14.1513 12.1356 14.1498 12.1406 14.081 12.3582L13.7575 13.3767C13.7486 13.4047 13.7387 13.4276 13.7292 13.4459C13.4868 13.3354 13.233 13.3381 13.0167 13.4572C12.7835 13.585 12.6378 13.8305 12.6361 14.0977C12.6343 14.3776 12.7858 14.6347 13.0559 14.8149C13.0476 14.841 13.0373 14.8689 13.0307 14.8864C13.0167 14.9243 13.0034 14.96 12.9941 14.9995C12.9935 15.0023 12.993 15.005 12.9924 15.0078C12.1695 14.6684 11.6747 13.8485 11.7624 12.9066ZM12.5957 6.78204C13.0998 6.58032 13.9188 6.66241 14.566 7.55444L15.4529 8.81146C15.6152 9.04141 15.6779 9.32233 15.6297 9.60217C15.5817 9.88202 15.4285 10.1255 15.1987 10.2874L14.4299 10.8288C13.9557 11.1641 13.4018 10.7634 13.1639 10.4319L12.0665 8.90424C12.0386 8.60745 11.972 8.30899 11.8732 8.02121C11.8071 7.47006 12.0888 6.98499 12.5957 6.78204ZM11.2997 8.16418C11.3028 8.17441 11.3063 8.18448 11.3104 8.19424C11.4453 8.58334 11.5123 8.99625 11.4851 9.38397C11.483 9.41281 11.4806 9.44089 11.4778 9.46851C11.4769 9.47537 11.476 9.48224 11.4755 9.48926C11.4301 9.90613 11.2943 10.1777 10.9824 10.4911C10.2039 11.2741 8.77426 11.6217 7.92313 11.235L6.72592 10.6904C6.91101 9.83014 7.2644 9.47888 7.66891 9.07742C8.20892 8.54169 8.81577 7.93881 9.00726 6.12805L10.0346 6.59543C10.1302 6.63876 10.2232 6.69415 10.3134 6.759C10.3183 6.76266 10.3233 6.76617 10.3284 6.76968C10.7448 7.07486 11.0957 7.59213 11.2997 8.16418ZM9.57214 5.48886C9.57886 5.47391 9.59076 5.46674 9.59976 5.46338C9.60861 5.46002 9.6228 5.45743 9.63837 5.4646L9.95041 5.6062C10.06 5.65594 10.1601 5.77954 10.2179 5.93701C10.231 5.97241 10.2408 6.00842 10.2487 6.04413L9.47845 5.69363L9.57214 5.48886ZM5.27863 8.5809C5.29129 7.5784 5.83115 6.5675 6.62186 6.06534C6.88614 5.89749 7.2525 5.74185 7.70172 5.74185C7.92725 5.74185 8.17352 5.78107 8.43842 5.87766C8.29239 7.62738 7.78702 8.12863 7.25327 8.65826C6.84113 9.06705 6.41678 9.48804 6.18439 10.4124C5.39124 9.88675 5.27237 9.06033 5.27863 8.5809ZM18.7936 18.1205H1.20636C0.866699 18.1205 0.590363 17.8445 0.590363 17.5052V5.146C0.590363 4.64001 1.00281 4.22849 1.50955 4.22849C2.01584 4.22849 2.42767 4.64001 2.42767 5.146V8.96848V8.97122V12.4885C2.42767 12.8666 2.73544 13.1743 3.11371 13.1743H4.92035C5.08347 13.1743 5.21561 13.0421 5.21561 12.879C5.21561 12.716 5.08347 12.5839 4.92035 12.5839H3.11371C3.06183 12.5839 3.01804 12.5401 3.01804 12.4884V9.17966C3.5994 8.98953 4.27032 8.96512 4.70688 8.96695C4.81277 9.94519 5.36774 10.722 6.27014 11.1316C6.27029 11.1317 6.27045 11.1317 6.27045 11.1317L7.67868 11.7724C7.98965 11.9136 8.35419 11.9803 8.7384 11.9803C9.67514 11.9803 10.7281 11.5841 11.4009 10.9074C11.4807 10.8273 11.552 10.748 11.6159 10.6682C11.6345 11.2837 11.5144 11.6218 11.3969 11.952C11.3284 12.1446 11.2582 12.3422 11.2123 12.5839H6.03729C5.87433 12.5839 5.74219 12.716 5.74219 12.879C5.74219 13.0421 5.87433 13.1743 6.03729 13.1743H11.1635C11.1751 13.7098 11.3391 14.2257 11.6394 14.6536C11.9666 15.1198 12.4432 15.4631 12.9962 15.6358C13.1088 16.0649 13.4473 16.3636 13.8269 16.4682C13.9325 16.4972 14.0428 16.5124 14.155 16.5124C14.6034 16.5124 15.0822 16.2689 15.4156 15.697H17.7266C18.5722 15.697 19.0704 15.596 19.4096 15.3512V17.5052C19.4096 17.8445 19.1333 18.1205 18.7936 18.1205Z" fill="#1C4685"/>
<path d="M12.1249 3.26035H12.7922L11.9621 4.08585C11.8774 4.17007 11.8518 4.29718 11.8974 4.40765C11.9431 4.51813 12.0508 4.5903 12.1704 4.5903H13.5764C13.7393 4.5903 13.8715 4.45816 13.8715 4.29504C13.8715 4.13208 13.7393 3.99994 13.5764 3.99994H12.8857L13.7158 3.17444C13.8007 3.09006 13.8261 2.96295 13.7805 2.85248C13.7349 2.742 13.6272 2.66998 13.5077 2.66998H12.1249C11.962 2.66998 11.8298 2.80212 11.8298 2.96509C11.8298 3.1282 11.962 3.26035 12.1249 3.26035Z" fill="#1C4685"/>
<path d="M15.0243 1.87943H15.6911L14.8616 2.7037C14.7768 2.78793 14.7511 2.91519 14.7968 3.02567C14.8424 3.13614 14.9501 3.20831 15.0697 3.20831H16.4757C16.6386 3.20831 16.7708 3.07617 16.7708 2.91306C16.7708 2.75009 16.6386 2.61795 16.4757 2.61795H15.7855L16.615 1.79367C16.6998 1.70944 16.7255 1.58234 16.6798 1.47171C16.6344 1.36124 16.5265 1.28906 16.407 1.28906H15.0243C14.8611 1.28906 14.729 1.4212 14.729 1.58432C14.729 1.74728 14.8611 1.87943 15.0243 1.87943Z" fill="#1C4685"/>
</g>
<defs>
<clipPath id="clip0_367_10405">
<rect width="20" height="20" fill="white"/>
</clipPath>
</defs>
</svg>
