<svg width="20" height="20" viewBox="0 0 20 20" fill="none" xmlns="http://www.w3.org/2000/svg">
<g clip-path="url(#clip0_244_12477)">
<path fill-rule="evenodd" clip-rule="evenodd" d="M2.72291 8.97342C-1.98534 17.1723 15.3065 16.805 12.5511 9.51221C12.3265 9.44919 12.1527 8.91697 11.9147 8.88492C9.79689 8.59607 7.77098 8.80634 4.9835 8.67572C4.55168 8.66687 3.53209 8.64368 2.72291 8.97342Z" fill="#E6E6E6"/>
<path fill-rule="evenodd" clip-rule="evenodd" d="M0.295227 12.8791V17.5053C0.295227 18.0065 0.704773 18.4159 1.20633 18.4159H18.7938C19.2941 18.4159 19.7049 18.0065 19.7049 17.5053V12.8791H3.11368C2.89899 12.8791 2.7229 12.7032 2.7229 12.4885V5.14612C2.7229 4.47885 2.17709 3.93335 1.50952 3.93335C0.840881 3.93335 0.295227 4.47885 0.295227 5.14612V12.8791Z" fill="#41B9D5"/>
<path fill-rule="evenodd" clip-rule="evenodd" d="M4.46655 8.67352C4.51859 10.6585 5.92773 12.3248 7.85187 12.8791H11.4685L12.4504 11.2504L11.7697 9.5123C11.7188 10.0024 11.5549 10.3343 11.1917 10.6994C11.1829 10.7083 11.1729 10.7184 11.163 10.727C10.8519 11.0313 10.4588 11.2692 10.0404 11.4331C9.26544 11.734 8.4021 11.7772 7.8009 11.5039L6.39267 10.8633C5.42068 10.4217 5.00122 9.57318 4.98352 8.67581C4.85504 8.67352 4.67575 8.6691 4.46655 8.67352Z" fill="#C2C7CC"/>
<path fill-rule="evenodd" clip-rule="evenodd" d="M9.99936 13.9225C9.86875 15.3676 11.3788 16.8835 12.8677 16.9931H17.3733C19.17 16.9931 19.7047 16.6191 19.7047 14.9139V12.8792H10.2551C10.1466 13.1945 10.0381 13.4977 9.99936 13.9225Z" fill="#41B9D5"/>
<path fill-rule="evenodd" clip-rule="evenodd" d="M9.30307 5.36746L9.08716 5.83987L10.1566 6.32678C10.2717 6.37866 10.3846 6.44626 10.4942 6.52591C10.678 6.13528 10.4699 5.51791 10.0724 5.33755L9.76022 5.19595C9.58749 5.11737 9.38165 5.19366 9.30307 5.36746Z" fill="#EDA93B"/>
<path fill-rule="evenodd" clip-rule="evenodd" d="M8.74844 5.68604C8.51712 9.32297 6.81226 8.32611 6.39264 10.8632L7.80087 11.5039C8.40207 11.7772 9.26541 11.734 10.0404 11.4331C10.4722 11.265 10.8763 11.017 11.1917 10.6995C11.5548 10.3343 11.7187 10.0024 11.7697 9.51218C11.774 9.478 11.7762 9.44244 11.7796 9.40491C11.7885 9.27536 11.7885 9.14368 11.7796 9.01093C11.7585 8.69781 11.6888 8.38135 11.5825 8.08044C11.3556 7.44095 10.9581 6.86768 10.4944 6.52588C10.3846 6.44623 10.2719 6.37863 10.1567 6.32675L9.08734 5.83984L8.74844 5.68604Z" fill="#FFDDA6"/>
<path fill-rule="evenodd" clip-rule="evenodd" d="M8.74812 5.68494C6.68864 4.74866 5.00559 6.73627 4.98225 8.57694C4.98118 8.61005 4.98118 8.64332 4.98225 8.67536C4.99995 9.57304 5.41956 10.4219 6.39185 10.8635C6.81147 8.32563 8.51679 9.32279 8.74812 5.68494Z" fill="#808080"/>
<path fill-rule="evenodd" clip-rule="evenodd" d="M8.74817 5.68481C7.30209 5.02731 6.04202 5.811 5.41077 6.97418C6.10291 6.20834 7.13593 5.81985 8.28537 6.34338L8.62411 6.49719L8.65967 6.51382C8.69949 6.26693 8.7294 5.99243 8.74817 5.68481Z" fill="#666666"/>
<path fill-rule="evenodd" clip-rule="evenodd" d="M8.74847 5.68604C8.72971 5.98587 8.70087 6.25473 8.66333 6.49597L9.69284 6.96411C9.80911 7.01721 9.92203 7.08466 10.0305 7.16431C10.4955 7.50519 10.8917 8.07831 11.1186 8.71887C11.226 9.01993 11.2947 9.33517 11.3158 9.64951C11.3246 9.78119 11.3246 9.91394 11.3158 10.0433C11.3135 10.0798 11.3101 10.1164 11.3069 10.1508C11.2836 10.3687 11.2383 10.5557 11.163 10.7272C11.1729 10.7184 11.1829 10.7083 11.1917 10.6995C11.5549 10.3345 11.7188 10.0024 11.7697 9.51233C11.774 9.478 11.7763 9.4426 11.7796 9.40491C11.7885 9.27551 11.7885 9.14383 11.7796 9.01108C11.7586 8.69797 11.6888 8.3815 11.5825 8.08044C11.3556 7.44095 10.9581 6.86783 10.4944 6.52588C10.3847 6.44623 10.2719 6.37878 10.1567 6.32675L9.08737 5.83984L8.74847 5.68604Z" fill="#FCC368"/>
<path fill-rule="evenodd" clip-rule="evenodd" d="M11.4685 12.8792C11.3577 14.0664 12.0862 15.1286 13.2574 15.4019H17.7266C19.2509 15.4019 19.7047 15.0943 19.7047 13.6935V7.54941C19.7047 7.18427 19.4058 6.8855 19.0405 6.8855H14.3501C11.9368 6.8855 11.9146 7.74518 11.7795 9.01105C11.7883 9.1438 11.7883 9.27548 11.7795 9.40488C11.7763 9.44257 11.774 9.47797 11.7695 9.5123C12.1913 11.6853 11.5658 11.8402 11.4685 12.8792Z" fill="#F0E7D2"/>
<path fill-rule="evenodd" clip-rule="evenodd" d="M14.3623 12.4477L14.225 12.8792L14.039 13.4656C13.9637 13.7047 13.7999 13.8274 13.6947 13.7622C13.0769 13.3749 12.5633 14.2014 13.2795 14.6063C13.4556 14.7049 13.305 14.967 13.2818 15.0656C13.2696 15.1208 13.2618 15.174 13.2574 15.2271C13.2519 15.2869 13.2519 15.3455 13.2574 15.4019C13.336 16.3014 14.6301 16.6611 15.2379 15.4019C15.2855 15.3035 15.3286 15.195 15.3674 15.0766L16.076 12.8792C16.2465 12.3514 16.2066 11.962 16.0438 11.4407L15.6686 10.238H14.2416L14.2372 11.2305L14.4044 11.8369C14.4487 12.1268 14.4497 12.171 14.3623 12.4477Z" fill="#FFDDA6"/>
<path fill-rule="evenodd" clip-rule="evenodd" d="M15.3309 11.4409C15.4925 11.962 15.5334 12.3514 15.363 12.8792L14.8515 14.4659L14.6534 15.0768C14.6158 15.195 14.5726 15.3035 14.525 15.4019C14.3312 15.8025 14.0689 16.0393 13.7977 16.1467C14.2471 16.3336 14.8681 16.1655 15.2379 15.4019C15.2855 15.3035 15.3286 15.195 15.3674 15.0768L15.5523 14.5035L16.076 12.8792C16.076 12.8781 16.076 12.877 16.0771 12.8758C16.0771 12.8758 16.0771 12.8748 16.0771 12.8737C16.0914 12.8305 16.1036 12.7885 16.1146 12.7475C16.2387 12.285 16.1921 11.9188 16.0438 11.443C16.0438 11.442 16.0438 11.442 16.0438 11.4407L15.6686 10.238L15.6553 10.2547C15.6553 10.2557 15.6553 10.2557 15.6541 10.2557C15.653 10.258 15.652 10.2591 15.6509 10.2612C15.5755 10.3564 15.4826 10.4405 15.384 10.518C15.2932 10.5878 15.198 10.6531 15.104 10.7172L15.3309 11.4409Z" fill="#FCC368"/>
<path fill-rule="evenodd" clip-rule="evenodd" d="M11.7796 9.01101L12.9242 10.6043C13.2153 11.0104 13.7346 11.3368 14.2372 11.2306C14.308 11.2162 14.379 11.1929 14.4487 11.1598C14.6213 11.0767 14.8239 10.9129 14.9844 10.8001C15.2158 10.6364 15.4816 10.4792 15.6554 10.2546L15.6686 10.238C16.0129 9.78113 16.0417 9.13263 15.6941 8.64145L14.8073 7.38443C14.6634 7.18637 14.5096 7.02142 14.3501 6.88547C13.0626 5.7966 11.3899 6.65414 11.5826 8.08038C11.6888 8.38144 11.7586 8.69775 11.7796 9.01101Z" fill="#64B0D9"/>
<path fill-rule="evenodd" clip-rule="evenodd" d="M14.1232 7.94558L15.0099 9.20245C15.166 9.4237 15.2456 9.67608 15.2557 9.92938C15.26 10.0324 15.2513 10.1363 15.2324 10.2382C15.1936 10.4395 15.1095 10.632 14.9844 10.8002C14.9855 10.7991 14.9867 10.7981 14.9888 10.7968C15.1173 10.7062 15.2557 10.6177 15.384 10.5181C15.4847 10.4395 15.5778 10.3543 15.6541 10.2559C15.6552 10.2559 15.6552 10.2559 15.6552 10.2547L15.6685 10.2382C15.7405 10.143 15.798 10.0379 15.8423 9.92938C16.0084 9.51556 15.9686 9.02987 15.6939 8.64154L14.8073 7.38452C14.6634 7.18646 14.5094 7.02166 14.3501 6.88556C13.4124 6.09225 12.2688 6.33227 11.7927 7.07354C12.3396 6.85016 13.047 6.92431 13.6659 7.44754C13.8253 7.58258 13.9792 7.74737 14.1232 7.94558Z" fill="#4A83C9"/>
<path d="M19.0405 6.5903H17.3978C17.2346 6.5903 17.1025 6.72244 17.1025 6.88541C17.1025 7.04852 17.2346 7.18066 17.3978 7.18066H19.0405C19.2441 7.18066 19.4096 7.34607 19.4096 7.54932V13.6934C19.4096 14.3206 19.3167 14.6651 19.099 14.8458C18.8782 15.0286 18.4679 15.1067 17.7266 15.1067H15.6679L16.358 12.9665C16.557 12.3505 16.4932 11.8924 16.3257 11.3529L15.9927 10.286C16.1006 10.1099 16.1754 9.9129 16.2115 9.70248C16.2866 9.26715 16.1885 8.82999 15.9352 8.47125L15.0462 7.21118C15.0386 7.20065 15.0308 7.19089 15.0232 7.18066H16.2653C16.4284 7.18066 16.5605 7.04852 16.5605 6.88541C16.5605 6.72244 16.4284 6.5903 16.2653 6.5903H14.4562C13.7265 6.02023 12.9237 6.01489 12.3764 6.23401C11.938 6.40948 11.6113 6.72366 11.4311 7.11536C11.2578 6.85046 11.0567 6.61426 10.8357 6.4223C10.8786 6.2067 10.8577 5.96591 10.7721 5.73322C10.6592 5.42621 10.4486 5.1839 10.1944 5.0687L9.88251 4.92709C9.72672 4.85629 9.55261 4.85049 9.39194 4.91092C9.23157 4.97119 9.10446 5.09006 9.03458 5.24463L8.94104 5.4494L8.8707 5.41736C8.87054 5.41721 8.87024 5.41705 8.86993 5.41705C7.99484 5.01941 7.08405 5.07266 6.30524 5.56705C5.40558 6.13849 4.776 7.24887 4.69681 8.3765C4.26743 8.37497 3.6261 8.39816 3.01804 8.56372V5.14606C3.01804 4.31461 2.34131 3.63818 1.50955 3.63818C0.677185 3.63818 0 4.31445 0 5.14606V17.5052C0 18.17 0.541077 18.711 1.20636 18.711H18.7938C19.4589 18.711 20 18.17 20 17.5052V7.54932C20 7.02045 19.5695 6.5903 19.0405 6.5903ZM15.7961 12.7852L15.0865 14.9858C14.8373 15.7578 14.3532 16.0007 13.9836 15.8991C13.774 15.8412 13.5797 15.6613 13.5519 15.3827C13.5516 15.3772 13.5509 15.3717 13.5503 15.3662C13.5449 15.2951 13.55 15.2182 13.5687 15.1352C13.5712 15.1268 13.5786 15.1068 13.5841 15.0922C13.6118 15.0179 13.6494 14.9161 13.6575 14.8032C13.6716 14.6054 13.5863 14.4397 13.4248 14.3494C13.2982 14.2778 13.2257 14.1875 13.2263 14.1014C13.2266 14.0483 13.2552 13.9997 13.3006 13.9746C13.3617 13.9412 13.4459 13.9547 13.539 14.0129C13.6487 14.0811 13.7843 14.0932 13.911 14.0464C14.0941 13.9785 14.2435 13.7992 14.3202 13.5549L14.6436 12.5367C14.7467 12.2107 14.7458 12.1184 14.696 11.7923C14.6942 11.7809 14.6919 11.7696 14.6887 11.7585L14.5946 11.4167C14.6539 11.3871 14.7125 11.3521 14.7701 11.3114L15.5276 10.7779L15.7619 11.5282C15.9251 12.0543 15.9335 12.3596 15.7961 12.7852ZM11.7624 12.9067C11.7905 12.6076 11.8658 12.3955 11.9533 12.1498C12.1181 11.6869 12.3015 11.1698 12.1547 10.0389L12.6845 10.7762C12.9958 11.2104 13.4988 11.5358 14.0179 11.5461L14.1151 11.8985C14.1513 12.1357 14.1498 12.1407 14.081 12.3583L13.7575 13.3768C13.7486 13.4047 13.7387 13.4276 13.7292 13.4459C13.4868 13.3354 13.233 13.3382 13.0167 13.4572C12.7835 13.5851 12.6378 13.8306 12.6361 14.0978C12.6343 14.3776 12.7858 14.6347 13.0559 14.8149C13.0476 14.841 13.0373 14.869 13.0307 14.8865C13.0167 14.9243 13.0034 14.9601 12.9941 14.9996C12.9935 15.0023 12.993 15.0051 12.9924 15.0078C12.1695 14.6685 11.6747 13.8486 11.7624 12.9067ZM12.5957 6.7821C13.0998 6.58038 13.9188 6.66248 14.566 7.5545L15.4529 8.81152C15.6152 9.04147 15.6779 9.32239 15.6297 9.60223C15.5817 9.88208 15.4285 10.1256 15.1987 10.2875L14.4299 10.8289C13.9557 11.1641 13.4018 10.7634 13.1639 10.432L12.0665 8.9043C12.0386 8.60751 11.972 8.30905 11.8732 8.02127C11.8071 7.47012 12.0888 6.98505 12.5957 6.7821ZM11.2997 8.16425C11.3028 8.17447 11.3063 8.18454 11.3104 8.19431C11.4453 8.5834 11.5123 8.99631 11.4851 9.38403C11.483 9.41287 11.4806 9.44095 11.4778 9.46857C11.4769 9.47543 11.476 9.4823 11.4755 9.48932C11.4301 9.90619 11.2943 10.1778 10.9824 10.4912C10.2039 11.2741 8.77426 11.6217 7.92313 11.2351L6.72592 10.6905C6.91101 9.8302 7.2644 9.47894 7.66891 9.07748C8.20892 8.54175 8.81577 7.93887 9.00726 6.12811L10.0346 6.59549C10.1302 6.63882 10.2232 6.69421 10.3134 6.75906C10.3183 6.76273 10.3233 6.76624 10.3284 6.76974C10.7448 7.07492 11.0957 7.59219 11.2997 8.16425ZM9.57214 5.48892C9.57886 5.47397 9.59076 5.4668 9.59976 5.46344C9.60861 5.46008 9.6228 5.45749 9.63837 5.46466L9.95041 5.60626C10.06 5.65601 10.1601 5.7796 10.2179 5.93707C10.231 5.97247 10.2408 6.00848 10.2487 6.04419L9.47845 5.6937L9.57214 5.48892ZM5.27863 8.58096C5.29129 7.57846 5.83115 6.56757 6.62186 6.0654C6.88614 5.89755 7.2525 5.74191 7.70172 5.74191C7.92725 5.74191 8.17352 5.78113 8.43842 5.87772C8.29239 7.62744 7.78702 8.12869 7.25327 8.65833C6.84113 9.06711 6.41678 9.4881 6.18439 10.4125C5.39124 9.88681 5.27237 9.06039 5.27863 8.58096ZM18.7936 18.1206H1.20636C0.866699 18.1206 0.590363 17.8446 0.590363 17.5052V5.14606C0.590363 4.64008 1.00281 4.22855 1.50955 4.22855C2.01584 4.22855 2.42767 4.64008 2.42767 5.14606V8.96854V8.97128V12.4886C2.42767 12.8667 2.73544 13.1743 3.11371 13.1743H4.92035C5.08347 13.1743 5.21561 13.0422 5.21561 12.8791C5.21561 12.7161 5.08347 12.584 4.92035 12.584H3.11371C3.06183 12.584 3.01804 12.5402 3.01804 12.4884V9.17972C3.5994 8.98959 4.27032 8.96518 4.70688 8.96701C4.81277 9.94525 5.36774 10.7221 6.27014 11.1316C6.27029 11.1318 6.27045 11.1318 6.27045 11.1318L7.67868 11.7725C7.98965 11.9136 8.35419 11.9803 8.7384 11.9803C9.67514 11.9803 10.7281 11.5842 11.4009 10.9075C11.4807 10.8274 11.552 10.748 11.6159 10.6682C11.6345 11.2838 11.5144 11.6219 11.3969 11.9521C11.3284 12.1447 11.2582 12.3423 11.2123 12.584H6.03729C5.87433 12.584 5.74219 12.7161 5.74219 12.8791C5.74219 13.0422 5.87433 13.1743 6.03729 13.1743H11.1635C11.1751 13.7099 11.3391 14.2258 11.6394 14.6537C11.9666 15.1198 12.4432 15.4631 12.9962 15.6359C13.1088 16.0649 13.4473 16.3637 13.8269 16.4682C13.9325 16.4972 14.0428 16.5125 14.155 16.5125C14.6034 16.5125 15.0822 16.269 15.4156 15.6971H17.7266C18.5722 15.6971 19.0704 15.596 19.4096 15.3513V17.5052C19.4096 17.8446 19.1333 18.1206 18.7936 18.1206Z" fill="#1C4685"/>
<path d="M12.1249 3.26028H12.7922L11.9621 4.08578C11.8774 4.17001 11.8518 4.29712 11.8974 4.40759C11.9431 4.51807 12.0508 4.59024 12.1704 4.59024H13.5764C13.7393 4.59024 13.8715 4.4581 13.8715 4.29498C13.8715 4.13202 13.7393 3.99988 13.5764 3.99988H12.8857L13.7158 3.17438C13.8007 3.09 13.8261 2.96289 13.7805 2.85242C13.7349 2.74194 13.6272 2.66992 13.5077 2.66992H12.1249C11.962 2.66992 11.8298 2.80206 11.8298 2.96503C11.8298 3.12814 11.962 3.26028 12.1249 3.26028Z" fill="#1C4685"/>
<path d="M15.0243 1.87943H15.6911L14.8616 2.7037C14.7768 2.78793 14.7511 2.91519 14.7968 3.02567C14.8424 3.13614 14.9501 3.20831 15.0697 3.20831H16.4757C16.6386 3.20831 16.7708 3.07617 16.7708 2.91306C16.7708 2.75009 16.6386 2.61795 16.4757 2.61795H15.7855L16.615 1.79367C16.6998 1.70944 16.7255 1.58234 16.6798 1.47171C16.6344 1.36124 16.5265 1.28906 16.407 1.28906H15.0243C14.8611 1.28906 14.729 1.4212 14.729 1.58432C14.729 1.74728 14.8611 1.87943 15.0243 1.87943Z" fill="#1C4685"/>
</g>
<defs>
<clipPath id="clip0_244_12477">
<rect width="20" height="20" fill="white"/>
</clipPath>
</defs>
</svg>
