<svg width="32" height="32" viewBox="0 0 32 32" fill="none" xmlns="http://www.w3.org/2000/svg">
<g clip-path="url(#clip0_470_21968)">
<g clip-path="url(#clip1_470_21968)">
<path fill-rule="evenodd" clip-rule="evenodd" d="M4.35671 17.3571C-3.17649 30.4753 24.4905 29.8877 20.0818 18.2192C19.7224 18.1184 19.4444 17.2668 19.0635 17.2155C15.6751 16.7534 12.4336 17.0898 7.97365 16.8808C7.28274 16.8667 5.65139 16.8295 4.35671 17.3571Z" fill="#E6E6E6"/>
<path fill-rule="evenodd" clip-rule="evenodd" d="M0.472412 23.6064V31.0083C0.472412 31.8103 1.12769 32.4653 1.93018 32.4653H30.0701C30.8706 32.4653 31.5278 31.8103 31.5278 31.0083V23.6064H4.98193C4.63843 23.6064 4.35669 23.325 4.35669 22.9814V11.2336C4.35669 10.166 3.4834 9.29321 2.41528 9.29321C1.34546 9.29321 0.472412 10.166 0.472412 11.2336V23.6064Z" fill="#41B9D5"/>
<path fill-rule="evenodd" clip-rule="evenodd" d="M7.14648 16.8775C7.22974 20.0536 9.48438 22.7196 12.563 23.6065H18.3496L19.9207 21.0006L18.8315 18.2196C18.75 19.0038 18.4878 19.5348 17.9067 20.119C17.8926 20.1332 17.8767 20.1493 17.8608 20.1632C17.363 20.65 16.7341 21.0306 16.0647 21.2928C14.8247 21.7743 13.4434 21.8434 12.4814 21.4061L10.2283 20.3812C8.6731 19.6747 8.00195 18.317 7.97363 16.8812C7.76807 16.8775 7.4812 16.8705 7.14648 16.8775Z" fill="#C2C7CC"/>
<path fill-rule="evenodd" clip-rule="evenodd" d="M15.999 25.2759C15.7901 27.5879 18.2061 30.0134 20.5884 30.1887H27.7974C30.6721 30.1887 31.5276 29.5903 31.5276 26.8621V23.6064H16.4082C16.2346 24.1111 16.0611 24.5962 15.999 25.2759Z" fill="#41B9D5"/>
<path fill-rule="evenodd" clip-rule="evenodd" d="M14.885 11.5875L14.5396 12.3434L16.2507 13.1225C16.4348 13.2055 16.6155 13.3136 16.7908 13.4411C17.085 12.8161 16.752 11.8283 16.116 11.5397L15.6165 11.3131C15.3401 11.1874 15.0107 11.3095 14.885 11.5875Z" fill="#EDA93B"/>
<path fill-rule="evenodd" clip-rule="evenodd" d="M13.9976 12.0974C13.6274 17.9165 10.8997 16.3215 10.2283 20.3809L12.4814 21.406C13.4434 21.8433 14.8247 21.7742 16.0647 21.2927C16.7556 21.0237 17.4021 20.627 17.9067 20.1189C18.4878 19.5347 18.75 19.0037 18.8315 18.2192C18.8384 18.1646 18.842 18.1077 18.8474 18.0476C18.8616 17.8403 18.8616 17.6296 18.8474 17.4172C18.8137 16.9163 18.7021 16.4099 18.532 15.9285C18.1689 14.9053 17.533 13.988 16.791 13.4412C16.6155 13.3137 16.4351 13.2056 16.2507 13.1226L14.5398 12.3435L13.9976 12.0974Z" fill="#FFDDA6"/>
<path fill-rule="evenodd" clip-rule="evenodd" d="M13.9971 12.0957C10.7019 10.5976 8.00903 13.7778 7.97168 16.7229C7.96997 16.7758 7.96997 16.8291 7.97168 16.8803C8 18.3166 8.67139 19.6748 10.2271 20.3813C10.8984 16.3208 13.627 17.9162 13.9971 12.0957Z" fill="#808080"/>
<path fill-rule="evenodd" clip-rule="evenodd" d="M13.9971 12.0956C11.6833 11.0436 9.66724 12.2975 8.65723 14.1586C9.76465 12.9332 11.4175 12.3117 13.2566 13.1493L13.7986 13.3954L13.8555 13.422C13.9192 13.027 13.967 12.5878 13.9971 12.0956Z" fill="#666666"/>
<path fill-rule="evenodd" clip-rule="evenodd" d="M13.9976 12.0974C13.9675 12.5771 13.9214 13.0073 13.8613 13.3933L15.5085 14.1423C15.6946 14.2273 15.8752 14.3352 16.0488 14.4626C16.7927 15.0081 17.4268 15.925 17.7898 16.95C17.9617 17.4316 18.0715 17.936 18.1052 18.439C18.1194 18.6497 18.1194 18.8621 18.1052 19.0691C18.1016 19.1274 18.0962 19.186 18.0911 19.241C18.0537 19.5896 17.9812 19.8889 17.8608 20.1633C17.8767 20.1492 17.8926 20.1331 17.9067 20.1189C18.4878 19.5349 18.75 19.0037 18.8315 18.2195C18.8384 18.1646 18.842 18.1079 18.8474 18.0476C18.8616 17.8406 18.8616 17.6299 18.8474 17.4175C18.8137 16.9165 18.7021 16.4102 18.532 15.9285C18.1689 14.9053 17.533 13.9883 16.791 13.4412C16.6155 13.3137 16.4351 13.2058 16.2507 13.1226L14.5398 12.3435L13.9976 12.0974Z" fill="#FCC368"/>
<path fill-rule="evenodd" clip-rule="evenodd" d="M18.3496 23.6064C18.1723 25.5061 19.3379 27.2056 21.2119 27.6428H28.3625C30.8015 27.6428 31.5276 27.1506 31.5276 24.9094V15.0789C31.5276 14.4946 31.0493 14.0166 30.4648 14.0166H22.9602C19.0988 14.0166 19.0634 15.3921 18.8471 17.4175C18.8613 17.6299 18.8613 17.8406 18.8471 18.0476C18.842 18.1079 18.8384 18.1646 18.8313 18.2195C19.5061 21.6963 18.5053 21.9441 18.3496 23.6064Z" fill="#F0E7D2"/>
<path fill-rule="evenodd" clip-rule="evenodd" d="M22.9797 22.916L22.76 23.6064L22.4624 24.5447C22.342 24.9272 22.0798 25.1235 21.9116 25.0193C20.9231 24.3997 20.1013 25.7219 21.2473 26.3699C21.529 26.5276 21.2881 26.947 21.251 27.1047C21.2314 27.1931 21.219 27.2781 21.2119 27.363C21.2031 27.4587 21.2031 27.5525 21.2119 27.6428C21.3376 29.082 23.4082 29.6575 24.3806 27.6428C24.4568 27.4854 24.5259 27.3118 24.5879 27.1223L25.7217 23.6064C25.9944 22.762 25.9307 22.1389 25.6702 21.3049L25.0698 19.3806H22.7866L22.7795 20.9685L23.0471 21.9387C23.1179 22.4026 23.1196 22.4734 22.9797 22.916Z" fill="#FFDDA6"/>
<path fill-rule="evenodd" clip-rule="evenodd" d="M24.5295 21.3052C24.7881 22.1389 24.8535 22.762 24.5808 23.6064L23.7625 26.1453L23.4456 27.1226C23.3853 27.3118 23.3162 27.4854 23.24 27.6428C22.9299 28.2837 22.5103 28.6626 22.0764 28.8345C22.7954 29.1335 23.7891 28.8645 24.3806 27.6428C24.4568 27.4854 24.5259 27.3118 24.5879 27.1226L24.8838 26.2053L25.7217 23.6064C25.7217 23.6047 25.7217 23.603 25.7234 23.6011C25.7234 23.6011 25.7234 23.5994 25.7234 23.5977C25.7463 23.5286 25.7659 23.4614 25.7834 23.3958C25.9819 22.6558 25.9075 22.0698 25.6702 21.3086C25.6702 21.3069 25.6702 21.3069 25.6702 21.3049L25.0698 19.3806L25.0486 19.4072C25.0486 19.4089 25.0486 19.4089 25.0466 19.4089C25.0449 19.4126 25.0432 19.4143 25.0415 19.4177C24.9209 19.5701 24.7722 19.7046 24.6145 19.8286C24.4692 19.9402 24.3169 20.0447 24.1665 20.1472L24.5295 21.3052Z" fill="#FCC368"/>
<path fill-rule="evenodd" clip-rule="evenodd" d="M18.8474 17.4174L20.6787 19.9667C21.1445 20.6164 21.9753 21.1386 22.7795 20.9686C22.8928 20.9457 23.0063 20.9083 23.1179 20.8554C23.394 20.7226 23.7183 20.4603 23.9751 20.2799C24.3452 20.018 24.7705 19.7665 25.0486 19.4071L25.0698 19.3805C25.6206 18.6496 25.6667 17.612 25.1106 16.8261L23.6917 14.8148C23.4614 14.4979 23.2153 14.234 22.9602 14.0165C20.9001 12.2743 18.2239 13.6464 18.5322 15.9284C18.7021 16.4101 18.8137 16.9162 18.8474 17.4174Z" fill="#64B0D9"/>
<path fill-rule="evenodd" clip-rule="evenodd" d="M22.5972 15.7125L24.0159 17.7235C24.2656 18.0775 24.3931 18.4813 24.4092 18.8866C24.416 19.0514 24.4021 19.2177 24.3718 19.3808C24.3098 19.7028 24.1753 20.0109 23.9751 20.2799C23.9768 20.2782 23.9788 20.2765 23.9822 20.2746C24.1877 20.1295 24.4092 19.9879 24.6145 19.8285C24.7756 19.7028 24.9246 19.5665 25.0466 19.4091C25.0483 19.4091 25.0483 19.4091 25.0483 19.4071L25.0696 19.3808C25.1848 19.2284 25.2769 19.0602 25.3477 18.8866C25.6135 18.2245 25.5498 17.4474 25.1104 16.8261L23.6917 14.8148C23.4614 14.4979 23.2151 14.2343 22.9602 14.0165C21.46 12.7472 19.6301 13.1312 18.8684 14.3173C19.7434 13.9599 20.8752 14.0785 21.8655 14.9157C22.1206 15.1317 22.3667 15.3954 22.5972 15.7125Z" fill="#4A83C9"/>
<path d="M30.4648 13.5444H27.8364C27.5754 13.5444 27.364 13.7559 27.364 14.0166C27.364 14.2776 27.5754 14.489 27.8364 14.489H30.4648C30.7905 14.489 31.0554 14.7537 31.0554 15.0789V24.9094C31.0554 25.9128 30.9067 26.4641 30.5583 26.7532C30.2051 27.0457 29.5486 27.1707 28.3625 27.1707H25.0686L26.1729 23.7463C26.4912 22.7607 26.3892 22.0278 26.1211 21.1646L25.5884 19.4575C25.761 19.1758 25.8806 18.8606 25.9385 18.5239C26.0586 17.8274 25.9016 17.1279 25.4963 16.554L24.074 14.5378C24.0618 14.521 24.0493 14.5054 24.0371 14.489H26.0244C26.2854 14.489 26.4968 14.2776 26.4968 14.0166C26.4968 13.7559 26.2854 13.5444 26.0244 13.5444H23.1299C21.9624 12.6323 20.678 12.6238 19.8022 12.9744C19.1008 13.2551 18.5781 13.7578 18.2898 14.3845C18.0125 13.9607 17.6907 13.5828 17.3372 13.2756C17.4058 12.9307 17.3723 12.5454 17.2354 12.1731C17.0547 11.6819 16.7178 11.2942 16.311 11.1099L15.812 10.8833C15.5627 10.77 15.2842 10.7607 15.0271 10.8574C14.7705 10.9539 14.5671 11.144 14.4553 11.3914L14.3057 11.719L14.1931 11.6677C14.1929 11.6675 14.1924 11.6672 14.1919 11.6672C12.7917 11.031 11.3345 11.1162 10.0884 11.9072C8.64893 12.8215 7.6416 14.5981 7.51489 16.4023C6.82788 16.3999 5.80176 16.437 4.82886 16.7019V11.2336C4.82886 9.90332 3.74609 8.82104 2.41528 8.82104C1.0835 8.82104 0 9.90308 0 11.2336V31.0083C0 32.072 0.865723 32.9375 1.93018 32.9375H30.0701C31.1343 32.9375 32 32.072 32 31.0083V15.0789C32 14.2327 31.3113 13.5444 30.4648 13.5444ZM25.2737 23.4563L24.1384 26.9773C23.7397 28.2124 22.9651 28.6011 22.3738 28.4385C22.0383 28.3459 21.7275 28.0581 21.6831 27.6123C21.6826 27.6035 21.6814 27.5947 21.6804 27.5859C21.6719 27.4722 21.6799 27.3491 21.71 27.2163C21.7139 27.2029 21.7258 27.1709 21.7346 27.1475C21.7788 27.0286 21.8391 26.8657 21.8521 26.6851C21.8745 26.3687 21.738 26.1035 21.4797 25.959C21.2771 25.8445 21.1611 25.7 21.1621 25.5623C21.1626 25.4773 21.2083 25.3994 21.281 25.3594C21.3787 25.3059 21.5134 25.3274 21.6624 25.4207C21.8379 25.5298 22.0549 25.5491 22.2576 25.4741C22.5505 25.3655 22.7896 25.0786 22.9124 24.6877L23.4297 23.0586C23.5947 22.5371 23.5933 22.3894 23.5137 21.8677C23.5107 21.8494 23.5071 21.8313 23.502 21.8135L23.3513 21.2666C23.4463 21.2192 23.54 21.1633 23.6321 21.0981L24.8442 20.2446L25.219 21.4451C25.4802 22.2869 25.4937 22.7754 25.2737 23.4563ZM18.8198 23.6506C18.8647 23.1721 18.9854 22.8328 19.1252 22.4397C19.3889 21.699 19.6824 20.8716 19.4475 19.0623L20.2952 20.2419C20.7932 20.9365 21.5981 21.4573 22.4287 21.4736L22.5842 22.0376C22.6421 22.417 22.6396 22.425 22.5295 22.7732L22.012 24.4028C21.9978 24.4475 21.9819 24.4841 21.9668 24.5134C21.5789 24.3367 21.1729 24.3411 20.8267 24.5315C20.4536 24.7361 20.2205 25.1289 20.2178 25.5564C20.2148 26.0042 20.4573 26.4155 20.8894 26.7039C20.8762 26.7456 20.8596 26.7903 20.8491 26.8184C20.8267 26.8789 20.8054 26.936 20.7905 26.9993C20.7896 27.0037 20.7888 27.0081 20.7878 27.0125C19.4712 26.4695 18.6794 25.1577 18.8198 23.6506ZM20.1531 13.8513C20.9597 13.5286 22.27 13.6599 23.3057 15.0872L24.7246 17.0984C24.9844 17.4663 25.0847 17.9158 25.0076 18.3635C24.9307 18.8113 24.6855 19.2009 24.3179 19.46L23.0879 20.3262C22.3291 20.8625 21.4429 20.2214 21.0623 19.6912L19.3064 17.2468C19.2617 16.772 19.1553 16.2944 18.9971 15.834C18.8914 14.9521 19.342 14.176 20.1531 13.8513ZM18.0796 16.0627C18.0845 16.0791 18.0901 16.0952 18.0967 16.1108C18.3125 16.7334 18.4197 17.394 18.3762 18.0144C18.3728 18.0605 18.3689 18.1055 18.3645 18.1497C18.363 18.1606 18.3616 18.1716 18.3608 18.1829C18.2881 18.8499 18.0708 19.2844 17.5718 19.7859C16.3262 21.0386 14.0388 21.5947 12.677 20.9761L10.7615 20.1047C11.0576 18.7283 11.623 18.1663 12.2703 17.5239C13.1343 16.6667 14.1052 15.7021 14.4116 12.8049L16.0554 13.5527C16.2083 13.6221 16.3572 13.7107 16.5015 13.8145C16.5093 13.8203 16.5173 13.8259 16.5254 13.8315C17.1917 14.3198 17.7532 15.1475 18.0796 16.0627ZM15.3154 11.7822C15.3262 11.7583 15.3452 11.7468 15.3596 11.7415C15.3738 11.7361 15.3965 11.7319 15.4214 11.7434L15.9207 11.97C16.0959 12.0496 16.2561 12.2473 16.3486 12.4993C16.3696 12.5559 16.3853 12.6135 16.3979 12.6707L15.1655 12.1099L15.3154 11.7822ZM8.4458 16.7295C8.46606 15.1255 9.32983 13.5081 10.595 12.7046C11.0178 12.436 11.604 12.187 12.3228 12.187C12.6836 12.187 13.0776 12.2498 13.5015 12.4043C13.2678 15.2039 12.4592 16.0059 11.6052 16.8533C10.9458 17.5073 10.2668 18.1809 9.89502 19.6599C8.62598 18.8188 8.43579 17.4966 8.4458 16.7295ZM30.0698 31.9929H1.93018C1.38672 31.9929 0.94458 31.5513 0.94458 31.0083V11.2336C0.94458 10.4241 1.60449 9.76562 2.41528 9.76562C3.22534 9.76562 3.88428 10.4241 3.88428 11.2336V17.3496V17.354V22.9817C3.88428 23.5867 4.37671 24.0789 4.98193 24.0789H7.87256C8.13354 24.0789 8.34497 23.8674 8.34497 23.6064C8.34497 23.3457 8.13354 23.1343 7.87256 23.1343H4.98193C4.89893 23.1343 4.82886 23.0642 4.82886 22.9814V17.6875C5.75903 17.3833 6.83252 17.3442 7.53101 17.3472C7.70044 18.9124 8.58838 20.1553 10.0322 20.8105C10.0325 20.8108 10.0327 20.8108 10.0327 20.8108L12.2859 21.8359C12.7834 22.0618 13.3667 22.1685 13.9814 22.1685C15.4802 22.1685 17.165 21.5347 18.2415 20.4519C18.3691 20.3237 18.4832 20.1968 18.5854 20.0691C18.6152 21.054 18.4231 21.595 18.2351 22.1233C18.1255 22.4314 18.0132 22.7476 17.9397 23.1343H9.65967C9.39893 23.1343 9.1875 23.3457 9.1875 23.6064C9.1875 23.8674 9.39893 24.0789 9.65967 24.0789H17.8616C17.8801 24.9358 18.1426 25.7612 18.623 26.4458C19.1465 27.1917 19.9092 27.741 20.7939 28.0173C20.9741 28.7039 21.5156 29.1819 22.123 29.3491C22.292 29.3955 22.4685 29.4199 22.6479 29.4199C23.3655 29.4199 24.1316 29.0303 24.665 28.1152H28.3625C29.7156 28.1152 30.5127 27.9536 31.0554 27.562V31.0083C31.0554 31.5513 30.6133 31.9929 30.0698 31.9929Z" fill="#1C4685"/>
<path d="M19.3999 8.21655H20.4675L19.1394 9.53735C19.0039 9.67212 18.9629 9.87549 19.0359 10.0522C19.1089 10.229 19.2812 10.3445 19.4727 10.3445H21.7222C21.9829 10.3445 22.1943 10.1331 22.1943 9.87207C22.1943 9.61133 21.9829 9.3999 21.7222 9.3999H20.6172L21.9453 8.0791C22.0811 7.94409 22.1218 7.74072 22.0488 7.56396C21.9758 7.38721 21.8035 7.27197 21.6123 7.27197H19.3999C19.1392 7.27197 18.9277 7.4834 18.9277 7.74414C18.9277 8.00513 19.1392 8.21655 19.3999 8.21655Z" fill="#1C4685"/>
<path d="M24.0388 6.00708H25.1057L23.7786 7.32593C23.6428 7.46069 23.6018 7.66431 23.6748 7.84106C23.7478 8.01782 23.9202 8.1333 24.1116 8.1333H26.3611C26.6218 8.1333 26.8333 7.92188 26.8333 7.66089C26.8333 7.40015 26.6218 7.18872 26.3611 7.18872H25.2568L26.584 5.86987C26.7197 5.73511 26.7607 5.53174 26.6877 5.35474C26.615 5.17798 26.4424 5.0625 26.2512 5.0625H24.0388C23.7778 5.0625 23.5664 5.27393 23.5664 5.53491C23.5664 5.79565 23.7778 6.00708 24.0388 6.00708Z" fill="#1C4685"/>
</g>
</g>
<defs>
<clipPath id="clip0_470_21968">
<rect width="32" height="32" fill="white"/>
</clipPath>
<clipPath id="clip1_470_21968">
<rect width="32" height="32" fill="white" transform="translate(0 3)"/>
</clipPath>
</defs>
</svg>
