<svg width="236" height="224" viewBox="0 0 236 224" fill="none" xmlns="http://www.w3.org/2000/svg">
<g opacity="0.12" clip-path="url(#clip0_470_22235)">
<g clip-path="url(#clip1_470_22235)">
<path fill-rule="evenodd" clip-rule="evenodd" d="M32.1305 128.009C-23.4268 224.756 180.617 220.422 148.103 134.367C145.453 133.623 143.402 127.343 140.593 126.965C115.603 123.557 91.6977 126.038 58.8055 124.497C53.71 124.392 41.6788 124.118 32.1305 128.009Z" fill="#E6E6E6"/>
<path fill-rule="evenodd" clip-rule="evenodd" d="M3.48401 174.098V228.686C3.48401 234.601 8.31665 239.432 14.235 239.432H221.767C227.671 239.432 232.518 234.601 232.518 228.686V174.098H36.7417C34.2084 174.098 32.1306 172.022 32.1306 169.488V82.8483C32.1306 74.9745 25.69 68.5376 17.8127 68.5376C9.92273 68.5376 3.48401 74.9745 3.48401 82.8483V174.098Z" fill="#41B9D5"/>
<path fill-rule="evenodd" clip-rule="evenodd" d="M52.7053 124.471C53.3193 147.894 69.9473 167.556 92.652 174.097H135.328L146.915 154.879L138.883 134.369C138.281 140.152 136.347 144.068 132.062 148.377C131.958 148.481 131.841 148.6 131.724 148.703C128.052 152.293 123.414 155.1 118.477 157.034C109.332 160.584 99.1448 161.094 92.0507 157.869L75.4335 150.311C63.9641 145.1 59.0144 135.087 58.8055 124.498C57.2895 124.471 55.1739 124.419 52.7053 124.471Z" fill="#C2C7CC"/>
<path fill-rule="evenodd" clip-rule="evenodd" d="M117.993 186.41C116.452 203.461 134.27 221.349 151.839 222.642H205.006C226.207 222.642 232.516 218.229 232.516 198.108V174.098H121.01C119.73 177.819 118.45 181.397 117.993 186.41Z" fill="#41B9D5"/>
<path fill-rule="evenodd" clip-rule="evenodd" d="M109.777 85.4589L107.229 91.0334L119.849 96.7789C121.207 97.3911 122.539 98.1887 123.832 99.1286C126.002 94.5192 123.546 87.2342 118.855 85.106L115.171 83.4351C113.133 82.5078 110.704 83.4081 109.777 85.4589Z" fill="#EDA93B"/>
<path fill-rule="evenodd" clip-rule="evenodd" d="M103.232 89.2188C100.502 132.135 80.3849 120.372 75.4335 150.309L92.0506 157.87C99.1447 161.094 109.332 160.585 118.477 157.034C123.573 155.05 128.34 152.124 132.062 148.377C136.347 144.069 138.281 140.152 138.883 134.367C138.933 133.964 138.96 133.544 139 133.101C139.104 131.573 139.104 130.019 139 128.452C138.751 124.758 137.928 121.023 136.673 117.473C133.996 109.927 129.306 103.162 123.834 99.1289C122.539 98.189 121.209 97.3914 119.849 96.7792L107.231 91.0337L103.232 89.2188Z" fill="#FFDDA6"/>
<path fill-rule="evenodd" clip-rule="evenodd" d="M103.228 89.2061C78.9265 78.158 59.0666 101.612 58.7911 123.332C58.7785 123.722 58.7785 124.115 58.7911 124.493C59 135.086 63.9515 145.102 75.4245 150.313C80.376 120.366 100.499 132.133 103.228 89.2061Z" fill="#808080"/>
<path fill-rule="evenodd" clip-rule="evenodd" d="M103.228 89.206C86.1647 81.4474 71.2959 90.695 63.847 104.421C72.0143 95.3836 84.2039 90.7994 97.7674 96.9771L101.765 98.792L102.184 98.9883C102.654 96.075 103.007 92.8358 103.228 89.206Z" fill="#666666"/>
<path fill-rule="evenodd" clip-rule="evenodd" d="M103.232 89.2188C103.011 92.7568 102.67 95.9294 102.227 98.776L114.376 104.3C115.748 104.927 117.08 105.722 118.36 106.662C123.846 110.685 128.522 117.448 131.2 125.006C132.467 128.559 133.278 132.279 133.526 135.988C133.63 137.542 133.63 139.108 133.526 140.635C133.499 141.065 133.459 141.497 133.422 141.902C133.146 144.474 132.611 146.681 131.724 148.705C131.841 148.6 131.958 148.482 132.062 148.377C136.347 144.07 138.281 140.152 138.883 134.369C138.933 133.964 138.96 133.546 139 133.101C139.104 131.575 139.104 130.021 139 128.454C138.751 124.76 137.928 121.025 136.673 117.473C133.996 109.927 129.306 103.164 123.834 99.1289C122.539 98.189 121.209 97.3932 119.849 96.7792L107.231 91.0337L103.232 89.2188Z" fill="#FCC368"/>
<path fill-rule="evenodd" clip-rule="evenodd" d="M135.328 174.098C134.021 188.108 142.617 200.641 156.438 203.866H209.174C227.161 203.866 232.516 200.236 232.516 183.707V111.207C232.516 106.898 228.989 103.373 224.678 103.373H169.331C140.854 103.373 140.593 113.517 138.998 128.454C139.102 130.021 139.102 131.574 138.998 133.101C138.96 133.546 138.933 133.964 138.881 134.369C143.857 160.01 136.477 161.838 135.328 174.098Z" fill="#F0E7D2"/>
<path fill-rule="evenodd" clip-rule="evenodd" d="M169.476 169.006L167.855 174.098L165.66 181.017C164.773 183.839 162.839 185.286 161.598 184.517C154.308 179.948 148.247 189.699 156.699 194.478C158.777 195.641 157 198.734 156.726 199.898C156.582 200.549 156.49 201.176 156.438 201.802C156.373 202.508 156.373 203.2 156.438 203.866C157.365 214.48 172.635 218.724 179.807 203.866C180.369 202.705 180.878 201.424 181.336 200.027L189.697 174.098C191.709 167.87 191.239 163.275 189.317 157.124L184.89 142.932H168.051L167.999 154.643L169.972 161.798C170.495 165.219 170.507 165.741 169.476 169.006Z" fill="#FFDDA6"/>
<path fill-rule="evenodd" clip-rule="evenodd" d="M180.905 157.126C182.812 163.275 183.295 167.87 181.283 174.098L175.248 192.821L172.911 200.029C172.466 201.424 171.957 202.705 171.395 203.866C169.108 208.592 166.013 211.387 162.814 212.654C168.116 214.86 175.444 212.876 179.807 203.866C180.369 202.705 180.878 201.424 181.336 200.029L183.518 193.264L189.697 174.098C189.697 174.085 189.697 174.072 189.71 174.058C189.71 174.058 189.71 174.045 189.71 174.033C189.879 173.523 190.023 173.028 190.153 172.544C191.617 167.086 191.068 162.765 189.317 157.151C189.317 157.138 189.317 157.138 189.317 157.124L184.89 142.932L184.733 143.128C184.733 143.141 184.733 143.141 184.719 143.141C184.706 143.168 184.694 143.181 184.681 143.206C183.792 144.329 182.695 145.321 181.532 146.236C180.461 147.059 179.337 147.83 178.228 148.586L180.905 157.126Z" fill="#FCC368"/>
<path fill-rule="evenodd" clip-rule="evenodd" d="M139 128.454L152.505 147.255C155.941 152.047 162.068 155.898 167.999 154.645C168.835 154.476 169.672 154.2 170.495 153.809C172.531 152.83 174.922 150.896 176.816 149.566C179.546 147.634 182.682 145.779 184.733 143.129L184.89 142.932C188.952 137.542 189.292 129.889 185.191 124.093L174.726 109.261C173.028 106.923 171.213 104.977 169.332 103.373C154.139 90.5241 134.401 100.643 136.675 117.473C137.928 121.025 138.751 124.758 139 128.454Z" fill="#64B0D9"/>
<path fill-rule="evenodd" clip-rule="evenodd" d="M166.654 115.881L177.117 130.712C178.959 133.323 179.899 136.301 180.018 139.29C180.068 140.505 179.965 141.731 179.742 142.934C179.285 145.309 178.293 147.581 176.816 149.565C176.829 149.553 176.843 149.54 176.869 149.526C178.385 148.456 180.018 147.412 181.532 146.236C182.72 145.309 183.819 144.304 184.719 143.143C184.731 143.143 184.731 143.143 184.731 143.128L184.888 142.934C185.738 141.81 186.417 140.57 186.939 139.29C188.9 134.406 188.43 128.675 185.189 124.093L174.726 109.26C173.028 106.923 171.211 104.978 169.331 103.372C158.267 94.0114 144.772 96.8437 139.154 105.591C145.608 102.955 153.955 103.83 161.258 110.004C163.139 111.597 164.954 113.542 166.654 115.881Z" fill="#4A83C9"/>
<path d="M224.678 99.8902H205.294C203.369 99.8902 201.81 101.449 201.81 103.372C201.81 105.297 203.369 106.856 205.294 106.856H224.678C227.08 106.856 229.034 108.808 229.034 111.207V183.707C229.034 191.107 227.937 195.173 225.368 197.305C222.762 199.462 217.921 200.384 209.174 200.384H184.881L193.025 175.129C195.373 167.86 194.62 162.455 192.643 156.089L188.714 143.499C189.987 141.421 190.87 139.097 191.296 136.614C192.182 131.477 191.024 126.318 188.035 122.085L177.546 107.217C177.456 107.092 177.364 106.977 177.274 106.856H191.93C193.855 106.856 195.414 105.297 195.414 103.372C195.414 101.449 193.855 99.8902 191.93 99.8902H170.583C161.973 93.1634 152.5 93.1003 146.042 95.6859C140.869 97.7565 137.014 101.464 134.887 106.086C132.842 102.96 130.469 100.173 127.862 97.9078C128.367 95.3636 128.121 92.5224 127.111 89.7766C125.778 86.1539 123.294 83.2946 120.294 81.9352L116.614 80.2643C114.775 79.4289 112.721 79.3604 110.825 80.0735C108.932 80.7847 107.433 82.1873 106.608 84.0112L105.504 86.4276L104.674 86.0494C104.672 86.0476 104.669 86.0458 104.665 86.0458C94.3391 81.3536 83.5917 81.982 74.4018 87.8158C63.7858 94.5588 56.3568 107.661 55.4223 120.967C50.3556 120.949 42.788 121.223 35.6128 123.177V82.8481C35.6128 73.037 27.6274 65.0552 17.8127 65.0552C7.99078 65.0552 0 73.0352 0 82.8481V228.686C0 236.531 6.3847 242.914 14.235 242.914H221.767C229.615 242.914 236 236.531 236 228.686V111.207C236 104.966 230.921 99.8902 224.678 99.8902ZM186.393 172.99L178.021 198.958C175.081 208.066 169.368 210.933 165.007 209.734C162.533 209.051 160.241 206.928 159.913 203.641C159.909 203.576 159.9 203.511 159.893 203.446C159.83 202.607 159.889 201.7 160.111 200.72C160.14 200.621 160.228 200.385 160.293 200.212C160.619 199.336 161.063 198.135 161.159 196.802C161.325 194.469 160.318 192.513 158.413 191.447C156.919 190.603 156.063 189.537 156.071 188.522C156.074 187.895 156.411 187.321 156.947 187.025C157.668 186.631 158.662 186.789 159.76 187.477C161.054 188.282 162.655 188.424 164.15 187.872C166.31 187.07 168.073 184.955 168.979 182.072L172.794 170.057C174.011 166.211 174 165.122 173.413 161.274C173.392 161.139 173.365 161.006 173.327 160.874L172.216 156.841C172.916 156.492 173.608 156.08 174.287 155.599L183.226 149.304L185.99 158.157C187.917 164.366 188.016 167.968 186.393 172.99ZM138.796 174.423C139.128 170.894 140.017 168.392 141.049 165.493C142.993 160.03 145.158 153.928 143.425 140.584L149.677 149.284C153.35 154.407 159.286 158.247 165.412 158.368L166.559 162.527C166.985 165.325 166.967 165.385 166.155 167.952L162.338 179.971C162.234 180.3 162.117 180.57 162.005 180.786C159.144 179.483 156.15 179.515 153.597 180.92C150.845 182.429 149.126 185.326 149.106 188.478C149.084 191.781 150.872 194.814 154.059 196.941C153.962 197.249 153.84 197.578 153.762 197.785C153.597 198.232 153.44 198.653 153.33 199.12C153.323 199.152 153.318 199.184 153.31 199.217C143.6 195.212 137.761 185.538 138.796 174.423ZM148.629 102.153C154.578 99.7731 164.241 100.742 171.879 111.268L182.344 126.101C184.26 128.814 185 132.129 184.431 135.431C183.864 138.733 182.056 141.607 179.344 143.517L170.273 149.905C164.677 153.861 158.141 149.133 155.334 145.222L142.385 127.195C142.055 123.693 141.27 120.171 140.103 116.776C139.324 110.272 142.648 104.548 148.629 102.153ZM133.337 118.463C133.373 118.583 133.414 118.702 133.463 118.817C135.055 123.409 135.845 128.281 135.525 132.856C135.499 133.197 135.471 133.528 135.438 133.854C135.427 133.935 135.417 134.016 135.411 134.099C134.875 139.018 133.272 142.223 129.592 145.921C120.406 155.159 103.536 159.261 93.4929 154.699L79.3659 148.272C81.5499 138.121 85.72 133.976 90.4932 129.239C96.8653 122.917 104.026 115.803 106.286 94.4363L118.409 99.9514C119.536 100.463 120.634 101.116 121.698 101.882C121.756 101.925 121.815 101.966 121.875 102.008C126.788 105.609 130.93 111.712 133.337 118.463ZM112.951 86.8939C113.031 86.7174 113.171 86.6328 113.277 86.5932C113.382 86.5536 113.549 86.523 113.733 86.6076L117.415 88.2785C118.708 88.8655 119.889 90.3239 120.571 92.1821C120.726 92.5998 120.841 93.0247 120.935 93.446L111.846 89.3102L112.951 86.8939ZM62.2878 123.38C62.4372 111.55 68.8075 99.6219 78.1379 93.6963C81.2564 91.7157 85.5795 89.8792 90.8803 89.8792C93.5415 89.8792 96.4476 90.3419 99.5733 91.4817C97.8502 112.128 91.8868 118.043 85.5885 124.293C80.7253 129.116 75.718 134.084 72.9758 144.992C63.6166 138.789 62.214 129.037 62.2878 123.38ZM221.765 235.948H14.235C10.2271 235.948 6.96628 232.691 6.96628 228.686V82.8481C6.96628 76.8775 11.8331 72.0215 17.8127 72.0215C23.7869 72.0215 28.6465 76.8775 28.6465 82.8481V127.953V127.986V169.49C28.6465 173.952 32.2782 177.582 36.7418 177.582H58.0601C59.9849 177.582 61.5442 176.022 61.5442 174.098C61.5442 172.175 59.9849 170.615 58.0601 170.615H36.7418C36.1296 170.615 35.6128 170.099 35.6128 169.488V130.445C42.4729 128.202 50.3898 127.914 55.5412 127.935C56.7907 139.479 63.3393 148.645 73.9877 153.478C73.9895 153.48 73.9913 153.48 73.9913 153.48L90.6084 161.04C94.2779 162.706 98.5794 163.492 103.113 163.492C114.167 163.492 126.592 158.818 134.531 150.833C135.472 149.887 136.313 148.951 137.068 148.01C137.287 155.273 135.87 159.263 134.484 163.159C133.675 165.432 132.847 167.763 132.305 170.615H71.2401C69.3171 170.615 67.7578 172.175 67.7578 174.098C67.7578 176.022 69.3171 177.582 71.2401 177.582H131.729C131.866 183.901 133.802 189.989 137.345 195.038C141.205 200.538 146.83 204.59 153.355 206.628C154.684 211.691 158.678 215.216 163.157 216.45C164.403 216.792 165.705 216.972 167.029 216.972C172.32 216.972 177.97 214.098 181.905 207.35H209.174C219.152 207.35 225.031 206.158 229.034 203.27V228.686C229.034 232.691 225.773 235.948 221.765 235.948Z" fill="#1C4685"/>
<path d="M143.074 60.5971H150.948L141.153 70.338C140.154 71.3319 139.851 72.8318 140.39 74.1354C140.928 75.439 142.199 76.2906 143.611 76.2906H160.201C162.124 76.2906 163.683 74.7314 163.683 72.8066C163.683 70.8836 162.124 69.3243 160.201 69.3243H152.052L161.847 59.5834C162.848 58.5877 163.148 57.0879 162.61 55.7843C162.072 54.4807 160.801 53.6309 159.391 53.6309H143.074C141.151 53.6309 139.592 55.1901 139.592 57.1131C139.592 59.0379 141.151 60.5971 143.074 60.5971Z" fill="#1C4685"/>
<path d="M177.286 44.3022H185.155L175.367 54.0287C174.366 55.0226 174.063 56.5243 174.602 57.8279C175.14 59.1314 176.411 59.9831 177.823 59.9831H194.413C196.336 59.9831 197.895 58.4238 197.895 56.4991C197.895 54.5761 196.336 53.0168 194.413 53.0168H186.269L196.057 43.2903C197.058 42.2964 197.36 40.7966 196.822 39.4912C196.286 38.1876 195.013 37.3359 193.603 37.3359H177.286C175.362 37.3359 173.802 38.8952 173.802 40.82C173.802 42.743 175.362 44.3022 177.286 44.3022Z" fill="#1C4685"/>
</g>
</g>
<defs>
<clipPath id="clip0_470_22235">
<rect width="236" height="236" fill="white"/>
</clipPath>
<clipPath id="clip1_470_22235">
<rect width="236" height="236" fill="white" transform="translate(0 22.125)"/>
</clipPath>
</defs>
</svg>
