<svg width="113" height="127" viewBox="0 0 113 127" fill="none" xmlns="http://www.w3.org/2000/svg">
<g style="mix-blend-mode:luminosity" opacity="0.2" clip-path="url(#clip0_1749_16164)">
<path d="M51.9723 126.946L66.5924 127L127 92.0452L80.8757 66.4756L41.3272 68.5222L0.848877 92.3549L24.6723 106.56L22.2873 108.553L51.9723 126.946Z" fill="#CCBFA3" fill-opacity="0.2"/>
<path d="M53.1851 83.2665L54.5595 82.4721L58.6154 56.1888L74.1923 47.1943L78.2482 77.7056L79.6226 76.9112L75.3376 44.9727L57.4566 55.2867L53.1851 83.2665Z" fill="#FAECC3"/>
<path d="M52.0127 82.5931L53.185 83.2664L57.47 55.3L56.2977 54.6133L52.0127 82.5931Z" fill="#F2EEE5"/>
<path d="M78.2481 77.7188L77.0758 77.032L73.222 47.8L74.1922 47.2075L78.2481 77.7188Z" fill="#FFFAEB"/>
<path d="M75.3511 44.986L74.1788 44.2993L56.2977 54.6134L57.47 55.3001L75.3511 44.986Z" fill="#DEC8A4"/>
<path d="M76.9546 97.2426L78.329 96.4482L82.3849 70.1649L97.9618 61.1704L102.018 82.7814L103.392 81.987L99.1072 58.9487L81.2261 69.2628L76.9546 97.2426Z" fill="#FAECC3"/>
<path d="M75.7822 96.5562L76.9545 97.2429L81.2395 69.2631L80.0672 68.5898L75.7822 96.5562Z" fill="#FFFAEB"/>
<path d="M102.018 82.7814L100.845 82.0947L96.9916 61.7629L97.9618 61.1704L102.018 82.7814Z" fill="#FFFAEB"/>
<path d="M99.1206 58.9489L97.9483 58.2622L80.0673 68.5897L81.2396 69.2629L99.1206 58.9489Z" fill="#DEC8A4"/>
<path d="M100.158 58.3161L76.2269 44.205L78.4907 9.72168L81.0779 10.5969L103.662 23.1461L101.384 57.6294L100.158 58.3161Z" fill="#666666"/>
<path d="M102.422 23.8327L78.4907 9.72164L79.5822 9.11572L103.662 23.146L102.422 23.8327Z" fill="#999999"/>
<path d="M102.422 23.8327L100.158 58.3161L101.384 57.6293L103.662 23.146L102.422 23.8327Z" fill="#4D4D4D"/>
<path d="M79.9325 70.0847L55.9878 55.9332V54.7617L76.2269 45.269L100.266 57.1046L100.158 58.303L79.9325 70.0847Z" fill="#666666"/>
<path d="M79.9325 68.9265L55.9878 54.7615L76.3347 42.9395L100.266 57.1044L79.9325 68.9265Z" fill="#999999"/>
<path d="M79.9325 68.9265L55.9878 54.7615L76.3347 42.9395L100.266 57.1044L79.9325 68.9265Z" fill="#999999"/>
<path d="M79.9325 68.9266V70.0846L100.158 58.3029L100.266 57.1045L79.9325 68.9266Z" fill="#4D4D4D"/>
<path d="M102.435 23.8325L98.2852 54.4515L93.5959 60.9684L100.266 57.0906L102.435 23.8325Z" fill="#4D4D4D"/>
<path d="M93.5959 60.9688L92.8413 60.538L97.5305 54.021L98.2851 54.4519L93.5959 60.9688Z" fill="#999999"/>
<path d="M98.2851 54.4517L97.5305 54.0208L101.681 23.4019L102.435 23.8327L98.2851 54.4517Z" fill="#999999"/>
<path d="M79.2453 10.1523L75.1085 40.7309L70.4193 47.2479L77.0893 43.37L79.2453 10.1523Z" fill="#4D4D4D"/>
<path d="M70.4193 47.2476L69.6647 46.8302L74.3539 40.2998L75.1085 40.7307L70.4193 47.2476Z" fill="#999999"/>
<path d="M75.1085 40.7308L74.3539 40.3L78.4906 9.73486L79.2452 10.1523L75.1085 40.7308Z" fill="#999999"/>
<path d="M85.6188 23.3478C85.3493 23.1728 85.0933 22.9708 84.9586 22.6746C84.8777 22.513 84.9181 22.3245 84.8103 22.1629C84.6486 21.9205 84.2983 21.7455 84.0827 21.557C83.5167 21.0453 83.382 20.601 83.0856 19.9412C82.4253 18.5139 81.3877 17.2079 80.5927 15.8883C79.6225 14.2725 78.6523 12.6567 77.6822 11.0275C76.941 9.78875 76.1865 8.52306 75.8092 7.13618C75.4858 5.93781 75.3375 4.68559 75.5262 3.44683C75.8092 1.48096 77.1971 0.349921 79.1105 0.0806255C79.9594 -0.0405577 80.8353 -0.0674873 81.6438 0.174879C82.6544 0.471105 83.5033 1.17127 84.1635 1.99263C85.6862 3.89116 86.4543 6.39562 86.9528 8.76542C88.0847 14.1917 88.0308 19.7931 87.9904 25.3406C87.4783 24.627 86.8181 24.021 86.0635 23.5902C85.9018 23.5228 85.7536 23.4421 85.6188 23.3478Z" fill="#8B575B"/>
<path d="M76.4156 2.11375C76.1865 2.82738 75.89 3.41983 75.9035 4.20079C75.917 4.8875 76.0787 5.58767 76.2404 6.23398C77.7765 12.1989 80.3232 18.083 84.6891 22.4456C85.0933 18.6889 84.999 14.8918 84.7969 11.1217C84.6891 9.12891 84.5543 7.09572 83.7459 5.26451C82.9374 3.44676 81.3204 1.84445 79.3396 1.61555C78.3425 1.50783 77.3453 1.73673 76.4156 2.11375Z" fill="#8B575B"/>
<path d="M70.9582 85.4207C69.9611 86.5517 68.3037 86.8076 66.9831 87.5481C65.1775 88.5715 64.0591 90.4969 62.3882 91.7088C61.9031 92.0588 61.3372 92.3551 60.7443 92.2877C60.2996 92.2473 59.9089 92.005 59.6259 91.6684C59.5855 91.6145 59.545 91.5741 59.5181 91.5203C59.1678 91.0221 58.9522 90.645 58.8848 90.0257C58.8174 89.4197 58.7096 88.8677 58.8983 88.2752C59.1004 87.6424 59.4642 87.0634 59.9089 86.5921C60.5557 85.9054 61.4046 85.4072 62.2939 85.0706C62.8868 84.8417 63.4393 84.5589 63.9513 84.1819C64.6116 83.6837 65.191 83.0374 65.5144 82.2699C65.6491 81.9468 65.8243 81.5024 65.73 81.1524C65.6491 80.8696 65.447 80.4522 65.8108 80.2502C65.986 80.156 66.2016 80.2098 66.4037 80.2637C67.037 80.4253 67.6973 80.5195 68.3576 80.4791C68.4923 80.4791 68.6405 80.4657 68.7753 80.4387C69.5568 80.3175 70.3249 79.9675 70.8639 79.375C71.349 80.331 71.7532 81.3543 71.8475 82.4315C71.9284 83.4818 71.6724 84.6263 70.9582 85.4207Z" fill="#F2F2F2"/>
<path d="M70.9583 85.4203C69.9611 86.5513 68.3037 86.8072 66.9832 87.5477C65.1776 88.571 64.0592 90.4965 62.3883 91.7083C61.9032 92.0584 61.3373 92.3547 60.7444 92.2873C60.2997 92.2469 59.9089 92.0046 59.626 91.668C60.0706 91.2775 60.4614 90.8197 60.7983 90.3349C61.472 89.3924 61.9975 88.3421 62.7791 87.4669C63.628 86.5244 64.7329 85.8512 65.7301 85.0837C66.5385 84.4508 67.3336 83.7372 67.8187 82.8216C68.0208 82.4311 68.0477 82.1214 68.0882 81.704C68.1286 81.2866 68.2229 80.8692 68.3307 80.4518C68.4654 80.4518 68.6137 80.4383 68.7484 80.4114C69.53 80.2902 70.298 79.9401 70.837 79.3477C71.3221 80.3037 71.7263 81.327 71.8207 82.4042C71.9285 83.4814 71.6724 84.6259 70.9583 85.4203Z" fill="#E4DCE7"/>
<path d="M74.8929 86.3767C74.6908 87.0365 74.1922 87.4 73.6667 87.804C72.8852 88.383 72.2249 89.1235 71.7129 89.9583C71.3086 90.645 71.0122 91.3856 70.5136 92.005C69.8129 92.8937 68.7619 93.4457 67.657 93.715C66.552 93.9843 65.4067 93.9843 64.2748 93.917C63.6415 93.8766 63.0082 93.8227 62.4018 93.5938C62.3748 93.5938 62.3614 93.5804 62.3479 93.5804C62.0649 93.4727 61.7685 93.3245 61.5798 93.0822C61.2834 92.7052 61.2699 92.1666 61.4451 91.7222C61.6202 91.2779 61.9436 90.9009 62.267 90.5508C63.4932 89.2178 64.8138 87.979 65.9996 86.6191C66.552 85.9997 67.0641 85.3668 67.5357 84.6936C67.9399 84.1012 68.3037 83.4952 68.6002 82.8489C68.8158 82.4046 69.0044 82.1084 69.3952 81.8256C70.325 81.1389 71.7937 80.6407 72.8852 81.2332C72.9795 81.2736 73.0604 81.3409 73.1547 81.3947C73.9901 81.9872 74.6639 83.1182 74.9199 84.0473C75.1355 84.8013 75.1355 85.6361 74.8929 86.3767Z" fill="#F2F2F2"/>
<path d="M74.8929 86.3765C74.6908 87.0363 74.1922 87.3998 73.6667 87.8038C72.8851 88.3828 72.2249 89.1233 71.7128 89.9581C71.3086 90.6448 71.0121 91.3854 70.5136 92.0048C69.8129 92.8935 68.7618 93.4455 67.6569 93.7148C66.552 93.9841 65.4066 93.9841 64.2747 93.9168C63.6414 93.8764 63.0081 93.8225 62.4017 93.5936C63.1563 93.5129 63.8974 93.4051 64.6251 93.2436C66.3364 92.8531 68.0342 92.0856 69.1661 90.7526C70.1497 89.6215 70.6483 88.1673 71.5376 86.9555C72.2114 86.0264 72.8851 85.2724 72.8582 84.0606C72.8447 83.2123 72.4674 82.2832 73.0603 81.5292C73.1007 81.4888 73.1277 81.4349 73.1681 81.3945C74.0035 81.987 74.6773 83.118 74.9333 84.0471C75.1354 84.8011 75.1354 85.6359 74.8929 86.3765Z" fill="#E4DCE7"/>
<path d="M80.1885 48.3924C80.2828 50.5333 79.5282 52.6473 78.3829 54.4651C76.2538 57.8447 72.9121 60.2818 69.4221 62.2477C67.7108 63.2037 65.9456 64.0655 64.0996 64.7252C66.3768 68.9801 67.3605 73.8409 69.5703 78.1362C69.759 78.4997 69.9611 78.8633 70.0554 79.2537C70.298 80.1828 69.8937 81.4485 69.0583 81.9602C68.7619 82.1487 68.4385 82.2564 68.1016 82.3103C67.7917 82.3641 67.4683 82.3776 67.1584 82.3641C66.6867 82.3507 66.1747 82.2564 65.8378 81.9198C65.6896 81.7717 65.5818 81.5966 65.4875 81.4081C64.9754 80.5464 59.0196 70.2997 57.5778 67.8625C56.8906 66.6911 56.2168 65.4793 55.8934 64.1597C55.031 60.6589 57.6317 57.7639 59.9359 55.5288C62.7521 52.8089 65.5683 50.0755 68.3846 47.3556C68.6675 47.0863 68.9505 46.8036 69.2335 46.5343C69.3143 46.4535 69.3952 46.3727 69.476 46.3054C70.5405 45.2821 71.605 44.2587 72.8043 43.4105C73.3702 43.0065 74.0844 42.4006 74.7851 42.3467C75.5666 42.2794 76.5099 42.6295 77.1836 43.02C79.0162 44.0837 80.0807 46.2515 80.1885 48.3924Z" fill="#28878B"/>
<path d="M80.1885 48.3924C80.2828 50.5333 79.5282 52.6472 78.3828 54.465C76.2538 57.8446 72.9121 60.2818 69.4221 62.2476C67.7108 63.2036 65.9456 64.0654 64.0996 64.7252C66.3768 68.98 67.3605 73.8408 69.5703 78.1361C69.759 78.4996 69.9611 78.8632 70.0554 79.2537C70.298 80.1828 69.8937 81.4484 69.0583 81.9601C68.7618 82.1486 68.4384 82.2563 68.1016 82.3102C67.6569 81.4081 67.2392 80.4655 66.808 79.5634C65.5818 76.9781 64.4499 74.3525 63.3989 71.6999C62.5634 69.5994 61.8223 67.2835 62.011 64.9945C62.1592 62.9882 63.5067 61.6821 64.652 60.1875C66.808 57.3599 69.5838 54.64 70.7426 51.2469C71.2816 49.658 70.5405 48.8098 69.7994 47.4498C69.5973 47.0593 69.503 46.6958 69.476 46.3322C70.5405 45.3089 71.605 44.2856 72.8043 43.4373C73.3702 43.0334 74.0844 42.4274 74.7851 42.3736C75.5666 42.3063 76.5099 42.6563 77.1836 43.0468C79.0162 44.0836 80.0807 46.2514 80.1885 48.3924Z" fill="#63A194"/>
<path d="M91.1839 56.8348C90.4159 58.262 89.284 59.4604 88.0173 60.4568C85.4437 62.4765 82.3984 63.7422 79.4204 65.0214C76.7255 66.1928 74.0036 67.3642 71.1873 68.226C71.6185 68.8723 72.0093 69.5455 72.427 70.2053C72.939 71.0132 73.505 71.8076 73.8688 72.6963C74.583 74.4467 74.5021 76.4126 74.3539 78.2842C74.2596 79.5095 74.1383 80.7348 74.0035 81.9466C73.9497 82.4448 73.8823 82.9565 73.6397 83.4008C73.4511 83.7374 73.1681 84.0202 72.8312 84.2222C72.6022 84.3568 72.3462 84.4645 72.0767 84.5184C71.4299 84.653 70.7561 84.5453 70.1498 84.2895C69.8937 84.1818 69.6512 84.0471 69.4895 83.8317C69.2065 83.4681 69.1796 82.9699 69.1392 82.5121C68.9909 80.8964 65.2315 72.1173 63.9918 69.2358C63.8031 68.778 63.601 68.3337 63.4932 67.8624C63.345 67.2296 63.0351 66.6102 63.2372 65.9908C63.4797 65.2907 63.8436 64.6982 64.2613 64.0923C65.0832 62.9074 72.9121 54.5054 73.5724 53.4955C74.0709 52.7415 74.6234 51.7316 74.6503 50.816C74.6503 50.7756 74.6503 50.7352 74.6369 50.6814C74.6234 49.8061 74.0709 48.8367 73.7206 48.0826C72.8178 46.036 71.6724 44.0028 71.3625 41.7542C71.2277 40.7982 71.3894 39.4382 72.2788 38.8323C72.4135 38.7381 72.6022 38.7246 72.7773 38.7246C73.8014 38.7381 74.7447 39.2363 75.7148 39.546C77.5744 40.1384 79.5552 40.0576 81.4686 39.8826C82.4927 39.7883 83.5168 39.6806 84.5678 39.6133C85.0933 39.5729 85.9018 39.3171 86.4138 39.519C87.128 39.8153 87.6535 41.0675 88.0173 41.6869C88.489 42.5217 88.9336 43.37 89.3244 44.2317C90.1329 45.9687 90.8201 47.7595 91.5073 49.5368C91.7903 50.2909 91.9789 51.1392 92.0463 52.0144C92.208 53.684 91.925 55.421 91.1839 56.8348Z" fill="#28878B"/>
<path d="M91.1839 56.8346C90.4158 58.2618 89.2839 59.4602 88.0173 60.4566C85.4436 62.4763 82.3983 63.742 79.4204 65.0212C76.7254 66.1926 74.0035 67.364 71.1873 68.2258C71.6185 68.8721 72.0092 69.5453 72.427 70.2051C72.939 71.013 73.5049 71.8074 73.8688 72.6961C74.5829 74.4465 74.5021 76.4124 74.3539 78.284C74.2595 79.5093 74.1383 80.7346 74.0035 81.9464C73.9496 82.4446 73.8822 82.9563 73.6397 83.4006C73.451 83.7372 73.1681 84.02 72.8312 84.222C72.5752 83.2525 72.3326 82.2157 72.3057 82.0811C71.7128 79.5901 70.9313 77.1395 70.2575 74.662C69.8398 73.1539 69.2604 71.6997 68.7888 70.1916C68.4249 69.0471 67.8859 67.4179 68.6136 66.2734C69.1526 65.452 70.2036 65.0077 71.0795 64.6576C76.3886 62.584 81.5763 59.9045 85.511 55.7978C86.2252 55.0437 86.9258 54.1416 86.845 53.1048C86.7641 52.2296 86.1039 51.489 85.3358 51.0986C84.5408 50.7081 83.6515 50.6138 82.7756 50.5869C81.1856 50.5196 79.609 50.6273 78.019 50.6811C76.968 50.7215 75.7283 50.8831 74.6638 50.6677C74.6503 49.7925 74.0978 48.823 73.7475 48.069C72.8447 46.0223 71.6993 43.9891 71.3894 41.7405C71.2547 40.7845 71.4163 39.4246 72.3057 38.8187C72.4404 38.7244 72.6291 38.7109 72.8043 38.7109C73.8283 38.7244 74.7716 39.2226 75.7418 39.5323C77.6013 40.1247 79.5821 40.044 81.4955 39.8689C82.5196 39.7747 83.5437 39.6669 84.5947 39.5996C85.1202 39.5592 85.9287 39.3034 86.4408 39.5054C87.1549 39.8016 87.6804 41.0538 88.0443 41.6732C88.5159 42.508 88.9605 43.3563 89.3513 44.218C90.1598 45.955 90.847 47.7458 91.5342 49.5232C91.8172 50.2772 92.0058 51.1255 92.0732 52.0007C92.208 53.6838 91.925 55.4208 91.1839 56.8346Z" fill="#63A194"/>
<path d="M91.8308 26.1483C91.5747 26.862 91.5208 27.7103 91.3861 28.4778C91.1301 29.9454 90.8875 31.4131 90.645 32.8673C90.618 33.0693 90.5776 33.2578 90.5506 33.4463C89.9847 36.7586 89.4322 40.0844 88.8798 43.4102C88.8259 43.7468 88.772 44.0835 88.6103 44.3932C88.3947 44.8106 88.0309 45.1337 87.6401 45.403C86.7777 46.0089 85.8075 46.4263 84.8239 46.7764C84.5005 46.8841 84.1905 46.9919 83.8671 47.0861C81.9537 47.6516 79.946 47.9209 77.9652 47.6786C75.6475 47.3958 73.3972 46.3725 71.8611 44.6221C71.5108 44.2181 71.5242 43.5987 71.4299 43.0871C71.3221 42.4408 70.6888 38.5225 70.5001 37.2164C70.2037 35.1294 69.9207 33.0423 69.6647 30.9553C69.4356 29.0029 69.9881 27.1044 70.5406 25.2327C71.1604 23.1322 71.7668 21.0183 72.4001 18.9178C72.6561 18.1099 73.3029 17.4366 73.8823 16.8442C74.4078 16.3056 75.3511 15.4034 76.1865 15.363C76.2808 15.3496 76.3886 15.3765 76.483 15.39C77.5879 15.6593 78.6659 16.0228 79.7169 16.4402C81.8325 17.275 83.8537 18.3388 85.7671 19.5506C87.1954 20.4527 88.5699 21.4222 89.9039 22.4455C90.5237 22.9168 91.1974 23.3477 91.6152 24.0074C91.8173 24.3171 91.979 24.6538 92.0598 25.0038C92.1946 25.5559 91.9655 25.7579 91.8308 26.1483Z" fill="#F2F2F2"/>
<path d="M90.6584 32.8673C90.6314 33.0693 90.591 33.2578 90.5641 33.4463C89.9981 36.7586 89.4457 40.0844 88.8932 43.4102C88.8393 43.7469 88.7854 44.0835 88.6237 44.3932C88.4081 44.8106 88.0443 45.1337 87.6535 45.403C86.7911 46.009 85.8209 46.4264 84.8373 46.7764C84.5139 46.8842 84.204 46.9919 83.8806 47.0861C83.6784 44.7433 83.5033 42.3869 83.382 40.044C83.2472 37.3915 83.1933 34.6985 83.6111 32.0729C83.9075 30.1743 84.4735 28.3162 85.3897 26.6331C85.7401 25.9868 86.1713 24.9231 87.0606 25.0039C87.8961 25.0846 88.5428 26.0137 88.8932 26.687C89.5939 28.0738 89.9981 29.6088 90.3215 31.1438C90.4428 31.7093 90.5641 32.2883 90.6584 32.8673Z" fill="#E4DCE7"/>
<path d="M83.0721 19.3489C82.9778 19.9144 82.6948 20.4261 82.3984 20.8973C81.4147 22.4323 80.0538 23.725 78.4772 24.6136C77.9652 24.9099 77.3588 25.1522 76.8064 25.1253C76.5773 25.1118 76.3617 25.058 76.1461 24.9503C75.634 24.6675 75.3646 24.0885 75.3107 23.5095C75.2568 22.944 75.3915 22.365 75.5532 21.813C75.7688 21.0589 76.0787 20.3318 75.661 19.5913C75.3376 19.0123 75.3241 18.164 75.7014 17.6119C75.8631 17.3561 76.1191 17.1676 76.3752 16.9791C77.1432 16.4405 77.9382 15.9423 78.6524 15.3229C78.9219 15.094 79.2453 14.8247 79.3666 14.4746C79.4744 14.1246 79.5013 13.761 79.7034 13.4378C79.8247 13.2359 80.2424 12.8589 80.2424 12.603C80.2694 12.8589 80.3233 13.1282 80.3637 13.384C80.5389 14.2727 80.8084 15.1344 81.1857 15.9558C81.3743 16.3732 81.6034 16.7906 81.9403 17.1003C82.1693 17.3157 82.4658 17.4907 82.6814 17.7197C83.0587 18.1775 83.1665 18.7968 83.0721 19.3489Z" fill="#FFCFB3"/>
<path d="M83.0721 19.3487C82.9777 19.9142 82.6948 20.4259 82.3983 20.8972C81.4147 22.4321 80.0537 23.7248 78.4772 24.6134C77.9651 24.9097 77.3587 25.152 76.8063 25.1251C77.4396 24.5596 77.9921 23.9402 78.4637 23.2266C78.8679 22.6206 79.1913 21.9474 79.3934 21.2338C79.7168 20.1297 79.8651 18.6081 79.2452 17.5713C78.5984 16.4942 78.9353 15.2554 79.609 14.2455C79.8246 13.9224 80.0672 13.6127 80.3636 13.3838C80.5388 14.2725 80.8083 15.1342 81.1856 15.9556C81.3742 16.373 81.6033 16.7904 81.9402 17.1001C82.1692 17.3155 82.4657 17.4906 82.6813 17.7195C83.0586 18.1773 83.1664 18.7966 83.0721 19.3487Z" fill="#FFBF99"/>
<path d="M81.7246 14.8514C81.199 15.3766 80.3906 15.6189 80.0537 16.2652C79.7168 16.8846 79.9189 17.6925 79.5821 18.2984C79.3799 18.6485 79.0161 18.8909 78.6793 19.1198C78.1133 19.4699 77.5339 19.82 76.9545 20.1566C76.429 20.4528 75.89 20.7356 75.3106 20.8702C74.812 20.9779 74.2595 20.9779 73.8014 20.7894C73.7205 20.749 73.6397 20.7086 73.5723 20.6682C73.2759 20.4932 73.0333 20.2239 72.7908 19.9546C72.4809 19.618 72.1709 19.2814 71.8745 18.9447C71.7397 18.7966 71.605 18.6485 71.4163 18.5677C71.0795 18.4196 70.6348 18.5543 70.3653 18.2984C70.1093 18.0426 70.2171 17.6117 70.3114 17.2616C70.6348 15.969 70.3518 14.5552 69.5838 13.478C69.3547 13.1683 69.0852 12.8721 68.9774 12.4951C68.8696 12.1316 68.9235 11.7411 68.9909 11.3775C69.1256 10.5966 69.2334 9.81561 69.449 9.04811C69.6377 8.4018 69.705 7.70163 70.2575 7.23037C70.7426 6.81296 71.4298 6.7187 72.0631 6.70524C73.2624 6.66484 74.4616 6.81296 75.6205 7.13611C76.7254 7.43234 77.8708 7.99786 78.3693 8.99426C78.3963 9.04811 78.4232 9.10197 78.4502 9.1693C78.5984 9.51938 78.6523 9.92333 78.8949 10.2196C79.2991 10.7312 80.0267 10.7851 80.6331 11.0005C81.3877 11.2698 82.021 11.8757 82.2501 12.6432C82.4792 13.3972 82.2905 14.2859 81.7246 14.8514Z" fill="#FFCFB3"/>
<path d="M81.7246 14.8516C81.1991 15.3767 80.3906 15.6191 80.0537 16.2654C79.7168 16.8848 79.919 17.6927 79.5821 18.2986C79.38 18.6487 79.0161 18.8911 78.6793 19.12C78.1133 19.47 77.5339 19.8201 76.9545 20.1567C76.429 20.453 75.89 20.7357 75.3106 20.8704C74.812 20.9781 74.2595 20.9781 73.8014 20.7896C74.5156 20.3049 75.1623 19.7124 75.6609 18.9988C76.4694 17.8677 76.8871 16.4674 76.7254 15.094C76.6446 14.4342 76.4425 13.7879 76.2403 13.155C76.0652 12.5895 75.8765 12.024 75.7822 11.4316C75.7148 11.0411 75.6205 10.5025 75.863 10.1389C76.3886 9.35797 77.48 8.99442 78.3693 8.98096C78.3963 9.03482 78.4232 9.08868 78.4502 9.156C78.5984 9.50608 78.6523 9.91003 78.8949 10.2063C79.2991 10.7179 80.0267 10.7718 80.6331 10.9872C81.3877 11.2565 82.021 11.8624 82.2501 12.6299C82.4792 13.3974 82.2905 14.2861 81.7246 14.8516Z" fill="#FFBF99"/>
<path d="M83.6785 10.0039C83.638 10.4887 83.5841 10.9869 83.4898 11.4716C83.3955 11.9833 83.153 12.5219 82.9508 13.0066C82.7757 13.4375 82.587 13.9357 82.2097 14.205C82.1558 14.2454 82.0884 14.2992 82.0615 14.3665C82.304 13.6664 82.1154 12.8854 81.7516 12.2526C81.4821 11.7948 80.997 11.9025 80.6062 12.1583C80.1481 12.468 79.8651 12.9931 79.7034 13.5183C79.5417 14.0434 79.4743 14.6089 79.2992 15.134C78.8814 14.2992 77.9382 13.828 77.3857 13.047C76.8198 12.2391 76.7389 11.1485 76.0517 10.4348C75.9709 10.354 75.8766 10.2732 75.7822 10.2059C74.9872 9.62693 73.8284 9.62693 72.8447 9.89623C72.2518 10.0578 71.6589 10.2867 71.0526 10.2732C70.7157 10.2598 70.3788 10.1521 70.1093 9.95009C69.9746 9.85584 69.8803 9.74812 69.7994 9.61347C69.7051 9.45189 69.759 9.08834 69.476 9.20953C69.3278 9.27685 69.3682 9.50575 69.2335 9.55961C68.8292 9.73465 68.8966 8.92676 68.9101 8.75172C68.9775 8.21313 69.1122 7.66107 69.2874 7.14941C69.6512 6.12609 70.2171 5.17009 70.9717 4.38913C71.5781 3.75628 72.2923 3.23115 73.0738 2.84067C74.0709 2.35594 75.1759 2.11358 76.2808 2.07318C77.4127 2.03279 78.5715 2.22129 79.6091 2.69256C80.6601 3.16383 81.5629 3.93132 82.2501 4.86039C82.4523 5.12969 82.6409 5.42592 82.7891 5.72214C83.5302 7.0013 83.7997 8.52282 83.6785 10.0039Z" fill="#8B575B"/>
<path d="M83.6785 10.004C83.638 10.4887 83.5841 10.9869 83.4898 11.4716C83.3955 11.9833 83.1529 12.5219 82.9508 13.0066C82.7756 13.4375 82.587 13.9357 82.2097 14.205C82.1558 14.2454 82.0884 14.2993 82.0615 14.3666C82.304 13.6664 82.1154 12.8854 81.7516 12.2526C81.4821 11.7948 80.997 11.9025 80.6062 12.1583C80.1481 12.468 79.8651 12.9932 79.7034 13.5183C79.5417 14.0434 79.4743 14.6089 79.2991 15.1341C78.8814 14.2993 77.9382 13.828 77.3857 13.047C76.8198 12.2391 76.7389 11.1485 76.0517 10.4349C75.9709 10.3541 75.8766 10.2733 75.7822 10.206C76.2538 10.0982 76.7659 10.1252 77.224 10.004C77.79 9.86933 78.329 9.66736 78.841 9.39806C79.4069 9.10184 79.9459 8.71136 80.4041 8.25356C81.3338 7.33795 81.9941 6.12612 82.2501 4.8335C82.4523 5.10279 82.6409 5.39902 82.7891 5.69524C83.5302 7.00133 83.7997 8.52285 83.6785 10.004Z" fill="#8B575B"/>
<path d="M46.1916 65.8023L28.3105 55.4883L24.0255 87.4268L25.3999 88.2212L29.4424 57.71L45.0193 66.7045L49.0752 92.9878L50.4496 93.7822L46.1916 65.8023Z" fill="#FFFAEB"/>
<path d="M51.6488 93.0956L50.4765 93.7688L46.1915 65.8024L47.3638 65.1157L51.6488 93.0956Z" fill="#FAECC3"/>
<path d="M25.4135 88.2212L26.5858 87.5345L30.4396 58.2889L29.4559 57.71L25.4135 88.2212Z" fill="#FAECC3"/>
<path d="M28.3105 55.4885L29.4829 54.8018L47.3639 65.1158L46.1916 65.8025L28.3105 55.4885Z" fill="#DEC8A4"/>
<path d="M22.422 79.7652L4.54097 69.4512L0.255981 92.4894L1.63041 93.2839L5.68633 71.6729L21.2632 80.6673L25.3191 106.951L26.6935 107.745L22.422 79.7652Z" fill="#FFFAEB"/>
<path d="M27.8793 107.058L26.707 107.732L22.422 79.7653L23.5943 79.0786L27.8793 107.058Z" fill="#FAECC3"/>
<path d="M1.64392 93.2839L2.81623 92.5971L6.67002 72.2653L5.68636 71.6729L1.64392 93.2839Z" fill="#FAECC3"/>
<path d="M4.54102 69.4514L5.71332 68.7646L23.5944 79.0787L22.4221 79.7654L4.54102 69.4514Z" fill="#DEC8A4"/>
<path d="M3.50345 68.8186L27.4347 54.7075L25.1575 20.2241L22.5838 21.0993L0 33.6485L2.26377 68.1319L3.50345 68.8186Z" fill="#4D4D4D"/>
<path d="M1.22621 34.3352L25.1575 20.2241L24.0795 19.6182L0 33.6485L1.22621 34.3352Z" fill="#999999"/>
<path d="M1.22621 34.3351L3.50345 68.8185L2.26377 68.1318L0 33.6484L1.22621 34.3351Z" fill="#666666"/>
<path d="M23.7292 80.5871L47.6604 66.4356V65.2642L27.4347 55.7715L3.3822 67.607L3.50348 68.8054L23.7292 80.5871Z" fill="#4D4D4D"/>
<path d="M23.7292 79.429L47.6604 65.264L27.3269 53.4419L3.3822 67.6069L23.7292 79.429Z" fill="#999999"/>
<path d="M23.7292 79.429L47.6604 65.264L27.3269 53.4419L3.3822 67.6069L23.7292 79.429Z" fill="#999999"/>
<path d="M23.7292 79.429V80.587L3.50348 68.8053L3.3822 67.6069L23.7292 79.429Z" fill="#666666"/>
<path d="M1.2262 34.335L5.37643 64.9405L10.0657 71.4709L3.38216 67.593L1.2262 34.335Z" fill="#666666"/>
<path d="M10.0657 71.4713L10.8068 71.0404L6.13105 64.5234L5.37646 64.9408L10.0657 71.4713Z" fill="#999999"/>
<path d="M5.37643 64.9407L6.13102 64.5233L1.98079 33.9043L1.2262 34.3352L5.37643 64.9407Z" fill="#999999"/>
<path d="M24.4164 20.6548L28.5531 51.2333L33.2424 57.7503L26.5589 53.8724L24.4164 20.6548Z" fill="#666666"/>
<path d="M33.2423 57.7501L33.9834 57.3327L29.3077 50.8022L28.5531 51.2331L33.2423 57.7501Z" fill="#999999"/>
<path d="M28.5531 51.2333L29.3077 50.8024L25.1575 20.2373L24.4164 20.6547L28.5531 51.2333Z" fill="#999999"/>
<path d="M44.4129 102.79C44.2243 102.817 44.0357 102.817 43.8605 102.804C43.0385 102.736 42.257 102.319 41.5293 101.875C40.7074 101.363 40.1414 100.69 39.3734 100.138C38.5379 99.5183 37.6621 98.9393 36.7727 98.3872C36.2203 98.0506 35.7217 97.7409 35.1423 97.4582C34.5898 97.1889 34.0374 96.8792 33.5792 96.4752C33.2423 96.1925 32.9324 95.8424 32.7438 95.4519C32.5551 95.048 32.5147 94.6171 32.4878 94.1728C32.4608 93.0687 32.7168 91.9241 33.3636 91.022C33.4579 90.9008 33.5523 90.7796 33.687 90.7258C33.9161 90.6315 34.1856 90.7527 34.4147 90.8604C35.1423 91.197 35.9643 91.4529 36.7593 91.4259C37.1231 91.4259 37.4734 91.3721 37.8238 91.224C38.0933 91.1163 38.511 90.9547 38.6323 91.3317C38.7131 91.5606 38.6188 91.9376 38.6727 92.2069C38.8074 92.8801 39.1443 93.513 39.6024 94.0381C40.2492 94.7652 41.1116 95.2769 42.0144 95.6404C42.54 95.8559 43.0789 96.0174 43.6045 96.2463C44.8576 96.7984 45.7335 97.9833 46.0434 99.3163C46.3533 100.663 46.0299 102.588 44.4129 102.79Z" fill="#8A5589"/>
<path d="M44.4129 102.79C44.2243 102.817 44.0357 102.817 43.8605 102.804C44.3321 101.498 44.1974 99.9761 43.4562 98.8046C42.796 97.7409 41.718 97.0138 40.6265 96.3944C40.0471 96.0578 39.4407 95.7616 38.8613 95.4115C38.0124 94.9133 36.8401 94.267 36.4898 93.2841C36.2876 92.7455 36.4898 92.0184 36.7727 91.4125C37.1366 91.4125 37.4869 91.3586 37.8372 91.2105C38.1067 91.1028 38.5245 90.9412 38.6457 91.3182C38.7266 91.5471 38.6323 91.9241 38.6862 92.1934C38.8209 92.8667 39.1578 93.4995 39.6159 94.0246C40.2627 94.7517 41.1251 95.2634 42.0279 95.6269C42.5534 95.8424 43.0924 96.004 43.6179 96.2329C44.8711 96.7849 45.747 97.9698 46.0569 99.3028C46.3533 100.663 46.0299 102.588 44.4129 102.79Z" fill="#874E6E"/>
<path d="M48.132 73.0061C47.9838 74.3929 47.3101 75.7394 46.7172 77.0051C46.0839 78.3516 41.6102 85.9861 40.3167 88.6118C39.7372 89.7832 39.2656 91.022 38.6054 92.153C38.2011 92.8532 37.2579 93.1629 36.4359 93.2571C36.2877 93.2706 36.1395 93.284 36.0047 93.284C35.304 93.2975 34.6033 93.1763 33.9431 92.9205C33.6466 92.8128 33.3637 92.5973 33.0537 92.53C32.7977 92.4627 32.5282 92.5031 32.2722 92.4358C32.919 91.6817 33.2693 90.8469 33.5658 89.9044C34.6303 86.4843 35.7083 83.0777 36.7728 79.6711C37.1097 78.567 37.4331 77.3821 37.9855 76.3588C38.1876 75.9683 38.4571 75.7259 38.5515 75.2951C38.6727 74.7699 38.6323 74.1775 38.538 73.6524C38.4302 72.9791 38.282 72.8445 37.6756 72.5348C36.3281 71.8346 34.9941 71.0806 33.6871 70.3266C31.3694 69.007 29.0517 67.674 27.0305 65.9505C26.0064 65.0753 25.0497 64.0924 24.4433 62.894C23.0554 60.2145 23.6214 56.781 25.427 54.3573C25.9256 53.6975 26.5185 53.0647 27.2731 52.7146C27.9198 52.3914 28.5936 52.3107 29.2673 52.3914C30.9517 52.58 32.6091 53.8052 33.7679 54.9094C36.9075 57.9255 45.9895 66.5833 47.0675 68.1049C48.0108 69.4379 48.2937 71.4037 48.132 73.0061Z" fill="#F1AD2E"/>
<path d="M48.132 73.0063C47.9838 74.3932 47.3101 75.7396 46.7172 77.0053C46.0839 78.3518 41.6102 85.9864 40.3167 88.612C39.7372 89.7834 39.2656 91.0222 38.6054 92.1532C38.2011 92.8534 37.2579 93.1631 36.4359 93.2574C37.8912 89.6353 39.5082 86.0671 41.2868 82.5798C42.2166 80.7755 43.1733 78.9712 43.7527 77.0323C44.3321 75.0933 44.5208 72.9794 43.8471 71.0539C43.2676 69.3977 42.0953 68.0108 40.923 66.7182C38.7671 64.3215 36.4898 62.0459 34.1048 59.8781C32.919 58.8009 31.6928 57.7372 30.4531 56.7139C29.8198 56.1887 29.3616 55.9195 29.1865 55.1116C28.9843 54.2094 28.9843 53.24 29.2404 52.3647C30.9247 52.5533 32.5821 53.7785 33.741 54.8827C36.8806 57.8988 45.9626 66.5566 47.0406 68.0782C48.0108 69.4381 48.2937 71.404 48.132 73.0063Z" fill="#FFA366"/>
<path d="M42.0145 103.746C41.9067 104.218 41.5564 104.622 41.1252 104.864C41.0713 104.891 41.0174 104.931 40.9635 104.945C40.5727 105.147 40.1415 105.228 39.7103 105.268C38.4841 105.362 37.2579 105.052 36.1125 104.595C35.3445 104.298 34.6034 103.921 33.997 103.369C33.2289 102.669 32.7304 101.713 32.097 100.865C31.6254 100.232 31.046 99.6666 30.4262 99.1953C29.9007 98.7914 29.2943 98.4278 28.9844 97.8354C28.7957 97.4988 28.7283 97.0948 28.7014 96.7043C28.5936 95.4386 28.8496 94.0922 29.6446 93.0958C29.7929 92.9072 29.9545 92.7187 30.1836 92.6514C30.4531 92.5437 30.763 92.611 31.0595 92.611C31.5446 92.6245 32.0162 92.4494 32.4878 92.3283C32.9594 92.1936 33.458 92.1128 33.9161 92.2609C33.997 92.2879 34.0778 92.3148 34.1452 92.3687C34.5764 92.6245 34.792 93.1362 34.9672 93.594C35.2232 94.2672 35.5331 94.9135 35.87 95.5463C36.5707 96.839 37.4331 98.0508 38.4437 99.1145C38.9961 99.707 39.589 100.286 40.2223 100.798C40.694 101.188 41.206 101.552 41.5698 102.036C41.9202 102.508 42.1627 103.154 42.0145 103.746Z" fill="#8A5589"/>
<path d="M42.0145 103.746C41.9067 104.218 41.5563 104.622 41.1251 104.864C41.0712 104.891 41.0173 104.931 40.9634 104.945C40.8961 104.245 40.667 103.477 40.4649 102.965C40.0202 101.794 39.1578 100.878 38.2685 100.071C37.5139 99.3973 36.7728 98.724 36.0047 98.0643C35.4792 97.6065 34.9537 97.1487 34.509 96.6101C33.9431 95.9368 33.0941 94.8462 33.2828 93.9036C33.3906 93.3785 33.714 92.8265 34.1182 92.3687C34.5494 92.6245 34.765 93.1362 34.9402 93.594C35.1962 94.2672 35.5061 94.9135 35.843 95.5463C36.5437 96.839 37.4061 98.0508 38.4167 99.1145C38.9692 99.707 39.5621 100.286 40.1954 100.798C40.667 101.188 41.179 101.552 41.5428 102.036C41.9201 102.508 42.1627 103.154 42.0145 103.746Z" fill="#874E6E"/>
<path d="M40.6939 77.2745C40.5996 78.5806 40.101 79.6039 39.4947 80.7484C38.3628 82.8624 37.4734 85.0841 36.5976 87.3058C35.8295 89.2178 35.0615 91.1567 34.8728 93.2034C34.8324 93.6746 34.8189 94.0113 34.4955 94.3614C34.1856 94.6845 33.8487 94.8865 33.4714 94.9942C32.919 95.1692 32.2991 95.1423 31.6793 95.0346C31.0999 94.9269 30.3857 94.7788 29.9275 94.4017C29.5368 94.0786 29.5368 93.4727 29.5098 93.0014C29.4559 91.8704 29.402 90.7259 29.3481 89.5813C29.3077 88.5715 29.2538 87.5482 29.2673 86.5248C29.2942 85.2995 29.429 84.0608 29.8467 82.9028C30.2509 81.7718 31.019 80.7619 31.3963 79.6174C31.7466 78.5267 31.3559 77.7189 30.2914 77.3553C29.5772 77.0995 28.863 76.8571 28.1489 76.6013C26.7475 76.1031 25.3461 75.6049 23.9582 75.0932C20.7377 73.8949 17.5307 72.5888 14.6876 70.7037C13.5152 69.9362 12.4103 69.0071 11.6018 67.8626C10.2948 65.991 10.3217 63.1634 10.699 61.009C11.1976 58.1949 12.0869 55.4211 13.4344 52.9302C14.189 51.5164 15.1053 50.1833 16.1698 48.9984C16.3045 48.8503 16.4528 48.6887 16.6414 48.6214C16.9378 48.5002 17.2612 48.5945 17.5712 48.6887C20.2796 49.5236 23.1632 50.0083 25.966 49.5236C27.3943 49.2677 28.7552 48.783 30.1297 48.3521C31.1133 48.0424 32.2183 48.4464 32.2317 49.5774C32.2452 50.8027 32.2722 52.3512 31.6658 53.4553C31.0729 54.5459 30.0623 55.5558 29.3347 56.5656C28.7552 57.3735 28.1893 58.2084 27.7042 59.0701C27.1248 60.1204 26.4106 60.9956 27.5425 61.965C29.0247 63.2577 30.6687 64.2271 32.1374 65.5197C33.5119 66.7181 34.8324 67.9838 36.099 69.3034C36.5572 69.7881 37.0018 70.2728 37.46 70.771C38.8883 72.3599 40.6265 74.1911 40.7074 76.4532C40.7074 76.7359 40.7074 77.0187 40.6939 77.2745Z" fill="#F1AD2E"/>
<path d="M40.694 77.2744C40.5996 78.5805 40.1011 79.6038 39.4947 80.7483C38.3628 82.8623 37.4735 85.084 36.5976 87.3056C35.8296 89.2177 35.0615 91.1566 34.8729 93.2032C34.8324 93.6745 34.819 94.0111 34.4956 94.3612C34.1856 94.6844 33.8488 94.8863 33.4715 94.9941C33.9296 91.6952 34.6168 88.4771 35.6948 85.2455C36.3955 83.1316 37.204 81.0445 37.5543 78.8363C37.8104 77.2205 37.7834 75.524 37.2848 73.962C36.7459 72.2924 35.9239 71.4307 34.7651 70.1515C31.9623 67.1354 28.9574 64.3347 25.7369 61.7764C24.0391 60.4299 22.1257 59.4066 20.0371 58.7872C19.5655 58.6526 19.0939 58.491 18.6088 58.3159C16.6549 57.6158 15.1053 56.5117 14.1486 54.6131C13.8656 54.0611 13.6366 53.4821 13.4344 52.8896C14.189 51.4758 15.1053 50.1428 16.1698 48.9579C16.3046 48.8098 16.4528 48.6482 16.6415 48.5809C16.9379 48.4597 17.2613 48.554 17.5712 48.6482C20.2796 49.483 23.1633 49.9678 25.966 49.483C27.3943 49.2272 28.7553 48.7425 30.1297 48.3116C31.1134 48.0019 32.2183 48.4058 32.2318 49.5369C32.2453 50.7622 32.2722 52.3106 31.6659 53.4148C31.073 54.5054 30.0624 55.5153 29.3347 56.5251C28.7553 57.333 28.1894 58.1678 27.7043 59.0296C27.1248 60.0798 26.4107 60.955 27.5426 61.9245C29.0248 63.2171 30.6687 64.1866 32.1375 65.4792C33.5119 66.6776 34.8324 67.9433 36.0991 69.2628C36.5572 69.7476 37.0019 70.2323 37.46 70.7305C38.8883 72.3193 40.6266 74.1505 40.7074 76.4126C40.7074 76.7358 40.7074 77.0185 40.694 77.2744Z" fill="#FFA366"/>
<path d="M23.7426 10.5968C23.5135 10.1121 23.1228 9.70812 22.5164 9.42536C19.781 8.14621 16.9378 9.58694 15.523 12.0779C14.2698 14.2862 14.1216 16.7771 14.189 19.2547C14.2429 21.611 14.7145 23.927 14.8762 26.2698C15.0648 28.8955 14.8627 31.5615 15.3343 34.1467C15.3478 34.241 15.3882 34.3487 15.4825 34.3756C15.5634 34.3891 15.6308 34.3352 15.6847 34.2814C17.3825 32.6252 19.0803 30.9556 20.7781 29.2994C21.7483 28.3434 22.732 27.3739 23.3518 26.1621C24.2277 24.4386 24.2816 22.4189 24.0795 20.4934C23.8504 18.2987 23.1362 16.0366 23.7156 13.8822C24.0256 12.7512 24.1873 11.5393 23.7426 10.5968Z" fill="#8B575B"/>
<path d="M17.4499 13.7071C16.7358 15.2017 16.5741 16.8983 16.6684 18.5544C16.7627 20.2106 17.113 21.8264 17.3691 23.4691C17.5981 24.9098 17.7464 26.364 17.7329 27.8317C17.7059 29.9591 17.3286 32.0596 16.9244 34.1467C18.2988 33.2849 19.6867 32.3558 20.63 31.0363C21.425 29.9053 21.8562 28.5588 22.0583 27.1854C22.2604 25.8254 22.2604 24.4251 22.2874 23.0517C22.3278 20.426 22.4356 17.8139 22.6108 15.2017C22.6647 14.3938 22.732 13.5859 22.5973 12.7915C22.4625 11.9836 22.0448 10.664 21.0073 10.7179C20.0371 10.7718 19.0534 11.5797 18.4336 12.2529C18.0428 12.6838 17.7059 13.182 17.4499 13.7071Z" fill="#8B575B"/>
<path d="M34.8189 40.1787C34.8862 41.7406 34.226 43.2352 33.7005 44.7029C32.9324 46.8707 32.4473 49.1328 32.2587 51.4218C32.2317 51.6911 32.2182 51.9739 32.0565 52.1759C31.9218 52.3778 31.6927 52.4856 31.4771 52.5798C30.0218 53.253 28.4857 53.7512 26.9226 54.0609C26.5858 54.1283 26.2624 54.1956 25.9255 54.2494C24.8206 54.411 23.6887 54.5053 22.5838 54.2629C21.1689 53.9398 19.9292 53.1184 18.73 52.3105C18.3257 52.0412 17.9215 51.7585 17.625 51.3814C17.3151 50.9775 17.1534 50.4928 16.9917 50.0215C15.6577 46.0494 14.3372 42.0638 13.0436 38.0648C12.8145 37.3377 12.572 36.5971 12.4911 35.8431C12.4507 35.5064 12.5046 35.2371 12.5316 34.914C12.5585 34.5908 12.3025 34.3215 12.2216 34.0119C12.1273 33.6214 12.4777 33.177 12.6663 32.8539C13.4074 31.6555 14.418 30.5918 15.496 29.6896C16.1428 29.1241 16.857 28.6259 17.5577 28.1277C18.959 27.1313 20.4278 26.2427 22.0313 25.6098C22.449 25.4348 22.9745 25.1789 23.4327 25.1924C23.9312 25.2193 24.4433 25.2597 24.9418 25.3271C25.2922 25.3809 25.6425 25.4348 25.9929 25.4752L27.7042 25.731C28.5127 25.8522 29.2403 26.2427 29.9949 26.5389C30.5743 26.7678 31.1133 26.9832 31.4906 27.5084C32.0835 28.3297 32.326 29.3396 32.5686 30.3225C33.2019 32.9751 33.8487 35.6276 34.4955 38.2937C34.6437 38.8996 34.8054 39.5324 34.8189 40.1787Z" fill="#28878B"/>
<path d="M34.8189 40.1791C34.8863 41.7411 34.226 43.2357 33.7005 44.7033C32.9324 46.8712 32.4473 49.1332 32.2587 51.4223C32.2317 51.6915 32.2183 51.9743 32.0566 52.1763C31.9218 52.3783 31.6927 52.486 31.4771 52.5802C30.0219 53.2535 28.4857 53.7517 26.9227 54.0614C27.1922 52.3244 27.3943 50.5605 27.5021 48.7966C27.6638 45.8748 27.3808 42.9529 26.8553 40.0849C26.6262 38.8192 26.3567 37.5535 26.0603 36.2878C25.6695 34.6586 25.2653 33.0428 24.9014 31.4136C24.5646 29.9055 24.3894 28.4917 24.9958 26.9971C25.2114 26.4316 25.5617 25.9065 25.9929 25.4756L27.7042 25.7314C28.5127 25.8526 29.2403 26.2431 29.9949 26.5393C30.5743 26.7682 31.1133 26.9836 31.4906 27.5088C32.0835 28.3301 32.326 29.34 32.5686 30.3229C33.2019 32.9755 33.8487 35.628 34.4955 38.2941C34.6437 38.9 34.8054 39.5328 34.8189 40.1791Z" fill="#63A194"/>
<path d="M28.5127 33.4064C28.1758 34.2682 27.3943 34.9549 26.478 35.1164C26.2219 35.1568 25.9659 35.1568 25.7234 35.1299C25.2518 35.0895 24.7936 34.9549 24.3489 34.7933C23.3653 34.4028 22.4355 33.8642 21.627 33.191C20.3874 32.1811 18.9995 30.8346 18.6222 29.2323C18.5413 28.8553 18.4874 28.3032 18.6087 27.9397C18.7569 27.5223 19.242 27.1991 19.5115 26.849C19.7675 26.5124 19.9562 26.1354 20.1313 25.7449C20.3469 25.2467 20.5491 24.7485 20.7242 24.2369C21.0611 23.2809 21.3036 22.2845 21.4788 21.2881C21.6944 21.692 21.8831 22.2172 22.1795 22.5672C22.449 22.8904 22.8532 23.1866 23.1901 23.429C23.5539 23.6848 23.9447 23.9272 24.3355 24.1292C24.6454 24.2907 25.2113 24.6543 25.5752 24.6543C26.4375 24.9774 27.4482 25.341 27.5021 26.4047C27.529 26.7952 27.3404 27.0106 27.1921 27.3472C27.0035 27.7781 27.1248 28.2629 27.2999 28.6668C27.556 29.2862 27.9737 29.8113 28.2701 30.4038C28.7687 31.3598 28.9034 32.3831 28.5127 33.4064Z" fill="#FFCFB3"/>
<path d="M28.5127 33.4064C28.1759 34.2682 27.3943 34.9549 26.478 35.1164C26.222 35.1568 25.966 35.1568 25.7234 35.1299C26.222 34.0796 26.4376 32.9082 26.3298 31.7502C26.1681 30.0671 25.3057 28.4379 23.9852 27.3742C23.3115 26.8221 22.5164 26.4182 21.8562 25.8661C21.2768 25.3948 20.9668 24.8832 20.7108 24.2369C21.0477 23.2809 21.2902 22.2845 21.4654 21.2881C21.681 21.692 21.8696 22.2172 22.1661 22.5672C22.4356 22.8904 22.8398 23.1866 23.1767 23.429C23.5405 23.6848 23.9313 23.9272 24.3221 24.1292C24.632 24.2907 25.1979 24.6543 25.5617 24.6543C26.4241 24.9774 27.4347 25.341 27.4886 26.4047C27.5156 26.7952 27.3269 27.0106 27.1787 27.3472C26.9901 27.7781 27.1113 28.2629 27.2865 28.6668C27.5425 29.2862 27.9603 29.8113 28.2567 30.4038C28.7687 31.3598 28.9035 32.3831 28.5127 33.4064Z" fill="#FFBF99"/>
<path d="M31.531 21.3418C31.5175 22.015 31.5041 22.7017 31.6253 23.3615C31.6792 23.6308 31.7466 23.927 31.6388 24.1828C31.531 24.4117 31.2885 24.5733 31.0998 24.7484C30.2644 25.5024 30.1835 26.9162 29.2133 27.4817C28.7282 27.7645 28.1488 27.751 27.5964 27.6702C27.3808 27.6298 27.1517 27.5894 26.9361 27.5221C26.451 27.3875 25.9794 27.2124 25.5078 27.0374C24.2142 26.5526 22.8128 25.9333 22.2334 24.681C22.1121 24.4117 22.0313 24.1155 21.8426 23.8731C21.627 23.6038 21.2902 23.4557 20.9802 23.3076C20.293 22.971 19.7136 22.6075 19.242 22.0015C18.7838 21.4225 18.4604 20.7224 18.3122 19.9953C18.2987 19.928 18.2853 19.8472 18.3392 19.7798C18.3661 19.7529 18.4065 19.7394 18.4335 19.7125C18.8647 19.524 19.3498 19.4836 19.7406 19.2143C19.9696 19.0662 20.1448 18.8642 20.3334 18.6892C20.5086 18.5276 20.7107 18.3795 20.859 18.2045C21.115 17.9082 21.1419 17.5582 21.2497 17.2081C21.3575 16.858 21.4384 16.5079 21.5462 16.1578C22.1121 14.2997 23.756 12.7781 25.6695 12.4415C26.8418 12.2396 28.068 12.4685 29.0921 13.0609C29.146 13.0878 29.1864 13.1282 29.2403 13.1552C29.4424 13.2763 29.6311 13.411 29.8062 13.5591C29.9545 13.6803 30.1431 13.9496 30.3048 14.0169C30.3722 14.0438 30.453 14.0438 30.5204 14.0708C30.709 14.1381 30.8303 14.3401 30.9112 14.5151C31.248 15.2018 31.4367 15.9424 31.558 16.6829C31.6119 17.06 31.6658 17.437 31.7062 17.814C31.7466 18.1641 31.8948 18.5142 31.8544 18.8777C31.8409 19.0797 31.7601 19.2816 31.7062 19.4836C31.558 20.103 31.5445 20.7224 31.531 21.3418Z" fill="#FFCFB3"/>
<path d="M31.5311 21.3417C31.5176 22.0149 31.5041 22.7016 31.6254 23.3614C31.6793 23.6307 31.7467 23.9269 31.6389 24.1827C31.5311 24.4116 31.2885 24.5732 31.0999 24.7483C30.2644 25.5023 30.1836 26.9161 29.2134 27.4816C28.7283 27.7644 28.1489 27.7509 27.5964 27.6701C27.3808 27.6297 27.1518 27.5893 26.9362 27.522C28.2432 26.1217 29.1056 24.3039 29.3347 22.4054C29.4559 21.3821 29.3886 20.3453 29.3077 19.3085C29.2269 18.4198 29.1191 17.5177 28.9843 16.629C28.8631 15.7942 28.5801 14.9055 28.7553 14.0572C28.8226 13.7206 28.9843 13.384 29.2269 13.1416C29.429 13.2628 29.6176 13.3974 29.7928 13.5455C29.941 13.6667 30.1297 13.936 30.2914 14.0033C30.3588 14.0303 30.4396 14.0303 30.507 14.0572C30.6956 14.1245 30.8169 14.3265 30.8977 14.5015C31.2346 15.1883 31.4233 15.9288 31.5445 16.6694C31.5984 17.0464 31.6523 17.4234 31.6928 17.8004C31.7332 18.1505 31.8814 18.5006 31.841 18.8641C31.8275 19.0661 31.7467 19.2681 31.6928 19.4701C31.558 20.1029 31.5445 20.7223 31.5311 21.3417Z" fill="#FFBF99"/>
<path d="M31.2346 15.4443C31.1673 15.1615 31.019 14.798 30.6822 14.7576C30.3183 14.7172 30.0758 15.0942 29.8198 15.35C29.2943 15.8482 28.4992 15.8617 27.7986 15.7271C27.0979 15.5924 26.3972 15.35 25.683 15.4308C25.2653 15.4847 24.8476 15.6463 24.4838 15.8752C24.2816 15.9963 24.093 16.1445 23.9313 16.333C23.8504 16.4138 23.7965 16.4945 23.7426 16.6023C23.3788 17.2351 23.554 18.0295 23.5136 18.7701C23.4327 20.1704 22.5703 21.3957 21.7214 22.5133C21.6675 21.3553 21.1016 20.3051 19.9428 19.9415C19.5789 19.8338 19.1343 19.8069 18.8648 20.0896C18.6222 20.3455 18.6087 20.7225 18.6222 21.0726C18.6087 20.8571 18.3527 20.4667 18.2854 20.2378C18.0024 19.3895 17.8003 18.5143 17.679 17.6121C17.5308 16.4945 17.6251 15.3231 18.0563 14.2594C18.0832 14.1786 18.1237 14.0978 18.1641 14.0036C18.757 12.6705 19.7676 11.3779 21.0746 10.7047C21.937 10.2603 22.9072 10.0584 23.8504 10.018C24.1469 10.0045 24.4299 10.018 24.7263 10.0449C26.2624 10.1526 27.7447 10.7047 28.9978 11.5934C29.9141 12.2397 30.7361 13.0745 31.0595 14.1786C31.1807 14.5691 31.1403 15.0269 31.2346 15.4443Z" fill="#8B575B"/>
<path d="M23.7426 16.5885C23.3788 17.2213 23.554 18.0157 23.5136 18.7563C23.4327 20.1566 22.5703 21.3819 21.7214 22.4995C21.6675 21.3415 21.1016 20.2913 19.9428 19.9277C19.5789 19.82 19.1343 19.7931 18.8648 20.0758C18.6222 20.3317 18.6087 20.7087 18.6222 21.0588C18.6087 20.8433 18.3527 20.4529 18.2854 20.2239C18.0024 19.3757 17.8003 18.5005 17.679 17.5983C17.5308 16.4807 17.6251 15.3093 18.0563 14.2456C18.0832 14.1648 18.1237 14.084 18.1641 13.9897C18.2045 14.0705 18.2584 14.1379 18.3258 14.2186C18.8648 14.8784 19.6059 15.3766 20.3874 15.6863C21.4924 16.1306 22.6781 16.2653 23.8774 16.3192H23.9178C23.8504 16.3999 23.7965 16.4807 23.7426 16.5885Z" fill="#8B575B"/>
<path d="M52.9694 91.0221V46.6421L83.7728 64.3887V108.755L52.9694 91.0221ZM54.0878 48.5676V90.3758L82.6678 106.843V65.035L54.0878 48.5676Z" fill="#E6D8B8"/>
<path d="M83.7727 108.769L87.0336 106.897V62.5308L83.7727 64.4024V108.769Z" fill="#BFA873"/>
<path d="M83.7728 64.4022L87.0337 62.5306L56.2303 44.7705L52.9694 46.6421L83.7728 64.4022Z" fill="#FAF3E2"/>
<path d="M54.0878 90.376L57.3487 88.5044L82.6543 103.1V106.843L54.0878 90.376Z" fill="#FAF3E2"/>
<path d="M54.0878 90.3756L57.3487 88.504L57.3621 50.4659L54.0878 48.5674V90.3756Z" fill="#BFA873"/>
<path d="M57.3486 50.4526V61.6419L82.6543 76.2243V65.035L57.3486 50.4526Z" fill="#66534D"/>
<path d="M21.1824 109.186V64.8193L51.9858 82.5659V126.932L21.1824 109.186ZM22.2873 66.7448V108.553L50.8674 125.02V83.2123L22.2873 66.7448Z" fill="#E6D8B8"/>
<path d="M51.9723 126.946L55.2332 125.075V80.708L51.9723 82.5796V126.946Z" fill="#BFA873"/>
<path d="M51.9723 82.5794L55.2332 80.7078L24.4433 62.9478L21.1824 64.8194L51.9723 82.5794Z" fill="#FAF3E2"/>
<path d="M22.2874 108.553L25.5483 106.682L50.8674 121.264V125.021L22.2874 108.553Z" fill="#FAF3E2"/>
<path d="M22.2874 108.553L25.5483 106.681L25.5617 68.6297L22.2874 66.7446V108.553Z" fill="#BFA873"/>
<path d="M25.5616 68.6299V79.8191L50.8673 94.4015V83.2123L25.5616 68.6299Z" fill="#66534D"/>
<path d="M52.9424 77.6111L87.1011 57.8986L55.314 39.5596L21.1554 59.272L52.9424 77.6111Z" fill="#F8ED60"/>
<path d="M77.5879 52.4048C76.9411 52.6202 76.2808 52.7952 75.5936 52.903C73.9362 53.1857 72.1979 53.1453 70.5944 52.6202C69.759 52.3509 68.9236 51.8796 68.5463 51.0852C68.2903 50.5331 68.2498 49.806 68.2903 49.2136C68.3172 48.7558 68.452 48.2845 68.7349 47.9075C68.8158 47.7998 68.9236 47.6921 69.0583 47.6651C69.2739 47.6113 69.4626 47.7459 69.6647 47.8402L69.7455 47.8806L77.5879 52.4048Z" fill="#F1AD2E"/>
<path d="M67.4143 51.4624C66.5789 52.5261 65.0293 52.5665 63.6683 52.5127C62.6712 52.4723 61.6606 52.4319 60.6904 52.1357C60.0436 51.9471 59.4372 51.6509 58.8309 51.3682C57.3756 50.7084 55.8664 50.1698 54.3573 49.6312C52.6729 49.0388 50.9885 48.4328 49.2503 47.9616C47.6333 47.5307 45.949 47.2075 44.4398 46.4804C44.2377 46.3862 44.049 46.265 43.8873 46.1438L52.6729 41.0811C54.1012 41.7139 55.4487 42.4949 56.8905 43.0738C58.494 43.7202 60.1918 44.0972 61.8358 44.6358C63.4797 45.1744 65.1101 45.8745 66.3768 47.046C66.9966 47.6115 67.5356 48.2982 67.7647 49.0926C68.0207 49.887 67.9398 50.8161 67.4143 51.4624Z" fill="#F1AD2E"/>
<path d="M44.4533 52.3644C43.9278 53.1049 43.1327 53.6031 42.2704 53.859C41.408 54.1283 40.5052 54.1552 39.6023 54.1013C38.8208 54.0475 38.0123 54.1417 37.2443 54.0609C36.6109 53.9936 35.6677 53.6435 35.6947 52.8626C35.6947 52.6337 35.8025 52.4182 35.8968 52.2163C36.2067 51.57 36.5166 50.9236 36.7726 50.2639L41.8122 47.3555C42.3377 47.544 42.8498 47.7998 43.3214 48.096C43.9682 48.5269 44.5746 49.079 44.844 49.8061C45.154 50.6543 44.9653 51.6373 44.4533 52.3644Z" fill="#F1AD2E"/>
<path d="M21.1554 62.4093V59.272L52.9425 77.611V80.7483L21.1554 62.4093Z" fill="#F1AD2E"/>
<path d="M87.1011 61.0357V57.8984L52.9425 77.6109V80.7482L87.1011 61.0357Z" fill="#C95A13"/>
<path d="M42.5534 51.8259C42.4052 51.9337 42.23 52.0279 42.1626 52.203C42.1222 52.2972 42.1357 52.4184 42.1087 52.5126C42.0818 52.6338 42.0279 52.7415 41.947 52.8223C41.8392 52.9435 41.691 53.0243 41.5293 53.0782C41.2598 53.159 40.9634 53.1186 40.6939 53.0916C40.4109 53.0647 40.1279 53.0108 39.8584 53.0782C39.2925 53.1859 38.8748 53.6706 38.3627 53.9399C37.7429 54.2631 37.0691 54.1554 36.3954 54.1554C35.6543 54.1688 34.9132 54.2496 34.1855 54.3842C32.7303 54.667 31.3154 55.1248 29.9005 55.5018C27.4347 56.1751 24.9014 56.6059 22.3547 56.8079C21.2093 56.9022 20.037 56.9426 18.9051 56.8483C18.3122 56.8079 17.7463 56.6867 17.1669 56.579C16.7087 56.4982 16.4662 56.1751 16.1967 55.7981C16.1293 55.7173 16.0889 55.6365 16.0215 55.5422C15.5903 54.9228 15.1995 54.3035 14.8492 53.6571C14.2159 52.4722 13.7847 51.22 13.34 49.9678C12.8684 48.6617 12.4507 47.3287 12.1408 45.9553C11.8982 44.8781 11.7096 43.7605 11.6422 42.6429C11.5748 41.7543 11.5748 40.8521 11.6691 39.95C11.6961 39.7345 11.75 39.4922 11.9521 39.4249C12.1003 39.371 12.2486 39.4518 12.4103 39.5056C12.9762 39.7076 13.4478 39.196 13.9464 39.0478C14.701 38.792 15.5095 38.8459 16.2775 39.0613C17.4364 39.371 18.5682 40.1923 18.6356 41.4715C18.7165 43.0334 19.1746 44.6357 19.5249 46.1573C19.7405 47.0998 19.9831 48.0289 20.2256 48.9579C20.3334 49.3619 20.4412 49.7658 20.4951 50.1832C21.5731 50.1024 22.6511 50.2236 23.7291 50.3987C24.4433 50.5064 25.1574 50.6276 25.8716 50.7218C29.0382 51.1123 32.2317 50.8026 35.4117 50.4391C35.789 50.3448 36.099 50.089 36.3954 49.8331C36.867 49.4292 37.3521 49.0118 37.8103 48.5809C38.1336 48.2578 38.4705 47.9077 38.9152 47.8134C39.1847 47.7461 39.4677 47.773 39.7371 47.8269C40.2627 47.9077 40.7747 48.0423 41.2733 48.2308C41.5023 48.3116 41.7314 48.4059 41.9066 48.5944C42.0818 48.7694 42.1626 49.0522 42.0548 49.2676C42.3108 49.4023 42.486 49.6446 42.5264 49.9139C42.5399 49.9947 42.5399 50.0755 42.5669 50.1563C42.6073 50.2506 42.6747 50.3179 42.7555 50.3987C43.0385 50.7891 42.9576 51.4759 42.5534 51.8259Z" fill="#FFCFB3"/>
<path d="M41.9471 52.822C41.8393 52.9432 41.6911 53.024 41.5294 53.0779C41.2599 53.1587 40.9635 53.1183 40.694 53.0913C40.411 53.0644 40.128 53.0105 39.8585 53.0779C39.2926 53.1856 38.8749 53.6703 38.3628 53.9396C37.743 54.2628 37.0692 54.1551 36.3955 54.1551C35.6544 54.1685 34.9133 54.2493 34.1856 54.384C32.7304 54.6667 31.3155 55.1245 29.9007 55.5015C27.4348 56.1748 24.9015 56.6056 22.3548 56.8076C21.2094 56.9019 20.0371 56.9423 18.9052 56.848C18.3123 56.8076 17.7464 56.6864 17.167 56.5787C16.7088 56.4979 16.4663 56.1748 16.1968 55.7978C16.1294 55.717 16.089 55.6362 16.0216 55.5419C16.4528 55.8112 16.9514 55.9863 17.5712 56.0401C20.886 56.4037 24.2817 56.0805 27.4752 55.0976C28.5801 54.761 29.6581 54.3436 30.7765 54.0877C32.407 53.6972 34.1048 53.6569 35.7218 53.226C36.5842 53.0105 37.4061 52.6739 38.2955 52.5123C39.4947 52.3104 40.7748 52.4181 41.9471 52.822Z" fill="#FFBF99"/>
<path d="M23.7022 50.4118C23.244 50.4253 22.7994 50.4253 22.3412 50.4253C21.9639 50.4388 21.5866 50.4388 21.2228 50.533C20.7916 50.6542 20.4143 50.9235 20.1448 51.2736C20.1179 51.314 19.4846 52.0949 19.3902 51.8526C19.1881 51.3409 19.9966 50.9504 20.0101 50.3984C20.0101 50.2503 19.9427 50.1156 19.9023 49.9675C19.3094 48.5537 18.703 47.1399 18.1101 45.7126C17.8945 45.201 17.6789 44.7028 17.396 44.2315C17.1939 43.9084 16.9513 43.5987 16.5875 43.464C16.291 43.3563 15.9542 43.3832 15.6308 43.4102C14.7684 43.4909 13.8656 43.4775 13.0167 43.262C12.4642 43.1274 12.0061 42.9389 11.6288 42.6561C11.5614 41.7674 11.5614 40.8653 11.6557 39.9632C11.6827 39.7477 11.7366 39.5054 11.9387 39.438C12.0869 39.3842 12.2351 39.465 12.3968 39.5188C12.9628 39.7208 13.4344 39.2091 13.933 39.061C14.6875 38.8052 15.496 38.8591 16.2641 39.0745C17.4229 39.3842 18.5548 40.2055 18.6222 41.4847C18.703 43.0466 19.1612 44.6489 19.5115 46.1704C19.7271 47.113 19.9697 48.042 20.2122 48.9711C20.32 49.3751 20.4278 49.779 20.4817 50.1964C21.5462 50.1156 22.6242 50.2368 23.7022 50.4118Z" fill="#FFBF99"/>
<path d="M18.6222 41.9561C18.3662 42.0639 18.0967 42.1042 17.8272 42.1716C17.4095 42.2793 16.9648 42.3466 16.5336 42.387C16.2506 42.4139 15.9677 42.4274 15.6982 42.4543C15.5634 42.4678 15.4421 42.4678 15.3209 42.4813C14.0003 42.5486 12.6124 42.562 11.4401 41.9696C11.1841 41.835 11.0494 41.7676 11.0089 41.5118C10.9685 41.229 10.982 40.8924 10.982 40.6097C10.9685 40.0172 10.982 39.4113 11.0224 38.8054C11.1033 37.6205 11.2919 36.449 11.5749 35.2776C11.7366 34.6178 11.9252 33.9715 12.2621 33.3656C12.6933 32.5577 13.3266 31.9518 14.1755 31.8575C14.4046 31.8306 14.6471 31.8306 14.9166 31.8845C14.9436 31.8979 14.984 31.8979 14.9975 31.9114C16.1294 32.1942 16.83 33.0559 17.3151 34.0388C18.1236 35.6277 18.5009 37.3916 18.73 39.142C18.7974 39.5863 18.8378 40.0307 18.8782 40.475C18.9186 40.8386 19.0399 41.7811 18.6222 41.9561Z" fill="#28878B"/>
<path d="M18.6221 41.9561C18.3661 42.0639 18.0966 42.1042 17.8271 42.1716C17.4094 42.2793 16.9647 42.3466 16.5336 42.387C16.2506 42.4139 15.9676 42.4274 15.6981 42.4543C15.9676 41.3771 16.0754 40.2326 16.0889 39.1151C16.1158 37.8763 15.9946 36.6241 15.7116 35.4257C15.4556 34.2812 14.9974 33.0694 14.3372 32.1134C14.2833 32.0326 14.2294 31.9518 14.162 31.8575C14.3911 31.8306 14.6336 31.8306 14.9031 31.8845C14.9301 31.8979 14.9705 31.8979 14.9839 31.9114C16.1158 32.1942 16.8165 33.0559 17.3016 34.0388C18.1101 35.6277 18.4874 37.3916 18.7165 39.142C18.7838 39.5863 18.8243 40.0307 18.8647 40.475C18.9186 40.8386 19.0399 41.7811 18.6221 41.9561Z" fill="#63A194"/>
<path d="M66.3768 49.2003C66.2286 49.3619 66.3364 49.4561 66.4038 49.6312C66.4846 49.7928 66.5385 49.9678 66.579 50.1428C66.579 50.1563 66.5924 50.1563 66.5924 50.1698C66.6329 50.4121 66.6598 50.668 66.6329 50.9103C66.6329 50.9507 66.6194 51.0181 66.6059 51.0719C66.5924 51.1392 66.579 51.2066 66.5655 51.2739C66.4981 51.4624 66.3634 51.624 66.1747 51.6374C66.0535 51.6509 65.9322 51.6105 65.7974 51.5836C65.757 51.5836 65.7166 51.5701 65.6762 51.5836C65.3123 51.597 64.9755 51.8529 64.6116 51.8259C64.4769 51.8125 64.3556 51.7586 64.2209 51.7586C63.9918 51.7317 63.7627 51.7721 63.5337 51.8259C63.2642 51.8933 62.9812 51.9471 62.6982 51.9875C62.1323 52.0548 61.5663 52.0414 61.0274 51.8663C60.3536 51.6374 59.8146 51.1527 59.2756 50.7218C58.831 50.3583 58.4537 49.8735 57.982 49.5504C57.7799 49.4292 57.5104 49.3888 57.2814 49.308C56.7289 49.1599 56.1629 49.0118 55.6105 48.8502C54.5055 48.5675 53.4006 48.2982 52.2822 48.0693C51.0425 47.8134 49.8028 47.598 48.5901 47.2883C47.3235 46.9517 46.1377 46.4939 44.9384 46.0091C43.5775 45.4571 42.3648 44.5146 41.1924 43.6259C39.0365 41.9832 36.8401 40.3674 34.6302 38.8055C34.5898 38.6304 34.5494 38.4689 34.5089 38.2938C34.3607 37.6744 34.2125 37.0551 34.0643 36.4357C33.9834 36.126 33.9026 35.8028 33.8352 35.4797C34.199 34.766 34.5494 34.0389 34.8458 33.2984C34.9806 32.9887 35.1018 32.6655 35.2905 32.3962C35.3174 32.3424 35.3579 32.2885 35.3983 32.2481C35.4791 32.1404 35.56 32.0596 35.6543 31.9788C36.0855 31.6422 36.6245 31.6153 37.0692 31.8038C37.0826 31.8038 37.0826 31.8038 37.0961 31.8172C37.4195 31.9519 37.7159 32.2077 37.8776 32.5443C37.945 32.6925 38.0259 32.8406 38.0932 32.9752C38.1741 33.1233 38.2549 33.2714 38.3493 33.4196C38.7805 34.1601 39.2655 34.8468 39.8315 35.4931C40.2896 36.0048 44.8306 39.4114 45.3696 39.6672C45.9356 39.9634 46.4611 39.9904 47.054 40.125C48.2532 40.4347 49.3986 40.9868 50.4496 41.66C50.9886 42.0101 51.5276 42.3871 52.0666 42.7507C52.673 43.1546 55.9878 44.7569 57.0658 45.0801C57.6317 45.2551 59.3026 45.9014 59.5855 45.9553C60.3806 46.0765 61.1486 45.6995 61.9706 45.7668C62.7252 45.8341 63.4663 46.063 64.14 46.3862C64.5577 46.5881 64.962 46.8305 65.2989 47.1537C65.6357 47.4633 65.8918 47.8673 66.296 48.0827C66.4712 48.1904 66.6733 48.2578 66.8215 48.3924C66.9697 48.5405 67.0371 48.8098 66.8889 48.9445C66.7137 49.0926 66.5116 49.0657 66.3768 49.2003Z" fill="#FFCFB3"/>
<path d="M66.6059 51.0585C66.5924 51.1258 66.579 51.1931 66.5655 51.2605C66.4981 51.449 66.3634 51.6105 66.1747 51.624C66.0535 51.6375 65.9322 51.5971 65.7974 51.5701C65.757 51.5701 65.7166 51.5567 65.6762 51.5701C65.3123 51.5836 64.9755 51.8394 64.6117 51.8125C64.4769 51.799 64.3556 51.7452 64.2209 51.7452C63.9918 51.7183 63.7627 51.7586 63.5337 51.8125C63.2642 51.8798 62.9812 51.9337 62.6982 51.9741C62.1323 52.0414 61.5663 52.0279 61.0274 51.8529C60.3536 51.624 59.8146 51.1393 59.2756 50.7084C58.831 50.3448 58.4537 49.8601 57.982 49.537C57.7799 49.4158 57.5104 49.3754 57.2814 49.2946C56.7289 49.1465 56.163 48.9984 55.6105 48.8368C54.5056 48.554 53.4006 48.2847 52.2822 48.0558C51.0425 47.8 49.8028 47.5846 48.5901 47.2749C47.3235 46.9383 46.1377 46.4804 44.9384 45.9957C43.5775 45.4437 42.3648 44.5011 41.1924 43.6124C39.0365 41.9697 36.8401 40.354 34.6302 38.792C34.5898 38.617 34.5494 38.4554 34.5089 38.2804C34.3607 37.661 34.2125 37.0416 34.0643 36.4222C33.9834 36.1125 33.9026 35.7894 33.8352 35.4662C34.199 34.7526 34.5494 34.0255 34.8458 33.2849C34.9806 32.9752 35.1018 32.6521 35.2905 32.3828C35.3309 32.3559 35.3848 32.3155 35.4252 32.302C35.9238 31.9923 36.4897 31.7365 37.0692 31.8038C37.0826 31.8038 37.0826 31.8038 37.0961 31.8173C37.4195 31.9519 37.7159 32.2078 37.8776 32.5444C37.945 32.6925 38.0259 32.8406 38.0932 32.9753C38.1741 33.1234 38.2549 33.2715 38.3493 33.4196C38.3493 33.5273 38.3358 33.6081 38.3223 33.7024C38.1471 34.618 37.7025 35.4932 37.0153 36.126C36.6514 36.4761 36.1933 36.7723 36.0181 37.2436C35.7486 37.9976 36.3011 38.792 36.867 39.371C37.7429 40.2732 38.6996 41.0945 39.6563 41.9024C40.2627 42.4141 40.9903 42.9661 41.7988 43.0739C42.6073 43.1816 43.2945 42.616 43.7527 41.9832C43.9144 41.7678 44.0222 41.5254 44.1839 41.2965C44.3321 41.0676 44.5342 40.8656 44.8037 40.7848C44.8711 40.7579 44.9654 40.7579 45.0193 40.8252C45.0597 40.8791 45.0462 40.9733 45.0193 41.0407C44.8711 41.3908 44.5746 41.66 44.3321 41.9428C44.1434 42.1852 43.9817 42.4679 43.8739 42.7642C43.7931 42.9931 43.6179 43.397 43.7122 43.6663C43.8739 44.1914 44.5611 44.5819 45.0193 44.8108C47.8894 46.2381 51.1503 46.642 54.3034 47.2075C55.5027 47.423 56.7424 47.6788 57.8338 48.2174C59.1139 48.8503 60.165 49.8332 61.4046 50.493C61.5124 50.5603 61.6202 50.6141 61.7415 50.668C63.2237 51.3816 65.0024 51.5163 66.6059 51.0585Z" fill="#FFBF99"/>
<path d="M62.5231 46.0227C62.0785 46.0227 61.6203 45.9823 61.1891 45.8881C59.1005 45.4572 57.3892 44.0299 55.9474 42.7238L55.5836 42.4007C54.2496 41.2023 52.8752 39.9501 51.2313 39.3307C50.1533 38.9133 48.9675 38.7787 47.8221 38.9402C47.108 39.0345 46.3803 39.2499 45.6796 39.4519C44.5343 39.7885 43.3485 40.1386 42.0953 40.0309L42.1627 39.2499C43.2542 39.3442 44.3187 39.0345 45.4506 38.6979C46.1782 38.4824 46.9328 38.267 47.7143 38.1593C48.9944 37.9842 50.3015 38.1323 51.5007 38.5901C53.2929 39.2768 54.7212 40.5695 56.0957 41.8217L56.446 42.1449C57.807 43.3701 59.4239 44.7166 61.3239 45.1206C62.4558 45.3629 63.655 45.2418 64.7195 44.7974C65.0564 44.6628 65.3798 44.4877 65.7167 44.3127C66.3096 44.003 66.9159 43.6798 67.6031 43.5317C68.8024 43.2759 70.2846 43.7472 70.5945 44.9859L69.8265 45.1744C69.6378 44.4204 68.5868 44.1107 67.7648 44.2858C67.1854 44.4204 66.6464 44.7032 66.0805 44.9994C65.7436 45.1744 65.3933 45.3629 65.016 45.5245C64.2479 45.8477 63.3855 46.0227 62.5231 46.0227Z" fill="#8A5589"/>
<path d="M45.2753 39.6268C44.4668 40.2462 43.7392 40.9599 43.0924 41.7274C42.7555 42.1313 42.4321 42.5756 42.1761 43.0469C42.001 43.3701 41.8662 43.6932 41.7584 44.0433C41.5563 43.8952 41.3676 43.7471 41.179 43.599C40.2627 42.8988 39.3329 42.1986 38.3897 41.5254C37.7429 41.0406 37.0827 40.5559 36.4224 40.0846C36.2876 39.9769 36.1664 39.8827 36.0316 39.7884C36.1529 39.4922 36.3011 39.196 36.4628 38.9132C36.8266 38.2669 37.3117 37.6744 37.8507 37.1493C38.484 36.5434 39.1847 36.0317 39.9393 35.5874C40.7882 36.3818 44.5746 39.2229 45.2753 39.6268Z" fill="#8A5589"/>
<path d="M42.1761 43.0605C42.001 43.3836 41.8662 43.7068 41.7584 44.0568C41.5563 43.9087 41.3676 43.7606 41.179 43.6125C40.2627 42.9123 39.3329 42.2122 38.3897 41.5389C37.7429 41.0407 37.0827 40.5695 36.4224 40.0982C36.2876 39.9905 36.1664 39.8962 36.0316 39.802C36.1529 39.5057 36.3011 39.2095 36.4628 38.9268C36.5841 39.0749 36.7188 39.223 36.8401 39.3576C37.716 40.2598 38.6727 41.0811 39.6294 41.889C40.2358 42.4007 40.9634 42.9527 41.7719 43.0605C41.9201 43.0739 42.0549 43.0739 42.1761 43.0605Z" fill="#874E6E"/>
<path d="M38.0798 32.9078C38.0798 32.9212 38.0798 32.9482 38.0663 32.9616C38.0259 33.3925 37.8777 33.7695 37.6216 34.1196C37.3522 34.4966 37.0153 34.8332 36.6515 35.116C36.5706 35.1833 36.4763 35.2506 36.382 35.318C35.6678 35.8027 34.8728 36.1528 34.0374 36.4221C33.9565 36.1124 33.8757 35.7892 33.8083 35.4661C33.3771 33.7426 32.9728 32.0326 32.5551 30.3091C32.3126 29.3396 32.07 28.3297 31.4771 27.5084C31.4367 27.4545 31.3963 27.4007 31.3559 27.3603C31.0055 26.9698 30.5743 26.7678 30.0892 26.5928C30.9247 26.6736 31.7601 26.9429 32.5416 27.3064C33.3501 27.6969 34.0104 28.2085 34.7246 28.7067C35.8564 29.5146 36.8132 30.538 37.5947 31.6825C37.8777 32.0595 38.1202 32.4365 38.0798 32.9078Z" fill="#28878B"/>
<path d="M36.665 35.1161C36.5841 35.1834 36.4898 35.2507 36.3955 35.318C35.6813 35.8028 34.8863 36.1529 34.0509 36.4222C33.97 36.1125 33.8892 35.7893 33.8218 35.4662C33.3906 33.7427 32.9864 32.0326 32.5686 30.3091C32.3261 29.3397 32.0835 28.3298 31.4907 27.5085C31.4502 27.4546 31.4098 27.4007 31.3694 27.3604C31.4098 27.3873 31.4637 27.4142 31.5041 27.4411C31.9892 27.7508 32.4474 28.1144 32.8516 28.5318C33.6601 29.3262 34.2799 30.2687 34.8324 31.2651C35.0211 31.5883 35.1962 31.9115 35.3714 32.2481C35.3849 32.2615 35.3849 32.2885 35.3983 32.3019C35.87 33.2041 36.2877 34.1466 36.665 35.1161Z" fill="#63A194"/>
<path d="M64.9216 48.1365C64.8138 48.0692 64.679 48.0018 64.5712 48.0692C64.4904 48.123 64.45 48.2307 64.3556 48.2307C64.3152 48.2307 64.2613 48.2038 64.2344 48.1769C64.0727 48.0691 63.884 47.9749 63.6954 47.9345C63.5067 47.8941 63.2911 47.921 63.1294 48.0422C63.089 48.0692 63.0621 48.0961 63.0216 48.1095C62.9812 48.123 62.9273 48.1095 62.8869 48.0961C62.6309 48.0422 62.3614 48.0691 62.1458 48.2038C61.9841 48.1365 61.7954 48.1095 61.6203 48.1365C61.5529 48.1499 61.499 48.1634 61.4451 48.1903C61.3103 48.2981 61.3373 48.5 61.3777 48.6751C61.4451 48.9713 61.5259 49.2675 61.5933 49.5637C61.6607 49.8196 61.7146 50.1158 61.5664 50.3447C61.3912 50.6005 61.0004 50.6679 60.8522 50.9506C60.7579 51.1526 60.8252 51.4084 60.9869 51.5565C61.1486 51.7046 61.3777 51.7854 61.5933 51.7989C61.8089 51.8124 62.038 51.7854 62.2536 51.7585C62.294 51.7585 62.3344 51.7585 62.3748 51.7585C62.4422 51.772 62.4961 51.8258 62.5365 51.8662C63.0486 52.2836 63.8571 52.2432 64.3287 51.7854C64.5308 51.9201 64.7868 51.9066 65.0294 51.8932C65.1641 51.8932 65.3124 51.8797 65.4336 51.8258C65.5549 51.772 65.6762 51.6643 65.6896 51.5296C65.9996 51.5969 66.323 51.4757 66.5655 51.2603C66.6598 51.1661 66.7407 51.0583 66.7811 50.9372C66.862 50.6409 66.6868 50.3312 66.5655 50.0754C66.4577 49.8196 66.323 49.5637 66.1747 49.3348C65.8379 48.8636 65.4202 48.4462 64.9216 48.1365Z" fill="#FFBF99"/>
<path d="M97.4497 45.3629C97.3419 46.2246 96.8568 46.7901 96.0214 47.1268C93.4612 48.1366 90.6854 48.5002 87.9231 48.6618C85.1742 48.8233 82.3984 48.8099 79.663 49.1061C78.9893 49.1869 78.3155 49.2677 77.6283 49.3215C77.251 49.3485 76.9276 49.4966 76.5638 49.6312C76.1595 49.7659 75.7553 49.914 75.3511 50.1025C74.8121 50.3449 74.2731 50.6815 73.6802 50.7892C73.4511 50.8296 73.2086 50.8296 72.9795 50.8296C72.1306 50.8296 71.2817 50.8296 70.4328 50.8161C70.2172 50.8161 70.0016 50.8161 69.786 50.7488C69.4626 50.6545 69.2066 50.3987 69.0179 50.116C68.8427 49.8332 68.7349 49.51 68.6137 49.1869C68.5193 48.8907 68.4115 48.5944 68.3846 48.2713C68.3711 47.975 68.4385 47.6384 68.6406 47.4365C68.681 47.3961 68.7349 47.3557 68.7888 47.3287C68.9236 47.2614 69.0988 47.2345 69.1931 47.1268C69.247 47.0594 69.2739 46.9787 69.3009 46.9113C69.3952 46.7094 69.9342 45.9284 70.1902 46.292C70.2441 46.3593 70.2576 46.4535 70.2711 46.5343C70.3115 46.7767 70.3789 47.0191 70.5271 47.221C70.7562 47.5172 71.1469 47.6788 71.5242 47.6654C71.9015 47.6519 72.2653 47.4903 72.5753 47.2749C72.7639 47.1268 72.9391 46.9652 73.1277 46.844C73.4376 46.6286 73.7341 46.6286 74.0844 46.5882C74.4887 46.5478 74.8525 46.3727 75.2298 46.2516C75.6206 46.1169 76.1191 45.9823 76.5234 46.09C77.9382 46.4939 79.5687 46.292 80.997 46.0765C82.9778 45.7938 84.9316 45.2821 86.8046 44.5819C87.8557 44.178 88.8932 43.7202 89.8769 43.1816C90.0655 43.0873 90.4698 42.9796 90.618 42.818C90.9414 42.4679 90.5102 41.4716 90.4294 41.0676C90.3485 40.7041 89.9577 39.4114 89.54 38.1996C89.284 37.4725 89.0415 36.7723 88.8663 36.3011C88.8259 36.2068 88.7854 36.1126 88.7585 36.0318C88.5294 35.5201 88.3003 34.995 88.0713 34.4833C87.9231 34.1467 87.5727 33.6754 87.8153 33.3119C87.9769 33.0964 88.2599 32.9887 88.5294 32.9753C88.7989 32.9618 89.0684 33.0157 89.3379 33.0561C90.4563 33.1638 91.5612 32.7733 92.5719 32.3155C92.8279 32.2078 93.0974 32.0866 93.3399 31.9519C93.4747 31.8712 93.7172 31.6423 93.8924 31.6692C94.2562 31.6961 94.4314 32.6925 94.5527 32.9887C94.62 33.1907 94.6874 33.3792 94.7548 33.5677C95.3746 35.3047 95.9406 37.0551 96.4526 38.819C96.5604 39.1825 96.6682 39.5326 96.7625 39.8962C96.9646 40.6367 97.1668 41.3638 97.3015 42.1179C97.5171 43.195 97.598 44.2857 97.4497 45.3629Z" fill="#FFCFB3"/>
<path d="M97.4497 45.3628C97.3419 46.2245 96.8568 46.7901 96.0214 47.1267C93.4612 48.1366 90.6854 48.5001 87.923 48.6617C85.1742 48.8233 82.3984 48.8098 79.663 49.106C78.9893 49.1868 78.3155 49.2676 77.6283 49.3215C77.251 49.3484 76.9276 49.4965 76.5638 49.6311C76.1595 49.7658 75.7553 49.9139 75.3511 50.1024C74.8121 50.3448 74.2731 50.6814 73.6802 50.7891C73.4511 50.8295 73.2086 50.8295 72.9795 50.8295C72.1306 50.8295 71.2817 50.8295 70.4328 50.816C70.2172 50.816 70.0016 50.816 69.786 50.7487C69.4626 50.6545 69.2066 50.3986 69.0179 50.1159C68.8427 49.8331 68.7349 49.51 68.6137 49.1868C68.5193 48.8906 68.4115 48.5944 68.3846 48.2712C68.3711 47.975 68.4385 47.6384 68.6406 47.4364C68.6137 48.3385 69.0988 49.2407 69.8668 49.7389C70.7292 50.3044 72.3597 50.0216 73.3164 49.8466C75.2972 49.483 77.1567 48.6617 79.1105 48.1635C83.6785 47.019 88.6507 47.7057 92.9626 45.8475C93.4612 45.6321 93.7981 45.3493 94.0002 44.8242C94.0541 44.6896 94.081 44.5415 94.0406 44.3933C93.9732 44.1914 93.7711 44.0836 93.569 43.9894C93.2187 43.8278 92.8548 43.6528 92.5045 43.4912C92.4641 43.4643 92.3967 43.4373 92.3697 43.3969C92.2889 43.2758 92.4236 43.1142 92.5719 43.1007C92.7201 43.0872 92.8414 43.1815 92.9626 43.2488C93.542 43.6124 94.2293 43.8143 94.9299 43.8278C95.2533 43.8413 95.5902 43.8009 95.8732 43.6393C96.7356 43.168 96.3987 42.037 96.2235 41.283C95.9945 40.327 95.6306 39.3979 95.1455 38.5631C95.0377 38.3611 94.903 38.1591 94.7009 38.0514C94.3775 37.8629 93.9732 37.9841 93.6094 38.0783C92.3158 38.415 90.901 38.4823 89.5805 38.1861C89.567 38.1861 89.567 38.1861 89.5535 38.1726C89.2975 37.4455 89.0549 36.7453 88.8798 36.2741C88.9471 36.0182 89.0415 35.7624 89.1493 35.5739C89.9173 34.1466 91.5478 33.2983 93.1647 33.2983C93.7172 33.2983 94.2562 33.3926 94.7683 33.5542C95.3881 35.2911 95.954 37.0416 96.4661 38.8054C96.5739 39.169 96.6817 39.5191 96.776 39.8826C96.9781 40.6232 97.1802 41.3503 97.315 42.1043C97.5171 43.195 97.598 44.2856 97.4497 45.3628Z" fill="#FFBF99"/>
<path d="M73.6937 47.3691C73.6263 47.2479 73.5589 47.1133 73.4916 46.9921C73.3433 46.6959 73.1682 46.4131 72.9795 46.1438C72.5888 45.5918 72.1171 45.0666 71.5242 44.7166C70.9718 44.3934 70.3385 44.2857 69.7321 44.5146C69.3683 44.6492 69.0988 45.0262 69.0449 45.4033C68.8832 46.6959 69.3279 48.0693 70.1902 49.0388C70.608 49.4966 71.147 49.8736 71.7398 50.0486C72.3193 50.2237 73.1547 50.2775 73.5589 49.7524C73.7745 49.4831 73.8554 49.1195 73.8689 48.7695C73.8958 48.2982 73.8958 47.8 73.6937 47.3691Z" fill="#8A5589"/>
<path d="M70.837 46.9649C71.3221 47.2342 71.8745 47.3689 72.427 47.4631C72.7639 47.517 73.1277 47.5574 73.3568 47.8132C73.505 47.9613 73.5589 48.1768 73.6936 48.3383C73.8418 48.5403 74.0844 48.675 74.3135 48.7827C74.5695 48.8904 74.8525 48.9847 75.1354 48.9847C75.4184 48.9847 75.7148 48.9039 75.917 48.7154C76.146 48.5268 76.2673 48.2306 76.2943 47.9344C76.3077 47.7594 76.3077 47.5843 76.2673 47.4227C76.1326 46.9245 75.6879 46.561 75.2028 46.3859C74.7177 46.2109 74.1922 46.1974 73.6802 46.184C73.1681 46.1705 72.6426 46.1705 72.1575 46.0089C71.888 45.9281 71.632 45.7935 71.3625 45.7127C71.0256 45.6185 70.527 45.6858 70.3654 46.0493C70.1902 46.4398 70.527 46.7899 70.837 46.9649Z" fill="#FFBF99"/>
<path d="M95.0647 35.7757C94.7952 36.1393 94.4853 36.4759 94.1215 36.7586C93.9193 36.9202 93.7037 37.0683 93.4882 37.203C92.5314 37.7416 91.3996 37.9705 90.3081 37.8897C89.6478 37.8358 88.9337 37.6608 88.489 37.1491C88.233 36.8664 88.0848 36.5028 87.9231 36.1527C87.5188 35.1563 87.1685 34.1195 86.7373 33.1501C86.2791 32.1268 85.8749 31.0765 85.6593 29.9724C85.3898 28.5586 85.4302 27.064 86.0231 25.7714C86.4139 24.9096 87.0876 23.9805 87.9231 23.4285C88.1387 23.2804 88.3677 23.1727 88.6103 23.0919C89.3783 22.836 90.2677 22.9168 90.9414 23.3477C91.6286 23.7786 92.0463 24.5057 92.4371 25.2058C93.5555 27.1986 94.2832 29.4473 94.93 31.6286C95.159 32.396 95.3746 33.177 95.5633 33.958C95.7519 34.6851 95.5094 35.1698 95.0647 35.7757Z" fill="#F2F2F2"/>
<path d="M95.0647 35.7757C94.7952 36.1393 94.4852 36.4759 94.1214 36.7586C93.4881 32.5576 92.1676 28.4374 89.7421 24.9635C89.2301 24.2229 88.718 23.7786 87.9095 23.4285C88.1251 23.2804 88.3542 23.1727 88.5968 23.0919C89.3648 22.836 90.2542 22.9168 90.9279 23.3477C91.6151 23.7786 92.0328 24.5057 92.4236 25.2058C93.542 27.1986 94.2697 29.4473 94.9164 31.6286C95.1455 32.396 95.3611 33.177 95.5498 33.958C95.7519 34.6851 95.5093 35.1698 95.0647 35.7757Z" fill="#E4DCE7"/>
<path d="M47.2158 41.7003C46.4207 42.1581 45.1137 42.1581 44.3052 41.7003C43.4967 41.2425 43.4967 40.4884 44.2917 40.0172C45.0867 39.5594 46.3938 39.5594 47.2023 40.0172C48.0108 40.4884 48.0108 41.229 47.2158 41.7003Z" fill="#F2F2F2"/>
<path d="M47.3505 39.3306H44.184V40.4212H44.1974C44.2109 40.6501 44.3591 40.879 44.6556 41.0406C45.2754 41.4041 46.2726 41.4041 46.8924 41.0406C47.1888 40.8656 47.3505 40.6367 47.3505 40.4078V39.3306Z" fill="#CCCCCC"/>
<path d="M62.0785 45.3491C61.4991 45.3491 60.8927 45.3087 60.2729 45.2414C59.2353 45.1202 58.2112 44.9047 57.2141 44.5951C55.5971 44.0969 54.0475 43.3698 52.5518 42.6696L51.7703 42.306C51.5277 42.1983 51.2852 42.0771 51.0426 41.956C49.6817 41.2962 48.1186 40.5421 46.7442 40.6095L46.7037 39.8285C48.2938 39.7612 49.9377 40.5556 51.3795 41.2558C51.622 41.377 51.8646 41.4981 52.1071 41.6059L52.8887 41.9694C54.3574 42.6561 55.8801 43.3832 57.4432 43.8545C58.3999 44.1507 59.3835 44.3527 60.3672 44.4739C61.9437 44.6624 63.399 44.5951 64.6791 44.2854C65.6628 44.043 66.7138 43.6121 67.8726 42.9658C68.5868 42.5753 69.4896 42.0233 70.2038 41.2558C71.6321 39.7073 72.2115 37.0548 72.6697 34.9273L72.737 34.5907C73.1009 32.8941 73.2087 31.1303 73.303 29.4202L73.5051 25.8521L74.2867 25.8924L74.0845 29.4606C73.9902 31.1976 73.8824 33.0019 73.5051 34.7523L73.4377 35.0889C72.9526 37.3106 72.3598 40.0843 70.7832 41.7944C70.0017 42.6427 69.018 43.2351 68.2634 43.6525C67.0372 44.3258 65.9323 44.7836 64.8678 45.0394C64.0054 45.2414 63.0756 45.3491 62.0785 45.3491Z" fill="#CCCCCC"/>
<path d="M46.8924 39.9634C46.2725 40.3135 45.2754 40.3135 44.6555 39.9634C44.0357 39.6133 44.0357 39.0343 44.6421 38.6708C45.2619 38.3207 46.259 38.3207 46.8789 38.6708C47.4987 39.0343 47.4987 39.6133 46.8924 39.9634Z" fill="#F2F2F2"/>
<path d="M71.0257 23.6169C70.864 24.1555 70.7158 24.6806 70.5541 25.2192C70.4867 25.4481 70.4194 25.677 70.352 25.9059C69.9073 27.4409 69.53 29.0028 69.6378 30.5917C69.6513 30.7129 69.6513 30.8206 69.6648 30.9418C69.7052 31.2515 69.7456 31.5746 69.786 31.8843C69.7052 31.992 69.6109 32.0998 69.53 32.2075C69.1662 32.6383 65.9322 35.9238 65.1911 36.6105C64.6117 37.1356 64.0188 37.7146 63.3316 38.105C62.833 38.3743 62.2806 38.5359 61.7416 38.6571C60.1111 39.0611 58.4268 39.3573 56.7424 39.4919C55.88 39.5592 55.0311 39.5996 54.1822 39.5727C53.4142 39.5592 52.6191 39.5054 51.8646 39.7074C51.3121 39.8555 50.7731 39.9497 50.2206 40.044C49.8164 40.1248 49.4256 40.2594 49.0618 40.4479C48.671 40.6634 48.2937 40.9461 47.8625 41.0808C47.5122 41.202 47.081 41.1885 46.7846 40.9596C46.7172 40.9057 46.6633 40.8519 46.6094 40.798C46.5555 40.7172 46.5016 40.623 46.5285 40.5287C46.542 40.4345 46.5824 40.3671 46.6363 40.2863C46.8654 39.9767 47.1618 39.6939 47.4852 39.4785C47.7547 39.3169 47.9838 39.2361 48.0108 38.9129C48.0512 38.6032 47.9434 38.307 47.7143 38.0916C47.4448 37.8358 47.054 37.728 46.6768 37.755C46.2995 37.7684 45.9491 37.9031 45.5988 38.0647C45.0733 38.307 44.5343 38.6706 44.3726 39.2226C44.3052 39.4785 44.2917 39.7882 44.0626 39.9363C44.0222 39.9632 43.9683 39.9767 43.9144 39.9767C43.8066 39.9632 43.7527 39.8555 43.6988 39.7612C43.4159 39.1149 43.2946 38.3878 43.4024 37.7011C43.591 36.4489 44.4399 35.4659 45.6796 35.2101C46.3534 35.0755 47.0271 34.9678 47.7278 34.9139C48.3207 34.86 48.9405 34.8466 49.5065 35.0351C49.9107 35.1697 50.1937 35.3852 50.5171 35.6275C50.8809 35.9372 51.3256 36.1661 51.7972 36.2873C52.3092 36.422 52.5518 36.3008 53.0369 36.1257C54.0744 35.7487 55.0985 35.3448 56.1091 34.887C56.9715 34.4965 60.3537 32.7865 61.1622 32.2748C61.9841 31.7766 62.6309 31.0899 63.3047 30.3897C64.1536 29.5145 64.9621 28.572 65.6762 27.589C65.7975 27.4275 65.9188 27.2524 66.0266 27.0908C66.2691 26.7542 66.4847 26.4176 66.6868 26.081C66.889 25.7309 67.1046 25.3808 67.2797 25.0173C67.2932 24.9903 67.3067 24.9769 67.3201 24.9365C67.5223 24.5325 67.657 24.0882 67.8591 23.6977C68.1825 23.0783 68.5464 22.4859 69.2605 22.3108C69.6243 22.2166 69.9882 22.3916 70.3116 22.6744C70.608 22.9168 70.8371 23.2399 70.9853 23.5092C70.9853 23.5361 70.9988 23.5765 71.0257 23.6169Z" fill="#FFCFB3"/>
<path d="M69.6648 30.9553C69.7052 31.265 69.7456 31.5882 69.786 31.8979C69.7052 32.0056 69.6109 32.1133 69.53 32.221C69.1662 32.6519 65.9322 35.9373 65.1911 36.624C64.6117 37.1492 64.0188 37.7281 63.3316 38.1186C62.833 38.3879 62.2806 38.5495 61.7416 38.6707C60.1111 39.0746 58.4268 39.3708 56.7424 39.5055C55.88 39.5728 55.0311 39.6132 54.1822 39.5863C53.4141 39.5728 52.6191 39.519 51.8645 39.7209C51.3121 39.869 50.7731 39.9633 50.2206 40.0575C49.8164 40.1383 49.4256 40.273 49.0618 40.4615C48.671 40.6769 48.2937 40.9597 47.8625 41.0943C47.5122 41.2155 47.081 41.2021 46.7845 40.9732C46.9732 40.7846 47.2157 40.65 47.4718 40.5288C48.8192 39.869 50.1667 39.1958 51.6085 38.8053C54.4382 38.0244 57.4835 38.2802 60.3537 37.607C61.2565 37.3915 62.9274 36.8395 62.9678 35.695C62.9813 35.2102 62.8196 34.7255 62.577 34.2946C62.321 33.8503 61.9841 33.3925 62.0245 32.8943C62.038 32.8135 62.0515 32.7192 62.1323 32.6923C62.2536 32.6384 62.3614 32.7596 62.4288 32.8808C62.8465 33.6618 63.0486 34.5639 63.5337 35.3045C63.6415 35.466 63.7493 35.6142 63.938 35.668C64.477 35.8565 65.1911 34.6582 65.4337 34.3215C65.9053 33.6618 66.2961 32.9481 66.6868 32.2614C66.9967 31.7094 67.1045 31.0092 66.8755 30.3898C66.7946 30.1744 66.6464 29.9724 66.5117 29.7704C66.4712 29.7031 66.4173 29.6358 66.3769 29.5685C65.9996 29.0029 65.7301 28.3028 65.6897 27.6026C65.811 27.441 65.9322 27.266 66.04 27.1044C66.2826 26.7678 66.4982 26.4312 66.7003 26.0945C66.9024 25.7445 67.118 25.3944 67.2932 25.0308C67.7513 24.9096 68.2634 24.9096 68.735 25.0308C68.9506 25.0847 69.1662 25.1789 69.3683 25.2732C69.7321 25.4482 70.0825 25.6771 70.3789 25.933C69.9343 27.468 69.557 29.0299 69.6648 30.6187C69.6513 30.7264 69.6513 30.8342 69.6648 30.9553Z" fill="#FFBF99"/>
<path d="M72.2654 19.4025C71.8342 20.8028 71.43 22.2166 71.0257 23.617C70.864 24.1556 70.7158 24.6807 70.5541 25.2193C70.4867 25.4482 70.4193 25.6771 70.352 25.906C69.9073 27.441 69.53 29.0029 69.6378 30.5917C69.2336 30.5244 68.8563 30.4032 68.4925 30.2282C68.3308 30.1743 68.1825 30.0935 68.0478 29.9993C67.4414 29.6357 66.9159 29.1241 66.5251 28.5182C66.3365 28.2085 66.1748 27.8853 66.0535 27.5352C65.9996 27.3871 65.9861 27.239 65.9996 27.0774C66.0266 26.5119 66.4308 25.9329 66.6464 25.4617C66.9833 24.748 67.3201 24.0613 67.6705 23.3611C67.6974 23.3073 67.7109 23.2534 67.7513 23.1996C68.5329 21.7184 69.3953 20.2777 70.4328 18.9447C70.5541 18.7831 70.6888 18.6081 70.8505 18.46C71.0257 18.4869 71.2144 18.4869 71.3895 18.5542C71.5647 18.635 71.6995 18.7831 71.8477 18.9312C71.9555 19.0389 72.0498 19.1601 72.1576 19.2813C72.198 19.3352 72.2384 19.3621 72.2654 19.4025Z" fill="#F2F2F2"/>
<path d="M72.2654 19.4026C71.8342 20.803 71.43 22.2168 71.0257 23.6171C70.864 24.1557 70.7158 24.6808 70.5541 25.2194C70.4868 25.4483 70.4194 25.6772 70.352 25.9061C69.9073 27.4411 69.53 29.003 69.6378 30.5919C69.2336 30.5246 68.8563 30.4034 68.4925 30.2283C68.4251 29.3127 68.5733 28.451 68.762 27.495C68.9102 26.7275 69.0988 25.9735 69.3279 25.2464C69.5974 24.3712 69.9208 23.4959 70.2981 22.6611C70.4868 22.2302 70.6889 21.8128 70.9045 21.4089C71.1874 20.8703 71.4839 20.3452 71.8073 19.8335C71.9151 19.6585 72.0364 19.47 72.1576 19.2949C72.1981 19.3353 72.2385 19.3622 72.2654 19.4026Z" fill="#E4DCE7"/>
<path d="M81.3339 15.1749C81.2261 16.7502 80.6063 18.4737 80.0403 19.7529C79.2318 21.5841 78.0461 23.2537 76.6177 24.6137C76.0787 25.1253 75.3376 25.7582 74.4079 26.0813C74.2866 26.1217 74.1518 26.1487 74.0306 26.1487C73.8284 26.1487 73.6263 26.0948 73.4377 25.9871C72.1441 25.2465 71.4973 22.0958 71.3895 21.4764C71.2278 20.6012 71.0796 19.5778 71.0796 18.5276C71.1874 18.5411 71.3087 18.5545 71.4165 18.5949C71.5377 18.6488 71.6321 18.7296 71.7264 18.8104C71.7399 19.726 71.8746 20.5877 72.0228 21.3552C72.2519 22.5536 72.8987 24.9368 73.7745 25.435C73.9228 25.5158 74.071 25.5428 74.2192 25.4754C74.8525 25.26 75.4589 24.8426 76.2 24.1424C77.5744 22.8633 78.7063 21.2475 79.4744 19.4971C79.9595 18.4064 80.485 16.9791 80.6602 15.6327C80.741 15.0941 80.768 14.5689 80.7006 14.0842L81.3204 14.0034C81.3609 14.3804 81.3609 14.7709 81.3339 15.1749Z" fill="#CCCCCC"/>
<path d="M80.202 13.1951C80.0538 13.3836 80.0807 13.6933 80.2828 13.8279C80.3771 13.8953 80.5119 13.9087 80.6062 13.9895C80.7544 14.1107 80.7544 14.3261 80.8353 14.4877C80.8488 14.5281 80.8757 14.555 80.9161 14.582C80.997 14.6224 81.0778 14.5685 81.1452 14.5012C81.2934 14.3396 81.3473 14.1242 81.3743 13.9087C81.4012 13.7068 81.4282 13.5048 81.3608 13.3163C81.1856 12.8719 80.4849 12.8316 80.202 13.1951Z" fill="#F2F2F2"/>
</g>
<defs>
<clipPath id="clip0_1749_16164">
<rect width="127" height="127" fill="white"/>
</clipPath>
</defs>
</svg>
