<svg width="252" height="209" viewBox="0 0 252 209" fill="none" xmlns="http://www.w3.org/2000/svg">
<g opacity="0.11" clip-path="url(#clip0_470_22271)">
<path d="M126 163.409C102.079 163.409 82.6875 182.801 82.6875 206.722V247.078H169.312V206.722C169.312 182.801 149.921 163.409 126 163.409Z" fill="#ADE5FF"/>
<path d="M203.766 175.219C188.659 175.219 175.365 182.957 167.615 194.682C168.719 198.505 169.312 202.544 169.312 206.722V218.531V247.078H247.078V218.531C247.078 194.61 227.686 175.219 203.766 175.219Z" fill="#41B9D5"/>
<path d="M82.6875 206.722C82.6875 202.544 83.2811 198.504 84.3851 194.682C76.6346 182.957 63.3411 175.219 48.2344 175.219C24.3136 175.219 4.92188 194.61 4.92188 218.531V247.078H82.6875V218.531V206.722Z" fill="#41B9D5"/>
<path d="M126 163.411C140.135 163.411 151.594 151.952 151.594 137.817C151.594 123.682 140.135 112.224 126 112.224C111.865 112.224 100.406 123.682 100.406 137.817C100.406 151.952 111.865 163.411 126 163.411Z" fill="#FFCDAC"/>
<path d="M48.2344 175.219C62.3694 175.219 73.8281 163.76 73.8281 149.625C73.8281 135.49 62.3694 124.031 48.2344 124.031C34.0993 124.031 22.6406 135.49 22.6406 149.625C22.6406 163.76 34.0993 175.219 48.2344 175.219Z" fill="#FFCDAC"/>
<path d="M203.766 175.219C217.901 175.219 229.359 163.76 229.359 149.625C229.359 135.49 217.901 124.031 203.766 124.031C189.631 124.031 178.172 135.49 178.172 149.625C178.172 163.76 189.631 175.219 203.766 175.219Z" fill="#FFCDAC"/>
<path d="M123.894 34.0397C124.756 32.2944 127.245 32.2944 128.106 34.0397L137.242 52.5499L137.312 52.5602L157.669 55.5183C159.595 55.7983 160.364 58.1652 158.97 59.5237L145.073 73.0702C144.52 73.6096 144.267 74.3867 144.397 75.1487L147.678 94.2765C148.007 96.1946 145.994 97.6579 144.271 96.7522L127.093 87.7211C126.409 87.3613 125.592 87.3613 124.908 87.7211L107.73 96.7522C106.007 97.6579 103.994 96.1951 104.323 94.2765L107.603 75.1487C107.734 74.3867 107.481 73.6096 106.928 73.0702L93.0308 59.5237C91.6369 58.1652 92.4062 55.7983 94.3321 55.5183L113.538 52.7275C114.303 52.6163 114.964 52.1359 115.306 51.4429L123.894 34.0397Z" fill="#FEC914"/>
<path d="M222.168 173.948C229.521 168.371 234.281 159.545 234.281 149.625C234.281 132.799 220.592 119.109 203.766 119.109C186.939 119.109 173.25 132.799 173.25 149.625C173.25 159.542 178.007 168.365 185.357 173.942C179.258 176.46 173.709 180.217 169.072 185.027C163.873 174.748 155.103 166.571 144.402 162.138C151.755 156.561 156.516 147.735 156.516 137.815C156.516 120.989 142.826 107.3 126 107.3C109.174 107.3 95.4844 120.989 95.4844 137.815C95.4844 147.735 100.245 156.561 107.598 162.138C96.8974 166.571 88.1272 174.748 82.9282 185.027C78.2913 180.217 72.7419 176.46 66.6432 173.942C73.9925 168.365 78.75 159.542 78.75 149.625C78.75 132.799 65.0608 119.109 48.2344 119.109C31.408 119.109 17.7188 132.799 17.7188 149.625C17.7188 159.545 22.4792 168.371 29.8325 173.948C12.3386 181.195 0 198.449 0 218.531V247.078C0 249.796 2.20352 252 4.92188 252H82.6875H169.312H247.078C249.796 252 252 249.796 252 247.078V218.531C252 198.449 239.661 181.195 222.168 173.948ZM183.094 149.625C183.094 138.226 192.367 128.953 203.766 128.953C215.164 128.953 224.438 138.226 224.438 149.625C224.438 161.024 215.164 170.297 203.766 170.297C192.367 170.297 183.094 161.024 183.094 149.625ZM105.328 137.815C105.328 126.417 114.601 117.144 126 117.144C137.399 117.144 146.672 126.417 146.672 137.815C146.672 149.214 137.399 158.487 126 158.487C114.601 158.487 105.328 149.214 105.328 137.815ZM27.5625 149.625C27.5625 138.226 36.8358 128.953 48.2344 128.953C59.6329 128.953 68.9062 138.226 68.9062 149.625C68.9062 161.024 59.6329 170.297 48.2344 170.297C36.8358 170.297 27.5625 161.024 27.5625 149.625ZM9.84375 218.531C9.84375 197.362 27.0659 180.141 48.2344 180.141C60.4441 180.141 71.8087 185.901 79.0502 195.649C78.2115 199.206 77.7656 202.913 77.7656 206.722V242.156H9.84375V218.531ZM87.6094 206.722C87.6094 185.553 104.832 168.331 126 168.331C147.168 168.331 164.391 185.553 164.391 206.722V242.156H154.629V226.639C154.629 223.921 152.426 221.717 149.707 221.717C146.989 221.717 144.785 223.921 144.785 226.639V242.156H87.6094V206.722ZM242.156 242.156H174.234V206.722C174.234 202.913 173.788 199.206 172.95 195.649C180.191 185.901 191.556 180.141 203.766 180.141C224.934 180.141 242.156 197.362 242.156 218.531V242.156Z" fill="#1C4685"/>
<path d="M154.393 40.4515C155.652 40.4515 156.912 39.9711 157.873 39.0099L174.762 22.1209C176.684 20.199 176.684 17.0824 174.762 15.1599C172.84 13.2375 169.723 13.2379 167.801 15.1599L150.912 32.0489C148.99 33.9709 148.99 37.0874 150.912 39.0099C151.873 39.9706 153.133 40.4515 154.393 40.4515Z" fill="#1C4685"/>
<path d="M94.1269 39.0097C95.0882 39.9709 96.3477 40.4513 97.6072 40.4513C98.8667 40.4513 100.127 39.9709 101.087 39.0097C103.009 37.0877 103.009 33.9712 101.087 32.0487L84.1985 15.1598C82.2765 13.2378 79.16 13.2378 77.2375 15.1598C75.315 17.0817 75.3155 20.1983 77.2375 22.1208L94.1269 39.0097Z" fill="#1C4685"/>
<path d="M126 20.4194C128.718 20.4194 130.922 18.2159 130.922 15.4975V4.92188C130.922 2.20352 128.718 0 126 0C123.282 0 121.078 2.20352 121.078 4.92188V15.4975C121.078 18.2159 123.282 20.4194 126 20.4194Z" fill="#1C4685"/>
<path d="M93.6244 50.6476C90.8657 51.0482 88.6169 52.9441 87.7551 55.595C86.8938 58.246 87.5981 61.1016 89.5944 63.0477L102.523 75.6497L99.4711 93.4438C98.9996 96.1912 100.108 98.9159 102.363 100.555C103.637 101.481 105.128 101.951 106.629 101.951C107.785 101.951 108.946 101.673 110.019 101.109L126 92.707L141.98 101.108C144.448 102.406 147.382 102.193 149.637 100.555C151.893 98.9159 153 96.1911 152.529 93.4443L149.477 75.6497L162.406 63.0477C164.402 61.1016 165.106 58.246 164.245 55.595C163.384 52.9436 161.134 51.0482 158.376 50.6476L140.51 48.0513L132.52 31.8613C131.286 29.3614 128.788 27.8086 126 27.8086C123.212 27.8086 120.714 29.3614 119.481 31.8613L111.49 48.0513L93.6244 50.6476ZM119.719 53.6209L126 40.8939L132.828 54.7278C133.544 56.1798 134.929 57.1863 136.531 57.4201L151.8 59.6388L141.637 69.5456C139.924 71.2161 139.142 73.6209 139.546 75.9805L141.945 89.9689L129.383 83.3647C128.324 82.8076 127.162 82.5295 126 82.5295C124.838 82.5295 123.676 82.8076 122.617 83.3647L110.055 89.9689L112.454 75.98C112.858 73.6214 112.077 71.2161 110.363 69.5456L100.2 59.6393L114.244 57.5982C116.614 57.2542 118.66 55.7673 119.719 53.6209Z" fill="#1C4685"/>
<path d="M149.709 212.399C151.003 212.399 152.268 211.872 153.188 210.956C154.104 210.036 154.631 208.771 154.631 207.477C154.631 206.182 154.104 204.913 153.188 203.992C152.268 203.077 151.003 202.555 149.709 202.555C148.409 202.555 147.144 203.077 146.229 203.992C145.309 204.913 144.787 206.177 144.787 207.477C144.787 208.771 145.309 210.041 146.229 210.956C147.144 211.872 148.409 212.399 149.709 212.399Z" fill="#1C4685"/>
</g>
<defs>
<clipPath id="clip0_470_22271">
<rect width="252" height="252" fill="white"/>
</clipPath>
</defs>
</svg>
