<svg width="29" height="24" viewBox="0 0 29 24" fill="none" xmlns="http://www.w3.org/2000/svg">
<path d="M7.55448 22.9027C7.98322 23.3614 8.5647 23.619 9.17101 23.619C9.77732 23.619 10.3588 23.3614 10.7875 22.9027L27.4889 5.03496C27.9119 4.57502 28.1479 3.9549 28.1454 3.30967C28.143 2.66445 27.9023 2.0464 27.4758 1.59016C27.0494 1.13391 26.4717 0.876427 25.8686 0.8738C25.2655 0.871172 24.6858 1.12361 24.2559 1.57613L9.1712 17.7142L4.27036 12.4716C4.05916 12.2394 3.80695 12.0544 3.52837 11.9273C3.24978 11.8003 2.95037 11.7337 2.64754 11.7315C2.34471 11.7293 2.04449 11.7915 1.76431 11.9144C1.48412 12.0374 1.22956 12.2187 1.01541 12.4477C0.801259 12.6768 0.631786 12.9491 0.516829 13.2489C0.401871 13.5486 0.343718 13.8698 0.345755 14.1938C0.347792 14.5177 0.409973 14.8381 0.528689 15.1361C0.647406 15.4342 0.820294 15.704 1.03731 15.93L7.55448 22.9027Z" fill="#5BE967"/>
</svg>
