<?xml version="1.0" encoding="UTF-8"?>
<svg width="192px" height="115px" viewBox="0 0 192 115" version="1.1" xmlns="http://www.w3.org/2000/svg" xmlns:xlink="http://www.w3.org/1999/xlink">
    <title>Group</title>
    <g id="Page-1" stroke="none" stroke-width="1" fill="none" fill-rule="evenodd">
        <g id="Group" fill-rule="nonzero">
            <g id="XMLID_47_" transform="translate(61.000000, 36.000000)">
                <polygon id="Path" fill="#0F3061" points="65.0961 0.155273 0.162598 37.8849 0.162598 41.0904 65.1124 78.82 130.03 41.1067 130.03 37.9013"></polygon>
                <path d="M65.1123,79 C65.0798,79 65.0473,79 65.031,78.9837 L0.0812531,41.254 C0.0325042,41.2213 0,41.1722 0,41.1068 L0,37.9014 C0,37.8359 0.0325042,37.7869 0.0812531,37.7542 L64.9985,0.0245316 C65.0473,-0.00817721 65.1123,-0.00817721 65.1773,0.0245316 L130.127,37.7542 C130.176,37.7869 130.208,37.8359 130.208,37.9014 L130.208,41.1068 C130.208,41.1722 130.176,41.2213 130.127,41.254 L65.2098,78.9837 C65.1773,78.9837 65.1448,79 65.1123,79 Z M0.341241,40.9923 L65.1123,78.6239 L129.867,40.9923 L129.867,37.9995 L65.096,0.351621 L0.341241,37.9831 L0.341241,40.9923 Z" id="Shape" fill="#0F3061"></path>
                <polygon id="Path" fill="#194688" points="129.104 37.5903 65.0963 74.7803 1.07275 37.574 65.08 0.384033"></polygon>
                <path d="M65.0962,74.9604 C65.0637,74.9604 65.0312,74.9604 65.015,74.944 L0.991397,37.7377 C0.942648,37.705 0.910156,37.656 0.910156,37.5905 C0.910156,37.5251 0.942648,37.4761 0.991397,37.4433 L64.9987,0.253413 C65.0475,0.220705 65.1125,0.220705 65.1775,0.253413 L129.201,37.4597 C129.25,37.4924 129.282,37.5415 129.282,37.6069 C129.282,37.6723 129.25,37.7214 129.201,37.7541 L65.1937,74.944 C65.1612,74.944 65.1287,74.9604 65.0962,74.9604 Z M1.41389,37.5742 L65.0962,74.5842 L128.762,37.5905 L65.0799,0.5805 L1.41389,37.5742 Z" id="Shape" fill="#0F3061"></path>
                <polygon id="Path" fill="#0C274E" points="1.07275 37.5739 1.07275 40.7303 65.0963 77.9365 65.0963 74.7801"></polygon>
                <path d="M65.0962,78.1164 C65.0637,78.1164 65.0312,78.1164 65.015,78.1001 L0.991397,40.8938 C0.942648,40.8611 0.910156,40.812 0.910156,40.7466 L0.910156,37.5902 C0.910156,37.5248 0.942648,37.4757 0.991397,37.443 C1.04015,37.4103 1.10515,37.4103 1.17014,37.443 L65.1937,74.6493 C65.2425,74.682 65.275,74.7311 65.275,74.7965 L65.275,77.9529 C65.275,78.0183 65.2425,78.0674 65.1937,78.1001 C65.1612,78.1001 65.1287,78.1164 65.0962,78.1164 Z M1.2514,40.6321 L64.9337,77.6421 L64.9337,74.8782 L1.2514,37.8682 L1.2514,40.6321 Z" id="Shape" fill="#0F3061"></path>
                <polygon id="Path" fill="#0C274E" points="129.103 37.5903 129.103 40.7467 65.0962 77.9367 65.0962 74.7803"></polygon>
                <path d="M65.0961,78.1168 C65.0636,78.1168 65.0311,78.1168 65.0148,78.1004 C64.9661,78.0677 64.9336,78.0187 64.9336,77.9532 L64.9336,74.7968 C64.9336,74.7314 64.9661,74.6824 65.0148,74.6497 L129.022,37.4597 C129.071,37.427 129.136,37.427 129.201,37.4597 C129.25,37.4924 129.282,37.5415 129.282,37.6069 L129.282,40.7633 C129.282,40.8287 129.25,40.8778 129.201,40.9105 L65.1936,78.1004 C65.1611,78.1004 65.1286,78.1168 65.0961,78.1168 Z M65.2748,74.8786 L65.2748,77.6425 L128.941,40.6488 L128.941,37.8849 L65.2748,74.8786 Z" id="Shape" fill="#0F3061"></path>
            </g>
            <g id="XMLID_47_-3">
                <polygon id="Path" fill="#0F3061" points="65.0961 0.155273 0.162598 37.8849 0.162598 41.0904 65.1124 78.82 130.03 41.1067 130.03 37.9013"></polygon>
                <path d="M65.1123,79 C65.0798,79 65.0473,79 65.031,78.9837 L0.0812531,41.254 C0.0325042,41.2213 0,41.1722 0,41.1068 L0,37.9014 C0,37.8359 0.0325042,37.7869 0.0812531,37.7542 L64.9985,0.0245316 C65.0473,-0.00817721 65.1123,-0.00817721 65.1773,0.0245316 L130.127,37.7542 C130.176,37.7869 130.208,37.8359 130.208,37.9014 L130.208,41.1068 C130.208,41.1722 130.176,41.2213 130.127,41.254 L65.2098,78.9837 C65.1773,78.9837 65.1448,79 65.1123,79 Z M0.341241,40.9923 L65.1123,78.6239 L129.867,40.9923 L129.867,37.9995 L65.096,0.351621 L0.341241,37.9831 L0.341241,40.9923 Z" id="Shape" fill="#0F3061"></path>
                <polygon id="Path" fill="#194688" points="129.103 37.5903 65.0961 74.7803 1.07251 37.574 65.0798 0.384033"></polygon>
                <path d="M65.0962,74.9604 C65.0637,74.9604 65.0312,74.9604 65.015,74.944 L0.991397,37.7377 C0.942648,37.705 0.910156,37.656 0.910156,37.5905 C0.910156,37.5251 0.942648,37.4761 0.991397,37.4433 L64.9987,0.253413 C65.0475,0.220705 65.1125,0.220705 65.1775,0.253413 L129.201,37.4597 C129.25,37.4924 129.282,37.5415 129.282,37.6069 C129.282,37.6723 129.25,37.7214 129.201,37.7541 L65.1937,74.944 C65.1612,74.944 65.1287,74.9604 65.0962,74.9604 Z M1.41389,37.5742 L65.0962,74.5842 L128.762,37.5905 L65.0799,0.5805 L1.41389,37.5742 Z" id="Shape" fill="#0F3061"></path>
                <polygon id="Path" fill="#0C274E" points="1.07251 37.5739 1.07251 40.7303 65.0961 77.9365 65.0961 74.7801"></polygon>
                <path d="M65.0962,78.1164 C65.0637,78.1164 65.0312,78.1164 65.015,78.1001 L0.991397,40.8938 C0.942648,40.8611 0.910156,40.812 0.910156,40.7466 L0.910156,37.5902 C0.910156,37.5248 0.942648,37.4757 0.991397,37.443 C1.04015,37.4103 1.10515,37.4103 1.17014,37.443 L65.1937,74.6493 C65.2425,74.682 65.275,74.7311 65.275,74.7965 L65.275,77.9529 C65.275,78.0183 65.2425,78.0674 65.1937,78.1001 C65.1612,78.1001 65.1287,78.1164 65.0962,78.1164 Z M1.2514,40.6321 L64.9337,77.6421 L64.9337,74.8782 L1.2514,37.8682 L1.2514,40.6321 Z" id="Shape" fill="#0F3061"></path>
                <polygon id="Path" fill="#0C274E" points="129.103 37.5903 129.103 40.7467 65.0962 77.9367 65.0962 74.7803"></polygon>
                <path d="M65.0961,78.1168 C65.0636,78.1168 65.0311,78.1168 65.0148,78.1004 C64.9661,78.0677 64.9336,78.0187 64.9336,77.9532 L64.9336,74.7968 C64.9336,74.7314 64.9661,74.6824 65.0148,74.6497 L129.022,37.4597 C129.071,37.427 129.136,37.427 129.201,37.4597 C129.25,37.4924 129.282,37.5415 129.282,37.6069 L129.282,40.7633 C129.282,40.8287 129.25,40.8778 129.201,40.9105 L65.1936,78.1004 C65.1611,78.1004 65.1286,78.1168 65.0961,78.1168 Z M65.2748,74.8786 L65.2748,77.6425 L128.941,40.6488 L128.941,37.8849 L65.2748,74.8786 Z" id="Shape" fill="#0F3061"></path>
            </g>
        </g>
    </g>
</svg>