<svg width="81" height="99" viewBox="0 0 81 99" fill="none" xmlns="http://www.w3.org/2000/svg">
<path d="M65.1741 69.9322C59.4193 66.6062 50.0939 66.6062 44.3391 69.9322C42.0337 71.2661 40.6644 72.9291 40.2137 74.6614H31.9976V77.3637H40.2484C40.7337 79.044 42.1031 80.6551 44.3391 81.9543C50.0939 85.2803 59.4193 85.2803 65.1741 81.9543C70.9289 78.6456 70.9289 73.2582 65.1741 69.9322Z" fill="#06152B"/>
<path d="M30.5933 37.6426V76.03C30.5933 76.3764 30.7666 76.6882 31.0786 76.8615L31.98 77.3812C32.032 77.4158 32.24 77.5197 32.4826 77.5197C32.7253 77.5197 32.9333 77.3985 32.9853 77.3812L33.7306 76.9481C34.1293 76.7229 34.372 76.3071 34.372 75.8394V37.6426H30.5933Z" fill="black"/>
<path d="M32.4655 0.433105C23.3134 0.433105 17.9399 44.9874 17.9226 45.2126C17.9226 45.2819 17.9226 45.3685 17.9053 45.4378C17.9053 45.4898 17.9053 45.5591 17.9053 45.6111C17.9053 45.6803 17.9053 45.7323 17.9053 45.7496C17.9746 47.8457 19.3786 49.9418 22.1693 51.5355C27.8548 54.8095 37.0763 54.8095 42.7617 51.5355C45.5351 49.9244 46.9564 47.8457 47.0258 45.7496C47.0258 45.7323 47.0258 45.6803 47.0258 45.6111C47.0258 45.1607 41.6177 0.433105 32.4655 0.433105Z" fill="#2D64B5"/>
<path d="M42.7618 51.5527C45.5352 49.9417 46.9565 47.863 47.0259 45.7669C47.0259 45.7496 47.0259 45.6976 47.0259 45.6283C47.0259 45.2819 43.9058 19.4362 38.3937 6.99841C38.3591 6.99841 38.3244 6.99841 38.2897 6.99841C29.1376 6.99841 23.7642 51.5527 23.7468 51.7779C23.7468 51.8472 23.7468 51.9338 23.7295 52.0031C23.7295 52.0551 23.7295 52.1244 23.7295 52.1764C23.7295 52.2457 23.7295 52.2976 23.7295 52.3149C23.7295 52.3323 23.7295 52.3323 23.7295 52.3496C29.4496 54.8094 37.5791 54.5496 42.7618 51.5527Z" fill="#295AA3"/>
<path d="M32.4655 54.4457C28.6521 54.4457 24.856 53.6142 21.9613 51.9339C19.1533 50.3055 17.5586 48.1228 17.4893 45.7842C17.4893 45.7842 17.4893 45.7323 17.4893 45.6283V45.4898C17.4893 45.3165 17.4893 45.2472 17.5066 45.1953C17.5239 44.7276 22.8627 0 32.4655 0C42.0857 0 47.4591 45.1606 47.4591 45.611C47.4591 45.715 47.4591 45.7843 47.4418 45.8189C47.3724 48.1228 45.7777 50.3055 42.9697 51.9339C40.0923 53.5968 36.2789 54.4457 32.4655 54.4457ZM32.4655 0.866142C24.648 0.866142 19.0493 38.3528 18.3559 45.2472L18.3386 45.6976C18.4079 47.7764 19.8466 49.6992 22.3773 51.1717C27.9414 54.3764 36.9722 54.3764 42.5363 51.1717C45.0844 49.6992 46.5231 47.7764 46.5751 45.7323L47.0084 45.5937H46.5751C46.4191 42.5795 40.7336 0.866142 32.4655 0.866142Z" fill="black"/>
</svg>
