<svg width="86" height="68" viewBox="0 0 86 68" fill="none" xmlns="http://www.w3.org/2000/svg">
<path d="M40.1463 19.2334L0.100342 42.5021V44.479L40.1564 67.7477L80.1923 44.4891V42.5122L40.1463 19.2334Z" fill="#0F3061"/>
<path d="M40.1562 67.8588C40.1362 67.8588 40.1161 67.8588 40.1061 67.8487L0.0501106 44.58C0.0200461 44.5598 0 44.5296 0 44.4892V42.5123C0 42.472 0.0200461 42.4417 0.0501106 42.4216L40.0861 19.1528C40.1161 19.1327 40.1562 19.1327 40.1963 19.1528L80.2523 42.4216C80.2824 42.4417 80.3024 42.472 80.3024 42.5123V44.4892C80.3024 44.5296 80.2824 44.5598 80.2523 44.58L40.2164 67.8487C40.1963 67.8487 40.1763 67.8588 40.1562 67.8588ZM0.210451 44.4186L40.1562 67.6268L80.092 44.4186V42.5728L40.1462 19.3545L0.210451 42.5628V44.4186Z" fill="#0F3061"/>
<path d="M79.621 42.321L40.1463 65.2568L0.661499 42.3109L40.1363 19.375L79.621 42.321Z" fill="#214376"/>
<path d="M40.1464 65.3674C40.1264 65.3674 40.1063 65.3674 40.0963 65.3573L0.611504 42.4114C0.58144 42.3912 0.561401 42.3609 0.561401 42.3206C0.561401 42.2802 0.58144 42.25 0.611504 42.2298L40.0863 19.2939C40.1163 19.2738 40.1564 19.2738 40.1965 19.2939L79.6813 42.2399C79.7113 42.2601 79.7314 42.2903 79.7314 42.3307C79.7314 42.371 79.7113 42.4013 79.6813 42.4215L40.2065 65.3573C40.1865 65.3573 40.1664 65.3674 40.1464 65.3674ZM0.872066 42.3105L40.1464 65.1354L79.4107 42.3206L40.1364 19.4957L0.872066 42.3105Z" fill="#0F3061"/>
<path d="M0.661499 42.311V44.2577L40.1463 67.2036V65.257L0.661499 42.311Z" fill="#0D2850"/>
<path d="M40.1464 67.3142C40.1264 67.3142 40.1063 67.3142 40.0963 67.3041L0.611504 44.3581C0.58144 44.338 0.561401 44.3077 0.561401 44.2674V42.3207C0.561401 42.2804 0.58144 42.2501 0.611504 42.23C0.641569 42.2098 0.681656 42.2098 0.721742 42.23L40.2065 65.1759C40.2366 65.1961 40.2566 65.2264 40.2566 65.2667V67.2133C40.2566 67.2537 40.2366 67.2839 40.2065 67.3041C40.1865 67.3041 40.1664 67.3142 40.1464 67.3142ZM0.771852 44.1968L40.0462 67.0217V65.3171L0.771852 42.4922V44.1968Z" fill="#0F3061"/>
<path d="M79.621 42.3208V44.2674L40.1462 67.2033V65.2567L79.621 42.3208Z" fill="#0D2850"/>
<path d="M40.1464 67.3144C40.1263 67.3144 40.1063 67.3144 40.0963 67.3043C40.0662 67.2841 40.0461 67.2539 40.0461 67.2135V65.2669C40.0461 65.2265 40.0662 65.1963 40.0963 65.1761L79.571 42.2402C79.6011 42.2201 79.6412 42.2201 79.6813 42.2402C79.7113 42.2604 79.7314 42.2907 79.7314 42.331V44.2776C79.7314 44.318 79.7113 44.3482 79.6813 44.3684L40.2065 67.3043C40.1864 67.3043 40.1664 67.3144 40.1464 67.3144ZM40.2566 65.3173V67.0219L79.5209 44.207V42.5025L40.2566 65.3173Z" fill="#0F3061"/>
<g clip-path="url(#clip0_1748_11713)">
<path d="M79.7432 27.3131C77.4956 26.0141 73.8534 26.0141 71.6058 27.3131C70.7054 27.8341 70.1706 28.4836 69.9946 29.1602H66.7856V30.2156H70.0081C70.1977 30.8719 70.7325 31.5011 71.6058 32.0085C73.8534 33.3075 77.4956 33.3075 79.7432 32.0085C81.9908 30.7163 81.9908 28.6121 79.7432 27.3131Z" fill="#06152B"/>
<path d="M66.2373 14.7017V29.6944C66.2373 29.8297 66.305 29.9515 66.4269 30.0191L66.7789 30.2221C66.7992 30.2356 66.8804 30.2762 66.9752 30.2762C67.07 30.2762 67.1512 30.2289 67.1715 30.2221L67.4627 30.053C67.6184 29.965 67.7131 29.8026 67.7131 29.62V14.7017H66.2373Z" fill="black"/>
<path d="M66.9684 0.168945C63.3939 0.168945 61.2953 17.5702 61.2885 17.6582C61.2885 17.6853 61.2885 17.7191 61.2817 17.7461C61.2817 17.7664 61.2817 17.7935 61.2817 17.8138C61.2817 17.8409 61.2817 17.8612 61.2817 17.8679C61.3088 18.6866 61.8572 19.5052 62.9471 20.1277C65.1676 21.4064 68.7692 21.4064 70.9897 20.1277C72.0729 19.4985 72.6281 18.6866 72.6551 17.8679C72.6551 17.8612 72.6551 17.8409 72.6551 17.8138C72.6551 17.6379 70.5429 0.168945 66.9684 0.168945Z" fill="#2D64B5"/>
<path d="M70.9897 20.1347C72.0729 19.5055 72.628 18.6936 72.6551 17.875C72.6551 17.8682 72.6551 17.8479 72.6551 17.8208C72.6551 17.6855 71.4365 7.59115 69.2837 2.7334C69.2702 2.7334 69.2566 2.7334 69.2431 2.7334C65.6686 2.7334 63.5699 20.1347 63.5632 20.2227C63.5632 20.2497 63.5632 20.2835 63.5564 20.3106C63.5564 20.3309 63.5564 20.358 63.5564 20.3783C63.5564 20.4053 63.5564 20.4256 63.5564 20.4324C63.5564 20.4392 63.5564 20.4392 63.5564 20.4459C65.7905 21.4066 68.9655 21.3052 70.9897 20.1347Z" fill="#295AA3"/>
<path d="M66.9683 21.2645C65.4789 21.2645 63.9963 20.9397 62.8658 20.2835C61.769 19.6475 61.1462 18.795 61.1191 17.8817C61.1191 17.8817 61.1191 17.8614 61.1191 17.8208V17.7666C61.1191 17.699 61.1191 17.6719 61.1259 17.6516C61.1327 17.469 63.2178 0 66.9683 0C70.7256 0 72.8243 17.6381 72.8243 17.814C72.8243 17.8546 72.8243 17.8817 72.8175 17.8952C72.7904 18.795 72.1676 19.6475 71.0709 20.2835C69.9471 20.933 68.4577 21.2645 66.9683 21.2645ZM66.9683 0.338283C63.9151 0.338283 61.7284 14.9792 61.4576 17.6719L61.4509 17.8478C61.4779 18.6597 62.0398 19.4107 63.0282 19.9858C65.2014 21.2374 68.7285 21.2374 70.9016 19.9858C71.8968 19.4107 72.4587 18.6597 72.479 17.8614L72.6482 17.8072H72.479C72.4181 16.63 70.1975 0.338283 66.9683 0.338283Z" fill="black"/>
</g>
<path d="M54.0925 29.8301L32.6147 42.4566L32.7358 44.2853L37.3487 49.4623H41.7196L65.0129 36.1366L54.0925 29.8301Z" fill="#173159"/>
<path d="M61.9062 30.0722L61.8927 28.9157L55.3432 25.1372L29.9922 39.5924L29.8174 39.8883L29.8308 41.0447L31.216 41.8515L31.7271 46.6654H31.7406C31.7809 46.9209 31.9961 47.1898 32.3592 47.3915L35.6004 49.1799C36.0173 49.4085 36.5014 49.5296 36.9856 49.5296C37.4563 49.5296 37.927 49.5027 38.2094 49.3413L59.7275 36.8493C59.9965 36.6879 60.1444 36.4862 60.1579 36.2711L60.6017 30.8252L61.9062 30.0722Z" fill="#0F3061"/>
<path d="M36.9452 49.6504C36.4476 49.6504 35.9635 49.5294 35.5331 49.2873L32.2919 47.4989C31.9288 47.2838 31.7002 47.0148 31.6195 46.7325C31.606 46.719 31.5926 46.6921 31.5926 46.6787L31.095 41.932L29.7636 41.1655C29.7232 41.1386 29.7098 41.0983 29.6963 41.0579L29.6829 39.9015C29.6829 39.8746 29.6829 39.8612 29.6963 39.8343L29.8711 39.5385C29.8846 39.525 29.898 39.5116 29.9115 39.4981L55.2625 25.0294C55.3028 25.0026 55.3432 25.0026 55.3835 25.0294L61.9331 28.808C61.9734 28.8349 61.9869 28.8752 62.0003 28.9155L62.0138 30.072C62.0138 30.1123 61.9869 30.1527 61.9465 30.1795L60.6958 30.9057L60.252 36.2844C60.2385 36.4726 60.1309 36.755 59.7544 36.9567L38.2363 49.4487C37.927 49.6235 37.4563 49.6369 36.9452 49.6504C36.9587 49.6504 36.9587 49.6504 36.9452 49.6504ZM31.8347 46.598C31.8481 46.6114 31.8481 46.6249 31.8481 46.6383C31.8885 46.8669 32.0902 47.0955 32.3995 47.2838L35.6407 49.0722C36.0307 49.2873 36.4745 49.3949 36.9318 49.3949C36.9452 49.3949 36.9587 49.3949 36.9587 49.3949C37.4159 49.3949 37.8732 49.368 38.1287 49.2201L59.6468 36.7281C59.8754 36.5936 59.9964 36.4323 60.0233 36.244L60.4671 30.7981C60.4671 30.7578 60.494 30.7174 60.5209 30.704L61.7717 29.9778L61.7582 28.9693L55.3297 25.258L30.0729 39.6729L29.9249 39.915L29.9384 40.9638L31.2698 41.7303C31.2967 41.7437 31.3236 41.7841 31.3236 41.8244L31.8347 46.598Z" fill="#0F3061"/>
<path d="M60.1848 30.3682L31.243 40.4263L31.8482 46.2353H31.8617C31.902 46.4908 32.1038 46.7463 32.4669 46.948L35.6946 48.7498C36.4343 49.1801 37.564 49.2205 38.2095 48.8574L59.2972 36.6209C59.5662 36.473 59.7007 36.2578 59.7276 36.0561L60.1848 30.3682Z" fill="#BDFDFF"/>
<path d="M37.1201 49.2607C36.6091 49.2607 36.0577 49.1397 35.6273 48.8842L32.3996 47.0824C32.0365 46.8807 31.8079 46.5983 31.7406 46.3159C31.7272 46.3025 31.7137 46.2756 31.7137 46.2487L31.1085 40.4397C31.0951 40.3725 31.1354 40.3052 31.2027 40.2918L60.1445 30.2336C60.1848 30.2202 60.2386 30.2202 60.279 30.2605C60.3193 30.2874 60.3328 30.3412 60.3328 30.3815L59.8755 36.0695C59.862 36.2578 59.7545 36.5401 59.3779 36.7553L38.2902 48.9918C37.9674 49.1666 37.5505 49.2607 37.1201 49.2607ZM31.9961 46.168C32.0096 46.1814 32.0096 46.1949 32.0096 46.2083C32.0499 46.4369 32.2382 46.6521 32.5476 46.8269L35.7753 48.6287C36.4746 49.0322 37.537 49.0859 38.1422 48.7363L59.2299 36.4998C59.4451 36.3788 59.5662 36.2174 59.5796 36.0426L60.0234 30.5698L31.391 40.5204L31.9961 46.168Z" fill="#0F3061"/>
<path d="M31.8616 46.235C31.9154 46.4905 32.1172 46.746 32.4803 46.9477L35.708 48.7495C35.9635 48.8974 36.2594 48.9916 36.5687 49.0588C36.9587 49.126 37.3219 48.8437 37.3488 48.4537L37.7926 40.4395L31.2699 40.5336L31.8616 46.235Z" fill="#0E2D5C"/>
<path d="M36.6763 49.2204C36.636 49.2204 36.5822 49.2204 36.5418 49.2069C36.2056 49.1531 35.8963 49.0321 35.6273 48.8842L32.3996 47.0823C32.0365 46.8806 31.8078 46.5982 31.7406 46.3159C31.7271 46.3024 31.7137 46.2755 31.7137 46.2486L31.1219 40.5607C31.1219 40.5203 31.1354 40.48 31.1623 40.4531C31.1892 40.4262 31.2295 40.4127 31.2699 40.3993L37.7925 40.3052C37.8329 40.3052 37.8732 40.3186 37.9001 40.3455C37.927 40.3724 37.9405 40.4128 37.9405 40.4531L37.4967 48.4673C37.4832 48.6959 37.3622 48.9111 37.1739 49.059C37.026 49.1531 36.8511 49.2204 36.6763 49.2204ZM31.9961 46.1679C32.0096 46.1814 32.0096 46.1948 32.0096 46.2083C32.0499 46.4369 32.2382 46.652 32.5475 46.8268L35.7752 48.6287C36.0039 48.7632 36.2863 48.8573 36.5956 48.9111C36.7435 48.938 36.878 48.8976 36.9991 48.8035C37.1201 48.7094 37.1874 48.5749 37.2008 48.427L37.6312 40.5741L31.4178 40.6682L31.9961 46.1679Z" fill="#0F3061"/>
<path d="M61.4354 28.8352L36.4072 43.3039L34.2688 42.0668L59.297 27.5981L61.4354 28.8352Z" fill="#3DA7C0"/>
<path d="M36.4074 43.4516C36.3805 43.4516 36.3536 43.4516 36.3401 43.4382L34.2018 42.2011C34.1614 42.1742 34.1345 42.1339 34.1345 42.0801C34.1345 42.0263 34.1614 41.986 34.2018 41.9591L59.2165 27.4904C59.2569 27.4635 59.3106 27.4635 59.3644 27.4904L61.5028 28.7275C61.5432 28.7544 61.57 28.7947 61.57 28.8485C61.57 28.9023 61.5432 28.9426 61.5028 28.9695L36.4881 43.4382C36.4612 43.4382 36.4343 43.4516 36.4074 43.4516ZM34.5514 42.0666L36.4074 43.1424L61.1531 28.8351L59.2972 27.7593L34.5514 42.0666Z" fill="#0F3061"/>
<path d="M59.2836 27.5977L34.2689 42.0663L32.1305 40.8293L57.1453 26.374L59.2836 27.5977Z" fill="#3DA7C0"/>
<path d="M34.2689 42.2143C34.242 42.2143 34.2151 42.2143 34.2017 42.2009L32.0633 40.9638C32.023 40.9369 31.9961 40.8966 31.9961 40.8428C31.9961 40.789 32.023 40.7486 32.0633 40.7218L57.0781 26.2531C57.1184 26.2262 57.1722 26.2262 57.226 26.2531L59.3644 27.4902C59.4047 27.5171 59.4316 27.5574 59.4316 27.6112C59.4316 27.665 59.4047 27.7053 59.3644 27.7322L34.3496 42.2009C34.3227 42.2009 34.2958 42.2143 34.2689 42.2143ZM32.413 40.8293L34.2689 41.9051L59.0013 27.5978L57.1453 26.522L32.413 40.8293Z" fill="#0F3061"/>
<path d="M57.1453 26.3743L32.1305 40.8295L29.9922 39.5924L55.0069 25.1372L57.1453 26.3743Z" fill="#3DA7C0"/>
<path d="M32.1306 40.9775C32.1037 40.9775 32.0768 40.9775 32.0634 40.9641L29.925 39.727C29.8847 39.7001 29.8578 39.6598 29.8578 39.606C29.8578 39.5522 29.8847 39.5118 29.925 39.4849L54.9398 25.0163C54.9801 24.9894 55.0339 24.9894 55.0877 25.0163L57.2261 26.2534C57.2664 26.2803 57.2933 26.3206 57.2933 26.3744C57.2933 26.4282 57.2664 26.4685 57.2261 26.4954L32.2113 40.9641C32.1844 40.9641 32.1575 40.9775 32.1306 40.9775ZM30.2747 39.5925L32.1306 40.6683L56.8629 26.3609L55.007 25.2852L30.2747 39.5925Z" fill="#0F3061"/>
<path d="M33.731 38.9469C33.852 39.0141 33.852 39.1217 33.731 39.189C33.6099 39.2562 33.4351 39.2562 33.314 39.189C33.193 39.1217 33.193 39.0141 33.314 38.9469C33.4351 38.8797 33.6234 38.8797 33.731 38.9469Z" fill="#0F3061"/>
<path d="M37.5505 41.1388C37.6716 41.206 37.6716 41.3136 37.5505 41.3808C37.4295 41.4481 37.2547 41.4481 37.1336 41.3808C37.0126 41.3136 37.0126 41.206 37.1336 41.1388C37.2547 41.0716 37.443 41.0716 37.5505 41.1388Z" fill="#0F3061"/>
<path d="M53.8772 27.2886C53.9982 27.3558 54.1731 27.3558 54.2941 27.2886C54.4151 27.2213 54.4151 27.1138 54.2941 27.0465C54.1731 26.9793 53.9982 26.9793 53.8772 27.0465C53.7696 27.1138 53.7696 27.2213 53.8772 27.2886Z" fill="#0F3061"/>
<path d="M57.6699 29.4936C57.7909 29.5609 57.9658 29.5609 58.0868 29.4936C58.2078 29.4264 58.2078 29.3188 58.0868 29.2516C57.9658 29.1844 57.7909 29.1844 57.6699 29.2516C57.5488 29.3188 57.5488 29.4264 57.6699 29.4936Z" fill="#0F3061"/>
<path d="M32.1305 40.8294L32.144 41.9589L30.0056 40.7353L29.9922 39.5923L32.1305 40.8294Z" fill="#74D9F1"/>
<path d="M32.1441 42.1071C32.1172 42.1071 32.0903 42.1071 32.0768 42.0937L29.9385 40.8566C29.8981 40.8297 29.8712 40.7893 29.8712 40.7356L29.8578 39.606C29.8578 39.5523 29.8847 39.5119 29.925 39.485C29.9654 39.4581 30.0192 39.4581 30.073 39.485L32.2113 40.7221C32.2517 40.749 32.2786 40.7893 32.2786 40.8431L32.292 41.9727C32.292 42.0264 32.2651 42.0668 32.2248 42.0937C32.1979 42.1071 32.171 42.1071 32.1441 42.1071ZM30.1402 40.6414L31.9961 41.7172L31.9827 40.9238L30.1268 39.8481L30.1402 40.6414Z" fill="#0F3061"/>
<path d="M34.2689 42.0667L34.2823 43.1962L32.1439 41.9591L32.1305 40.8296L34.2689 42.0667Z" fill="#74D9F1"/>
<path d="M34.2824 43.3444C34.2555 43.3444 34.2286 43.3444 34.2151 43.331L32.0768 42.0939C32.0364 42.067 32.0095 42.0267 32.0095 41.9729L31.9961 40.8433C31.9961 40.7896 32.023 40.7492 32.0633 40.7223C32.1037 40.6954 32.1575 40.6954 32.2113 40.7223L34.3496 41.9594C34.39 41.9863 34.4169 42.0267 34.4169 42.0804L34.4303 43.21C34.4303 43.2637 34.4034 43.3041 34.3631 43.331C34.3362 43.331 34.3093 43.3444 34.2824 43.3444ZM32.2785 41.8787L34.1345 42.9545L34.121 42.1611L32.2651 41.0854L32.2785 41.8787Z" fill="#0F3061"/>
<path d="M36.4072 43.304L36.4206 44.4335L34.2823 43.1964L34.2688 42.0669L36.4072 43.304Z" fill="#74D9F1"/>
<path d="M36.4208 44.5812C36.3939 44.5812 36.367 44.5812 36.3536 44.5678L34.2152 43.3307C34.1749 43.3038 34.148 43.2635 34.148 43.2097L34.1345 42.0802C34.1345 42.0264 34.1614 41.986 34.2018 41.9591C34.2421 41.9322 34.2959 41.9322 34.3497 41.9591L36.4881 43.1962C36.5284 43.2231 36.5553 43.2635 36.5553 43.3172L36.5687 44.4468C36.5687 44.5006 36.5418 44.5409 36.5015 44.5678C36.4746 44.5678 36.4477 44.5812 36.4208 44.5812ZM34.4304 43.1155L36.2863 44.1913L36.2729 43.3979L34.4169 42.3222L34.4304 43.1155Z" fill="#0F3061"/>
<path d="M61.4354 28.8354L61.4489 29.965L36.4207 44.4336L36.4072 43.3041L61.4354 28.8354Z" fill="#74D9F1"/>
<path d="M36.4208 44.5814C36.3939 44.5814 36.367 44.5814 36.3535 44.5679C36.3132 44.541 36.2863 44.5007 36.2863 44.4469L36.2728 43.3174C36.2728 43.2636 36.2997 43.2233 36.3401 43.1964L61.3548 28.7277C61.3952 28.7008 61.449 28.7008 61.5028 28.7277C61.5431 28.7546 61.57 28.7949 61.57 28.8487L61.5835 29.9782C61.5835 30.032 61.5566 30.0724 61.5162 30.0993L36.5015 44.5679C36.4746 44.5679 36.4477 44.5814 36.4208 44.5814ZM36.5553 43.3846L36.5687 44.1914L61.301 29.8841L61.2876 29.0773L36.5553 43.3846Z" fill="#0F3061"/>
<g clip-path="url(#clip1_1748_11713)">
<path d="M25.2304 50.4276C24.4753 50.8559 24.4753 51.5697 25.2304 51.9979C25.9855 52.4262 27.2092 52.4262 27.9643 51.9979C28.7194 51.5697 28.7194 50.8559 27.9643 50.4276C27.2092 49.9994 25.9855 49.9994 25.2304 50.4276Z" fill="#0F3061"/>
<path d="M24.3451 48.3511L26.7926 48.9221L29.2402 48.3511L28.5371 51.0374C28.472 51.2321 28.3158 51.4268 28.0424 51.5825C27.3524 51.9848 26.2198 51.9848 25.5298 51.5825C25.2694 51.4268 25.1002 51.2451 25.0351 51.0374L24.3451 48.3511Z" fill="#74D9F1"/>
<path d="M26.7926 52.0627C26.3109 52.0627 25.8162 51.9589 25.4386 51.7383C25.1392 51.5696 24.9439 51.3489 24.8658 51.0894L24.1628 48.403C24.1498 48.3381 24.1628 48.2733 24.2149 48.2343C24.2539 48.1824 24.332 48.1694 24.3841 48.1824L26.7926 48.7405L29.201 48.1824C29.2661 48.1694 29.3312 48.1824 29.3703 48.2343C29.4224 48.2733 29.4484 48.3381 29.4224 48.403L28.7194 51.0764C28.6412 51.336 28.446 51.5566 28.1465 51.7253C27.769 51.9459 27.2873 52.0627 26.7926 52.0627ZM24.5924 48.5977L25.2173 50.9856C25.2694 51.1413 25.4126 51.2841 25.6209 51.4138C26.2588 51.7772 27.3133 51.7772 27.9512 51.4138C28.1726 51.2841 28.3028 51.1413 28.3548 50.9726L28.9797 48.5977L26.8186 49.0908C26.7926 49.0908 26.7665 49.0908 26.7405 49.0908L24.5924 48.5977Z" fill="#0F3061"/>
<path d="M26.7926 48.9221L29.2402 48.3511L28.9537 49.4152C28.9017 49.4542 28.8626 49.4801 28.8105 49.5191C27.6909 50.1679 25.8683 50.1679 24.7487 49.5191C24.6966 49.4931 24.6575 49.4542 24.6055 49.4152L24.3451 48.3511L26.7926 48.9221Z" fill="#0F3061"/>
<path d="M26.7926 50.181C26.0245 50.181 25.2564 50.0123 24.6705 49.6748C24.6315 49.6489 24.5924 49.6229 24.5664 49.597L24.5143 49.558C24.4752 49.5321 24.4492 49.4932 24.4362 49.4542L24.1628 48.403C24.1498 48.3381 24.1628 48.2733 24.2149 48.2343C24.2539 48.1824 24.332 48.1694 24.3841 48.1824L26.7926 48.7405L29.201 48.1824C29.2661 48.1694 29.3312 48.1824 29.3703 48.2343C29.4224 48.2733 29.4484 48.3381 29.4224 48.403L29.136 49.4672C29.1229 49.5061 29.0969 49.5451 29.0578 49.571L29.0058 49.61C28.9667 49.6359 28.9407 49.6619 28.9016 49.6878C28.3288 50.0123 27.5607 50.181 26.7926 50.181ZM24.7877 49.3115C24.8137 49.3244 24.8398 49.3504 24.8658 49.3634C25.9333 49.9733 27.6778 49.9733 28.7454 49.3634C28.7714 49.3504 28.7975 49.3374 28.8105 49.3115L28.9927 48.5977L26.8316 49.0908C26.8056 49.0908 26.7796 49.0908 26.7535 49.0908L24.5924 48.5977L24.7877 49.3115Z" fill="#0F3061"/>
<path d="M23.9283 47.8453V46.9628H24.397C24.5012 46.872 24.6314 46.7811 24.7746 46.6903C25.8942 46.0414 27.7168 46.0414 28.8364 46.6903C28.9796 46.7681 29.1098 46.859 29.214 46.9628H29.6826V47.8453C29.6826 47.8583 29.6826 47.8583 29.6826 47.8712V47.9102C29.6566 48.3125 29.3832 48.7148 28.8494 49.0262C27.7298 49.6751 25.9072 49.6751 24.7876 49.0262C24.2278 48.7148 23.9544 48.3125 23.9283 47.8972V47.8583V47.8453Z" fill="#FEC914"/>
<path d="M26.7926 49.688C26.0245 49.688 25.2564 49.5193 24.6705 49.1819C24.1237 48.8574 23.7982 48.4292 23.7462 47.962C23.7462 47.949 23.7332 47.923 23.7332 47.9101V47.8452V46.9627C23.7332 46.9108 23.7462 46.8719 23.7852 46.8329C23.8243 46.794 23.8633 46.781 23.9154 46.781H24.306C24.4101 46.6902 24.5273 46.6123 24.6575 46.5344C25.8292 45.8596 27.7299 45.8596 28.9016 46.5344C29.0318 46.6123 29.149 46.6902 29.2531 46.781H29.6437C29.6958 46.781 29.7348 46.807 29.7739 46.8329C29.8129 46.8719 29.8259 46.9108 29.8259 46.9627V47.8452C29.8259 47.8711 29.8259 47.8971 29.8129 47.9101C29.8129 48.4032 29.4875 48.8445 28.9146 49.1819C28.3288 49.5193 27.5607 49.688 26.7926 49.688ZM24.1107 47.8582C24.1107 47.8711 24.1107 47.8841 24.1107 47.8971C24.1237 48.2605 24.3971 48.5979 24.8528 48.8704C25.9203 49.4804 27.6648 49.4804 28.7324 48.8704C29.188 48.6109 29.4484 48.2605 29.4744 47.8971C29.4744 47.8841 29.4744 47.8711 29.4744 47.8582C29.4744 47.8452 29.4744 47.8452 29.4744 47.8452V47.1444H29.201C29.149 47.1444 29.1099 47.1314 29.0839 47.0925C28.9797 47.0016 28.8626 46.9238 28.7324 46.8459C27.6648 46.236 25.9203 46.236 24.8528 46.8459C24.7356 46.9238 24.6184 47.0016 24.5143 47.0925C24.4752 47.1184 24.4362 47.1444 24.3841 47.1444H24.1107V47.8582Z" fill="#0F3061"/>
<path d="M24.7617 45.7816C23.6421 46.4305 23.6421 47.4687 24.7617 48.1176C25.8813 48.7665 27.704 48.7665 28.8236 48.1176C29.9432 47.4687 29.9432 46.4305 28.8236 45.7816C27.704 45.1327 25.8813 45.1457 24.7617 45.7816Z" fill="#FEC914"/>
<path d="M26.7926 48.7923C26.0245 48.7923 25.2564 48.6236 24.6705 48.2862C24.0717 47.9358 23.7462 47.4686 23.7462 46.9495C23.7462 46.4433 24.0717 45.9632 24.6836 45.6258C25.8553 44.9509 27.756 44.9509 28.9277 45.6258C29.5135 45.9761 29.852 46.4433 29.852 46.9495C29.852 47.4556 29.5266 47.9358 28.9147 48.2732C28.3288 48.6236 27.5607 48.7923 26.7926 48.7923ZM26.7926 45.483C26.0896 45.483 25.3866 45.6387 24.8528 45.9502C24.3711 46.2227 24.1107 46.5861 24.1107 46.9495C24.1107 47.3258 24.3711 47.6762 24.8658 47.9617C25.9334 48.5717 27.6779 48.5717 28.7454 47.9617C29.2271 47.6892 29.5005 47.3258 29.5005 46.9495C29.5005 46.5731 29.2401 46.2227 28.7454 45.9372C28.1986 45.6387 27.4956 45.483 26.7926 45.483Z" fill="#0F3061"/>
<path d="M25.4128 46.2877C26.1809 45.9243 27.4176 45.9243 28.1858 46.2877C28.9539 46.651 28.9539 47.248 28.1858 47.6244C27.4176 47.9877 26.1809 47.9877 25.4128 47.6244C24.6446 47.248 24.6446 46.651 25.4128 46.2877Z" fill="#0F3061"/>
<path d="M26.7927 48.0788C26.2719 48.0788 25.7382 47.9749 25.3346 47.7803C24.8919 47.5726 24.6576 47.2741 24.6576 46.9497C24.6576 46.6253 24.8919 46.3268 25.3346 46.1191C26.1548 45.7298 27.4436 45.7298 28.2638 46.1191C28.7064 46.3268 28.9408 46.6253 28.9408 46.9497C28.9408 47.2741 28.7064 47.5726 28.2638 47.7803C27.8472 47.9879 27.3264 48.0788 26.7927 48.0788ZM26.7927 46.197C26.324 46.197 25.8423 46.2879 25.4908 46.4566C25.1914 46.5993 25.0221 46.781 25.0221 46.9497C25.0221 47.1184 25.1914 47.3131 25.4908 47.4558C26.2068 47.8062 27.3785 47.8062 28.0946 47.4558C28.394 47.3131 28.5632 47.1314 28.5632 46.9497C28.5632 46.781 28.394 46.5993 28.0946 46.4566C27.743 46.2879 27.2613 46.197 26.7927 46.197Z" fill="#0F3061"/>
<path d="M25.4126 46.8199C26.1807 46.4565 27.4175 46.4565 28.1856 46.8199C28.433 46.9367 28.5892 47.0794 28.6673 47.2222C28.5762 47.365 28.4199 47.5077 28.1856 47.6245C27.4175 47.9879 26.1807 47.9879 25.4126 47.6245C25.1652 47.5077 25.022 47.365 24.9309 47.2222C25.009 47.0665 25.1652 46.9367 25.4126 46.8199Z" fill="#74D9F1"/>
<path d="M26.7926 48.0784C26.2718 48.0784 25.738 47.9746 25.3345 47.7799C25.0741 47.6502 24.8788 47.4944 24.7747 47.3127C24.7356 47.2479 24.7356 47.183 24.7747 47.1181C24.8918 46.9234 25.0741 46.7677 25.3345 46.6509C26.1546 46.2616 27.4435 46.2616 28.2637 46.6509C28.5241 46.7807 28.7193 46.9364 28.8235 47.1181C28.8626 47.183 28.8626 47.2479 28.8235 47.3127C28.7063 47.5074 28.5241 47.6631 28.2637 47.7799C27.8471 47.9876 27.3263 48.0784 26.7926 48.0784ZM25.1522 47.2219C25.2303 47.3127 25.3475 47.3906 25.4907 47.4555C26.2067 47.8059 27.3784 47.8059 28.0944 47.4555C28.2377 47.3906 28.3548 47.2998 28.4329 47.2219C28.3548 47.1311 28.2377 47.0532 28.0944 46.9753C27.3784 46.6249 26.2067 46.6249 25.4907 46.9753C25.3475 47.0532 25.2303 47.1311 25.1522 47.2219Z" fill="#0F3061"/>
<path d="M26.5063 47.2219C26.5063 47.2219 28.5112 45.8073 26.5063 44.8859C26.5063 44.8859 25.2825 43.7049 23.6942 45.0157C23.6942 45.0157 25.8033 44.8859 26.5063 47.2219Z" fill="#287012"/>
<path d="M26.7535 46.729C26.7535 46.729 27.1181 46.4694 27.3785 46.1061C27.2483 46.703 26.5192 47.2221 26.5192 47.2221C25.8162 44.8862 23.7072 45.016 23.7072 45.016C23.7072 45.016 26.0505 44.3801 26.7535 46.729Z" fill="#031231"/>
<path d="M26.5062 47.404C26.4802 47.404 26.4672 47.404 26.4412 47.391C26.3891 47.3781 26.35 47.3262 26.337 47.2742C25.6861 45.107 23.7332 45.2108 23.7072 45.1978H23.6942C23.6161 45.1978 23.551 45.1459 23.5249 45.081C23.4859 45.0161 23.5119 44.9253 23.577 44.8734C25.1523 43.5756 26.4151 44.5619 26.6104 44.7177C27.2093 45.0161 27.5347 45.3795 27.5738 45.8078C27.6519 46.6254 26.6495 47.3391 26.6104 47.3651C26.5844 47.391 26.5453 47.404 26.5062 47.404ZM24.2149 44.8734C24.8919 44.9902 26.0376 45.4055 26.5974 46.9109C26.8708 46.6643 27.2483 46.236 27.2093 45.8467C27.1832 45.5482 26.9228 45.2757 26.4281 45.0421C26.4151 45.0421 26.3891 45.0291 26.3761 45.0161C26.337 44.9772 25.4517 44.1466 24.2149 44.8734Z" fill="#0F3061"/>
<path d="M26.5062 47.222C26.5062 47.222 29.8651 46.3914 30.7243 43.6532C31.5705 40.9149 32.6251 40.1362 32.6251 40.1362C32.6251 40.1362 30.7503 40.7072 29.4745 42.602C28.1987 44.4967 26.5062 47.222 26.5062 47.222Z" fill="#80DF23"/>
<path d="M26.5062 47.222C26.5062 47.222 29.8651 46.3914 30.7243 43.6532C31.5705 40.9149 32.6251 40.1362 32.6251 40.1362C32.6251 40.1362 30.7503 40.7072 29.4745 42.602C28.1987 44.4967 26.5062 47.222 26.5062 47.222Z" fill="#FBF0DC"/>
<path d="M26.5063 47.4036C26.4542 47.4036 26.3891 47.3777 26.3631 47.3258C26.311 47.2739 26.298 47.196 26.337 47.1311C26.3631 47.1052 28.0425 44.3669 29.3183 42.4981C30.6202 40.5774 32.4949 39.9934 32.573 39.9675C32.6512 39.9415 32.7553 39.9805 32.7944 40.0583C32.8204 40.1362 32.8074 40.24 32.7293 40.2919C32.7162 40.2919 31.7138 41.0836 30.8936 43.718C30.0214 46.5082 26.6885 47.3647 26.5453 47.4036C26.5323 47.4036 26.5193 47.4036 26.5063 47.4036ZM31.9091 40.6553C31.2712 41.0057 30.3468 41.6416 29.6178 42.7058C28.6544 44.1203 27.4436 46.054 26.9229 46.8975C27.8602 46.5601 29.9172 45.5998 30.5421 43.6012C30.9978 42.1218 31.5185 41.2004 31.9091 40.6553Z" fill="#0F3061"/>
<path d="M26.5062 47.222C26.5062 47.222 28.6152 44.1203 26.5062 42.5111C24.3972 40.9019 21.6632 43.1211 21.6632 43.1211C21.6632 43.1211 24.306 42.8615 25.5688 43.7959C26.8837 44.7692 26.5062 47.222 26.5062 47.222Z" fill="#80DF23"/>
<path d="M26.5062 47.222C26.5062 47.222 28.6152 44.1203 26.5062 42.5111C24.3972 40.9019 21.6632 43.1211 21.6632 43.1211C21.6632 43.1211 24.306 42.8615 25.5688 43.7959C26.8837 44.7692 26.5062 47.222 26.5062 47.222Z" fill="#DBF4F2"/>
<path d="M26.5063 47.4036C26.4803 47.4036 26.4672 47.4036 26.4412 47.3906C26.3631 47.3517 26.311 47.2738 26.324 47.1959C26.324 47.17 26.6625 44.847 25.4648 43.9515C24.2671 43.0691 21.7024 43.3027 21.6893 43.3156C21.6112 43.3156 21.5331 43.2767 21.5071 43.1988C21.468 43.121 21.481 43.0301 21.5461 42.9782C21.5722 42.9523 24.4233 40.6812 26.6104 42.3553C28.8367 44.0554 26.6886 47.2868 26.6625 47.3257C26.6235 47.3776 26.5714 47.4036 26.5063 47.4036ZM22.5095 42.9133C23.4208 42.9133 24.8399 43.0301 25.6861 43.6531C26.5844 44.3149 26.7406 45.5737 26.7536 46.4173C27.2093 45.444 27.7561 43.692 26.4021 42.6538C24.9701 41.5637 23.1865 42.3813 22.3142 42.9133C22.3663 42.9133 22.4314 42.9133 22.5095 42.9133Z" fill="#0F3061"/>
<path d="M26.5062 47.2221C26.5062 47.2221 29.6568 44.4189 28.0945 41.1616C26.5192 37.9042 27.1441 36.1133 27.1441 36.1133C27.1441 36.1133 25.1392 38.9164 25.7902 41.3043C26.4281 43.6922 27.1572 45.3014 26.5062 47.2221Z" fill="#1A9D25"/>
<path d="M26.5062 47.2221C26.5062 47.2221 29.6568 44.4189 28.0945 41.1616C26.5192 37.9042 27.1441 36.1133 27.1441 36.1133C27.1441 36.1133 25.1392 38.9164 25.7902 41.3043C26.4281 43.6922 27.1572 45.3014 26.5062 47.2221Z" fill="#FEC914"/>
<path d="M25.699 39.6821C25.6469 40.1623 25.686 40.6295 25.8422 41.0318C26.7796 43.3288 27.7299 44.9251 27.1701 46.4045C26.8056 46.8587 26.5192 47.1183 26.5192 47.1183C27.1701 45.2106 26.4411 43.5884 25.8032 41.2005C25.6599 40.7074 25.6469 40.1883 25.699 39.6821Z" fill="#031332"/>
<path d="M26.5063 47.4039C26.4672 47.4039 26.4412 47.3909 26.4021 47.3779C26.337 47.326 26.298 47.2482 26.324 47.1703C26.8448 45.639 26.4412 44.2633 25.9335 42.5243C25.8293 42.161 25.7121 41.7716 25.595 41.3563C24.931 38.9166 26.8969 36.1264 26.975 36.0096C27.0401 35.9317 27.1442 35.9058 27.2223 35.9577C27.3004 35.9966 27.3395 36.0874 27.3135 36.1783C27.3135 36.1913 26.7406 37.9432 28.2508 41.0838C29.8651 44.432 26.6625 47.326 26.6365 47.352C26.5974 47.3909 26.5453 47.4039 26.5063 47.4039ZM26.8318 36.9699C26.298 37.9432 25.5429 39.7082 25.9595 41.2525C26.0767 41.6678 26.1938 42.0442 26.298 42.4205C26.7536 43.9519 27.1182 45.2237 26.8708 46.5733C27.665 45.639 29.0319 43.5496 27.9253 41.2525C26.975 39.267 26.8057 37.8264 26.8318 36.9699Z" fill="#0F3061"/>
</g>
<defs>
<clipPath id="clip0_1748_11713">
<rect width="31.6357" height="38.6658" fill="white" transform="translate(54.2883)"/>
</clipPath>
<clipPath id="clip1_1748_11713">
<rect width="11.3263" height="16.4037" fill="white" transform="translate(21.4811 35.9316)"/>
</clipPath>
</defs>
</svg>
