<svg width="407" height="280" viewBox="0 0 407 280" fill="none" xmlns="http://www.w3.org/2000/svg">
<g opacity="0.07">
<path d="M172.657 280.925C166.536 274.566 158.666 269.876 149.604 267.73L116.933 259.86V239.907H76.9484V259.939L44.3566 267.73C23.0527 272.817 7.94922 291.895 7.94922 313.835V367.254H80.2871L172.657 280.925Z" fill="#EFF5FA"/>
<path d="M117.728 239.907V260.416L96.9805 310.019L76.3125 260.496V239.907H117.728Z" fill="#FFB487"/>
<path d="M141.496 171.147V198.81C141.496 223.373 121.544 243.326 96.9805 243.326C72.4174 243.326 52.4648 223.373 52.4648 198.81V171.147H141.496Z" fill="#FFCDAC"/>
<path d="M141.496 179.891V169.159C141.496 144.596 121.544 124.644 96.9805 124.644C72.4174 124.644 52.4648 144.596 52.4648 169.159V179.891H83.1488C102.386 179.891 121.226 174.644 137.68 164.787" fill="#878791"/>
<path d="M234.343 280.925C240.464 274.566 248.334 269.876 257.396 267.73L290.067 259.86V239.907H329.972V259.939L362.564 267.73C383.868 272.817 398.971 291.895 398.971 313.835V367.254H326.633L234.343 280.925Z" fill="#FCD7D1"/>
<path d="M330.687 239.907V260.496L310.02 310.019L289.272 260.416V239.907H330.687Z" fill="#FFB487"/>
<path d="M203.5 343.963L233.151 276.633C230.925 272.976 229.732 268.604 229.732 264.073V257.634H177.268V264.073C177.268 268.604 175.996 272.897 173.849 276.633L203.5 343.963Z" fill="#FFB487"/>
<path d="M265.504 152.228V194.994C265.504 229.255 237.761 256.998 203.5 256.998C169.239 256.998 141.496 229.255 141.496 194.994V152.228H265.504Z" fill="#FFCDAC"/>
<path d="M203.5 91.734C169.239 91.734 141.496 119.477 141.496 153.738V168.682H171.783C191.974 168.682 211.052 159.779 224.009 144.278L265.504 168.682V153.738C265.504 119.556 237.761 91.734 203.5 91.734Z" fill="#F5B955"/>
<path d="M265.504 171.147V198.81C265.504 223.373 285.456 243.326 310.02 243.326C334.583 243.326 354.535 223.373 354.535 198.81V171.147H265.504Z" fill="#FFCDAC"/>
<path d="M265.504 179.891V169.159C265.504 144.596 285.456 124.644 310.02 124.644C334.583 124.644 354.535 144.596 354.535 169.159V179.891H323.851C304.614 179.891 285.774 174.644 269.32 164.787" fill="#878791"/>
<path d="M364.551 260.019L338.001 253.66V243.167C352.707 233.866 362.484 217.491 362.484 198.81V169.159C362.484 140.224 338.955 116.695 310.02 116.695C294.439 116.695 280.369 123.531 270.75 134.421C262.324 105.248 235.376 83.8643 203.5 83.8643C171.624 83.8643 144.596 105.327 136.25 134.58C126.631 123.61 112.561 116.774 96.901 116.774C67.9658 116.774 44.4361 140.304 44.4361 169.239V198.889C44.4361 217.57 54.2137 233.946 68.9197 243.246V253.739L42.3693 260.098C17.4883 265.981 0 288.08 0 313.835V367.254C0 371.626 3.57715 375.203 7.94922 375.203H71.543V399.051C71.543 403.423 75.1201 407 79.4922 407H166.695C171.067 407 174.644 403.423 174.644 399.051C174.644 394.679 171.067 391.102 166.695 391.102H131.162V356.125C131.162 351.753 127.585 348.176 123.213 348.176C118.841 348.176 115.264 351.753 115.264 356.125V391.102H87.4414V355.251C87.4414 328.303 105.725 305.091 131.957 298.811L171.067 289.431L196.187 346.665C197.459 349.527 200.32 351.435 203.5 351.435C206.68 351.435 209.541 349.607 210.813 346.665L235.933 289.511L274.884 298.811C301.116 305.091 319.479 328.303 319.479 355.251V364.154C319.082 365.108 318.843 366.141 318.843 367.254C318.843 368.367 319.082 369.4 319.479 370.354V391.102H291.736V356.125C291.736 351.753 288.159 348.176 283.787 348.176C279.415 348.176 275.838 351.753 275.838 356.125V391.102H236.887C232.515 391.102 228.938 394.679 228.938 399.051C228.938 403.423 232.515 407 236.887 407H327.349C331.721 407 335.298 403.423 335.298 399.051V375.203H399.051C403.423 375.203 407 371.626 407 367.254V313.835C407 288.08 389.512 265.981 364.551 260.019ZM322.102 260.337L310.02 289.431L298.016 260.734C298.016 260.416 298.096 260.178 298.096 259.86C298.096 259.78 298.096 259.701 298.096 259.621V249.764C301.991 250.639 305.965 251.195 310.099 251.195C314.233 251.195 318.287 250.718 322.182 249.764V259.939C322.102 260.098 322.102 260.257 322.102 260.337ZM167.729 266.776C162.721 263.676 157.236 261.37 151.512 260.019L124.882 253.66V243.246C131.48 239.113 137.124 233.469 141.337 226.871C147.299 238.556 156.52 248.413 167.729 255.09V266.776ZM149.525 194.994V176.632H171.862C192.133 176.632 211.37 168.603 225.599 154.453L257.555 173.213V196.902C256.601 225.837 232.753 249.129 203.579 249.129C173.77 249.049 149.525 224.804 149.525 194.994ZM239.192 255.17C250.48 248.413 259.78 238.636 265.822 226.871C270.035 233.389 275.599 238.954 282.197 243.087V253.58L255.567 259.939C249.764 261.37 244.279 263.676 239.192 266.776V255.17ZM310.02 235.376C289.829 235.376 273.453 219.001 273.453 198.81V197.538C273.453 196.743 273.533 176.155 273.533 176.155C289.193 183.865 306.363 187.84 323.851 187.84H346.586V198.81C346.586 218.921 330.211 235.376 310.02 235.376ZM310.02 132.593C330.211 132.593 346.586 148.968 346.586 169.159V171.147V171.942H323.851C306.681 171.942 289.829 167.411 274.963 158.905C279.415 143.722 293.485 132.593 310.02 132.593ZM149.525 153.738C149.525 123.928 173.77 99.6832 203.579 99.6832C233.389 99.6832 257.634 123.928 257.634 153.738V154.771L228.143 137.442C224.804 135.455 220.511 136.25 218.047 139.191C206.6 152.863 189.748 160.733 171.942 160.733H149.604V153.738H149.525ZM60.4141 169.159C60.4141 148.968 76.7895 132.593 96.9805 132.593C113.594 132.593 127.585 143.722 132.037 158.905C117.171 167.49 100.319 171.942 83.1488 171.942H60.4141V171.147V169.159ZM60.4141 187.84H83.1488C100.637 187.84 117.887 183.786 133.547 176.075V198.73C133.547 218.921 117.171 235.297 96.9805 235.297C76.7895 235.297 60.4141 218.921 60.4141 198.73C60.4141 198.81 60.4141 187.84 60.4141 187.84ZM96.9805 251.275C101.114 251.275 105.089 250.798 108.984 249.844V259.462C108.984 259.621 108.984 259.78 108.984 259.939C108.984 260.178 108.984 260.416 109.063 260.655L96.9805 289.431L84.8977 260.496C84.8977 260.337 84.8977 260.098 84.8977 259.939V249.844C88.7928 250.718 92.7674 251.275 96.9805 251.275ZM71.543 355.251V359.305H47.6953V324.01C47.6953 319.638 44.1182 316.061 39.7461 316.061C35.374 316.061 31.7969 319.638 31.7969 324.01V359.305H15.8984V313.835C15.8984 295.472 28.3787 279.733 46.185 275.44L71.384 269.399L87.8389 308.827C77.5049 321.625 71.543 337.842 71.543 355.251ZM128.221 283.31C123.531 284.423 119.079 286.013 114.787 287.921L122.497 269.399L147.696 275.44C149.684 275.917 151.592 276.553 153.42 277.269L128.221 283.31ZM203.5 323.692L183.627 278.461V262.086C189.986 263.994 196.664 265.027 203.579 265.027C210.416 265.027 217.093 263.994 223.294 262.165V278.541L203.5 323.692ZM253.421 277.348C255.329 276.553 257.237 275.917 259.304 275.44L284.423 269.399L292.213 288C287.921 286.013 283.39 284.423 278.62 283.31L253.421 277.348ZM391.102 359.305H375.203V324.01C375.203 319.638 371.626 316.061 367.254 316.061C362.882 316.061 359.305 319.638 359.305 324.01V359.305H335.298V355.251C335.298 337.842 329.336 321.705 319.082 308.907L335.616 269.399L360.895 275.44C378.701 279.733 391.181 295.472 391.181 313.835V359.305H391.102Z" fill="#021D45"/>
<path d="M176.87 183.786C174.803 183.786 172.737 184.66 171.226 186.091C169.716 187.602 168.921 189.589 168.921 191.735C168.921 193.881 169.795 195.869 171.226 197.379C172.657 198.889 174.724 199.684 176.87 199.684C178.937 199.684 181.004 198.81 182.514 197.379C184.024 195.869 184.819 193.881 184.819 191.735C184.819 189.589 183.945 187.602 182.514 186.091C181.004 184.66 178.937 183.786 176.87 183.786Z" fill="#021D45"/>
<path d="M229.971 199.684C232.038 199.684 234.104 198.81 235.615 197.379C237.125 195.869 237.92 193.881 237.92 191.735C237.92 189.589 237.046 187.602 235.615 186.091C234.104 184.581 232.117 183.786 229.971 183.786C227.825 183.786 225.837 184.66 224.327 186.091C222.817 187.602 222.022 189.589 222.022 191.735C222.022 193.881 222.896 195.869 224.327 197.379C225.758 198.889 227.904 199.684 229.971 199.684Z" fill="#021D45"/>
<path d="M218.763 212.88C215.662 209.78 210.654 209.78 207.554 212.88C205.169 215.265 201.354 215.265 199.048 212.88C195.948 209.78 190.94 209.78 187.84 212.88C184.74 215.98 184.74 220.988 187.84 224.088C192.133 228.381 197.697 230.527 203.341 230.527C208.985 230.527 214.549 228.381 218.842 224.088C221.942 221.068 221.942 215.98 218.763 212.88Z" fill="#021D45"/>
</g>
</svg>
