<svg width="516" height="629" viewBox="0 0 516 629" fill="none" xmlns="http://www.w3.org/2000/svg">
<path d="M308.325 393.89C315.029 397.767 315.029 404.04 308.325 407.894C301.622 411.771 290.731 411.771 284.028 407.894C277.324 404.017 277.324 397.743 284.028 393.89C290.731 390.037 301.622 390.037 308.325 393.89Z" fill="#325C84"/>
<path d="M90 142L156.368 178.742C159.423 180.433 163.138 180.409 166.17 178.678L213.937 151.406C216.692 149.834 220.029 149.661 222.93 150.941L273.578 173.276C281.168 176.622 281.618 187.222 274.34 191.2L161.287 252.996L74.0324 299.63C66.7845 303.503 67.044 313.981 74.4747 317.491L158.76 357.306C160.413 358.087 162.202 358.403 164.027 358.292C178.178 357.436 244.183 356.087 292.149 400.5C346.149 450.5 277 639 475.5 622" stroke="#325D84" stroke-width="11" stroke-linecap="round"/>
<g clip-path="url(#clip0_4_737)">
<path d="M143.673 113.12L58.9652 161.86L2.48933 128.83L87.1972 80.0894L143.673 113.12Z" fill="#41B9D5"/>
<path d="M58.9652 164L0 130.123V128.018L58.9652 161.907V164Z" fill="#F0E7D2"/>
<path d="M58.9652 161.907L0 128.018L2.6427 126.689L61.6197 160.578L58.9652 161.907Z" fill="#F0E7D2"/>
<path d="M58.9652 164V161.907L61.6197 160.578V162.683L58.9652 164Z" fill="#F0E7D2"/>
<path d="M144.357 114.989L85.3803 81.1004V78.9956L144.357 112.884V114.989Z" fill="#F0E7D2"/>
<path d="M144.357 112.885L85.3803 78.9957L88.023 77.667L147 111.556L144.357 112.885Z" fill="#F0E7D2"/>
<path d="M144.357 114.989V112.884L147 111.556V113.66L144.357 114.989Z" fill="#F0E7D2"/>
<path d="M28.2792 131.016L19.3011 136.19L8.9427 130.217L17.909 125.055L28.2792 131.016Z" fill="#3D322C"/>
<path d="M37.2573 125.854L28.2792 131.016L17.909 125.055L26.8871 119.893L37.2573 125.854Z" fill="#F0E7D2"/>
<path d="M46.2354 120.692L37.2573 125.854L26.8871 119.893L35.8652 114.73L46.2354 120.692Z" fill="#3D322C"/>
<path d="M55.2135 115.518L46.2354 120.692L35.8652 114.731L44.8433 109.557L55.2135 115.518Z" fill="#F0E7D2"/>
<path d="M64.1798 110.356L55.2135 115.518L44.8433 109.557L53.8213 104.395L64.1798 110.356Z" fill="#3D322C"/>
<path d="M73.1579 105.194L64.1798 110.356L53.8214 104.395L62.7994 99.2324L73.1579 105.194Z" fill="#F0E7D2"/>
<path d="M82.136 100.032L73.1579 105.194L62.7994 99.2325L71.7775 94.0586L82.136 100.032Z" fill="#3D322C"/>
<path d="M100.092 89.6961L91.114 94.8582L80.7438 88.8965L89.7219 83.7344L100.092 89.6961Z" fill="#3D322C"/>
<path d="M91.114 94.8582L82.136 100.032L71.7775 94.0586L80.7438 88.8965L91.114 94.8582Z" fill="#F0E7D2"/>
<path d="M47.6157 131.816L38.6494 136.99L28.2792 131.017L37.2573 125.854L47.6157 131.816Z" fill="#3D322C"/>
<path d="M56.5938 126.654L47.6157 131.816L37.2573 125.854L46.2354 120.692L56.5938 126.654Z" fill="#F0E7D2"/>
<path d="M38.6494 136.99L29.6713 142.152L19.3011 136.19L28.2792 131.017L38.6494 136.99Z" fill="#F0E7D2"/>
<path d="M65.5719 121.492L56.5938 126.654L46.2354 120.692L55.2135 115.519L65.5719 121.492Z" fill="#3D322C"/>
<path d="M74.55 116.318L65.5719 121.492L55.2135 115.519L64.1798 110.356L74.55 116.318Z" fill="#F0E7D2"/>
<path d="M83.5281 111.156L74.55 116.318L64.1798 110.356L73.1579 105.194L83.5281 111.156Z" fill="#3D322C"/>
<path d="M92.5062 105.994L83.5281 111.156L73.1579 105.194L82.136 100.032L92.5062 105.994Z" fill="#F0E7D2"/>
<path d="M101.484 100.832L92.5062 105.994L82.136 100.032L91.114 94.8584L101.484 100.832Z" fill="#3D322C"/>
<path d="M110.451 95.658L101.484 100.832L91.1141 94.8584L100.092 89.6963L110.451 95.658Z" fill="#F0E7D2"/>
<path d="M102.522 85.91L100.104 87.2975V2.76352L102.522 1.37598V85.91Z" fill="#F0E7D2"/>
<path d="M97.6854 85.91L100.104 87.2975V2.76352L97.6854 1.37598V85.91Z" fill="#F0E7D2"/>
<path d="M102.522 1.37578L100.104 0L97.6854 1.37578L100.104 2.76332L102.522 1.37578Z" fill="#F0E7D2"/>
<path d="M100.104 24.5293L16.5876 72.5875V52.527L100.104 4.46875V24.5293Z" fill="#F46269"/>
<path d="M45.6573 51.0805C45.1146 51.398 44.5719 51.5743 44.0292 51.6214C43.4865 51.6684 43.0028 51.5508 42.5781 51.2569L43.6517 48.9169C43.9466 49.0815 44.277 49.1755 44.6427 49.1755C45.0084 49.1873 45.3624 49.0815 45.7163 48.8816C46.1056 48.6582 46.4006 48.3877 46.5893 48.0937C46.7781 47.788 46.8725 47.4705 46.8725 47.1413C46.8725 46.9767 46.8489 46.8355 46.7899 46.7532C46.7309 46.6592 46.6483 46.6004 46.5421 46.5651C46.436 46.5298 46.3062 46.5181 46.1528 46.5181C45.9994 46.5181 45.8343 46.5181 45.6573 46.5181L44.5719 46.5298C44.3595 46.5416 44.1472 46.5063 43.9466 46.4475C43.7461 46.377 43.5691 46.2711 43.4039 46.1183C43.2506 45.9654 43.1208 45.7537 43.0264 45.4833C42.932 45.2128 42.8848 44.8718 42.8848 44.472C42.8848 44.0134 42.9556 43.5548 43.0972 43.061C43.2388 42.5789 43.4511 42.1085 43.7107 41.6499C43.9702 41.2031 44.2888 40.7798 44.6545 40.4035C45.0202 40.0272 45.4213 39.7097 45.8461 39.4628C46.3298 39.1806 46.8135 39.0277 47.2854 39.0042C47.7573 38.9807 48.1702 39.11 48.536 39.3805L47.5803 41.5088C47.309 41.3795 47.0376 41.3207 46.7663 41.3207C46.4949 41.3207 46.1882 41.4265 45.8579 41.6146C45.5393 41.8028 45.2798 42.038 45.0792 42.3202C44.8904 42.6024 44.7961 42.9081 44.7961 43.2256C44.7961 43.3902 44.8315 43.5196 44.8904 43.6019C44.9494 43.6842 45.0438 43.743 45.1618 43.7665C45.2798 43.8018 45.4095 43.8135 45.5629 43.8018C45.7163 43.8018 45.8815 43.8018 46.0584 43.79L47.132 43.7547C47.6393 43.7312 48.0522 43.8723 48.3354 44.1781C48.6303 44.4838 48.7719 45.0247 48.7719 45.8125C48.7719 46.2829 48.7011 46.7532 48.5595 47.2471C48.418 47.741 48.2174 48.2231 47.9461 48.6934C47.6747 49.1638 47.3444 49.5989 46.9551 50.0104C46.6011 50.4455 46.1528 50.7983 45.6573 51.0805Z" fill="#F0E7D2"/>
<path d="M51.5916 47.4591V38.4753L49.3028 39.7923V37.6875L55.7798 33.96V36.0648L53.491 37.3818V46.3655L51.5916 47.4591Z" fill="#F0E7D2"/>
<path d="M55.5084 45.2129L58.1157 32.6192L60.3809 31.314L62.9882 40.8974L60.9944 42.0497L60.4871 39.7098L57.9388 41.1796L57.4315 44.1075L55.5084 45.2129ZM58.5286 37.8519L58.3281 38.9925L60.1095 37.9694L59.9208 37.064C59.8028 36.5819 59.6848 36.0528 59.5786 35.4883C59.4725 34.9239 59.3545 34.3948 59.2483 33.8774L59.2011 33.9127C59.0949 34.5594 58.9888 35.2296 58.8826 35.8999C58.7646 36.5819 58.6466 37.2286 58.5286 37.8519Z" fill="#F0E7D2"/>
<path d="M63.9084 40.3801V29.2915L66.9169 27.563C67.3652 27.3043 67.7781 27.1279 68.1674 27.0103C68.5567 26.9045 68.8989 26.8927 69.182 26.9985C69.477 27.1044 69.7011 27.316 69.8781 27.6688C70.0433 28.0098 70.1376 28.5154 70.1376 29.1739C70.1376 29.9853 70.0079 30.7378 69.7365 31.4199C69.4652 32.1019 69.1112 32.7016 68.6511 33.2189L70.5506 36.5702L68.427 37.7814L66.8225 34.7006L65.7843 35.3003V39.2982L63.9084 40.3801ZM65.7843 33.3013L66.7517 32.7368C67.2472 32.4546 67.6247 32.1019 67.8843 31.6668C68.1438 31.2435 68.2736 30.7496 68.2736 30.2087C68.2736 29.6678 68.1438 29.3621 67.8843 29.2915C67.6247 29.221 67.2472 29.3385 66.7517 29.6208L65.7843 30.1852V33.3013Z" fill="#F0E7D2"/>
<path d="M73.1461 35.0533V26.0696L70.8573 27.3866V25.2817L77.3343 21.5542V23.659L75.0455 24.976V33.9597L73.1461 35.0533Z" fill="#F0E7D2"/>
<path d="M16.5876 52.5266L14.6056 51.5859V71.6465L16.5876 72.5872V52.5266Z" fill="#E83D62"/>
<path d="M100.104 4.46854L98.1219 3.52783L14.6056 51.586L16.5876 52.5268L100.104 4.46854Z" fill="#FF7381"/>
<path d="M16.5758 134.78L14.1573 136.179V51.6449L16.5758 50.2573V134.78Z" fill="#F0E7D2"/>
<path d="M11.7388 134.78L14.1573 136.179V51.6449L11.7388 50.2573V134.78Z" fill="#F0E7D2"/>
<path d="M16.5758 50.2571L14.1573 48.8813L11.7388 50.2571L14.1573 51.6447L16.5758 50.2571Z" fill="#F0E7D2"/>
</g>
<ellipse cx="296.5" cy="401.5" rx="11.5" ry="3.5" fill="#203E6A"/>
<path d="M293 340V399.714C293 400.253 293.27 400.738 293.755 401.007L295.157 401.816C295.238 401.869 295.562 402.031 295.939 402.031C296.316 402.031 296.64 401.843 296.721 401.816L297.88 401.142C298.501 400.792 298.878 400.145 298.878 399.417V340H293Z" fill="#021D45"/>
<circle cx="296" cy="327" r="39" fill="#166780"/>
<path d="M327 326.988C327 309.874 313.121 296 296 296C278.879 296 265 309.874 265 326.988C265 344.103 278.879 357.977 296 357.977C313.121 357.977 327 344.103 327 326.988Z" fill="#41B9D5"/>
<path d="M268.854 327.085C268.854 342.098 281.076 354.316 296.095 354.316C311.114 354.316 323.337 342.098 323.337 327.085C323.337 312.072 311.114 299.853 296.095 299.853C281.076 299.838 268.854 312.056 268.854 327.085ZM321.152 327.085C321.152 340.892 309.922 352.117 296.11 352.117C282.299 352.117 271.069 340.892 271.069 327.085C271.069 313.278 282.299 302.053 296.11 302.053C309.922 302.037 321.152 313.278 321.152 327.085Z" fill="#021D45"/>
<path d="M296.246 349.991C308.808 349.991 318.991 339.808 318.991 327.246C318.991 314.684 308.808 304.5 296.246 304.5C283.684 304.5 273.501 314.684 273.501 327.246C273.501 339.808 283.684 349.991 296.246 349.991Z" fill="#021D45"/>
<path d="M296.246 352.518C301.244 352.518 306.131 351.036 310.287 348.259C314.443 345.482 317.682 341.535 319.595 336.917C321.508 332.299 322.008 327.218 321.033 322.315C320.058 317.413 317.651 312.91 314.116 309.375C310.582 305.841 306.079 303.434 301.176 302.459C296.274 301.484 291.193 301.984 286.575 303.897C281.957 305.81 278.01 309.049 275.233 313.205C272.456 317.361 270.973 322.247 270.973 327.246C270.981 333.946 273.646 340.37 278.384 345.108C283.122 349.845 289.546 352.511 296.246 352.518ZM296.246 306.568C300.336 306.568 304.333 307.781 307.734 310.053C311.134 312.325 313.784 315.554 315.349 319.333C316.915 323.111 317.324 327.269 316.526 331.28C315.728 335.291 313.759 338.975 310.867 341.867C307.975 344.759 304.291 346.728 300.28 347.526C296.269 348.324 292.111 347.914 288.333 346.349C284.555 344.784 281.325 342.134 279.053 338.733C276.781 335.333 275.568 331.335 275.568 327.246C275.575 321.764 277.755 316.508 281.632 312.631C285.508 308.755 290.764 306.574 296.246 306.568Z" fill="#021D45"/>
<path d="M295.325 175.89C302.029 179.767 302.029 186.04 295.325 189.894C288.622 193.771 277.731 193.771 271.028 189.894C264.324 186.017 264.324 179.743 271.028 175.89C277.731 172.037 288.622 172.037 295.325 175.89Z" fill="#325C84"/>
<ellipse cx="285.5" cy="183.5" rx="11.5" ry="3.5" fill="#203E6A"/>
<path d="M282 122V181.714C282 182.253 282.27 182.738 282.755 183.007L284.157 183.816C284.238 183.869 284.562 184.031 284.939 184.031C285.316 184.031 285.64 183.843 285.721 183.816L286.88 183.142C287.501 182.792 287.878 182.145 287.878 181.417V122H282Z" fill="#021D45"/>
<circle cx="285" cy="109" r="39" fill="#166780"/>
<path d="M316 108.988C316 91.8739 302.121 77.9998 285 77.9998C267.879 77.9998 254 91.8739 254 108.988C254 126.103 267.879 139.977 285 139.977C302.121 139.977 316 126.103 316 108.988Z" fill="#41B9D5"/>
<path d="M257.854 109.085C257.854 124.098 270.076 136.316 285.095 136.316C300.114 136.316 312.337 124.098 312.337 109.085C312.337 94.0717 300.114 81.8534 285.095 81.8534C270.076 81.8381 257.854 94.0564 257.854 109.085ZM310.152 109.085C310.152 122.892 298.922 134.117 285.11 134.117C271.299 134.117 260.069 122.892 260.069 109.085C260.069 95.2782 271.299 84.0527 285.11 84.0527C298.922 84.0374 310.152 95.2782 310.152 109.085Z" fill="#021D45"/>
<path d="M285.246 131.991C297.808 131.991 307.991 121.808 307.991 109.246C307.991 96.6839 297.808 86.5005 285.246 86.5005C272.684 86.5005 262.501 96.6839 262.501 109.246C262.501 121.808 272.684 131.991 285.246 131.991Z" fill="#021D45"/>
<path d="M285.246 134.518C290.244 134.518 295.131 133.036 299.287 130.259C303.443 127.482 306.682 123.535 308.595 118.917C310.508 114.299 311.008 109.218 310.033 104.315C309.058 99.4128 306.651 94.9097 303.116 91.3753C299.582 87.8409 295.079 85.4339 290.176 84.4588C285.274 83.4836 280.193 83.9841 275.575 85.8969C270.957 87.8097 267.01 91.049 264.233 95.205C261.456 99.361 259.973 104.247 259.973 109.246C259.981 115.946 262.646 122.37 267.384 127.108C272.122 131.845 278.546 134.511 285.246 134.518ZM285.246 88.5682C289.336 88.5682 293.333 89.7809 296.734 92.0529C300.134 94.325 302.784 97.5544 304.349 101.333C305.915 105.111 306.324 109.269 305.526 113.28C304.728 117.291 302.759 120.975 299.867 123.867C296.975 126.759 293.291 128.728 289.28 129.526C285.269 130.324 281.111 129.914 277.333 128.349C273.555 126.784 270.325 124.134 268.053 120.733C265.781 117.333 264.568 113.335 264.568 109.246C264.575 103.764 266.755 98.5078 270.632 94.6314C274.508 90.755 279.764 88.5744 285.246 88.5682Z" fill="#021D45"/>
<path d="M340.586 86.7947C340.586 83.3353 343.415 80.5367 346.886 80.5866C350.248 80.635 352.982 83.3922 353.003 86.7546C353.015 88.6375 352.189 90.3275 350.875 91.4739C350.737 91.5948 350.757 91.8156 350.915 91.9092L352.085 92.6014C352.274 92.7133 352.195 93.0033 351.975 93.0032L346.677 93.0019C343.302 92.9392 340.586 90.1844 340.586 86.7947V86.7947Z" fill="#7ACAA6"/>
<path d="M352.085 92.6015L350.915 91.9093C350.757 91.8161 350.735 91.5957 350.873 91.4754C352.202 90.3169 353.033 88.6024 353.003 86.6943C352.951 83.3939 350.279 80.6848 346.98 80.5886C346.512 80.575 346.055 80.6133 345.615 80.6979C348.467 81.2446 350.641 83.7585 350.66 86.7546C350.669 88.2057 350.18 89.5421 349.354 90.6034C348.856 91.2442 349.018 92.1736 349.716 92.5871L349.741 92.6015C349.928 92.7122 349.852 92.9966 349.638 93.0028L351.975 93.0033C352.195 93.0034 352.274 92.7135 352.085 92.6015V92.6015Z" fill="#57BE92"/>
<path d="M370.838 103.122H356.753C353.236 103.122 351.31 99.0227 353.557 96.3159L353.682 96.1653C354.672 94.9728 355.214 93.4717 355.214 91.9219V89.2059C355.214 84.4452 359.073 80.5859 363.834 80.5859C368.594 80.5859 372.454 84.4452 372.454 89.2058V92.0136C372.454 93.5796 373.007 95.0953 374.015 96.2932C376.29 98.9946 374.37 103.122 370.838 103.122Z" fill="#C59191"/>
<path d="M378.242 110.102V119.414H349.349V110.173C349.349 108.08 350.603 106.192 352.532 105.38L357.195 103.352L358.766 102.67C359.958 102.152 360.729 100.977 360.729 99.6773V99.0742H366.863V99.6461C366.863 100.952 367.641 102.131 368.841 102.645L375.149 105.349C377.03 106.183 378.242 108.046 378.242 110.102V110.102Z" fill="white"/>
<path d="M357.195 105.573C358.787 106.049 361.13 106.556 363.986 106.506C366.666 106.459 368.866 105.938 370.396 105.449L371.157 103.638L368.841 102.646C367.641 102.131 366.863 100.952 366.863 99.6462V99.0747H360.729V99.6773C360.729 100.977 359.958 102.152 358.766 102.67L356.89 103.486L357.195 105.573Z" fill="#FFCEBF"/>
<path d="M375.15 105.349L370.397 103.312L370.397 103.313V119.414H378.242V110.102C378.242 108.046 377.03 106.182 375.15 105.349V105.349Z" fill="#8795DE"/>
<path d="M357.195 103.353V119.414H349.349V110.173C349.349 108.081 350.603 106.192 352.532 105.381L357.195 103.353Z" fill="#8795DE"/>
<path d="M365.539 97.8248H364.166C363.541 97.8248 363.034 97.3182 363.034 96.6932C363.034 96.0682 363.541 95.5615 364.166 95.5615H365.539C366.164 95.5615 366.67 96.0682 366.67 96.6932C366.67 97.3182 366.164 97.8248 365.539 97.8248Z" fill="white"/>
<path d="M364.165 96.1475C363.864 96.1475 363.62 96.3923 363.62 96.6932C363.62 96.994 363.865 97.2389 364.165 97.2389H365.539C365.839 97.2389 366.084 96.994 366.084 96.6932C366.084 96.3923 365.839 96.1475 365.539 96.1475H364.165Z" fill="#0F3061"/>
<path d="M363.796 110.311C364.108 110.311 364.362 110.058 364.362 109.745C364.362 109.433 364.108 109.179 363.796 109.179C363.483 109.179 363.23 109.433 363.23 109.745C363.23 110.058 363.483 110.311 363.796 110.311Z" fill="#0F3061"/>
<path d="M365.922 102.442C366.628 102.442 367.3 102.3 367.913 102.044C367.256 101.437 366.863 100.574 366.863 99.6462V99.0747H360.728V99.6773C360.728 100.147 360.627 100.6 360.443 101.012C361.372 101.897 362.628 102.442 364.013 102.442H365.922Z" fill="#FFB09E"/>
<path d="M369.927 89.8458V94.9207C369.927 97.7797 367.609 100.097 364.75 100.097H362.841C359.982 100.097 357.664 97.7797 357.664 94.9207V89.8458C357.664 87.9858 359.172 86.478 361.032 86.478H366.559C368.419 86.4781 369.927 87.9858 369.927 89.8458Z" fill="#FFCEBF"/>
<path d="M365.538 97.8248H364.165C363.54 97.8248 363.034 97.3182 363.034 96.6932C363.034 96.0682 363.54 95.5615 364.165 95.5615H365.538C366.163 95.5615 366.67 96.0682 366.67 96.6932C366.67 97.3182 366.163 97.8248 365.538 97.8248Z" fill="#685E68"/>
<path d="M365.019 85.1352C365.15 83.477 366.738 82.3766 368.257 81.8066C370.771 83.3127 372.453 86.0625 372.453 89.2056V89.7982C372.314 89.8273 372.176 89.8529 372.039 89.8733C371.202 89.9983 370.489 89.9442 370.003 89.8733C366.865 89.4552 364.86 87.1378 365.019 85.1352V85.1352Z" fill="#B98080"/>
<path d="M363.834 80.5859C365.78 80.5859 367.576 81.2316 369.019 82.3199C368.299 83.5725 366.646 86.049 363.547 87.8823C361.246 89.2434 359.076 89.7008 357.74 89.8735H355.214V89.2058C355.214 84.4452 359.073 80.5859 363.834 80.5859Z" fill="#C59191"/>
<path d="M373.469 119.414H354.713L353.678 109.655C353.605 108.963 354.147 108.359 354.843 108.359H373.339C374.035 108.359 374.577 108.963 374.504 109.655L373.469 119.414Z" fill="#EFEDEF"/>
<path d="M373.339 108.359H370.995C371.691 108.359 372.234 108.963 372.16 109.655L371.126 119.414H373.469L374.504 109.655C374.577 108.963 374.035 108.359 373.339 108.359Z" fill="#E5E1E5"/>
<path d="M379.414 120H340.586C340.262 120 340 119.738 340 119.414C340 119.09 340.262 118.828 340.586 118.828H379.414C379.738 118.828 380 119.09 380 119.414C380 119.738 379.738 120 379.414 120Z" fill="#C9BFC8"/>
<path d="M364.091 115.527C364.997 115.527 365.732 114.793 365.732 113.887C365.732 112.981 364.997 112.246 364.091 112.246C363.185 112.246 362.451 112.981 362.451 113.887C362.451 114.793 363.185 115.527 364.091 115.527Z" fill="#C9BFC8"/>
<path d="M349.139 87.3806C349.462 87.3806 349.724 87.1182 349.724 86.7946C349.724 86.471 349.462 86.2087 349.139 86.2087C348.815 86.2087 348.553 86.471 348.553 86.7946C348.553 87.1182 348.815 87.3806 349.139 87.3806ZM344.451 87.3806C344.775 87.3806 345.037 87.1182 345.037 86.7946C345.037 86.471 344.775 86.2087 344.451 86.2087C344.127 86.2087 343.865 86.471 343.865 86.7946C343.865 87.1182 344.127 87.3806 344.451 87.3806ZM346.795 87.3806C347.118 87.3806 347.381 87.1182 347.381 86.7946C347.381 86.471 347.118 86.2087 346.795 86.2087C346.471 86.2087 346.209 86.471 346.209 86.7946C346.209 87.1182 346.471 87.3806 346.795 87.3806ZM346.666 93.5878C346.67 93.5879 346.673 93.5879 346.677 93.5879L351.975 93.5892H351.975C352.341 93.5892 352.652 93.3521 352.748 92.9991C352.845 92.646 352.698 92.2836 352.383 92.0973L351.577 91.6206C352.872 90.337 353.601 88.5858 353.589 86.7509C353.566 83.0816 350.563 80.0535 346.895 80.0007C343.093 79.9461 340 83.0209 340 86.7948C340 90.4138 342.982 93.5095 346.666 93.5878V93.5878ZM342.848 82.7901C343.928 81.7251 345.356 81.1513 346.878 81.1724C349.913 81.2161 352.398 83.7219 352.417 86.7583C352.428 88.3965 351.725 89.9544 350.49 91.0324C350.283 91.2125 350.175 91.4829 350.2 91.7556C350.225 92.0282 350.381 92.2741 350.616 92.4134L350.622 92.4169L346.683 92.4159C343.637 92.3575 341.172 89.8486 341.172 86.7948C341.172 85.2775 341.767 83.8553 342.848 82.7901V82.7901ZM379.414 118.828H378.828V110.102C378.828 107.816 377.477 105.74 375.38 104.811L372.292 103.487C373.044 103.25 373.722 102.827 374.275 102.241C375.108 101.356 375.586 100.155 375.586 98.947C375.586 97.8365 375.198 96.7884 374.464 95.9156C373.546 94.8252 373.04 93.4395 373.04 92.0134V89.2056C373.04 86.7463 372.082 84.4348 370.343 82.6967C368.604 80.9577 366.292 80 363.834 80C358.758 80 354.628 84.1295 354.628 89.2055V91.9219C354.629 93.3975 354.049 94.806 353.106 95.9414C351.92 97.3703 351.674 99.3023 352.463 100.983C353.049 102.231 354.106 103.128 355.371 103.507L352.305 104.84C350.154 105.746 348.763 107.839 348.763 110.173V117.07C348.763 117.394 349.026 117.656 349.349 117.656C349.673 117.656 349.935 117.394 349.935 117.07V110.173C349.935 108.312 351.044 106.643 352.766 105.918L356.609 104.246V105.577V105.581V107.773H354.844C354.346 107.773 353.87 107.986 353.537 108.356C353.204 108.726 353.043 109.222 353.096 109.716L354.061 118.828H340.586C340.262 118.828 340 119.09 340 119.414C340 119.738 340.262 120 340.586 120H354.711H354.717H373.469H373.47H373.471H379.414C379.738 120 380 119.738 380 119.414C380 119.09 379.738 118.828 379.414 118.828V118.828ZM373.567 96.6702C374.121 97.3288 374.414 98.116 374.414 98.9469C374.414 99.8599 374.052 100.768 373.422 101.437C372.754 102.146 371.836 102.537 370.838 102.537H370.075L369.072 102.107C368.196 101.731 367.596 100.925 367.474 99.9982C369.282 99.0248 370.513 97.1143 370.513 94.9211V90.5162C370.685 90.5278 370.856 90.5342 371.027 90.5342C371.309 90.5342 371.59 90.5181 371.868 90.4866V92.0133C371.868 93.7152 372.472 95.3691 373.567 96.6702V96.6702ZM363.976 105.92C361.88 105.957 359.799 105.692 357.781 105.132V103.737L357.951 103.663C357.952 103.663 357.953 103.662 357.955 103.661L359 103.207C360.164 102.701 360.986 101.665 361.235 100.454C361.745 100.603 362.284 100.684 362.841 100.684H364.751C365.31 100.684 365.851 100.602 366.363 100.453C366.62 101.658 367.446 102.685 368.61 103.184L369.726 103.662C369.726 103.662 369.727 103.663 369.728 103.663L369.81 103.698V105.017C367.914 105.582 365.954 105.886 363.976 105.92V105.92ZM369.81 106.237V107.774H357.781V106.345C359.681 106.843 361.631 107.095 363.595 107.095C363.729 107.095 363.862 107.094 363.996 107.092C365.964 107.058 367.916 106.77 369.81 106.237V106.237ZM371.868 89.305C370.254 89.5231 368.435 89.0907 367.181 88.1195C366.926 87.9214 366.557 87.968 366.359 88.2238C366.161 88.4796 366.208 88.8477 366.464 89.0459C367.283 89.6807 368.271 90.1279 369.341 90.3534V93.5433C369.06 94.185 368.746 94.7187 368.04 95.3016C367.742 95.5471 367.417 95.7509 367.068 95.9127C366.783 95.357 366.205 94.9756 365.539 94.9756H364.166C363.219 94.9756 362.448 95.7461 362.448 96.6931C362.448 97.6402 363.219 98.4107 364.166 98.4107H365.539C366.336 98.4107 367.008 97.8649 367.201 97.1276C367.984 96.8289 369.262 95.7634 369.263 95.7631C368.866 97.8933 366.994 99.5115 364.751 99.5115H362.841C360.31 99.5115 358.251 97.4522 358.251 94.9209V90.3916C360.241 90.0797 362.121 89.4063 363.845 88.3864C366.47 86.8335 368.154 84.8043 369.171 83.2011C370.91 84.7498 371.899 86.97 371.868 89.305V89.305ZM366.084 96.6948C366.083 96.995 365.839 97.239 365.539 97.239H364.166C363.865 97.239 363.62 96.9941 363.62 96.6933C363.62 96.3924 363.865 96.1476 364.166 96.1476H365.539C365.839 96.1476 366.083 96.3914 366.084 96.6915V96.6948ZM355.8 89.2055C355.8 84.7757 359.404 81.1719 363.834 81.1719C365.422 81.1719 366.94 81.6305 368.238 82.4842C367.302 83.9834 365.728 85.9112 363.249 87.3781C361.547 88.3843 359.681 89.0267 357.702 89.2875H357.666C357.665 89.2875 357.665 89.2875 357.665 89.2875C357.665 89.2875 357.664 89.2875 357.664 89.2875H355.8V89.2055ZM353.524 100.485C352.93 99.2197 353.115 97.7654 354.007 96.6907C355.127 95.3422 355.801 93.6759 355.8 91.9219V90.4594H357.079V94.9211C357.079 97.1156 358.312 99.027 360.122 99.9998C360.009 100.934 359.411 101.75 358.533 102.132L357.602 102.537H356.753C355.355 102.537 354.118 101.751 353.524 100.485V100.485ZM373.921 109.593L372.942 118.828H355.24L354.261 109.593C354.243 109.426 354.295 109.265 354.408 109.139C354.52 109.014 354.675 108.945 354.844 108.945H373.339C373.507 108.945 373.662 109.014 373.774 109.139C373.887 109.265 373.939 109.426 373.921 109.593V109.593ZM377.656 118.828H374.121L375.087 109.717C375.139 109.222 374.978 108.726 374.645 108.356C374.313 107.986 373.836 107.774 373.339 107.774H370.982V105.457C370.982 105.45 370.982 105.443 370.982 105.436V104.201L374.912 105.885C376.579 106.624 377.656 108.279 377.656 110.102V118.828ZM364.091 111.66C362.863 111.66 361.864 112.659 361.864 113.887C361.864 115.114 362.863 116.113 364.091 116.113C365.319 116.113 366.318 115.114 366.318 113.887C366.318 112.659 365.319 111.66 364.091 111.66ZM364.091 114.941C363.509 114.941 363.036 114.468 363.036 113.887C363.036 113.305 363.509 112.832 364.091 112.832C364.673 112.832 365.146 113.305 365.146 113.887C365.146 114.468 364.673 114.941 364.091 114.941Z" fill="#0F3061"/>
<path d="M350.061 137.089C349.955 136.744 349.808 136.435 349.62 136.163C349.437 135.886 349.215 135.649 348.955 135.453C348.7 135.257 348.406 135.11 348.073 135.012C347.741 134.91 347.379 134.859 346.987 134.859C346.283 134.859 345.657 135.036 345.107 135.389C344.558 135.743 344.125 136.263 343.81 136.949C343.499 137.631 343.343 138.462 343.343 139.442C343.343 140.43 343.499 141.268 343.81 141.954C344.121 142.64 344.553 143.162 345.107 143.52C345.661 143.874 346.305 144.05 347.038 144.05C347.702 144.05 348.278 143.923 348.763 143.667C349.254 143.411 349.631 143.049 349.895 142.58C350.159 142.107 350.291 141.553 350.291 140.918L350.828 141.001H347.274V139.148H352.586V140.72C352.586 141.841 352.347 142.81 351.87 143.629C351.393 144.447 350.737 145.077 349.901 145.521C349.066 145.96 348.107 146.179 347.025 146.179C345.819 146.179 344.76 145.908 343.848 145.367C342.94 144.822 342.231 144.048 341.719 143.047C341.212 142.041 340.959 140.848 340.959 139.467C340.959 138.411 341.108 137.467 341.406 136.636C341.709 135.805 342.131 135.099 342.672 134.52C343.213 133.936 343.848 133.493 344.577 133.19C345.305 132.884 346.098 132.73 346.955 132.73C347.679 132.73 348.354 132.837 348.981 133.05C349.607 133.259 350.163 133.557 350.649 133.945C351.139 134.332 351.542 134.793 351.857 135.325C352.173 135.858 352.379 136.446 352.477 137.089H350.061ZM359.123 146.192C358.139 146.192 357.289 145.987 356.573 145.578C355.861 145.165 355.314 144.581 354.93 143.827C354.547 143.068 354.355 142.175 354.355 141.148C354.355 140.138 354.547 139.252 354.93 138.489C355.318 137.722 355.859 137.126 356.554 136.7C357.248 136.269 358.064 136.054 359.002 136.054C359.607 136.054 360.178 136.152 360.715 136.348C361.256 136.54 361.733 136.838 362.147 137.243C362.564 137.648 362.893 138.163 363.131 138.79C363.37 139.412 363.489 140.153 363.489 141.014V141.724H355.442V140.164H361.271C361.267 139.721 361.171 139.327 360.983 138.982C360.796 138.632 360.534 138.357 360.197 138.157C359.865 137.957 359.477 137.857 359.034 137.857C358.561 137.857 358.145 137.972 357.787 138.202C357.43 138.428 357.15 138.726 356.95 139.097C356.754 139.463 356.654 139.866 356.65 140.305V141.666C356.65 142.237 356.754 142.727 356.963 143.136C357.172 143.541 357.464 143.852 357.839 144.07C358.214 144.283 358.653 144.389 359.155 144.389C359.492 144.389 359.797 144.342 360.069 144.249C360.342 144.151 360.579 144.008 360.779 143.82C360.979 143.633 361.131 143.401 361.233 143.124L363.393 143.366C363.257 143.937 362.997 144.436 362.613 144.862C362.234 145.284 361.748 145.612 361.156 145.847C360.564 146.077 359.886 146.192 359.123 146.192ZM370.349 136.182V137.972H364.705V136.182H370.349ZM366.099 133.83H368.413V143.047C368.413 143.358 368.46 143.597 368.553 143.763C368.651 143.925 368.779 144.036 368.937 144.095C369.094 144.155 369.269 144.185 369.461 144.185C369.606 144.185 369.738 144.174 369.857 144.153C369.981 144.131 370.075 144.112 370.138 144.095L370.528 145.904C370.405 145.947 370.228 145.994 369.998 146.045C369.772 146.096 369.495 146.126 369.167 146.134C368.587 146.151 368.065 146.064 367.601 145.872C367.136 145.676 366.768 145.374 366.495 144.964C366.227 144.555 366.094 144.044 366.099 143.43V133.83ZM375.957 132.909H378.635L381.838 138.7H381.965L385.168 132.909H387.846L383.084 141.116V146H380.719V141.116L375.957 132.909ZM391.878 146.192C390.919 146.192 390.088 145.981 389.385 145.559C388.682 145.137 388.136 144.547 387.749 143.788C387.365 143.03 387.173 142.143 387.173 141.129C387.173 140.115 387.365 139.227 387.749 138.464C388.136 137.701 388.682 137.109 389.385 136.687C390.088 136.265 390.919 136.054 391.878 136.054C392.837 136.054 393.668 136.265 394.371 136.687C395.074 137.109 395.617 137.701 396.001 138.464C396.388 139.227 396.582 140.115 396.582 141.129C396.582 142.143 396.388 143.03 396.001 143.788C395.617 144.547 395.074 145.137 394.371 145.559C393.668 145.981 392.837 146.192 391.878 146.192ZM391.891 144.338C392.411 144.338 392.845 144.195 393.195 143.91C393.544 143.62 393.804 143.232 393.974 142.746C394.149 142.261 394.237 141.719 394.237 141.123C394.237 140.522 394.149 139.979 393.974 139.493C393.804 139.003 393.544 138.613 393.195 138.323C392.845 138.033 392.411 137.888 391.891 137.888C391.358 137.888 390.915 138.033 390.561 138.323C390.212 138.613 389.95 139.003 389.775 139.493C389.604 139.979 389.519 140.522 389.519 141.123C389.519 141.719 389.604 142.261 389.775 142.746C389.95 143.232 390.212 143.62 390.561 143.91C390.915 144.195 391.358 144.338 391.891 144.338ZM404.804 141.871V136.182H407.118V146H404.874V144.255H404.772C404.551 144.805 404.186 145.254 403.679 145.604C403.176 145.953 402.556 146.128 401.819 146.128C401.176 146.128 400.607 145.985 400.112 145.7C399.622 145.41 399.239 144.99 398.962 144.44C398.685 143.886 398.546 143.217 398.546 142.433V136.182H400.86V142.075C400.86 142.697 401.031 143.192 401.372 143.558C401.713 143.925 402.16 144.108 402.714 144.108C403.055 144.108 403.385 144.025 403.705 143.859C404.024 143.692 404.286 143.445 404.491 143.117C404.7 142.785 404.804 142.369 404.804 141.871ZM409.498 146V136.182H411.741V137.818H411.843C412.022 137.251 412.329 136.815 412.764 136.508C413.203 136.197 413.703 136.041 414.266 136.041C414.394 136.041 414.537 136.048 414.694 136.06C414.856 136.069 414.99 136.084 415.097 136.105V138.234C414.999 138.2 414.843 138.17 414.63 138.144C414.422 138.114 414.219 138.099 414.023 138.099C413.601 138.099 413.222 138.191 412.885 138.374C412.553 138.553 412.291 138.803 412.099 139.122C411.907 139.442 411.811 139.81 411.811 140.228V146H409.498ZM422.882 146H420.351L424.96 132.909H427.887L432.502 146H429.971L426.475 135.594H426.373L422.882 146ZM422.966 140.867H429.869V142.772H422.966V140.867ZM440.075 138.502V140.407H434.182V138.502H440.075ZM441.228 134.897V132.909H451.672V134.897H447.626V146H445.274V134.897H441.228ZM456.506 146.192C455.522 146.192 454.672 145.987 453.956 145.578C453.244 145.165 452.697 144.581 452.313 143.827C451.93 143.068 451.738 142.175 451.738 141.148C451.738 140.138 451.93 139.252 452.313 138.489C452.701 137.722 453.242 137.126 453.937 136.7C454.631 136.269 455.447 136.054 456.385 136.054C456.99 136.054 457.561 136.152 458.098 136.348C458.639 136.54 459.116 136.838 459.53 137.243C459.947 137.648 460.275 138.163 460.514 138.79C460.753 139.412 460.872 140.153 460.872 141.014V141.724H452.824V140.164H458.654C458.65 139.721 458.554 139.327 458.366 138.982C458.179 138.632 457.917 138.357 457.58 138.157C457.248 137.957 456.86 137.857 456.417 137.857C455.944 137.857 455.528 137.972 455.17 138.202C454.812 138.428 454.533 138.726 454.333 139.097C454.137 139.463 454.037 139.866 454.032 140.305V141.666C454.032 142.237 454.137 142.727 454.346 143.136C454.555 143.541 454.846 143.852 455.221 144.07C455.596 144.283 456.035 144.389 456.538 144.389C456.875 144.389 457.18 144.342 457.452 144.249C457.725 144.151 457.961 144.008 458.162 143.82C458.362 143.633 458.513 143.401 458.616 143.124L460.776 143.366C460.64 143.937 460.38 144.436 459.996 144.862C459.617 145.284 459.131 145.612 458.539 145.847C457.947 146.077 457.269 146.192 456.506 146.192ZM465.655 146.198C465.033 146.198 464.472 146.087 463.974 145.866C463.479 145.64 463.087 145.308 462.798 144.869C462.512 144.43 462.369 143.888 462.369 143.245C462.369 142.691 462.472 142.233 462.676 141.871C462.881 141.509 463.16 141.219 463.513 141.001C463.867 140.784 464.266 140.62 464.709 140.509C465.156 140.394 465.619 140.311 466.096 140.26C466.671 140.2 467.138 140.147 467.496 140.1C467.854 140.049 468.114 139.972 468.276 139.87C468.442 139.763 468.525 139.599 468.525 139.378V139.339C468.525 138.858 468.382 138.485 468.097 138.221C467.811 137.957 467.4 137.825 466.863 137.825C466.296 137.825 465.847 137.948 465.514 138.195C465.186 138.442 464.964 138.734 464.849 139.071L462.689 138.764C462.859 138.168 463.141 137.669 463.533 137.268C463.925 136.864 464.404 136.561 464.971 136.361C465.538 136.156 466.164 136.054 466.85 136.054C467.323 136.054 467.794 136.109 468.263 136.22C468.732 136.331 469.16 136.514 469.548 136.77C469.935 137.021 470.246 137.364 470.481 137.799C470.719 138.234 470.839 138.777 470.839 139.429V146H468.614V144.651H468.538C468.397 144.924 468.199 145.18 467.943 145.418C467.692 145.653 467.374 145.842 466.991 145.987C466.612 146.128 466.166 146.198 465.655 146.198ZM466.256 144.498C466.72 144.498 467.123 144.406 467.464 144.223C467.805 144.036 468.067 143.788 468.25 143.482C468.438 143.175 468.531 142.84 468.531 142.478V141.321C468.459 141.381 468.335 141.436 468.161 141.487C467.99 141.538 467.798 141.583 467.585 141.621C467.372 141.66 467.161 141.694 466.952 141.724C466.744 141.754 466.563 141.779 466.409 141.8C466.064 141.847 465.755 141.924 465.482 142.031C465.21 142.137 464.994 142.286 464.837 142.478C464.679 142.665 464.6 142.908 464.6 143.207C464.6 143.633 464.756 143.955 465.067 144.172C465.378 144.389 465.774 144.498 466.256 144.498ZM473.165 146V136.182H475.377V137.85H475.492C475.697 137.288 476.036 136.849 476.509 136.533C476.982 136.214 477.546 136.054 478.202 136.054C478.867 136.054 479.428 136.216 479.884 136.54C480.344 136.859 480.668 137.296 480.855 137.85H480.957C481.175 137.305 481.541 136.87 482.057 136.546C482.577 136.218 483.192 136.054 483.904 136.054C484.808 136.054 485.545 136.339 486.116 136.911C486.687 137.482 486.972 138.315 486.972 139.41V146H484.652V139.768C484.652 139.158 484.49 138.713 484.166 138.432C483.842 138.146 483.446 138.004 482.977 138.004C482.419 138.004 481.982 138.178 481.667 138.528C481.356 138.873 481.2 139.322 481.2 139.876V146H478.931V139.672C478.931 139.165 478.778 138.76 478.471 138.457C478.168 138.155 477.772 138.004 477.282 138.004C476.95 138.004 476.647 138.089 476.374 138.259C476.102 138.425 475.884 138.662 475.722 138.969C475.56 139.271 475.479 139.625 475.479 140.03V146H473.165ZM352.989 161.455C352.989 162.865 352.724 164.073 352.196 165.079C351.672 166.08 350.956 166.847 350.048 167.38C349.145 167.913 348.12 168.179 346.974 168.179C345.827 168.179 344.8 167.913 343.893 167.38C342.989 166.843 342.273 166.074 341.745 165.072C341.221 164.067 340.959 162.861 340.959 161.455C340.959 160.044 341.221 158.838 341.745 157.837C342.273 156.831 342.989 156.062 343.893 155.529C344.8 154.996 345.827 154.73 346.974 154.73C348.12 154.73 349.145 154.996 350.048 155.529C350.956 156.062 351.672 156.831 352.196 157.837C352.724 158.838 352.989 160.044 352.989 161.455ZM350.604 161.455C350.604 160.462 350.449 159.624 350.138 158.942C349.831 158.256 349.405 157.739 348.859 157.389C348.314 157.036 347.685 156.859 346.974 156.859C346.262 156.859 345.634 157.036 345.088 157.389C344.543 157.739 344.114 158.256 343.803 158.942C343.496 159.624 343.343 160.462 343.343 161.455C343.343 162.447 343.496 163.287 343.803 163.973C344.114 164.655 344.543 165.173 345.088 165.526C345.634 165.876 346.262 166.05 346.974 166.05C347.685 166.05 348.314 165.876 348.859 165.526C349.405 165.173 349.831 164.655 350.138 163.973C350.449 163.287 350.604 162.447 350.604 161.455ZM360.101 158.182V159.972H354.297V158.182H360.101ZM355.748 168V157.255C355.748 156.594 355.885 156.045 356.157 155.606C356.434 155.167 356.805 154.839 357.27 154.621C357.734 154.404 358.25 154.295 358.817 154.295C359.217 154.295 359.573 154.327 359.884 154.391C360.195 154.455 360.425 154.513 360.574 154.564L360.114 156.354C360.016 156.324 359.893 156.294 359.743 156.264C359.594 156.23 359.428 156.213 359.245 156.213C358.814 156.213 358.51 156.317 358.331 156.526C358.156 156.731 358.069 157.025 358.069 157.408V168H355.748ZM371.051 168.179C370.131 168.179 369.312 168.021 368.596 167.706C367.885 167.391 367.322 166.952 366.909 166.389C366.496 165.827 366.276 165.177 366.251 164.44H368.654C368.675 164.793 368.792 165.102 369.006 165.366C369.219 165.626 369.502 165.829 369.856 165.974C370.209 166.119 370.606 166.191 371.045 166.191C371.513 166.191 371.929 166.11 372.291 165.948C372.653 165.782 372.937 165.552 373.141 165.258C373.346 164.964 373.446 164.625 373.442 164.241C373.446 163.845 373.344 163.496 373.135 163.193C372.926 162.891 372.623 162.654 372.227 162.484C371.835 162.313 371.362 162.228 370.808 162.228H369.651V160.4H370.808C371.264 160.4 371.662 160.321 372.003 160.163C372.349 160.006 372.619 159.784 372.815 159.499C373.011 159.209 373.107 158.874 373.103 158.495C373.107 158.124 373.024 157.803 372.854 157.53C372.687 157.253 372.451 157.038 372.144 156.884C371.841 156.731 371.486 156.654 371.077 156.654C370.676 156.654 370.305 156.727 369.964 156.871C369.623 157.016 369.349 157.223 369.14 157.491C368.931 157.756 368.82 158.071 368.807 158.438H366.525C366.542 157.705 366.753 157.061 367.158 156.507C367.567 155.949 368.113 155.514 368.795 155.203C369.476 154.888 370.241 154.73 371.089 154.73C371.963 154.73 372.721 154.894 373.365 155.222C374.013 155.546 374.513 155.983 374.867 156.533C375.221 157.082 375.398 157.69 375.398 158.354C375.402 159.092 375.184 159.71 374.746 160.208C374.311 160.707 373.74 161.033 373.032 161.186V161.288C373.953 161.416 374.658 161.757 375.148 162.311C375.643 162.861 375.888 163.545 375.883 164.363C375.883 165.096 375.675 165.752 375.257 166.332C374.844 166.907 374.273 167.359 373.544 167.687C372.819 168.015 371.988 168.179 371.051 168.179ZM393.875 159.326H391.485C391.417 158.934 391.291 158.587 391.108 158.284C390.924 157.977 390.696 157.717 390.424 157.504C390.151 157.291 389.84 157.131 389.49 157.025C389.145 156.914 388.772 156.859 388.372 156.859C387.66 156.859 387.029 157.038 386.48 157.396C385.93 157.749 385.5 158.269 385.189 158.955C384.877 159.637 384.722 160.47 384.722 161.455C384.722 162.456 384.877 163.3 385.189 163.986C385.504 164.668 385.934 165.183 386.48 165.533C387.029 165.878 387.658 166.05 388.365 166.05C388.757 166.05 389.124 165.999 389.465 165.897C389.81 165.79 390.119 165.635 390.392 165.43C390.669 165.226 390.901 164.974 391.088 164.676C391.28 164.378 391.412 164.037 391.485 163.653L393.875 163.666C393.786 164.288 393.592 164.872 393.294 165.418C393 165.963 392.614 166.445 392.137 166.862C391.659 167.276 391.101 167.599 390.462 167.834C389.823 168.064 389.113 168.179 388.333 168.179C387.183 168.179 386.156 167.913 385.252 167.38C384.349 166.847 383.637 166.078 383.118 165.072C382.598 164.067 382.338 162.861 382.338 161.455C382.338 160.044 382.6 158.838 383.124 157.837C383.648 156.831 384.362 156.062 385.265 155.529C386.169 154.996 387.191 154.73 388.333 154.73C389.062 154.73 389.74 154.832 390.366 155.037C390.993 155.241 391.551 155.542 392.041 155.938C392.531 156.33 392.934 156.812 393.249 157.383C393.569 157.95 393.777 158.597 393.875 159.326ZM400.227 168.192C399.269 168.192 398.438 167.981 397.735 167.559C397.031 167.137 396.486 166.547 396.098 165.788C395.715 165.03 395.523 164.143 395.523 163.129C395.523 162.115 395.715 161.227 396.098 160.464C396.486 159.701 397.031 159.109 397.735 158.687C398.438 158.265 399.269 158.054 400.227 158.054C401.186 158.054 402.017 158.265 402.72 158.687C403.423 159.109 403.967 159.701 404.35 160.464C404.738 161.227 404.932 162.115 404.932 163.129C404.932 164.143 404.738 165.03 404.35 165.788C403.967 166.547 403.423 167.137 402.72 167.559C402.017 167.981 401.186 168.192 400.227 168.192ZM400.24 166.338C400.76 166.338 401.195 166.195 401.544 165.91C401.894 165.62 402.154 165.232 402.324 164.746C402.499 164.261 402.586 163.719 402.586 163.123C402.586 162.522 402.499 161.979 402.324 161.493C402.154 161.003 401.894 160.613 401.544 160.323C401.195 160.033 400.76 159.888 400.24 159.888C399.708 159.888 399.264 160.033 398.911 160.323C398.561 160.613 398.299 161.003 398.124 161.493C397.954 161.979 397.869 162.522 397.869 163.123C397.869 163.719 397.954 164.261 398.124 164.746C398.299 165.232 398.561 165.62 398.911 165.91C399.264 166.195 399.708 166.338 400.24 166.338ZM409.721 168.198C409.099 168.198 408.539 168.087 408.04 167.866C407.546 167.64 407.154 167.308 406.864 166.869C406.578 166.43 406.436 165.888 406.436 165.245C406.436 164.691 406.538 164.233 406.743 163.871C406.947 163.509 407.226 163.219 407.58 163.001C407.934 162.784 408.332 162.62 408.775 162.509C409.223 162.394 409.685 162.311 410.162 162.26C410.738 162.2 411.204 162.147 411.562 162.1C411.92 162.049 412.18 161.972 412.342 161.87C412.508 161.763 412.591 161.599 412.591 161.378V161.339C412.591 160.858 412.449 160.485 412.163 160.221C411.877 159.957 411.466 159.825 410.929 159.825C410.363 159.825 409.913 159.948 409.581 160.195C409.252 160.442 409.031 160.734 408.916 161.071L406.755 160.764C406.926 160.168 407.207 159.669 407.599 159.268C407.991 158.864 408.471 158.561 409.037 158.361C409.604 158.156 410.23 158.054 410.917 158.054C411.39 158.054 411.86 158.109 412.329 158.22C412.798 158.331 413.226 158.514 413.614 158.77C414.002 159.021 414.313 159.364 414.547 159.799C414.786 160.234 414.905 160.777 414.905 161.429V168H412.681V166.651H412.604C412.463 166.924 412.265 167.18 412.01 167.418C411.758 167.653 411.441 167.842 411.057 167.987C410.678 168.128 410.233 168.198 409.721 168.198ZM410.322 166.498C410.787 166.498 411.189 166.406 411.53 166.223C411.871 166.036 412.133 165.788 412.316 165.482C412.504 165.175 412.598 164.84 412.598 164.478V163.321C412.525 163.381 412.402 163.436 412.227 163.487C412.056 163.538 411.865 163.583 411.652 163.621C411.439 163.66 411.228 163.694 411.019 163.724C410.81 163.754 410.629 163.779 410.475 163.8C410.13 163.847 409.821 163.924 409.549 164.031C409.276 164.137 409.061 164.286 408.903 164.478C408.745 164.665 408.667 164.908 408.667 165.207C408.667 165.633 408.822 165.955 409.133 166.172C409.444 166.389 409.841 166.498 410.322 166.498ZM421.515 168.192C420.534 168.192 419.693 167.977 418.99 167.546C418.291 167.116 417.752 166.521 417.373 165.763C416.998 165 416.81 164.122 416.81 163.129C416.81 162.132 417.002 161.252 417.385 160.489C417.769 159.722 418.31 159.126 419.009 158.7C419.712 158.269 420.543 158.054 421.502 158.054C422.299 158.054 423.004 158.201 423.618 158.495C424.235 158.785 424.728 159.196 425.094 159.729C425.461 160.257 425.669 160.875 425.721 161.582H423.509C423.419 161.109 423.206 160.715 422.87 160.4C422.537 160.08 422.092 159.92 421.534 159.92C421.061 159.92 420.645 160.048 420.287 160.304C419.929 160.555 419.65 160.918 419.45 161.391C419.254 161.864 419.156 162.43 419.156 163.091C419.156 163.76 419.254 164.335 419.45 164.817C419.646 165.294 419.921 165.663 420.275 165.923C420.632 166.178 421.052 166.306 421.534 166.306C421.875 166.306 422.179 166.242 422.448 166.114C422.721 165.982 422.949 165.793 423.132 165.545C423.315 165.298 423.441 164.998 423.509 164.644H425.721C425.665 165.339 425.461 165.955 425.107 166.491C424.753 167.024 424.272 167.442 423.662 167.744C423.053 168.043 422.337 168.192 421.515 168.192ZM429.934 162.247V168H427.621V154.909H429.883V159.85H429.998C430.229 159.296 430.584 158.859 431.066 158.54C431.552 158.216 432.17 158.054 432.92 158.054C433.601 158.054 434.196 158.197 434.703 158.482C435.21 158.768 435.602 159.185 435.879 159.735C436.16 160.285 436.301 160.956 436.301 161.749V168H433.987V162.107C433.987 161.446 433.817 160.933 433.476 160.566C433.139 160.195 432.666 160.01 432.057 160.01C431.648 160.01 431.281 160.099 430.957 160.278C430.638 160.453 430.386 160.707 430.203 161.039C430.024 161.371 429.934 161.774 429.934 162.247ZM443.006 168.192C442.022 168.192 441.172 167.987 440.456 167.578C439.744 167.165 439.197 166.581 438.813 165.827C438.43 165.068 438.238 164.175 438.238 163.148C438.238 162.138 438.43 161.252 438.813 160.489C439.201 159.722 439.742 159.126 440.437 158.7C441.131 158.269 441.947 158.054 442.885 158.054C443.49 158.054 444.061 158.152 444.598 158.348C445.139 158.54 445.616 158.838 446.03 159.243C446.447 159.648 446.775 160.163 447.014 160.79C447.253 161.412 447.372 162.153 447.372 163.014V163.724H439.324V162.164H445.154C445.15 161.721 445.054 161.327 444.866 160.982C444.679 160.632 444.417 160.357 444.08 160.157C443.748 159.957 443.36 159.857 442.917 159.857C442.444 159.857 442.028 159.972 441.67 160.202C441.312 160.428 441.033 160.726 440.833 161.097C440.637 161.463 440.537 161.866 440.532 162.305V163.666C440.532 164.237 440.637 164.727 440.846 165.136C441.055 165.541 441.346 165.852 441.721 166.07C442.096 166.283 442.535 166.389 443.038 166.389C443.375 166.389 443.68 166.342 443.952 166.249C444.225 166.151 444.461 166.008 444.662 165.82C444.862 165.633 445.013 165.401 445.116 165.124L447.276 165.366C447.14 165.937 446.88 166.436 446.496 166.862C446.117 167.284 445.631 167.612 445.039 167.847C444.447 168.077 443.769 168.192 443.006 168.192ZM457.089 160.777L454.98 161.007C454.92 160.794 454.816 160.594 454.667 160.406C454.522 160.219 454.326 160.067 454.079 159.952C453.832 159.837 453.529 159.78 453.171 159.78C452.69 159.78 452.285 159.884 451.957 160.093C451.633 160.302 451.473 160.572 451.477 160.905C451.473 161.19 451.577 161.423 451.79 161.602C452.008 161.781 452.366 161.928 452.864 162.043L454.539 162.401C455.468 162.601 456.158 162.918 456.61 163.353C457.066 163.788 457.296 164.357 457.3 165.06C457.296 165.678 457.115 166.223 456.757 166.696C456.403 167.165 455.911 167.531 455.281 167.795C454.65 168.06 453.925 168.192 453.107 168.192C451.906 168.192 450.938 167.94 450.205 167.438C449.472 166.93 449.036 166.225 448.895 165.322L451.151 165.104C451.254 165.548 451.471 165.882 451.803 166.108C452.136 166.334 452.568 166.447 453.101 166.447C453.651 166.447 454.092 166.334 454.424 166.108C454.761 165.882 454.929 165.603 454.929 165.271C454.929 164.989 454.82 164.757 454.603 164.574C454.39 164.391 454.058 164.25 453.606 164.152L451.931 163.8C450.989 163.604 450.293 163.274 449.841 162.81C449.389 162.341 449.165 161.749 449.17 161.033C449.165 160.428 449.33 159.903 449.662 159.46C449.999 159.013 450.465 158.668 451.062 158.425C451.663 158.178 452.355 158.054 453.139 158.054C454.29 158.054 455.195 158.299 455.856 158.789C456.521 159.279 456.932 159.942 457.089 160.777Z" fill="#708092"/>
<path d="M357.208 287.689H369.622V291.827H357.208V287.689Z" fill="#76ACE7"/>
<path d="M365.484 297.345H353.07L357.208 291.828H369.622L365.484 297.345Z" fill="#E0DEDA"/>
<path d="M353.07 297.345H365.484V315.275H353.07V297.345Z" fill="#E0DEDA"/>
<path d="M369.622 291.828L373.76 297.345H365.484L369.622 291.828Z" fill="#E0DEDA"/>
<path d="M365.484 297.345H373.76V315.275H365.484V297.345Z" fill="#E0DEDA"/>
<path d="M353.07 302.862H365.484V315.275H353.07V302.862Z" fill="#A3C7EF"/>
<path d="M379.277 304.241C372.38 298.724 368.242 305.044 368.242 311.138C368.242 317.232 373.759 322.974 379.277 320.215C384.794 322.974 390.311 317.231 390.311 311.138C390.311 305.044 386.173 298.724 379.277 304.241Z" fill="#F28369"/>
<path d="M383.045 298.724C384.364 298.724 385.433 298.106 385.433 297.345C385.433 296.583 384.364 295.965 383.045 295.965C381.725 295.965 380.656 296.583 380.656 297.345C380.656 298.106 381.725 298.724 383.045 298.724Z" fill="#9EC645"/>
<path d="M362.387 317.205C361.235 321.179 362.176 322.888 367.475 324.424C372.774 325.959 388.114 327.534 388.882 324.884C389.65 322.234 375.846 315.361 370.546 313.826C365.247 312.29 363.539 313.23 362.387 317.205V317.205Z" fill="#F9CB8B"/>
<path d="M357.855 313.02C356.531 312.636 352.556 311.484 351.788 314.134C351.021 316.783 354.995 317.935 356.32 318.319C351.577 319.817 352.134 322.85 354.784 323.618C357.433 324.386 362.003 318.53 362.003 318.53L362.771 315.88C362.771 315.88 362.041 308.489 359.391 307.721C356.742 306.953 354.649 309.219 357.855 313.02V313.02Z" fill="#C1D776"/>
<path d="M383.045 299.414C383.649 299.412 384.243 299.253 384.767 298.95C385.291 298.648 385.726 298.213 386.03 297.69C386.091 297.585 386.123 297.466 386.123 297.345C386.123 297.224 386.091 297.104 386.03 296.999C385.727 296.475 385.292 296.04 384.768 295.738C384.244 295.435 383.65 295.276 383.045 295.276C382.439 295.276 381.845 295.435 381.321 295.738C380.797 296.04 380.362 296.475 380.059 296.999C379.998 297.104 379.966 297.224 379.966 297.345C379.966 297.466 379.998 297.585 380.059 297.69C380.363 298.213 380.798 298.648 381.322 298.95C381.846 299.253 382.44 299.412 383.045 299.414V299.414ZM383.045 296.655C383.335 296.656 383.623 296.718 383.888 296.836C384.154 296.955 384.391 297.128 384.585 297.345C384.392 297.562 384.154 297.735 383.889 297.854C383.623 297.973 383.335 298.034 383.045 298.034C382.754 298.034 382.466 297.973 382.201 297.854C381.935 297.735 381.698 297.562 381.504 297.345C381.698 297.128 381.935 296.955 382.201 296.836C382.466 296.718 382.754 296.656 383.045 296.655V296.655Z" fill="#0F3061"/>
<path d="M387.524 321.721C387.07 321.35 386.535 320.953 385.929 320.539C388.925 318.752 391.001 315.002 391.001 311.138C391.001 307.634 389.62 303.436 386.536 301.954C385.261 301.341 383.299 301.023 380.722 302.435C380.599 301.204 380.225 300.174 379.873 299.208C379.207 297.381 378.682 295.939 379.893 293.515L378.66 292.898C377.182 295.853 377.891 297.799 378.577 299.68C378.976 300.774 379.382 301.89 379.379 303.296C379.344 303.321 379.311 303.344 379.276 303.37C377.383 301.962 375.767 301.467 374.449 301.436V297.345C374.448 297.196 374.4 297.051 374.311 296.931L370.311 291.598V287.69C370.311 287.507 370.239 287.331 370.109 287.202C369.98 287.073 369.805 287 369.622 287H357.208C357.025 287 356.85 287.073 356.72 287.202C356.591 287.331 356.518 287.507 356.518 287.69V291.598L352.518 296.931C352.43 297.051 352.381 297.196 352.381 297.345V312.271C351.763 312.645 351.313 313.244 351.126 313.941C350.835 314.946 350.907 316.407 352.903 317.66C353.366 317.944 353.854 318.188 354.36 318.387C352.315 319.499 352.071 320.862 352.078 321.48C352.093 322.743 353.08 323.842 354.592 324.28C354.816 324.344 355.049 324.376 355.283 324.375C356.525 324.375 358.06 323.534 359.856 321.866C360.396 321.365 360.89 320.854 361.304 320.402C361.352 320.786 361.454 321.16 361.608 321.514C362.143 322.729 363.26 323.618 365.23 324.397L365.737 323.115C362.713 321.919 362.11 320.636 363.049 317.396C363.603 315.486 364.242 314.494 365.188 314.08C366.224 313.626 367.817 313.752 370.354 314.487C370.562 314.548 370.783 314.617 371.013 314.692L369.289 320.641L370.614 321.025L372.316 315.152C375.028 316.171 378.624 317.849 381.653 319.539C382.39 319.95 383.047 320.335 383.633 320.696L382.921 323.156L384.245 323.54L384.845 321.471C387.716 323.388 388.294 324.436 388.22 324.692C388.216 324.703 387.724 325.787 381.401 325.599C379.894 325.554 378.234 325.439 376.564 325.27L377.237 322.946L375.913 322.562L375.172 325.117C373.238 324.888 371.345 324.592 369.714 324.255L369.435 325.606C372.93 326.328 377.611 326.866 381.36 326.977C381.875 326.993 382.357 327 382.809 327C388.311 327 389.3 325.92 389.544 325.076C389.815 324.141 389.173 323.075 387.524 321.721V321.721ZM372.38 296.655H366.863L369.622 292.977L372.38 296.655ZM357.898 288.379H368.932V291.138H357.898V288.379ZM357.553 292.517H368.242L365.139 296.655H354.449L357.553 292.517ZM353.76 298.034H364.794V302.172H353.76V298.034ZM361.378 318.209C359.584 320.474 356.469 323.388 354.976 322.955C354.061 322.69 353.465 322.104 353.457 321.463C353.449 320.732 354.25 319.695 356.527 318.976C356.668 318.932 356.792 318.843 356.878 318.723C356.965 318.603 357.011 318.458 357.009 318.31C357.007 318.162 356.958 318.019 356.868 317.901C356.779 317.783 356.654 317.697 356.511 317.656C353.392 316.752 352.063 315.662 352.451 314.325C352.682 313.529 353.379 313.132 354.564 313.132C355.37 313.132 356.401 313.316 357.664 313.682C357.806 313.723 357.958 313.717 358.096 313.666C358.235 313.614 358.354 313.519 358.434 313.395C358.515 313.271 358.553 313.124 358.544 312.977C358.535 312.829 358.478 312.688 358.383 312.575C356.843 310.75 356.72 309.445 357.118 308.832C357.468 308.294 358.285 308.118 359.199 308.383C360.692 308.816 361.766 312.944 362.071 315.817L361.378 318.209ZM364.635 312.817C364.07 313.064 363.572 313.442 363.182 313.92C363.074 313.318 362.93 312.624 362.742 311.912C361.994 309.082 360.931 307.449 359.584 307.058C358.072 306.62 356.65 307.021 355.962 308.08C355.626 308.598 355.103 309.881 356.236 311.913C355.702 311.812 355.16 311.757 354.616 311.749H354.59C354.312 311.748 354.035 311.767 353.76 311.806V303.551H364.794V308.379H366.173V298.034H373.07V301.58C372.707 301.667 372.353 301.793 372.017 301.954C368.933 303.436 367.553 307.634 367.553 311.138C367.553 311.591 367.582 312.044 367.638 312.494C366.398 312.356 365.438 312.466 364.635 312.817ZM384.61 319.679C383.91 319.243 383.145 318.792 382.326 318.334C378.406 316.148 373.533 313.972 370.739 313.163C370.137 312.988 369.582 312.846 369.067 312.734C368.978 312.207 368.933 311.673 368.932 311.138C368.932 307.504 370.446 304.239 372.614 303.197C374.353 302.362 376.507 302.909 378.846 304.78C378.947 304.86 379.07 304.911 379.199 304.924C379.102 305.376 378.975 305.822 378.819 306.257C378.541 306.194 378.279 306.074 378.049 305.905C377.82 305.736 377.627 305.522 377.484 305.275L376.29 305.966C376.593 306.49 377.028 306.925 377.552 307.227C378.077 307.53 378.671 307.689 379.277 307.689C379.882 307.689 380.476 307.53 381.001 307.227C381.525 306.925 381.96 306.49 382.263 305.966L381.069 305.275C380.894 305.576 380.647 305.828 380.349 306.008C380.54 305.365 380.667 304.706 380.73 304.038C382.673 302.778 384.457 302.485 385.939 303.197C388.107 304.239 389.621 307.504 389.621 311.138C389.621 314.736 387.488 318.336 384.61 319.679V319.679Z" fill="#0F3061"/>
<path d="M352.291 353V339.909H354.663V351.012H360.428V353H352.291ZM366.731 353.192C365.746 353.192 364.896 352.987 364.18 352.578C363.469 352.165 362.921 351.581 362.538 350.827C362.154 350.068 361.962 349.175 361.962 348.148C361.962 347.138 362.154 346.252 362.538 345.489C362.925 344.722 363.467 344.126 364.161 343.7C364.856 343.269 365.672 343.054 366.609 343.054C367.214 343.054 367.786 343.152 368.322 343.348C368.864 343.54 369.341 343.838 369.754 344.243C370.172 344.648 370.5 345.163 370.739 345.79C370.977 346.412 371.097 347.153 371.097 348.014V348.724H363.049V347.164H368.879C368.874 346.721 368.778 346.327 368.591 345.982C368.403 345.632 368.141 345.357 367.805 345.157C367.472 344.957 367.085 344.857 366.641 344.857C366.168 344.857 365.753 344.972 365.395 345.202C365.037 345.428 364.758 345.726 364.558 346.097C364.362 346.463 364.261 346.866 364.257 347.305V348.666C364.257 349.237 364.362 349.727 364.57 350.136C364.779 350.541 365.071 350.852 365.446 351.07C365.821 351.283 366.26 351.389 366.763 351.389C367.099 351.389 367.404 351.342 367.677 351.249C367.95 351.151 368.186 351.008 368.386 350.82C368.587 350.633 368.738 350.401 368.84 350.124L371.001 350.366C370.864 350.937 370.604 351.436 370.221 351.862C369.842 352.284 369.356 352.612 368.763 352.847C368.171 353.077 367.494 353.192 366.731 353.192ZM377.957 343.182V344.972H372.313V343.182H377.957ZM373.706 340.83H376.02V350.047C376.02 350.358 376.067 350.597 376.161 350.763C376.259 350.925 376.387 351.036 376.544 351.095C376.702 351.155 376.877 351.185 377.068 351.185C377.213 351.185 377.345 351.174 377.465 351.153C377.588 351.131 377.682 351.112 377.746 351.095L378.136 352.904C378.012 352.947 377.835 352.994 377.605 353.045C377.379 353.096 377.102 353.126 376.774 353.134C376.195 353.151 375.673 353.064 375.208 352.872C374.744 352.676 374.375 352.374 374.102 351.964C373.834 351.555 373.702 351.044 373.706 350.43V340.83ZM383.884 341.897V339.909H394.328V341.897H390.282V353H387.93V341.897H383.884ZM398.554 347.247V353H396.24V339.909H398.502V344.85H398.618C398.848 344.296 399.203 343.859 399.685 343.54C400.171 343.216 400.789 343.054 401.539 343.054C402.221 343.054 402.815 343.197 403.322 343.482C403.829 343.768 404.221 344.185 404.498 344.735C404.779 345.285 404.92 345.956 404.92 346.749V353H402.606V347.107C402.606 346.446 402.436 345.933 402.095 345.566C401.758 345.195 401.285 345.01 400.676 345.01C400.267 345.01 399.9 345.099 399.576 345.278C399.257 345.453 399.005 345.707 398.822 346.039C398.643 346.371 398.554 346.774 398.554 347.247ZM411.625 353.192C410.641 353.192 409.791 352.987 409.075 352.578C408.363 352.165 407.816 351.581 407.432 350.827C407.049 350.068 406.857 349.175 406.857 348.148C406.857 347.138 407.049 346.252 407.432 345.489C407.82 344.722 408.361 344.126 409.056 343.7C409.75 343.269 410.566 343.054 411.504 343.054C412.109 343.054 412.68 343.152 413.217 343.348C413.758 343.54 414.235 343.838 414.649 344.243C415.066 344.648 415.395 345.163 415.633 345.79C415.872 346.412 415.991 347.153 415.991 348.014V348.724H407.944V347.164H413.773C413.769 346.721 413.673 346.327 413.485 345.982C413.298 345.632 413.036 345.357 412.699 345.157C412.367 344.957 411.979 344.857 411.536 344.857C411.063 344.857 410.647 344.972 410.289 345.202C409.931 345.428 409.652 345.726 409.452 346.097C409.256 346.463 409.156 346.866 409.152 347.305V348.666C409.152 349.237 409.256 349.727 409.465 350.136C409.674 350.541 409.966 350.852 410.341 351.07C410.716 351.283 411.154 351.389 411.657 351.389C411.994 351.389 412.299 351.342 412.571 351.249C412.844 351.151 413.081 351.008 413.281 350.82C413.481 350.633 413.632 350.401 413.735 350.124L415.895 350.366C415.759 350.937 415.499 351.436 415.115 351.862C414.736 352.284 414.25 352.612 413.658 352.847C413.066 353.077 412.388 353.192 411.625 353.192ZM417.949 353V343.182H420.16V344.85H420.275C420.48 344.288 420.819 343.849 421.292 343.533C421.765 343.214 422.329 343.054 422.986 343.054C423.65 343.054 424.211 343.216 424.667 343.54C425.127 343.859 425.451 344.296 425.638 344.85H425.741C425.958 344.305 426.324 343.87 426.84 343.546C427.36 343.218 427.976 343.054 428.687 343.054C429.591 343.054 430.328 343.339 430.899 343.911C431.47 344.482 431.756 345.315 431.756 346.41V353H429.435V346.768C429.435 346.158 429.273 345.713 428.949 345.432C428.626 345.146 428.229 345.004 427.76 345.004C427.202 345.004 426.765 345.178 426.45 345.528C426.139 345.873 425.983 346.322 425.983 346.876V353H423.714V346.672C423.714 346.165 423.561 345.76 423.254 345.457C422.952 345.155 422.555 345.004 422.065 345.004C421.733 345.004 421.43 345.089 421.157 345.259C420.885 345.425 420.667 345.662 420.506 345.969C420.344 346.271 420.263 346.625 420.263 347.03V353H417.949ZM440.351 353H437.82L442.429 339.909H445.356L449.971 353H447.44L443.944 342.594H443.841L440.351 353ZM440.434 347.867H447.338V349.772H440.434V347.867ZM459.195 345.777L457.086 346.007C457.026 345.794 456.922 345.594 456.772 345.406C456.627 345.219 456.431 345.067 456.184 344.952C455.937 344.837 455.635 344.78 455.277 344.78C454.795 344.78 454.39 344.884 454.062 345.093C453.738 345.302 453.578 345.572 453.583 345.905C453.578 346.19 453.683 346.423 453.896 346.602C454.113 346.781 454.471 346.928 454.97 347.043L456.645 347.401C457.574 347.601 458.264 347.918 458.716 348.353C459.172 348.788 459.402 349.357 459.406 350.06C459.402 350.678 459.221 351.223 458.863 351.696C458.509 352.165 458.017 352.531 457.386 352.795C456.755 353.06 456.031 353.192 455.213 353.192C454.011 353.192 453.044 352.94 452.311 352.438C451.578 351.93 451.141 351.225 451 350.322L453.257 350.104C453.359 350.548 453.576 350.882 453.909 351.108C454.241 351.334 454.674 351.447 455.206 351.447C455.756 351.447 456.197 351.334 456.529 351.108C456.866 350.882 457.034 350.603 457.034 350.271C457.034 349.989 456.926 349.757 456.708 349.574C456.495 349.391 456.163 349.25 455.711 349.152L454.037 348.8C453.095 348.604 452.398 348.274 451.946 347.81C451.495 347.341 451.271 346.749 451.275 346.033C451.271 345.428 451.435 344.903 451.767 344.46C452.104 344.013 452.571 343.668 453.167 343.425C453.768 343.178 454.461 343.054 455.245 343.054C456.395 343.054 457.301 343.299 457.961 343.789C458.626 344.279 459.037 344.942 459.195 345.777ZM469.074 345.777L466.964 346.007C466.905 345.794 466.8 345.594 466.651 345.406C466.506 345.219 466.31 345.067 466.063 344.952C465.816 344.837 465.513 344.78 465.156 344.78C464.674 344.78 464.269 344.884 463.941 345.093C463.617 345.302 463.457 345.572 463.462 345.905C463.457 346.19 463.562 346.423 463.775 346.602C463.992 346.781 464.35 346.928 464.849 347.043L466.523 347.401C467.452 347.601 468.143 347.918 468.594 348.353C469.05 348.788 469.281 349.357 469.285 350.06C469.281 350.678 469.099 351.223 468.741 351.696C468.388 352.165 467.896 352.531 467.265 352.795C466.634 353.06 465.91 353.192 465.092 353.192C463.89 353.192 462.923 352.94 462.19 352.438C461.457 351.93 461.02 351.225 460.879 350.322L463.136 350.104C463.238 350.548 463.455 350.882 463.788 351.108C464.12 351.334 464.553 351.447 465.085 351.447C465.635 351.447 466.076 351.334 466.408 351.108C466.745 350.882 466.913 350.603 466.913 350.271C466.913 349.989 466.805 349.757 466.587 349.574C466.374 349.391 466.042 349.25 465.59 349.152L463.915 348.8C462.974 348.604 462.277 348.274 461.825 347.81C461.374 347.341 461.15 346.749 461.154 346.033C461.15 345.428 461.314 344.903 461.646 344.46C461.983 344.013 462.45 343.668 463.046 343.425C463.647 343.178 464.339 343.054 465.124 343.054C466.274 343.054 467.18 343.299 467.84 343.789C468.505 344.279 468.916 344.942 469.074 345.777ZM475.539 353.192C474.555 353.192 473.705 352.987 472.989 352.578C472.277 352.165 471.73 351.581 471.346 350.827C470.963 350.068 470.771 349.175 470.771 348.148C470.771 347.138 470.963 346.252 471.346 345.489C471.734 344.722 472.275 344.126 472.97 343.7C473.664 343.269 474.48 343.054 475.418 343.054C476.023 343.054 476.594 343.152 477.131 343.348C477.672 343.54 478.15 343.838 478.563 344.243C478.98 344.648 479.309 345.163 479.547 345.79C479.786 346.412 479.905 347.153 479.905 348.014V348.724H471.858V347.164H477.687C477.683 346.721 477.587 346.327 477.4 345.982C477.212 345.632 476.95 345.357 476.613 345.157C476.281 344.957 475.893 344.857 475.45 344.857C474.977 344.857 474.561 344.972 474.203 345.202C473.846 345.428 473.566 345.726 473.366 346.097C473.17 346.463 473.07 346.866 473.066 347.305V348.666C473.066 349.237 473.17 349.727 473.379 350.136C473.588 350.541 473.88 350.852 474.255 351.07C474.63 351.283 475.069 351.389 475.571 351.389C475.908 351.389 476.213 351.342 476.485 351.249C476.758 351.151 476.995 351.008 477.195 350.82C477.395 350.633 477.547 350.401 477.649 350.124L479.809 350.366C479.673 350.937 479.413 351.436 479.029 351.862C478.65 352.284 478.164 352.612 477.572 352.847C476.98 353.077 476.302 353.192 475.539 353.192ZM489.623 345.777L487.513 346.007C487.454 345.794 487.349 345.594 487.2 345.406C487.055 345.219 486.859 345.067 486.612 344.952C486.365 344.837 486.062 344.78 485.704 344.78C485.223 344.78 484.818 344.884 484.49 345.093C484.166 345.302 484.006 345.572 484.01 345.905C484.006 346.19 484.111 346.423 484.324 346.602C484.541 346.781 484.899 346.928 485.398 347.043L487.072 347.401C488.001 347.601 488.692 347.918 489.143 348.353C489.599 348.788 489.829 349.357 489.834 350.06C489.829 350.678 489.648 351.223 489.29 351.696C488.937 352.165 488.444 352.531 487.814 352.795C487.183 353.06 486.459 353.192 485.64 353.192C484.439 353.192 483.471 352.94 482.738 352.438C482.006 351.93 481.569 351.225 481.428 350.322L483.684 350.104C483.787 350.548 484.004 350.882 484.336 351.108C484.669 351.334 485.101 351.447 485.634 351.447C486.184 351.447 486.625 351.334 486.957 351.108C487.294 350.882 487.462 350.603 487.462 350.271C487.462 349.989 487.354 349.757 487.136 349.574C486.923 349.391 486.591 349.25 486.139 349.152L484.464 348.8C483.523 348.604 482.826 348.274 482.374 347.81C481.922 347.341 481.699 346.749 481.703 346.033C481.699 345.428 481.863 344.903 482.195 344.46C482.532 344.013 482.998 343.668 483.595 343.425C484.196 343.178 484.888 343.054 485.672 343.054C486.823 343.054 487.729 343.299 488.389 343.789C489.054 344.279 489.465 344.942 489.623 345.777ZM499.502 345.777L497.392 346.007C497.333 345.794 497.228 345.594 497.079 345.406C496.934 345.219 496.738 345.067 496.491 344.952C496.244 344.837 495.941 344.78 495.583 344.78C495.102 344.78 494.697 344.884 494.369 345.093C494.045 345.302 493.885 345.572 493.889 345.905C493.885 346.19 493.99 346.423 494.203 346.602C494.42 346.781 494.778 346.928 495.276 347.043L496.951 347.401C497.88 347.601 498.57 347.918 499.022 348.353C499.478 348.788 499.708 349.357 499.713 350.06C499.708 350.678 499.527 351.223 499.169 351.696C498.816 352.165 498.323 352.531 497.693 352.795C497.062 353.06 496.338 353.192 495.519 353.192C494.318 353.192 493.35 352.94 492.617 352.438C491.884 351.93 491.448 351.225 491.307 350.322L493.563 350.104C493.666 350.548 493.883 350.882 494.215 351.108C494.548 351.334 494.98 351.447 495.513 351.447C496.063 351.447 496.504 351.334 496.836 351.108C497.173 350.882 497.341 350.603 497.341 350.271C497.341 349.989 497.232 349.757 497.015 349.574C496.802 349.391 496.47 349.25 496.018 349.152L494.343 348.8C493.401 348.604 492.705 348.274 492.253 347.81C491.801 347.341 491.578 346.749 491.582 346.033C491.578 345.428 491.742 344.903 492.074 344.46C492.411 344.013 492.877 343.668 493.474 343.425C494.075 343.178 494.767 343.054 495.551 343.054C496.702 343.054 497.607 343.299 498.268 343.789C498.933 344.279 499.344 344.942 499.502 345.777ZM351.396 361.909H354.075L357.277 367.7H357.405L360.607 361.909H363.286L358.523 370.116V375H356.158V370.116L351.396 361.909ZM367.317 375.192C366.358 375.192 365.528 374.981 364.824 374.559C364.121 374.137 363.576 373.547 363.188 372.788C362.805 372.03 362.613 371.143 362.613 370.129C362.613 369.115 362.805 368.227 363.188 367.464C363.576 366.701 364.121 366.109 364.824 365.687C365.528 365.265 366.358 365.054 367.317 365.054C368.276 365.054 369.107 365.265 369.81 365.687C370.513 366.109 371.057 366.701 371.44 367.464C371.828 368.227 372.022 369.115 372.022 370.129C372.022 371.143 371.828 372.03 371.44 372.788C371.057 373.547 370.513 374.137 369.81 374.559C369.107 374.981 368.276 375.192 367.317 375.192ZM367.33 373.338C367.85 373.338 368.285 373.195 368.634 372.91C368.983 372.62 369.243 372.232 369.414 371.746C369.589 371.261 369.676 370.719 369.676 370.123C369.676 369.522 369.589 368.979 369.414 368.493C369.243 368.003 368.983 367.613 368.634 367.323C368.285 367.033 367.85 366.888 367.33 366.888C366.797 366.888 366.354 367.033 366.001 367.323C365.651 367.613 365.389 368.003 365.214 368.493C365.044 368.979 364.959 369.522 364.959 370.123C364.959 370.719 365.044 371.261 365.214 371.746C365.389 372.232 365.651 372.62 366.001 372.91C366.354 373.195 366.797 373.338 367.33 373.338ZM380.244 370.871V365.182H382.558V375H380.314V373.255H380.212C379.99 373.805 379.626 374.254 379.119 374.604C378.616 374.953 377.996 375.128 377.259 375.128C376.615 375.128 376.046 374.985 375.552 374.7C375.062 374.41 374.678 373.99 374.401 373.44C374.124 372.886 373.986 372.217 373.986 371.433V365.182H376.3V371.075C376.3 371.697 376.47 372.192 376.811 372.558C377.152 372.925 377.599 373.108 378.153 373.108C378.494 373.108 378.825 373.025 379.144 372.859C379.464 372.692 379.726 372.445 379.93 372.117C380.139 371.785 380.244 371.369 380.244 370.871ZM384.937 375V365.182H387.181V366.818H387.283C387.462 366.251 387.769 365.815 388.203 365.508C388.642 365.197 389.143 365.041 389.705 365.041C389.833 365.041 389.976 365.048 390.134 365.06C390.296 365.069 390.43 365.084 390.536 365.105V367.234C390.438 367.2 390.283 367.17 390.07 367.144C389.861 367.114 389.659 367.099 389.463 367.099C389.041 367.099 388.661 367.191 388.325 367.374C387.992 367.553 387.73 367.803 387.539 368.122C387.347 368.442 387.251 368.81 387.251 369.228V375H384.937ZM396.641 375V361.909H399.012V367.451H405.078V361.909H407.456V375H405.078V369.439H399.012V375H396.641ZM414.28 375.192C413.295 375.192 412.445 374.987 411.729 374.578C411.018 374.165 410.47 373.581 410.086 372.827C409.703 372.068 409.511 371.175 409.511 370.148C409.511 369.138 409.703 368.252 410.086 367.489C410.474 366.722 411.015 366.126 411.71 365.7C412.405 365.269 413.221 365.054 414.158 365.054C414.763 365.054 415.334 365.152 415.871 365.348C416.412 365.54 416.89 365.838 417.303 366.243C417.721 366.648 418.049 367.163 418.287 367.79C418.526 368.412 418.645 369.153 418.645 370.014V370.724H410.598V369.164H416.427C416.423 368.721 416.327 368.327 416.14 367.982C415.952 367.632 415.69 367.357 415.354 367.157C415.021 366.957 414.633 366.857 414.19 366.857C413.717 366.857 413.302 366.972 412.944 367.202C412.586 367.428 412.307 367.726 412.106 368.097C411.91 368.463 411.81 368.866 411.806 369.305V370.666C411.806 371.237 411.91 371.727 412.119 372.136C412.328 372.541 412.62 372.852 412.995 373.07C413.37 373.283 413.809 373.389 414.312 373.389C414.648 373.389 414.953 373.342 415.226 373.249C415.498 373.151 415.735 373.008 415.935 372.82C416.135 372.633 416.287 372.401 416.389 372.124L418.55 372.366C418.413 372.937 418.153 373.436 417.77 373.862C417.39 374.284 416.905 374.612 416.312 374.847C415.72 375.077 415.042 375.192 414.28 375.192ZM423.428 375.198C422.806 375.198 422.246 375.087 421.747 374.866C421.253 374.64 420.861 374.308 420.571 373.869C420.286 373.43 420.143 372.888 420.143 372.245C420.143 371.691 420.245 371.233 420.45 370.871C420.654 370.509 420.933 370.219 421.287 370.001C421.641 369.784 422.039 369.62 422.482 369.509C422.93 369.394 423.392 369.311 423.869 369.26C424.445 369.2 424.911 369.147 425.269 369.1C425.627 369.049 425.887 368.972 426.049 368.87C426.215 368.763 426.298 368.599 426.298 368.378V368.339C426.298 367.858 426.156 367.485 425.87 367.221C425.585 366.957 425.173 366.825 424.636 366.825C424.07 366.825 423.62 366.948 423.288 367.195C422.96 367.442 422.738 367.734 422.623 368.071L420.462 367.764C420.633 367.168 420.914 366.669 421.306 366.268C421.698 365.864 422.178 365.561 422.744 365.361C423.311 365.156 423.938 365.054 424.624 365.054C425.097 365.054 425.567 365.109 426.036 365.22C426.505 365.331 426.933 365.514 427.321 365.77C427.709 366.021 428.02 366.364 428.254 366.799C428.493 367.234 428.612 367.777 428.612 368.429V375H426.388V373.651H426.311C426.17 373.924 425.972 374.18 425.717 374.418C425.465 374.653 425.148 374.842 424.764 374.987C424.385 375.128 423.94 375.198 423.428 375.198ZM424.029 373.498C424.494 373.498 424.896 373.406 425.237 373.223C425.578 373.036 425.84 372.788 426.023 372.482C426.211 372.175 426.305 371.84 426.305 371.478V370.321C426.232 370.381 426.109 370.436 425.934 370.487C425.763 370.538 425.572 370.583 425.359 370.621C425.146 370.66 424.935 370.694 424.726 370.724C424.517 370.754 424.336 370.779 424.183 370.8C423.837 370.847 423.528 370.924 423.256 371.031C422.983 371.137 422.768 371.286 422.61 371.478C422.452 371.665 422.374 371.908 422.374 372.207C422.374 372.633 422.529 372.955 422.84 373.172C423.151 373.389 423.548 373.498 424.029 373.498ZM433.253 361.909V375H430.939V361.909H433.253ZM440.535 365.182V366.972H434.891V365.182H440.535ZM436.284 362.83H438.598V372.047C438.598 372.358 438.645 372.597 438.739 372.763C438.837 372.925 438.965 373.036 439.122 373.095C439.28 373.155 439.455 373.185 439.646 373.185C439.791 373.185 439.923 373.174 440.043 373.153C440.166 373.131 440.26 373.112 440.324 373.095L440.714 374.904C440.59 374.947 440.414 374.994 440.183 375.045C439.958 375.096 439.681 375.126 439.352 375.134C438.773 375.151 438.251 375.064 437.786 374.872C437.322 374.676 436.953 374.374 436.681 373.964C436.412 373.555 436.28 373.044 436.284 372.43V362.83ZM444.995 369.247V375H442.681V361.909H444.944V366.85H445.059C445.289 366.296 445.645 365.859 446.126 365.54C446.612 365.216 447.23 365.054 447.98 365.054C448.662 365.054 449.256 365.197 449.763 365.482C450.271 365.768 450.663 366.185 450.94 366.735C451.221 367.285 451.362 367.956 451.362 368.749V375H449.048V369.107C449.048 368.446 448.877 367.933 448.536 367.566C448.2 367.195 447.727 367.01 447.117 367.01C446.708 367.01 446.342 367.099 446.018 367.278C445.698 367.453 445.447 367.707 445.263 368.039C445.085 368.371 444.995 368.774 444.995 369.247ZM456.437 373.21L456.354 373.913C456.294 374.45 456.188 374.996 456.034 375.55C455.885 376.108 455.727 376.621 455.561 377.09C455.395 377.559 455.261 377.928 455.158 378.196H453.599C453.658 377.936 453.739 377.582 453.842 377.135C453.948 376.688 454.05 376.185 454.148 375.626C454.246 375.068 454.313 374.501 454.347 373.926L454.391 373.21H456.437ZM463.192 375V361.909H468.203C469.149 361.909 469.935 362.058 470.562 362.357C471.192 362.651 471.663 363.053 471.974 363.565C472.29 364.076 472.447 364.656 472.447 365.303C472.447 365.836 472.345 366.292 472.14 366.671C471.936 367.046 471.661 367.351 471.316 367.585C470.971 367.82 470.585 367.988 470.159 368.09V368.218C470.623 368.244 471.069 368.386 471.495 368.646C471.925 368.902 472.277 369.264 472.55 369.733C472.822 370.202 472.959 370.768 472.959 371.433C472.959 372.111 472.795 372.72 472.466 373.261C472.138 373.798 471.644 374.222 470.983 374.533C470.323 374.844 469.492 375 468.491 375H463.192ZM465.563 373.018H468.113C468.974 373.018 469.594 372.854 469.974 372.526C470.357 372.194 470.549 371.768 470.549 371.248C470.549 370.86 470.453 370.511 470.261 370.2C470.069 369.884 469.797 369.637 469.443 369.458C469.089 369.275 468.667 369.183 468.177 369.183H465.563V373.018ZM465.563 367.477H467.909C468.318 367.477 468.687 367.402 469.015 367.253C469.343 367.099 469.601 366.884 469.788 366.607C469.98 366.326 470.076 365.994 470.076 365.61C470.076 365.103 469.897 364.685 469.539 364.357C469.185 364.029 468.659 363.865 467.96 363.865H465.563V367.477ZM479.202 375.192C478.243 375.192 477.412 374.981 476.709 374.559C476.006 374.137 475.461 373.547 475.073 372.788C474.689 372.03 474.498 371.143 474.498 370.129C474.498 369.115 474.689 368.227 475.073 367.464C475.461 366.701 476.006 366.109 476.709 365.687C477.412 365.265 478.243 365.054 479.202 365.054C480.161 365.054 480.992 365.265 481.695 365.687C482.398 366.109 482.941 366.701 483.325 367.464C483.713 368.227 483.907 369.115 483.907 370.129C483.907 371.143 483.713 372.03 483.325 372.788C482.941 373.547 482.398 374.137 481.695 374.559C480.992 374.981 480.161 375.192 479.202 375.192ZM479.215 373.338C479.735 373.338 480.169 373.195 480.519 372.91C480.868 372.62 481.128 372.232 481.299 371.746C481.473 371.261 481.561 370.719 481.561 370.123C481.561 369.522 481.473 368.979 481.299 368.493C481.128 368.003 480.868 367.613 480.519 367.323C480.169 367.033 479.735 366.888 479.215 366.888C478.682 366.888 478.239 367.033 477.885 367.323C477.536 367.613 477.274 368.003 477.099 368.493C476.929 368.979 476.843 369.522 476.843 370.123C476.843 370.719 476.929 371.261 477.099 371.746C477.274 372.232 477.536 372.62 477.885 372.91C478.239 373.195 478.682 373.338 479.215 373.338ZM489.514 375.173C488.743 375.173 488.052 374.974 487.443 374.578C486.834 374.182 486.352 373.607 485.998 372.852C485.645 372.098 485.468 371.182 485.468 370.104C485.468 369.013 485.647 368.092 486.005 367.342C486.367 366.588 486.855 366.019 487.469 365.636C488.082 365.248 488.766 365.054 489.52 365.054C490.096 365.054 490.569 365.152 490.939 365.348C491.31 365.54 491.604 365.772 491.822 366.045C492.039 366.313 492.207 366.567 492.327 366.805H492.422V361.909H494.743V375H492.467V373.453H492.327C492.207 373.692 492.035 373.945 491.809 374.214C491.583 374.478 491.285 374.704 490.914 374.891C490.543 375.079 490.077 375.173 489.514 375.173ZM490.16 373.274C490.65 373.274 491.067 373.142 491.412 372.878C491.758 372.609 492.02 372.237 492.199 371.759C492.378 371.282 492.467 370.726 492.467 370.091C492.467 369.456 492.378 368.904 492.199 368.435C492.024 367.967 491.764 367.602 491.419 367.342C491.078 367.082 490.658 366.952 490.16 366.952C489.644 366.952 489.214 367.087 488.868 367.355C488.523 367.624 488.263 367.994 488.089 368.467C487.914 368.94 487.827 369.482 487.827 370.091C487.827 370.705 487.914 371.252 488.089 371.734C488.268 372.211 488.53 372.588 488.875 372.865C489.224 373.138 489.653 373.274 490.16 373.274ZM498.647 378.682C498.331 378.682 498.039 378.656 497.771 378.605C497.507 378.558 497.296 378.503 497.138 378.439L497.675 376.636C498.012 376.734 498.312 376.781 498.576 376.777C498.841 376.773 499.073 376.69 499.273 376.528C499.478 376.37 499.65 376.106 499.791 375.735L499.989 375.205L496.429 365.182H498.883L501.146 372.597H501.248L503.517 365.182H505.978L502.047 376.189C501.864 376.709 501.621 377.154 501.319 377.525C501.016 377.9 500.645 378.185 500.206 378.381C499.772 378.582 499.252 378.682 498.647 378.682ZM509.681 373.21L509.598 373.913C509.538 374.45 509.432 374.996 509.278 375.55C509.129 376.108 508.971 376.621 508.805 377.09C508.639 377.559 508.505 377.928 508.403 378.196H506.843C506.903 377.936 506.983 377.582 507.086 377.135C507.192 376.688 507.295 376.185 507.393 375.626C507.491 375.068 507.557 374.501 507.591 373.926L507.635 373.21H509.681ZM352.291 383.909H355.193L359.08 393.395H359.233L363.119 383.909H366.021V397H363.746V388.006H363.624L360.006 396.962H358.306L354.688 387.987H354.567V397H352.291V383.909ZM368.501 397V387.182H370.815V397H368.501ZM369.665 385.788C369.298 385.788 368.983 385.667 368.719 385.424C368.455 385.177 368.322 384.881 368.322 384.536C368.322 384.186 368.455 383.89 368.719 383.647C368.983 383.4 369.298 383.276 369.665 383.276C370.036 383.276 370.351 383.4 370.611 383.647C370.875 383.89 371.007 384.186 371.007 384.536C371.007 384.881 370.875 385.177 370.611 385.424C370.351 385.667 370.036 385.788 369.665 385.788ZM375.509 391.247V397H373.195V387.182H375.406V388.85H375.521C375.747 388.3 376.107 387.864 376.602 387.54C377.1 387.216 377.716 387.054 378.449 387.054C379.127 387.054 379.717 387.199 380.22 387.489C380.727 387.778 381.119 388.198 381.396 388.748C381.677 389.298 381.816 389.964 381.811 390.749V397H379.497V391.107C379.497 390.45 379.327 389.937 378.986 389.566C378.649 389.195 378.183 389.01 377.586 389.01C377.181 389.01 376.821 389.099 376.506 389.278C376.195 389.453 375.95 389.707 375.771 390.039C375.596 390.371 375.509 390.774 375.509 391.247ZM387.807 397.173C387.036 397.173 386.345 396.974 385.736 396.578C385.127 396.182 384.645 395.607 384.291 394.852C383.938 394.098 383.761 393.182 383.761 392.104C383.761 391.013 383.94 390.092 384.298 389.342C384.66 388.588 385.148 388.019 385.762 387.636C386.375 387.248 387.059 387.054 387.813 387.054C388.389 387.054 388.862 387.152 389.232 387.348C389.603 387.54 389.897 387.772 390.115 388.045C390.332 388.313 390.5 388.567 390.619 388.805H390.715V383.909H393.036V397H390.76V395.453H390.619C390.5 395.692 390.328 395.945 390.102 396.214C389.876 396.478 389.578 396.704 389.207 396.891C388.836 397.079 388.369 397.173 387.807 397.173ZM388.453 395.274C388.943 395.274 389.36 395.142 389.705 394.878C390.051 394.609 390.313 394.237 390.492 393.759C390.671 393.282 390.76 392.726 390.76 392.091C390.76 391.456 390.671 390.904 390.492 390.435C390.317 389.967 390.057 389.602 389.712 389.342C389.371 389.082 388.951 388.952 388.453 388.952C387.937 388.952 387.507 389.087 387.161 389.355C386.816 389.624 386.556 389.994 386.382 390.467C386.207 390.94 386.119 391.482 386.119 392.091C386.119 392.705 386.207 393.252 386.382 393.734C386.561 394.211 386.823 394.588 387.168 394.865C387.517 395.138 387.945 395.274 388.453 395.274ZM398.218 395.21L398.135 395.913C398.075 396.45 397.969 396.996 397.815 397.55C397.666 398.108 397.509 398.621 397.342 399.09C397.176 399.559 397.042 399.928 396.94 400.196H395.38C395.44 399.936 395.521 399.582 395.623 399.135C395.729 398.688 395.832 398.185 395.93 397.626C396.028 397.068 396.094 396.501 396.128 395.926L396.173 395.21H398.218ZM415.731 383.909V397H413.621L407.453 388.083H407.344V397H404.973V383.909H407.095L413.257 392.832H413.372V383.909H415.731ZM424.47 392.871V387.182H426.784V397H424.54V395.255H424.438C424.217 395.805 423.852 396.254 423.345 396.604C422.842 396.953 422.222 397.128 421.485 397.128C420.842 397.128 420.273 396.985 419.778 396.7C419.288 396.41 418.905 395.99 418.628 395.44C418.351 394.886 418.212 394.217 418.212 393.433V387.182H420.526V393.075C420.526 393.697 420.697 394.192 421.038 394.558C421.379 394.925 421.826 395.108 422.38 395.108C422.721 395.108 423.051 395.025 423.371 394.859C423.69 394.692 423.952 394.445 424.157 394.117C424.366 393.785 424.47 393.369 424.47 392.871ZM434.066 387.182V388.972H428.422V387.182H434.066ZM429.816 384.83H432.129V394.047C432.129 394.358 432.176 394.597 432.27 394.763C432.368 394.925 432.496 395.036 432.654 395.095C432.811 395.155 432.986 395.185 433.178 395.185C433.323 395.185 433.455 395.174 433.574 395.153C433.698 395.131 433.791 395.112 433.855 395.095L434.245 396.904C434.122 396.947 433.945 396.994 433.715 397.045C433.489 397.096 433.212 397.126 432.884 397.134C432.304 397.151 431.782 397.064 431.318 396.872C430.853 396.676 430.485 396.374 430.212 395.964C429.943 395.555 429.811 395.044 429.816 394.43V384.83ZM436.001 397V387.182H438.245V388.818H438.347C438.526 388.251 438.833 387.815 439.268 387.508C439.707 387.197 440.207 387.041 440.77 387.041C440.898 387.041 441.04 387.048 441.198 387.06C441.36 387.069 441.494 387.084 441.601 387.105V389.234C441.503 389.2 441.347 389.17 441.134 389.144C440.925 389.114 440.723 389.099 440.527 389.099C440.105 389.099 439.726 389.191 439.389 389.374C439.057 389.553 438.795 389.803 438.603 390.122C438.411 390.442 438.315 390.81 438.315 391.228V397H436.001ZM443.138 397V387.182H445.452V397H443.138ZM444.301 385.788C443.935 385.788 443.62 385.667 443.355 385.424C443.091 385.177 442.959 384.881 442.959 384.536C442.959 384.186 443.091 383.89 443.355 383.647C443.62 383.4 443.935 383.276 444.301 383.276C444.672 383.276 444.988 383.4 445.248 383.647C445.512 383.89 445.644 384.186 445.644 384.536C445.644 384.881 445.512 385.177 445.248 385.424C444.988 385.667 444.672 385.788 444.301 385.788ZM452.734 387.182V388.972H447.09V387.182H452.734ZM448.483 384.83H450.797V394.047C450.797 394.358 450.844 394.597 450.938 394.763C451.036 394.925 451.164 395.036 451.322 395.095C451.479 395.155 451.654 395.185 451.846 395.185C451.991 395.185 452.123 395.174 452.242 395.153C452.366 395.131 452.459 395.112 452.523 395.095L452.913 396.904C452.79 396.947 452.613 396.994 452.383 397.045C452.157 397.096 451.88 397.126 451.552 397.134C450.972 397.151 450.45 397.064 449.986 396.872C449.521 396.676 449.153 396.374 448.88 395.964C448.611 395.555 448.479 395.044 448.483 394.43V384.83ZM454.669 397V387.182H456.983V397H454.669ZM455.833 385.788C455.466 385.788 455.151 385.667 454.887 385.424C454.623 385.177 454.49 384.881 454.49 384.536C454.49 384.186 454.623 383.89 454.887 383.647C455.151 383.4 455.466 383.276 455.833 383.276C456.203 383.276 456.519 383.4 456.779 383.647C457.043 383.89 457.175 384.186 457.175 384.536C457.175 384.881 457.043 385.177 456.779 385.424C456.519 385.667 456.203 385.788 455.833 385.788ZM463.645 397.192C462.687 397.192 461.856 396.981 461.153 396.559C460.449 396.137 459.904 395.547 459.516 394.788C459.133 394.03 458.941 393.143 458.941 392.129C458.941 391.115 459.133 390.227 459.516 389.464C459.904 388.701 460.449 388.109 461.153 387.687C461.856 387.265 462.687 387.054 463.645 387.054C464.604 387.054 465.435 387.265 466.138 387.687C466.841 388.109 467.385 388.701 467.768 389.464C468.156 390.227 468.35 391.115 468.35 392.129C468.35 393.143 468.156 394.03 467.768 394.788C467.385 395.547 466.841 396.137 466.138 396.559C465.435 396.981 464.604 397.192 463.645 397.192ZM463.658 395.338C464.178 395.338 464.613 395.195 464.962 394.91C465.312 394.62 465.572 394.232 465.742 393.746C465.917 393.261 466.004 392.719 466.004 392.123C466.004 391.522 465.917 390.979 465.742 390.493C465.572 390.003 465.312 389.613 464.962 389.323C464.613 389.033 464.178 388.888 463.658 388.888C463.126 388.888 462.682 389.033 462.329 389.323C461.979 389.613 461.717 390.003 461.542 390.493C461.372 390.979 461.287 391.522 461.287 392.123C461.287 392.719 461.372 393.261 461.542 393.746C461.717 394.232 461.979 394.62 462.329 394.91C462.682 395.195 463.126 395.338 463.658 395.338ZM472.628 391.247V397H470.314V387.182H472.526V388.85H472.641C472.866 388.3 473.227 387.864 473.721 387.54C474.219 387.216 474.835 387.054 475.568 387.054C476.246 387.054 476.836 387.199 477.339 387.489C477.846 387.778 478.238 388.198 478.515 388.748C478.796 389.298 478.935 389.964 478.93 390.749V397H476.616V391.107C476.616 390.45 476.446 389.937 476.105 389.566C475.768 389.195 475.302 389.01 474.705 389.01C474.3 389.01 473.94 389.099 473.625 389.278C473.314 389.453 473.069 389.707 472.89 390.039C472.715 390.371 472.628 390.774 472.628 391.247Z" fill="#708092"/>
<defs>
<clipPath id="clip0_4_737">
<rect width="147" height="164" fill="white"/>
</clipPath>
</defs>
</svg>
