<svg width="31" height="31" viewBox="0 0 31 31" fill="none" xmlns="http://www.w3.org/2000/svg">
<path d="M2.7215 28.4729V2.52711C2.7215 1.46584 3.58187 0.605469 4.64313 0.605469H26.3568C27.4181 0.605469 28.2785 1.46584 28.2785 2.52711V28.4728C28.2785 29.5342 27.4181 30.3945 26.3568 30.3945H4.64313C3.58187 30.3945 2.7215 29.5342 2.7215 28.4729Z" fill="#FAF7F5"/>
<path d="M25.6144 15.9262V10.6063C25.6144 10.0484 25.1621 9.59607 24.6042 9.59607H6.39578C5.83784 9.59607 5.38556 10.0484 5.38556 10.6063V26.7202C5.38556 27.2782 5.83784 27.7305 6.39578 27.7305H24.6042C25.1621 27.7305 25.6144 27.2782 25.6144 26.7202V21.4003" fill="#CCF5FC"/>
<path d="M20.5691 7.22051H10.3664C10.3664 4.97083 12.1901 3.14709 14.4398 3.14709H16.4959C18.7455 3.14716 20.5691 4.97083 20.5691 7.22051Z" fill="#FF5D7D"/>
<path d="M19.4921 24.0561C20.7261 24.1831 21.8293 23.2857 21.9563 22.0517L22.6019 15.7773C22.7289 14.5433 21.8315 13.4401 20.5976 13.3131L20.1815 13.2703C18.8557 13.1339 17.7035 14.1753 17.7055 15.508L17.7115 19.4175L17.4878 21.592C17.3608 22.8259 18.2582 23.9291 19.4921 24.0561Z" fill="#FFF2A0"/>
<path d="M11.5078 24.0561C10.2739 24.1831 9.17066 23.2857 9.04369 22.0517L8.39808 15.7773C8.27111 14.5433 9.16848 13.4401 10.4024 13.3131L10.8185 13.2703C12.1442 13.1339 13.2964 14.1753 13.2944 15.508L13.2885 19.4175L13.5122 21.592C13.6391 22.8259 12.7418 23.9291 11.5078 24.0561Z" fill="#FFF2A0"/>
<path d="M26.3568 0H4.64313C3.24965 0 2.11603 1.13368 2.11603 2.52711V28.4728C2.11603 29.8663 3.24971 30.9999 4.64313 30.9999H26.3568C27.7503 30.9999 28.8839 29.8663 28.8839 28.4728V2.52711C28.8839 1.13368 27.7503 0 26.3568 0ZM27.673 28.4729C27.673 29.1986 27.0825 29.7891 26.3568 29.7891H4.64313C3.91742 29.7891 3.32697 29.1986 3.32697 28.4729V2.52711C3.32697 1.80139 3.91742 1.21094 4.64313 1.21094H26.3568C27.0825 1.21094 27.673 1.80139 27.673 2.52711V28.4729Z" fill="#1C4685"/>
<path d="M24.6042 8.9906H6.39578C5.5049 8.9906 4.78009 9.71541 4.78009 10.6064V26.7203C4.78009 27.6112 5.5049 28.336 6.39578 28.336H24.6042C25.4951 28.336 26.2199 27.6112 26.2199 26.7203V21.4004C26.2199 21.066 25.9488 20.7949 25.6144 20.7949C25.28 20.7949 25.0089 21.066 25.0089 21.4004V26.7203C25.0089 26.9435 24.8273 27.1251 24.6042 27.1251H6.39578C6.17261 27.1251 5.99103 26.9435 5.99103 26.7203V10.6064C5.99103 10.3831 6.17261 10.2015 6.39578 10.2015H14.8945V15.5001C14.8945 15.8345 15.1656 16.1055 15.5 16.1055C15.8344 16.1055 16.1054 15.8345 16.1054 15.5001V10.2015H24.6042C24.8273 10.2015 25.0089 10.3831 25.0089 10.6064V15.9262C25.0089 16.2606 25.28 16.5317 25.6144 16.5317C25.9488 16.5317 26.2199 16.2606 26.2199 15.9262V10.6064C26.2199 9.71541 25.4951 8.9906 24.6042 8.9906Z" fill="#1C4685"/>
<path d="M26.1181 18.3385C25.9729 18.1224 25.699 18.0204 25.4482 18.0924C25.2079 18.1613 25.0325 18.3763 25.0111 18.625C24.9894 18.8766 25.1352 19.1218 25.3647 19.2254C25.592 19.328 25.8655 19.2788 26.0423 19.1025C26.2444 18.9013 26.2762 18.5755 26.1181 18.3385Z" fill="#1C4685"/>
<path d="M10.3664 7.82598H20.5692C20.9036 7.82598 21.1747 7.55491 21.1747 7.22051C21.1747 4.6406 19.0758 2.54163 16.4958 2.54163H14.4397C11.8598 2.54163 9.76093 4.64054 9.76093 7.22051C9.76093 7.55491 10.032 7.82598 10.3664 7.82598ZM14.4397 3.75262H16.4958C18.2015 3.75262 19.6236 4.99044 19.9108 6.6151H16.3399L16.74 6.04711C16.9325 5.77368 16.867 5.39599 16.5936 5.20345C16.3203 5.01091 15.9425 5.07648 15.75 5.34979L14.8589 6.6151H11.0248C11.312 4.99044 12.734 3.75262 14.4397 3.75262Z" fill="#1C4685"/>
<path d="M17.51 23.6212C17.9906 24.2121 18.6725 24.5804 19.4302 24.6584C19.5297 24.6686 19.6287 24.6737 19.7274 24.6737C20.3802 24.6737 21.0081 24.4515 21.5214 24.034C22.1123 23.5534 22.4807 22.8714 22.5586 22.1138L23.2042 15.8394C23.2822 15.0817 23.0604 14.3391 22.5798 13.7482C22.0991 13.1573 21.4172 12.7889 20.6596 12.711L20.2435 12.6682C19.4412 12.5857 18.638 12.8485 18.0397 13.3892C17.4414 13.9299 17.0989 14.7026 17.1001 15.5091L17.1061 19.387L16.8855 21.5301C16.8076 22.2877 17.0293 23.0304 17.51 23.6212ZM18.0901 21.654L18.3138 19.4796C18.316 19.4587 18.3171 19.4377 18.3171 19.4166L18.3111 15.5071C18.3103 15.0363 18.5023 14.6032 18.8516 14.2875C19.1575 14.011 19.5408 13.8637 19.9459 13.8637C20.0034 13.8637 20.0614 13.8667 20.1196 13.8727L20.5357 13.9155C20.9716 13.9603 21.364 14.1723 21.6405 14.5122C21.917 14.8522 22.0446 15.2794 21.9998 15.7154L21.3541 21.9898C21.3093 22.4256 21.0974 22.818 20.7574 23.0946C20.4175 23.3711 19.9903 23.4986 19.5542 23.4539C18.6543 23.3612 17.9975 22.5538 18.0901 21.654Z" fill="#1C4685"/>
<path d="M12.9604 13.3891C12.3621 12.8484 11.5589 12.5855 10.7566 12.6681L10.3405 12.7109C9.58281 12.7889 8.90087 13.1572 8.42024 13.7481C7.93962 14.339 7.71784 15.0817 7.79582 15.8393L8.44144 22.1137C8.51942 22.8714 8.88773 23.5533 9.4786 24.0339C9.99198 24.4515 10.6199 24.6736 11.2726 24.6736C11.3712 24.6736 11.4704 24.6686 11.5698 24.6583C12.3275 24.5803 13.0095 24.212 13.4901 23.6211C13.9707 23.0303 14.1925 22.2876 14.1145 21.53L13.894 19.3869L13.8999 15.5089C13.9011 14.7026 13.5587 13.9299 12.9604 13.3891ZM11.4459 23.4539C11.01 23.4986 10.5827 23.3711 10.2427 23.0946C9.90273 22.8181 9.69082 22.4258 9.64595 21.9898L9.00034 15.7154C8.95548 15.2795 9.08311 14.8522 9.35963 14.5123C9.63615 14.1723 10.0285 13.9604 10.4644 13.9155L10.8805 13.8727C10.9388 13.8667 10.9967 13.8638 11.0542 13.8638C11.4592 13.8638 11.8425 14.0111 12.1484 14.2875C12.4977 14.6032 12.6896 15.0364 12.689 15.5072L12.683 19.4167C12.683 19.4377 12.684 19.4587 12.6862 19.4796L12.9099 21.654C13.0025 22.5539 12.3457 23.3613 11.4459 23.4539Z" fill="#1C4685"/>
</svg>
