<svg width="408" height="193" viewBox="0 0 408 193" fill="none" xmlns="http://www.w3.org/2000/svg">
<g opacity="0.08">
<path d="M13.9257 396.784V35.2164C13.9257 20.4272 25.9154 8.4375 40.7047 8.4375H343.295C358.085 8.4375 370.074 20.4272 370.074 35.2164V396.783C370.074 411.573 358.085 423.562 343.295 423.562H40.7047C25.9154 423.562 13.9257 411.573 13.9257 396.784Z" fill="#FAF7F5"/>
<path d="M332.949 221.939V147.804C332.949 140.029 326.646 133.726 318.871 133.726H65.1287C57.3535 133.726 51.0507 140.029 51.0507 147.804V372.36C51.0507 380.135 57.3535 386.438 65.1287 386.438H318.871C326.646 386.438 332.949 380.135 332.949 372.36V298.224" fill="#CCF5FC"/>
<path d="M262.641 100.621H120.461C120.461 69.271 145.876 43.8564 177.226 43.8564H205.878C237.228 43.8573 262.641 69.271 262.641 100.621Z" fill="#FF5D7D"/>
<path d="M247.633 335.234C264.828 337.003 280.202 324.498 281.972 307.302L290.968 219.864C292.738 202.669 280.233 187.295 263.037 185.525L257.239 184.929C238.764 183.028 222.707 197.54 222.735 216.112L222.819 270.593L219.701 300.895C217.932 318.09 230.437 333.464 247.633 335.234Z" fill="#FFF2A0"/>
<path d="M136.367 335.234C119.172 337.003 103.798 324.498 102.028 307.302L93.0315 219.864C91.2621 202.669 103.767 187.295 120.963 185.525L126.761 184.929C145.236 183.028 161.293 197.54 161.265 216.112L161.181 270.593L164.299 300.895C166.068 318.09 153.563 333.464 136.367 335.234Z" fill="#FFF2A0"/>
<path d="M343.295 0H40.7047C21.2857 0 5.48822 15.7984 5.48822 35.2164V396.783C5.48822 416.202 21.2866 431.999 40.7047 431.999H343.295C362.714 431.999 378.512 416.201 378.512 396.783V35.2164C378.512 15.7984 362.714 0 343.295 0ZM361.637 396.784C361.637 406.897 353.409 415.125 343.295 415.125H40.7047C30.5915 415.125 22.3632 406.897 22.3632 396.784V35.2164C22.3632 25.1032 30.5915 16.875 40.7047 16.875H343.295C353.409 16.875 361.637 25.1032 361.637 35.2164V396.784Z" fill="#1C4685"/>
<path d="M318.871 125.288H65.1287C52.7138 125.288 42.6132 135.388 42.6132 147.804V372.36C42.6132 384.774 52.7138 394.875 65.1287 394.875H318.871C331.286 394.875 341.387 384.774 341.387 372.36V298.224C341.387 293.564 337.609 289.787 332.949 289.787C328.289 289.787 324.512 293.564 324.512 298.224V372.36C324.512 375.47 321.981 378 318.871 378H65.1287C62.0186 378 59.4882 375.47 59.4882 372.36V147.804C59.4882 144.693 62.0186 142.163 65.1287 142.163H183.562V216C183.562 220.66 187.34 224.438 192 224.438C196.66 224.438 200.438 220.66 200.438 216V142.163H318.871C321.981 142.163 324.512 144.693 324.512 147.804V221.939C324.512 226.599 328.289 230.377 332.949 230.377C337.609 230.377 341.387 226.599 341.387 221.939V147.804C341.387 135.388 331.287 125.288 318.871 125.288Z" fill="#1C4685"/>
<path d="M120.461 109.059H262.642C267.302 109.059 271.08 105.281 271.08 100.621C271.08 64.6692 241.83 35.4189 205.877 35.4189H177.225C141.273 35.4189 112.023 64.6684 112.023 100.621C112.023 105.281 115.801 109.059 120.461 109.059ZM177.225 52.2948H205.877C229.647 52.2948 249.465 69.5444 253.467 92.1848H203.705L209.28 84.2695C211.963 80.4592 211.05 75.1959 207.241 72.5127C203.431 69.8296 198.167 70.7434 195.484 74.5521L183.065 92.1848H129.637C133.638 69.5444 153.455 52.2948 177.225 52.2948Z" fill="#1C4685"/>
<path d="M220.01 329.173C226.708 337.407 236.211 342.54 246.77 343.626C248.156 343.769 249.536 343.84 250.912 343.84C260.008 343.84 268.758 340.743 275.912 334.926C284.146 328.228 289.279 318.724 290.365 308.166L299.362 220.729C300.449 210.171 297.358 199.822 290.661 191.588C283.962 183.354 274.459 178.22 263.901 177.134L258.103 176.538C246.923 175.389 235.729 179.05 227.392 186.585C219.054 194.121 214.282 204.889 214.299 216.127L214.381 270.168L211.308 300.032C210.222 310.589 213.312 320.94 220.01 329.173ZM228.095 301.759L231.212 271.457C231.243 271.166 231.257 270.873 231.257 270.58L231.174 216.1C231.164 209.539 233.839 203.502 238.707 199.103C242.969 195.25 248.31 193.198 253.956 193.198C254.757 193.198 255.565 193.239 256.376 193.323L262.175 193.919C268.249 194.544 273.717 197.497 277.571 202.235C281.424 206.973 283.202 212.926 282.577 219.001L273.581 306.438C272.955 312.512 270.002 317.981 265.265 321.834C260.528 325.688 254.574 327.464 248.498 326.841C235.957 325.55 226.805 314.299 228.095 301.759Z" fill="#1C4685"/>
<path d="M156.609 186.584C148.272 179.048 137.079 175.384 125.898 176.536L120.1 177.133C109.541 178.219 100.038 183.352 93.3403 191.586C86.6426 199.82 83.552 210.17 84.6387 220.728L93.6356 308.164C94.7224 318.723 99.8549 328.226 108.089 334.924C115.243 340.743 123.993 343.838 133.089 343.838C134.463 343.838 135.846 343.768 137.231 343.625C147.79 342.538 157.293 337.405 163.991 329.171C170.689 320.937 173.779 310.588 172.692 300.03L169.62 270.165L169.702 216.124C169.719 204.887 164.947 194.119 156.609 186.584ZM135.504 326.841C129.43 327.464 123.475 325.688 118.737 321.834C114 317.981 111.046 312.513 110.421 306.438L101.424 219.001C100.799 212.926 102.578 206.973 106.431 202.235C110.285 197.497 115.752 194.544 121.827 193.919L127.625 193.323C128.437 193.239 129.244 193.198 130.045 193.198C135.69 193.198 141.032 195.251 145.294 199.103C150.162 203.502 152.837 209.539 152.827 216.1L152.744 270.58C152.744 270.873 152.758 271.165 152.788 271.457L155.906 301.759C157.196 314.299 148.043 325.55 135.504 326.841Z" fill="#1C4685"/>
</g>
</svg>
