<svg width="23" height="23" viewBox="0 0 23 23" fill="none" xmlns="http://www.w3.org/2000/svg">
<path d="M2.01917 21.125V1.87495C2.01917 1.08756 2.6575 0.449219 3.4449 0.449219H19.555C20.3425 0.449219 20.9808 1.08756 20.9808 1.87495V21.125C20.9808 21.9124 20.3424 22.5507 19.555 22.5507H3.4449C2.6575 22.5508 2.01917 21.9124 2.01917 21.125Z" fill="#FAF7F5"/>
<path d="M19.0042 11.8162V7.86915C19.0042 7.4552 18.6686 7.11963 18.2547 7.11963H4.74525C4.33129 7.11963 3.99573 7.4552 3.99573 7.86915V19.8247C3.99573 20.2386 4.33129 20.5742 4.74525 20.5742H18.2547C18.6686 20.5742 19.0042 20.2386 19.0042 19.8247V15.8776" fill="#CCF5FC"/>
<path d="M15.2609 5.35717H7.69116C7.69116 3.68805 9.04425 2.33496 10.7134 2.33496H12.2388C13.9079 2.33501 15.2609 3.68805 15.2609 5.35717Z" fill="#FF5D7D"/>
<path d="M14.4619 17.8481C15.3774 17.9423 16.1959 17.2765 16.2901 16.361L16.7691 11.7057C16.8633 10.7902 16.1975 9.97168 15.282 9.87748L14.9733 9.84572C13.9897 9.74451 13.1348 10.5171 13.1363 11.5059L13.1408 14.4065L12.9748 16.0198C12.8806 16.9353 13.5464 17.7539 14.4619 17.8481Z" fill="#FFF2A0"/>
<path d="M8.53804 17.8481C7.62253 17.9423 6.80401 17.2765 6.70981 16.361L6.23081 11.7057C6.13661 10.7902 6.80239 9.97168 7.7179 9.87748L8.0266 9.84572C9.01021 9.74451 9.86508 10.5171 9.86359 11.5059L9.85915 14.4065L10.0251 16.0198C10.1193 16.9353 9.45355 17.7539 8.53804 17.8481Z" fill="#FFF2A0"/>
<path d="M19.555 0H3.4449C2.41102 0 1.56995 0.841117 1.56995 1.87495V21.125C1.56995 22.1589 2.41106 23 3.4449 23H19.555C20.5889 23 21.43 22.1588 21.43 21.125V1.87495C21.43 0.841117 20.5889 0 19.555 0ZM20.5316 21.125C20.5316 21.6635 20.0935 22.1016 19.555 22.1016H3.4449C2.90646 22.1016 2.46838 21.6635 2.46838 21.125V1.87495C2.46838 1.33652 2.90646 0.898438 3.4449 0.898438H19.555C20.0935 0.898438 20.5316 1.33652 20.5316 1.87495V21.125Z" fill="#1C4685"/>
<path d="M18.2547 6.67041H4.74525C4.08427 6.67041 3.54651 7.20817 3.54651 7.8692V19.8247C3.54651 20.4857 4.08427 21.0234 4.74525 21.0234H18.2547C18.9157 21.0234 19.4534 20.4857 19.4534 19.8247V15.8777C19.4534 15.6296 19.2523 15.4285 19.0042 15.4285C18.7561 15.4285 18.555 15.6296 18.555 15.8777V19.8247C18.555 19.9903 18.4203 20.125 18.2547 20.125H4.74525C4.57967 20.125 4.44495 19.9903 4.44495 19.8247V7.8692C4.44495 7.70357 4.57967 7.56885 4.74525 7.56885H11.0508V11.5C11.0508 11.7481 11.2519 11.9492 11.5 11.9492C11.7481 11.9492 11.9492 11.7481 11.9492 11.5V7.56885H18.2547C18.4203 7.56885 18.555 7.70357 18.555 7.8692V11.8162C18.555 12.0643 18.7561 12.2654 19.0042 12.2654C19.2523 12.2654 19.4534 12.0643 19.4534 11.8162V7.8692C19.4534 7.20817 18.9157 6.67041 18.2547 6.67041Z" fill="#1C4685"/>
<path d="M19.3779 13.606C19.2703 13.4456 19.067 13.3699 18.881 13.4234C18.7027 13.4745 18.5725 13.634 18.5566 13.8186C18.5406 14.0052 18.6487 14.1872 18.819 14.264C18.9877 14.3401 19.1905 14.3036 19.3217 14.1728C19.4716 14.0235 19.4953 13.7818 19.3779 13.606Z" fill="#1C4685"/>
<path d="M7.69116 5.80639H15.261C15.5091 5.80639 15.7102 5.60527 15.7102 5.35717C15.7102 3.44305 14.1529 1.88574 12.2388 1.88574H10.7133C8.79921 1.88574 7.24194 3.443 7.24194 5.35717C7.24194 5.60527 7.44306 5.80639 7.69116 5.80639ZM10.7133 2.78422H12.2388C13.5043 2.78422 14.5594 3.70261 14.7725 4.908H12.1232L12.42 4.48658C12.5628 4.28372 12.5142 4.00349 12.3114 3.86064C12.1086 3.71779 11.8283 3.76644 11.6854 3.96922L11.0243 4.908H8.17969C8.39271 3.70261 9.44779 2.78422 10.7133 2.78422Z" fill="#1C4685"/>
<path d="M12.9912 17.5254C13.3478 17.9638 13.8538 18.2371 14.4159 18.2949C14.4897 18.3025 14.5632 18.3063 14.6365 18.3063C15.1208 18.3063 15.5866 18.1414 15.9675 17.8317C16.4059 17.4751 16.6792 16.9691 16.737 16.407L17.216 11.7518C17.2739 11.1897 17.1093 10.6387 16.7527 10.2003C16.3961 9.76187 15.8901 9.48856 15.328 9.43075L15.0193 9.39899C14.4241 9.33781 13.8281 9.53272 13.3843 9.93392C12.9403 10.3351 12.6863 10.9084 12.6872 11.5067L12.6916 14.3839L12.528 15.9739C12.4701 16.536 12.6346 17.0871 12.9912 17.5254ZM13.4217 16.0658L13.5877 14.4526C13.5893 14.4371 13.59 14.4215 13.59 14.4059L13.5856 11.5053C13.5851 11.156 13.7275 10.8346 13.9867 10.6004C14.2136 10.3953 14.498 10.286 14.7985 10.286C14.8412 10.286 14.8842 10.2882 14.9274 10.2926L15.2361 10.3244C15.5595 10.3577 15.8506 10.5149 16.0558 10.7671C16.261 11.0194 16.3556 11.3363 16.3224 11.6598L15.8434 16.315C15.8101 16.6384 15.6529 16.9295 15.4006 17.1347C15.1484 17.3398 14.8315 17.4344 14.5079 17.4012C13.8403 17.3325 13.353 16.7335 13.4217 16.0658Z" fill="#1C4685"/>
<path d="M9.61575 9.93383C9.17187 9.53264 8.57598 9.33759 7.98068 9.3989L7.67198 9.43066C7.10983 9.48852 6.60387 9.76178 6.24728 10.2002C5.89069 10.6386 5.72614 11.1896 5.784 11.7517L6.263 16.4069C6.32086 16.969 6.59412 17.475 7.03251 17.8316C7.41341 18.1414 7.87925 18.3062 8.36355 18.3062C8.43668 18.3062 8.51031 18.3025 8.58407 18.2948C9.14622 18.237 9.65218 17.9637 10.0088 17.5253C10.3654 17.0869 10.5299 16.5359 10.472 15.9738L10.3084 14.3838L10.3128 11.5066C10.3137 10.9083 10.0597 10.335 9.61575 9.93383ZM8.49212 17.4012C8.16872 17.4344 7.85166 17.3398 7.59943 17.1347C7.34719 16.9295 7.18997 16.6384 7.15668 16.315L6.67768 11.6598C6.64439 11.3363 6.73908 11.0194 6.94424 10.7671C7.1494 10.5149 7.44049 10.3577 7.76393 10.3244L8.07264 10.2926C8.11585 10.2882 8.15884 10.286 8.20147 10.286C8.502 10.286 8.7864 10.3953 9.01334 10.6004C9.2725 10.8346 9.4149 11.156 9.41441 11.5053L9.40996 14.4059C9.40996 14.4215 9.41072 14.437 9.41234 14.4526L9.57833 16.0659C9.64701 16.7335 9.1597 17.3325 8.49212 17.4012Z" fill="#1C4685"/>
</svg>
