<svg width="22" height="22" viewBox="0 0 22 22" fill="none" xmlns="http://www.w3.org/2000/svg">
<path d="M9.33281 15.1852C9.00195 14.8414 8.57656 14.5879 8.08672 14.4719L6.3207 14.0465V12.968H4.15937V14.0508L2.39766 14.4719C1.24609 14.7469 0.429688 15.7781 0.429688 16.9641V19.8516H4.33984L9.33281 15.1852Z" fill="#EFF5FA"/>
<path d="M6.36367 12.968V14.0766L5.24219 16.7578L4.125 14.0809V12.968H6.36367Z" fill="#FFB487"/>
<path d="M7.64844 9.25117V10.7465C7.64844 12.0742 6.56992 13.1527 5.24219 13.1527C3.91445 13.1527 2.83594 12.0742 2.83594 10.7465V9.25117H7.64844Z" fill="#FFCDAC"/>
<path d="M7.64844 9.72383V9.14375C7.64844 7.81601 6.56992 6.7375 5.24219 6.7375C3.91445 6.7375 2.83594 7.81601 2.83594 9.14375V9.72383H4.49453C5.53437 9.72383 6.55273 9.44023 7.44219 8.90742" fill="#878791"/>
<path d="M12.6672 15.1852C12.998 14.8414 13.4234 14.5879 13.9133 14.4719L15.6793 14.0465V12.968H17.8363V14.0508L19.598 14.4719C20.7496 14.7469 21.566 15.7781 21.566 16.9641V19.8516H17.6559L12.6672 15.1852Z" fill="#FCD7D1"/>
<path d="M9.49609 15.1422L7.03398 15.7309C5.43125 16.1176 4.29688 17.5484 4.29688 19.1984V21.5703H17.6988V19.2027C17.6988 17.5527 16.5645 16.1176 14.9617 15.7309L12.5039 15.1422H9.49609Z" fill="#FBF0DC"/>
<path d="M17.875 12.968V14.0809L16.7578 16.7578L15.6363 14.0766V12.968H17.875Z" fill="#FFB487"/>
<path d="M11 18.5926L12.6027 14.9531C12.4824 14.7555 12.418 14.5191 12.418 14.2742V13.9262H9.58203V14.2742C9.58203 14.5191 9.51328 14.7512 9.39726 14.9531L11 18.5926Z" fill="#FFB487"/>
<path d="M14.3516 8.22852V10.5402C14.3516 12.3922 12.852 13.8918 11 13.8918C9.14805 13.8918 7.64844 12.3922 7.64844 10.5402V8.22852H14.3516Z" fill="#FFCDAC"/>
<path d="M11 4.9586C9.14805 4.9586 7.64844 6.4582 7.64844 8.31016V9.11797H9.28555C10.377 9.11797 11.4082 8.63672 12.1086 7.79883L14.3516 9.11797V8.31016C14.3516 6.4625 12.852 4.9586 11 4.9586Z" fill="#F5B955"/>
<path d="M14.3516 9.25117V10.7465C14.3516 12.0742 15.4301 13.1527 16.7578 13.1527C18.0855 13.1527 19.1641 12.0742 19.1641 10.7465V9.25117H14.3516Z" fill="#FFCDAC"/>
<path d="M14.3516 9.72383V9.14375C14.3516 7.81601 15.4301 6.7375 16.7578 6.7375C18.0855 6.7375 19.1641 7.81601 19.1641 9.14375V9.72383H17.5055C16.4656 9.72383 15.4473 9.44023 14.5578 8.90742" fill="#878791"/>
<path d="M10.9871 21.1406C10.8754 21.1406 10.7637 21.1879 10.682 21.2652C10.6004 21.3469 10.5574 21.4543 10.5574 21.5703C10.5574 21.6863 10.6047 21.7938 10.682 21.8754C10.7637 21.957 10.8711 22 10.9871 22C11.0988 22 11.2105 21.9527 11.2922 21.8754C11.3738 21.7938 11.4168 21.6863 11.4168 21.5703C11.4168 21.4543 11.3695 21.3469 11.2922 21.2652C11.2148 21.1879 11.1031 21.1406 10.9871 21.1406Z" fill="#021D45"/>
<path d="M19.7055 14.0551L18.2703 13.7113V13.1441C19.0652 12.6414 19.5938 11.7563 19.5938 10.7465V9.14375C19.5938 7.57969 18.3219 6.30781 16.7578 6.30781C15.9156 6.30781 15.1551 6.67734 14.6352 7.26602C14.1797 5.68906 12.723 4.5332 11 4.5332C9.27695 4.5332 7.81602 5.69336 7.36484 7.27461C6.84492 6.68164 6.08437 6.31211 5.23789 6.31211C3.67383 6.31211 2.40195 7.58398 2.40195 9.14805V10.7508C2.40195 11.7605 2.93047 12.6457 3.72539 13.1484V13.7156L2.29023 14.0594C0.945312 14.3773 0 15.5719 0 16.9641V19.8516C0 20.0879 0.193359 20.2812 0.429688 20.2812H3.86719V21.5703C3.86719 21.8066 4.06055 22 4.29688 22H9.01055C9.24687 22 9.44023 21.8066 9.44023 21.5703C9.44023 21.334 9.24687 21.1406 9.01055 21.1406H7.08984V19.25C7.08984 19.0137 6.89648 18.8203 6.66016 18.8203C6.42383 18.8203 6.23047 19.0137 6.23047 19.25V21.1406H4.72656V19.2027C4.72656 17.7461 5.71484 16.4914 7.13281 16.152L9.24687 15.6449L10.6047 18.7387C10.6734 18.8934 10.8281 18.9965 11 18.9965C11.1719 18.9965 11.3266 18.8977 11.3953 18.7387L12.7531 15.6492L14.8586 16.152C16.2766 16.4914 17.2691 17.7461 17.2691 19.2027V19.684C17.2477 19.7355 17.2348 19.7914 17.2348 19.8516C17.2348 19.9117 17.2477 19.9676 17.2691 20.0191V21.1406H15.7695V19.25C15.7695 19.0137 15.5762 18.8203 15.3398 18.8203C15.1035 18.8203 14.9102 19.0137 14.9102 19.25V21.1406H12.8047C12.5684 21.1406 12.375 21.334 12.375 21.5703C12.375 21.8066 12.5684 22 12.8047 22H17.6945C17.9309 22 18.1242 21.8066 18.1242 21.5703V20.2812H21.5703C21.8066 20.2812 22 20.0879 22 19.8516V16.9641C22 15.5719 21.0547 14.3773 19.7055 14.0551ZM17.4109 14.0723L16.7578 15.6449L16.109 14.0938C16.109 14.0766 16.1133 14.0637 16.1133 14.0465C16.1133 14.0422 16.1133 14.0379 16.1133 14.0336V13.5008C16.3238 13.548 16.5387 13.5781 16.7621 13.5781C16.9855 13.5781 17.2047 13.5523 17.4152 13.5008V14.0508C17.4109 14.0594 17.4109 14.068 17.4109 14.0723ZM9.06641 14.4203C8.7957 14.2527 8.49922 14.1281 8.18984 14.0551L6.75039 13.7113V13.1484C7.10703 12.925 7.41211 12.6199 7.63984 12.2633C7.96211 12.8949 8.46055 13.4277 9.06641 13.7887V14.4203ZM8.08242 10.5402V9.54766H9.28984C10.3855 9.54766 11.4254 9.11367 12.1945 8.34883L13.9219 9.36289V10.6434C13.8703 12.2074 12.5813 13.4664 11.0043 13.4664C9.39297 13.4621 8.08242 12.1516 8.08242 10.5402ZM12.9293 13.793C13.5395 13.4277 14.0422 12.8992 14.3687 12.2633C14.5965 12.6156 14.8973 12.9164 15.2539 13.1398V13.707L13.8145 14.0508C13.5008 14.1281 13.2043 14.2527 12.9293 14.4203V13.793ZM16.7578 12.723C15.6664 12.723 14.7812 11.8379 14.7812 10.7465V10.6777C14.7812 10.6348 14.7855 9.52188 14.7855 9.52188C15.632 9.93867 16.5602 10.1535 17.5055 10.1535H18.7344V10.7465C18.7344 11.8336 17.8492 12.723 16.7578 12.723ZM16.7578 7.16719C17.8492 7.16719 18.7344 8.05234 18.7344 9.14375V9.25117V9.29414H17.5055C16.5773 9.29414 15.6664 9.04922 14.8629 8.58945C15.1035 7.76875 15.8641 7.16719 16.7578 7.16719ZM8.08242 8.31016C8.08242 6.69883 9.39297 5.38828 11.0043 5.38828C12.6156 5.38828 13.9262 6.69883 13.9262 8.31016V8.36602L12.332 7.4293C12.1516 7.32187 11.9195 7.36484 11.7863 7.52383C11.1676 8.26289 10.2566 8.68828 9.29414 8.68828H8.08672V8.31016H8.08242ZM3.26562 9.14375C3.26562 8.05234 4.15078 7.16719 5.24219 7.16719C6.14023 7.16719 6.89648 7.76875 7.13711 8.58945C6.33359 9.05352 5.42266 9.29414 4.49453 9.29414H3.26562V9.25117V9.14375ZM3.26562 10.1535H4.49453C5.43984 10.1535 6.37227 9.93437 7.21875 9.51758V10.7422C7.21875 11.8336 6.33359 12.7188 5.24219 12.7188C4.15078 12.7188 3.26562 11.8336 3.26562 10.7422C3.26562 10.7465 3.26562 10.1535 3.26562 10.1535ZM5.24219 13.5824C5.46562 13.5824 5.68047 13.5566 5.89102 13.5051V14.025C5.89102 14.0336 5.89102 14.0422 5.89102 14.0508C5.89102 14.0637 5.89102 14.0766 5.89531 14.0895L5.24219 15.6449L4.58906 14.0809C4.58906 14.0723 4.58906 14.0594 4.58906 14.0508V13.5051C4.79961 13.5523 5.01445 13.5824 5.24219 13.5824ZM3.86719 19.2027V19.4219H2.57812V17.5141C2.57812 17.2777 2.38477 17.0844 2.14844 17.0844C1.91211 17.0844 1.71875 17.2777 1.71875 17.5141V19.4219H0.859375V16.9641C0.859375 15.9715 1.53398 15.1207 2.49648 14.8887L3.85859 14.5621L4.74805 16.6934C4.18945 17.3852 3.86719 18.2617 3.86719 19.2027ZM6.93086 15.3141C6.67734 15.3742 6.43672 15.4602 6.20469 15.5633L6.62148 14.5621L7.98359 14.8887C8.09102 14.9145 8.19414 14.9488 8.29297 14.9875L6.93086 15.3141ZM11 17.4969L9.92578 15.052V14.1668C10.2695 14.2699 10.6305 14.3258 11.0043 14.3258C11.3738 14.3258 11.7348 14.2699 12.0699 14.1711V15.0562L11 17.4969ZM13.6984 14.9918C13.8016 14.9488 13.9047 14.9145 14.0164 14.8887L15.3742 14.5621L15.7953 15.5676C15.5633 15.4602 15.3184 15.3742 15.0605 15.3141L13.6984 14.9918ZM21.1406 19.4219H20.2812V17.5141C20.2812 17.2777 20.0879 17.0844 19.8516 17.0844C19.6152 17.0844 19.4219 17.2777 19.4219 17.5141V19.4219H18.1242V19.2027C18.1242 18.2617 17.802 17.3895 17.2477 16.6977L18.1414 14.5621L19.5078 14.8887C20.4703 15.1207 21.1449 15.9715 21.1449 16.9641V19.4219H21.1406Z" fill="#021D45"/>
<path d="M9.56055 9.93438C9.44883 9.93438 9.33711 9.98164 9.25547 10.059C9.17383 10.1406 9.13086 10.248 9.13086 10.3641C9.13086 10.4801 9.17812 10.5875 9.25547 10.6691C9.33281 10.7508 9.44453 10.7938 9.56055 10.7938C9.67227 10.7938 9.78398 10.7465 9.86563 10.6691C9.94727 10.5875 9.99023 10.4801 9.99023 10.3641C9.99023 10.248 9.94297 10.1406 9.86563 10.059C9.78398 9.98164 9.67227 9.93438 9.56055 9.93438Z" fill="#021D45"/>
<path d="M12.4309 10.7938C12.5426 10.7938 12.6543 10.7465 12.7359 10.6691C12.8176 10.5875 12.8605 10.4801 12.8605 10.3641C12.8605 10.248 12.8133 10.1406 12.7359 10.059C12.6543 9.97734 12.5469 9.93438 12.4309 9.93438C12.3148 9.93438 12.2074 9.98164 12.1258 10.059C12.0441 10.1406 12.0012 10.248 12.0012 10.3641C12.0012 10.4801 12.0484 10.5875 12.1258 10.6691C12.2031 10.7508 12.3191 10.7938 12.4309 10.7938Z" fill="#021D45"/>
<path d="M11.825 11.507C11.6574 11.3395 11.3867 11.3395 11.2191 11.507C11.0902 11.6359 10.884 11.6359 10.7594 11.507C10.5918 11.3395 10.3211 11.3395 10.1535 11.507C9.98594 11.6746 9.98594 11.9453 10.1535 12.1129C10.3855 12.3449 10.6863 12.4609 10.9914 12.4609C11.2965 12.4609 11.5973 12.3449 11.8293 12.1129C11.9969 11.9496 11.9969 11.6746 11.825 11.507Z" fill="#021D45"/>
</svg>
