<svg width="181" height="306" viewBox="0 0 181 306" fill="none" xmlns="http://www.w3.org/2000/svg">
<mask id="mask0_1342_12127" style="mask-type:alpha" maskUnits="userSpaceOnUse" x="-108" y="0" width="289" height="306">
<rect x="-108" width="289" height="305.739" fill="#D9D9D9"/>
</mask>
<g mask="url(#mask0_1342_12127)">
<path opacity="0.03" d="M135.587 172.875C134.028 124.742 113.004 85.5676 68.9156 61.1922C23.36 35.9921 -22.4248 38.283 -66.6736 66.0719C-68.2784 67.0799 -69.9062 68.1108 -71.4653 69.2104C-75.959 72.4406 -80.7736 74.1588 -84.2814 68.5461C-87.3536 63.5977 -85.4507 59.222 -80.7048 55.7856C-63.097 43.0939 -43.7697 34.3884 -22.3789 30.5626C62.0148 15.4883 139.186 70.0352 150.604 155.326C161.792 238.83 101.93 309.986 23.8416 320.021C-54.7058 330.123 -126.994 274.889 -139.581 198.235C-140.934 189.988 -141.002 181.534 -142.24 173.264C-143.799 162.703 -151.457 155.922 -160.674 157.136C-170.807 158.465 -176.195 164.742 -176.493 174.959C-177.548 210.881 -188.965 242.839 -212.488 270.308C-235.209 296.859 -264.051 313.216 -298.212 319.127C-342.827 326.87 -382.88 315.507 -417.775 286.619C-451.157 258.967 -467.274 222.702 -470.232 180.068C-470.599 174.753 -470.002 169.324 -473.396 164.673C-477.866 158.533 -484.057 155.67 -491.37 157.296C-500.243 159.289 -504.874 166.071 -505.699 174.593C-506.938 187.078 -507.236 199.518 -510.491 211.889C-525.806 270.124 -574.801 312.163 -634.755 320.021C-720.524 331.269 -798.108 262.06 -798.452 179.014C-798.521 165.292 -805.766 156.976 -816.564 156.976C-827.799 156.976 -834.081 164.696 -834.379 178.831C-835.823 250.789 -890.71 310.055 -963.044 320.043C-1040.42 330.719 -1117.25 273.309 -1126.21 193.172C-1126.76 188.27 -1127.57 183.39 -1128.03 178.464C-1128.62 172.325 -1126.31 167.193 -1119.89 166.85C-1112.87 166.483 -1111.86 172.21 -1111.54 178.006C-1109.62 213.768 -1097.17 245.245 -1070.43 269.46C-1033.02 303.366 -989.203 314.064 -940.874 298.234C-892.613 282.426 -863.771 248.223 -852.995 198.67C-851.276 190.79 -850.886 182.863 -850.702 174.845C-850.267 156.174 -836.534 141.558 -818.903 140.573C-801.524 139.588 -786.622 151.684 -783.481 169.553C-780.661 185.612 -781.188 202.084 -775.388 217.8C-754.364 274.706 -701.013 309.139 -642.596 304.786C-581.656 300.25 -532.157 253.538 -523.399 194.638C-522.23 186.735 -522.138 178.694 -521.083 170.767C-518.63 152.279 -503.613 139.565 -485.753 140.55C-468.1 141.512 -454.137 156.105 -453.885 174.753C-453.403 210.858 -440.977 242.29 -415.024 267.1C-377.103 303.343 -331.891 314.683 -281.957 297.844C-232.985 281.327 -204.326 245.978 -194.903 195.097C-193.642 188.293 -193.138 181.534 -192.932 174.662C-192.336 155.509 -178.006 140.825 -159.848 140.527C-141.415 140.206 -126.696 154.181 -125.733 173.379C-123.418 220.091 -105.237 258.601 -65.1146 284.03C-21.0492 311.956 25.1713 313.102 70.36 287.077C113.05 262.495 134.234 224.214 135.587 172.875Z" fill="#E83D62"/>
<path opacity="0.05" d="M5.40826 292.002C-58.6952 292.025 -110.945 241.419 -112.367 177.892C-113.009 148.98 -131.511 128.728 -157.968 127.904C-184.541 127.102 -204.67 147.308 -205.977 176.792C-208.132 224.993 -230.601 260.388 -273.909 281.143C-348.032 316.63 -435.2 265.015 -440.587 183.252C-441.115 175.28 -441.115 167.239 -443.774 159.541C-451.271 137.915 -472.204 125.315 -495.062 128.683C-517.759 132.027 -533.831 150.882 -534.473 174.89C-535.803 226.574 -566.112 269.047 -613.502 285.702C-688.106 311.91 -767.799 257.272 -770.023 178.418C-770.848 148.751 -784.398 133.15 -813.882 128.133C-819.087 127.239 -824.291 126.483 -823.489 119.565C-822.686 112.623 -817.138 113.15 -812.094 113.333C-781.372 114.41 -755.098 141.374 -755.281 175.211C-755.533 221.488 -719.057 270.628 -662.496 277.18C-608.435 283.434 -553.754 239.746 -549.948 185.429C-549.49 178.968 -549.284 172.462 -548.344 166.07C-543.529 133.287 -516.429 111.478 -483.094 113.333C-451.89 115.074 -427.267 141.626 -426.579 174.318C-425.456 227.009 -388.406 269.689 -338.059 276.309C-274.826 284.603 -221.751 238.463 -220.261 173.882C-219.573 144.513 -201.094 121.649 -172.389 114.708C-146.092 108.339 -117.846 121.466 -104.778 145.91C-99.5966 155.601 -98.1523 166.047 -97.4874 176.769C-93.9337 232.828 -58.0762 270.72 -2.29523 277.409C50.0238 283.686 103.902 238.463 107.662 185.062C110.642 142.932 95.0291 109.233 59.0798 87.1023C23.1993 65.0178 -13.8961 66.0487 -50.1434 87.8354C-54.8434 90.6532 -59.9562 94.2042 -63.8766 87.6979C-67.6595 81.4208 -62.5469 78.1677 -57.8928 75.1208C12.6989 28.8213 109.519 73.1506 121.464 157.273C131.735 229.3 77.7195 291.979 5.40826 292.002Z" fill="#E83D62"/>
<path opacity="0.07" d="M-324.027 264.649C-372.334 264.557 -411.906 226.276 -413.098 178.487C-414.199 134.502 -439.854 106.003 -483.965 100.046C-489.421 99.3131 -495.956 99.6338 -495.084 92.0509C-494.19 84.1701 -487.885 83.6432 -481.122 84.5825C-430.316 91.5698 -398.333 126.896 -396.82 177.96C-395.628 217.868 -363.691 248.36 -323.133 248.292C-283.263 248.223 -251.143 217.593 -249.997 178.487C-248.415 124.788 -215.262 87.3545 -161.98 84.3763C-122.386 82.1541 -83.0205 106.69 -71.1902 154.753C-69.4707 161.764 -68.783 168.934 -68.7142 176.242C-68.3932 212.645 -38.4736 245.268 -3.12048 248.177C37.0244 251.476 70.6351 226.505 77.88 188.201C83.4741 158.648 73.5927 134.318 50.6658 116.335C26.0195 96.9993 -1.51559 94.8229 -29.7844 109.416C-35.1493 112.188 -41.2478 117.022 -45.3976 108.958C-49.1117 101.741 -43.357 98.1447 -37.5565 95.052C18.064 65.3846 84.0015 99.4047 94.5249 161.993C101.724 204.856 70.062 256.402 17.9493 264.259C-27.9731 271.178 -74.2395 238.074 -83.2726 191.454C-85.4736 180.16 -84.2585 168.751 -87.0327 157.48C-95.2405 124.17 -123.555 100.184 -160.536 100.138C-195.843 100.115 -225.098 126.69 -231.93 161.443C-234.567 174.891 -232.824 188.613 -237.501 202.015C-250.73 240.044 -283.951 264.718 -324.027 264.649Z" fill="#708092"/>
<path opacity="0.1" d="M68.2995 174.616C68.2995 207.995 42.1399 234.913 8.55205 236.104C-23.8436 237.25 -52.3187 211.82 -53.6943 178.602C-55.1387 143.413 -67.0377 113.975 -95.5358 92.303C-112.387 79.4738 -131.531 72.5324 -152.738 71.7763C-158.47 71.5702 -164.591 71.1578 -164.316 64.0789C-164.041 56.2668 -157.369 56.4043 -151.363 56.7708C-88.3138 60.6425 -41.566 109.622 -39.5943 173.883C-38.8148 199.678 -20.1294 219.793 4.17302 221.03C29.255 222.313 50.2102 205.154 53.3741 179.747C55.575 162.062 48.7428 147.4 34.4135 136.953C19.6257 126.163 3.43939 125.155 -13.2055 132.715C-15.9567 133.975 -18.387 135.945 -21.0694 137.365C-24.8065 139.359 -28.5894 139.473 -31.2718 135.739C-34.344 131.478 -32.7621 127.675 -28.9104 124.88C-15.2689 115.006 0.0920258 111.295 16.6223 113.861C46.7252 118.534 68.2765 144.124 68.2995 174.616Z" fill="#E83D62"/>
<path opacity="0.2" d="M-26.2283 175.097C-26.343 155.67 -11.7614 140.664 7.22198 140.641C25.9303 140.618 40.9702 156.105 40.8326 175.188C40.6951 192.783 24.9902 208.292 6.9468 208.682C-11.0508 209.048 -26.1137 193.791 -26.2283 175.097ZM-9.88149 175.166C-9.76686 185.085 -2.17803 192.851 7.29075 192.714C17.0347 192.577 24.761 183.963 24.44 173.562C24.1419 164.1 16.1405 156.724 6.37362 156.907C-3.11808 157.09 -9.99612 164.833 -9.88149 175.166Z" fill="#E83D62"/>
</g>
</svg>
