<svg width="2600" height="596" viewBox="0 0 2600 596" fill="none" xmlns="http://www.w3.org/2000/svg">
<g style="mix-blend-mode:multiply">
<path opacity="0.03" d="M2566.76 294.133C2563.59 196.37 2520.89 116.8 2431.34 67.2901C2338.81 16.1051 2245.82 20.7583 2155.94 77.2014C2152.68 79.2488 2149.37 81.3428 2146.21 83.5763C2137.08 90.1373 2127.3 93.6272 2120.18 82.2269C2113.94 72.176 2117.8 63.2884 2127.44 56.3086C2163.2 30.53 2202.46 12.8479 2245.91 5.07705C2417.32 -25.5409 2574.07 85.2514 2597.26 258.49C2619.99 428.098 2498.4 572.626 2339.79 593.007C2180.25 613.528 2033.42 501.339 2007.85 345.644C2005.11 328.892 2004.97 311.722 2002.45 294.924C1999.29 273.473 1983.73 259.699 1965.01 262.166C1944.43 264.864 1933.49 277.614 1932.88 298.367C1930.74 371.329 1907.55 436.241 1859.77 492.033C1813.62 545.963 1755.04 579.187 1685.65 591.192C1595.03 606.92 1513.68 583.84 1442.8 525.164C1375 469 1342.26 395.34 1336.26 308.744C1335.51 297.949 1336.72 286.921 1329.83 277.475C1320.75 265.004 1308.18 259.188 1293.32 262.491C1275.3 266.54 1265.89 280.313 1264.22 297.623C1261.7 322.983 1261.1 348.25 1254.48 373.377C1223.38 491.661 1123.86 577.047 1002.09 593.007C827.877 615.854 670.292 475.282 669.593 306.604C669.454 278.731 654.738 261.84 632.805 261.84C609.987 261.84 597.227 277.521 596.622 306.231C593.688 452.388 482.205 572.766 335.284 593.054C178.118 614.738 22.0702 498.129 3.86223 335.36C2.74461 325.402 1.11474 315.491 0.183385 305.487C-1.02737 293.016 3.67596 282.593 16.7149 281.895C30.9646 281.151 33.0136 292.784 33.6655 304.556C37.5772 377.192 62.8634 441.127 117.161 490.311C193.16 559.178 282.151 580.909 380.315 548.755C478.34 516.648 536.922 447.176 558.809 346.528C562.301 330.521 563.093 314.421 563.466 298.135C564.35 260.211 592.244 230.524 628.055 228.523C663.353 226.522 693.622 251.091 700.002 287.386C705.73 320.005 704.659 353.461 716.44 385.382C759.143 500.967 867.506 570.905 986.16 562.063C1109.94 552.85 1210.48 457.972 1228.27 338.338C1230.64 322.285 1230.83 305.952 1232.97 289.852C1237.95 252.301 1268.45 226.476 1304.73 228.477C1340.59 230.431 1368.95 260.072 1369.46 297.949C1370.44 371.283 1395.68 435.125 1448.39 485.519C1525.41 559.132 1617.25 582.165 1718.67 547.964C1818.14 514.415 1876.35 442.616 1895.49 339.269C1898.05 325.449 1899.07 311.722 1899.49 297.762C1900.7 258.862 1929.81 229.035 1966.69 228.43C2004.13 227.779 2034.03 256.163 2035.98 295.157C2040.68 390.035 2077.61 468.255 2159.11 519.906C2248.61 576.628 2342.49 578.955 2434.27 526.094C2520.98 476.166 2564.01 398.411 2566.76 294.133Z" fill="#EFF5FA"/>
<path opacity="0.05" d="M2302.35 536.099C2172.15 536.145 2066.02 433.356 2063.13 304.323C2061.83 245.6 2024.25 204.466 1970.51 202.791C1916.54 201.162 1875.65 242.203 1872.99 302.09C1868.62 399.993 1822.98 471.885 1735.01 514.043C1584.46 586.12 1407.41 481.284 1396.47 315.212C1395.4 299.019 1395.4 282.686 1389.99 267.051C1374.77 223.125 1332.25 197.533 1285.82 204.373C1239.72 211.167 1207.08 249.462 1205.77 298.228C1203.07 403.204 1141.51 489.474 1045.25 523.302C893.723 576.535 731.854 465.556 727.337 305.394C725.661 245.135 698.139 213.447 638.253 203.256C627.682 201.441 617.111 199.906 618.741 185.853C620.371 171.754 631.64 172.824 641.885 173.197C704.286 175.384 757.652 230.152 757.28 298.879C756.768 392.874 830.857 492.684 945.739 505.993C1055.55 518.696 1166.61 429.959 1174.34 319.632C1175.27 306.51 1175.69 293.295 1177.6 280.313C1187.38 213.726 1242.42 169.428 1310.13 173.197C1373.51 176.733 1423.52 230.664 1424.92 297.064C1427.2 404.088 1502.46 490.777 1604.72 504.224C1733.15 521.069 1840.96 427.354 1843.98 296.18C1845.38 236.527 1882.91 190.088 1941.22 175.989C1994.63 163.053 2052 189.715 2078.54 239.365C2089.07 259.048 2092 280.266 2093.35 302.043C2100.57 415.907 2173.4 492.871 2286.7 506.458C2392.97 519.208 2502.4 427.354 2510.04 318.888C2516.09 233.316 2484.38 164.867 2411.36 119.918C2338.48 75.061 2263.14 77.1549 2189.51 121.407C2179.97 127.13 2169.58 134.343 2161.62 121.128C2153.94 108.378 2164.32 101.77 2173.77 95.5815C2317.16 1.54064 2513.81 91.5798 2538.07 262.445C2558.94 408.741 2449.22 536.052 2302.35 536.099Z" fill="#EFF5FA"/>
<path opacity="0.07" d="M1633.22 480.54C1535.1 480.354 1454.72 402.599 1452.3 305.533C1450.07 216.192 1397.96 158.307 1308.36 146.208C1297.28 144.719 1284.01 145.371 1285.78 129.969C1287.59 113.962 1300.4 112.891 1314.14 114.799C1417.33 128.991 1482.29 200.744 1485.37 304.463C1487.79 385.522 1552.66 447.456 1635.03 447.316C1716.01 447.176 1781.26 384.963 1783.58 305.533C1786.8 196.463 1854.13 120.43 1962.36 114.38C2042.78 109.867 2122.74 159.703 2146.77 257.326C2150.26 271.565 2151.66 286.13 2151.79 300.973C2152.45 374.912 2213.22 441.174 2285.02 447.083C2366.56 453.784 2434.83 403.064 2449.55 325.263C2460.91 265.237 2440.84 215.82 2394.27 179.292C2344.21 140.02 2288.28 135.599 2230.87 165.24C2219.97 170.87 2207.58 180.688 2199.15 164.309C2191.61 149.652 2203.3 142.346 2215.08 136.064C2328.05 75.8056 2461.98 144.905 2483.36 272.03C2497.98 359.092 2433.67 463.788 2327.82 479.749C2234.55 493.801 2140.57 426.563 2122.22 331.87C2117.75 308.93 2120.22 285.757 2114.59 262.864C2097.92 195.206 2040.4 146.487 1965.29 146.394C1893.58 146.348 1834.16 200.325 1820.28 270.914C1814.92 298.228 1818.46 326.1 1808.96 353.322C1782.09 430.565 1714.62 480.679 1633.22 480.54Z" fill="#DBF4F2"/>
<path opacity="0.1" d="M2430.09 297.669C2430.09 365.466 2376.96 420.141 2308.73 422.561C2242.93 424.887 2185.1 373.237 2182.3 305.766C2179.37 234.293 2155.2 174.5 2097.32 130.48C2063.09 104.423 2024.21 90.3234 1981.13 88.7878C1969.49 88.3691 1957.05 87.5315 1957.61 73.1531C1958.17 57.2858 1971.72 57.565 1983.92 58.3095C2111.99 66.1734 2206.94 165.658 2210.94 296.18C2212.52 348.575 2250.48 389.43 2299.84 391.943C2350.78 394.549 2393.35 359.696 2399.77 308.092C2404.24 272.17 2390.37 242.39 2361.26 221.171C2331.23 199.254 2298.35 197.207 2264.54 212.563C2258.95 215.122 2254.02 219.124 2248.57 222.009C2240.98 226.057 2233.29 226.289 2227.85 218.705C2221.61 210.05 2224.82 202.326 2232.64 196.649C2260.35 176.593 2291.55 169.055 2325.13 174.267C2386.27 183.759 2430.04 235.735 2430.09 297.669Z" fill="#EFF5FA"/>
<path opacity="0.2" d="M2238.09 298.647C2237.86 259.188 2267.47 228.709 2306.03 228.663C2344.03 228.616 2374.58 260.072 2374.3 298.833C2374.02 334.569 2342.12 366.071 2305.47 366.862C2268.92 367.607 2238.32 336.617 2238.09 298.647ZM2271.29 298.786C2271.53 318.935 2286.94 334.709 2306.17 334.43C2325.96 334.151 2341.66 316.655 2341 295.529C2340.4 276.311 2324.15 261.328 2304.31 261.7C2285.03 262.073 2271.06 277.8 2271.29 298.786Z" fill="#F0E7D2"/>
</g>
</svg>
