<svg width="1120" height="596" viewBox="0 0 1120 596" fill="none" xmlns="http://www.w3.org/2000/svg">
<path opacity="0.03" d="M1086.76 294.133C1083.59 196.37 1040.89 116.8 951.341 67.2901C858.811 16.1051 765.815 20.7583 675.94 77.2014C672.68 79.2488 669.374 81.3428 666.207 83.5763C657.08 90.1373 647.301 93.6272 640.176 82.2269C633.936 72.176 637.801 63.2884 647.44 56.3086C683.204 30.53 722.461 12.8479 765.908 5.07705C937.324 -25.5409 1094.07 85.2514 1117.26 258.49C1139.99 428.098 1018.4 572.626 859.789 593.007C700.248 613.528 553.42 501.339 527.855 345.644C525.107 328.892 524.967 311.722 522.453 294.924C519.286 273.473 503.732 259.699 485.012 262.166C464.429 264.864 453.486 277.614 452.881 298.367C450.739 371.329 427.548 436.241 379.769 492.033C333.621 545.963 275.039 579.187 205.653 591.192C115.032 606.92 33.6786 583.84 -37.1974 525.164C-105 469 -137.737 395.34 -143.744 308.744C-144.489 297.949 -143.278 286.921 -150.17 277.475C-159.251 265.004 -171.824 259.188 -186.679 262.491C-204.701 266.54 -214.108 280.313 -215.784 297.623C-218.299 322.983 -218.904 348.25 -225.517 373.377C-256.624 491.661 -356.139 577.047 -477.914 593.007C-652.123 615.854 -809.708 475.282 -810.407 306.604C-810.546 278.731 -825.262 261.84 -847.195 261.84C-870.013 261.84 -882.773 277.521 -883.378 306.231C-886.312 452.388 -997.795 572.766 -1144.72 593.054C-1301.88 614.738 -1457.93 498.129 -1476.14 335.36C-1477.26 325.402 -1478.89 315.491 -1479.82 305.487C-1481.03 293.016 -1476.32 282.593 -1463.29 281.895C-1449.04 281.151 -1446.99 292.784 -1446.33 304.556C-1442.42 377.192 -1417.14 441.127 -1362.84 490.311C-1286.84 559.178 -1197.85 580.909 -1099.68 548.755C-1001.66 516.648 -943.078 447.176 -921.191 346.528C-917.698 330.521 -916.907 314.421 -916.534 298.135C-915.65 260.211 -887.756 230.524 -851.945 228.523C-816.647 226.522 -786.378 251.091 -779.998 287.386C-774.27 320.005 -775.341 353.461 -763.56 385.382C-720.857 500.967 -612.494 570.905 -493.84 562.063C-370.063 552.85 -269.523 457.972 -251.734 338.338C-249.359 322.285 -249.173 305.952 -247.031 289.852C-242.048 252.301 -211.547 226.476 -175.271 228.477C-139.413 230.431 -111.054 260.072 -110.542 297.949C-109.564 371.283 -84.3239 435.125 -31.6093 485.519C45.4137 559.132 137.245 582.165 238.669 547.964C338.138 514.415 396.348 442.616 415.487 339.269C418.048 325.449 419.073 311.722 419.492 297.762C420.702 258.862 449.807 229.035 486.689 228.43C524.129 227.779 554.026 256.163 555.981 295.157C560.685 390.035 597.613 468.255 679.106 519.906C768.609 576.628 862.49 578.955 954.274 526.094C1040.98 476.166 1084.01 398.411 1086.76 294.133Z" fill="#EFF5FA"/>
<path opacity="0.05" d="M822.348 536.099C692.145 536.145 586.017 433.356 583.13 304.323C581.826 245.6 544.246 204.466 490.507 202.791C436.535 201.162 395.649 242.203 392.994 302.09C388.617 399.993 342.981 471.885 255.014 514.043C104.461 586.12 -72.5891 481.284 -83.5325 315.212C-84.6035 299.019 -84.6035 282.686 -90.0054 267.051C-105.233 223.125 -147.749 197.533 -194.177 204.373C-240.279 211.167 -272.923 249.462 -274.227 298.228C-276.928 403.204 -338.49 489.474 -434.746 523.302C-586.277 576.535 -748.146 465.556 -752.663 305.394C-754.34 245.135 -781.861 213.447 -841.747 203.256C-852.318 201.441 -862.889 199.906 -861.259 185.853C-859.629 171.754 -848.36 172.824 -838.115 173.197C-775.714 175.384 -722.348 230.152 -722.72 298.879C-723.232 392.874 -649.143 492.684 -534.261 505.993C-424.454 518.696 -313.39 429.959 -305.66 319.632C-304.729 306.51 -304.31 293.295 -302.4 280.313C-292.621 213.726 -237.578 169.428 -169.869 173.197C-106.49 176.733 -56.4767 230.664 -55.0797 297.064C-52.7979 404.088 22.4555 490.777 124.718 504.224C253.152 521.069 360.956 427.354 363.983 296.18C365.38 236.527 402.913 190.088 461.216 175.989C514.629 163.053 572 189.715 598.544 239.365C609.068 259.048 612.002 280.266 613.353 302.043C620.571 415.907 693.402 492.871 806.701 506.458C912.969 519.208 1022.4 427.354 1030.04 318.888C1036.09 233.316 1004.38 164.867 931.363 119.918C858.484 75.061 783.138 77.1549 709.515 121.407C699.968 127.13 689.584 134.343 681.621 121.128C673.937 108.378 684.322 101.77 693.775 95.5815C837.157 1.54064 1033.81 91.5798 1058.07 262.445C1078.94 408.741 969.223 536.052 822.348 536.099Z" fill="#EFF5FA"/>
<path opacity="0.07" d="M153.217 480.54C55.0994 480.354 -25.2764 402.599 -27.6979 305.533C-29.9331 216.192 -82.0423 158.307 -171.638 146.208C-182.722 144.719 -195.993 145.371 -194.224 129.969C-192.408 113.962 -179.601 112.892 -165.864 114.799C-62.6701 128.992 2.29173 200.744 5.36519 304.463C7.78671 385.522 72.6554 447.456 155.034 447.316C236.015 447.177 301.256 384.963 303.584 305.533C306.798 196.463 374.134 120.43 482.358 114.381C562.78 109.867 642.737 159.703 666.766 257.326C670.258 271.565 671.655 286.13 671.795 300.973C672.447 374.913 733.218 441.174 805.025 447.083C886.565 453.784 954.833 403.064 969.548 325.263C980.911 265.237 960.84 215.82 914.272 179.293C864.212 140.02 808.285 135.599 750.867 165.24C739.97 170.87 727.583 180.688 719.154 164.309C711.61 149.652 723.299 142.346 735.08 136.064C848.053 75.8057 981.982 144.905 1003.36 272.031C1017.98 359.092 953.669 463.788 847.821 479.749C754.546 493.801 660.572 426.563 642.224 331.871C637.754 308.93 640.222 285.757 634.587 262.864C617.916 195.206 560.405 146.488 485.291 146.395C413.577 146.348 354.157 200.325 340.28 270.914C334.924 298.228 338.464 326.101 328.964 353.322C302.094 430.565 234.618 480.679 153.217 480.54Z" fill="#DBF4F2"/>
<path opacity="0.1" d="M950.089 297.669C950.089 365.466 896.955 420.141 828.734 422.561C762.934 424.887 705.097 373.237 702.303 305.766C699.369 234.293 675.2 174.499 617.317 130.48C583.089 104.422 544.205 90.3233 501.13 88.7878C489.488 88.369 477.055 87.5314 477.614 73.153C478.172 57.2857 491.724 57.5649 503.924 58.3094C631.985 66.1733 726.937 165.658 730.942 296.18C732.525 348.575 770.478 389.43 819.839 391.943C870.784 394.549 913.347 359.696 919.773 308.092C924.244 272.17 910.367 242.389 881.262 221.171C851.226 199.254 818.349 197.207 784.541 212.562C778.953 215.122 774.017 219.123 768.568 222.008C760.978 226.057 753.294 226.289 747.846 218.705C741.606 210.05 744.819 202.325 752.642 196.649C780.35 176.593 811.55 169.055 845.125 174.267C906.269 183.759 950.043 235.735 950.089 297.669Z" fill="#EFF5FA"/>
<path opacity="0.2" d="M758.09 298.647C757.857 259.188 787.475 228.709 826.033 228.663C864.032 228.616 894.58 260.072 894.301 298.833C894.021 334.569 862.122 366.071 825.474 366.863C788.918 367.607 758.323 336.617 758.09 298.647ZM791.293 298.786C791.526 318.935 806.94 334.709 826.172 334.43C845.963 334.151 861.657 316.655 861.005 295.529C860.399 276.312 844.147 261.328 824.309 261.701C805.03 262.073 791.06 277.801 791.293 298.786Z" fill="#F0E7D2"/>
</svg>
