<svg width="14" height="14" viewBox="0 0 14 14" fill="none" xmlns="http://www.w3.org/2000/svg">
<g clip-path="url(#clip0_1454_16398)">
<path d="M0.444711 5.01886H2.27921V12.787H0.444711V5.01886Z" fill="#00EFD1"/>
<path d="M1.36358 3.27561C0.791318 3.27561 0.327404 2.81169 0.327404 2.23943C0.327404 1.66716 0.791318 1.20325 1.36358 1.20325C1.93585 1.20325 2.39977 1.66716 2.39977 2.23943C2.39977 2.81169 1.93585 3.27561 1.36358 3.27561Z" fill="#F0E7D2"/>
<path d="M4.20493 7.37146H6.03943V12.7902H4.20493V7.37146Z" fill="#FEDB41"/>
<path d="M5.12056 5.63468C4.54829 5.63468 4.08438 5.17076 4.08438 4.5985C4.08438 4.02623 4.54829 3.56232 5.12056 3.56232C5.69282 3.56232 6.15674 4.02623 6.15674 4.5985C6.15674 5.17076 5.69282 5.63468 5.12056 5.63468Z" fill="#F0E7D2"/>
<path d="M7.96516 9.78595H9.79965V12.7902H7.96516V9.78595Z" fill="#00EFD1"/>
<path d="M8.88078 8.02964C8.30852 8.02964 7.8446 7.56572 7.8446 6.99346C7.8446 6.42119 8.30852 5.95728 8.88078 5.95728C9.45305 5.95728 9.91696 6.42119 9.91696 6.99346C9.91696 7.56572 9.45305 8.02964 8.88078 8.02964Z" fill="#F0E7D2"/>
<path d="M11.7221 9.11145H13.5566V12.7902H11.7221V9.11145Z" fill="#FEDB41"/>
<path d="M12.6378 7.34537C12.0655 7.34537 11.6016 6.88146 11.6016 6.30919C11.6016 5.73692 12.0655 5.27301 12.6378 5.27301C13.21 5.27301 13.6739 5.73692 13.6739 6.30919C13.6739 6.88146 13.21 7.34537 12.6378 7.34537Z" fill="#F0E7D2"/>
<path d="M1.36359 0.87738C2.11628 0.87738 2.72561 1.48671 2.72561 2.2394C2.72561 2.35997 2.70932 2.48053 2.67673 2.59783L4.1528 3.64379C4.68067 3.1094 5.54415 3.10289 6.07853 3.63075C6.45651 4.00547 6.58359 4.56266 6.40112 5.0612L7.76314 6.20817C8.19325 5.59233 9.04044 5.43918 9.65955 5.86929C9.89415 6.03221 10.0701 6.26682 10.1646 6.53401L11.2953 6.07457C11.4224 5.33165 12.1229 4.83311 12.8658 4.96019C13.6088 5.08727 14.1073 5.78783 13.9802 6.53075C13.8531 7.27367 13.1526 7.77221 12.4097 7.64514C11.9209 7.56368 11.5168 7.22154 11.3507 6.75558L10.22 7.21502C10.0962 7.95795 9.39235 8.45648 8.64943 8.33266C7.99449 8.22188 7.5155 7.65491 7.5155 6.99019C7.5155 6.94783 7.51876 6.90221 7.52202 6.85985L6.03617 5.60536C5.47898 6.11042 4.61876 6.07132 4.1137 5.51412C3.79112 5.15896 3.68033 4.66367 3.81718 4.20424L2.35741 3.16806C1.84258 3.71873 0.98235 3.7448 0.431676 3.23322C-0.118999 2.71839 -0.145066 1.85817 0.366508 1.30749C0.623923 1.03378 0.985609 0.87738 1.36359 0.87738ZM12.6377 7.01952C13.0288 7.01952 13.3481 6.70019 13.3481 6.30918C13.3481 5.91817 13.0288 5.59884 12.6377 5.59884C12.2467 5.59884 11.9274 5.91817 11.9274 6.30918C11.9274 6.70019 12.2467 7.01952 12.6377 7.01952ZM8.88078 7.70379C9.27179 7.70379 9.59112 7.38446 9.59112 6.99345C9.59112 6.60244 9.27179 6.28311 8.88078 6.28311C8.48977 6.28311 8.17044 6.60244 8.17044 6.99345C8.17044 7.38446 8.48651 7.70379 8.88078 7.70379ZM5.12055 5.3121C5.51157 5.3121 5.83089 4.99278 5.83089 4.60176C5.83089 4.21075 5.51157 3.89143 5.12055 3.89143C4.72954 3.89143 4.41022 4.21075 4.41022 4.60176C4.41022 4.99278 4.72954 5.30884 5.12055 5.3121ZM1.36359 2.94974C1.7546 2.94974 2.07392 2.63041 2.07392 2.2394C2.07392 1.84839 1.7546 1.52907 1.36359 1.52907C0.972575 1.52907 0.65325 1.84839 0.65325 2.2394C0.65325 2.63367 0.969316 2.94974 1.36359 2.94974Z" fill="#021D45"/>
<path d="M0.125386 5.00907C0.125386 4.82986 0.272015 4.68323 0.451229 4.68323H2.27595C2.45516 4.68323 2.60179 4.82986 2.60179 5.00907V12.7641C2.60179 12.9433 2.45516 13.09 2.27595 13.09H0.451229C0.272015 13.09 0.125386 12.9433 0.125386 12.7641V5.00907ZM0.777071 12.4709H1.95011V5.33491H0.777071V12.4709Z" fill="#021D45"/>
<path d="M3.87258 7.35514C3.87258 7.17593 4.01921 7.0293 4.19842 7.0293H6.02314C6.20235 7.0293 6.34898 7.17593 6.34898 7.35514V12.7641C6.34898 12.9433 6.20235 13.09 6.02314 13.09H4.19842C4.01921 13.09 3.87258 12.9433 3.87258 12.7641V7.35514ZM4.52426 12.4709H5.6973V7.68098H4.52426V12.4709Z" fill="#021D45"/>
<path d="M7.65235 9.79893C7.65235 9.61971 7.79898 9.47308 7.97819 9.47308H9.80291C9.98212 9.47308 10.1288 9.61971 10.1288 9.79893V12.7967C10.1288 12.9759 9.98212 13.1225 9.80291 13.1225H7.97819C7.79898 13.1225 7.65235 12.9759 7.65235 12.7967V9.79893ZM8.30403 12.4708H9.47707V10.1248H8.30403V12.4708Z" fill="#021D45"/>
<path d="M11.3995 9.11466C11.3995 8.93545 11.5462 8.78882 11.7254 8.78882H13.5501C13.7293 8.78882 13.8759 8.93545 13.8759 9.11466V12.7967C13.8759 12.9759 13.7293 13.1225 13.5501 13.1225H11.7254C11.5462 13.1225 11.3995 12.9759 11.3995 12.7967V9.11466ZM12.0512 12.4708H13.2243V9.4405H12.0512V12.4708Z" fill="#021D45"/>
</g>
<defs>
<clipPath id="clip0_1454_16398">
<rect width="14" height="14" fill="white" transform="matrix(-1 0 0 1 14 0)"/>
</clipPath>
</defs>
</svg>
