<svg width="269" height="479" viewBox="0 0 269 479" fill="none" xmlns="http://www.w3.org/2000/svg">
<path opacity="0.03" d="M240.785 250.127C238.098 167.182 201.868 99.6729 125.892 57.6673C47.3867 14.2404 -31.5133 18.1883 -107.766 66.0763C-110.532 67.8134 -113.337 69.5899 -116.024 71.4849C-123.767 77.0514 -132.064 80.0124 -138.109 70.34C-143.404 61.8126 -140.124 54.2721 -131.946 48.3502C-101.603 26.4789 -68.2964 11.4769 -31.4342 4.88393C114 -21.0932 246.988 72.9061 266.663 219.886C285.944 363.787 182.785 486.409 48.2166 503.7C-87.1423 521.111 -211.715 425.927 -233.406 293.83C-235.737 279.618 -235.855 265.05 -237.989 250.798C-240.675 232.598 -253.872 220.913 -269.754 223.005C-287.217 225.295 -296.502 236.112 -297.016 253.72C-298.833 315.623 -318.509 370.696 -359.045 418.031C-398.199 463.787 -447.902 491.975 -506.771 502.161C-583.656 515.505 -652.679 495.923 -712.812 446.14C-770.337 398.489 -798.112 335.994 -803.209 262.523C-803.841 253.364 -802.814 244.008 -808.661 235.994C-816.366 225.413 -827.033 220.478 -839.636 223.281C-854.927 226.716 -862.907 238.402 -864.33 253.088C-866.463 274.604 -866.977 296.041 -872.587 317.36C-898.98 417.715 -983.411 490.159 -1086.73 503.7C-1234.53 523.085 -1368.23 403.819 -1368.82 260.707C-1368.94 237.06 -1381.43 222.729 -1400.04 222.729C-1419.4 222.729 -1430.22 236.033 -1430.74 260.392C-1433.22 384.395 -1527.81 486.527 -1652.46 503.74C-1785.81 522.137 -1918.2 423.203 -1933.65 285.105C-1934.6 276.657 -1935.98 268.248 -1936.77 259.76C-1937.8 249.18 -1933.81 240.336 -1922.74 239.744C-1910.65 239.112 -1908.92 248.982 -1908.36 258.97C-1905.04 320.597 -1883.59 374.841 -1837.52 416.57C-1773.04 474.999 -1697.54 493.436 -1614.26 466.156C-1531.09 438.915 -1481.39 379.973 -1462.82 294.58C-1459.85 281 -1459.18 267.34 -1458.87 253.522C-1458.12 221.347 -1434.45 196.159 -1404.07 194.462C-1374.12 192.764 -1348.44 213.609 -1343.02 244.403C-1338.17 272.077 -1339.07 300.463 -1329.08 327.545C-1292.85 425.611 -1200.91 484.948 -1100.24 477.447C-995.224 469.63 -909.924 389.132 -894.831 287.632C-892.816 274.012 -892.658 260.155 -890.841 246.495C-886.613 214.636 -860.734 192.725 -829.957 194.422C-799.535 196.08 -775.474 221.229 -775.039 253.364C-774.209 315.583 -752.795 369.748 -708.071 412.504C-642.722 474.96 -564.81 494.502 -478.759 465.485C-394.367 437.02 -344.98 376.104 -328.742 288.422C-326.569 276.696 -325.7 265.05 -325.344 253.206C-324.317 220.202 -299.623 194.896 -268.332 194.383C-236.567 193.83 -211.202 217.912 -209.542 250.996C-205.552 331.493 -174.221 397.857 -105.08 441.679C-29.1427 489.804 50.5081 491.778 128.381 446.93C201.947 404.569 238.454 338.599 240.785 250.127Z" fill="#E83D62"/>
<path opacity="0.05" d="M16.4508 455.417C-94.0172 455.457 -184.059 368.248 -186.509 258.773C-187.615 208.95 -219.499 174.051 -265.093 172.63C-310.884 171.248 -345.573 206.068 -347.825 256.878C-351.539 339.942 -390.258 400.936 -464.891 436.704C-592.625 497.857 -742.839 408.911 -752.124 268.011C-753.032 254.272 -753.032 240.415 -757.616 227.15C-770.535 189.882 -806.607 168.169 -845.998 173.972C-885.112 179.736 -912.808 212.227 -913.914 253.601C-916.206 342.666 -968.437 415.859 -1050.1 444.561C-1178.67 489.725 -1316 395.567 -1319.83 259.681C-1321.26 208.556 -1344.61 181.67 -1395.41 173.025C-1404.38 171.485 -1413.35 170.182 -1411.97 158.259C-1410.59 146.297 -1401.02 147.205 -1392.33 147.521C-1339.39 149.377 -1294.11 195.843 -1294.43 254.154C-1294.86 333.901 -1232 418.584 -1134.53 429.875C-1041.37 440.652 -947.142 365.366 -940.583 271.761C-939.793 260.628 -939.437 249.416 -937.817 238.402C-929.521 181.907 -882.821 144.323 -825.374 147.521C-771.602 150.522 -729.169 196.278 -727.984 252.614C-726.048 343.416 -662.201 416.965 -575.438 428.374C-466.471 442.666 -375.007 363.155 -372.439 251.864C-371.254 201.252 -339.41 161.852 -289.944 149.89C-244.627 138.915 -195.951 161.536 -173.431 203.66C-164.502 220.36 -162.013 238.362 -160.867 256.838C-154.743 353.443 -92.9506 418.741 3.17554 430.269C93.3358 441.087 186.183 363.155 192.662 271.13C197.798 198.528 170.892 140.454 108.942 102.318C47.1099 64.26 -16.816 66.0366 -79.2802 103.581C-87.3796 108.437 -96.1902 114.556 -102.946 103.344C-109.465 92.527 -100.655 86.921 -92.6344 81.6703C29.0146 1.88332 195.863 78.2751 216.447 223.242C234.147 347.364 141.063 455.378 16.4508 455.417Z" fill="#E83D62"/>
<path opacity="0.07" d="M-551.258 408.28C-634.505 408.122 -702.698 342.153 -704.752 259.8C-706.649 184 -750.859 134.888 -826.875 124.624C-836.279 123.36 -847.539 123.913 -846.037 110.845C-844.497 97.2647 -833.631 96.3567 -821.976 97.9753C-734.423 110.016 -679.308 170.893 -676.7 258.892C-674.646 327.664 -619.61 380.21 -549.718 380.092C-481.011 379.973 -425.658 327.19 -423.683 259.8C-420.957 167.261 -363.826 102.752 -272.007 97.62C-203.774 93.7906 -135.937 136.073 -115.55 218.899C-112.587 230.98 -111.401 243.337 -111.283 255.931C-110.73 318.663 -59.1701 374.881 1.75323 379.895C70.934 385.579 128.855 342.547 141.34 276.539C150.98 225.611 133.951 183.684 94.442 152.693C51.9695 119.373 4.51886 115.622 -44.1961 140.771C-53.4413 145.547 -63.9507 153.878 -71.1019 139.981C-77.5024 127.545 -67.5856 121.347 -57.5897 116.017C38.2598 64.892 151.889 123.518 170.023 231.375C182.429 305.24 127.867 394.067 38.0623 407.609C-41.0749 419.531 -120.805 362.484 -136.371 282.145C-140.164 262.681 -138.07 243.021 -142.851 223.597C-156.995 166.195 -205.789 124.86 -269.518 124.782C-330.362 124.742 -380.776 170.538 -392.55 230.427C-397.093 253.601 -394.09 277.249 -402.15 300.344C-424.947 365.879 -482.196 408.398 -551.258 408.28Z" fill="#708092"/>
<path opacity="0.1" d="M124.83 253.127C124.83 310.648 79.7497 357.036 21.8686 359.089C-33.9581 361.063 -83.0286 317.241 -85.3992 259.997C-87.8883 199.357 -108.394 148.627 -157.504 111.28C-186.543 89.1714 -219.533 77.2093 -256.079 75.9065C-265.957 75.5512 -276.506 74.8406 -276.032 62.6416C-275.557 49.1793 -264.06 49.4162 -253.709 50.0478C-145.058 56.7198 -64.4988 141.126 -61.101 251.864C-59.7576 296.317 -27.5576 330.98 14.3223 333.112C57.5455 335.323 93.657 305.753 99.1093 261.971C102.902 231.493 91.1284 206.227 66.4351 188.224C40.9516 169.63 13.058 167.892 -15.6257 180.92C-20.3669 183.092 -24.5549 186.487 -29.1775 188.935C-35.6175 192.369 -42.1365 192.567 -46.7591 186.132C-52.0533 178.789 -49.3272 172.235 -42.6896 167.419C-19.1816 150.403 7.28958 144.008 35.7758 148.429C87.6515 156.483 124.79 200.581 124.83 253.127Z" fill="#E83D62"/>
<path opacity="0.2" d="M-38.0674 253.957C-38.265 220.479 -13.137 194.62 19.5767 194.58C51.8163 194.541 77.7343 221.229 77.4973 254.115C77.2602 284.434 50.1963 311.162 19.1025 311.833C-11.9123 312.464 -37.8699 286.171 -38.0674 253.957ZM-9.89729 254.075C-9.69975 271.169 3.37791 284.553 19.6952 284.316C36.4867 284.079 49.8013 269.235 49.2481 251.312C48.7345 235.007 34.9457 222.295 18.1148 222.61C1.75793 222.926 -10.0948 236.27 -9.89729 254.075Z" fill="#E83D62"/>
</svg>
