<svg width="40" height="40" viewBox="0 0 40 40" fill="none" xmlns="http://www.w3.org/2000/svg">
<g clip-path="url(#clip0_1240_30441)">
<path d="M18.7241 28.7004C18.7397 28.7352 19.2213 29.7887 20.4066 30.887C23.9701 30.8882 24.0061 30.8892 24.0412 30.8892H35.6364C35.6467 30.8074 35.6525 30.7241 35.6525 30.6395C35.6525 29.5742 34.7806 28.7023 33.7153 28.7023H30.3611" fill="#FDD8D7"/>
<path d="M20.4065 30.8872C21.7224 32.1061 23.905 33.3805 27.2815 33.3805H35.9949C36.6998 33.3805 37.3203 33.7623 37.659 34.3293C38.0966 33.9734 38.3774 33.4312 38.3774 32.8266C38.3774 31.7612 37.5055 30.8893 36.4401 30.8893H24.0411C24.006 30.8893 23.97 30.8884 20.4065 30.8872Z" fill="#FDD8D7"/>
<path d="M18.0674 36.0272L19.05 36.6351C19.9018 36.976 20.5735 37.2546 22.2669 37.2546H35.9949C37.0603 37.2546 37.9322 36.3831 37.9322 35.3177C37.9322 34.252 37.0603 33.3804 35.9949 33.3804H27.2816C20.8109 33.3804 18.7235 28.6996 18.7235 28.6996H26.3828C27.4088 28.6996 28.248 27.8601 28.248 26.8341C28.248 25.8081 27.4088 24.9686 26.3828 24.9686H18.3234C17.2413 23.877 15.7404 23.2007 14.0815 23.2007C12.4229 23.2007 10.922 23.877 9.83954 24.9686H6.08984V30.9229C9.32898 31.0333 10.1163 31.2256 10.6605 31.4435L11.8262 32.1649" fill="#FCD5C9"/>
<path d="M15.042 34.936C14.9904 34.936 14.9398 34.9314 14.8888 34.9213C14.8391 34.911 14.7896 34.8963 14.7429 34.8768C14.6959 34.8573 14.6508 34.8328 14.6077 34.8048C14.5656 34.7761 14.525 34.7431 14.489 34.7071C14.453 34.6711 14.42 34.6314 14.392 34.5884C14.3639 34.5463 14.3398 34.5008 14.3203 34.4541C14.3007 34.4065 14.2858 34.3571 14.2757 34.3079C14.2656 34.2573 14.2607 34.2057 14.2607 34.1547C14.2607 34.1041 14.2656 34.0525 14.2757 34.0025C14.2858 33.9524 14.3007 33.9033 14.3203 33.8563C14.3398 33.8087 14.3639 33.7635 14.392 33.7214C14.42 33.6784 14.453 33.6384 14.489 33.6024C14.525 33.5667 14.5656 33.5337 14.6077 33.5056C14.6508 33.4776 14.6959 33.4531 14.7429 33.4336C14.7896 33.4141 14.8391 33.3994 14.8888 33.3894C14.9898 33.3689 15.0936 33.3689 15.1943 33.3894C15.2443 33.3994 15.2938 33.4141 15.3405 33.4336C15.3875 33.4531 15.4326 33.4776 15.4756 33.5056C15.5178 33.5337 15.5577 33.5667 15.5938 33.6024C15.6304 33.6384 15.6624 33.6784 15.6914 33.7214C15.7195 33.7635 15.7436 33.8087 15.7631 33.8563C15.7827 33.9033 15.7976 33.9524 15.8077 34.0025C15.8177 34.0525 15.8226 34.1041 15.8226 34.1547C15.8226 34.3604 15.7396 34.5618 15.5938 34.7071C15.5577 34.7431 15.5178 34.7761 15.4756 34.8048C15.4326 34.8328 15.3875 34.8573 15.3405 34.8768C15.2938 34.8963 15.2443 34.911 15.1943 34.9213C15.1436 34.9314 15.093 34.936 15.042 34.936Z" fill="black"/>
<path d="M0.78125 23.5796H6.08978V31.8184H0.78125V23.5796Z" fill="#32A7F7"/>
<path d="M39.1586 32.8265C39.1586 31.3275 37.9391 30.108 36.4401 30.108H36.3812C36.1334 28.8626 35.032 27.9211 33.7149 27.9211H28.7958C28.9459 27.5894 29.0292 27.2214 29.0292 26.8344C29.0292 25.3751 27.8421 24.1876 26.3828 24.1876H18.6377C17.3901 23.0447 15.7852 22.4194 14.0814 22.4194C12.3779 22.4194 10.7727 23.045 9.52515 24.1876H6.87103V23.5797C6.87103 23.1482 6.5213 22.7985 6.08978 22.7985H0.78125C0.349731 22.7985 0 23.1482 0 23.5797V31.8185C0 32.2501 0.349731 32.5998 0.78125 32.5998H6.08978C6.5213 32.5998 6.87103 32.2501 6.87103 31.8185V31.7352C9.23706 31.8405 9.92004 31.9989 10.3104 32.1457L11.4151 32.8293C11.7822 33.0563 12.2635 32.9428 12.4905 32.576C12.7176 32.2092 12.6044 31.7276 12.2372 31.5006L11.0718 30.7791C11.033 30.7553 10.9927 30.7349 10.9506 30.7181C10.3839 30.4913 9.66949 30.2927 6.87134 30.1712V25.7501H9.83948C10.0479 25.7501 10.2478 25.6668 10.3943 25.5188C11.3766 24.5276 12.6862 23.9819 14.0814 23.9819C15.4767 23.9819 16.7862 24.5279 17.7686 25.5188C17.9153 25.6668 18.1149 25.7501 18.3234 25.7501H26.3828C26.9806 25.7501 27.4667 26.2366 27.4667 26.8344C27.4667 27.4323 26.9806 27.9184 26.3828 27.9184H18.7234C18.4589 27.9184 18.2123 28.0524 18.0682 28.2745C17.9242 28.4964 17.9022 28.7762 18.0099 29.0179C18.0344 29.072 18.6179 30.3586 20.0601 31.6269C21.3751 32.7832 23.6954 34.1617 27.2815 34.1617H35.9949C36.6321 34.1617 37.1509 34.6802 37.1509 35.3177C37.1509 35.9552 36.6324 36.4737 35.9949 36.4737H22.2668C20.7654 36.4737 20.1862 36.2485 19.4034 35.9354L18.4787 35.3629C18.1119 35.1358 17.6303 35.2493 17.4033 35.6162C17.1762 35.983 17.2894 36.4645 17.6562 36.6916L18.6389 37.2998C18.6774 37.3236 18.718 37.3441 18.7598 37.3608L18.797 37.3755C19.6826 37.7301 20.4477 38.0362 22.2668 38.0362H35.9949C37.4939 38.0362 38.7134 36.8167 38.7134 35.3177C38.7134 35.0543 38.6755 34.7992 38.6053 34.5581C38.9651 34.0973 39.1586 33.4995 39.1586 32.8265ZM5.30853 31.0373H1.5625V24.361H5.30853V31.0373ZM33.7149 29.4836C34.1608 29.4836 34.5486 29.7372 34.7412 30.108H20.7578C20.7468 30.108 20.7355 30.1083 20.7245 30.1086C20.5066 29.8911 20.3192 29.6783 20.1599 29.4809L33.7149 29.4836ZM35.9949 32.5992H27.2815C25.6485 32.5992 24.1895 32.2876 22.9214 31.6705H36.4401C37.0776 31.6705 37.5961 32.189 37.5961 32.8265C37.5961 32.9126 37.5903 33.0081 37.5742 33.1064C37.1289 32.7872 36.5833 32.5992 35.9949 32.5992Z" fill="black"/>
<path d="M31.8262 22.6608C27.7499 22.6608 24.4336 19.3442 24.4336 15.2673C24.4336 13.5947 25.2533 11.6174 27.0911 8.85681C28.2288 7.14783 29.3573 5.76111 29.4046 5.70282L31.8262 2.73438L34.2477 5.70282C34.295 5.76111 35.4236 7.14783 36.5613 8.85681C38.399 11.6174 39.2188 13.5947 39.2188 15.2673C39.2188 19.3442 35.9024 22.6608 31.8262 22.6608Z" fill="#FCD5C9"/>
<path d="M31.8262 23.4421C27.319 23.4421 23.6523 19.7748 23.6523 15.2673C23.6523 13.4311 24.5123 11.3205 26.4407 8.42377C27.6001 6.68274 28.7509 5.26825 28.7994 5.20905L31.221 2.2406C31.3693 2.05872 31.5915 1.95312 31.8262 1.95312C32.0609 1.95312 32.2833 2.05872 32.4316 2.2406L34.8532 5.20905C34.9014 5.26825 36.0526 6.68274 37.2116 8.42377C39.14 11.3205 40 13.4311 40 15.2673C40 19.7748 36.3333 23.4421 31.8262 23.4421ZM31.8262 3.97034L30.0101 6.19659C29.9634 6.25366 28.8593 7.61108 27.7414 9.28986C25.9943 11.9147 25.2148 13.7579 25.2148 15.2673C25.2148 18.9133 28.1808 21.8796 31.8262 21.8796C35.4715 21.8796 38.4375 18.9133 38.4375 15.2673C38.4375 13.7579 37.6584 11.9144 35.9109 9.28986C34.7934 7.61108 33.689 6.25366 33.6423 6.19659L31.8262 3.97034Z" fill="black"/>
<path d="M36.0937 15.2673C36.0937 17.6248 34.183 19.5358 31.8261 19.5358C29.4692 19.5358 27.5588 17.6248 27.5588 15.2673C27.5588 12.9095 31.8261 7.67822 31.8261 7.67822C31.8261 7.67822 36.0937 12.9095 36.0937 15.2673Z" fill="#F16477"/>
<path d="M31.8262 20.3171C29.0424 20.3171 26.7773 18.0518 26.7773 15.2673C26.7773 12.7054 30.766 7.742 31.2207 7.18445C31.369 7.00256 31.5915 6.89697 31.8262 6.89697C32.0609 6.89697 32.2833 7.00256 32.4316 7.18445C32.8864 7.742 36.875 12.7054 36.875 15.2673C36.875 18.0518 34.6103 20.3171 31.8262 20.3171ZM31.8262 8.93982C30.282 10.9579 28.3398 13.9362 28.3398 15.2673C28.3398 17.1902 29.9039 18.7546 31.8262 18.7546C33.7485 18.7546 35.3125 17.1902 35.3125 15.2673C35.3125 13.9365 33.3704 10.9579 31.8262 8.93982Z" fill="black"/>
</g>
<defs>
<clipPath id="clip0_1240_30441">
<rect width="40" height="40" fill="white"/>
</clipPath>
</defs>
</svg>
