<svg width="22" height="40" viewBox="0 0 22 40" fill="none" xmlns="http://www.w3.org/2000/svg">
<path d="M7.15625 34.0626H19.6562V39.2188H7.15625V34.0626Z" fill="#ED5575"/>
<path d="M18.875 11.7188C17.5804 11.7188 16.5312 12.768 16.5312 14.0625V12.5C16.5312 11.2064 15.4814 10.1563 14.1875 10.1563C12.8929 10.1563 11.8438 11.2055 11.8438 12.5C11.8438 11.2064 10.7939 10.1563 9.5 10.1563C8.20544 10.1563 7.15625 11.2055 7.15625 12.5C7.15625 11.2055 6.10706 10.1563 4.8125 10.1563C3.51794 10.1563 2.46875 11.2055 2.46875 12.5V17.2931C1.5343 17.8336 0.90625 18.8437 0.90625 20C0.90625 21.9672 1.36951 23.8767 2.22583 25.5899C3.08276 27.3032 4.33276 28.8196 5.90625 30C6.6936 30.5905 7.15625 31.5155 7.15625 32.5V34.0625H19.6562V32.5C20.6746 29.4434 21.2188 26.1969 21.2188 22.8711C21.2188 21.9471 21.2188 14.9863 21.2188 14.0625C21.2188 12.7689 20.1689 11.7188 18.875 11.7188Z" fill="#FFCEBF"/>
<path d="M11.0625 27.8126C11.0625 28.2441 10.7128 28.5938 10.2812 28.5938C9.84973 28.5938 9.5 28.2441 9.5 27.8126C9.5 27.381 9.84973 27.0313 10.2812 27.0313C10.7128 27.0313 11.0625 27.381 11.0625 27.8126Z" fill="black"/>
<path d="M18.875 10.9375C18.2326 10.9375 17.6348 11.1325 17.1376 11.4664C16.7156 10.2594 15.5623 9.375 14.1875 9.375C13.2552 9.375 12.4178 9.78577 11.8447 10.4355C11.2401 9.75067 10.3969 9.375 9.5 9.375C8.56738 9.375 7.72937 9.78638 7.15625 10.4364C6.58313 9.78638 5.74512 9.375 4.8125 9.375C3.08948 9.375 1.6875 10.777 1.6875 12.5V16.8765C0.714294 17.6089 0.125 18.7671 0.125 20C0.125 24.1632 2.08575 28.1104 5.4375 30.625C6.01764 31.0602 6.375 31.7493 6.375 32.5V39.2188C6.375 39.6503 6.72473 40 7.15625 40H19.6562C20.0878 40 20.4375 39.6503 20.4375 39.2188V32.6257C20.9459 31.0791 21.3356 29.4809 21.5969 27.8732C21.8645 26.2231 22 24.5401 22 22.8711C22 21.8607 22 15.0784 22 14.0625C22 12.3361 20.6017 10.9375 18.875 10.9375ZM18.875 12.5C19.738 12.5 20.4375 13.1995 20.4375 14.0625V19.2188C20.4375 20.0803 19.7365 20.7812 18.875 20.7812C18.0135 20.7812 17.3125 20.0803 17.3125 19.2188C17.3125 17.8909 17.3125 15.2789 17.3125 14.0625C17.3125 13.201 18.0135 12.5 18.875 12.5ZM14.1875 10.9375C15.0505 10.9375 15.75 11.637 15.75 12.5V17.6562C15.75 18.5178 15.049 19.2188 14.1875 19.2188C13.326 19.2188 12.625 18.5178 12.625 17.6562V12.5C12.625 11.6385 13.326 10.9375 14.1875 10.9375ZM9.5 10.9375C10.363 10.9375 11.0625 11.637 11.0625 12.5V16.0938H7.9375V12.5C7.9375 11.6385 8.63849 10.9375 9.5 10.9375ZM4.8125 10.9375C5.67401 10.9375 6.375 11.6385 6.375 12.5V16.0938H4.03125C3.76788 16.0938 3.50635 16.1209 3.25 16.1731V12.5C3.25 11.6385 3.95099 10.9375 4.8125 10.9375ZM7.9375 38.4375V34.8438H18.875V38.4375H7.9375ZM20.0548 27.623C19.5513 30.7202 18.875 32.1252 18.875 32.5V33.2812H7.9375V32.5C7.9375 31.2897 7.37354 30.1239 6.375 29.375C3.41296 27.1527 1.6875 23.6679 1.6875 20C1.6875 18.7302 2.71503 17.6553 4.03125 17.6553H10.9841C10.6212 19.4363 9.04254 20.7812 7.15625 20.7812H5.59375C5.16223 20.7812 4.8125 21.131 4.8125 21.5625C4.8125 21.994 5.16223 22.3438 5.59375 22.3438H6.375C7.86151 22.3438 9.15057 23.4 9.43988 24.8547C9.5235 25.275 9.93243 25.5533 10.3588 25.4684C10.7817 25.3845 11.0567 24.9731 10.9725 24.5499C10.7579 23.4711 10.1769 22.5388 9.37549 21.8713C10.3975 21.4154 11.256 20.6564 11.8328 19.7073C12.4062 20.3647 13.2488 20.7812 14.1875 20.7812C14.8305 20.7812 15.4286 20.5859 15.9261 20.2515C16.3536 21.4685 17.5136 22.3438 18.875 22.3438C19.4438 22.3438 19.9776 22.1902 20.4375 21.9232V22.8711C20.4375 24.4565 20.3087 26.0556 20.0548 27.623Z" fill="black"/>
<path d="M12.6248 5.46875V0.78125C12.6248 0.349731 12.275 0 11.8435 0C11.412 0 11.0623 0.349731 11.0623 0.78125V5.46875C11.0623 5.90027 11.412 6.25 11.8435 6.25C12.275 6.25 12.6248 5.90027 12.6248 5.46875Z" fill="black"/>
<path d="M17.8813 6.46274L21.1955 3.14761C21.5003 2.84244 21.5003 2.34805 21.1952 2.04288C20.89 1.7377 20.3956 1.7377 20.0904 2.04288L16.7762 5.3577C16.4714 5.66287 16.4714 6.15756 16.7765 6.46274C17.0817 6.76761 17.5761 6.76791 17.8813 6.46274Z" fill="black"/>
<path d="M7.36884 6.00462C7.67402 5.69944 7.67371 5.20475 7.36884 4.89988L4.05372 1.58567C3.74885 1.2808 3.25416 1.2808 2.94898 1.58598C2.64381 1.89085 2.64411 2.38554 2.94898 2.69071L6.2638 6.00492C6.56898 6.30979 7.06367 6.30979 7.36884 6.00462Z" fill="black"/>
</svg>
