<svg width="94" height="94" viewBox="0 0 94 94" fill="none" xmlns="http://www.w3.org/2000/svg">
<rect opacity="0.6" width="107" height="107" rx="53.5" transform="matrix(-1 -8.74228e-08 -8.74228e-08 1 107 -13)" fill="#41B9D5"/>
<g clip-path="url(#clip0_148_9576)">
<path d="M51.02 48.2683C50.7329 48.5555 50.2673 48.5555 49.9802 48.2683L48.3517 46.8547L38.59 37.093C35.8232 34.3262 35.8232 29.8402 38.59 27.0734C41.3569 24.3065 45.8428 24.3065 48.6097 27.0734L50.5001 28.9638L52.3905 27.0734C53.7739 25.6899 55.5872 24.9982 57.4004 24.9982C59.2135 24.9982 60.812 25.6899 62.1954 27.0734C64.9622 29.8402 64.9622 34.3262 62.1954 37.093L51.02 48.2683Z" fill="#FEC914"/>
<path d="M62.4101 27.0734C61.1706 25.8339 59.5862 25.1515 57.9659 25.0225C58.3991 25.297 58.8096 25.6213 59.1874 25.999H59.1875C61.9544 28.7659 61.9544 33.2518 59.1875 36.0187L48.3516 46.8547L49.9801 48.4832C50.2672 48.7703 50.7328 48.7703 51.0199 48.4832L62.4101 37.093C65.1769 34.3262 65.1769 29.8402 62.4101 27.0734V27.0734Z" fill="#FEC914"/>
<path d="M48.2101 66.8074H40.8585C40.118 66.8074 39.5157 66.2051 39.5157 65.4646V61.837C39.5157 61.7483 39.4639 61.6662 39.3838 61.628L26.4896 55.4741C25.9448 55.214 25.5244 54.7609 25.3057 54.1982L23.1616 48.6803C22.7053 47.506 23.2465 46.1783 24.3939 45.6578C25.5074 45.1531 26.811 45.5685 27.4263 46.6248L29.8781 50.8317L37.3933 53.6495C37.7864 53.7968 38.2243 53.6396 38.4335 53.2753C38.5508 53.0711 38.5788 52.8341 38.5122 52.6082C38.4455 52.3822 38.2935 52.1984 38.084 52.0906L36.1299 51.0846C34.9899 50.5147 34.5181 49.1111 35.0866 47.9598C35.6205 46.8785 36.8749 46.3813 38.0047 46.804L39.6648 47.4249C40.0816 47.5807 40.2931 48.0449 40.1371 48.4617C39.9813 48.8785 39.517 49.0902 39.1003 48.934L37.4403 48.3131C37.0887 48.1816 36.6978 48.3364 36.5315 48.6732C36.3545 49.0318 36.5014 49.4689 36.859 49.6477L38.8218 50.658C39.4263 50.9692 39.8654 51.4999 40.0579 52.1521C40.2503 52.8043 40.1698 53.4883 39.8311 54.0779C39.2268 55.1298 37.9638 55.5846 36.8279 55.1584L29.044 52.2398C28.8702 52.1747 28.7242 52.0515 28.6307 51.8911L26.0345 47.436C25.8366 47.0966 25.4177 46.9626 25.0599 47.1252C24.6912 47.2925 24.5171 47.7192 24.6638 48.0966L26.8079 53.6145C26.8774 53.7933 27.0109 53.9373 27.1841 54.0198L40.0779 60.1738C40.7153 60.4781 41.127 61.1309 41.127 61.8369V65.196H47.8973L46.0509 53.1482C45.889 52.0919 45.1667 51.2032 44.1659 50.8287L42.3622 50.1541C41.9455 49.9983 41.734 49.534 41.8897 49.1174C42.0457 48.7006 42.5101 48.4891 42.9266 48.645L44.7303 49.3196C46.2772 49.8981 47.3935 51.2716 47.6437 52.9041L49.5374 65.2612C49.5968 65.6487 49.4843 66.0416 49.229 66.3391C48.9737 66.6367 48.6022 66.8074 48.2101 66.8074V66.8074ZM47.9447 65.5052H47.9457H47.9447Z" fill="#166780"/>
<path d="M50.4999 49.5036C50.1054 49.5036 49.7107 49.3534 49.4103 49.0531L43.1172 42.76C42.8026 42.4452 42.8026 41.9352 43.1172 41.6205C43.4319 41.306 43.942 41.306 44.2566 41.6205L50.4999 47.8639L61.8402 36.5235C64.2886 34.0752 64.2886 30.0915 61.8402 27.6432C59.3921 25.1949 55.4083 25.1948 52.96 27.6432L51.0696 29.5336C50.7547 29.8482 50.2447 29.8482 49.9301 29.5336L48.0397 27.6432C46.8537 26.4572 45.2768 25.8041 43.5996 25.8041C41.9223 25.8041 40.3454 26.4572 39.1595 27.6432C36.7111 30.0915 36.7111 34.0751 39.1594 36.5236L41.7736 39.1377C42.0882 39.4524 42.0882 39.9625 41.7736 40.2771C41.459 40.5916 40.9488 40.5916 40.6343 40.2771L38.0201 37.6629C34.9435 34.5862 34.9435 29.5803 38.0201 26.5037C41.0965 23.4272 46.1025 23.4272 49.1792 26.5037L50.4999 27.8243L51.8206 26.5036C53.3109 25.0133 55.2924 24.1925 57.4 24.1925C59.5078 24.1925 61.4893 25.0133 62.9796 26.5036C64.4699 27.994 65.2907 29.9755 65.2907 32.0832C65.2907 34.1908 64.4699 36.1723 62.9796 37.6627L51.5896 49.0529C51.2891 49.3533 50.8946 49.5036 50.4999 49.5036V49.5036Z" fill="#166780"/>
<path d="M60.1415 66.8074H52.7898C52.3977 66.8074 52.0264 66.6367 51.771 66.3393C51.5155 66.0417 51.4032 65.6489 51.4626 65.2614L53.3564 52.9043C53.6065 51.2719 54.7228 49.8984 56.2696 49.3198L62.9954 46.8041C64.1252 46.3812 65.3795 46.8785 65.9135 47.9598C66.482 49.1112 66.0101 50.5149 64.8619 51.089L62.916 52.0907C62.7066 52.1986 62.5546 52.3824 62.4879 52.6083C62.4212 52.8342 62.4492 53.0713 62.5666 53.2755C62.7758 53.6399 63.2134 53.797 63.6068 53.6496L71.1219 50.8319L73.5737 46.6248C74.1892 45.5685 75.493 45.1528 76.6061 45.6579C77.7535 46.1786 78.2947 47.5062 77.8383 48.6804L75.6943 54.1983C75.4756 54.761 75.0551 55.2141 74.5105 55.4742L69.4524 57.8882C69.0513 58.0797 68.5699 57.9099 68.3783 57.5081C68.1867 57.1066 68.3568 56.6257 68.7584 56.434L73.8163 54.02C73.9893 53.9374 74.1228 53.7935 74.1924 53.6147L76.3364 48.0968C76.4832 47.7193 76.3092 47.2927 75.9405 47.1254C75.5828 46.9631 75.1638 47.0968 74.9658 47.4362L72.3696 51.8914C72.2762 52.0517 72.1302 52.1749 71.9563 52.24L64.1725 55.1586C63.0364 55.5843 61.7736 55.1299 61.1693 54.0782C60.8306 53.4885 60.7501 52.8046 60.9426 52.1523C61.1351 51.5001 61.5741 50.9695 62.1787 50.6583L64.1329 49.6523C64.499 49.4691 64.6458 49.032 64.4689 48.6734C64.3026 48.3368 63.9122 48.1821 63.56 48.3133L56.8343 50.8291C55.8335 51.2034 55.1111 52.0922 54.9492 53.1485L53.1028 65.1963H59.8731V61.8372C59.8731 61.1312 60.2848 60.4786 60.9219 60.1742L65.5878 57.9475C65.9891 57.7561 66.4704 57.9259 66.6619 58.3275C66.8536 58.7291 66.6834 59.21 66.2819 59.4016L61.6162 61.6283C61.5363 61.6664 61.4844 61.7485 61.4844 61.8372V65.4649C61.4843 66.205 60.882 66.8074 60.1415 66.8074V66.8074Z" fill="#166780"/>
</g>
<defs>
<clipPath id="clip0_148_9576">
<rect width="55" height="55" fill="white" transform="translate(23 18)"/>
</clipPath>
</defs>
</svg>
