<svg width="55" height="55" viewBox="0 0 55 55" fill="none" xmlns="http://www.w3.org/2000/svg">
<g clip-path="url(#clip0_1008_10705)">
<path d="M28.02 30.2683C27.7329 30.5555 27.2673 30.5555 26.9802 30.2683L25.3517 28.8547L15.59 19.093C12.8232 16.3262 12.8232 11.8402 15.59 9.07336C18.3569 6.30649 22.8428 6.30649 25.6097 9.07336L27.5001 10.9638L29.3905 9.07336C30.7739 7.68987 32.5872 6.99818 34.4004 6.99818C36.2135 6.99818 37.812 7.68987 39.1954 9.07336C41.9622 11.8402 41.9622 16.3262 39.1954 19.093L28.02 30.2683Z" fill="#FEC914"/>
<path d="M39.4101 9.07336C38.1706 7.83392 36.5862 7.15147 34.9659 7.02246C35.3991 7.29703 35.8096 7.62134 36.1874 7.99903H36.1875C38.9544 10.7659 38.9544 15.2518 36.1875 18.0187L25.3516 28.8547L26.9801 30.4832C27.2672 30.7703 27.7328 30.7703 28.0199 30.4832L39.4101 19.093C42.1769 16.3262 42.1769 11.8402 39.4101 9.07336Z" fill="#FEC914"/>
<path d="M25.2101 48.8074H17.8585C17.118 48.8074 16.5157 48.2051 16.5157 47.4646V43.837C16.5157 43.7483 16.4639 43.6662 16.3838 43.628L3.48962 37.4741C2.94477 37.214 2.52443 36.7609 2.30572 36.1982L0.161579 30.6803C-0.294749 29.506 0.24655 28.1783 1.39392 27.6578C2.50735 27.1531 3.81102 27.5685 4.42634 28.6248L6.87813 32.8317L14.3933 35.6495C14.7864 35.7968 15.2243 35.6396 15.4335 35.2753C15.5508 35.0711 15.5788 34.8341 15.5122 34.6082C15.4455 34.3822 15.2935 34.1984 15.084 34.0906L13.1299 33.0846C11.9899 32.5147 11.5181 31.1111 12.0866 29.9598C12.6205 28.8785 13.8749 28.3813 15.0047 28.804L16.6648 29.4249C17.0816 29.5807 17.2931 30.0449 17.1371 30.4617C16.9813 30.8785 16.517 31.0902 16.1003 30.934L14.4403 30.3131C14.0887 30.1816 13.6978 30.3364 13.5315 30.6732C13.3545 31.0318 13.5014 31.4689 13.859 31.6477L15.8218 32.658C16.4263 32.9692 16.8654 33.4999 17.0579 34.1521C17.2502 34.8043 17.1698 35.4883 16.8311 36.0779C16.2268 37.1298 14.9638 37.5846 13.8279 37.1584L6.044 34.2398C5.87019 34.1747 5.72421 34.0515 5.63075 33.8911L3.03447 29.436C2.8366 29.0966 2.41765 28.9626 2.05994 29.1252C1.69116 29.2925 1.51714 29.7192 1.66377 30.0966L3.80791 35.6145C3.87741 35.7933 4.01093 35.9373 4.1841 36.0198L17.0779 42.1738C17.7153 42.4781 18.127 43.1309 18.127 43.8369V47.196H24.8973L23.0509 35.1482C22.889 34.0919 22.1667 33.2032 21.1659 32.8287L19.3622 32.1541C18.9455 31.9983 18.734 31.534 18.8897 31.1174C19.0457 30.7006 19.5101 30.4891 19.9266 30.645L21.7303 31.3196C23.2772 31.8981 24.3935 33.2716 24.6437 34.9041L26.5374 47.2612C26.5968 47.6487 26.4843 48.0416 26.229 48.3391C25.9737 48.6367 25.6022 48.8074 25.2101 48.8074ZM24.9447 47.5052H24.9457H24.9447Z" fill="#166780"/>
<path d="M27.4999 31.5036C27.1054 31.5036 26.7107 31.3534 26.4103 31.0531L20.1172 24.76C19.8026 24.4452 19.8026 23.9352 20.1172 23.6205C20.4319 23.306 20.942 23.306 21.2566 23.6205L27.4999 29.8639L38.8402 18.5235C41.2886 16.0752 41.2886 12.0915 38.8402 9.64323C36.3921 7.19487 32.4083 7.19476 29.96 9.64323L28.0696 11.5336C27.7547 11.8482 27.2447 11.8482 26.9301 11.5336L25.0397 9.64323C23.8537 8.45719 22.2768 7.80406 20.5996 7.80406C18.9223 7.80406 17.3454 8.45719 16.1595 9.64323C13.7111 12.0915 13.7111 16.0751 16.1594 18.5236L18.7736 21.1377C19.0882 21.4524 19.0882 21.9625 18.7736 22.2771C18.459 22.5916 17.9488 22.5916 17.6343 22.2771L15.0201 19.6629C11.9435 16.5862 11.9435 11.5803 15.0201 8.5037C18.0965 5.42725 23.1025 5.42725 26.1792 8.5037L27.4999 9.82434L28.8206 8.50359C30.3109 7.01333 32.2924 6.19252 34.4 6.19252C36.5078 6.19252 38.4893 7.01333 39.9796 8.50359C41.4699 9.99396 42.2907 11.9755 42.2907 14.0832C42.2907 16.1908 41.4699 18.1723 39.9796 19.6627L28.5896 31.0529C28.2891 31.3533 27.8946 31.5036 27.4999 31.5036Z" fill="#166780"/>
<path d="M37.1415 48.8074H29.7898C29.3977 48.8074 29.0264 48.6367 28.771 48.3393C28.5155 48.0417 28.4032 47.6489 28.4626 47.2614L30.3564 34.9043C30.6065 33.2719 31.7228 31.8984 33.2696 31.3198L39.9954 28.8041C41.1252 28.3812 42.3795 28.8785 42.9135 29.9598C43.482 31.1112 43.0101 32.5149 41.8619 33.089L39.916 34.0907C39.7066 34.1986 39.5546 34.3824 39.4879 34.6083C39.4212 34.8342 39.4492 35.0713 39.5666 35.2755C39.7758 35.6399 40.2134 35.797 40.6068 35.6496L48.1219 32.8319L50.5737 28.6248C51.1892 27.5685 52.493 27.1528 53.6061 27.6579C54.7535 28.1786 55.2947 29.5062 54.8383 30.6804L52.6943 36.1983C52.4756 36.761 52.0551 37.2141 51.5105 37.4742L46.4524 39.8882C46.0513 40.0797 45.5699 39.9099 45.3783 39.5081C45.1867 39.1066 45.3568 38.6257 45.7584 38.434L50.8163 36.02C50.9893 35.9374 51.1228 35.7935 51.1924 35.6147L53.3364 30.0968C53.4832 29.7193 53.3092 29.2927 52.9405 29.1254C52.5828 28.9631 52.1638 29.0968 51.9658 29.4362L49.3696 33.8914C49.2762 34.0517 49.1302 34.1749 48.9563 34.24L41.1725 37.1586C40.0364 37.5843 38.7736 37.1299 38.1693 36.0782C37.8306 35.4885 37.7501 34.8046 37.9426 34.1523C38.1351 33.5001 38.5741 32.9695 39.1787 32.6583L41.1329 31.6523C41.499 31.4691 41.6458 31.032 41.4689 30.6734C41.3026 30.3368 40.9122 30.1821 40.56 30.3133L33.8343 32.8291C32.8335 33.2034 32.1111 34.0922 31.9492 35.1485L30.1028 47.1963H36.8731V43.8372C36.8731 43.1312 37.2848 42.4786 37.9219 42.1742L42.5878 39.9475C42.9891 39.7561 43.4704 39.9259 43.6619 40.3275C43.8536 40.7291 43.6834 41.21 43.2819 41.4016L38.6162 43.6283C38.5363 43.6664 38.4844 43.7485 38.4844 43.8372V47.4649C38.4843 48.205 37.882 48.8074 37.1415 48.8074Z" fill="#166780"/>
</g>
<defs>
<clipPath id="clip0_1008_10705">
<rect width="55" height="55" fill="white"/>
</clipPath>
</defs>
</svg>
