<svg width="15" height="15" viewBox="0 0 15 15" fill="none" xmlns="http://www.w3.org/2000/svg">
<g clip-path="url(#clip0_1454_16448)">
<path d="M0.946777 0.48999H10.1343C10.4967 0.48999 10.7905 0.783829 10.7905 1.14624V13.2869C10.7905 13.6493 10.4967 13.9431 10.1343 13.9431H0.946777C0.584366 13.9431 0.290527 13.6493 0.290527 13.2869V1.14624C0.290527 0.783829 0.584366 0.48999 0.946777 0.48999Z" fill="#79B2FF"/>
<path d="M7.68242 1.58374H9.69678V12.8494H1.38428V1.58374H3.39864" fill="white"/>
<path d="M4.06621 2.45874H7.01474C7.33571 2.45874 7.59579 2.19855 7.59579 1.87769V0.48999H3.48515V1.87769C3.48515 2.19855 3.74535 2.45874 4.06621 2.45874Z" fill="#FF6977"/>
<path d="M4.06621 2.45874H7.01474C7.33571 2.45874 7.59579 2.19855 7.59579 1.87769V0.48999H3.48515V1.87769C3.48515 2.19855 3.74535 2.45874 4.06621 2.45874Z" fill="#BDD9FF"/>
<path d="M9.30531 7.34116L12.5091 4.13734C12.7915 3.85493 13.2494 3.85493 13.5318 4.13734C13.8143 4.41975 13.8143 4.87766 13.5318 5.16006L10.328 8.36388L8.48447 9.18462L9.30531 7.34116Z" fill="#FFC15A"/>
<path d="M10.328 8.36391L9.30531 7.34119L8.48447 9.18465L10.328 8.36391Z" fill="#98A1B3"/>
<path d="M13.1802 5.51169L13.5318 5.16006C13.8143 4.87766 13.8143 4.41975 13.5318 4.13734C13.2494 3.85493 12.7915 3.85493 12.5091 4.13734L12.1575 4.48886L13.1802 5.51169Z" fill="#FF6977"/>
<path d="M2.69678 3.77124H4.44678V5.52124H2.69678V3.77124Z" fill="#CBE558"/>
<path d="M2.69678 6.77905H4.44678V8.52905H2.69678V6.77905Z" fill="#CBE558"/>
<path d="M2.69678 9.78687H4.44678V11.5369H2.69678V9.78687Z" fill="#FF6977"/>
<path d="M5.54053 12.5759C5.46864 12.5759 5.39804 12.6052 5.3472 12.656C5.29636 12.7069 5.26709 12.7775 5.26709 12.8494C5.26709 12.9212 5.29636 12.9919 5.3472 13.0427C5.39804 13.0935 5.46864 13.1228 5.54053 13.1228C5.61241 13.1228 5.68301 13.0935 5.73386 13.0427C5.7847 12.9919 5.81396 12.9212 5.81396 12.8494C5.81396 12.7775 5.7847 12.7069 5.73386 12.656C5.68301 12.6052 5.61241 12.5759 5.54053 12.5759Z" fill="black"/>
<path d="M13.7252 3.94406C13.3366 3.55548 12.7044 3.55548 12.3158 3.94406L11.064 5.19589V1.14624C11.064 0.633652 10.6469 0.216553 10.1343 0.216553H0.946777C0.434189 0.216553 0.0170898 0.633652 0.0170898 1.14624V13.2869C0.0170898 13.7995 0.434189 14.2166 0.946777 14.2166H10.1343C10.6469 14.2166 11.064 13.7995 11.064 13.2869V8.01476L13.7252 5.35344C14.1138 4.96486 14.1138 4.33264 13.7252 3.94406ZM10.5171 1.14624V5.74277L9.97021 6.28964V1.58374C9.97021 1.43271 9.84781 1.3103 9.69678 1.3103H7.86934V0.763428H10.1343C10.3453 0.763428 10.5171 0.935181 10.5171 1.14624ZM9.02408 8.64516L9.39322 7.81587L9.85336 8.27602L9.02408 8.64516ZM7.32246 0.763428V1.87769C7.32246 2.0473 7.18446 2.1853 7.01485 2.1853H4.06621C3.89659 2.1853 3.75859 2.0473 3.75859 1.87769V0.763428H7.32246ZM10.1343 13.6697H0.946777C0.735718 13.6697 0.563965 13.4979 0.563965 13.2869V1.14624C0.563965 0.935181 0.735718 0.763428 0.946777 0.763428H3.21172V1.3103H1.38428C1.23325 1.3103 1.11084 1.43271 1.11084 1.58374V12.8494C1.11084 13.0004 1.23325 13.1228 1.38428 13.1228H4.44678C4.59781 13.1228 4.72021 13.0004 4.72021 12.8494C4.72021 12.6983 4.59781 12.5759 4.44678 12.5759H1.65771V1.85718H3.21172V1.87769C3.21172 2.34883 3.59506 2.73218 4.06621 2.73218H7.01485C7.48599 2.73218 7.86934 2.34883 7.86934 1.87769V1.85718H9.42334V6.83652L9.11188 7.14787C9.08827 7.17159 9.06915 7.19946 9.05548 7.23001L8.23474 9.07347C8.18871 9.17697 8.21114 9.29799 8.29114 9.3781C8.34358 9.43044 8.41354 9.45821 8.48457 9.45821C8.52217 9.45821 8.55998 9.45052 8.59576 9.4346L9.42334 9.0661V12.5759H6.63428C6.48325 12.5759 6.36084 12.6983 6.36084 12.8494C6.36084 13.0004 6.48325 13.1228 6.63428 13.1228H9.69678C9.8477 13.1228 9.97021 13.0004 9.97021 12.8494V8.82257L10.4392 8.61375C10.4681 8.60094 10.4942 8.5831 10.5171 8.5612V13.2869C10.5171 13.4979 10.3453 13.6697 10.1343 13.6697ZM12.3193 5.98587L10.328 7.97726L9.69197 7.3412L12.1575 4.87567L12.7936 5.51173L12.3193 5.98587ZM13.3385 4.96678L13.1802 5.12497L12.5443 4.48901L12.7025 4.33083C12.8778 4.15544 13.1631 4.15544 13.3385 4.33083C13.5138 4.5061 13.5138 4.7914 13.3385 4.96678Z" fill="black"/>
<path d="M4.44678 3.4978H2.69678C2.54575 3.4978 2.42334 3.62021 2.42334 3.77124V5.52124C2.42334 5.67227 2.54575 5.79468 2.69678 5.79468H4.44678C4.59781 5.79468 4.72021 5.67227 4.72021 5.52124V3.77124C4.72021 3.62021 4.59781 3.4978 4.44678 3.4978ZM4.17334 5.2478H2.97021V4.04468H4.17334V5.2478Z" fill="black"/>
<path d="M4.44678 6.50562H2.69678C2.54575 6.50562 2.42334 6.62802 2.42334 6.77905V8.52905C2.42334 8.68008 2.54575 8.80249 2.69678 8.80249H4.44678C4.59781 8.80249 4.72021 8.68008 4.72021 8.52905V6.77905C4.72021 6.62802 4.59781 6.50562 4.44678 6.50562ZM4.17334 8.25562H2.97021V7.05249H4.17334V8.25562Z" fill="black"/>
<path d="M4.44678 9.51343H2.69678C2.54575 9.51343 2.42334 9.63583 2.42334 9.78687V11.5369C2.42334 11.6879 2.54575 11.8103 2.69678 11.8103H4.44678C4.59781 11.8103 4.72021 11.6879 4.72021 11.5369V9.78687C4.72021 9.63583 4.59781 9.51343 4.44678 9.51343ZM4.17334 11.2634H2.97021V10.0603H4.17334V11.2634Z" fill="black"/>
<path d="M6.40399 5.45679C6.45739 5.51019 6.52736 5.5369 6.59732 5.5369C6.66728 5.5369 6.73724 5.51019 6.79065 5.45679L8.02517 4.22226C8.13188 4.11555 8.13188 3.94241 8.02517 3.8356C7.91836 3.72879 7.74522 3.72879 7.63841 3.8356L6.59732 4.87669L6.18235 4.46173C6.07554 4.35492 5.90251 4.35492 5.79559 4.46173C5.68888 4.56854 5.68888 4.74168 5.79559 4.84839L6.40399 5.45679Z" fill="black"/>
<path d="M6.40399 8.46464C6.45526 8.51591 6.52479 8.54475 6.59732 8.54475C6.66984 8.54475 6.73938 8.51591 6.79065 8.46464L8.02517 7.23022C8.13188 7.12341 8.13188 6.95027 8.02517 6.84346C7.91836 6.73675 7.74522 6.73675 7.63841 6.84346L6.59732 7.88465L6.18235 7.46969C6.07554 7.36288 5.90251 7.36288 5.79559 7.46969C5.68888 7.5764 5.68888 7.74954 5.79559 7.85635L6.40399 8.46464Z" fill="black"/>
<path d="M6.91038 11.0486L7.33432 11.4724C7.38772 11.5258 7.45768 11.5525 7.52765 11.5525C7.59761 11.5525 7.66757 11.5258 7.72097 11.4724C7.82779 11.3656 7.82779 11.1925 7.72097 11.0858L7.29715 10.6618L7.72097 10.2379C7.82779 10.1312 7.82779 9.95804 7.72097 9.85123C7.61416 9.74442 7.44113 9.74442 7.33432 9.85123L6.91038 10.2751L6.48655 9.85123C6.37974 9.74452 6.20671 9.74442 6.09979 9.85123C5.99308 9.95804 5.99308 10.1312 6.09979 10.2379L6.52372 10.6618L6.09979 11.0858C5.99308 11.1925 5.99308 11.3656 6.09979 11.4724C6.15319 11.5258 6.22326 11.5525 6.29322 11.5525C6.36319 11.5525 6.43315 11.5258 6.48655 11.4724L6.91038 11.0486Z" fill="black"/>
</g>
<defs>
<clipPath id="clip0_1454_16448">
<rect width="14" height="14" fill="white" transform="translate(0.0170898 0.216553)"/>
</clipPath>
</defs>
</svg>
