<svg width="64" height="60" viewBox="0 0 64 60" fill="none" xmlns="http://www.w3.org/2000/svg">
<mask id="mask0_1240_22766" style="mask-type:alpha" maskUnits="userSpaceOnUse" x="0" y="0" width="64" height="60">
<ellipse cx="31.7819" cy="30" rx="31.4069" ry="30" fill="#D9D9D9"/>
</mask>
<g mask="url(#mask0_1240_22766)">
<ellipse cx="31.7819" cy="30" rx="31.4069" ry="30" fill="#A3B2C2"/>
<path d="M164.846 27.5057C164.358 13.4194 157.772 1.9547 143.962 -5.17891C129.693 -12.5539 115.351 -11.8834 101.491 -3.75085C100.988 -3.45585 100.478 -3.15415 99.99 -2.83233C98.5825 -1.88699 97.0743 -1.38415 95.9756 -3.02676C95.0133 -4.47494 95.6093 -5.7555 97.0959 -6.76118C102.611 -10.4755 108.665 -13.0232 115.366 -14.1429C141.801 -18.5544 165.973 -2.59097 169.55 22.37C173.054 46.808 154.303 67.6322 129.843 70.5688C105.24 73.5255 82.5965 57.3609 78.6539 34.9276C78.2302 32.5139 78.2086 30.04 77.8208 27.6196C77.3325 24.5288 74.9339 22.5443 72.0469 22.8996C68.8727 23.2885 67.1851 25.1255 67.0917 28.1158C66.7614 38.6285 63.185 47.9813 55.8168 56.02C48.7 63.7906 39.6656 68.5776 28.9653 70.3074C14.9901 72.5735 2.44406 69.248 -8.48613 60.7936C-18.9424 52.7013 -23.9909 42.088 -24.9173 29.6109C-25.0322 28.0554 -24.8455 26.4664 -25.9084 25.1054C-27.3088 23.3086 -29.2478 22.4706 -31.5387 22.9466C-34.3179 23.5299 -35.7685 25.5144 -36.0271 28.0085C-36.4149 31.6625 -36.5082 35.303 -37.528 38.9235C-42.3252 55.9664 -57.672 68.2692 -76.4516 70.5688C-103.317 73.8608 -127.62 53.6064 -127.727 29.3025C-127.749 25.2865 -130.018 22.8527 -133.401 22.8527C-136.92 22.8527 -138.887 25.1121 -138.981 29.2488C-139.433 50.3078 -156.626 67.6524 -179.283 70.5755C-203.521 73.6998 -227.586 56.8983 -230.394 33.4459C-230.566 32.0111 -230.817 30.583 -230.961 29.1416C-231.148 27.3447 -230.422 25.8429 -228.412 25.7424C-226.214 25.6351 -225.898 27.3112 -225.797 29.0075C-225.194 39.4732 -221.295 48.6853 -212.921 55.7719C-201.201 65.6946 -187.477 68.8257 -172.339 64.1928C-157.222 59.5667 -148.187 49.5568 -144.812 35.055C-144.273 32.7486 -144.151 30.4288 -144.094 28.0822C-143.957 22.6181 -139.656 18.3406 -134.133 18.0523C-128.69 17.764 -124.022 21.304 -123.038 26.5335C-122.154 31.2334 -122.32 36.0539 -120.503 40.6532C-113.917 57.3073 -97.2061 67.3842 -78.9077 66.1103C-59.8193 64.7828 -44.3145 51.1123 -41.5712 33.875C-41.2049 31.5619 -41.1762 29.2086 -40.8459 26.8888C-40.0774 21.4783 -35.3736 17.7573 -29.7792 18.0456C-24.2495 18.3272 -19.8759 22.5979 -19.797 28.0554C-19.6461 38.6218 -15.7538 47.8204 -7.62434 55.0814C4.25381 65.6879 18.4157 69.0067 34.0569 64.0788C49.3965 59.2449 58.3734 48.8998 61.325 34.009C61.72 32.0178 61.8779 30.04 61.9426 28.0286C62.1293 22.4236 66.6177 18.126 72.3054 18.0389C78.0793 17.945 82.6898 22.0348 82.9915 27.6532C83.7168 41.3237 89.4117 52.594 101.979 60.036C115.782 68.2088 130.26 68.5441 144.415 60.9277C157.786 53.7338 164.422 42.5305 164.846 27.5057Z" fill="#708092"/>
<path d="M124.203 62.2609C104.106 62.2676 87.7249 47.5421 87.2793 29.0569C87.078 20.6443 81.2774 14.7514 72.9825 14.5114C64.6518 14.2781 58.3408 20.1576 57.9311 28.737C57.2554 42.7625 50.2113 53.0617 36.6334 59.1012C13.3949 69.427 -13.9334 54.4082 -15.6226 30.6168C-15.7879 28.297 -15.7879 25.9572 -16.6217 23.7174C-18.9722 17.4245 -25.5347 13.7582 -32.701 14.7381C-39.817 15.7113 -44.8558 21.1976 -45.057 28.1837C-45.4739 43.2225 -54.9763 55.5815 -69.8337 60.4278C-93.2231 68.0538 -118.208 52.1551 -118.905 29.2103C-119.164 20.5776 -123.412 16.038 -132.656 14.5781C-134.287 14.3181 -135.919 14.0981 -135.668 12.085C-135.416 10.0651 -133.677 10.2184 -132.095 10.2718C-122.463 10.5851 -114.226 18.4311 -114.284 28.277C-114.363 41.7426 -102.927 56.0414 -85.1942 57.948C-68.2451 59.7678 -51.102 47.0555 -49.9088 31.2501C-49.7651 29.3702 -49.7004 27.4771 -49.4057 25.6172C-47.8962 16.078 -39.4001 9.73181 -28.9489 10.2718C-19.1662 10.7784 -11.4464 18.5044 -11.2308 28.017C-10.8786 43.3491 0.737045 55.7681 16.5217 57.6946C36.3459 60.1078 52.9858 46.6822 53.453 27.8904C53.6687 19.3444 59.4621 12.6916 68.4613 10.6717C76.7058 8.81855 85.5614 12.6382 89.6585 19.751C91.2829 22.5708 91.7357 25.6105 91.9442 28.7303C93.0583 45.0423 104.3 56.0681 121.788 58.0146C138.191 59.8411 155.083 46.6822 156.261 31.1434C157.196 18.8844 152.301 9.07853 141.03 2.63905C129.781 -3.78711 118.151 -3.48713 106.787 2.85236C105.314 3.6723 103.711 4.70555 102.482 2.81237C101.296 0.985845 102.899 0.0392542 104.358 -0.847342C126.489 -14.3196 156.844 -1.42063 160.589 23.0574C163.809 44.0157 146.874 62.2543 124.203 62.2609Z" fill="#708092"/>
<path d="M20.4494 55.3831C5.30428 55.3553 -7.10225 43.7301 -7.47603 29.2178C-7.82105 15.8603 -15.8645 7.20576 -29.6942 5.39694C-31.405 5.17431 -33.4536 5.27171 -33.1804 2.96894C-32.9001 0.575726 -30.9233 0.415715 -28.8029 0.700952C-12.8742 2.82284 -2.84694 13.5506 -2.37253 29.0577C-1.99875 41.1769 8.01416 50.4367 20.7298 50.4158C33.2297 50.3949 43.3002 41.0934 43.6596 29.2178C44.1556 12.9105 54.5494 1.54275 71.2544 0.638339C83.6681 -0.0364913 96.0099 7.41447 99.719 22.0103C100.258 24.1391 100.474 26.3167 100.495 28.536C100.596 39.5907 109.976 49.4975 121.06 50.381C133.646 51.3828 144.184 43.7997 146.455 32.1675C148.209 23.193 145.111 15.8046 137.923 10.3434C130.196 4.47166 121.563 3.81074 112.701 8.24236C111.019 9.08416 109.107 10.5521 107.805 8.10322C106.641 5.91176 108.445 4.8195 110.264 3.88031C127.702 -5.12903 148.375 5.20214 151.674 24.2087C153.931 37.2253 144.004 52.8786 127.666 55.2648C113.268 57.3658 98.763 47.313 95.9309 33.1554C95.2408 29.7256 95.6218 26.261 94.752 22.8382C92.1787 12.7227 83.3015 5.43868 71.7072 5.42477C60.6377 5.41781 51.4658 13.4879 49.3237 24.0417C48.4971 28.1255 49.0434 32.2928 47.577 36.3626C43.4296 47.9113 33.0141 55.404 20.4494 55.3831Z" fill="#F0E7D2"/>
</g>
</svg>
