<svg width="64" height="60" viewBox="0 0 64 60" fill="none" xmlns="http://www.w3.org/2000/svg">
<mask id="mask0_198_9667" style="mask-type:alpha" maskUnits="userSpaceOnUse" x="0" y="0" width="64" height="60">
<ellipse cx="31.7819" cy="30" rx="31.4069" ry="30" fill="#D9D9D9"/>
</mask>
<g mask="url(#mask0_198_9667)">
<ellipse cx="31.7819" cy="30" rx="31.4069" ry="30" fill="#FBF0DC"/>
<path d="M164.846 27.5055C164.358 13.4193 157.772 1.95458 143.962 -5.17904C129.693 -12.554 115.351 -11.8836 101.491 -3.75097C100.988 -3.45597 100.478 -3.15427 99.99 -2.83245C98.5825 -1.88711 97.0743 -1.38427 95.9756 -3.02688C95.0133 -4.47506 95.6093 -5.75562 97.0959 -6.7613C102.611 -10.4756 108.665 -13.0233 115.366 -14.143C141.801 -18.5546 165.973 -2.59109 169.55 22.3699C173.054 46.8079 154.303 67.6321 129.843 70.5687C105.24 73.5254 82.5965 57.3608 78.6539 34.9274C78.2302 32.5138 78.2086 30.0398 77.8208 27.6195C77.3325 24.5287 74.9339 22.5442 72.0469 22.8995C68.8727 23.2884 67.1851 25.1254 67.0917 28.1156C66.7614 38.6283 63.185 47.9812 55.8168 56.0199C48.7 63.7904 39.6656 68.5775 28.9653 70.3072C14.9901 72.5734 2.44406 69.2479 -8.48613 60.7935C-18.9424 52.7011 -23.9909 42.0879 -24.9173 29.6108C-25.0322 28.0553 -24.8455 26.4663 -25.9084 25.1053C-27.3088 23.3085 -29.2478 22.4704 -31.5387 22.9465C-34.3179 23.5297 -35.7685 25.5143 -36.0271 28.0084C-36.4149 31.6623 -36.5082 35.3029 -37.528 38.9233C-42.3252 55.9662 -57.672 68.2691 -76.4516 70.5687C-103.317 73.8606 -127.62 53.6063 -127.727 29.3023C-127.749 25.2863 -130.018 22.8526 -133.401 22.8526C-136.92 22.8526 -138.887 25.112 -138.981 29.2487C-139.433 50.3076 -156.626 67.6522 -179.283 70.5754C-203.521 73.6997 -227.586 56.8982 -230.394 33.4457C-230.566 32.011 -230.817 30.5829 -230.961 29.1414C-231.148 27.3446 -230.422 25.8428 -228.412 25.7422C-226.214 25.635 -225.898 27.3111 -225.797 29.0074C-225.194 39.4731 -221.295 48.6851 -212.921 55.7718C-201.201 65.6945 -187.477 68.8255 -172.339 64.1927C-157.222 59.5666 -148.187 49.5567 -144.812 35.0548C-144.273 32.7485 -144.151 30.4287 -144.094 28.0821C-143.957 22.6179 -139.656 18.3404 -134.133 18.0521C-128.69 17.7639 -124.022 21.3038 -123.038 26.5334C-122.154 31.2332 -122.32 36.0538 -120.503 40.6531C-113.917 57.3072 -97.2061 67.3841 -78.9077 66.1102C-59.8193 64.7827 -44.3145 51.1122 -41.5712 33.8748C-41.2049 31.5618 -41.1762 29.2085 -40.8459 26.8887C-40.0774 21.4782 -35.3736 17.7571 -29.7792 18.0454C-24.2495 18.327 -19.8759 22.5978 -19.797 28.0553C-19.6461 38.6216 -15.7538 47.8203 -7.62434 55.0813C4.25381 65.6878 18.4157 69.0066 34.0569 64.0787C49.3965 59.2448 58.3734 48.8997 61.325 34.0089C61.72 32.0177 61.8779 30.0398 61.9426 28.0285C62.1293 22.4235 66.6177 18.1259 72.3054 18.0387C78.0793 17.9449 82.6898 22.0346 82.9915 27.653C83.7168 41.3236 89.4117 52.5939 101.979 60.0359C115.782 68.2087 130.26 68.5439 144.415 60.9276C157.786 53.7336 164.422 42.5304 164.846 27.5055Z" fill="#FEC914"/>
<path d="M124.203 62.2609C104.106 62.2676 87.7249 47.5421 87.2793 29.0569C87.078 20.6443 81.2774 14.7514 72.9825 14.5114C64.6518 14.2781 58.3408 20.1576 57.9311 28.737C57.2554 42.7625 50.2113 53.0617 36.6334 59.1012C13.3949 69.427 -13.9334 54.4082 -15.6226 30.6168C-15.7879 28.297 -15.7879 25.9572 -16.6217 23.7174C-18.9722 17.4245 -25.5347 13.7582 -32.701 14.7381C-39.817 15.7113 -44.8558 21.1976 -45.057 28.1837C-45.4739 43.2225 -54.9763 55.5815 -69.8337 60.4278C-93.2231 68.0538 -118.208 52.1551 -118.905 29.2103C-119.164 20.5776 -123.412 16.038 -132.656 14.5781C-134.287 14.3181 -135.919 14.0981 -135.668 12.085C-135.416 10.0651 -133.677 10.2184 -132.095 10.2718C-122.463 10.5851 -114.226 18.4311 -114.284 28.277C-114.363 41.7426 -102.927 56.0414 -85.1942 57.948C-68.2451 59.7678 -51.102 47.0555 -49.9088 31.2501C-49.7651 29.3702 -49.7004 27.4771 -49.4057 25.6172C-47.8962 16.078 -39.4001 9.73181 -28.9489 10.2718C-19.1662 10.7784 -11.4464 18.5044 -11.2308 28.017C-10.8786 43.3491 0.737045 55.7681 16.5217 57.6946C36.3459 60.1078 52.9858 46.6822 53.453 27.8904C53.6687 19.3444 59.4621 12.6916 68.4613 10.6717C76.7058 8.81855 85.5614 12.6382 89.6585 19.751C91.2829 22.5708 91.7357 25.6105 91.9442 28.7303C93.0583 45.0423 104.3 56.0681 121.788 58.0146C138.191 59.8411 155.083 46.6822 156.261 31.1434C157.196 18.8844 152.301 9.07853 141.03 2.63905C129.781 -3.78711 118.151 -3.48713 106.787 2.85236C105.314 3.6723 103.711 4.70555 102.482 2.81237C101.296 0.985845 102.899 0.0392542 104.358 -0.847342C126.489 -14.3196 156.844 -1.42063 160.589 23.0574C163.809 44.0157 146.874 62.2543 124.203 62.2609Z" fill="#FEC914"/>
<path d="M20.4494 55.3828C5.30428 55.355 -7.10225 43.7298 -7.47603 29.2175C-7.82105 15.86 -15.8645 7.20552 -29.6942 5.39669C-31.405 5.17407 -33.4536 5.27147 -33.1804 2.9687C-32.9001 0.575482 -30.9233 0.415471 -28.8029 0.700708C-12.8742 2.8226 -2.84694 13.5503 -2.37253 29.0575C-1.99875 41.1766 8.01416 50.4364 20.7298 50.4155C33.2297 50.3947 43.3002 41.0931 43.6596 29.2175C44.1556 12.9103 54.5494 1.54251 71.2544 0.638095C83.6681 -0.0367355 96.0099 7.41423 99.719 22.01C100.258 24.1389 100.474 26.3164 100.495 28.5357C100.596 39.5904 109.976 49.4972 121.06 50.3808C133.646 51.3826 144.184 43.7994 146.455 32.1673C148.209 23.1927 145.111 15.8044 137.923 10.3431C130.196 4.47141 121.563 3.81049 112.701 8.24211C111.019 9.08391 109.107 10.5518 107.805 8.10297C106.641 5.91151 108.445 4.81926 110.264 3.88006C127.702 -5.12927 148.375 5.2019 151.674 24.2085C153.931 37.225 144.004 52.8783 127.666 55.2646C113.268 57.3656 98.763 47.3127 95.9309 33.1552C95.2408 29.7254 95.6218 26.2608 94.752 22.8379C92.1787 12.7224 83.3015 5.43844 71.7072 5.42452C60.6377 5.41756 51.4658 13.4877 49.3237 24.0415C48.4971 28.1253 49.0434 32.2925 47.577 36.3624C43.4296 47.911 33.0141 55.4037 20.4494 55.3828Z" fill="#41B9D5"/>
</g>
</svg>
