<svg width="72" height="72" viewBox="0 0 72 72" fill="none" xmlns="http://www.w3.org/2000/svg">
<circle cx="36" cy="36" r="36" fill="#F0E7D2"/>
<path d="M41.9687 35.7358V20.915H30.0313V35.7358H24.3508L36 51.085L47.6492 35.7358H41.9687Z" fill="#FEC914"/>
<path d="M36 52.4969C35.5585 52.4969 35.1424 52.2904 34.8754 51.9387L23.2264 36.5894C22.9022 36.1624 22.848 35.5883 23.0865 35.1082C23.3249 34.6279 23.8148 34.324 24.351 34.324H28.6197V20.9149C28.6197 20.1353 29.2518 19.5031 30.0315 19.5031H41.9688C42.7485 19.5031 43.3806 20.1353 43.3806 20.9149V34.3239H47.6493C48.1854 34.3239 48.6754 34.6276 48.9138 35.1081C49.1522 35.5882 49.098 36.1622 48.7739 36.5893L37.1247 51.9385C36.8576 52.2904 36.4415 52.4969 36 52.4969ZM27.1945 37.1476L36 48.7499L44.8055 37.1476H41.9687C41.189 37.1476 40.5569 36.5154 40.5569 35.7358V22.3267H31.4431V35.7357C31.4431 36.5152 30.811 37.1475 30.0313 37.1475H27.1945V37.1476Z" fill="#021D45"/>
<path d="M36 60C22.7664 60 12 49.2336 12 36C12 22.7664 22.7664 12 36 12C36.7797 12 37.4118 12.6322 37.4118 13.4118C37.4118 14.1914 36.7797 14.8236 36 14.8236C24.3232 14.8236 14.8236 24.3232 14.8236 36C14.8236 47.6768 24.3232 57.1764 36 57.1764C47.6768 57.1764 57.1764 47.6768 57.1764 36C57.1764 29.5396 54.282 23.5141 49.2352 19.4681C48.6269 18.9803 48.5291 18.0918 49.0168 17.4834C49.5046 16.875 50.393 16.7776 51.0013 17.2649C56.7202 21.8497 60 28.6784 60 36C60 49.2336 49.2336 60 36 60Z" fill="#021D45"/>
</svg>
