<svg width="72" height="72" viewBox="0 0 72 72" fill="none" xmlns="http://www.w3.org/2000/svg">
<circle cx="36" cy="36" r="36" fill="#F0E7D2"/>
<path d="M41.226 14.3115C45.4407 14.3115 51.216 20.492 36.4985 29.6393C21.756 20.4761 27.5907 14.3115 31.7717 14.3115C34.9103 14.3115 36.4985 16.8762 36.4985 16.8762C36.4985 16.8762 38.0867 14.3115 41.226 14.3115V14.3115Z" fill="#FEC914"/>
<path d="M35.0159 29.8105C35.4121 30.2068 35.939 30.4251 36.4996 30.4251C37.0601 30.4251 37.587 30.2068 37.9833 29.8105L40.229 27.5647C40.5437 27.2501 40.5437 26.74 40.229 26.4254C39.9144 26.1108 39.4043 26.1108 39.0897 26.4254L36.8438 28.6711C36.7518 28.763 36.6295 28.8137 36.4995 28.8137C36.3694 28.8137 36.2471 28.763 36.1551 28.6711L29.4135 21.9294C28.6721 21.188 28.2637 20.2023 28.2637 19.1537C28.2637 18.1052 28.6721 17.1195 29.4135 16.378C30.944 14.8476 33.4343 14.8476 34.9648 16.378L35.9298 17.343C36.2444 17.6577 36.7546 17.6577 37.0691 17.343L38.0341 16.378C38.7755 15.6366 39.7612 15.2283 40.8097 15.2283C41.8582 15.2283 42.844 15.6366 43.5853 16.378C44.3267 17.1195 44.7351 18.1052 44.7351 19.1537C44.7351 20.2023 44.3268 21.188 43.5853 21.9294L41.6207 23.894C41.3061 24.2087 41.3061 24.7188 41.6207 25.0333C41.9352 25.348 42.4454 25.348 42.76 25.0333L44.7246 23.0687C45.7704 22.023 46.3463 20.6326 46.3463 19.1537C46.3463 17.6747 45.7704 16.2845 44.7245 15.2387C43.6788 14.193 42.2884 13.6171 40.8096 13.6171C39.3307 13.6171 37.9403 14.193 36.8946 15.2387L36.4992 15.634L36.1039 15.2387C33.9452 13.0799 30.4326 13.0799 28.2738 15.2387C27.2281 16.2845 26.6522 17.6748 26.6522 19.1537C26.6522 20.6326 27.2281 22.023 28.2738 23.0687L35.0159 29.8105Z" fill="#021D45"/>
<path d="M62.1306 34.6651H61.0546V33.3416C61.0546 31.7695 59.7757 30.4907 58.2037 30.4907H56.9382C56.4942 30.4907 56.0737 30.5928 55.6987 30.7746V30.6028C55.6987 29.0308 54.4198 27.752 52.8478 27.752H49.9351C48.3631 27.752 47.0843 29.0308 47.0843 30.6028V34.5013C46.804 34.3931 46.4999 34.3331 46.1819 34.3331H45.4711C45.0912 34.3331 44.7307 34.4178 44.4075 34.5694C44.0483 33.6197 43.1296 32.9427 42.0556 32.9427H41.3449C40.8712 32.9427 40.4278 33.0744 40.0492 33.3031C39.6025 32.6037 38.8191 32.1391 37.9295 32.1391H37.2188C36.7043 32.1391 36.2256 32.2944 35.8269 32.5606C35.3687 31.9398 34.6323 31.5363 33.8033 31.5363H33.0926C31.7066 31.5363 30.5791 32.6638 30.5791 34.0497V36.1446H25.9157V30.6027C25.9157 29.0307 24.6369 27.7519 23.0649 27.7519H20.1522C18.5803 27.7519 17.3013 29.0307 17.3013 30.6027V30.7745C16.9263 30.5926 16.5058 30.4906 16.0618 30.4906H14.7963C13.2243 30.4906 11.9454 31.7694 11.9454 33.3414V34.665H10.8694C9.83864 34.6651 9 35.5036 9 36.5345V41.9009C9 42.9317 9.83864 43.7703 10.8694 43.7703H11.9454V45.0938C11.9454 46.6658 13.2243 47.9447 14.7963 47.9447H16.0618C16.5058 47.9447 16.9263 47.8425 17.3013 47.6608V48.4907C17.3013 50.0627 18.5802 51.3416 20.1522 51.3416H23.0649C24.6369 51.3416 25.9157 50.0627 25.9157 48.4907V42.2907H26.0775C26.1962 42.612 26.3519 42.9187 26.5442 43.2078L29.3248 47.37C30.145 48.5976 30.5787 50.0274 30.5787 51.5045V56.5777C30.5787 57.0226 30.9394 57.3833 31.3844 57.3833C31.8293 57.3833 32.19 57.0226 32.19 56.5777V51.5045C32.19 49.7075 31.6625 47.9682 30.6645 46.4748L27.8849 42.3139C27.8798 42.3062 27.8752 42.2984 27.8703 42.2908H30.5791V42.5475C30.5791 42.9924 30.9398 43.3532 31.3848 43.3532C31.8297 43.3532 32.1905 42.9924 32.1905 42.5475V34.05C32.1905 33.5526 32.5951 33.148 33.0926 33.148H33.8033C34.3006 33.148 34.7053 33.5526 34.7053 34.05V34.6527C34.7053 35.0977 35.066 35.4584 35.511 35.4584C35.9559 35.4584 36.3166 35.0977 36.3166 34.6527C36.3166 34.1554 36.7213 33.7507 37.2187 33.7507H37.9294C38.4268 33.7507 38.8315 34.1554 38.8315 34.6527V35.4564C38.8315 35.9013 39.1922 36.262 39.6372 36.262C40.0821 36.262 40.4428 35.9013 40.4428 35.4564C40.4428 34.9589 40.8475 34.5542 41.3448 34.5542H42.0555C42.5529 34.5542 42.9576 34.9589 42.9576 35.4564V36.8467C42.9576 37.2917 43.3183 37.6524 43.7632 37.6524C44.2082 37.6524 44.5689 37.2917 44.5689 36.8467C44.5689 36.3494 44.9735 35.9447 45.4709 35.9447H46.1817C46.6791 35.9447 47.0837 36.3494 47.0837 36.8467V43.5916C47.0837 43.9878 47.0309 44.3828 46.9267 44.7652L46.4271 46.599C46.2431 47.2746 45.8971 47.9059 45.4267 48.4248C43.8806 50.1296 43.0292 52.3359 43.0292 54.6373V56.5774C43.0292 57.0224 43.3899 57.3831 43.8349 57.3831C44.2798 57.3831 44.6405 57.0224 44.6405 56.5774V54.6373C44.6405 52.7369 45.3436 50.9149 46.6203 49.5071C46.7986 49.3105 46.9624 49.1009 47.1133 48.8824C47.2809 50.1121 48.2239 51.1018 49.4823 51.3033C49.5254 51.3102 49.5683 51.3136 49.6106 51.3136C49.9994 51.3136 50.3417 51.0315 50.4051 50.6352C50.4755 50.1958 50.1764 49.7826 49.737 49.7122C49.1334 49.6155 48.6952 49.1018 48.6952 48.4908V30.6029C48.6952 29.9194 49.2512 29.3634 49.9347 29.3634H52.8474C53.5308 29.3634 54.0869 29.9194 54.0869 30.6029V48.4908C54.0869 49.0969 53.653 49.6099 53.0552 49.7108C52.6165 49.7848 52.3208 50.2006 52.3948 50.6393C52.4687 51.078 52.8844 51.3734 53.3232 51.2997C54.6994 51.0676 55.6982 49.8862 55.6982 48.4908V47.6609C56.0732 47.8428 56.4938 47.9448 56.9378 47.9448H58.2033C59.7753 47.9448 61.0542 46.6659 61.0542 45.0939V43.7704H62.1302C63.161 43.7704 63.9996 42.9317 63.9996 41.901V36.5346C64 35.5036 63.1614 34.6651 62.1306 34.6651V34.6651ZM10.8694 42.159C10.727 42.159 10.6113 42.0432 10.6113 41.9009V36.5345C10.6113 36.3921 10.7271 36.2764 10.8694 36.2764H11.9454V42.159H10.8694ZM24.3044 48.4906C24.3044 49.1741 23.7484 49.7302 23.0649 49.7302H20.1522C19.4688 49.7302 18.9127 49.1741 18.9127 48.4906V39.0844C18.9127 38.6395 18.552 38.2788 18.107 38.2788C17.6621 38.2788 17.3013 38.6395 17.3013 39.0844V45.0937C17.3013 45.7772 16.7453 46.3333 16.0618 46.3333H14.7963C14.1127 46.3333 13.5567 45.7772 13.5567 45.0937V33.3416C13.5567 32.658 14.1127 32.102 14.7963 32.102H16.0618C16.7453 32.102 17.3013 32.658 17.3013 33.3416V35.5047C17.3013 35.9496 17.6621 36.3104 18.107 36.3104C18.552 36.3104 18.9127 35.9496 18.9127 35.5047V30.6028C18.9127 29.9193 19.4687 29.3633 20.1522 29.3633H23.0649C23.7484 29.3633 24.3044 29.9193 24.3044 30.6028V48.4906ZM25.9157 40.6792V37.7561H30.5791V40.6792H25.9157ZM59.4433 45.0938C59.4433 45.7774 58.8873 46.3334 58.2037 46.3334H56.9382C56.2547 46.3334 55.6987 45.7774 55.6987 45.0938V33.3416C55.6987 32.658 56.2547 32.102 56.9382 32.102H58.2037C58.8873 32.102 59.4433 32.658 59.4433 33.3416V45.0938ZM62.3887 41.9008C62.3887 42.0432 62.2729 42.1588 62.1306 42.1588H61.0546V36.2763H62.1306C62.273 36.2763 62.3887 36.3921 62.3887 36.5343V41.9008Z" fill="#021D45"/>
</svg>
