<svg width="72" height="72" viewBox="0 0 72 72" fill="none" xmlns="http://www.w3.org/2000/svg">
<circle cx="36" cy="36" r="36" fill="#F0E7D2"/>
<path d="M32.5388 54.3416C37.6268 54.3416 41.7514 50.217 41.7514 45.129C41.7514 40.041 32.5388 30.6521 32.5388 30.6521C32.5388 30.6521 23.3263 40.041 23.3263 45.129C23.3263 50.217 27.4509 54.3416 32.5388 54.3416ZM31.8808 50.3933C28.9747 50.39 26.6198 48.0351 26.6165 45.129C26.6198 48.0351 28.9747 50.39 31.8808 50.3933Z" fill="#FEC914"/>
<path d="M47.6737 27.3624C47.6737 25.9693 45.391 22.3409 42.4094 18.7743C39.5798 22.1671 37.1451 25.8607 37.1451 27.3624C37.1451 30.2697 39.502 32.6267 42.4094 32.6267C45.3168 32.6267 47.6737 30.2697 47.6737 27.3624Z" fill="#FEC914"/>
<path d="M33.1969 21.5381C33.0653 21.0202 32.2717 19.4448 30.5647 17.1141C28.9571 19.3066 28.0714 20.9307 27.9326 21.5229C27.9285 22.9766 29.1038 24.1583 30.5575 24.1623C32.0112 24.1663 33.1928 22.9911 33.1969 21.5374V21.5381Z" fill="#FEC914"/>
<path d="M32.5388 55C27.09 54.9938 22.6744 50.5782 22.6682 45.1294C22.6682 39.8329 31.6834 30.5868 32.069 30.1919L32.5388 29.7129L33.0087 30.1919C33.3943 30.5868 42.4094 39.8329 42.4094 45.1294C42.4032 50.5782 37.9876 54.9938 32.5388 55ZM32.5388 31.6061C30.6851 33.5802 23.9843 41.0055 23.9843 45.1294C23.9843 49.854 27.8143 53.6839 32.5388 53.6839C37.2634 53.6839 41.0933 49.854 41.0933 45.1294C41.0933 41.0029 34.3925 33.5808 32.5388 31.6061Z" fill="#021D45"/>
<path d="M31.8806 51.0522C28.6113 51.0486 25.9619 48.3992 25.9583 45.1299H27.2744C27.2776 47.6725 29.338 49.7329 31.8806 49.7362V51.0522Z" fill="#021D45"/>
<path d="M42.4094 33.2843C39.1401 33.2807 36.4907 30.6313 36.4871 27.362C36.4871 24.9621 41.0012 19.4359 41.906 18.3528L42.4094 17.748L42.9148 18.3521C45.414 21.3423 48.3318 25.4958 48.3318 27.362C48.3282 30.6313 45.6787 33.2807 42.4094 33.2843ZM42.4094 19.8084C39.3825 23.5316 37.8032 26.3986 37.8032 27.362C37.8032 29.906 39.8655 31.9683 42.4094 31.9683C44.9534 31.9683 47.0157 29.906 47.0157 27.362C47.0157 26.419 45.4068 23.4947 42.4094 19.8084Z" fill="#021D45"/>
<path d="M30.5647 24.7302C28.7842 24.7391 27.3228 23.3239 27.2745 21.544V21.4578L27.2943 21.3735C27.4831 20.5635 28.5597 18.7414 30.0363 16.7245L30.5647 16L31.0957 16.7238C32.7349 18.9664 33.6496 20.6721 33.8306 21.3716L33.8549 21.4663V21.5624C33.7955 23.3344 32.3377 24.7379 30.5647 24.7302ZM28.5965 21.5953C28.6851 22.6186 29.5377 23.4064 30.5647 23.4141C31.5879 23.4179 32.4429 22.6364 32.5309 21.617C32.0058 20.422 31.3462 19.2908 30.5647 18.2452C29.7817 19.2823 29.1213 20.4065 28.5965 21.5953Z" fill="#021D45"/>
</svg>
