<svg width="72" height="72" viewBox="0 0 72 72" fill="none" xmlns="http://www.w3.org/2000/svg">
<circle cx="36" cy="36" r="36" fill="#F0E7D2"/>
<path d="M36.5 28C42.299 28 47 23.299 47 17.5C47 11.701 42.299 7 36.5 7C30.701 7 26 11.701 26 17.5C26 23.299 30.701 28 36.5 28Z" fill="#FEC914"/>
<path d="M67.5195 8.94934C66.8788 8.30863 65.8401 8.30863 65.1993 8.94934L63.625 10.5236V4.64062C63.625 3.73456 62.8904 3 61.9844 3C61.0783 3 60.3438 3.73456 60.3438 4.64062V10.5236L58.7694 8.94923C58.1287 8.30852 57.09 8.30852 56.4492 8.94923C55.8085 9.58995 55.8085 10.6287 56.4492 11.2694L60.8242 15.6444C61.465 16.2851 62.5037 16.2851 63.1444 15.6444L67.5194 11.2694C68.1601 10.6288 68.1601 9.58995 67.5195 8.94934V8.94934Z" fill="#FEC914"/>
<path d="M36.062 32.75C35.1559 32.75 34.4213 33.4846 34.4213 34.3906V50.7969C34.4213 51.7029 35.1559 52.4375 36.062 52.4375C36.968 52.4375 37.7026 51.7029 37.7026 50.7969V34.3906C37.7026 33.4846 36.968 32.75 36.062 32.75Z" fill="#021D45"/>
<path d="M46.8993 30.5625C43.6322 30.5625 40.9839 33.2109 40.9839 36.4778V45.8168C40.9839 48.8692 43.4584 51.3438 46.5109 51.3438C49.3854 51.3438 51.7799 49.1404 52.0187 46.2759L52.7943 36.9691C53.0816 33.5203 50.36 30.5625 46.8993 30.5625V30.5625ZM49.5243 36.6967L48.7487 46.0034C48.6517 47.1673 47.6787 48.0625 46.5108 48.0625C45.2706 48.0625 44.2651 47.0571 44.2651 45.8168V36.4778C44.2651 35.023 45.4445 33.8438 46.8992 33.8438C48.4404 33.8438 49.6522 35.1608 49.5243 36.6967V36.6967Z" fill="#021D45"/>
<path d="M25.2248 30.5625C21.764 30.5625 19.0424 33.5203 19.3298 36.9691L20.1053 46.2759C20.3441 49.1404 22.7388 51.3438 25.6131 51.3438C28.6656 51.3438 31.1401 48.8692 31.1401 45.8168V36.4778C31.1401 33.2109 28.4917 30.5625 25.2248 30.5625V30.5625ZM27.8588 45.8168C27.8588 47.057 26.8535 48.0625 25.6131 48.0625C24.4452 48.0625 23.4722 47.1673 23.3752 46.0033L22.5996 36.6966C22.4717 35.1608 23.6835 33.8436 25.2246 33.8436C26.6794 33.8436 27.8588 35.023 27.8588 36.4777V45.8168Z" fill="#021D45"/>
<path d="M34.9019 19.1444C35.5426 19.7851 36.5814 19.7851 37.2221 19.1444C37.8628 18.5037 37.8628 17.465 37.2221 16.8242L34.9019 14.5041C34.2612 13.8633 33.2225 13.8633 32.5818 14.5041C31.941 15.1448 31.941 16.1835 32.5818 16.8242L34.9019 19.1444Z" fill="#021D45"/>
<path d="M53.0146 16.3438H47.4286C46.6301 10.7856 41.8375 6.5 36.062 6.5C30.2864 6.5 25.4938 10.7856 24.6953 16.3438H19.1093C17.1268 16.3438 15.2199 17.1804 13.8775 18.6392C12.5353 20.098 11.8598 22.0679 12.0244 24.0435L14.3942 52.481C14.5427 54.2631 15.3493 55.9114 16.6653 57.1223C17.9812 58.3331 19.6907 59 21.479 59H50.6449C52.4332 59 54.1427 58.3331 55.4587 57.1223C56.7746 55.9115 57.5812 54.2631 57.7298 52.481L60.0995 24.0435C60.2642 22.068 59.5887 20.0982 58.2465 18.6393C56.904 17.1805 54.9972 16.3438 53.0146 16.3438V16.3438ZM36.062 9.78125C40.5852 9.78125 44.2651 13.4612 44.2651 17.9844C44.2651 22.5076 40.5852 26.1875 36.062 26.1875C31.5387 26.1875 27.8588 22.5076 27.8588 17.9844C27.8588 13.4612 31.5387 9.78125 36.062 9.78125V9.78125ZM56.8295 23.771L54.4598 52.2085C54.2957 54.1768 52.6201 55.7188 50.6449 55.7188H21.479C19.5038 55.7188 17.8282 54.1768 17.6641 52.2085L15.2943 23.7711C15.2044 22.6915 15.5587 21.6582 16.2921 20.861C17.0256 20.064 18.0261 19.625 19.1093 19.625H24.6953C25.4938 25.1831 30.2864 29.4688 36.062 29.4688C41.8375 29.4688 46.6301 25.1831 47.4286 19.625H53.0146C54.0978 19.625 55.0983 20.064 55.8317 20.8612C56.5652 21.6582 56.9194 22.6915 56.8295 23.771V23.771Z" fill="#021D45"/>
</svg>
