<svg width="72" height="72" viewBox="0 0 72 72" fill="none" xmlns="http://www.w3.org/2000/svg">
<circle cx="36" cy="36" r="36" fill="#F0E7D2"/>
<g clip-path="url(#clip0_7_39)">
<path d="M36.5 45.0469C45.0173 45.0469 51.9219 43.4029 51.9219 41.375C51.9219 39.3471 45.0173 37.7031 36.5 37.7031C27.9827 37.7031 21.0781 39.3471 21.0781 41.375C21.0781 43.4029 27.9827 45.0469 36.5 45.0469Z" fill="#41B9D5"/>
<path d="M51.9219 41.375C51.9219 43.4019 45.0188 45.0469 36.5 45.0469C27.9812 45.0469 21.0781 43.4019 21.0781 41.375C21.0781 41.375 21.0781 58.2656 36.5 58.2656C51.9219 58.2656 51.9219 41.375 51.9219 41.375Z" fill="#F6F0E5"/>
<path d="M36.5 47.9844C47.5156 47.9844 51.1875 45.7812 51.1875 45.7812H51.3417C51.6854 44.3362 51.8798 42.8597 51.9219 41.375C51.9219 43.4019 45.0188 45.0469 36.5 45.0469C27.9812 45.0469 21.0781 43.4019 21.0781 41.375C21.1202 42.8597 21.3146 44.3362 21.6583 45.7812H21.8125C21.8125 45.7812 25.4844 47.9844 36.5 47.9844Z" fill="#41B9D5"/>
<path d="M21.0781 34.0312H13.7344V36.2344C13.7344 36.8187 13.9665 37.3791 14.3797 37.7922C14.7928 38.2054 15.3532 38.4375 15.9375 38.4375V56.7969C15.9375 57.1864 16.0922 57.56 16.3677 57.8354C16.6431 58.1109 17.0167 58.2656 17.4062 58.2656C17.7958 58.2656 18.1694 58.1109 18.4448 57.8354C18.7203 57.56 18.875 57.1864 18.875 56.7969V38.4375C19.4593 38.4375 20.0197 38.2054 20.4328 37.7922C20.846 37.3791 21.0781 36.8187 21.0781 36.2344V34.0312Z" fill="#F6F0E5"/>
<path d="M59.2656 34.0312C59.2656 31.1892 57.6206 28.8906 55.5938 28.8906C53.5669 28.8906 51.9219 31.1892 51.9219 34.0312C51.9219 36.1389 52.8252 37.9455 54.125 38.7386V56.7969C54.125 57.1864 54.2797 57.56 54.5552 57.8354C54.8306 58.1109 55.2042 58.2656 55.5938 58.2656C55.9833 58.2656 56.3569 58.1109 56.6323 57.8354C56.9078 57.56 57.0625 57.1864 57.0625 56.7969V38.7386C58.3623 37.9455 59.2656 36.1389 59.2656 34.0312V34.0312Z" fill="#F6F0E5"/>
<path d="M34.2969 42.8438C35.108 42.8438 35.7656 42.1862 35.7656 41.375C35.7656 40.5638 35.108 39.9062 34.2969 39.9062C33.4857 39.9062 32.8281 40.5638 32.8281 41.375C32.8281 42.1862 33.4857 42.8438 34.2969 42.8438Z" fill="#F0E7D2"/>
<path d="M38.7031 36.2344H41.6406L43.1094 39.9062L38.7031 40.6406V36.2344Z" fill="#F0E7D2"/>
<path d="M31.3594 31.0938L34.2969 30.3594L35.7656 32.5625L32.0938 34.7656L31.3594 31.0938Z" fill="#41B9D5"/>
<path d="M42.0739 23.8895C46.4802 21.6864 48.6833 22.4208 48.6833 22.4208C48.2828 24.3565 48.0372 26.321 47.9489 28.2958C47.9489 31.2333 45.0114 32.702 42.0739 32.702C38.402 32.702 37.6677 26.0927 42.0739 23.8895Z" fill="#1A9D25"/>
<path d="M36.1989 25.2188C22.2458 28.1563 24.4489 12.7344 24.4489 12.7344C24.4489 12.7344 30.1991 14.9375 32.527 14.9375C35.4645 14.9375 38.402 17.875 38.402 20.8125C38.402 21.6676 38.203 22.5109 37.8206 23.2757C37.4382 24.0405 36.883 24.7057 36.1989 25.2188V25.2188Z" fill="#41B9D5"/>
<path d="M32.9089 26.3277C34.1438 26.2552 35.3714 26.0882 36.5808 25.8283C37.3711 25.252 38.0144 24.4975 38.4585 23.626C38.9025 22.7545 39.1348 21.7906 39.1364 20.8125C39.1364 17.4784 35.8611 14.2031 32.527 14.2031C30.7352 14.2031 26.2775 12.6463 24.7059 12.0514C24.6035 12.0123 24.4936 11.9966 24.3843 12.0055C24.275 12.0144 24.1691 12.0476 24.0744 12.1028C23.9798 12.1589 23.899 12.2356 23.838 12.3271C23.777 12.4186 23.7373 12.5227 23.7219 12.6316C23.6778 12.94 22.6717 20.3131 26.7622 24.1392C28.4473 25.6423 30.653 26.4276 32.9089 26.3277V26.3277ZM25.0952 13.7552C26.843 14.3867 30.625 15.6719 32.527 15.6719C33.8572 15.7718 35.1075 16.3455 36.0508 17.2888C36.994 18.232 37.5677 19.4823 37.6677 20.8125C37.67 21.4416 37.5472 22.0649 37.3064 22.6461C37.0656 23.2273 36.7116 23.7549 36.265 24.198L30.133 17.383C30.0025 17.2379 29.8197 17.1505 29.6248 17.1402C29.4299 17.1299 29.2389 17.1974 29.0938 17.3279C28.9487 17.4584 28.8614 17.6412 28.8511 17.8361C28.8407 18.0309 28.9083 18.2219 29.0387 18.367L34.7595 24.7194C31.7339 25.1233 29.3839 24.5798 27.7683 23.067C25.0144 20.4967 24.9703 15.7453 25.0952 13.7552Z" fill="black"/>
<path d="M38.4608 30.2345C38.9234 32.21 40.3114 33.4364 42.0739 33.4364C45.2537 33.4364 48.6833 31.8281 48.6833 28.2958C48.7773 26.3701 49.0229 24.4548 49.4177 22.5677C49.4536 22.391 49.4233 22.2074 49.3325 22.0516C49.2418 21.8959 49.097 21.779 48.9256 21.7231C48.6759 21.6423 46.3039 20.9888 41.7581 23.2359C40.506 23.8669 39.5011 24.8987 38.9035 26.1671C38.306 27.4354 38.1501 28.8673 38.4608 30.2345ZM42.375 24.5505C43.985 23.6381 45.7851 23.1126 47.6331 23.0156H47.8094C47.476 24.7479 47.2771 26.5034 47.2145 28.2664C47.2145 30.7927 44.5487 31.9383 42.0739 31.9383C41.8979 31.9399 41.7225 31.9177 41.5525 31.8722L44.8719 27.2236C44.9841 27.0656 45.0294 26.8696 44.9977 26.6784C44.9661 26.4872 44.8601 26.3162 44.703 26.2028C44.6245 26.1461 44.5355 26.1055 44.4413 26.0832C44.347 26.061 44.2493 26.0577 44.1538 26.0734C44.0582 26.0891 43.9667 26.1235 43.8845 26.1747C43.8023 26.2259 43.7311 26.2929 43.6748 26.3717L40.3775 30.9983C40.1516 30.6513 39.9853 30.2691 39.8855 29.8673C39.6566 28.8306 39.7766 27.7474 40.2268 26.7859C40.677 25.8244 41.4322 25.0385 42.375 24.5505V24.5505Z" fill="black"/>
<path d="M52.6562 41.375C52.6562 39.6713 50.1594 38.5477 44.6883 37.7472C44.5918 37.7327 44.4935 37.7374 44.3989 37.7609C44.3042 37.7845 44.2152 37.8264 44.1367 37.8844C44.0583 37.9424 43.9921 38.0152 43.9418 38.0988C43.8915 38.1823 43.8582 38.275 43.8438 38.3714C43.8293 38.4678 43.834 38.5662 43.8575 38.6608C43.881 38.7555 43.923 38.8445 43.981 38.923C44.0389 39.0014 44.1118 39.0676 44.1953 39.1179C44.2789 39.1682 44.3715 39.2015 44.468 39.2159C51.0773 40.1927 51.1875 41.4191 51.1875 41.4191C51.1875 42.4178 45.9881 44.3566 36.5 44.3566C27.0119 44.3566 21.8125 42.4178 21.8125 41.4191C21.8125 40.4203 26.9972 38.4816 36.5 38.4816C36.6948 38.4816 36.8816 38.4042 37.0193 38.2665C37.157 38.1287 37.2344 37.942 37.2344 37.7472C37.2344 37.5524 37.157 37.3656 37.0193 37.2279C36.8816 37.0902 36.6948 37.0128 36.5 37.0128C28.745 37.0128 20.4098 38.3861 20.3438 41.4191V41.4631C20.3438 42.3664 20.9092 59 36.5 59C52.0908 59 52.6562 42.3664 52.6562 41.4191V41.375ZM36.5 45.7813C42.1914 45.7813 48.1986 45.0469 51.0186 43.4606C50.9452 43.9747 50.8497 44.5695 50.7175 45.2011C50.1153 45.5095 46.3112 47.25 36.5 47.25C26.6888 47.25 22.8994 45.5095 22.2825 45.2011C22.1503 44.5695 22.0548 43.9747 21.9814 43.4606C24.8014 45.0469 30.8086 45.7813 36.5 45.7813ZM36.5 57.5313C30.4341 57.5313 26.1233 54.8508 23.6925 49.5559C23.3137 48.7195 22.9923 47.8583 22.7305 46.9783C24.6398 47.6613 28.8258 48.7188 36.5 48.7188C44.1742 48.7188 48.3602 47.6613 50.2695 46.9783C50.0077 47.8583 49.6863 48.7195 49.3075 49.5559C46.8767 54.8508 42.5659 57.5313 36.5 57.5313V57.5313Z" fill="black"/>
<path d="M55.5938 28.1562C53.163 28.1562 51.1875 30.7927 51.1875 34.0312C51.1519 34.9912 51.3312 35.947 51.7124 36.8288C52.0935 37.7106 52.6669 38.4961 53.3906 39.1278V56.7969C53.3906 57.3812 53.6227 57.9416 54.0359 58.3547C54.4491 58.7679 55.0094 59 55.5938 59C56.1781 59 56.7384 58.7679 57.1516 58.3547C57.5648 57.9416 57.7969 57.3812 57.7969 56.7969V39.1278C58.5206 38.4961 59.094 37.7106 59.4751 36.8288C59.8563 35.947 60.0356 34.9912 60 34.0312C60 30.7927 58.0245 28.1562 55.5938 28.1562V28.1562ZM56.6806 38.1144C56.5734 38.1796 56.4847 38.2713 56.423 38.3805C56.3613 38.4898 56.3286 38.6131 56.3281 38.7386V56.7969C56.3281 56.9916 56.2508 57.1784 56.113 57.3162C55.9753 57.4539 55.7885 57.5312 55.5938 57.5312C55.399 57.5312 55.2122 57.4539 55.0745 57.3162C54.9367 57.1784 54.8594 56.9916 54.8594 56.7969V38.7386C54.8589 38.6131 54.8262 38.4898 54.7645 38.3805C54.7028 38.2713 54.6141 38.1796 54.5069 38.1144C53.3906 37.4241 52.6563 35.8231 52.6563 34.0312C52.6563 31.6445 54.0002 29.625 55.5938 29.625C57.1873 29.625 58.5313 31.6445 58.5313 34.0312C58.5313 35.8231 57.7969 37.4241 56.6806 38.1144V38.1144Z" fill="black"/>
<path d="M21.8125 36.2344V28.8906C21.8125 28.6959 21.7351 28.5091 21.5974 28.3713C21.4597 28.2336 21.2729 28.1562 21.0781 28.1562C20.8834 28.1562 20.6966 28.2336 20.5588 28.3713C20.4211 28.5091 20.3438 28.6959 20.3438 28.8906V33.2969H18.1406V28.8906C18.1406 28.6959 18.0633 28.5091 17.9255 28.3713C17.7878 28.2336 17.601 28.1562 17.4062 28.1562C17.2115 28.1562 17.0247 28.2336 16.887 28.3713C16.7492 28.5091 16.6719 28.6959 16.6719 28.8906V33.2969H14.4688V28.8906C14.4688 28.6959 14.3914 28.5091 14.2537 28.3713C14.1159 28.2336 13.9291 28.1562 13.7344 28.1562C13.5396 28.1562 13.3528 28.2336 13.2151 28.3713C13.0774 28.5091 13 28.6959 13 28.8906V36.2344C13.0005 36.8852 13.2171 37.5175 13.6159 38.0319C14.0146 38.5463 14.5729 38.9137 15.2031 39.0764V56.7969C15.2031 57.3812 15.4352 57.9416 15.8484 58.3547C16.2616 58.7679 16.8219 59 17.4062 59C17.9906 59 18.5509 58.7679 18.9641 58.3547C19.3773 57.9416 19.6094 57.3812 19.6094 56.7969V39.0764C20.2396 38.9137 20.7979 38.5463 21.1966 38.0319C21.5954 37.5175 21.812 36.8852 21.8125 36.2344V36.2344ZM20.3438 36.2344C20.3438 36.6239 20.189 36.9975 19.9136 37.2729C19.6381 37.5484 19.2645 37.7031 18.875 37.7031C18.6802 37.7031 18.4934 37.7805 18.3557 37.9182C18.218 38.0559 18.1406 38.2427 18.1406 38.4375V56.7969C18.1406 56.9916 18.0633 57.1784 17.9255 57.3162C17.7878 57.4539 17.601 57.5312 17.4062 57.5312C17.2115 57.5312 17.0247 57.4539 16.887 57.3162C16.7492 57.1784 16.6719 56.9916 16.6719 56.7969V38.4375C16.6719 38.2427 16.5945 38.0559 16.4568 37.9182C16.3191 37.7805 16.1323 37.7031 15.9375 37.7031C15.548 37.7031 15.1744 37.5484 14.8989 37.2729C14.6235 36.9975 14.4688 36.6239 14.4688 36.2344V34.7656H20.3438V36.2344Z" fill="black"/>
<path d="M34.1206 29.625L31.1831 30.3594C31.0884 30.3802 30.9987 30.4196 30.9193 30.4752C30.8399 30.5309 30.7723 30.6018 30.7204 30.6837C30.6685 30.7656 30.6334 30.857 30.617 30.9526C30.6006 31.0482 30.6033 31.1461 30.625 31.2406L31.3594 34.9125C31.3836 35.0271 31.435 35.1342 31.5091 35.2249C31.5832 35.3156 31.6779 35.3873 31.7853 35.4339C31.8813 35.4805 31.9871 35.5032 32.0937 35.5C32.2256 35.5 32.3549 35.4644 32.4683 35.3972L36.1402 33.1941C36.2253 33.1431 36.2992 33.0754 36.3575 32.995C36.4157 32.9147 36.457 32.8233 36.479 32.7266C36.501 32.6298 36.5031 32.5296 36.4852 32.4319C36.4674 32.3343 36.4299 32.2413 36.3752 32.1586L34.9064 29.9555C34.8261 29.8255 34.7072 29.7238 34.5664 29.6646C34.4255 29.6053 34.2697 29.5915 34.1206 29.625V29.625ZM32.6078 33.598L32.2186 31.6372L33.9737 31.1966L34.7081 32.3275L32.6078 33.598Z" fill="black"/>
<path d="M32.0938 41.375C32.0938 41.8107 32.223 42.2367 32.465 42.599C32.7071 42.9613 33.0512 43.2437 33.4538 43.4104C33.8563 43.5772 34.2993 43.6208 34.7267 43.5358C35.154 43.4508 35.5466 43.241 35.8547 42.9328C36.1628 42.6247 36.3727 42.2322 36.4577 41.8048C36.5427 41.3774 36.499 40.9345 36.3323 40.5319C36.1655 40.1293 35.8832 39.7853 35.5209 39.5432C35.1586 39.3011 34.7326 39.1719 34.2969 39.1719C33.7126 39.1719 33.1522 39.404 32.739 39.8172C32.3259 40.2303 32.0938 40.7907 32.0938 41.375V41.375ZM35.0312 41.375C35.0312 41.5202 34.9882 41.6622 34.9075 41.783C34.8268 41.9038 34.7121 41.9979 34.5779 42.0535C34.4437 42.1091 34.2961 42.1236 34.1536 42.0953C34.0112 42.0669 33.8803 41.997 33.7776 41.8943C33.6749 41.7916 33.6049 41.6607 33.5766 41.5183C33.5483 41.3758 33.5628 41.2282 33.6184 41.094C33.674 40.9598 33.7681 40.8451 33.8889 40.7644C34.0096 40.6837 34.1516 40.6406 34.2969 40.6406C34.4916 40.6406 34.6784 40.718 34.8162 40.8557C34.9539 40.9934 35.0312 41.1802 35.0312 41.375Z" fill="black"/>
<path d="M41.6406 35.5H38.7031C38.5084 35.5 38.3216 35.5774 38.1838 35.7151C38.0461 35.8528 37.9688 36.0396 37.9688 36.2344V40.6406C37.9688 40.8354 38.0461 41.0222 38.1838 41.1599C38.3216 41.2976 38.5084 41.375 38.7031 41.375H38.8206L43.2269 40.6406C43.3358 40.6226 43.4392 40.5802 43.5295 40.5166C43.6198 40.453 43.6946 40.3699 43.7483 40.2734C43.8023 40.1781 43.8342 40.0719 43.8419 39.9626C43.8495 39.8534 43.8326 39.7438 43.7923 39.6419L42.3236 35.97C42.2703 35.832 42.1766 35.7133 42.0548 35.6294C41.9329 35.5455 41.7886 35.5004 41.6406 35.5ZM39.4375 39.7741V36.9688H41.1412L42.0886 39.3334L39.4375 39.7741Z" fill="black"/>
<path d="M31.6311 53.9108C28.4219 52.6109 27.6875 50.1141 27.6875 50.0039C27.6398 49.815 27.519 49.6527 27.3516 49.5529C27.1843 49.4531 26.9842 49.4238 26.7952 49.4715C26.6063 49.5192 26.4441 49.64 26.3442 49.8074C26.2444 49.9747 26.2151 50.1748 26.2628 50.3638C26.6435 51.4975 27.2781 52.5294 28.118 53.3808C28.958 54.2322 29.9812 54.8807 31.1097 55.2767C31.1893 55.3083 31.2738 55.3257 31.3594 55.3281C31.5305 55.3285 31.6963 55.2692 31.8283 55.1604C31.9603 55.0516 32.0502 54.9 32.0824 54.732C32.1146 54.564 32.0872 54.39 32.0048 54.2401C31.9224 54.0901 31.7902 53.9737 31.6311 53.9108V53.9108Z" fill="black"/>
<path d="M32.8281 54.5938H34.2969V56.0625H32.8281V54.5938Z" fill="black"/>
</g>
<defs>
<clipPath id="clip0_7_39">
<rect width="47" height="47" fill="white" transform="translate(13 12)"/>
</clipPath>
</defs>
</svg>
