<svg width="40" height="40" viewBox="0 0 40 40" fill="none" xmlns="http://www.w3.org/2000/svg">
<g clip-path="url(#clip0_1240_31068)">
<path d="M12.5136 14.1249H13.0793V14.5178C13.0793 16.6505 14.6586 19.074 16.6133 20.2647L16.6131 22.2357C16.6131 22.4208 16.4925 22.5842 16.3156 22.6387L13.8291 23.9638L14.154 24.2892C17.3698 27.5099 22.632 27.5098 25.8477 24.2891L26.1721 23.9641L23.6839 22.6387C23.5071 22.5841 23.3864 22.4207 23.3864 22.2357L23.3863 20.2488C25.342 19.0575 26.9205 16.6364 26.9205 14.5026V14.1249H27.4862C28.0219 14.1249 28.4561 13.6906 28.4561 13.1549V11.2552C28.4553 10.9659 28.2205 10.7319 27.9312 10.7319H12.0686C11.7793 10.7319 11.5446 10.9659 11.5437 11.2552V13.155C11.5436 13.6906 11.9779 14.1249 12.5136 14.1249Z" fill="#FED9A8"/>
<path d="M19.8987 38.2262C19.9172 38.2604 19.9486 38.2792 19.9821 38.2841C19.988 38.2851 19.994 38.2846 20 38.2846C20.0061 38.2846 20.0121 38.2851 20.018 38.2841C20.0514 38.2792 20.0829 38.2604 20.1014 38.2262L26.5977 22.8739L25.0787 22.3372C24.8382 22.2522 24.5716 22.2872 24.3612 22.4314L20.0001 25.4207L15.639 22.4314C15.4286 22.2872 15.1621 22.2522 14.9216 22.3372L13.4026 22.8739L19.8987 38.2262Z" fill="#10C4C4"/>
<path d="M20.8369 28.6755H19.163L17.6199 38.7537H22.3801L20.8369 28.6755Z" fill="#FF9A1F"/>
<path d="M19.9999 25.4207L17.7654 27.2028C17.7083 27.2504 17.6937 27.3323 17.731 27.3967L18.8714 29.3681C18.8987 29.4153 18.9491 29.4444 19.0038 29.4444H20.9963C21.0508 29.4444 21.1013 29.4153 21.1286 29.3681L22.269 27.3967C22.3063 27.3323 22.2917 27.2504 22.2346 27.2028L19.9999 25.4207Z" fill="#FFBF14"/>
<path d="M15.7676 28.7976L17.7839 27.188L20.0001 25.4207L15.6389 22.4314C15.4285 22.2872 15.162 22.2522 14.9215 22.3372L12.7014 23.1216L15.7676 28.7976Z" fill="#0FB0C0"/>
<path d="M24.2324 28.7976L22.2162 27.188L20 25.4207L24.3611 22.4314C24.5715 22.2872 24.8381 22.2522 25.0785 22.3372L27.2986 23.1216L24.2324 28.7976Z" fill="#0FB0C0"/>
<path d="M39.3961 37.4272L39.044 30.9581C38.8986 28.6714 37.4041 26.6926 35.2467 25.9302L25.9375 22.6407L20.0779 36.4883C20.0637 36.5147 20.0395 36.5291 20.0138 36.5329C20.0092 36.5336 20.0046 36.5333 20 36.5333C19.9954 36.5333 19.9908 36.5336 19.9862 36.5329C19.9605 36.529 19.9363 36.5146 19.9221 36.4883L14.0626 22.6407L4.75321 25.9302C2.59585 26.6926 1.10139 28.6714 0.956 30.9581L0.603889 37.4272C0.558185 38.1458 1.1278 38.7537 1.84671 38.7537H19.9845H20.0154H38.1532C38.8722 38.7537 39.4418 38.1458 39.3961 37.4272Z" fill="#E1EFFB"/>
<path d="M39.3961 37.4272L39.044 30.9581C38.8986 28.6714 37.4041 26.6926 35.2467 25.9302L25.9375 22.6407L25.4123 23.8817L31.2095 25.9302C33.3668 26.6926 34.8613 28.6714 35.0067 30.9581L35.3449 37.1721H1.84671C1.29178 37.1721 0.827171 36.8093 0.664514 36.3136L0.603889 37.4272C0.558185 38.1458 1.1278 38.7537 1.84671 38.7537H38.1532C38.8722 38.7537 39.4418 38.1458 39.3961 37.4272Z" fill="#CCDFED"/>
<path d="M13.0798 14.5181C13.0798 17.156 15.4958 20.2396 18.0499 20.8836C19.7095 21.3021 20.1951 21.3049 21.8561 20.8919L21.9319 20.8731C24.495 20.2357 26.9202 17.1478 26.9202 14.503V7.11426H13.0798V14.5181Z" fill="#FED9A8"/>
<path d="M14.7744 18.6556C15.4497 19.4648 16.2747 20.1393 17.1503 20.5551H22.8152C23.6982 20.1428 24.5311 19.4679 25.2127 18.6556H14.7744Z" fill="#FED9A8"/>
<path d="M28.8026 34.6328C30.1518 34.6328 31.2456 33.539 31.2456 32.1898C31.2456 30.8406 30.1518 29.7468 28.8026 29.7468C27.4534 29.7468 26.3596 30.8406 26.3596 32.1898C26.3596 33.539 27.4534 34.6328 28.8026 34.6328Z" fill="#7A88E8"/>
<path d="M28.8024 33.3162C29.4245 33.3162 29.9289 32.8119 29.9289 32.1898C29.9289 31.5677 29.4245 31.0634 28.8024 31.0634C28.1803 31.0634 27.676 31.5677 27.676 32.1898C27.676 32.8119 28.1803 33.3162 28.8024 33.3162Z" fill="#61AFF6"/>
<path d="M22.9507 7.11426V14.5029C22.9507 16.446 21.6418 19.4756 19.9309 21.1993C20.4747 21.2035 21.0145 21.1012 21.8562 20.8919L21.932 20.8731C24.4951 20.2357 26.9203 17.1478 26.9203 14.503V7.11426H22.9507Z" fill="#F4C892"/>
<path d="M19.9863 1.24603H17.5886C14.3085 1.24603 11.6494 3.90511 11.6494 7.18521L11.8715 10.7302C11.9003 11.1894 12.4362 11.442 12.7955 11.1547C13.1164 10.8982 13.3219 10.5034 13.3219 10.0605V7.71263C20.6686 11.0955 23.9831 10.5058 25.4675 9.44233C25.9618 9.08819 26.6504 9.45405 26.6504 10.0621C26.6504 10.5052 26.8563 10.9 27.1775 11.1565C27.5369 11.4436 28.0727 11.191 28.1014 10.7319L28.323 7.18529C28.323 3.90519 25.6639 1.24611 22.3839 1.24611L19.9863 1.24603Z" fill="#FFB125"/>
<path d="M22.3839 1.24603H19.9862H18.4143C21.6944 1.24603 24.3535 3.90511 24.3535 7.18521L24.1748 10.0446C24.7132 9.89335 25.1361 9.67968 25.4676 9.44225C25.962 9.08811 26.6505 9.45397 26.6505 10.062C26.6505 10.5051 26.8564 10.8999 27.1776 11.1564C27.537 11.4435 28.0728 11.1909 28.1015 10.7318L28.3231 7.18521C28.323 3.90511 25.664 1.24603 22.3839 1.24603Z" fill="#FF901D"/>
<path d="M19.9927 37.1348C19.9585 37.1348 19.9255 37.1322 19.892 37.1269C19.6787 37.0952 19.4967 36.9666 19.3928 36.7741C19.3838 36.7573 19.3755 36.7402 19.3682 36.7227L13.7291 23.3963L11.8776 24.0506V25.794C13.0337 26.0294 13.9037 27.0103 13.9952 28.1838L14.4606 34.1555C14.4823 34.4326 14.3864 34.7085 14.1976 34.9126C14.0088 35.1167 13.7412 35.2337 13.4632 35.2337H12.6668C12.3351 35.2337 12.0654 34.9639 12.0654 34.6323C12.0654 34.3008 12.3351 34.0309 12.6668 34.0309H13.2445L12.7961 28.2773C12.7378 27.5297 12.1048 26.9442 11.355 26.9442C10.6051 26.9442 9.97208 27.5298 9.9138 28.2774L9.46544 34.031H10.0431C10.3747 34.031 10.6445 34.3008 10.6445 34.6324C10.6445 34.964 10.3747 35.2338 10.0431 35.2338H9.24669C8.96872 35.2338 8.70106 35.1168 8.51239 34.9127C8.32364 34.7086 8.22762 34.4326 8.24934 34.1556L8.71465 28.1839C8.80169 27.0678 9.5888 26.124 10.6748 25.8319V24.4757L4.95362 26.4973C3.24009 27.1028 1.96782 28.5898 1.63336 30.378C1.58024 30.6625 1.33196 30.869 1.04297 30.869C1.00586 30.869 0.968359 30.8655 0.93164 30.8586C0.773749 30.829 0.636873 30.7398 0.546091 30.6073C0.455309 30.4748 0.421559 30.3148 0.451091 30.1569C0.86414 27.9483 2.43587 26.1114 4.55291 25.3632L10.684 23.1967C10.8094 21.1379 12.3083 19.4489 14.3366 19.0782C13.2176 17.7516 12.5434 16.1673 12.4843 14.7254C11.6327 14.7095 10.9424 14.0082 10.9424 13.1549V11.2552C10.9433 10.9669 11.0537 10.6927 11.2535 10.4824L11.0493 7.22288C11.0484 7.21038 11.048 7.1978 11.048 7.1853C11.048 3.57879 13.9821 0.644714 17.5887 0.644714H22.384C25.9906 0.644714 28.9247 3.57879 28.9247 7.1853C28.9247 7.19788 28.9243 7.2103 28.9234 7.2228L28.7214 10.4559C28.9374 10.6688 29.0568 10.9518 29.0577 11.2534V13.1549C29.0577 14.0084 28.3672 14.7098 27.5154 14.7254C27.4522 16.1695 26.7742 17.7529 25.653 19.0762C27.655 19.4379 29.192 21.1655 29.3161 23.1966L31.6213 24.0112C31.9339 24.1216 32.0984 24.4659 31.9879 24.7786C31.9031 25.0186 31.6753 25.1799 31.421 25.1799C31.3528 25.1799 31.2854 25.1682 31.2205 25.1453L29.3252 24.4756V29.1916C30.787 29.4455 31.8464 30.7043 31.8464 32.1898C31.8464 33.8683 30.4809 35.2339 28.8024 35.2339C27.124 35.2339 25.7584 33.8683 25.7584 32.1898C25.7584 30.783 26.7518 29.5375 28.1223 29.2233V24.0506L26.2707 23.3964L20.6318 36.7228C20.6242 36.7407 20.6157 36.7582 20.6065 36.7754C20.595 36.7967 20.5821 36.8169 20.5686 36.8366L20.5643 36.8434C20.5541 36.8581 20.5427 36.8718 20.5314 36.8854C20.5314 36.8854 20.5176 36.903 20.5146 36.9063C20.5079 36.9139 20.5007 36.9208 20.4937 36.9277L20.4757 36.9455C20.4701 36.9514 20.4644 36.9572 20.4584 36.9626C20.4536 36.9668 20.4487 36.9706 20.4438 36.9743L20.427 36.9877C20.4171 36.9959 20.4071 37.0041 20.3964 37.0115C20.3931 37.0138 20.3791 37.0222 20.3791 37.0222C20.3608 37.0341 20.3454 37.0441 20.3293 37.0528L20.3209 37.0567C20.2965 37.0689 20.2775 37.0783 20.2575 37.0862C20.2521 37.0884 20.2463 37.0902 20.2406 37.0919L20.223 37.0978C20.2093 37.1027 20.1957 37.1075 20.1815 37.1113C20.1555 37.1183 20.129 37.1238 20.102 37.1278C20.0725 37.1325 20.0417 37.1348 20.0077 37.1348H20.0002H19.9927ZM19.9999 35.1291L20.8933 33.0177L20.4382 30.0457H19.5616L19.1064 33.0177L19.9999 35.1291ZM28.8024 30.3486C27.7871 30.3486 26.9612 31.1746 26.9612 32.1898C26.9612 33.2051 27.7871 34.031 28.8024 34.031C29.8176 34.031 30.6435 33.2051 30.6435 32.1898C30.6435 31.1746 29.8176 30.3486 28.8024 30.3486ZM21.7868 30.9061L22.8278 28.4462L22.5054 28.189L21.6491 29.6693C21.6364 29.6913 21.622 29.712 21.6072 29.7323L21.7868 30.9061ZM18.213 30.9061L18.3927 29.7322C18.3778 29.7119 18.3635 29.6912 18.3507 29.6692L17.4944 28.1889L17.172 28.446L18.213 30.9061ZM20.7375 28.8429L21.5545 27.4303L19.9999 26.19L18.4453 27.4303L19.2624 28.8429H20.7375ZM16.6852 27.2955L17.3783 26.7425L17.3904 26.7324L18.9895 25.4573L15.2988 22.9274C15.2659 22.9049 15.2273 22.893 15.1873 22.893C15.1648 22.893 15.1428 22.8967 15.1217 22.9042L14.8654 22.9948L16.6852 27.2955ZM23.3147 27.2955L25.1344 22.9948L24.878 22.9041C24.857 22.8967 24.835 22.893 24.8126 22.893C24.7724 22.893 24.7339 22.9048 24.7012 22.9273L21.0104 25.4572L23.3147 27.2955ZM19.9999 24.6917L22.8978 22.7052C22.824 22.5614 22.785 22.3994 22.785 22.2358L22.7848 21.2248C22.7779 21.2276 22.7365 21.2435 22.7365 21.2435C22.6719 21.2688 22.6073 21.2933 22.5424 21.316C22.49 21.3344 22.4376 21.3521 22.3852 21.3687C22.3599 21.3767 22.3347 21.3846 22.3093 21.3922C22.2207 21.4188 22.1468 21.4394 22.0768 21.4567L22.0011 21.4756C21.8915 21.503 21.7864 21.5285 21.6852 21.5523L21.5157 21.5915C21.4746 21.6008 21.3662 21.6246 21.3662 21.6246C21.3292 21.6326 21.2219 21.655 21.2219 21.655C21.1888 21.6618 21.0871 21.6816 21.0871 21.6816C21.0525 21.6883 20.9599 21.7051 20.9599 21.7051C20.9296 21.7105 20.836 21.7261 20.836 21.7261C20.8065 21.7309 20.7769 21.7357 20.7478 21.74C20.7478 21.74 20.6534 21.7534 20.6296 21.7565C20.6296 21.7565 20.5368 21.7679 20.5138 21.7705C20.5138 21.7705 20.423 21.7799 20.3996 21.7819L20.3647 21.7848C20.3364 21.7871 20.3119 21.7892 20.2879 21.7909L20.2514 21.793C20.2266 21.7945 20.2016 21.796 20.1769 21.7972L20.1409 21.7984C20.1158 21.7994 20.0914 21.8004 20.0671 21.8009L19.9639 21.8021C19.9639 21.8021 19.8666 21.801 19.8478 21.8005L19.7372 21.7965L19.6258 21.7898C19.6258 21.7898 19.5323 21.7823 19.5132 21.7805C19.5132 21.7805 19.4192 21.771 19.3989 21.7687L19.2821 21.7541C19.2821 21.7541 19.1867 21.7407 19.1632 21.7371C19.1632 21.7371 19.0665 21.7217 19.041 21.7174L18.9155 21.6952L18.7857 21.6703L18.6117 21.6342C18.5764 21.6266 18.4765 21.6045 18.4765 21.6045C18.4411 21.5966 18.3428 21.5739 18.3428 21.5739C18.3024 21.5645 18.1475 21.5273 18.1475 21.5273L18.0648 21.5072C18.0119 21.4941 17.9578 21.4806 17.9027 21.4667C17.8335 21.4493 17.7599 21.4286 17.6708 21.4016C17.6472 21.3944 17.6236 21.387 17.6 21.3794C17.5424 21.3611 17.485 21.3416 17.4275 21.321C17.3806 21.3043 17.3336 21.2864 17.2867 21.2683C17.2867 21.2683 17.2285 21.2459 17.2146 21.2405L17.2145 22.2357C17.2145 22.3992 17.1755 22.5611 17.1017 22.7049L19.9999 24.6917ZM15.1421 20.2069C13.6293 20.2069 12.2954 21.273 11.9597 22.7459L14.721 21.7701C14.8704 21.7173 15.0269 21.6905 15.1862 21.6905C15.4712 21.6905 15.7452 21.7751 15.9789 21.9353L16.0117 21.9579L16.012 20.5955C15.8347 20.476 15.6581 20.3453 15.4866 20.2069H15.1421ZM24.8137 21.6905C24.973 21.6905 25.1294 21.7173 25.2788 21.7701L28.0402 22.7459C27.7045 21.273 26.3705 20.2069 24.8577 20.2069H24.4946C24.3288 20.3397 24.1583 20.4652 23.9877 20.5801L23.9879 21.958L24.0211 21.9353C24.2546 21.7751 24.5287 21.6905 24.8137 21.6905ZM16.9386 19.7568C17.0011 19.7949 17.0641 19.8314 17.1273 19.8665L17.1459 19.877C17.2752 19.9482 17.4083 20.014 17.5415 20.0726L17.6011 20.0979C17.6465 20.1171 17.6921 20.1356 17.7376 20.1531C17.76 20.1618 17.7825 20.1702 17.805 20.1784C17.8506 20.1951 17.8963 20.2107 17.942 20.2257C17.942 20.2257 17.9891 20.2413 18.0019 20.2452C18.0735 20.2673 18.1372 20.2855 18.1968 20.3005C18.5784 20.3966 18.8507 20.459 19.0801 20.503C19.4224 20.5683 19.695 20.5975 19.9642 20.5975C20.4547 20.5975 20.9564 20.4958 21.7108 20.3083L21.7865 20.2894C21.8441 20.2751 21.9072 20.2574 21.9795 20.2354C21.994 20.231 22.0403 20.2159 22.0403 20.2159C22.0854 20.2014 22.1304 20.186 22.1755 20.1698C22.2004 20.1608 22.2214 20.1532 22.2424 20.1452C22.2903 20.1271 22.3381 20.1077 22.3857 20.0876L22.4363 20.0667C22.4995 20.0394 22.5624 20.0103 22.625 19.9797L22.6758 19.954C22.7247 19.9295 22.7737 19.9043 22.8224 19.8779L22.8692 19.8521C22.93 19.8183 22.9849 19.7867 23.0395 19.7538L23.0597 19.7419C24.9174 18.6109 26.3183 16.3586 26.3183 14.503V11.0656C26.2527 10.9527 26.1985 10.8342 26.1571 10.7136L26.1521 10.6977C26.1412 10.665 26.131 10.632 26.1217 10.5986L26.1113 10.5584C26.1048 10.5325 26.0985 10.5066 26.093 10.4804C26.0897 10.4646 26.0866 10.4488 26.0836 10.4331C26.0789 10.4081 26.0749 10.3831 26.0711 10.358C26.0711 10.358 26.0658 10.322 26.0644 10.31C26.061 10.2828 26.0586 10.2556 26.0563 10.2282C26.0563 10.2282 26.0534 10.1957 26.0528 10.1866C26.0502 10.1453 26.0487 10.1038 26.0487 10.0621C26.0487 9.97946 25.9945 9.9393 25.9622 9.92266C25.9394 9.91094 25.9166 9.905 25.8944 9.905C25.8752 9.905 25.8564 9.90953 25.8384 9.91852C25.8316 9.92196 25.8245 9.92618 25.8175 9.93125C25.4448 10.1983 25.0111 10.412 24.5284 10.5665L24.4876 10.5803C24.4712 10.5854 24.4545 10.59 24.4377 10.5947L24.3744 10.6129C24.3279 10.6266 24.2814 10.6404 24.2337 10.6528L24.1964 10.6617C23.6397 10.8031 23.0143 10.8747 22.3373 10.8747C22.0837 10.8747 21.8183 10.8646 21.5486 10.8448C19.4827 10.6924 16.9171 9.95133 13.9231 8.64203V10.0607C13.9231 10.1013 13.9217 10.1416 13.9193 10.1816L13.9166 10.2146C13.9144 10.2441 13.9118 10.2734 13.9084 10.3026L13.9035 10.3371C13.8995 10.3662 13.8952 10.3952 13.8898 10.424L13.884 10.4537C13.8778 10.4847 13.8711 10.5155 13.8634 10.546L13.8578 10.5677C13.8489 10.6021 13.8391 10.6361 13.8283 10.6698L13.8252 10.6799C13.7865 10.7991 13.7373 10.9137 13.679 11.0204L13.6809 14.5182C13.6809 16.3688 15.0777 18.6188 16.93 19.7519L16.9301 19.7703L16.9386 19.7568ZM12.1451 13.1549C12.1451 13.3457 12.29 13.5038 12.478 13.5218L12.4781 11.8767C12.4685 11.8769 12.4588 11.877 12.4491 11.877C12.346 11.877 12.2438 11.8635 12.1451 11.8367V13.1549ZM27.5218 13.5217C27.7098 13.5038 27.8547 13.3457 27.8547 13.1549V11.8305C27.746 11.8627 27.6345 11.8792 27.5229 11.8792L27.5216 11.8791L27.5218 13.5217ZM25.8954 8.70273C25.9226 8.70273 25.9498 8.70367 25.9771 8.70531L26.004 8.70773C26.0234 8.70929 26.0429 8.71101 26.0623 8.71351L26.0962 8.71851C26.1133 8.72117 26.1302 8.72382 26.1472 8.72711C26.1592 8.72945 26.1711 8.73195 26.1828 8.73461C26.1993 8.7382 26.2159 8.74218 26.2323 8.7464C26.2439 8.74953 26.2557 8.75265 26.2673 8.75601C26.2841 8.76085 26.3008 8.76617 26.3173 8.77172L26.3505 8.78296C26.3684 8.78945 26.3863 8.79656 26.4041 8.8039L26.4322 8.81531C26.4591 8.82695 26.4858 8.83945 26.5122 8.85297C26.9684 9.08734 27.2518 9.5507 27.2518 10.0623C27.2518 10.0884 27.2534 10.1144 27.256 10.1402L27.258 10.1572C27.261 10.1814 27.2641 10.201 27.268 10.2205L27.2719 10.2397C27.2774 10.2644 27.2841 10.2888 27.292 10.3126L27.2948 10.3202C27.3039 10.3458 27.3111 10.3639 27.319 10.3817C27.323 10.3909 27.3272 10.3998 27.3315 10.4088C27.338 10.4224 27.3452 10.4357 27.3524 10.4489C27.3524 10.4489 27.3643 10.4705 27.3683 10.477C27.406 10.539 27.4515 10.595 27.5037 10.6441L27.7216 7.16647C27.712 4.23411 25.3174 1.84761 22.3838 1.84761H17.5885C14.6548 1.84761 12.2603 4.23411 12.2507 7.16757L12.4685 10.6428C12.514 10.5998 12.5551 10.5501 12.5912 10.4947C12.6026 10.4773 12.6131 10.4595 12.623 10.4414C12.6317 10.4254 12.6376 10.4146 12.6429 10.4035C12.6468 10.3953 12.6573 10.3705 12.6573 10.3705C12.6625 10.3581 12.6676 10.3455 12.6721 10.3327C12.6758 10.3225 12.6794 10.3127 12.6826 10.3029C12.6895 10.2809 12.6959 10.2588 12.7009 10.2361L12.7027 10.2263C12.708 10.1991 12.7113 10.1793 12.7138 10.1592L12.7162 10.1374C12.7187 10.112 12.7204 10.0866 12.7204 10.0608V7.71265C12.7204 7.50663 12.824 7.31725 12.9975 7.20616C13.0944 7.14405 13.2066 7.11116 13.3218 7.11116C13.4092 7.11116 13.4939 7.12975 13.5734 7.16631C18.0735 9.23851 20.8427 9.67344 22.3733 9.67344C22.9363 9.67344 23.4491 9.61539 23.8974 9.50094C24.3669 9.38101 24.7774 9.1968 25.1172 8.95336C25.1447 8.93367 25.1729 8.91523 25.2015 8.89781L25.2278 8.88289C25.248 8.87125 25.2681 8.85984 25.2887 8.84929C25.2964 8.84539 25.3216 8.83343 25.3216 8.83343C25.3405 8.82445 25.3595 8.8157 25.3787 8.80757C25.3898 8.80289 25.4008 8.79859 25.412 8.79422C25.4333 8.78601 25.4523 8.77906 25.4715 8.77265C25.4836 8.76851 25.4958 8.76461 25.5081 8.76093C25.5276 8.755 25.5473 8.74968 25.5669 8.74461C25.5829 8.74054 25.5928 8.73796 25.6029 8.7357C25.6238 8.73101 25.6451 8.72711 25.6662 8.72336L25.6987 8.71765C25.724 8.71382 25.7495 8.71109 25.775 8.70875L25.7953 8.70664C25.828 8.70414 25.8608 8.70289 25.8936 8.70281L25.8954 8.70273Z" fill="black"/>
<path d="M1.84674 39.3552C1.339 39.3552 0.848371 39.1426 0.500791 38.7722C0.152586 38.4012 -0.0285873 37.897 0.00367854 37.389L0.148054 34.7365C0.165476 34.4175 0.42829 34.1677 0.746417 34.1677C0.757902 34.1677 0.769621 34.168 0.781339 34.1687C1.11236 34.1868 1.36705 34.4708 1.34908 34.8019L1.20447 37.4598C1.19283 37.6438 1.25439 37.8175 1.37775 37.9491C1.50072 38.0801 1.6672 38.1523 1.84666 38.1523H6.04489V31.9071C6.04489 31.5755 6.31465 31.3057 6.6463 31.3057C6.97794 31.3057 7.2477 31.5756 7.2477 31.9071V38.1523H32.6754V31.9071C32.6754 31.5755 32.9452 31.3057 33.2768 31.3057C33.6085 31.3057 33.8783 31.5756 33.8783 31.9071V38.1523H38.153C38.3325 38.1523 38.4991 38.0801 38.622 37.9491C38.7454 37.8176 38.8071 37.6458 38.7957 37.4654L38.4432 30.9908C38.3268 29.1598 37.2298 27.5235 35.5801 26.7207C35.4358 26.6504 35.3272 26.528 35.2749 26.3762C35.2224 26.2244 35.2322 26.0612 35.3026 25.9168C35.4041 25.7081 35.6115 25.5784 35.8437 25.5784C35.9353 25.5784 36.0237 25.5989 36.1065 25.6392C38.1444 26.631 39.4999 28.6545 39.6439 30.9199L39.9963 37.3945C40.0284 37.899 39.8471 38.4012 39.4989 38.7723C39.1513 39.1427 38.6607 39.3552 38.153 39.3552H1.84674V39.3552Z" fill="black"/>
</g>
<defs>
<clipPath id="clip0_1240_31068">
<rect width="40" height="40" fill="white"/>
</clipPath>
</defs>
</svg>
