<svg width="43" height="40" viewBox="0 0 43 40" fill="none" xmlns="http://www.w3.org/2000/svg">
<path d="M36.8336 19.3095V11.667C36.8336 10.2862 37.9527 9.16699 39.3336 9.16699C40.7144 9.16699 41.8336 10.2862 41.8336 11.667V22.987C41.8336 26.7745 39.6936 30.237 36.3061 31.9312L31.8336 34.167V39.167H23.0002V28.2878C23.0002 26.1737 24.6019 24.4028 26.7052 24.192C26.7149 24.1892 30.5251 23.6063 32.3611 21.7703L34.2327 19.8995C34.9313 19.2009 35.9499 18.9961 36.8336 19.3095Z" fill="#FCE8D0"/>
<path d="M26.5794 0.83374C31.1444 0.83374 32.7352 5.03791 32.7352 7.50041C32.7352 12.5004 28.6252 15.3412 21.3336 21.6671C14.0419 15.3412 9.93188 12.5004 9.93188 7.50041C9.93188 5.03791 11.5227 0.83374 16.0877 0.83374C18.8902 0.83374 20.4436 2.87957 21.3336 4.50791C22.2236 2.87957 23.7769 0.83374 26.5794 0.83374Z" fill="#FF7B79"/>
<path d="M5.8335 19.3095C6.71683 18.9962 7.7355 19.2007 8.43433 19.8995L10.306 21.7703C12.1053 23.5697 15.9533 24.1896 15.9618 24.192C18.0652 24.4028 19.6668 26.1737 19.6668 28.2878V39.167H10.8335V34.167L6.361 31.9312C2.9735 30.237 0.833496 26.7745 0.833496 22.987V11.667C0.833496 10.2862 1.95266 9.16699 3.3335 9.16699C4.71433 9.16699 5.8335 10.2862 5.8335 11.667V19.3095Z" fill="#FCE8D0"/>
<path d="M33.5684 7.5C33.5684 4.60033 31.6709 0 26.5792 0C24.4872 0 22.7275 0.98625 21.3334 2.93575C19.9393 0.98625 18.1795 0 16.0876 0C10.9958 0 9.09839 4.60033 9.09839 7.5C9.09839 12.4994 13.0002 15.6267 18.3306 20.1848C19.1139 20.8544 19.9238 21.547 20.7873 22.2962C20.944 22.4321 21.1386 22.5 21.3334 22.5C21.5281 22.5 21.7228 22.4321 21.8795 22.2962C22.743 21.547 23.5529 20.8544 24.3361 20.1848C29.9166 15.4128 33.5684 12.3938 33.5684 7.5ZM21.3334 20.5647C20.6675 19.99 20.0324 19.4469 19.4138 18.9179C13.837 14.1493 10.7651 11.5225 10.7651 7.5C10.7651 4.77142 12.5501 1.66667 16.0876 1.66667C17.9336 1.66667 19.4104 2.72667 20.6022 4.90717C20.7483 5.1745 21.0287 5.34083 21.3334 5.34083C21.6381 5.34083 21.9185 5.1745 22.0646 4.90717C23.2564 2.72667 24.7331 1.66667 26.5792 1.66667C30.0672 1.66667 31.9017 4.72533 31.9017 7.5C31.9017 11.5225 28.8298 14.1493 23.253 18.918C22.6344 19.4469 21.9993 19.99 21.3334 20.5647Z" fill="black"/>
<path d="M5.98817 32.6761L10 34.6817V39.1666C10 39.6268 10.3732 39.9999 10.8333 39.9999H19.6667C20.1268 39.9999 20.5 39.6268 20.5 39.1666V28.2874C20.5 25.7343 18.5848 23.617 16.0513 23.363L15.9831 23.3557C14.5167 23.2087 11.9202 22.2057 10.8949 21.1805L9.02342 19.3098C8.39367 18.6801 7.55675 18.3333 6.66667 18.3333V11.6666C6.66667 9.82859 5.17133 8.33325 3.33333 8.33325C1.49533 8.33325 0 9.82859 0 11.6666V22.9866C0 27.0878 2.3165 30.8398 5.98817 32.6761ZM1.66667 11.6666C1.66667 10.7476 2.41433 9.99992 3.33333 9.99992C4.25233 9.99992 5 10.7476 5 11.6666V18.78C3.98367 19.3677 3.33333 20.4633 3.33333 21.6666C3.33333 22.5567 3.68017 23.3936 4.30992 24.0233L8.57742 28.2916C8.90275 28.6171 9.43042 28.6171 9.75592 28.2917C10.0813 27.9663 10.0814 27.4387 9.756 27.1132L5.4885 22.8448C5.17342 22.5298 5 22.1114 5 21.6666C5 20.9613 5.44642 20.3296 6.111 20.0948C6.11108 20.0948 6.11125 20.0948 6.11133 20.0947C6.1115 20.0946 6.11175 20.0946 6.11192 20.0945C6.68675 19.8905 7.36858 20.012 7.845 20.4885L9.7165 22.3593C11.6487 24.2914 15.8701 25.0184 15.8785 25.0208C17.563 25.1896 18.8333 26.594 18.8333 28.2874V38.3333H11.6666V34.1666C11.6666 33.8509 11.4882 33.5623 11.2059 33.4213L6.7335 31.1854C3.60825 29.6223 1.66667 26.4808 1.66667 22.9866V11.6666Z" fill="black"/>
<path d="M38.2501 31.4999C38.7103 31.4999 39.0834 31.1268 39.0834 30.6666C39.0834 30.2063 38.7103 29.8333 38.2501 29.8333C37.7898 29.8333 37.4167 30.2063 37.4167 30.6666C37.4167 31.1268 37.7898 31.4999 38.2501 31.4999Z" fill="black"/>
<path d="M39.3334 8.33325C37.4954 8.33325 36.0001 9.82859 36.0001 11.6666V18.3333C35.11 18.3333 34.2731 18.6801 33.6435 19.3098L31.7717 21.1807C30.7466 22.2058 28.1501 23.2088 26.6772 23.3563L26.622 23.3623C24.082 23.617 22.1667 25.7343 22.1667 28.2874V39.1666C22.1667 39.6268 22.5399 39.9999 23.0001 39.9999H31.8334C32.2936 39.9999 32.6667 39.6268 32.6667 39.1666V34.6817L35.3942 33.3182C35.8058 33.1123 35.9727 32.6118 35.767 32.2002C35.5612 31.7886 35.0606 31.6215 34.649 31.8274L31.4607 33.4213C31.1785 33.5623 31.0001 33.8509 31.0001 34.1666V38.3333H23.8334V28.2874C23.8334 26.594 25.1037 25.1896 26.7947 25.0201L26.8498 25.0141C28.6574 24.8328 31.6503 23.659 32.95 22.3593L34.8218 20.4884C35.2996 20.0105 35.9827 19.8916 36.5547 20.0945C36.5549 20.0946 36.5552 20.0946 36.5553 20.0947C36.5554 20.0947 36.5556 20.0948 36.5557 20.0948C37.2203 20.3296 37.6667 20.9613 37.6667 21.6666C37.6667 22.1114 37.4933 22.5298 37.1783 22.8449L32.9108 27.1132C32.5854 27.4387 32.5855 27.9663 32.9109 28.2918C33.2362 28.6172 33.764 28.6172 34.0894 28.2917L38.3569 24.0234C38.9866 23.3936 39.3334 22.5567 39.3334 21.6666C39.3334 20.4633 38.6831 19.3677 37.6667 18.78V11.6666C37.6667 10.7476 38.4144 9.99992 39.3334 9.99992C40.2524 9.99992 41.0001 10.7476 41.0001 11.6666V22.9866C41.0001 24.5113 40.6153 26.0249 39.8873 27.3639C39.6674 27.7683 39.817 28.2743 40.2214 28.4941C40.6257 28.7139 41.1318 28.5645 41.3516 28.16C42.212 26.5774 42.6667 24.7885 42.6667 22.9866V11.6666C42.6667 9.82859 41.1714 8.33325 39.3334 8.33325Z" fill="black"/>
</svg>
