<svg width="40" height="40" viewBox="0 0 40 40" fill="none" xmlns="http://www.w3.org/2000/svg">
<path d="M11.9016 14.3159H28.0736V25.0828H11.9016V14.3159Z" fill="#2B4D66"/>
<path d="M32.5622 30.4559V39.4141H7.43774V30.4559C7.43774 28.155 8.9003 26.1096 11.0762 25.365L11.3184 25.2822L16.5741 23.4845H23.4259L28.6816 25.2822L28.9238 25.365C31.0997 26.1095 32.5622 28.155 32.5622 30.4559Z" fill="#89DAA4"/>
<path d="M29.3089 30.0948L20.9687 36.6857L18.6577 34.6598L19.621 33.041C21.0883 30.5784 21.8633 27.7611 21.8633 24.8946V23.4844H23.4259L28.6816 25.2821L27.6612 27.2408L29.3089 30.0948Z" fill="#6ECB8B"/>
<path d="M21.3421 34.66L19.0311 36.6858L10.6909 30.0949L12.3386 27.2409L11.3183 25.2822L16.574 23.4845H18.1365V24.8947C18.1365 27.7612 18.9116 30.5785 20.3788 33.0411L21.3421 34.66Z" fill="#6ECB8B"/>
<path d="M18.1366 23.4845L12.6387 25.365C10.4629 26.1096 9.00031 28.155 9.00031 30.4559V39.4141H7.43774V30.4559C7.43774 28.155 8.9003 26.1096 11.0762 25.365L16.5741 23.4845H18.1366Z" fill="#6ECB8B"/>
<path d="M23.4258 17.774V24.8947C21.3671 26.3283 18.6327 26.3283 16.574 24.8947V17.774H23.4258Z" fill="#FFCEBF"/>
<path d="M23.4258 17.774V22.0375C22.4 22.5727 21.2343 22.875 19.9999 22.875C18.7655 22.875 17.5998 22.5727 16.574 22.0375V17.774H23.4258Z" fill="#FFB09E"/>
<path d="M20.7812 25.9189C19.3319 26.1088 17.8279 25.7673 16.574 24.8947V17.774H18.1365V24.8947C18.9413 25.4556 19.8499 25.797 20.7812 25.9189Z" fill="#FFB09E"/>
<path d="M20.0001 0.584351C15.5343 0.584351 11.9141 4.20458 11.9141 8.67038V11.5052H28.0861V8.67038C28.0861 4.20458 24.4659 0.584351 20.0001 0.584351Z" fill="#365E7D"/>
<path d="M21.104 0.659232C17.1601 1.19675 14.1209 4.57892 14.1209 8.6705V11.505H11.9138V8.6705C11.9138 4.20469 15.5343 0.584229 20.0001 0.584229C20.3743 0.584307 20.7431 0.610089 21.104 0.659232Z" fill="#2B4D66"/>
<path d="M14.1211 10.5934H13.0258C12.1864 10.5934 11.5061 11.2738 11.5061 12.1131V13.2518C11.5061 14.0911 12.1865 14.7714 13.0258 14.7714H14.1211V10.5934Z" fill="#FFCEBF"/>
<path d="M25.8789 10.5934H26.9742C27.8135 10.5934 28.4939 11.2738 28.4939 12.1131V13.2518C28.4939 14.0911 27.8134 14.7714 26.9742 14.7714H25.8789V10.5934Z" fill="#FFCEBF"/>
<path d="M14.1211 10.2902V15.4334C14.1211 18.6803 16.7532 21.3124 20.0001 21.3124C23.2469 21.3124 25.8791 18.6803 25.8791 15.4334V10.2902H24.2214C23.1497 10.2902 22.1983 9.6045 21.8593 8.5879L21.2136 6.65149L20.5678 8.5879C20.2288 9.6045 19.2774 10.2902 18.2057 10.2902H14.1211Z" fill="#FFEEE6"/>
<path d="M20.7813 21.2609C20.5258 21.2953 20.2649 21.3125 20 21.3125C16.753 21.3125 14.1208 18.6803 14.1208 15.4333V10.2902H15.6834V15.4333C15.6834 18.4154 17.9038 20.8789 20.7813 21.2609Z" fill="#FFDFCF"/>
<path d="M21.9953 8.91433C21.5781 9.74874 20.7203 10.2902 19.7679 10.2902H18.2053C19.2772 10.2902 20.2288 9.6042 20.5679 8.58775L21.2133 6.65173L21.8594 8.58775C21.8969 8.70104 21.9422 8.81042 21.9953 8.91433Z" fill="#FFDFCF"/>
<path d="M16.5739 23.4845V24.8944C16.5739 28.0439 17.4246 31.135 19.0361 33.8409L20 35.4597L12.7195 29.7065L14.121 27.2797L12.8135 24.7708L16.5739 23.4845Z" fill="#AEE69C"/>
<path d="M23.4261 23.4845V24.8944C23.4261 28.0439 22.5754 31.135 20.9639 33.8409L20 35.4597L27.2805 29.7065L25.879 27.2797L27.1865 24.7708L23.4261 23.4845Z" fill="#AEE69C"/>
<path d="M32.5622 34.302C32.8858 34.302 33.1482 34.0397 33.1482 33.7161V30.4558C33.1482 27.7747 31.2447 25.338 28.6596 24.6553V14.5125C28.9234 14.1608 29.0798 13.7242 29.0798 13.2517V12.113C29.1019 11.3073 28.6722 10.8697 28.6722 10.8697C29.0433 5.66258 27.0705 1.63897 22.5528 0.380484C22.2412 0.293684 21.9156 0.458925 21.8204 0.768235C21.7252 1.07754 21.8988 1.40545 22.2081 1.50061C26.0839 2.69292 27.6088 6.3144 27.5002 10.0739C27.1709 9.98885 26.7382 9.99174 26.3919 10.0073C26.2921 9.82665 26.0999 9.70423 25.8788 9.70423H24.2213C22.6727 9.70423 22.0813 7.70696 21.7694 6.46612C21.6017 5.7993 20.7814 5.8579 20.6577 6.46612C20.4064 7.70157 19.7719 9.70423 18.2056 9.70423H14.1211C13.9001 9.70423 13.7079 9.82665 13.608 10.0073C13.2617 9.99166 12.4679 9.73532 12.4998 10.0739C12.0921 5.74078 14.9065 1.27536 19.8398 1.17169C20.1633 1.16489 20.4201 0.897068 20.4133 0.573539C20.4064 0.25001 20.1406 0 19.8151 0C14.2381 0 10.5075 4.74465 11.3279 10.8697C11.3279 10.8697 10.9202 11.6482 10.9202 12.113V13.2517C10.9202 13.709 11.0671 14.1323 11.3157 14.4779V24.6637C8.74103 25.3459 6.85188 27.7901 6.85188 30.4558V33.7161C6.85188 34.0397 7.11424 34.302 7.43785 34.302C7.76145 34.302 8.02381 34.0397 8.02381 33.7161V30.4558C8.02381 27.7425 10.1604 26.1791 12.5267 25.4882L13.4528 27.2652L12.2122 29.4135C12.0667 29.6654 12.128 29.9859 12.3563 30.1662L19.4141 35.7434V38.828H13.3055V33.3467C13.3055 33.0231 13.0432 32.7607 12.7195 32.7607C12.3959 32.7607 12.1336 33.0231 12.1336 33.3467V38.828H8.02373V36.2693C8.02373 35.9457 7.76138 35.6833 7.43777 35.6833C7.11416 35.6833 6.85181 35.9457 6.85181 36.2693V39.414C6.85181 39.7376 7.11416 39.9999 7.43777 39.9999H32.5622C32.8858 39.9999 33.1482 39.7376 33.1482 39.414V36.2693C33.1482 35.9457 32.8858 35.6833 32.5622 35.6833C32.2386 35.6833 31.9763 35.9457 31.9763 36.2693V38.828H27.7724V33.3467C27.7724 33.0231 27.5101 32.7607 27.1865 32.7607C26.8629 32.7607 26.6005 33.0231 26.6005 33.3467V38.828H20.586V35.7434L27.6438 30.1662C27.872 29.9859 27.9334 29.6654 27.7879 29.4135L26.5473 27.2652L27.4734 25.4882C29.855 26.1751 31.9763 27.7073 31.9763 30.4558V33.7161C31.9763 34.0397 32.2386 34.302 32.5622 34.302ZM20 34.3145C18.3593 32.2848 17.3241 27.8705 17.1918 25.9243C18.8867 27.1283 21.0743 27.265 22.8081 25.9243C22.6564 27.9097 21.543 31.9528 20 34.3145ZM22.84 21.2396L22.8401 24.577C21.1065 25.6452 18.8934 25.6451 17.1598 24.577L17.16 21.2397C19.1015 22.2063 21.1915 22.1477 22.84 21.2396ZM24.0119 23.0656V20.4974C25.593 19.2421 26.4079 17.3415 26.465 15.3574C26.7874 15.3713 27.1819 15.3708 27.4877 15.2938V24.2545L24.0119 23.0656ZM27.908 12.113V13.2517C27.908 13.7666 27.4891 14.1854 26.9743 14.1854H26.465V11.1792H26.9743C27.4891 11.1792 27.908 11.5981 27.908 12.113ZM21.2135 8.50379C21.5882 9.86994 22.7764 10.8761 24.2213 10.8761H25.2931V15.4334C25.2931 18.352 22.9186 20.7265 20.0001 20.7265C17.0815 20.7265 14.7071 18.352 14.7071 15.4334V10.8761H18.2056C19.8828 10.8582 21.211 9.66672 21.2135 8.50379ZM13.535 11.1792V14.1854H13.0257C12.5109 14.1854 12.092 13.7666 12.092 13.2517V12.113C12.092 11.5981 12.5109 11.1792 13.0257 11.1792H13.535ZM12.4876 15.2874C12.7986 15.3697 13.2051 15.372 13.535 15.3574C13.5656 17.3328 14.4249 19.2563 15.9881 20.4974V23.0656L12.4876 24.2629V15.2874ZM13.4803 29.5608L14.6285 27.5726C14.7287 27.3991 14.7332 27.1865 14.6406 27.0088L13.6483 25.1045L15.988 24.3042C15.8994 27.3325 16.5831 30.4007 17.9579 33.099L13.4803 29.5608ZM22.0421 33.0991C23.4169 30.4008 24.1006 27.3325 24.0121 24.3043L26.3518 25.1045L25.3594 27.0088C25.2669 27.1865 25.2715 27.3992 25.3716 27.5727L26.5198 29.5609L22.0421 33.0991Z" fill="black"/>
<path d="M17.47 14.4867C17.7936 14.4867 18.056 14.2243 18.056 13.9007V13.1316C18.056 12.808 17.7936 12.5457 17.47 12.5457C17.1464 12.5457 16.884 12.808 16.884 13.1316V13.9007C16.884 14.2243 17.1464 14.4867 17.47 14.4867Z" fill="black"/>
<path d="M22.5186 14.4867C22.8422 14.4867 23.1045 14.2243 23.1045 13.9007V13.1316C23.1045 12.808 22.8422 12.5457 22.5186 12.5457C22.195 12.5457 21.9326 12.808 21.9326 13.1316V13.9007C21.9326 14.2243 22.195 14.4867 22.5186 14.4867Z" fill="black"/>
<path d="M20.0001 18.832C21.1335 18.832 22.0555 17.9099 22.0555 16.7765C22.0555 16.4529 21.7932 16.1906 21.4696 16.1906C21.146 16.1906 20.8836 16.4529 20.8836 16.7765C20.8836 17.2636 20.4873 17.6601 20.0001 17.6601C19.5128 17.6601 19.1165 17.2637 19.1165 16.7765C19.1165 16.4529 18.8541 16.1906 18.5305 16.1906C18.2069 16.1906 17.9446 16.4529 17.9446 16.7765C17.9447 17.9099 18.8666 18.832 20.0001 18.832Z" fill="black"/>
</svg>
