<svg width="63" height="59" viewBox="0 0 63 59" fill="none" xmlns="http://www.w3.org/2000/svg">
<path d="M42.0234 30.3727V27.9053H48.7372V30.3727H42.0234ZM44.2613 42.2985L38.8455 38.5974L40.4568 36.6235L45.8726 40.3246L44.2613 42.2985ZM40.5911 21.6134L38.9798 19.6394L44.2613 15.9794L45.8726 17.9534L40.5911 21.6134ZM18.7488 40.6536V34.0738H15.6157C14.8697 34.0738 14.2356 33.8339 13.7135 33.3541C13.1913 32.8744 12.9302 32.2918 12.9302 31.6064V26.6716C12.9302 25.9862 13.1913 25.4036 13.7135 24.9238C14.2356 24.444 14.8697 24.2041 15.6157 24.2041H23.6723L32.624 19.2693V39.0086L23.6723 34.0738H21.4343V40.6536H18.7488ZM34.4144 34.6495V23.6284C35.22 24.2864 35.869 25.0883 36.3614 26.0341C36.8537 26.98 37.0999 28.0149 37.0999 29.139C37.0999 30.263 36.8537 31.298 36.3614 32.2438C35.869 33.1896 35.22 33.9915 34.4144 34.6495ZM15.6157 26.6716V31.6064H24.3884L29.9385 34.6495V23.6284L24.3884 26.6716H15.6157Z" fill="#166780"/>
<path d="M31.0825 58.7479C26.8345 58.7479 22.8197 57.9769 19.038 56.4347C15.2563 54.8926 11.9538 52.7875 9.13048 50.1193C6.30715 47.4512 4.07957 44.3302 2.44774 40.7564C0.815915 37.1825 0 33.3884 0 29.374C0 25.3106 0.815915 21.492 2.44774 17.9181C4.07957 14.3443 6.30715 11.2355 9.13048 8.59189C11.9538 5.94823 15.2563 3.85533 19.038 2.3132C22.8197 0.771066 26.8345 0 31.0825 0C35.3822 0 39.4229 0.771066 43.2046 2.3132C46.9863 3.85533 50.2759 5.94823 53.0733 8.59189C55.8708 11.2355 58.0854 14.3443 59.7172 17.9181C61.349 21.492 62.165 25.3106 62.165 29.374C62.165 33.3884 61.349 37.1825 59.7172 40.7564C58.0854 44.3302 55.8708 47.4512 53.0733 50.1193C50.2759 52.7875 46.9863 54.8926 43.2046 56.4347C39.4229 57.9769 35.3822 58.7479 31.0825 58.7479ZM31.0825 54.3418C38.4387 54.3418 44.6811 51.9062 49.8097 47.0351C54.9383 42.1639 57.5026 36.2768 57.5026 29.374C57.5026 22.4221 54.9383 16.5229 49.8097 11.6762C44.6811 6.82945 38.4387 4.40609 31.0825 4.40609C23.7781 4.40609 17.5486 6.82945 12.3941 11.6762C7.23963 16.5229 4.66237 22.4221 4.66237 29.374C4.66237 36.2768 7.23963 42.1639 12.3941 47.0351C17.5486 51.9062 23.7781 54.3418 31.0825 54.3418Z" fill="#166780"/>
</svg>
