<svg width="72" height="72" viewBox="0 0 72 72" fill="none" xmlns="http://www.w3.org/2000/svg">
<circle cx="36" cy="36" r="36" fill="#F0E7D2"/>
<path d="M41.226 16.3115C45.4407 16.3115 51.216 22.492 36.4985 31.6393C21.756 22.4761 27.5907 16.3115 31.7717 16.3115C34.9103 16.3115 36.4985 18.8762 36.4985 18.8762C36.4985 18.8762 38.0867 16.3115 41.226 16.3115V16.3115Z" fill="#41B9D5"/>
<path d="M35.0159 31.8105C35.4121 32.2068 35.939 32.4251 36.4996 32.4251C37.0601 32.4251 37.587 32.2068 37.9833 31.8105L40.229 29.5647C40.5437 29.2501 40.5437 28.74 40.229 28.4254C39.9144 28.1108 39.4043 28.1108 39.0897 28.4254L36.8438 30.6711C36.7518 30.763 36.6295 30.8137 36.4995 30.8137C36.3694 30.8137 36.2471 30.763 36.1551 30.6711L29.4135 23.9294C28.6721 23.188 28.2637 22.2023 28.2637 21.1537C28.2637 20.1052 28.6721 19.1195 29.4135 18.378C30.944 16.8476 33.4343 16.8476 34.9648 18.378L35.9298 19.343C36.2444 19.6577 36.7546 19.6577 37.0691 19.343L38.0341 18.378C38.7755 17.6366 39.7612 17.2283 40.8097 17.2283C41.8582 17.2283 42.844 17.6366 43.5853 18.378C44.3267 19.1195 44.7351 20.1052 44.7351 21.1537C44.7351 22.2023 44.3268 23.188 43.5853 23.9294L41.6207 25.894C41.3061 26.2087 41.3061 26.7188 41.6207 27.0333C41.9352 27.348 42.4454 27.348 42.76 27.0333L44.7246 25.0687C45.7704 24.023 46.3463 22.6326 46.3463 21.1537C46.3463 19.6747 45.7704 18.2845 44.7245 17.2387C43.6788 16.193 42.2884 15.6171 40.8096 15.6171C39.3307 15.6171 37.9403 16.193 36.8946 17.2387L36.4992 17.634L36.1039 17.2387C33.9452 15.0799 30.4326 15.0799 28.2738 17.2387C27.2281 18.2845 26.6522 19.6748 26.6522 21.1537C26.6522 22.6326 27.2281 24.023 28.2738 25.0687L35.0159 31.8105Z" fill="#021D45"/>
<path d="M62.1306 36.6651H61.0546V35.3416C61.0546 33.7695 59.7757 32.4907 58.2037 32.4907H56.9382C56.4942 32.4907 56.0737 32.5928 55.6987 32.7746V32.6028C55.6987 31.0308 54.4198 29.752 52.8478 29.752H49.9351C48.3631 29.752 47.0843 31.0308 47.0843 32.6028V36.5013C46.804 36.3931 46.4999 36.3331 46.1819 36.3331H45.4711C45.0912 36.3331 44.7307 36.4178 44.4075 36.5694C44.0483 35.6197 43.1296 34.9427 42.0556 34.9427H41.3449C40.8712 34.9427 40.4278 35.0744 40.0492 35.3031C39.6025 34.6037 38.8191 34.1391 37.9295 34.1391H37.2188C36.7043 34.1391 36.2256 34.2944 35.8269 34.5606C35.3687 33.9398 34.6323 33.5363 33.8033 33.5363H33.0926C31.7066 33.5363 30.5791 34.6638 30.5791 36.0497V38.1446H25.9157V32.6027C25.9157 31.0307 24.6369 29.7519 23.0649 29.7519H20.1522C18.5803 29.7519 17.3013 31.0307 17.3013 32.6027V32.7745C16.9263 32.5926 16.5058 32.4906 16.0618 32.4906H14.7963C13.2243 32.4906 11.9454 33.7694 11.9454 35.3414V36.665H10.8694C9.83864 36.6651 9 37.5036 9 38.5345V43.9009C9 44.9317 9.83864 45.7703 10.8694 45.7703H11.9454V47.0938C11.9454 48.6658 13.2243 49.9447 14.7963 49.9447H16.0618C16.5058 49.9447 16.9263 49.8425 17.3013 49.6608V50.4907C17.3013 52.0627 18.5802 53.3416 20.1522 53.3416H23.0649C24.6369 53.3416 25.9157 52.0627 25.9157 50.4907V44.2907H26.0775C26.1962 44.612 26.3519 44.9187 26.5442 45.2078L29.3248 49.37C30.145 50.5976 30.5787 52.0274 30.5787 53.5045V58.5777C30.5787 59.0226 30.9394 59.3833 31.3844 59.3833C31.8293 59.3833 32.19 59.0226 32.19 58.5777V53.5045C32.19 51.7075 31.6625 49.9682 30.6645 48.4748L27.8849 44.3139C27.8798 44.3062 27.8752 44.2984 27.8703 44.2908H30.5791V44.5475C30.5791 44.9924 30.9398 45.3532 31.3848 45.3532C31.8297 45.3532 32.1905 44.9924 32.1905 44.5475V36.05C32.1905 35.5526 32.5951 35.148 33.0926 35.148H33.8033C34.3006 35.148 34.7053 35.5526 34.7053 36.05V36.6527C34.7053 37.0977 35.066 37.4584 35.511 37.4584C35.9559 37.4584 36.3166 37.0977 36.3166 36.6527C36.3166 36.1554 36.7213 35.7507 37.2187 35.7507H37.9294C38.4268 35.7507 38.8315 36.1554 38.8315 36.6527V37.4564C38.8315 37.9013 39.1922 38.262 39.6372 38.262C40.0821 38.262 40.4428 37.9013 40.4428 37.4564C40.4428 36.9589 40.8475 36.5542 41.3448 36.5542H42.0555C42.5529 36.5542 42.9576 36.9589 42.9576 37.4564V38.8467C42.9576 39.2917 43.3183 39.6524 43.7632 39.6524C44.2082 39.6524 44.5689 39.2917 44.5689 38.8467C44.5689 38.3494 44.9735 37.9447 45.4709 37.9447H46.1817C46.6791 37.9447 47.0837 38.3494 47.0837 38.8467V45.5916C47.0837 45.9878 47.0309 46.3828 46.9267 46.7652L46.4271 48.599C46.2431 49.2746 45.8971 49.9059 45.4267 50.4248C43.8806 52.1296 43.0292 54.3359 43.0292 56.6373V58.5774C43.0292 59.0224 43.3899 59.3831 43.8349 59.3831C44.2798 59.3831 44.6405 59.0224 44.6405 58.5774V56.6373C44.6405 54.7369 45.3436 52.9149 46.6203 51.5071C46.7986 51.3105 46.9624 51.1009 47.1133 50.8824C47.2809 52.1121 48.2239 53.1018 49.4823 53.3033C49.5254 53.3102 49.5683 53.3136 49.6106 53.3136C49.9994 53.3136 50.3417 53.0315 50.4051 52.6352C50.4755 52.1958 50.1764 51.7826 49.737 51.7122C49.1334 51.6155 48.6952 51.1018 48.6952 50.4908V32.6029C48.6952 31.9194 49.2512 31.3634 49.9347 31.3634H52.8474C53.5308 31.3634 54.0869 31.9194 54.0869 32.6029V50.4908C54.0869 51.0969 53.653 51.6099 53.0552 51.7108C52.6165 51.7848 52.3208 52.2006 52.3948 52.6393C52.4687 53.078 52.8844 53.3734 53.3232 53.2997C54.6994 53.0676 55.6982 51.8862 55.6982 50.4908V49.6609C56.0732 49.8428 56.4938 49.9448 56.9378 49.9448H58.2033C59.7753 49.9448 61.0542 48.6659 61.0542 47.0939V45.7704H62.1302C63.161 45.7704 63.9996 44.9317 63.9996 43.901V38.5346C64 37.5036 63.1614 36.6651 62.1306 36.6651V36.6651ZM10.8694 44.159C10.727 44.159 10.6113 44.0432 10.6113 43.9009V38.5345C10.6113 38.3921 10.7271 38.2764 10.8694 38.2764H11.9454V44.159H10.8694ZM24.3044 50.4906C24.3044 51.1741 23.7484 51.7302 23.0649 51.7302H20.1522C19.4688 51.7302 18.9127 51.1741 18.9127 50.4906V41.0844C18.9127 40.6395 18.552 40.2788 18.107 40.2788C17.6621 40.2788 17.3013 40.6395 17.3013 41.0844V47.0937C17.3013 47.7772 16.7453 48.3333 16.0618 48.3333H14.7963C14.1127 48.3333 13.5567 47.7772 13.5567 47.0937V35.3416C13.5567 34.658 14.1127 34.102 14.7963 34.102H16.0618C16.7453 34.102 17.3013 34.658 17.3013 35.3416V37.5047C17.3013 37.9496 17.6621 38.3104 18.107 38.3104C18.552 38.3104 18.9127 37.9496 18.9127 37.5047V32.6028C18.9127 31.9193 19.4687 31.3633 20.1522 31.3633H23.0649C23.7484 31.3633 24.3044 31.9193 24.3044 32.6028V50.4906ZM25.9157 42.6792V39.7561H30.5791V42.6792H25.9157ZM59.4433 47.0938C59.4433 47.7774 58.8873 48.3334 58.2037 48.3334H56.9382C56.2547 48.3334 55.6987 47.7774 55.6987 47.0938V35.3416C55.6987 34.658 56.2547 34.102 56.9382 34.102H58.2037C58.8873 34.102 59.4433 34.658 59.4433 35.3416V47.0938ZM62.3887 43.9008C62.3887 44.0432 62.2729 44.1588 62.1306 44.1588H61.0546V38.2763H62.1306C62.273 38.2763 62.3887 38.3921 62.3887 38.5343V43.9008Z" fill="#021D45"/>
</svg>
