<svg width="40" height="40" viewBox="0 0 40 40" fill="none" xmlns="http://www.w3.org/2000/svg">
<path d="M3.51172 36.7392V3.26078C3.51172 1.89141 4.62187 0.78125 5.99125 0.78125H34.0089C35.3784 0.78125 36.4884 1.89141 36.4884 3.26078V36.7391C36.4884 38.1086 35.3783 39.2187 34.0089 39.2187H5.99125C4.62187 39.2188 3.51172 38.1086 3.51172 36.7392Z" fill="#FAF7F5"/>
<path d="M33.0509 20.5499V13.6855C33.0509 12.9656 32.4673 12.382 31.7474 12.382H8.25273C7.53281 12.382 6.94922 12.9656 6.94922 13.6855V34.4777C6.94922 35.1976 7.53281 35.7812 8.25273 35.7812H31.7474C32.4673 35.7812 33.0509 35.1976 33.0509 34.4777V27.6133" fill="#CCF5FC"/>
<path d="M26.5408 9.31681H13.376C13.376 6.41399 15.7292 4.06079 18.632 4.06079H21.285C24.1877 4.06087 26.5408 6.41399 26.5408 9.31681Z" fill="#FF5D7D"/>
<path d="M25.1513 31.0401C26.7434 31.204 28.167 30.0461 28.3308 28.4539L29.1638 20.3578C29.3277 18.7656 28.1698 17.3421 26.5776 17.1783L26.0407 17.123C24.3301 16.947 22.8434 18.2907 22.8459 20.0104L22.8537 25.0549L22.565 27.8606C22.4012 29.4528 23.5591 30.8763 25.1513 31.0401Z" fill="#FFF2A0"/>
<path d="M14.8488 31.0401C13.2566 31.204 11.8331 30.0461 11.6693 28.4539L10.8362 20.3578C10.6724 18.7656 11.8303 17.3421 13.4225 17.1783L13.9594 17.123C15.67 16.947 17.1567 18.2907 17.1541 20.0104L17.1464 25.0549L17.4351 27.8606C17.5989 29.4528 16.441 30.8763 14.8488 31.0401Z" fill="#FFF2A0"/>
<path d="M34.0089 0H5.99125C4.1932 0 2.73047 1.46281 2.73047 3.26078V36.7391C2.73047 38.5372 4.19328 39.9999 5.99125 39.9999H34.0089C35.807 39.9999 37.2697 38.5371 37.2697 36.7391V3.26078C37.2697 1.46281 35.807 0 34.0089 0ZM35.7072 36.7392C35.7072 37.6756 34.9453 38.4375 34.0089 38.4375H5.99125C5.05484 38.4375 4.29297 37.6756 4.29297 36.7392V3.26078C4.29297 2.32437 5.05484 1.5625 5.99125 1.5625H34.0089C34.9453 1.5625 35.7072 2.32437 35.7072 3.26078V36.7392Z" fill="#1C4685"/>
<path d="M31.7474 11.6007H8.25273C7.1032 11.6007 6.16797 12.5359 6.16797 13.6856V34.4777C6.16797 35.6273 7.1032 36.5625 8.25273 36.5625H31.7474C32.897 36.5625 33.8322 35.6273 33.8322 34.4777V27.6134C33.8322 27.1819 33.4824 26.8321 33.0509 26.8321C32.6195 26.8321 32.2697 27.1819 32.2697 27.6134V34.4777C32.2697 34.7657 32.0354 35 31.7474 35H8.25273C7.96477 35 7.73047 34.7657 7.73047 34.4777V13.6856C7.73047 13.3975 7.96477 13.1632 8.25273 13.1632H19.2188V20C19.2188 20.4315 19.5686 20.7813 20.0001 20.7813C20.4316 20.7813 20.7813 20.4315 20.7813 20V13.1632H31.7474C32.0354 13.1632 32.2697 13.3975 32.2697 13.6856V20.5499C32.2697 20.9814 32.6195 21.3312 33.0509 21.3312C33.4824 21.3312 33.8322 20.9814 33.8322 20.5499V13.6856C33.8322 12.5359 32.897 11.6007 31.7474 11.6007Z" fill="#1C4685"/>
<path d="M33.7009 23.6625C33.5136 23.3837 33.1602 23.252 32.8366 23.3449C32.5265 23.4339 32.3001 23.7112 32.2725 24.0323C32.2446 24.3569 32.4326 24.6733 32.7288 24.8069C33.0221 24.9393 33.3749 24.8759 33.6031 24.6484C33.8638 24.3887 33.9049 23.9683 33.7009 23.6625Z" fill="#1C4685"/>
<path d="M13.376 10.0981H26.5409C26.9724 10.0981 27.3221 9.74829 27.3221 9.31681C27.3221 5.9879 24.6139 3.27954 21.2849 3.27954H18.6319C15.303 3.27954 12.5947 5.98782 12.5947 9.31681C12.5947 9.74829 12.9445 10.0981 13.376 10.0981ZM18.6319 4.84212H21.2849C23.4858 4.84212 25.3208 6.43931 25.6914 8.53563H21.0838L21.6 7.80274C21.8484 7.44993 21.7639 6.96259 21.4111 6.71415C21.0584 6.46571 20.571 6.55032 20.3225 6.90298L19.1727 8.53563H14.2256C14.5961 6.43931 16.431 4.84212 18.6319 4.84212Z" fill="#1C4685"/>
<path d="M22.5935 30.479C23.2137 31.2414 24.0936 31.7166 25.0713 31.8173C25.1996 31.8305 25.3274 31.837 25.4548 31.837C26.297 31.837 27.1073 31.5503 27.7696 31.0116C28.532 30.3915 29.0073 29.5115 29.1079 28.5339L29.9409 20.4379C30.0416 19.4603 29.7554 18.502 29.1352 17.7396C28.515 16.9772 27.6351 16.5019 26.6575 16.4013L26.1206 16.3461C25.0855 16.2397 24.049 16.5787 23.277 17.2764C22.505 17.9741 22.0631 18.9712 22.0647 20.0117L22.0723 25.0155L21.7878 27.7808C21.6872 28.7583 21.9734 29.7166 22.5935 30.479ZM23.3421 27.9406L23.6308 25.1349C23.6336 25.108 23.6349 25.0809 23.6349 25.0537L23.6272 20.0092C23.6263 19.4017 23.874 18.8428 24.3247 18.4355C24.7194 18.0787 25.2139 17.8887 25.7366 17.8887C25.8109 17.8887 25.8856 17.8925 25.9608 17.9002L26.4977 17.9555C27.0601 18.0134 27.5664 18.2868 27.9232 18.7255C28.28 19.1641 28.4446 19.7154 28.3868 20.2779L27.5538 28.3739C27.4959 28.9363 27.2224 29.4427 26.7838 29.7995C26.3452 30.1562 25.7939 30.3208 25.2313 30.263C24.0701 30.1435 23.2227 29.1017 23.3421 27.9406Z" fill="#1C4685"/>
<path d="M16.7232 17.2763C15.9513 16.5785 14.9149 16.2393 13.8796 16.3459L13.3427 16.4012C12.3651 16.5018 11.4852 16.977 10.865 17.7395C10.2448 18.5019 9.95868 19.4602 10.0593 20.4377L10.8923 28.5338C10.993 29.5114 11.4682 30.3913 12.2306 31.0115C12.8931 31.5502 13.7032 31.8369 14.5455 31.8369C14.6727 31.8369 14.8007 31.8304 14.929 31.8171C15.9066 31.7165 16.7866 31.2413 17.4067 30.4788C18.0269 29.7164 18.3131 28.7581 18.2124 27.7806L17.9279 25.0153L17.9356 20.0115C17.9371 18.971 17.4952 17.974 16.7232 17.2763ZM14.7691 30.2631C14.2066 30.3207 13.6552 30.1563 13.2166 29.7995C12.7779 29.4427 12.5045 28.9364 12.4466 28.3739L11.6135 20.2779C11.5556 19.7154 11.7203 19.1641 12.0771 18.7255C12.4339 18.2868 12.9402 18.0134 13.5027 17.9555L14.0395 17.9002C14.1147 17.8925 14.1895 17.8887 14.2636 17.8887C14.7863 17.8887 15.2809 18.0788 15.6756 18.4355C16.1263 18.8428 16.3739 19.4017 16.3731 20.0092L16.3653 25.0538C16.3653 25.0809 16.3666 25.1079 16.3695 25.1349L16.6581 27.9406C16.7776 29.1017 15.9301 30.1435 14.7691 30.2631Z" fill="#1C4685"/>
</svg>
