<svg xmlns="http://www.w3.org/2000/svg" xmlns:xlink="http://www.w3.org/1999/xlink" width="16" height="16" viewBox="0 0 16 16">
  <defs>
    <linearGradient id="linear-gradient" x1="1" y1="0.5" x2="0" y2="0.5" gradientUnits="objectBoundingBox">
      <stop offset="0.001" stop-color="#47c6f3"/>
      <stop offset="0.5" stop-color="#1069b1"/>
      <stop offset="1" stop-color="#e90880"/>
    </linearGradient>
    <clipPath id="clip-Fav_icon">
      <rect width="16" height="16"/>
    </clipPath>
  </defs>
  <g id="Fav_icon" data-name="Fav icon" clip-path="url(#clip-Fav_icon)">
    <rect width="16" height="16" fill="transparent"/>
    <path id="Path_5426" data-name="Path 5426" d="M308.148,257.154l-.107-.107a2.673,2.673,0,0,0-3.78,0l-1.346,1.346h0l-.026.027-.066.066c-.036.036-.075.074-.1.1a3.7,3.7,0,0,1-1.733.988,10.441,10.441,0,0,1,1.3,2.259,1.166,1.166,0,0,1-.931,1.463,1.425,1.425,0,0,1-1.753-.834,1.087,1.087,0,0,1,.009-.629,9.877,9.877,0,0,1,1.285-2.248,1.58,1.58,0,0,1-.208.01,1.553,1.553,0,0,1-.935-.357c-.086-.068-.252-.231-.252-.231l-.293-.293-.148-.148a2.735,2.735,0,0,0-3.868,3.868l.976.976.44.441.746.746.568.565.459.457.778.773c.017.017,1.69,1.656,3.257.273l4.075-4.071h0l1.657-1.657A2.673,2.673,0,0,0,308.148,257.154Z" transform="translate(-293.661 -253.74)" fill="url(#linear-gradient)"/>
  </g>
</svg>
