<svg width="55" height="45" viewBox="0 0 55 45" fill="none" xmlns="http://www.w3.org/2000/svg">
<path d="M26.0158 16.8105C26.412 17.2068 26.9389 17.425 27.4995 17.425C28.06 17.425 28.5869 17.2068 28.9832 16.8105L31.2289 14.5647C31.5436 14.2501 31.5436 13.7399 31.2289 13.4254C30.9143 13.1108 30.4042 13.1108 30.0896 13.4254L27.8436 15.6711C27.7517 15.763 27.6294 15.8137 27.4994 15.8137C27.3693 15.8137 27.247 15.763 27.155 15.6711L20.4134 8.92936C19.672 8.18794 19.2636 7.20224 19.2636 6.15369C19.2636 5.10515 19.672 4.11944 20.4134 3.37802C21.9439 1.84758 24.4342 1.84758 25.9647 3.37802L26.9297 4.34299C27.2443 4.65763 27.7545 4.65763 28.069 4.34299L29.034 3.37802C29.7754 2.63659 30.7611 2.22828 31.8095 2.22828C32.8581 2.22828 33.8439 2.63659 34.5852 3.37802C35.3265 4.11944 35.735 5.10515 35.735 6.15369C35.735 7.20224 35.3267 8.18794 34.5852 8.92936L32.6206 10.894C32.3059 11.2086 32.3059 11.7188 32.6206 12.0333C32.9351 12.348 33.4453 12.348 33.7599 12.0333L35.7245 10.0687C36.7703 9.02293 37.3462 7.63257 37.3462 6.15369C37.3462 4.67471 36.7703 3.28445 35.7244 2.2387C34.6787 1.19295 33.2883 0.617059 31.8094 0.617059C30.3306 0.617059 28.9402 1.19295 27.8945 2.2387L27.4991 2.63401L27.1038 2.2387C24.9451 0.0798427 21.4325 0.0798427 19.2737 2.2387C18.228 3.28445 17.6521 4.67481 17.6521 6.15369C17.6521 7.63257 18.228 9.02293 19.2737 10.0687L26.0158 16.8105Z" fill="#166780"/>
<path d="M53.1306 21.6651H52.0546V20.3415C52.0546 18.7695 50.7757 17.4907 49.2037 17.4907H47.9382C47.4942 17.4907 47.0737 17.5928 46.6987 17.7746V17.6028C46.6987 16.0308 45.4198 14.7519 43.8478 14.7519H40.9352C39.3631 14.7519 38.0843 16.0308 38.0843 17.6028V21.5012C37.804 21.3931 37.4999 21.333 37.1819 21.333H36.4711C36.0912 21.333 35.7307 21.4178 35.4075 21.5694C35.0483 20.6196 34.1297 19.9427 33.0556 19.9427H32.3449C31.8712 19.9427 31.4278 20.0744 31.0492 20.3031C30.6025 19.6036 29.8191 19.139 28.9295 19.139H28.2188C27.7043 19.139 27.2256 19.2944 26.8269 19.5606C26.3687 18.9398 25.6323 18.5363 24.8033 18.5363H24.0926C22.7066 18.5363 21.5791 19.6638 21.5791 21.0496V23.1446H16.9157V17.6027C16.9157 16.0307 15.6369 14.7518 14.0649 14.7518H11.1522C9.58031 14.7518 8.30135 16.0307 8.30135 17.6027V17.7745C7.92634 17.5926 7.50578 17.4905 7.06181 17.4905H5.79627C4.22426 17.4905 2.9454 18.7694 2.9454 20.3414V21.665H1.86936C0.838643 21.6651 0 22.5036 0 23.5344V28.9009C0 29.9317 0.838643 30.7703 1.86936 30.7703H2.9454V32.0938C2.9454 33.6658 4.22426 34.9447 5.79627 34.9447H7.06181C7.50578 34.9447 7.92634 34.8425 8.30135 34.6608V35.4907C8.30135 37.0627 9.58021 38.3416 11.1522 38.3416H14.0649C15.6369 38.3416 16.9157 37.0627 16.9157 35.4907V29.2906H17.0775C17.1962 29.6119 17.3519 29.9187 17.5442 30.2078L20.3248 34.37C21.145 35.5976 21.5787 37.0274 21.5787 38.5045V43.5776C21.5787 44.0226 21.9394 44.3833 22.3844 44.3833C22.8293 44.3833 23.19 44.0226 23.19 43.5776V38.5045C23.19 36.7075 22.6625 34.9682 21.6645 33.4748L18.8849 29.3138C18.8798 29.3062 18.8752 29.2984 18.8703 29.2907H21.5791V29.5475C21.5791 29.9924 21.9398 30.3531 22.3848 30.3531C22.8297 30.3531 23.1905 29.9924 23.1905 29.5475V21.05C23.1905 20.5526 23.5951 20.1479 24.0926 20.1479H24.8033C25.3006 20.1479 25.7053 20.5526 25.7053 21.05V21.6527C25.7053 22.0977 26.066 22.4584 26.511 22.4584C26.9559 22.4584 27.3166 22.0977 27.3166 21.6527C27.3166 21.1554 27.7213 20.7507 28.2187 20.7507H28.9294C29.4268 20.7507 29.8315 21.1554 29.8315 21.6527V22.4563C29.8315 22.9013 30.1922 23.262 30.6372 23.262C31.0821 23.262 31.4428 22.9013 31.4428 22.4563C31.4428 21.9589 31.8475 21.5542 32.3448 21.5542H33.0555C33.5529 21.5542 33.9576 21.9589 33.9576 22.4563V23.8467C33.9576 24.2916 34.3183 24.6524 34.7632 24.6524C35.2082 24.6524 35.5689 24.2916 35.5689 23.8467C35.5689 23.3493 35.9735 22.9447 36.4709 22.9447H37.1817C37.6791 22.9447 38.0837 23.3493 38.0837 23.8467V30.5916C38.0837 30.9878 38.0309 31.3828 37.9267 31.7652L37.4271 33.599C37.2431 34.2746 36.8971 34.9059 36.4267 35.4247C34.8806 37.1295 34.0292 39.3359 34.0292 41.6373V43.5774C34.0292 44.0224 34.3899 44.3831 34.8349 44.3831C35.2798 44.3831 35.6405 44.0224 35.6405 43.5774V41.6373C35.6405 39.7369 36.3436 37.9149 37.6203 36.5071C37.7986 36.3104 37.9624 36.1009 38.1133 35.8824C38.2809 37.1121 39.2239 38.1018 40.4823 38.3033C40.5254 38.3102 40.5683 38.3135 40.6106 38.3135C40.9994 38.3135 41.3417 38.0314 41.4051 37.6352C41.4755 37.1958 41.1764 36.7825 40.737 36.7122C40.1334 36.6155 39.6952 36.1018 39.6952 35.4908V17.6029C39.6952 16.9194 40.2512 16.3634 40.9347 16.3634H43.8474C44.5308 16.3634 45.0869 16.9194 45.0869 17.6029V35.4908C45.0869 36.0969 44.653 36.6099 44.0552 36.7108C43.6165 36.7848 43.3208 37.2005 43.3948 37.6392C43.4687 38.0779 43.8844 38.3734 44.3232 38.2997C45.6994 38.0675 46.6982 36.8862 46.6982 35.4908V34.6609C47.0732 34.8427 47.4938 34.9448 47.9378 34.9448H49.2033C50.7753 34.9448 52.0542 33.6659 52.0542 32.0939V30.7704H53.1302C54.161 30.7704 54.9996 29.9317 54.9996 28.901V23.5345C55 22.5036 54.1614 21.6651 53.1306 21.6651ZM1.86936 29.1589C1.72702 29.1589 1.61133 29.0431 1.61133 28.9009V23.5344C1.61133 23.3921 1.72713 23.2764 1.86936 23.2764H2.9454V29.1589H1.86936ZM15.3044 35.4906C15.3044 36.1741 14.7484 36.7301 14.0649 36.7301H11.1522C10.4688 36.7301 9.91268 36.1741 9.91268 35.4906V26.0844C9.91268 25.6395 9.55195 25.2787 9.10701 25.2787C8.66207 25.2787 8.30135 25.6395 8.30135 26.0844V32.0937C8.30135 32.7772 7.74533 33.3332 7.06181 33.3332H5.79627C5.11274 33.3332 4.55673 32.7772 4.55673 32.0937V20.3415C4.55673 19.658 5.11274 19.102 5.79627 19.102H7.06181C7.74533 19.102 8.30135 19.658 8.30135 20.3415V22.5047C8.30135 22.9496 8.66207 23.3103 9.10701 23.3103C9.55195 23.3103 9.91268 22.9496 9.91268 22.5047V17.6028C9.91268 16.9193 10.4687 16.3633 11.1522 16.3633H14.0649C14.7484 16.3633 15.3044 16.9193 15.3044 17.6028V35.4906ZM16.9157 27.6792V24.756H21.5791V27.6792H16.9157ZM50.4433 32.0938C50.4433 32.7773 49.8873 33.3333 49.2037 33.3333H47.9382C47.2547 33.3333 46.6987 32.7773 46.6987 32.0938V20.3415C46.6987 19.658 47.2547 19.102 47.9382 19.102H49.2037C49.8873 19.102 50.4433 19.658 50.4433 20.3415V32.0938ZM53.3887 28.9008C53.3887 29.0431 53.2729 29.1588 53.1306 29.1588H52.0546V23.2763H53.1306C53.273 23.2763 53.3887 23.3921 53.3887 23.5343V28.9008Z" fill="#166780"/>
</svg>
