<svg width="94" height="94" viewBox="0 0 94 94" fill="none" xmlns="http://www.w3.org/2000/svg">
<rect opacity="0.6" width="107" height="107" rx="53.5" transform="matrix(-1 -8.74228e-08 -8.74228e-08 1 107 -13)" fill="#41B9D5"/>
<path d="M55.2259 24.3114C59.4407 24.3114 65.2159 30.492 50.4984 39.6393C35.7559 30.476 41.5907 24.3114 45.7716 24.3114C48.9102 24.3114 50.4984 26.8762 50.4984 26.8762C50.4984 26.8762 52.0866 24.3114 55.2259 24.3114Z" fill="#FEC914"/>
<path d="M49.0158 39.8105C49.412 40.2068 49.9389 40.425 50.4995 40.425C51.06 40.425 51.5869 40.2068 51.9832 39.8105L54.2289 37.5647C54.5436 37.2501 54.5436 36.7399 54.2289 36.4254C53.9143 36.1108 53.4042 36.1108 53.0896 36.4254L50.8436 38.6711C50.7517 38.763 50.6294 38.8137 50.4994 38.8137C50.3693 38.8137 50.247 38.763 50.155 38.6711L43.4134 31.9294C42.672 31.1879 42.2636 30.2022 42.2636 29.1537C42.2636 28.1051 42.672 27.1194 43.4134 26.378C44.9439 24.8476 47.4342 24.8476 48.9647 26.378L49.9297 27.343C50.2443 27.6576 50.7545 27.6576 51.069 27.343L52.034 26.378C52.7754 25.6366 53.7611 25.2283 54.8095 25.2283C55.8581 25.2283 56.8439 25.6366 57.5852 26.378C58.3265 27.1194 58.735 28.1051 58.735 29.1537C58.735 30.2022 58.3267 31.1879 57.5852 31.9294L55.6206 33.894C55.3059 34.2086 55.3059 34.7188 55.6206 35.0333C55.9351 35.348 56.4453 35.348 56.7599 35.0333L58.7245 33.0687C59.7703 32.0229 60.3462 30.6326 60.3462 29.1537C60.3462 27.6747 59.7703 26.2845 58.7244 25.2387C57.6787 24.1929 56.2883 23.6171 54.8094 23.6171C53.3306 23.6171 51.9402 24.1929 50.8945 25.2387L50.4991 25.634L50.1038 25.2387C47.9451 23.0798 44.4325 23.0798 42.2737 25.2387C41.228 26.2845 40.6521 27.6748 40.6521 29.1537C40.6521 30.6326 41.228 32.0229 42.2737 33.0687L49.0158 39.8105Z" fill="#166780"/>
<path d="M76.1306 44.6651H75.0546V43.3415C75.0546 41.7695 73.7757 40.4907 72.2037 40.4907H70.9382C70.4942 40.4907 70.0737 40.5928 69.6987 40.7746V40.6028C69.6987 39.0308 68.4198 37.7519 66.8478 37.7519H63.9351C62.3631 37.7519 61.0843 39.0308 61.0843 40.6028V44.5012C60.804 44.3931 60.4999 44.333 60.1819 44.333H59.4711C59.0912 44.333 58.7307 44.4178 58.4075 44.5694C58.0483 43.6196 57.1296 42.9427 56.0556 42.9427H55.3449C54.8712 42.9427 54.4278 43.0744 54.0492 43.3031C53.6025 42.6036 52.8191 42.139 51.9295 42.139H51.2188C50.7043 42.139 50.2256 42.2944 49.8269 42.5606C49.3687 41.9398 48.6323 41.5363 47.8033 41.5363H47.0926C45.7066 41.5363 44.5791 42.6638 44.5791 44.0496V46.1446H39.9157V40.6027C39.9157 39.0307 38.6369 37.7518 37.0649 37.7518H34.1522C32.5803 37.7518 31.3013 39.0307 31.3013 40.6027V40.7745C30.9263 40.5926 30.5058 40.4905 30.0618 40.4905H28.7963C27.2243 40.4905 25.9454 41.7694 25.9454 43.3414V44.665H24.8694C23.8386 44.6651 23 45.5036 23 46.5344V51.9009C23 52.9317 23.8386 53.7703 24.8694 53.7703H25.9454V55.0938C25.9454 56.6658 27.2243 57.9447 28.7963 57.9447H30.0618C30.5058 57.9447 30.9263 57.8425 31.3013 57.6608V58.4907C31.3013 60.0627 32.5802 61.3416 34.1522 61.3416H37.0649C38.6369 61.3416 39.9157 60.0627 39.9157 58.4907V52.2906H40.0775C40.1962 52.6119 40.3519 52.9187 40.5442 53.2078L43.3248 57.37C44.145 58.5976 44.5787 60.0274 44.5787 61.5045V66.5776C44.5787 67.0226 44.9394 67.3833 45.3844 67.3833C45.8293 67.3833 46.19 67.0226 46.19 66.5776V61.5045C46.19 59.7075 45.6625 57.9682 44.6645 56.4748L41.8849 52.3138C41.8798 52.3062 41.8752 52.2984 41.8703 52.2907H44.5791V52.5475C44.5791 52.9924 44.9398 53.3531 45.3848 53.3531C45.8297 53.3531 46.1905 52.9924 46.1905 52.5475V44.05C46.1905 43.5526 46.5951 43.1479 47.0926 43.1479H47.8033C48.3006 43.1479 48.7053 43.5526 48.7053 44.05V44.6527C48.7053 45.0977 49.066 45.4584 49.511 45.4584C49.9559 45.4584 50.3166 45.0977 50.3166 44.6527C50.3166 44.1554 50.7213 43.7507 51.2187 43.7507H51.9294C52.4268 43.7507 52.8315 44.1554 52.8315 44.6527V45.4563C52.8315 45.9013 53.1922 46.262 53.6372 46.262C54.0821 46.262 54.4428 45.9013 54.4428 45.4563C54.4428 44.9589 54.8475 44.5542 55.3448 44.5542H56.0555C56.5529 44.5542 56.9576 44.9589 56.9576 45.4563V46.8467C56.9576 47.2916 57.3183 47.6524 57.7632 47.6524C58.2082 47.6524 58.5689 47.2916 58.5689 46.8467C58.5689 46.3493 58.9735 45.9447 59.4709 45.9447H60.1817C60.6791 45.9447 61.0837 46.3493 61.0837 46.8467V53.5916C61.0837 53.9878 61.0309 54.3828 60.9267 54.7652L60.4271 56.599C60.2431 57.2746 59.8971 57.9059 59.4267 58.4247C57.8806 60.1295 57.0292 62.3359 57.0292 64.6373V66.5774C57.0292 67.0224 57.3899 67.3831 57.8349 67.3831C58.2798 67.3831 58.6405 67.0224 58.6405 66.5774V64.6373C58.6405 62.7369 59.3436 60.9149 60.6203 59.5071C60.7986 59.3104 60.9624 59.1009 61.1133 58.8824C61.2809 60.1121 62.2239 61.1018 63.4823 61.3033C63.5254 61.3102 63.5683 61.3135 63.6106 61.3135C63.9994 61.3135 64.3417 61.0314 64.4051 60.6352C64.4755 60.1958 64.1764 59.7825 63.737 59.7122C63.1334 59.6155 62.6952 59.1018 62.6952 58.4908V40.6029C62.6952 39.9194 63.2512 39.3634 63.9347 39.3634H66.8474C67.5308 39.3634 68.0869 39.9194 68.0869 40.6029V58.4908C68.0869 59.0969 67.653 59.6099 67.0552 59.7108C66.6165 59.7848 66.3208 60.2005 66.3948 60.6392C66.4687 61.0779 66.8844 61.3734 67.3232 61.2997C68.6994 61.0675 69.6982 59.8862 69.6982 58.4908V57.6609C70.0732 57.8427 70.4938 57.9448 70.9378 57.9448H72.2033C73.7753 57.9448 75.0542 56.6659 75.0542 55.0939V53.7704H76.1302C77.161 53.7704 77.9996 52.9317 77.9996 51.901V46.5345C78 45.5036 77.1614 44.6651 76.1306 44.6651V44.6651ZM24.8694 52.1589C24.727 52.1589 24.6113 52.0431 24.6113 51.9009V46.5344C24.6113 46.3921 24.7271 46.2764 24.8694 46.2764H25.9454V52.1589H24.8694ZM38.3044 58.4906C38.3044 59.1741 37.7484 59.7301 37.0649 59.7301H34.1522C33.4688 59.7301 32.9127 59.1741 32.9127 58.4906V49.0844C32.9127 48.6395 32.552 48.2787 32.107 48.2787C31.6621 48.2787 31.3013 48.6395 31.3013 49.0844V55.0937C31.3013 55.7772 30.7453 56.3332 30.0618 56.3332H28.7963C28.1127 56.3332 27.5567 55.7772 27.5567 55.0937V43.3415C27.5567 42.658 28.1127 42.102 28.7963 42.102H30.0618C30.7453 42.102 31.3013 42.658 31.3013 43.3415V45.5047C31.3013 45.9496 31.6621 46.3103 32.107 46.3103C32.552 46.3103 32.9127 45.9496 32.9127 45.5047V40.6028C32.9127 39.9193 33.4687 39.3633 34.1522 39.3633H37.0649C37.7484 39.3633 38.3044 39.9193 38.3044 40.6028V58.4906ZM39.9157 50.6792V47.756H44.5791V50.6792H39.9157ZM73.4433 55.0938C73.4433 55.7773 72.8873 56.3333 72.2037 56.3333H70.9382C70.2547 56.3333 69.6987 55.7773 69.6987 55.0938V43.3415C69.6987 42.658 70.2547 42.102 70.9382 42.102H72.2037C72.8873 42.102 73.4433 42.658 73.4433 43.3415V55.0938ZM76.3887 51.9008C76.3887 52.0431 76.2729 52.1588 76.1306 52.1588H75.0546V46.2763H76.1306C76.273 46.2763 76.3887 46.3921 76.3887 46.5343V51.9008Z" fill="#166780"/>
</svg>
