<svg width="268" height="77" viewBox="0 0 268 77" fill="none" xmlns="http://www.w3.org/2000/svg">
<path d="M76.6731 4.95836L76.0764 4.36173C70.2608 -1.45391 60.8232 -1.45391 55.0075 4.36173L47.5045 11.8648C47.5045 11.8648 47.4442 11.9251 47.3598 12.0155L46.9922 12.3831C46.7933 12.582 46.5703 12.7929 46.4136 12.9375C44.0392 15.077 40.5257 17.8552 36.753 18.4458C39.6217 22.6584 42.418 26.6359 43.991 31.0353C45.2264 34.4765 42.9062 38.0081 38.8021 39.1893C34.7462 40.3584 30.0515 38.1949 29.033 34.5428C28.7196 33.4219 28.7076 32.1322 29.0872 31.0353C30.6059 26.648 33.3962 22.6885 36.2528 18.5061C35.8671 18.5483 35.4814 18.5724 35.0957 18.5603C33.2335 18.5061 31.4919 17.8432 29.8888 16.5655C29.4127 16.1859 28.4786 15.2759 28.4786 15.2759L26.8454 13.6427L26.0197 12.817C20.0775 6.87481 10.3988 6.87481 4.45665 12.817C-1.48555 18.7592 -1.48555 28.4379 4.45665 34.3801L9.89865 39.8221C10.7002 40.6236 11.5258 41.4493 12.3575 42.2809L16.5158 46.4393L19.6858 49.5851C20.5958 50.4951 21.4576 51.3509 22.2411 52.1283C24.7963 54.6716 26.538 56.3952 26.5742 56.4373C26.6646 56.5277 35.9937 65.6701 44.7262 57.9621L67.4404 35.272L76.6791 26.0333C82.4887 20.2116 82.4887 10.78 76.6731 4.95836Z" fill="white"/>
<path d="M95.9524 52.424H89.2991V18.4462H113.924V24.6295H95.9464V32.1085H110.91V38.135H95.9464V52.424H95.9524ZM121.336 25.2321C120.324 25.2321 119.468 24.8826 118.763 24.1775C118.058 23.4724 117.708 22.6166 117.708 21.6041C117.708 20.5615 118.058 19.6937 118.763 18.9886C119.468 18.2835 120.324 17.934 121.336 17.934C122.379 17.934 123.241 18.2835 123.928 18.9886C124.615 19.6937 124.958 20.5676 124.958 21.6041C124.958 22.6166 124.615 23.4724 123.928 24.1775C123.247 24.8766 122.379 25.2321 121.336 25.2321ZM124.458 52.424H118.275V26.7569H124.458V52.424ZM187.719 41.1423H166.674V41.2447C167.09 42.9744 167.94 44.3424 169.217 45.3488C170.501 46.3553 172.092 46.8555 173.997 46.8555C176.769 46.8555 178.794 46.0419 180.077 44.4147H186.676C185.706 46.8736 184.103 48.8322 181.873 50.2846C179.643 51.737 177.016 52.4662 174.003 52.4662C169.953 52.4662 166.632 51.1946 164.053 48.6454C161.473 46.1022 160.184 42.8719 160.184 38.9546C160.184 35.0434 161.473 31.8132 164.053 29.2639C166.632 26.7207 169.947 25.4431 174.003 25.4431C178.022 25.4431 181.313 26.7147 183.874 29.2639C186.435 31.8071 187.719 35.0374 187.719 38.9546V41.1423V41.1423ZM174.003 31.0598C172.201 31.0598 170.676 31.4998 169.428 32.3857C168.181 33.2716 167.313 34.507 166.831 36.098V36.2005H181.168V36.098C180.68 34.5372 179.806 33.3077 178.547 32.4098C177.281 31.5118 175.768 31.0598 174.003 31.0598ZM238.011 52.5867H231.828V18.4462H238.011V52.5867ZM261.569 51.6948V48.6815H261.466C259.839 51.4176 257.326 52.7856 253.933 52.7856C250.679 52.7856 247.943 51.6948 245.725 49.5132C243.507 47.3316 242.398 44.0953 242.398 39.7984V26.7569H248.581V39.7984C248.581 42.1909 249.16 43.9868 250.323 45.2042C251.48 46.4155 253.065 47.0242 255.078 47.0242C257.055 47.0242 258.628 46.4035 259.809 45.156C260.984 43.9085 261.575 42.1246 261.575 39.8044V26.7569H267.758V51.5381C267.758 55.7627 266.583 58.9086 264.226 60.9697C261.87 63.0308 258.79 64.0613 254.976 64.0613C251.86 64.0613 249.19 63.3261 246.972 61.8556C244.754 60.3851 243.302 58.1734 242.609 55.2324H248.792C249.799 57.5526 251.86 58.7158 254.976 58.7158C259.369 58.7097 261.569 56.3714 261.569 51.6948ZM141.562 46.2287C140.935 46.5602 140.157 46.7289 139.229 46.7289C136.355 46.7289 134.914 45.1379 134.914 41.9498V31.7649H141.73V26.1542H134.914V18.4101H128.731V41.9438C128.731 45.4091 129.677 48.0307 131.563 49.8145C133.45 51.5984 136.005 52.4903 139.229 52.4903C140.049 52.4903 140.826 52.4301 141.562 52.3155V46.2287ZM157.658 46.2287C157.032 46.5602 156.254 46.7289 155.326 46.7289C152.452 46.7289 151.011 45.1379 151.011 41.9498V31.7649H157.827V26.1542H151.011V18.4101H144.828V41.9438C144.828 45.4091 145.774 48.0307 147.66 49.8145C149.547 51.5984 152.102 52.4903 155.326 52.4903C156.146 52.4903 156.923 52.4301 157.658 52.3155V46.2287ZM216.116 29.2097C216.014 26.4013 216.55 23.5929 221.251 23.5206C222.577 23.5206 226.163 23.4362 227.464 23.8701V18.3076C226.331 18.0244 223.674 17.8857 221.215 17.8857C217.749 17.8857 215.007 18.844 212.982 20.7664C210.957 22.6889 209.945 25.5033 209.945 29.2097V52.4602H216.128V38.9787H226.217V33.368H216.128V29.2097H216.116ZM205.799 26.341C204.973 26.2024 204.105 26.1241 203.177 26.1241C199.712 26.1241 196.97 27.0883 194.945 29.0048C192.92 30.9272 191.907 33.7778 191.907 37.5504V52.4602H198.091V37.5565C198.091 33.7838 199.79 31.8915 203.183 31.8915C204.226 31.8915 205.088 32.0964 205.805 32.458V26.341H205.799Z" fill="white"/>
<path d="M105.016 59.6562H107.655L103.274 73.0593H101.49L98.2179 63.8688L94.9635 73.0593H93.1857L88.7983 59.6562H91.438L94.1982 68.4852L97.2597 59.6562H99.1942L102.256 68.4852L105.016 59.6562Z" fill="white"/>
<path d="M114.249 62.9102C115.454 62.9102 116.677 63.3863 117.696 64.3083C118.751 65.2304 119.305 66.9118 119.052 68.9789H111.603C111.91 70.3771 113.037 71.1605 114.496 71.1605C115.665 71.1605 116.237 70.9315 117.081 70.3952L118.443 71.715C117.485 72.7274 116.147 73.2457 114.423 73.2457C113.043 73.2457 111.82 72.7877 110.747 71.8897C109.693 70.9677 109.156 69.7081 109.156 68.099C109.156 64.6338 112.007 62.9102 114.249 62.9102ZM114.249 65.0195C113.08 65.0195 111.953 65.8029 111.627 67.183H116.852C116.641 65.8029 115.472 65.0195 114.249 65.0195Z" fill="white"/>
<path d="M121.161 59.5225H123.632V61.8789H121.161V59.5225ZM121.161 63.1022H123.632V73.0581H121.161V63.1022Z" fill="white"/>
<path d="M133.78 64.5192V63.103H136.233V73.0589C136.233 76.0662 133.34 77.0003 131.237 77.0003C130.068 77.0003 129.152 76.8074 128.483 76.4097V74.3787C129.134 74.7584 130.05 74.9512 131.237 74.9512C132.9 74.9512 133.78 74.1075 133.78 73.0529V71.6366H133.648C133.244 72.4201 132.117 73.2457 130.586 73.2457C129.345 73.2457 128.194 72.7877 127.181 71.8897C126.169 70.9677 125.668 69.7081 125.668 68.081C125.668 66.4538 126.169 65.1882 127.181 64.2902C128.194 63.3682 129.345 62.9102 130.586 62.9102C132.117 62.9102 133.25 63.7358 133.648 64.5192H133.78V64.5192ZM128.899 70.2807C129.471 70.7989 130.146 71.0641 130.93 71.0641C131.713 71.0641 132.382 70.7929 132.961 70.2807C133.551 69.7624 133.84 69.0151 133.84 68.081C133.84 67.1468 133.551 66.3935 132.961 65.8813C132.388 65.363 131.719 65.0978 130.93 65.0978C130.14 65.0978 129.471 65.363 128.899 65.8813C128.344 66.3995 128.055 67.1468 128.055 68.081C128.055 69.0151 128.338 69.7624 128.899 70.2807Z" fill="white"/>
<path d="M144.52 62.9094C145.533 62.9094 146.394 63.271 147.124 64.0183C147.871 64.7656 148.232 65.8564 148.232 67.3088V73.0521H145.762V67.4595C145.762 65.8504 144.845 65.0669 143.616 65.0669C142.947 65.0669 142.369 65.314 141.929 65.7961C141.489 66.2722 141.242 66.7363 141.217 67.1762V73.0521H138.747V59.5225H141.217V65.0549C141.35 64.6149 141.718 64.1569 142.308 63.6567C142.899 63.1565 143.64 62.9094 144.52 62.9094Z" fill="white"/>
<path d="M156.085 63.1028V65.1337H153.958V70.0574C153.958 70.6902 154.283 70.9976 154.916 70.9976C155.241 70.9976 155.645 70.9192 156.085 70.7867V72.7995C155.567 73.0466 154.952 73.1792 154.229 73.1792C152.487 73.1792 151.511 72.5283 151.511 70.5938V65.1398H150.113V63.1088H151.511V60.5596H153.964V63.1088H156.085V63.1028Z" fill="white"/>
<path d="M165.987 59.6562V70.7391H171.423V73.0533H163.48V59.6562H165.987Z" fill="white"/>
<path d="M176.635 63.2537C177.841 62.7957 178.992 62.7957 180.197 63.2537C181.402 63.6936 182.493 64.459 183.126 65.8391C183.795 67.195 183.795 68.997 183.126 70.359C182.493 71.721 181.402 72.4864 180.197 72.9263C178.992 73.3663 177.841 73.3663 176.635 72.9263C175.43 72.4864 174.357 71.721 173.688 70.359C173.056 68.997 173.056 67.2011 173.688 65.8391C174.357 64.459 175.43 63.6936 176.635 63.2537ZM175.599 68.099C175.599 69.0211 175.888 69.7443 176.461 70.2807C177.033 70.7989 177.684 71.0641 178.413 71.0641C179.161 71.0641 179.811 70.7929 180.384 70.2807C180.956 69.7443 181.246 69.0151 181.246 68.099C181.246 67.1589 180.956 66.4357 180.384 65.8993C179.811 65.363 179.161 65.0978 178.413 65.0978C177.666 65.0978 177.015 65.363 176.443 65.8993C175.888 66.4357 175.599 67.1589 175.599 68.099Z" fill="white"/>
<path d="M192.509 65.3802L190.46 65.9347C190.135 65.2296 189.659 64.88 189.026 64.88C188.393 64.88 187.893 65.2416 187.893 65.778C187.893 66.2179 188.218 66.5615 188.851 66.8146L190.02 67.2183C190.918 67.5438 191.376 67.7547 191.973 68.2127C192.588 68.6527 192.853 69.3035 192.853 70.1653C192.853 71.1416 192.491 71.8889 191.744 72.4434C190.997 72.9797 190.099 73.2449 189.008 73.2449C186.995 73.2449 185.543 72.2325 185.139 70.4908L187.092 69.8761C187.381 70.7017 188.068 71.2742 189.008 71.2742C189.834 71.2742 190.46 70.8162 190.46 70.2015C190.46 69.7616 190.117 69.418 189.424 69.1468L188.273 68.7431C186.435 68.0741 185.519 67.0797 185.519 65.7539C185.519 64.8921 185.844 64.2051 186.513 63.6868C187.182 63.1685 187.989 62.9033 188.924 62.9033C190.689 62.9093 191.955 63.8495 192.509 65.3802Z" fill="white"/>
<path d="M201.755 65.3802L199.706 65.9347C199.38 65.2296 198.904 64.88 198.271 64.88C197.638 64.88 197.144 65.2416 197.144 65.778C197.144 66.2179 197.47 66.5615 198.103 66.8146L199.272 67.2183C200.17 67.5438 200.634 67.7547 201.224 68.2127C201.839 68.6527 202.104 69.3035 202.104 70.1653C202.104 71.1416 201.743 71.8889 200.995 72.4434C200.248 72.9797 199.35 73.2449 198.259 73.2449C196.246 73.2449 194.794 72.2325 194.39 70.4908L196.343 69.8761C196.632 70.7017 197.319 71.2742 198.259 71.2742C199.085 71.2742 199.712 70.8162 199.712 70.2015C199.712 69.7616 199.368 69.418 198.681 69.1468L197.53 68.7431C195.692 68.0741 194.776 67.0797 194.776 65.7539C194.776 64.8921 195.101 64.2051 195.77 63.6868C196.439 63.1685 197.247 62.9033 198.181 62.9033C199.941 62.9093 201.2 63.8495 201.755 65.3802Z" fill="white"/>
</svg>
