<svg width="104" height="26" viewBox="0 0 104 26" fill="none" xmlns="http://www.w3.org/2000/svg">
<g clip-path="url(#clip0_79_2544)">
<path fill-rule="evenodd" clip-rule="evenodd" d="M10.63 0C11.2816 0 11.8083 0.542286 11.8083 1.21271V7.30786C9.35038 7.58829 7.39741 9.59586 7.12591 12.1234H3.55843C2.90683 12.1234 2.38013 11.5811 2.38013 10.9107V1.21271C2.38013 0.542286 2.90864 0 3.55843 0H10.63Z" fill="#ED5116"/>
<path fill-rule="evenodd" clip-rule="evenodd" d="M23.5388 2.44214C24.1904 2.44214 24.7189 2.98442 24.7189 3.653V10.9144C24.7189 11.583 24.1904 12.1253 23.5388 12.1253H17.602C17.3305 9.59957 15.3757 7.59571 12.9124 7.31528V3.653C12.9124 2.98442 13.4409 2.44214 14.0925 2.44214H23.5388Z" fill="#99C12F"/>
<path fill-rule="evenodd" clip-rule="evenodd" d="M21.1623 13.2581C21.8139 13.2581 22.3406 13.8003 22.3406 14.4708V24.1688C22.3406 24.8392 21.8121 25.3815 21.1623 25.3815H14.0907C13.4391 25.3815 12.9124 24.8392 12.9124 24.1688V18.0736C15.3703 17.7932 17.3233 15.7856 17.5948 13.2581H21.1623Z" fill="#B4091B"/>
<path fill-rule="evenodd" clip-rule="evenodd" d="M11.8083 18.1516V21.8158C11.8083 22.4844 11.2798 23.0266 10.6282 23.0266H1.18011C0.528516 23.0266 0 22.4844 0 21.8158V14.5544C0 13.8858 0.528516 13.3435 1.18011 13.3435H7.11687C7.39017 15.8692 9.34496 17.8731 11.8083 18.1516Z" fill="#13A5A7"/>
<path d="M38.3735 12.1365H32.0802V7.35803H39.2984V5.10718H29.3616V21.177H32.0802V14.3669H38.3735V12.1365Z" fill="white"/>
<path d="M41.4071 7.14263C41.6623 7.41192 42.0243 7.54563 42.4967 7.54563C42.9691 7.54563 43.3347 7.41192 43.5917 7.14263C43.8487 6.87335 43.979 6.53721 43.979 6.13235C43.979 5.72006 43.8505 5.37835 43.5917 5.10535C43.3347 4.83235 42.9691 4.69678 42.4967 4.69678C42.0243 4.69678 41.6605 4.83235 41.4071 5.10535C41.1518 5.37835 41.0251 5.72006 41.0251 6.13235C41.0251 6.53721 41.1518 6.87521 41.4071 7.14263ZM43.7962 9.23378H41.1862V21.1771H43.7962V9.23378Z" fill="white"/>
<path d="M47.5049 6.33105V9.23377H45.5935V11.2209H47.5049V17.9865C47.5049 20.2596 48.5076 21.3962 50.513 21.3962C51.0651 21.3962 51.637 21.3108 52.2325 21.1418V19.0673C51.9248 19.1416 51.6208 19.1788 51.3185 19.1788C50.8678 19.1788 50.5547 19.0785 50.3791 18.8761C50.2035 18.6736 50.1149 18.3449 50.1149 17.8881V11.2209H52.1674V9.23377H50.1149V6.33105H47.5049Z" fill="white"/>
<path d="M55.3276 6.33105V9.23377H53.4163V11.2209H55.3276V17.9865C55.3276 20.2596 56.3303 21.3962 58.334 21.3962C58.886 21.3962 59.458 21.3108 60.0535 21.1418V19.0673C59.7458 19.1416 59.4417 19.1788 59.1412 19.1788C58.6906 19.1788 58.3774 19.0785 58.2019 18.8761C58.0263 18.6736 57.9376 18.3449 57.9376 17.8881V11.2209H59.9883V9.23377H57.9376V6.33105H55.3276Z" fill="white"/>
<path d="M67.9957 11.8561C68.4029 12.3166 68.6364 12.9945 68.6943 13.8934V14.0921H63.7205C63.8417 13.1728 64.1223 12.4541 64.5639 11.9396C65.0037 11.4252 65.5829 11.1671 66.2979 11.1671C67.0219 11.1652 67.5866 11.3955 67.9957 11.8561ZM69.2246 20.8075C70.0011 20.4138 70.6238 19.8604 71.0889 19.1472L69.6826 17.7674C68.9314 18.7609 67.9558 19.2586 66.7612 19.2586C65.9087 19.2586 65.201 18.9708 64.6399 18.3969C64.077 17.8231 63.7567 17.0431 63.6788 16.0569H71.2735V14.9742C71.2735 13.0762 70.8428 11.6072 69.9794 10.5709C69.116 9.53279 67.8943 9.01465 66.3106 9.01465C65.3151 9.01465 64.4137 9.27651 63.6028 9.79836C62.7938 10.3202 62.1657 11.0501 61.7186 11.9898C61.2716 12.9276 61.0471 13.9936 61.0471 15.1859V15.5165C61.0471 17.2975 61.5612 18.7238 62.5892 19.7935C63.6173 20.8632 64.9585 21.3999 66.611 21.3999C67.5757 21.3981 68.4482 21.2012 69.2246 20.8075Z" fill="white"/>
<path d="M79.4511 9.16879C79.2067 9.06665 78.899 9.01465 78.528 9.01465C77.4112 9.01465 76.537 9.53279 75.9071 10.5709L75.842 9.23565H73.3496V21.1789H75.9596V13.0094C76.3759 12.0678 77.1813 11.5961 78.3759 11.5961C78.7416 11.5961 79.0963 11.6258 79.4402 11.6852L79.4511 9.16879Z" fill="white"/>
<path d="M84.9065 21.177V11.2208H87.2704V9.23368H84.9065V8.17325C84.9065 6.85654 85.5292 6.19725 86.7762 6.19725C87.1563 6.19725 87.4894 6.22697 87.7754 6.2864L87.8405 4.18968C87.3247 4.05782 86.8378 3.99097 86.3799 3.99097C85.0912 3.99097 84.0884 4.35125 83.3735 5.07182C82.6567 5.7924 82.2983 6.81568 82.2983 8.13982V9.23182H80.5264V11.219H82.2983V21.1751H84.9065V21.177Z" fill="white"/>
<path d="M92.1574 4.22314H89.5474V21.177H92.1574V4.22314Z" fill="white"/>
<path d="M96.3963 9.23364H93.5818L97.6633 21.1119L97.2868 22.1371C97.0932 22.7184 96.8307 23.1306 96.4977 23.3776C96.1646 23.6228 95.6687 23.7472 95.0099 23.7472L94.5157 23.7138V25.7994C94.9737 25.9331 95.3936 25.9999 95.7719 25.9999C97.4696 25.9999 98.6715 24.9952 99.381 22.9876L104 9.2355H101.218L98.8543 17.3364L96.3963 9.23364Z" fill="white"/>
</g>
<defs>
<clipPath id="clip0_79_2544">
<rect width="104" height="26" fill="white"/>
</clipPath>
</defs>
</svg>
