<svg width="281" height="77" viewBox="0 0 281 77" fill="none" xmlns="http://www.w3.org/2000/svg">
<path d="M80.3296 5.2121L79.7046 4.58494C73.6123 -1.52831 63.7257 -1.52831 57.6333 4.58494L49.7733 12.472C49.7733 12.472 49.7102 12.5353 49.6218 12.6304L49.2367 13.0168C49.0283 13.2258 48.7947 13.4476 48.6306 13.5996C46.1432 15.8485 42.4625 18.7689 38.5104 19.3898C41.5155 23.8179 44.4449 27.999 46.0926 32.6235C47.3869 36.2408 44.9563 39.9531 40.6569 41.1947C36.4081 42.4237 31.49 40.1495 30.4231 36.3105C30.0948 35.1322 30.0821 33.7765 30.4799 32.6235C32.0708 28.0117 34.9939 23.8496 37.9864 19.4531C37.5823 19.4975 37.1783 19.5228 36.7742 19.5101C34.8234 19.4531 32.9989 18.7563 31.3195 17.4133C30.8208 17.0142 29.8422 16.0576 29.8422 16.0576L28.1313 14.3408L27.2664 13.4729C21.0415 7.22662 10.9024 7.22662 4.67747 13.4729C-1.54744 19.7192 -1.54744 29.8932 4.67747 36.1394L10.3784 41.8599C11.218 42.7025 12.083 43.5704 12.9542 44.4446L17.3104 48.8157L20.6311 52.1226C21.5845 53.0791 22.4873 53.9787 23.308 54.7959C25.9848 57.4693 27.8094 59.2811 27.8472 59.3254C27.9419 59.4205 37.7149 69.0306 46.8629 60.9282L70.6577 37.077L80.3359 27.3655C86.4219 21.2459 86.4219 11.3317 80.3296 5.2121Z" fill="white"/>
<path d="M100.526 55.1065H93.5564V19.3899H119.352V25.8896H100.52V33.7513H116.196V40.0863H100.52V55.1065H100.526ZM127.118 26.5231C126.057 26.5231 125.161 26.1557 124.422 25.4145C123.683 24.6733 123.317 23.7737 123.317 22.7095C123.317 21.6135 123.683 20.7013 124.422 19.9601C125.161 19.2189 126.057 18.8515 127.118 18.8515C128.21 18.8515 129.113 19.2189 129.833 19.9601C130.552 20.7013 130.912 21.6198 130.912 22.7095C130.912 23.7737 130.552 24.6733 129.833 25.4145C129.119 26.1493 128.21 26.5231 127.118 26.5231ZM130.388 55.1065H123.911V28.1259H130.388V55.1065ZM196.659 43.2474H174.613V43.3551C175.048 45.1733 175.939 46.6113 177.277 47.6693C178.622 48.7272 180.288 49.253 182.283 49.253C185.187 49.253 187.309 48.3978 188.653 46.6873H195.567C194.55 49.272 192.871 51.3309 190.535 52.8576C188.199 54.3843 185.446 55.1509 182.29 55.1509C178.047 55.1509 174.569 53.8142 171.866 51.1345C169.164 48.4611 167.813 45.0656 167.813 40.9478C167.813 36.8364 169.164 33.4409 171.866 30.7612C174.569 28.0879 178.041 26.7448 182.29 26.7448C186.501 26.7448 189.948 28.0815 192.631 30.7612C195.314 33.4346 196.659 36.8301 196.659 40.9478V43.2474V43.2474ZM182.29 32.649C180.402 32.649 178.805 33.1115 177.498 34.0427C176.191 34.974 175.282 36.2726 174.777 37.9451V38.0528H189.796V37.9451C189.285 36.3043 188.369 35.012 187.05 34.0681C185.724 33.1242 184.139 32.649 182.29 32.649ZM249.343 55.2776H242.866V19.3899H249.343V55.2776ZM274.022 54.34V51.1725H273.914C272.21 54.0486 269.577 55.4866 266.023 55.4866C262.614 55.4866 259.747 54.34 257.424 52.0467C255.101 49.7535 253.939 46.3516 253.939 41.8347V28.1259H260.417V41.8347C260.417 44.3497 261.023 46.2375 262.241 47.5172C263.453 48.7905 265.114 49.4304 267.222 49.4304C269.293 49.4304 270.941 48.7779 272.178 47.4665C273.409 46.1552 274.028 44.28 274.028 41.8411V28.1259H280.506V54.1753C280.506 58.6161 279.274 61.9229 276.806 64.0895C274.337 66.2561 271.111 67.3393 267.115 67.3393C263.851 67.3393 261.054 66.5665 258.731 65.0207C256.408 63.475 254.886 61.1501 254.16 58.0586H260.638C261.692 60.4976 263.851 61.7202 267.115 61.7202C271.717 61.7139 274.022 59.2559 274.022 54.34ZM148.305 48.5942C147.649 48.9426 146.834 49.12 145.862 49.12C142.851 49.12 141.342 47.4475 141.342 44.0963V33.3902H148.482V27.4924H141.342V19.3519H134.864V44.09C134.864 47.7326 135.855 50.4883 137.832 52.3635C139.808 54.2386 142.484 55.1762 145.862 55.1762C146.721 55.1762 147.535 55.1128 148.305 54.9925V48.5942ZM165.168 48.5942C164.511 48.9426 163.697 49.12 162.725 49.12C159.713 49.12 158.204 47.4475 158.204 44.0963V33.3902H165.345V27.4924H158.204V19.3519H151.727V44.09C151.727 47.7326 152.718 50.4883 154.694 52.3635C156.67 54.2386 159.347 55.1762 162.725 55.1762C163.583 55.1762 164.398 55.1128 165.168 54.9925V48.5942ZM226.407 30.7042C226.3 27.7521 226.862 24.8 231.786 24.724C233.175 24.724 236.931 24.6353 238.295 25.0914V19.2442C237.108 18.9465 234.324 18.8008 231.748 18.8008C228.118 18.8008 225.245 19.808 223.124 21.8289C221.003 23.8498 219.942 26.8082 219.942 30.7042V55.1445H226.42V40.9732H236.988V35.0753H226.42V30.7042H226.407ZM215.599 27.6887C214.734 27.543 213.825 27.4607 212.852 27.4607C209.222 27.4607 206.35 28.4743 204.228 30.4888C202.107 32.5097 201.046 35.5061 201.046 39.4718V55.1445H207.524V39.4781C207.524 35.5124 209.304 33.5233 212.859 33.5233C213.951 33.5233 214.854 33.7386 215.605 34.1187V27.6887H215.599Z" fill="white"/>
<path d="M93.7393 62.707H98.55C100.539 62.707 102.218 63.3912 103.582 64.7406C104.964 66.0899 105.646 67.737 105.646 69.6882C105.646 71.6837 104.964 73.3688 103.601 74.7371C102.237 76.1055 100.551 76.7897 98.55 76.7897H93.7393V62.707ZM96.3656 74.3H98.531C99.9137 74.3 101 73.8566 101.782 72.995C102.584 72.1081 102.988 70.9995 102.988 69.6945C102.988 68.4275 102.59 67.3822 101.782 66.5144C101 65.6465 99.92 65.203 98.531 65.203H96.3656V74.3Z" fill="white"/>
<path d="M108.02 62.5674H110.608V65.0444H108.02V62.5674ZM108.02 66.3304H110.608V76.7957H108.02V66.3304Z" fill="white"/>
<path d="M117.888 76.9983C116.581 76.9983 115.382 76.5168 114.315 75.5729C113.254 74.6036 112.73 73.2796 112.73 71.5692C112.73 69.8588 113.254 68.5284 114.315 67.5845C115.375 66.6152 116.581 66.1338 117.888 66.1338C119.492 66.1338 120.678 67.0017 121.095 67.8252H121.234V66.3365H123.803V76.8019H121.234V75.3132H121.095C120.678 76.1304 119.492 76.9983 117.888 76.9983ZM116.12 73.8751C116.72 74.4199 117.427 74.6987 118.248 74.6987C119.069 74.6987 119.776 74.4136 120.375 73.8751C120.994 73.3303 121.297 72.5448 121.297 71.5629C121.297 70.5809 120.994 69.7891 120.375 69.2506C119.776 68.7058 119.069 68.427 118.248 68.427C117.427 68.427 116.72 68.7058 116.12 69.2506C115.539 69.7954 115.236 70.5809 115.236 71.5629C115.236 72.5448 115.539 73.3303 116.12 73.8751Z" fill="white"/>
<path d="M132.389 66.1281C133.696 66.1281 134.876 66.6096 135.937 67.5788C136.998 68.5227 137.54 69.8531 137.54 71.5635C137.54 73.274 136.998 74.6043 135.937 75.5672C134.876 76.5111 133.689 76.9926 132.389 76.9926C130.785 76.9926 129.598 76.1247 129.182 75.3012H129.043V76.7899H126.473V68.0983H126.454V62.5615H129.043V67.8132H129.182C129.598 66.996 130.785 66.1281 132.389 66.1281ZM129.882 73.8758C130.501 74.4206 131.208 74.6993 132.029 74.6993C132.85 74.6993 133.55 74.4143 134.131 73.8758C134.731 73.331 135.034 72.5454 135.034 71.5635C135.034 70.5816 134.731 69.7897 134.131 69.2513C133.55 68.7064 132.85 68.4277 132.029 68.4277C131.208 68.4277 130.501 68.7064 129.882 69.2513C129.283 69.7961 128.98 70.5816 128.98 71.5635C128.98 72.5454 129.283 73.331 129.882 73.8758Z" fill="white"/>
<path d="M144.504 66.1289C145.767 66.1289 147.055 66.6294 148.116 67.5986C149.22 68.5679 149.801 70.3353 149.542 72.5082H141.739C142.061 73.9779 143.242 74.8015 144.77 74.8015C145.994 74.8015 146.594 74.5608 147.478 73.9969L148.898 75.3843C147.895 76.4486 146.493 76.9934 144.687 76.9934C143.242 76.9934 141.96 76.5119 140.836 75.568C139.732 74.5988 139.17 73.2748 139.17 71.5833C139.17 67.9407 142.156 66.1289 144.504 66.1289ZM144.504 68.3461C143.28 68.3461 142.099 69.1697 141.758 70.6204H147.232C147.011 69.1697 145.786 68.3461 144.504 68.3461Z" fill="white"/>
<path d="M157.402 66.3316V68.4664H155.174V73.6421C155.174 74.3073 155.515 74.6304 156.177 74.6304C156.518 74.6304 156.941 74.548 157.402 74.4087V76.5245C156.859 76.7843 156.215 76.9236 155.458 76.9236C153.633 76.9236 152.61 76.2395 152.61 74.2059V68.4728H151.146V66.3379H152.61V63.6582H155.18V66.3379H157.402V66.3316Z" fill="white"/>
<path d="M164.467 66.1289C165.729 66.1289 167.017 66.6294 168.078 67.5986C169.183 68.5679 169.763 70.3353 169.505 72.5082H161.701C162.023 73.9779 163.204 74.8015 164.732 74.8015C165.956 74.8015 166.556 74.5608 167.44 73.9969L168.861 75.3843C167.857 76.4486 166.455 76.9934 164.65 76.9934C163.204 76.9934 161.922 76.5119 160.799 75.568C159.694 74.5988 159.132 73.2748 159.132 71.5833C159.132 67.9407 162.118 66.1289 164.467 66.1289ZM164.467 68.3461C163.242 68.3461 162.061 69.1697 161.72 70.6204H167.194C166.973 69.1697 165.748 68.3461 164.467 68.3461Z" fill="white"/>
<path d="M178.867 68.7248L176.721 69.3076C176.38 68.5664 175.881 68.199 175.218 68.199C174.555 68.199 174.038 68.5791 174.038 69.1429C174.038 69.6053 174.379 69.9664 175.042 70.2325L176.266 70.6569C177.207 70.999 177.693 71.2207 178.312 71.7022C178.956 72.1647 179.234 72.8488 179.234 73.7547C179.234 74.781 178.855 75.5665 178.072 76.1494C177.289 76.7132 176.348 76.9919 175.206 76.9919C173.097 76.9919 171.576 75.9276 171.153 74.0968L173.198 73.4507C173.501 74.3185 174.221 74.9204 175.206 74.9204C176.071 74.9204 176.727 74.4389 176.727 73.7927C176.727 73.3303 176.367 72.9692 175.648 72.6841L174.442 72.2597C172.516 71.5565 171.55 70.5112 171.55 69.1175C171.55 68.2116 171.891 67.4894 172.592 66.9446C173.293 66.3998 174.139 66.1211 175.117 66.1211C176.961 66.1274 178.287 67.1157 178.867 68.7248Z" fill="white"/>
<path d="M197.081 73.4327L198.666 75.2825C197.365 76.4291 195.78 76.993 193.893 76.993C191.91 76.993 190.199 76.3088 188.76 74.9404C187.333 73.5531 186.614 71.8236 186.614 69.7458C186.614 67.6679 187.333 65.9448 188.76 64.5764C190.206 63.1891 191.91 62.5049 193.893 62.5049C195.736 62.5049 197.302 63.0687 198.584 64.1773L196.999 65.9891C196.096 65.3239 195.111 64.9819 194.051 64.9819C192.725 64.9819 191.601 65.4443 190.705 66.3502C189.808 67.2561 189.341 68.3837 189.341 69.7521C189.341 71.1204 189.802 72.2671 190.705 73.173C191.607 74.0789 192.731 74.5223 194.051 74.5223C195.174 74.5223 196.178 74.1612 197.081 73.4327Z" fill="white"/>
<path d="M205.585 76.9983C204.285 76.9983 203.079 76.5168 202.018 75.5729C200.958 74.6036 200.434 73.2796 200.434 71.5692C200.434 69.8588 200.958 68.5284 202.018 67.5845C203.079 66.6152 204.285 66.1338 205.585 66.1338C207.189 66.1338 208.376 67.0017 208.793 67.8252H208.932V66.3365H211.501V76.8019H208.932V75.3132H208.793C208.376 76.1304 207.189 76.9983 205.585 76.9983ZM203.824 73.8751C204.424 74.4199 205.125 74.6987 205.952 74.6987C206.779 74.6987 207.473 74.4136 208.079 73.8751C208.698 73.3303 209.001 72.5448 209.001 71.5629C209.001 70.5809 208.698 69.7891 208.079 69.2506C207.479 68.7058 206.779 68.427 205.952 68.427C205.125 68.427 204.43 68.7058 203.824 69.2506C203.243 69.7954 202.94 70.5809 202.94 71.5629C202.94 72.5448 203.243 73.3303 203.824 73.8751Z" fill="white"/>
<path d="M220.39 66.166C220.712 66.166 220.952 66.185 221.11 66.204V68.681C220.971 68.662 220.75 68.643 220.466 68.643C219.481 68.643 218.623 68.9661 217.915 69.6059C217.215 70.2521 216.83 71.0946 216.729 72.1399V76.7898H214.14V66.3244H216.729V68.9597C217.202 67.338 218.547 66.166 220.39 66.166Z" fill="white"/>
<path d="M228.118 66.1289C229.381 66.1289 230.669 66.6294 231.729 67.5986C232.834 68.5679 233.415 70.3353 233.156 72.5082H225.353C225.675 73.9779 226.855 74.8015 228.383 74.8015C229.608 74.8015 230.208 74.5608 231.092 73.9969L232.518 75.3843C231.515 76.4486 230.113 76.9934 228.307 76.9934C226.862 76.9934 225.58 76.5119 224.456 75.568C223.351 74.5988 222.79 73.2748 222.79 71.5833C222.777 67.9407 225.769 66.1289 228.118 66.1289ZM228.118 68.3461C226.893 68.3461 225.713 69.1697 225.372 70.6204H230.845C230.624 69.1697 229.4 68.3461 228.118 68.3461Z" fill="white"/>
</svg>
