<svg width="282" height="78" viewBox="0 0 282 78" fill="none" xmlns="http://www.w3.org/2000/svg">
<path d="M80.6055 5.21307L79.9783 4.58591C73.8651 -1.52734 63.9445 -1.52734 57.8312 4.58591L49.9442 12.473C49.9442 12.473 49.8809 12.5363 49.7922 12.6313L49.4057 13.0178C49.1967 13.2268 48.9623 13.4485 48.7976 13.6006C46.3016 15.8495 42.6083 18.7699 38.6426 19.3907C41.6581 23.8189 44.5975 28 46.2509 32.6245C47.5496 36.2418 45.1106 39.9541 40.7965 41.1957C36.5331 42.4247 31.5981 40.1504 30.5275 36.3115C30.1981 35.1332 30.1854 33.7775 30.5845 32.6245C32.1809 28.0126 35.114 23.8506 38.1168 19.4541C37.7114 19.4984 37.3059 19.5238 36.9005 19.5111C34.943 19.4541 33.1122 18.7572 31.4271 17.4142C30.9266 17.0151 29.9447 16.0585 29.9447 16.0585L28.2279 14.3418L27.36 13.4739C21.1137 7.2276 10.9398 7.2276 4.6935 13.4739C-1.55278 19.7202 -1.55278 29.8941 4.6935 36.1404L10.414 41.8609C11.2565 42.7034 12.1244 43.5713 12.9986 44.4456L17.3698 48.8167L20.702 52.1235C21.6586 53.0801 22.5645 53.9797 23.388 54.7969C26.074 57.4703 27.9048 59.2821 27.9428 59.3264C28.0379 59.4214 37.8444 69.0316 47.0238 60.9292L70.9003 37.078L80.6118 27.3665C86.7187 21.2469 86.7187 11.3327 80.6055 5.21307Z" fill="white"/>
<path d="M100.871 55.1075H93.8777V19.3909H119.762V25.8906H100.865V33.7523H116.595V40.0873H100.865V55.1075H100.871ZM127.554 26.5241C126.49 26.5241 125.591 26.1567 124.849 25.4155C124.108 24.6743 123.741 23.7747 123.741 22.7104C123.741 21.6145 124.108 20.7022 124.849 19.9611C125.591 19.2199 126.49 18.8524 127.554 18.8524C128.65 18.8524 129.556 19.2199 130.278 19.9611C131.001 20.7022 131.362 21.6208 131.362 22.7104C131.362 23.7747 131.001 24.6743 130.278 25.4155C129.563 26.1503 128.65 26.5241 127.554 26.5241ZM130.836 55.1075H124.336V28.1268H130.836V55.1075ZM197.334 43.2484H175.212V43.3561C175.65 45.1742 176.543 46.6123 177.886 47.6702C179.235 48.7282 180.908 49.254 182.909 49.254C185.823 49.254 187.952 48.3987 189.301 46.6883H196.238C195.218 49.273 193.533 51.3318 191.189 52.8586C188.845 54.3853 186.083 55.1518 182.916 55.1518C178.659 55.1518 175.168 53.8152 172.457 51.1355C169.745 48.4621 168.39 45.0666 168.39 40.9488C168.39 36.8374 169.745 33.4419 172.457 30.7622C175.168 28.0888 178.652 26.7458 182.916 26.7458C187.141 26.7458 190.6 28.0825 193.292 30.7622C195.985 33.4355 197.334 36.8311 197.334 40.9488V43.2484V43.2484ZM182.916 32.65C181.022 32.65 179.419 33.1125 178.107 34.0437C176.796 34.9749 175.884 36.2736 175.377 37.946V38.0537H190.448V37.946C189.935 36.3053 189.016 35.013 187.692 34.069C186.362 33.1251 184.772 32.65 182.916 32.65ZM250.199 55.2785H243.7V19.3909H250.199V55.2785ZM274.963 54.341V51.1735H274.855C273.145 54.0495 270.503 55.4876 266.936 55.4876C263.516 55.4876 260.639 54.341 258.308 52.0477C255.977 49.7544 254.811 46.3526 254.811 41.8357V28.1268H261.311V41.8357C261.311 44.3507 261.919 46.2385 263.142 47.5182C264.358 48.7915 266.024 49.4313 268.14 49.4313C270.218 49.4313 271.871 48.7788 273.113 47.4675C274.348 46.1562 274.969 44.281 274.969 41.8421V28.1268H281.469V54.1762C281.469 58.6171 280.234 61.9239 277.757 64.0905C275.28 66.257 272.042 67.3403 268.032 67.3403C264.757 67.3403 261.951 66.5674 259.62 65.0217C257.288 63.476 255.762 61.151 255.033 58.0596H261.533C262.591 60.4985 264.757 61.7212 268.032 61.7212C272.651 61.7149 274.963 59.2569 274.963 54.341ZM148.815 48.5951C148.156 48.9436 147.339 49.1209 146.363 49.1209C143.341 49.1209 141.827 47.4485 141.827 44.0973V33.3912H148.992V27.4933H141.827V19.3529H135.327V44.091C135.327 47.7336 136.322 50.4893 138.305 52.3644C140.288 54.2396 142.974 55.1772 146.363 55.1772C147.224 55.1772 148.042 55.1138 148.815 54.9935V48.5951ZM165.735 48.5951C165.076 48.9436 164.259 49.1209 163.284 49.1209C160.262 49.1209 158.748 47.4485 158.748 44.0973V33.3912H165.913V27.4933H158.748V19.3529H152.248V44.091C152.248 47.7336 153.243 50.4893 155.226 52.3644C157.208 54.2396 159.894 55.1772 163.284 55.1772C164.145 55.1772 164.962 55.1138 165.735 54.9935V48.5951ZM227.185 30.7052C227.077 27.7531 227.641 24.801 232.582 24.725C233.976 24.725 237.745 24.6363 239.113 25.0924V19.2452C237.922 18.9475 235.129 18.8018 232.544 18.8018C228.901 18.8018 226.019 19.809 223.89 21.8299C221.762 23.8507 220.697 26.8092 220.697 30.7052V55.1455H227.197V40.9742H237.802V35.0763H227.197V30.7052H227.185ZM216.339 27.6897C215.471 27.544 214.559 27.4617 213.583 27.4617C209.941 27.4617 207.058 28.4753 204.93 30.4898C202.801 32.5106 201.737 35.5071 201.737 39.4728V55.1455H208.237V39.4791C208.237 35.5134 210.023 33.5242 213.59 33.5242C214.686 33.5242 215.591 33.7396 216.345 34.1197V27.6897H216.339Z" fill="white"/>
<path d="M94.0547 62.709H98.8819C100.871 62.709 102.563 63.3932 103.931 64.7425C105.318 66.0919 106.002 67.739 106.002 69.6901C106.002 71.6856 105.318 73.3707 103.95 74.7391C102.582 76.1075 100.89 76.7916 98.8756 76.7916H94.0483V62.709H94.0547ZM96.6964 74.302H98.8693C100.257 74.302 101.346 73.8585 102.132 72.997C102.936 72.1101 103.342 71.0015 103.342 69.6965C103.342 68.4295 102.936 67.3842 102.132 66.5163C101.346 65.6484 100.257 65.205 98.8693 65.205H96.6964V74.302Z" fill="white"/>
<path d="M108.391 62.5684H110.988V65.0453H108.391V62.5684ZM108.391 66.3313H110.988V76.7967H108.391V66.3313Z" fill="white"/>
<path d="M118.293 77.0012C116.988 77.0012 115.778 76.5197 114.713 75.5758C113.649 74.6066 113.123 73.2826 113.123 71.5721C113.123 69.8617 113.649 68.5313 114.713 67.5874C115.778 66.6182 116.988 66.1367 118.293 66.1367C119.902 66.1367 121.093 67.0046 121.511 67.8282H121.65V66.3394H124.228V76.8048H121.65V75.3161H121.511C121.086 76.1333 119.902 77.0012 118.293 77.0012ZM116.519 73.8781C117.121 74.4229 117.824 74.7016 118.654 74.7016C119.484 74.7016 120.18 74.4165 120.789 73.8781C121.409 73.3332 121.714 72.5477 121.714 71.5658C121.714 70.5839 121.409 69.792 120.789 69.2535C120.187 68.7087 119.484 68.43 118.654 68.43C117.824 68.43 117.127 68.7087 116.519 69.2535C115.936 69.7983 115.632 70.5839 115.632 71.5658C115.632 72.5477 115.936 73.3332 116.519 73.8781Z" fill="white"/>
<path d="M132.843 66.1301C134.148 66.1301 135.339 66.6115 136.404 67.5808C137.468 68.5247 138.013 69.855 138.013 71.5655C138.013 73.2759 137.468 74.6063 136.404 75.5692C135.339 76.5131 134.148 76.9945 132.843 76.9945C131.234 76.9945 130.043 76.1267 129.625 75.3031H129.486V76.7918H126.907V68.1002H126.888V62.5635H129.486V67.8152H129.625C130.05 66.998 131.234 66.1301 132.843 66.1301ZM130.328 73.8777C130.955 74.4225 131.659 74.7013 132.482 74.7013C133.306 74.7013 134.009 74.4162 134.598 73.8777C135.2 73.3329 135.504 72.5474 135.504 71.5655C135.504 70.5836 135.2 69.7917 134.598 69.2532C134.015 68.7084 133.312 68.4297 132.482 68.4297C131.652 68.4297 130.955 68.7084 130.328 69.2532C129.727 69.798 129.422 70.5836 129.422 71.5655C129.422 72.5474 129.727 73.3329 130.328 73.8777Z" fill="white"/>
<path d="M145.001 66.1299C146.268 66.1299 147.554 66.6303 148.624 67.5996C149.733 68.5688 150.316 70.3363 150.049 72.5092H142.219C142.543 73.9789 143.727 74.8025 145.26 74.8025C146.489 74.8025 147.091 74.5617 147.978 73.9979L149.41 75.3853C148.402 76.4496 146.996 76.9944 145.184 76.9944C143.734 76.9944 142.448 76.5129 141.32 75.569C140.211 74.5997 139.647 73.2757 139.647 71.5843C139.647 67.9417 142.65 66.1299 145.001 66.1299ZM145.001 68.3471C143.772 68.3471 142.587 69.1707 142.245 70.6214H147.737C147.515 69.1707 146.293 68.3471 145.001 68.3471Z" fill="white"/>
<path d="M157.943 66.3325V68.4674H155.706V73.6431C155.706 74.3083 156.048 74.6314 156.714 74.6314C157.056 74.6314 157.48 74.549 157.943 74.4096V76.5255C157.398 76.7852 156.758 76.9246 155.991 76.9246C154.161 76.9246 153.134 76.2404 153.134 74.2069V68.4738H151.665V66.3389H153.134V63.6592H155.713V66.3389H157.943V66.3325Z" fill="white"/>
<path d="M165.032 66.1299C166.299 66.1299 167.585 66.6303 168.656 67.5996C169.764 68.5688 170.347 70.3363 170.081 72.5092H162.251C162.574 73.9789 163.759 74.8025 165.292 74.8025C166.521 74.8025 167.123 74.5617 168.009 73.9979L169.441 75.3853C168.434 76.4496 167.028 76.9944 165.216 76.9944C163.765 76.9944 162.479 76.5129 161.351 75.569C160.243 74.5997 159.679 73.2757 159.679 71.5843C159.679 67.9417 162.675 66.1299 165.032 66.1299ZM165.032 68.3471C163.803 68.3471 162.618 69.1707 162.276 70.6214H167.769C167.547 69.1707 166.318 68.3471 165.032 68.3471Z" fill="white"/>
<path d="M179.482 68.7257L177.328 69.3086C176.986 68.5674 176.485 68.1999 175.82 68.1999C175.155 68.1999 174.629 68.58 174.629 69.1439C174.629 69.6063 174.971 69.9674 175.636 70.2335L176.865 70.6579C177.809 71 178.291 71.2217 178.918 71.7032C179.564 72.1656 179.843 72.8498 179.843 73.7557C179.843 74.782 179.463 75.5675 178.677 76.1503C177.891 76.7141 176.948 76.9929 175.801 76.9929C173.691 76.9929 172.158 75.9286 171.734 74.0978L173.786 73.4516C174.09 74.3195 174.813 74.9213 175.801 74.9213C176.669 74.9213 177.334 74.4399 177.334 73.7937C177.334 73.3313 176.973 72.9702 176.244 72.6851L175.034 72.2607C173.102 71.5575 172.133 70.5122 172.133 69.1185C172.133 68.2126 172.475 67.4904 173.178 66.9456C173.881 66.4008 174.73 66.1221 175.712 66.1221C177.568 66.1284 178.899 67.1167 179.482 68.7257Z" fill="white"/>
<path d="M197.759 73.4337L199.349 75.2835C198.044 76.4301 196.454 76.9939 194.559 76.9939C192.57 76.9939 190.853 76.3098 189.409 74.9414C187.977 73.5541 187.255 71.8246 187.255 69.7467C187.255 67.6689 187.977 65.9458 189.409 64.5774C190.86 63.19 192.57 62.5059 194.559 62.5059C196.409 62.5059 197.98 63.0697 199.266 64.1783L197.676 65.9901C196.77 65.3249 195.782 64.9828 194.718 64.9828C193.387 64.9828 192.26 65.4453 191.36 66.3512C190.461 67.2571 189.992 68.3847 189.992 69.7531C189.992 71.1214 190.454 72.2681 191.36 73.174C192.266 74.0799 193.394 74.5233 194.718 74.5233C195.845 74.5233 196.853 74.1622 197.759 73.4337Z" fill="white"/>
<path d="M209.11 69.2721H215.046C215.648 74.0804 212.487 76.9818 208.749 77.0008C206.735 77.0008 205.024 76.3166 203.599 74.9482C202.174 73.5799 201.464 71.8504 201.464 69.7536C201.464 67.682 202.186 65.9526 203.618 64.5842C205.05 63.1969 206.76 62.5127 208.749 62.5127C210.599 62.5127 212.17 63.0765 213.456 64.1851L211.866 65.9969C210.96 65.3318 209.972 64.9897 208.908 64.9897C207.577 64.9897 206.45 65.4331 205.55 66.339C204.651 67.2449 204.201 68.3725 204.201 69.7599C204.201 71.1473 204.644 72.2749 205.506 73.1808C206.374 74.0867 207.476 74.5301 208.787 74.5301C211.005 74.5301 212.291 73.5039 212.633 71.4703H209.11V69.2721Z" fill="white"/>
<path d="M230.186 62.709H233.088V76.798H230.453V67.8213H230.351L226.347 76.798H224.453L220.45 67.8213H220.348V76.798H217.713V62.709H220.608L225.397 73.4341L230.186 62.709Z" fill="white"/>
</svg>
