<svg width="94" height="94" viewBox="0 0 94 94" fill="none" xmlns="http://www.w3.org/2000/svg">
<rect opacity="0.6" width="107" height="107" rx="53.5" transform="matrix(-1 -8.74228e-08 -8.74228e-08 1 107 -13)" fill="#41B9D5"/>
<g clip-path="url(#clip0_148_9356)">
<path d="M59.6232 43.0361C68.2546 43.0361 75.2517 36.039 75.2517 27.4076C75.2517 18.7762 68.2546 11.779 59.6232 11.779C50.9918 11.779 43.9946 18.7762 43.9946 27.4076C43.9946 36.039 50.9918 43.0361 59.6232 43.0361Z" fill="#FEC914"/>
<path d="M47.3854 27.4076C47.3854 19.3491 53.4847 12.7161 61.3186 11.8709C60.7616 11.8109 60.1961 11.7791 59.6232 11.7791C50.9917 11.7791 43.9946 18.7762 43.9946 27.4077C43.9946 36.0391 50.9917 43.0362 59.6232 43.0362C60.1961 43.0362 60.7616 43.0045 61.3186 42.9444C53.4847 42.0991 47.3854 35.466 47.3854 27.4076Z" fill="#FEC914"/>
<path d="M59.6231 39.9393C66.5442 39.9393 72.1549 34.3287 72.1549 27.4076C72.1549 20.4864 66.5442 14.8758 59.6231 14.8758C52.702 14.8758 47.0913 20.4864 47.0913 27.4076C47.0913 34.3287 52.702 39.9393 59.6231 39.9393Z" fill="#FEC914"/>
<path d="M50.4821 27.4076C50.4821 21.0615 55.1994 15.8179 61.3186 14.9903C60.764 14.9153 60.1984 14.8758 59.6232 14.8758C52.7021 14.8758 47.0913 20.4865 47.0913 27.4076C47.0913 34.3287 52.702 39.9393 59.6232 39.9393C60.1982 39.9393 60.764 39.8997 61.3186 39.8248C55.1993 38.9972 50.4821 33.7536 50.4821 27.4076Z" fill="#FEC914"/>
<path d="M44.1372 50.4976H40.4285V67.1351H44.1372C44.5789 67.1351 44.9371 66.7769 44.9371 66.3352V51.2975C44.9371 50.8557 44.5789 50.4976 44.1372 50.4976Z" fill="#DFEBFA"/>
<path d="M39.6438 48.967H33.412C32.7805 48.967 32.2686 49.479 32.2686 50.1105V67.5224C32.2686 68.1539 32.7805 68.6658 33.412 68.6658H39.6439C40.2754 68.6658 40.7874 68.1539 40.7874 67.5224V50.1104C40.7873 49.4788 40.2753 48.967 39.6438 48.967Z" fill="#EFF5FA"/>
<path d="M36.5279 67.5222V50.1104C36.5279 49.4788 37.0399 48.9669 37.6714 48.9669H33.412C32.7805 48.9669 32.2686 49.4788 32.2686 50.1104V67.5222C32.2686 68.1537 32.7805 68.6657 33.412 68.6657H37.6715C37.0399 68.6657 36.5279 68.1539 36.5279 67.5222Z" fill="#EFF5FA"/>
<path d="M66.6724 23.235C65.9514 22.4425 64.7237 22.4208 63.9749 23.1697L58.5358 28.6087C58.3893 28.7552 58.1519 28.7552 58.0056 28.6087L55.5754 26.1785C54.8266 25.4296 53.5989 25.4513 52.8779 26.2437C52.2026 26.986 52.2679 28.1417 52.9774 28.8513L56.953 32.8269C57.6808 33.5547 58.8607 33.5546 59.5885 32.8269L66.573 25.8424C67.2824 25.133 67.3477 23.9772 66.6724 23.235Z" fill="#EFF5FA"/>
<path d="M53.2283 44.0377C52.409 45.7926 52.6973 47.3699 50.5079 49.549C49.5235 50.5286 48.1441 51.0904 46.7235 51.0904H45.8111C45.7186 50.2412 44.9976 49.5778 44.1243 49.5778H41.6048C41.3773 48.6991 40.5799 48.0471 39.6311 48.0471H33.3989C32.2735 48.0471 31.3579 48.9627 31.3579 50.0881V67.5C31.3579 68.6254 32.2734 69.541 33.3989 69.541H34.4207C34.9165 69.541 35.3182 69.1391 35.3182 68.6435C35.3182 68.1478 34.9165 67.7459 34.4207 67.7459H33.3989C33.2633 67.7459 33.153 67.6356 33.153 67.5V50.0882C33.153 49.9526 33.2633 49.8423 33.3989 49.8423H39.6308C39.7664 49.8423 39.8767 49.9526 39.8767 50.0882V50.4755V67.5001C39.8767 67.6357 39.7664 67.746 39.6308 67.746H38.6092C38.1134 67.746 37.7116 68.1479 37.7116 68.6436C37.7116 69.1392 38.1134 69.5411 38.6092 69.5411H39.6308C40.5797 69.5411 41.3771 68.8893 41.6046 68.0104H44.124C44.8515 68.0104 45.4718 67.5495 45.7128 66.9051C48.9568 66.9051 49.2109 68.5921 52.6384 68.5921H56.4202V68.9413C56.4202 70.7001 57.8511 72.1312 59.61 72.1312C61.369 72.1312 62.7999 70.7001 62.7999 68.9413V68.5921C64.7358 68.5921 65.8703 67.1622 65.8703 65.6779C65.8703 65.104 65.7035 64.5683 65.4159 64.1167C66.2396 63.6012 66.7885 62.6858 66.7885 61.6446C66.7885 61.0707 66.6217 60.5351 66.3343 60.0834C67.158 59.568 67.7069 58.6525 67.7069 57.6113C67.7069 57.0374 67.5401 56.5018 67.2526 56.0501C68.0763 55.5347 68.6253 54.6191 68.6253 53.5779C68.6253 51.9709 67.318 50.6636 65.711 50.6636H62.7999V43.6012C70.391 42.1105 76.136 35.4067 76.136 27.3853C76.1361 18.2729 68.7225 10.8593 59.6101 10.8593C50.4977 10.8593 43.0841 18.2729 43.0841 27.3854C43.0841 34.5634 47.6846 40.6862 54.0916 42.9627C53.7286 43.2434 53.4289 43.6082 53.2283 44.0377ZM44.0265 51.9879V66.2153H41.6718V51.373H44.0265V51.9879ZM61.0049 68.9414C61.0049 69.7104 60.3791 70.3362 59.6101 70.3362C58.8411 70.3362 58.2154 69.7104 58.2154 68.9414V68.5922H61.005V68.9414H61.0049ZM44.8791 27.3854C44.8791 19.2627 51.4874 12.6544 59.6101 12.6544C67.7329 12.6544 74.3411 19.2627 74.3411 27.3854C74.3411 36.2882 66.4415 43.2414 57.5082 41.9657C50.3776 40.9426 44.8791 34.7944 44.8791 27.3854ZM61.0049 43.8526V50.6637H58.2152C58.2152 49.657 58.2152 44.4056 58.2152 43.8526C59.1579 43.9321 60.119 43.9273 61.0049 43.8526ZM54.8547 44.7972C55.2298 43.9937 56.4202 43.9073 56.4202 44.6737V51.189V51.1892C56.42 51.1991 56.4212 51.2088 56.4214 51.2188C56.4301 51.8908 56.9707 52.4588 57.6752 52.4588H65.7111C66.3282 52.4588 66.8303 52.9608 66.8303 53.578C66.8303 54.195 66.3283 54.6971 65.7111 54.6971C64.8528 54.6971 59.4671 54.6971 58.3426 54.6971C57.8468 54.6971 57.445 55.099 57.445 55.5947C57.445 56.0904 57.8468 56.4922 58.3426 56.4922H64.7928C65.4098 56.4922 65.9119 56.9942 65.9119 57.6114C65.9119 58.2285 65.4099 58.7306 64.7928 58.7306C63.9849 58.7306 59.2977 58.7306 58.3426 58.7306C57.8468 58.7306 57.445 59.1324 57.445 59.6281C57.445 60.1238 57.8468 60.5256 58.3426 60.5256H63.8745C64.4916 60.5256 64.9936 61.0277 64.9936 61.6448C64.9936 62.262 64.4917 62.764 63.8745 62.764C61.8947 62.764 59.5562 62.764 58.3425 62.764C57.8467 62.764 57.4449 63.1658 57.4449 63.6615C57.4449 64.1572 57.8467 64.5591 58.3425 64.5591H62.9562C63.5732 64.5591 64.0753 65.0611 64.0753 65.6782C64.0753 66.2952 63.5733 66.7974 62.9562 66.7974C61.8346 66.7974 53.78 66.7974 52.6384 66.7974C49.7462 66.7974 49.3723 65.1104 45.8214 65.1104V52.8854H46.7233C48.6148 52.8854 50.4556 52.1331 51.7739 50.8212C54.3177 48.2897 54.1708 46.2617 54.8547 44.7972Z" fill="#166780"/>
<path d="M67.323 22.6087C66.2371 21.4152 64.416 21.4237 63.3269 22.513L58.2574 27.5825L56.1967 25.5219C55.1081 24.4329 53.2872 24.4234 52.2007 25.6176C51.2074 26.709 51.264 28.3986 52.3293 29.4639L56.3049 33.4396C57.384 34.5188 59.1305 34.5188 60.2097 33.4396L67.1942 26.4551C68.2595 25.3895 68.3161 23.7001 67.323 22.6087ZM65.9249 25.1856L58.9403 32.1701C58.5628 32.5477 57.952 32.5476 57.5744 32.1701L53.5987 28.1944C53.2188 27.8146 53.1872 27.2005 53.5284 26.8256C53.9028 26.4142 54.5386 26.4021 54.9273 26.791L57.3578 29.2214C57.854 29.7175 58.6611 29.7171 59.1572 29.2212L64.5963 23.7821C64.9771 23.4014 65.6136 23.3974 65.9951 23.8168C66.3364 24.1916 66.3048 24.8058 65.9249 25.1856Z" fill="#166780"/>
<path d="M72.8519 29.6285C72.9341 29.1397 72.6045 28.6768 72.1157 28.5945C71.6273 28.5122 71.1639 28.8418 71.0816 29.3306C70.1369 34.9447 65.3125 39.0195 59.6101 39.0195C53.195 39.0195 47.9757 33.8004 47.9757 27.3853C47.9757 20.9702 53.1949 15.751 59.6101 15.751C65.3125 15.751 70.137 19.8259 71.0816 25.44C71.1639 25.9288 71.6271 26.258 72.1157 26.1761C72.6045 26.0938 72.9341 25.6309 72.8519 25.142C71.7794 18.7695 66.2336 13.9558 59.6101 13.9558C52.2051 13.9558 46.1807 19.9802 46.1807 27.3852C46.1807 34.7901 52.2051 40.8145 59.6101 40.8145C66.238 40.8147 71.7801 35.9962 72.8519 29.6285Z" fill="#166780"/>
</g>
<defs>
<clipPath id="clip0_148_9356">
<rect width="61.2719" height="61.2719" fill="white" transform="translate(23.1111 10.8593)"/>
</clipPath>
</defs>
</svg>
