<svg width="60" height="59" viewBox="0 0 60 59" fill="none" xmlns="http://www.w3.org/2000/svg">
<path d="M20 44.0609H23.4375V31.8218H30L32.5 36.7175H45V22.0305H37.5L35 17.1348H20V44.0609ZM34.8125 33.3517L32.3125 28.456H23.4375V20.5006H32.6875L35.1875 25.3962H41.5625V33.3517H34.8125ZM30 53.8523C26.5833 53.8523 23.3542 53.2097 20.3125 51.9246C17.2708 50.6395 14.6146 48.8852 12.3438 46.6618C10.0729 44.4383 8.28125 41.8375 6.96875 38.8593C5.65625 35.8811 5 32.7193 5 29.374C5 25.9878 5.65625 22.8056 6.96875 19.8274C8.28125 16.8492 10.0729 14.2586 12.3438 12.0556C14.6146 9.85252 17.2708 8.10844 20.3125 6.82333C23.3542 5.53822 26.5833 4.89566 30 4.89566C33.4583 4.89566 36.7083 5.53822 39.75 6.82333C42.7917 8.10844 45.4375 9.85252 47.6875 12.0556C49.9375 14.2586 51.7188 16.8492 53.0312 19.8274C54.3438 22.8056 55 25.9878 55 29.374C55 32.7193 54.3438 35.8811 53.0312 38.8593C51.7188 41.8375 49.9375 44.4383 47.6875 46.6618C45.4375 48.8852 42.7917 50.6395 39.75 51.9246C36.7083 53.2097 33.4583 53.8523 30 53.8523ZM30 50.1805C35.9167 50.1805 40.9375 48.1509 45.0625 44.0915C49.1875 40.0322 51.25 35.1264 51.25 29.374C51.25 23.5808 49.1875 18.6647 45.0625 14.6258C40.9375 10.5869 35.9167 8.56741 30 8.56741C24.125 8.56741 19.1146 10.5869 14.9688 14.6258C10.8229 18.6647 8.75 23.5808 8.75 29.374C8.75 35.1264 10.8229 40.0322 14.9688 44.0915C19.1146 48.1509 24.125 50.1805 30 50.1805Z" fill="#166780"/>
</svg>
