<svg width="574" height="605" viewBox="0 0 574 605" fill="none" xmlns="http://www.w3.org/2000/svg">
<path opacity="0.03" d="M540.299 298.209C537.088 199.091 493.794 118.419 403.003 68.2227C309.191 16.3283 214.907 21.046 123.786 78.2713C120.481 80.3471 117.129 82.4701 113.918 84.7346C104.664 91.3865 94.7498 94.9247 87.5261 83.3664C81.1995 73.1763 85.1182 64.1655 94.8914 57.089C131.151 30.9531 170.951 13.0259 215.001 5.14741C388.792 -25.8949 547.711 86.4329 571.223 262.072C594.263 434.031 470.99 580.562 310.183 601.225C148.431 622.03 -0.431641 508.287 -26.3517 350.434C-29.1372 333.45 -29.2789 316.042 -31.8284 299.011C-35.0388 277.263 -50.8081 263.298 -69.7877 265.799C-90.6559 268.535 -101.751 281.462 -102.365 302.502C-104.536 376.475 -128.049 442.287 -176.489 498.852C-223.277 553.53 -282.671 587.214 -353.018 599.385C-444.895 615.331 -527.376 591.932 -599.234 532.442C-667.977 475.499 -701.167 400.819 -707.258 313.023C-708.013 302.078 -706.786 290.897 -713.773 281.32C-722.98 268.677 -735.727 262.78 -750.788 266.129C-769.06 270.233 -778.597 284.198 -780.296 301.747C-782.846 327.459 -783.46 353.076 -790.164 378.551C-821.702 498.474 -922.596 585.044 -1046.06 601.225C-1222.68 624.389 -1382.45 481.868 -1383.16 310.853C-1383.3 282.594 -1398.22 265.469 -1420.46 265.469C-1443.59 265.469 -1456.53 281.367 -1457.14 310.475C-1460.12 458.657 -1573.14 580.703 -1722.1 601.273C-1881.45 623.257 -2039.66 505.032 -2058.12 340.008C-2059.25 329.912 -2060.9 319.863 -2061.85 309.72C-2063.07 297.077 -2058.31 286.509 -2045.09 285.802C-2030.64 285.047 -2028.56 296.841 -2027.9 308.777C-2023.93 382.42 -1998.3 447.241 -1943.25 497.106C-1866.2 566.928 -1775.97 588.959 -1676.45 556.36C-1577.06 523.808 -1517.67 453.374 -1495.48 351.33C-1491.94 335.101 -1491.14 318.778 -1490.76 302.266C-1489.86 263.817 -1461.58 233.719 -1425.27 231.69C-1389.49 229.661 -1358.8 254.571 -1352.33 291.369C-1346.52 324.44 -1347.61 358.36 -1335.66 390.723C-1292.37 507.91 -1182.5 578.816 -1062.21 569.853C-936.713 560.512 -834.78 464.319 -816.745 343.027C-814.337 326.751 -814.148 310.192 -811.976 293.869C-806.924 255.797 -776 229.614 -739.221 231.643C-702.867 233.624 -674.114 263.676 -673.595 302.078C-672.604 376.428 -647.014 441.155 -593.569 492.247C-515.479 566.881 -422.374 590.233 -319.544 555.558C-218.698 521.544 -159.681 448.75 -140.277 343.971C-137.68 329.959 -136.641 316.042 -136.216 301.889C-134.989 262.449 -105.481 232.209 -68.0881 231.596C-30.1288 230.935 0.181885 259.713 2.16479 299.247C6.93335 395.44 44.3733 474.745 126.996 527.111C217.74 584.619 312.921 586.978 405.978 533.385C493.888 482.765 537.513 403.932 540.299 298.209Z" fill="#DBF4F2"/>
<path opacity="0.6" d="M272.223 543.528C140.216 543.575 32.6171 439.362 29.6898 308.541C28.3679 249.004 -9.73315 207.3 -64.2169 205.601C-118.937 203.95 -160.39 245.56 -163.081 306.276C-167.519 405.536 -213.788 478.424 -302.973 521.166C-455.613 594.243 -635.117 487.954 -646.212 319.58C-647.298 303.163 -647.298 286.604 -652.774 270.752C-668.213 226.217 -711.318 200.27 -758.39 207.205C-805.131 214.093 -838.227 252.92 -839.549 302.361C-842.287 408.791 -904.703 496.257 -1002.29 530.555C-1155.92 584.525 -1320.04 472.008 -1324.62 309.626C-1326.32 248.532 -1354.22 216.405 -1414.93 206.073C-1425.65 204.233 -1436.37 202.676 -1434.72 188.429C-1433.06 174.134 -1421.64 175.219 -1411.25 175.597C-1347.99 177.814 -1293.88 233.341 -1294.26 303.021C-1294.78 398.318 -1219.66 499.512 -1103.19 513.005C-991.858 525.884 -879.255 435.918 -871.418 324.062C-870.474 310.758 -870.049 297.36 -868.113 284.198C-858.198 216.688 -802.392 171.776 -733.745 175.597C-669.488 179.182 -618.781 233.86 -617.365 301.181C-615.051 409.688 -538.755 497.578 -435.075 511.212C-304.862 528.29 -195.563 433.276 -192.495 300.285C-191.078 239.804 -153.025 192.722 -93.9139 178.427C-39.7606 165.312 18.406 192.345 45.3174 242.682C55.9875 262.638 58.9619 284.15 60.3312 306.229C67.6492 421.671 141.49 499.701 256.359 513.477C364.099 526.403 475.05 433.276 482.793 323.307C488.931 236.549 456.779 167.152 382.749 121.579C308.86 76.1011 232.47 78.2241 157.826 123.089C148.147 128.892 137.619 136.204 129.545 122.806C121.755 109.88 132.284 103.181 141.868 96.9061C287.237 1.56191 486.617 92.8489 511.215 266.082C532.367 414.405 421.133 543.481 272.223 543.528Z" fill="#A3B2C2" fill-opacity="0.36"/>
<path opacity="0.07" d="M-406.181 487.199C-505.659 487.011 -587.149 408.178 -589.604 309.768C-591.87 219.188 -644.701 160.5 -735.539 148.234C-746.776 146.725 -760.232 147.385 -758.438 131.77C-756.596 115.541 -743.613 114.456 -729.685 116.39C-625.061 130.779 -559.199 203.526 -556.083 308.682C-553.627 390.864 -487.86 453.657 -404.34 453.515C-322.237 453.374 -256.091 390.298 -253.73 309.768C-250.473 199.185 -182.203 122.099 -72.4797 115.966C9.05713 111.389 90.1219 161.916 114.484 260.892C118.025 275.329 119.441 290.095 119.583 305.144C120.244 380.108 181.857 447.288 254.659 453.279C337.329 460.073 406.543 408.65 421.463 329.77C432.983 268.913 412.634 218.811 365.421 181.777C314.667 141.96 257.964 137.478 199.751 167.53C188.703 173.238 176.144 183.192 167.598 166.586C159.95 151.726 171.8 144.319 183.745 137.95C298.284 76.856 434.069 146.913 455.74 275.8C470.564 364.068 405.363 470.216 298.048 486.397C203.48 500.645 108.205 432.474 89.6027 336.47C85.0702 313.211 87.5724 289.717 81.8596 266.507C64.9574 197.912 6.64929 148.517 -69.5052 148.423C-142.213 148.376 -202.457 203.101 -216.527 274.668C-221.956 302.361 -218.368 330.62 -227.999 358.218C-255.241 436.531 -323.653 487.341 -406.181 487.199Z" fill="#DBF4F2"/>
<path opacity="0.9" d="M401.735 301.795C401.735 370.531 347.865 425.964 278.698 428.417C211.986 430.776 153.347 378.41 150.515 310.003C147.54 237.54 123.037 176.918 64.3508 132.289C29.6493 105.87 -9.77367 91.5751 -53.4457 90.0183C-65.249 89.5937 -77.8548 88.7445 -77.2882 74.1669C-76.7217 58.0796 -62.9827 58.3627 -50.6129 59.1175C79.2229 67.0904 175.49 167.954 179.551 300.285C181.156 353.406 219.634 394.827 269.68 397.375C321.331 400.017 364.484 364.681 370.999 312.362C375.532 275.942 361.462 245.749 331.954 224.236C301.502 202.016 268.169 199.94 233.893 215.508C228.227 218.103 223.223 222.16 217.699 225.085C210.003 229.19 202.213 229.426 196.689 221.736C190.362 212.961 193.62 205.129 201.552 199.374C229.644 179.041 261.276 171.398 295.317 176.682C357.307 186.306 401.688 239.002 401.735 301.795Z" fill="#EFB514"/>
<path opacity="0.2" d="M207.076 302.786C206.84 262.78 236.867 231.879 275.96 231.832C314.485 231.785 345.457 263.676 345.174 302.974C344.89 339.206 312.549 371.145 275.393 371.947C238.331 372.702 207.312 341.282 207.076 302.786ZM240.738 302.927C240.975 323.355 256.602 339.348 276.101 339.065C296.167 338.781 312.077 321.043 311.416 299.625C310.803 280.141 294.325 264.95 274.213 265.327C254.666 265.705 240.502 281.65 240.738 302.927Z" fill="#F0E7D2"/>
</svg>
