<svg width="63" height="60" viewBox="0 0 63 60" fill="none" xmlns="http://www.w3.org/2000/svg">
<path d="M58.2291 12.6937C58.1529 12.3824 57.9954 12.0951 57.7717 11.8592C57.548 11.6232 57.2654 11.4464 56.9509 11.3456L52.0457 9.76685L50.408 5.03248C50.3032 4.72954 50.12 4.45746 49.8757 4.24204C49.6313 4.02662 49.3341 3.87501 49.012 3.80158C48.69 3.72814 48.3539 3.73532 48.0355 3.82244C47.7171 3.90955 47.4271 4.07371 47.1929 4.29935L40.9512 10.3237C35.5991 7.58306 29.4058 6.78705 23.4971 8.08043C17.5885 9.3738 12.3569 12.6707 8.75344 17.3717C5.15 22.0726 3.41397 27.8656 3.86099 33.6974C4.308 39.5291 6.90837 45.0124 11.1893 49.1504C15.4703 53.2884 21.1476 55.8063 27.1891 56.2464C33.2306 56.6865 39.2352 55.0194 44.1111 51.5484C48.987 48.0774 52.4106 43.0329 53.7594 37.332C55.1081 31.631 54.2926 25.6522 51.4609 20.4825L57.7105 14.4506C57.9449 14.2247 58.1157 13.9448 58.2065 13.6373C58.2973 13.3298 58.3051 13.005 58.2291 12.6937ZM29.1398 52.5C25.8977 52.5123 22.6952 51.8124 19.7748 50.4533C16.8544 49.0942 14.2927 47.1116 12.2837 44.6555C10.2747 42.1995 8.87107 39.3344 8.17908 36.2773C7.48709 33.2201 7.5249 30.0511 8.28964 27.0102C9.05438 23.9693 10.526 21.1361 12.5931 18.7254C14.6602 16.3146 17.2685 14.3895 20.2205 13.0956C23.1725 11.8018 26.3909 11.1733 29.6319 11.2576C32.8728 11.342 36.0514 12.137 38.9269 13.5825C38.9386 13.6275 38.9386 13.6725 38.9541 13.7175L40.5082 18.2437L37.2679 21.375C34.5039 19.3786 31.059 18.4669 27.6267 18.8235C24.1943 19.18 21.0293 20.7784 18.7687 23.2967C16.5082 25.815 15.3201 29.0663 15.4434 32.3962C15.5668 35.726 16.9925 38.8872 19.4336 41.2432C21.8746 43.5993 25.1498 44.9754 28.5998 45.0944C32.0498 45.2135 35.4185 44.0667 38.0277 41.8849C40.6368 39.7031 42.2928 36.6483 42.6622 33.3355C43.0317 30.0226 42.0871 26.6977 40.0187 24.03L43.2668 20.895L47.9564 22.395C47.9972 22.4081 48.0419 22.4044 48.0846 22.4156C49.7893 25.5535 50.6242 29.0636 50.5082 32.6049C50.3922 36.1463 49.3293 39.5985 47.4226 42.6262C45.516 45.6539 42.8305 48.1543 39.627 49.8844C36.4234 51.6145 32.8107 52.5155 29.1398 52.5ZM38.8531 31.875C38.8596 33.9707 38.1405 36.0085 36.81 37.6647C35.4795 39.3209 33.6139 40.5007 31.5093 41.0166C29.4048 41.5326 27.182 41.3552 25.1939 40.5127C23.2057 39.6701 21.5662 38.2106 20.5356 36.366C19.505 34.5213 19.1424 32.3972 19.5054 30.331C19.8684 28.2647 20.9362 26.3748 22.5392 24.9611C24.1422 23.5475 26.1886 22.6912 28.3534 22.5283C30.5182 22.3654 32.6773 22.9051 34.488 24.0619L30.1325 28.2656C29.8095 28.1767 29.4757 28.1294 29.1398 28.125C28.3714 28.125 27.6202 28.3449 26.9813 28.757C26.3423 29.169 25.8443 29.7547 25.5503 30.4399C25.2562 31.1251 25.1793 31.8791 25.3292 32.6066C25.4791 33.334 25.8491 34.0022 26.3925 34.5266C26.9359 35.0511 27.6282 35.4082 28.3818 35.5529C29.1355 35.6976 29.9167 35.6234 30.6267 35.3395C31.3366 35.0557 31.9434 34.575 32.3703 33.9584C32.7973 33.3417 33.0251 32.6167 33.0251 31.875C33.0206 31.5508 32.9716 31.2286 32.8794 30.9169L37.2349 26.7131C38.2897 28.2421 38.8527 30.038 38.8531 31.875ZM48.0399 18.48L44.2751 17.2668L43.0201 13.6312L47.7155 9.0956L48.6674 11.8425C48.7625 12.1187 48.923 12.3698 49.1361 12.5758C49.3492 12.7818 49.6091 12.9371 49.8951 13.0294L52.7392 13.9443L48.0399 18.48Z" fill="#15627C"/>
</svg>
