<svg width="32" height="40" viewBox="0 0 32 40" fill="none" xmlns="http://www.w3.org/2000/svg">
<path d="M24.2775 39.2188H2.59302V35.5134C2.59302 32.329 5.17442 29.7476 8.3588 29.7476H18.5117C21.6961 29.7476 24.2775 32.329 24.2775 35.5134V39.2188Z" fill="#FF9EB1"/>
<path d="M11.6102 26.983H4.15984C2.50641 26.983 1.16602 25.6426 1.16602 23.9891V13.0505C1.16602 6.27438 6.65914 0.78125 13.4352 0.78125C20.2114 0.78125 25.7045 6.27438 25.7045 13.0505V23.9891C25.7045 25.6426 24.3641 26.983 22.7107 26.983H15.3202" fill="#C193DC"/>
<path d="M21.6348 12.4785C20.0446 12.4785 18.5442 11.739 17.5722 10.4761L16.6139 9.23093L15.6555 10.4761C14.6836 11.739 13.1831 12.4785 11.5929 12.4785H5.2356V21.0545C5.2356 23.0458 6.44247 24.8369 8.28411 25.5789L11.7696 26.983V29.7476H9.96028C9.96028 31.4045 11.3035 32.7477 12.9604 32.7477H13.91C15.5669 32.7477 16.9101 31.4045 16.9101 29.7476H15.1008V26.983L18.5863 25.5789C20.4279 24.8369 21.6348 23.0459 21.6348 21.0546V12.4785Z" fill="#FFDCD5"/>
<path d="M13.4354 23.6288C12.2809 23.6288 11.345 22.693 11.345 21.5384V21.2097H15.5257V21.5384C15.5257 22.6929 14.5898 23.6288 13.4354 23.6288Z" fill="#FAF7F5"/>
<path d="M30.8342 33.061C30.8342 36.4618 28.0773 39.2187 24.6765 39.2187C21.2757 39.2187 18.5188 36.4619 18.5188 33.061C18.5188 29.6602 21.2757 26.9034 24.6765 26.9034C28.0773 26.9034 30.8342 29.6602 30.8342 33.061Z" fill="#FFF7BF"/>
<path d="M13.4492 40C13.1236 40 12.8251 39.7888 12.7147 39.4832C12.6041 39.177 12.701 38.821 12.954 38.615C13.2148 38.4026 13.5892 38.3815 13.8723 38.5627C14.1375 38.7324 14.276 39.0559 14.2166 39.3652C14.1466 39.7286 13.8199 40 13.4492 40Z" fill="black"/>
<path d="M18.4173 17.5333C18.2169 17.5333 18.0166 17.4567 17.8639 17.3035C17.7415 17.1806 17.5788 17.113 17.406 17.113C17.2332 17.113 17.0706 17.1806 16.9481 17.3035C16.6435 17.6091 16.1489 17.61 15.8433 17.3054C15.5377 17.0009 15.5368 16.5062 15.8414 16.2005C16.2592 15.7813 16.8149 15.5505 17.406 15.5505C17.9972 15.5505 18.5529 15.7813 18.9706 16.2005C19.2753 16.5062 19.2744 17.0009 18.9688 17.3054C18.8163 17.4573 18.6167 17.5333 18.4173 17.5333Z" fill="black"/>
<path d="M10.4761 17.5333C10.2757 17.5333 10.0754 17.4567 9.92276 17.3035C9.80034 17.1806 9.63769 17.113 9.46487 17.113C9.29206 17.113 9.12941 17.1806 9.00698 17.3035C8.70237 17.6091 8.20776 17.61 7.90214 17.3054C7.59651 17.0009 7.59566 16.5062 7.90026 16.2005C8.31808 15.7813 8.8737 15.5505 9.46487 15.5505C10.056 15.5505 10.6117 15.7813 11.0295 16.2005C11.3341 16.5062 11.3332 17.0009 11.0276 17.3054C10.8751 17.4573 10.6756 17.5333 10.4761 17.5333Z" fill="black"/>
<path d="M13.4353 24.4101C11.8518 24.4101 10.5637 23.1219 10.5637 21.5384V21.2098C10.5637 20.7783 10.9135 20.4285 11.345 20.4285H15.5257C15.9572 20.4285 16.3069 20.7783 16.3069 21.2098V21.5384C16.3069 23.1219 15.0187 24.4101 13.4353 24.4101ZM12.2068 21.9909C12.3915 22.4904 12.8725 22.8475 13.4353 22.8475C13.9982 22.8475 14.4792 22.4904 14.6638 21.9909H12.2068Z" fill="black"/>
<path d="M23.0071 32.9275C22.5756 32.9275 22.2258 32.5777 22.2258 32.1462V31.4723C22.2258 31.0409 22.5756 30.6911 23.0071 30.6911C23.4386 30.6911 23.7883 31.0409 23.7883 31.4723V32.1462C23.7883 32.5777 23.4385 32.9275 23.0071 32.9275Z" fill="black"/>
<path d="M26.3459 32.9275C25.9145 32.9275 25.5647 32.5777 25.5647 32.1462V31.4723C25.5647 31.0409 25.9145 30.6911 26.3459 30.6911C26.7774 30.6911 27.1272 31.0409 27.1272 31.4723V32.1462C27.1272 32.5777 26.7774 32.9275 26.3459 32.9275Z" fill="black"/>
<path d="M24.6764 36.3892C23.9825 36.3892 23.2885 36.1251 22.7603 35.5968C22.4553 35.2917 22.4552 34.797 22.7603 34.492C23.0654 34.1869 23.5601 34.1868 23.8652 34.492C24.3126 34.9393 25.0404 34.9393 25.4878 34.492C25.7929 34.187 26.2876 34.1869 26.5927 34.492C26.8978 34.797 26.8978 35.2917 26.5927 35.5968C26.0642 36.1251 25.3703 36.3892 24.6764 36.3892Z" fill="black"/>
<path d="M25.7638 26.2073C26.2177 25.5841 26.4858 24.8174 26.4858 23.9892V13.0505C26.4858 5.85445 20.6313 0 13.4352 0C6.23914 0 0.384766 5.85445 0.384766 13.0505V23.9891C0.384766 26.0707 2.07828 27.7642 4.15984 27.7642H10.9884V28.9663H8.35883C4.74875 28.9663 1.81172 31.9033 1.81172 35.5133V39.2188C1.81172 39.6502 2.16148 40 2.59297 40H9.90352C10.335 40 10.6848 39.6502 10.6848 39.2188C10.6848 38.7873 10.335 38.4375 9.90352 38.4375H3.3743V35.5134C3.3743 32.7648 5.61039 30.5288 8.35891 30.5288H9.26039C9.62133 32.2403 11.1432 33.529 12.9605 33.529H13.9101C15.7274 33.529 17.2493 32.2403 17.6102 30.5288H18.2159C17.9071 31.3137 17.7375 32.168 17.7375 33.0611C17.7375 35.2269 18.7348 37.1641 20.2945 38.4375H16.967C16.5355 38.4375 16.1858 38.7873 16.1858 39.2188C16.1858 39.6502 16.5355 40 16.967 40H24.6765C28.5027 40 31.6154 36.8872 31.6154 33.0611C31.6154 29.6048 29.0752 26.7305 25.7638 26.2073ZM4.15984 26.2017C2.93984 26.2017 1.94727 25.2091 1.94727 23.9891V13.0505C1.94727 6.71602 7.10078 1.5625 13.4353 1.5625C19.7698 1.5625 24.9233 6.71602 24.9233 13.0505V23.9891C24.9233 25.2091 23.9307 26.2017 22.7107 26.2017H19.1152C21.1289 25.2837 22.4161 23.2908 22.4161 21.0545V10.1472C22.4161 9.7157 22.0663 9.36594 21.6348 9.36594C21.2034 9.36594 20.8536 9.7157 20.8536 10.1472V11.625C19.808 11.4307 18.8484 10.8533 18.1913 9.99961L17.233 8.75445C17.0851 8.56234 16.8563 8.44969 16.6138 8.44969C16.3713 8.44969 16.1426 8.56234 15.9947 8.75445L15.0364 9.99961C14.2182 11.0626 12.9309 11.6973 11.5929 11.6973H6.0168V10.1472C6.0168 9.7157 5.66703 9.36594 5.23555 9.36594C4.80406 9.36594 4.4543 9.7157 4.4543 10.1472V21.0545C4.4543 23.2909 5.74141 25.2838 7.75516 26.2018H4.15984V26.2017ZM13.9101 31.9664H12.9605C12.0119 31.9664 11.2004 31.368 10.8837 30.5288H11.7698C12.2013 30.5288 12.551 30.179 12.551 29.7475V26.983C12.551 26.6642 12.3573 26.3774 12.0617 26.2584L8.57625 24.8542C7.02156 24.2279 6.01703 22.7365 6.01703 21.0545V13.2598H11.5931C13.4127 13.2598 15.1629 12.3973 16.2748 10.9527L16.6141 10.5119L16.9533 10.9527C17.9048 12.189 19.3238 12.9989 20.8538 13.2069V21.0546C20.8538 22.7365 19.8492 24.228 18.2945 24.8543L14.8091 26.2584C14.5134 26.3775 14.3198 26.6643 14.3198 26.983V29.7476C14.3198 30.1791 14.6695 30.5288 15.101 30.5288H15.9871C15.6702 31.368 14.8587 31.9664 13.9101 31.9664ZM18.5117 28.9663H15.8821V27.7643H20.1987C19.7723 28.1252 19.39 28.5367 19.0609 28.9892C18.8785 28.974 18.6947 28.9663 18.5117 28.9663ZM24.6765 38.4375C21.7119 38.4375 19.3001 36.0256 19.3001 33.0611C19.3001 30.0965 21.712 27.6847 24.6765 27.6847C27.641 27.6847 30.0529 30.0966 30.0529 33.0611C30.0529 36.0256 27.641 38.4375 24.6765 38.4375Z" fill="black"/>
</svg>
