<svg width="42" height="40" viewBox="0 0 42 40" fill="none" xmlns="http://www.w3.org/2000/svg">
<path d="M13.5281 25.177C10.6691 25.177 8.35132 27.4947 8.35132 30.3538V38.1198C8.35132 38.8347 8.93077 39.4141 9.64562 39.4141H19.9999L21.2945 38.8868L22.5884 39.4141H32.9427C33.6576 39.4141 34.237 38.8347 34.237 38.1198V30.3538C34.237 27.4947 31.9193 25.177 29.0602 25.177H27.7655L21.2941 27.1184L14.8226 25.177H13.5281Z" fill="#F25A3C"/>
<path d="M29.0601 25.177H27.7655H27.2644C30.123 25.1775 32.4401 27.4951 32.4401 30.3537V38.1197C32.4401 38.8345 31.8607 39.414 31.1458 39.414H32.9426C33.6574 39.414 34.2369 38.8346 34.2369 38.1197V30.3537C34.2369 27.4947 31.9192 25.177 29.0601 25.177Z" fill="#E63A3A"/>
<path d="M20 28.2812H22.5885V39.4141H20V28.2812Z" fill="#CFD7E6"/>
<path d="M27.7657 25.177C27.7657 27.6782 26.3467 29.8479 24.27 30.9252C24.0426 31.0431 23.7674 31.0183 23.5666 30.8593L21.2944 29.0599L19.0222 30.8593C18.8214 31.0183 18.5462 31.0432 18.3189 30.9253C16.242 29.848 14.823 27.6783 14.823 25.177H27.7657Z" fill="#F3F5F9"/>
<path d="M25.9689 25.177C25.9689 27.3988 24.8487 29.3584 23.1428 30.5237L23.5667 30.8593C23.7674 31.0183 24.0427 31.0431 24.27 30.9251C26.3468 29.8479 27.7658 27.6781 27.7658 25.1769H25.9689V25.177Z" fill="#CFD7E6"/>
<path d="M14.1763 8.69139V4.46881C14.1763 2.32436 15.9146 0.585999 18.0591 0.585999H24.5305C26.6749 0.585999 28.4133 2.32444 28.4133 4.46881V8.69139H14.1763Z" fill="#F25A3C"/>
<path d="M17.4119 8.69139V4.46881C17.4119 2.32436 19.1502 0.585999 21.2947 0.585999C23.4391 0.585999 25.1775 2.32444 25.1775 4.46881V8.69139H17.4119Z" fill="#E9EFFF"/>
<path d="M24.5305 0.585938H22.7297C24.8742 0.585938 26.6125 2.32438 26.6125 4.46875V8.69133H28.4133V4.46875C28.4133 2.32438 26.6749 0.585938 24.5305 0.585938Z" fill="#E63A3A"/>
<path d="M21.2947 0.585938C20.9835 0.585938 20.6811 0.623594 20.3911 0.692734C22.0996 1.10016 23.3703 2.63555 23.3703 4.46875V8.69133H25.1776V4.46875C25.1776 2.32438 23.4392 0.585938 21.2947 0.585938Z" fill="#D3DCFB"/>
<path d="M25.1775 21.2947V25.177C25.1775 27.3215 23.4391 29.0598 21.2947 29.0598C19.1503 29.0598 17.4119 27.3215 17.4119 25.177V21.2942L25.1775 21.2947Z" fill="#FFBB99"/>
<path d="M13.5292 16.1171C12.8143 16.1171 12.2349 15.5377 12.2349 14.8228V12.2342C12.2349 11.5195 12.8143 10.9399 13.5292 10.9399H29.0604C29.7753 10.9399 30.3547 11.5194 30.3547 12.2342V14.8228C30.3547 15.5377 29.7753 16.1171 29.0604 16.1171H13.5292Z" fill="#FFBB99"/>
<path d="M29.0603 10.9401H27.766H27.2634C27.9783 10.9401 28.5577 11.5195 28.5577 12.2344V14.8229C28.5577 15.5377 27.9783 16.1172 27.2634 16.1172H27.766H29.0603C29.7751 16.1172 30.3546 15.5377 30.3546 14.8229V12.2344C30.3545 11.5195 29.7751 10.9401 29.0603 10.9401Z" fill="#FFA27D"/>
<path d="M14.8232 9.50514L14.8233 16.1173C14.8233 19.6912 17.7206 22.5886 21.2946 22.5886C24.8686 22.5886 27.7659 19.6913 27.7659 16.1173V9.50514L21.2946 8.85803L14.8232 9.50514Z" fill="#FFD9B3"/>
<path d="M30.2448 11.0706C29.8522 11.5438 29.1791 11.6659 28.6413 11.3676C27.4191 10.6895 24.9448 9.64584 21.2948 9.64584C17.6448 9.64584 15.1704 10.6895 13.9482 11.3676C13.4105 11.6659 12.7373 11.5438 12.3447 11.0706L12.338 11.0625C11.8123 10.4383 11.9893 9.49178 12.7026 9.09545C14.24 8.24139 17.1237 7.05725 21.2948 7.05725C25.4659 7.05725 28.3497 8.24139 29.8871 9.09545C30.6004 9.4917 30.7773 10.4383 30.2517 11.0625L30.2448 11.0706Z" fill="#FF7F40"/>
<path d="M29.8869 9.09558C28.3495 8.24151 25.4658 7.05737 21.2947 7.05737C20.988 7.05737 20.6891 7.06448 20.3962 7.07667C24.0849 7.23042 26.6657 8.30425 28.0901 9.0955C28.8034 9.49175 28.9803 10.4384 28.4547 11.0625L28.448 11.0707C28.4094 11.1171 28.3674 11.1592 28.3238 11.1989C28.4373 11.2569 28.5437 11.3135 28.6413 11.3677C29.1791 11.666 29.8522 11.5439 30.2448 11.0707L30.2516 11.0625C30.7772 10.4384 30.6002 9.49183 29.8869 9.09558Z" fill="#F25A3C"/>
<path d="M32.9429 20.5989H35.5314V24.6859H32.9429V20.5989Z" fill="#736B6B"/>
<path d="M36.2005 21.2942H32.2734C31.9283 21.2942 31.6484 21.0144 31.6484 20.6692V19.3307C31.6484 18.9855 31.9283 18.7057 32.2734 18.7057H36.2005C36.5457 18.7057 36.8255 18.9855 36.8255 19.3307V20.6692C36.8255 21.0144 36.5458 21.2942 36.2005 21.2942Z" fill="#FFDF40"/>
<path d="M36.2007 18.7057H34.4038C34.749 18.7057 35.0288 18.9855 35.0288 19.3307V20.6692C35.0288 21.0144 34.749 21.2942 34.4038 21.2942H36.2007C36.5458 21.2942 36.8257 21.0144 36.8257 20.6692V19.3307C36.8257 18.9855 36.5459 18.7057 36.2007 18.7057Z" fill="#FFBE40"/>
<path d="M37.8906 32.7207C39.912 30.6992 39.912 27.4218 37.8906 25.4003C35.8691 23.3788 32.5916 23.3788 30.5701 25.4003C28.5486 27.4218 28.5486 30.6992 30.5701 32.7207C32.5916 34.7422 35.8691 34.7422 37.8906 32.7207Z" fill="#F3F5F9"/>
<path d="M34.2371 23.8828C33.9304 23.8828 33.6306 23.911 33.3386 23.9621C35.7693 24.3877 37.6173 26.5073 37.6173 29.0599C37.6173 31.6126 35.7694 33.7321 33.3386 34.1577C33.6306 34.2088 33.9304 34.237 34.2371 34.237C37.0963 34.237 39.4142 31.9191 39.4142 29.0599C39.4142 26.2007 37.0963 23.8828 34.2371 23.8828Z" fill="#CFD7E6"/>
<path d="M10.9795 25.5545L12.5435 23.6429C12.754 23.3856 12.7353 23.0106 12.5002 22.7755L11.5415 21.8168C11.2888 21.5641 10.879 21.5641 10.6263 21.8168L6.54603 25.8971C5.54869 26.8945 5.48759 28.5195 6.4572 29.5438C7.46322 30.6066 9.14072 30.624 10.1687 29.596C10.9136 28.8511 11.1095 27.7651 10.7566 26.8407C10.5907 26.4061 10.6849 25.9145 10.9795 25.5545Z" fill="#FFDF40"/>
<path d="M12.5002 22.7755L11.5415 21.8169C11.2888 21.5641 10.879 21.5641 10.6264 21.8169L10.1855 22.2577L10.7033 22.7755C10.9384 23.0106 10.9572 23.3856 10.7466 23.643L9.18264 25.5545C8.88811 25.9145 8.79389 26.4061 8.95982 26.8407C9.31279 27.7651 9.11686 28.8511 8.37193 29.596C8.09865 29.8693 7.7792 30.068 7.43896 30.1935C8.35779 30.5333 9.43068 30.3341 10.1688 29.596C10.9137 28.8511 11.1097 27.7651 10.7567 26.8407C10.5908 26.4061 10.685 25.9145 10.9795 25.5545L12.5435 23.643C12.754 23.3856 12.7354 23.0106 12.5002 22.7755Z" fill="#FFBE40"/>
<path d="M18.7061 14.7617C19.0296 14.7617 19.292 14.4994 19.292 14.1758V13.5287C19.292 13.2051 19.0296 12.9427 18.7061 12.9427C18.3825 12.9427 18.1201 13.2051 18.1201 13.5287V14.1758C18.1201 14.4994 18.3824 14.7617 18.7061 14.7617Z" fill="#0F3061"/>
<path d="M23.8833 14.7617C24.207 14.7617 24.4692 14.4994 24.4692 14.1758V13.5287C24.4692 13.2051 24.207 12.9427 23.8833 12.9427C23.5596 12.9427 23.2974 13.2051 23.2974 13.5287V14.1758C23.2974 14.4994 23.5596 14.7617 23.8833 14.7617Z" fill="#0F3061"/>
<path d="M22.204 4.46875C22.204 4.14516 21.9417 3.88281 21.6181 3.88281H20.9709C20.6473 3.88281 20.385 4.14516 20.385 4.46875C20.385 4.79234 20.6473 5.05469 20.9709 5.05469H21.6181C21.9417 5.05469 22.204 4.79234 22.204 4.46875Z" fill="#0F3061"/>
<path d="M21.2947 17.9976C21.9628 17.9976 22.5863 17.6377 22.9222 17.0584C23.0845 16.7784 22.989 16.4199 22.7091 16.2576C22.4291 16.0952 22.0706 16.1907 21.9083 16.4707C21.7814 16.6897 21.5463 16.8257 21.2948 16.8257C21.0432 16.8257 20.8081 16.6897 20.6812 16.4707C20.5188 16.1907 20.1605 16.0953 19.8803 16.2576C19.6004 16.4199 19.5049 16.7784 19.6672 17.0584C20.0031 17.6377 20.6267 17.9976 21.2947 17.9976Z" fill="#0F3061"/>
<path d="M39.9999 29.0599C39.9999 26.5405 38.3742 24.395 36.1172 23.6135V21.8802H36.2005C36.8682 21.8802 37.4114 21.337 37.4114 20.6693V19.3307C37.4114 18.663 36.8682 18.1198 36.2005 18.1198H32.2734C31.6056 18.1198 31.0624 18.663 31.0624 19.3307V20.6693C31.0624 21.337 31.6056 21.8802 32.2734 21.8802H32.3567V23.6135C31.6334 23.8639 30.975 24.254 30.4142 24.7523C29.9726 24.6459 29.5188 24.5912 29.0602 24.5912H27.7673C27.7667 24.5912 27.7661 24.5911 27.7655 24.5911C27.7649 24.5911 27.7643 24.5912 27.7637 24.5912H25.7631V21.5755C27.2006 20.3965 28.1654 18.662 28.3271 16.7031H29.06C30.0968 16.7031 30.9402 15.8597 30.9402 14.8229V12.2343C30.9402 11.9357 30.8706 11.648 30.7399 11.389C31.0729 10.9648 31.2081 10.4225 31.1103 9.88992C31.008 9.3343 30.6658 8.85805 30.1711 8.58328C29.8281 8.39273 29.4369 8.19508 28.9988 8.00039V4.46883C28.9988 3.27516 28.534 2.15297 27.6899 1.30891C26.8461 0.464844 25.7239 0 24.5303 0H18.0588C15.5948 0 13.5901 2.00469 13.5901 4.46875V8.00031C13.152 8.195 12.7607 8.39273 12.4178 8.58328C11.9231 8.85805 11.5809 9.3343 11.4787 9.88992C11.3805 10.4237 11.5165 10.9672 11.849 11.3891C11.7184 11.6481 11.6488 11.9358 11.6488 12.2344V14.823C11.6488 15.8598 12.4922 16.7032 13.5289 16.7032H14.2618C14.4235 18.662 15.3884 20.3964 16.8257 21.5754V24.5912H14.8246C14.824 24.5912 14.8235 24.5911 14.8228 24.5911C14.8222 24.5911 14.8217 24.5912 14.821 24.5912H13.5281C13.1603 24.5912 12.7963 24.6267 12.4397 24.695L12.9968 24.0141C13.3997 23.5217 13.3642 22.8112 12.9144 22.3613L11.9557 21.4027C11.475 20.9219 10.6927 20.9218 10.2119 21.4027L6.13174 25.4828C4.90643 26.7081 4.86158 28.7105 6.03174 29.9466C6.50322 30.4447 7.1058 30.7687 7.76549 30.888V38.1198C7.76549 39.1566 8.60893 40 9.64564 40H12.742C13.0656 40 13.3279 39.7377 13.3279 39.4141C13.3279 39.0905 13.0656 38.8281 12.742 38.8281H9.64564C9.2551 38.8281 8.93736 38.5104 8.93736 38.1198V30.8838C9.55674 30.7664 10.1263 30.4671 10.5831 30.0103C11.4672 29.1262 11.7502 27.8 11.3041 26.6316C11.2711 26.5452 11.2574 26.4532 11.262 26.3612C11.9506 25.9695 12.7288 25.763 13.5282 25.763H14.262C14.4602 28.1745 15.8726 30.3165 18.049 31.4453C18.2288 31.5386 18.4248 31.5845 18.6197 31.5845C18.8929 31.5845 19.1641 31.4944 19.386 31.3187L19.4141 31.2964V38.8281H15.0858C14.7622 38.8281 14.4999 39.0905 14.4999 39.4141C14.4999 39.7377 14.7622 40 15.0858 40H32.9428C33.9796 40 34.8231 39.1566 34.8231 38.1198V34.7933C37.7265 34.4987 39.9999 32.0398 39.9999 29.0599ZM9.7544 29.1817C9.36885 29.5673 8.85705 29.775 8.31072 29.768C7.76557 29.7605 7.25846 29.5379 6.88283 29.1411C6.14494 28.3616 6.17971 27.0922 6.96041 26.3115L11.0406 22.2312C11.0526 22.2192 11.0683 22.2133 11.0839 22.2133C11.0996 22.2133 11.1153 22.2192 11.1272 22.2312L12.0859 23.1898C12.1082 23.2122 12.1099 23.2474 12.0899 23.2719L10.526 25.1834C10.3735 25.3697 10.2607 25.5792 10.1876 25.7994C10.1856 25.8051 10.1835 25.8107 10.1818 25.8164C10.0529 26.217 10.0575 26.6523 10.2093 27.0497C10.4908 27.787 10.3123 28.6238 9.7544 29.1817ZM32.2344 20.6693V19.3307C32.2344 19.3091 32.252 19.2916 32.2735 19.2916H36.2006C36.222 19.2916 36.2396 19.3091 36.2396 19.3307V20.6693C36.2396 20.6909 36.222 20.7084 36.2006 20.7084H35.5313H32.9428H32.2735C32.252 20.7084 32.2344 20.6909 32.2344 20.6693ZM33.5287 21.8802H34.9454V23.342C34.7131 23.3134 34.477 23.297 34.237 23.297C33.9971 23.297 33.7611 23.3134 33.5288 23.342V21.8802H33.5287ZM22.6932 29.4203C24.2949 28.891 25.4977 27.4792 25.7237 25.763H27.1505C26.9557 27.7344 25.7862 29.4787 24.0001 30.4051C23.9768 30.417 23.9496 30.4152 23.9303 30.4L22.6932 29.4203ZM29.7685 14.8229C29.7685 15.2135 29.4508 15.5312 29.0602 15.5312H28.3519V11.8773C28.3535 11.8782 28.3553 11.8791 28.357 11.88C28.7931 12.1219 29.2904 12.1722 29.7442 12.0517C29.7599 12.1106 29.7687 12.1717 29.7687 12.2343V14.8229H29.7685ZM24.5303 1.17188C25.4109 1.17188 26.2388 1.51484 26.8616 2.1375C27.4843 2.76016 27.8271 3.58812 27.8271 4.46875V7.53438C27.208 7.31531 26.5206 7.11273 25.7633 6.94453V4.46875C25.7633 3.16469 25.2016 1.98953 24.3078 1.17188H24.5303ZM17.9977 6.72281V4.46875C17.9977 2.65086 19.4767 1.17188 21.2946 1.17188C23.1125 1.17188 24.5914 2.65086 24.5914 4.46875V6.72281C23.594 6.56578 22.4956 6.47133 21.2946 6.47133C20.0935 6.47133 18.9951 6.56578 17.9977 6.72281ZM14.762 4.46875C14.762 2.65086 16.241 1.17188 18.0588 1.17188H18.2813C17.3874 1.98953 16.8258 3.16469 16.8258 4.46875L16.8259 6.94445C16.0686 7.11266 15.3812 7.31523 14.7621 7.5343L14.762 4.46875ZM12.6313 10.1019C12.6699 9.89188 12.7995 9.71172 12.9869 9.60766C14.6001 8.71148 17.351 7.6432 21.2946 7.6432C25.2383 7.6432 27.9891 8.71148 29.6023 9.60766C29.7896 9.7118 29.9193 9.89195 29.9579 10.1019C29.9962 10.3102 29.9399 10.5228 29.7998 10.6892L29.7938 10.6964C29.583 10.9506 29.2178 11.0173 28.9255 10.8552C27.7169 10.1847 25.1185 9.05984 21.2946 9.05984C17.4709 9.05984 14.8724 10.1847 13.6638 10.8552C13.3715 11.0173 13.0063 10.9505 12.7953 10.696L12.786 10.6849C12.6493 10.5228 12.5929 10.3103 12.6313 10.1019ZM12.8206 14.823V12.2344C12.8206 12.1719 12.8294 12.1109 12.845 12.0521C13.0014 12.0936 13.1629 12.1152 13.3253 12.1152C13.6343 12.1152 13.9465 12.0386 14.2323 11.8801C14.2339 11.8791 14.2357 11.8782 14.2374 11.8773L14.2374 15.5314H13.529C13.1384 15.5313 12.8206 15.2135 12.8206 14.823ZM15.4092 16.1174L15.4092 11.3191C16.7188 10.7823 18.6952 10.2317 21.2946 10.2317C23.894 10.2317 25.8703 10.7823 27.1799 11.3191V16.1174C27.1799 19.3627 24.5398 22.0028 21.2946 22.0028C18.0494 22.0028 15.4092 19.3627 15.4092 16.1174ZM21.2946 23.1747C22.4848 23.1747 23.6068 22.8781 24.5914 22.3556V25.1559C24.5912 25.163 24.5903 25.1699 24.5903 25.1771C24.5903 25.1819 24.591 25.1864 24.591 25.1912C24.5833 27.0026 23.1077 28.4739 21.2945 28.4739C19.4785 28.4739 18.0009 26.998 17.9978 25.1827C17.9978 25.1808 17.9981 25.179 17.9981 25.1772C17.9981 25.1739 17.9977 25.1707 17.9977 25.1673V22.3556C18.9823 22.878 20.1044 23.1747 21.2946 23.1747ZM18.6584 30.4C18.6392 30.4152 18.6117 30.4172 18.5886 30.4051C16.8025 29.4787 15.6329 27.7345 15.4381 25.763H16.8656C17.0915 27.4791 18.2941 28.8907 19.8956 29.4202L18.6584 30.4ZM20.586 30.3683L21.2942 29.8073L22.0027 30.3684V38.8281H20.586V30.3683ZM34.237 33.651C33.2242 33.651 32.2642 33.328 31.4606 32.7168C31.203 32.5209 30.8353 32.5709 30.6395 32.8284C30.4435 33.086 30.4936 33.4536 30.7512 33.6495C31.604 34.2981 32.597 34.6872 33.6512 34.7927V38.1198C33.6512 38.5105 33.3335 38.8282 32.9428 38.8282H23.1745V31.2964L23.2026 31.3187C23.4245 31.4944 23.6956 31.5845 23.9689 31.5845C24.1638 31.5845 24.3598 31.5387 24.5396 31.4454C26.716 30.3164 28.1284 28.1745 28.3266 25.763H29.0602C29.2073 25.763 29.3536 25.7707 29.499 25.7845C28.8535 26.7154 28.4739 27.8439 28.4739 29.06C28.4739 29.968 28.6792 30.837 29.0841 31.6432C29.2292 31.9324 29.5815 32.0489 29.8706 31.9038C30.1598 31.7586 30.2765 31.4064 30.1313 31.1173C29.8092 30.4759 29.6458 29.7837 29.6458 29.06C29.6458 26.5284 31.7053 24.4688 34.237 24.4688C36.7686 24.4688 38.8281 26.5284 38.8281 29.06C38.8281 31.5916 36.7685 33.651 34.237 33.651Z" fill="#0F3061"/>
<path d="M36.1785 28.474H34.823V26.4714C34.823 26.1478 34.5607 25.8855 34.2371 25.8855C33.9134 25.8855 33.6511 26.1478 33.6511 26.4714V29.06C33.6511 29.3835 33.9134 29.6459 34.2371 29.6459H36.1785C36.5022 29.6459 36.7645 29.3835 36.7645 29.06C36.7645 28.7363 36.5021 28.474 36.1785 28.474Z" fill="#0F3061"/>
<path d="M3.76047 27.7656C3.76047 27.442 3.49812 27.1797 3.17453 27.1797H0.585938C0.262344 27.1797 0 27.442 0 27.7656C0 28.0892 0.262344 28.3516 0.585938 28.3516H3.17453C3.49812 28.3516 3.76047 28.0892 3.76047 27.7656Z" fill="#0F3061"/>
<path d="M5.29673 32.4353L3.05501 33.7296C2.77478 33.8914 2.67876 34.2497 2.84056 34.5299C2.94908 34.7179 3.14603 34.823 3.34853 34.823C3.4479 34.823 3.54868 34.7977 3.64095 34.7444L5.88267 33.4502C6.1629 33.2884 6.25892 32.93 6.09712 32.6498C5.93533 32.3695 5.57697 32.2735 5.29673 32.4353Z" fill="#0F3061"/>
<path d="M3.05501 21.8017L5.29673 23.0959C5.389 23.1492 5.48978 23.1745 5.58915 23.1745C5.79165 23.1745 5.98861 23.0694 6.09712 22.8815C6.25892 22.6012 6.1629 22.2429 5.88267 22.0811L3.64095 20.7869C3.36064 20.6249 3.00236 20.7211 2.84056 21.0013C2.67876 21.2815 2.77478 21.6399 3.05501 21.8017Z" fill="#0F3061"/>
</svg>
