<svg width="50" height="50" viewBox="0 0 50 50" fill="none" xmlns="http://www.w3.org/2000/svg">
<g clip-path="url(#clip0_1008_10652)">
<path d="M35.3468 49.0234H8.24121V44.3917C8.24121 40.4112 11.468 37.1844 15.4484 37.1844H28.1395C32.12 37.1844 35.3468 40.4112 35.3468 44.3917V49.0234Z" fill="#8BCFD8"/>
<path d="M19.5127 33.7287H10.1998C8.13301 33.7287 6.45752 32.0532 6.45752 29.9864V16.3131C6.45752 7.84294 13.3239 0.976532 21.794 0.976532C30.2643 0.976532 37.1307 7.84294 37.1307 16.3131V29.9864C37.1307 32.0532 35.4552 33.7287 33.3884 33.7287H24.1503" fill="#8BCFD8"/>
<path d="M32.0435 15.5981C30.0557 15.5981 28.1802 14.6737 26.9652 13.0951L25.7673 11.5386L24.5693 13.0951C23.3544 14.6737 21.4788 15.5981 19.4911 15.5981H11.5444V26.3181C11.5444 28.8072 13.053 31.0462 15.3551 31.9736L19.7119 33.7288V37.1844H17.4503C17.4503 39.2556 19.1293 40.9346 21.2005 40.9346H22.3874C24.4586 40.9346 26.1376 39.2556 26.1376 37.1844H23.876V33.7288L28.2328 31.9736C30.5349 31.0462 32.0435 28.8073 32.0435 26.3182V15.5981Z" fill="#8BCFD8"/>
<path d="M21.7941 29.536C20.3511 29.536 19.1812 28.3662 19.1812 26.923V26.5121H24.407V26.923C24.407 28.3661 23.2372 29.536 21.7941 29.536Z" fill="#FAF7F5"/>
<path d="M43.5427 41.3262C43.5427 45.5772 40.0966 49.0234 35.8455 49.0234C31.5945 49.0234 28.1484 45.5773 28.1484 41.3262C28.1484 37.0753 31.5945 33.6292 35.8455 33.6292C40.0966 33.6292 43.5427 37.0753 43.5427 41.3262Z" fill="#FEC914"/>
<path d="M21.8116 50C21.4046 50 21.0315 49.736 20.8935 49.354C20.7552 48.9713 20.8764 48.5262 21.1926 48.2687C21.5186 48.0032 21.9866 47.9768 22.3404 48.2033C22.672 48.4155 22.8451 48.8199 22.7708 49.2065C22.6833 49.6607 22.275 50 21.8116 50Z" fill="#166780"/>
<path d="M28.0215 21.9166C27.7711 21.9166 27.5207 21.8209 27.3298 21.6294C27.1768 21.4757 26.9735 21.3912 26.7575 21.3912C26.5415 21.3912 26.3381 21.4757 26.1851 21.6294C25.8044 22.0113 25.1861 22.0125 24.8041 21.6317C24.422 21.251 24.421 20.6327 24.8017 20.2506C25.324 19.7266 26.0185 19.438 26.7575 19.438C27.4964 19.438 28.1911 19.7266 28.7132 20.2506C29.094 20.6327 29.0929 21.251 28.7109 21.6317C28.5203 21.8216 28.2709 21.9166 28.0215 21.9166Z" fill="#166780"/>
<path d="M18.095 21.9166C17.8445 21.9166 17.5942 21.8209 17.4033 21.6294C17.2503 21.4757 17.047 21.3912 16.831 21.3912C16.615 21.3912 16.4116 21.4757 16.2586 21.6294C15.8778 22.0113 15.2596 22.0125 14.8776 21.6317C14.4955 21.251 14.4944 20.6327 14.8752 20.2506C15.3975 19.7266 16.092 19.438 16.831 19.438C17.5699 19.438 18.2646 19.7266 18.7867 20.2506C19.1675 20.6327 19.1664 21.251 18.7844 21.6317C18.5938 21.8216 18.3444 21.9166 18.095 21.9166Z" fill="#166780"/>
<path d="M21.794 30.5126C19.8147 30.5126 18.2046 28.9023 18.2046 26.923V26.5122C18.2046 25.9728 18.6418 25.5356 19.1812 25.5356H24.407C24.9464 25.5356 25.3836 25.9728 25.3836 26.5122V26.923C25.3836 28.9023 23.7733 30.5126 21.794 30.5126ZM20.2585 27.4886C20.4893 28.113 21.0905 28.5593 21.794 28.5593C22.4977 28.5593 23.0989 28.113 23.3297 27.4886H20.2585Z" fill="#166780"/>
<path d="M33.7588 41.1593C33.2194 41.1593 32.7822 40.7221 32.7822 40.1828V39.3404C32.7822 38.801 33.2194 38.3638 33.7588 38.3638C34.2981 38.3638 34.7354 38.801 34.7354 39.3404V40.1828C34.7353 40.7221 34.298 41.1593 33.7588 41.1593Z" fill="#166780"/>
<path d="M37.9324 41.1593C37.393 41.1593 36.9558 40.7221 36.9558 40.1828V39.3404C36.9558 38.801 37.393 38.3638 37.9324 38.3638C38.4717 38.3638 38.9089 38.801 38.9089 39.3404V40.1828C38.9089 40.7221 38.4717 41.1593 37.9324 41.1593Z" fill="#166780"/>
<path d="M35.8457 45.4865C34.9783 45.4865 34.1109 45.1563 33.4506 44.496C33.0693 44.1146 33.0692 43.4963 33.4506 43.1149C33.8319 42.7336 34.4503 42.7335 34.8317 43.1149C35.3909 43.6741 36.3007 43.6741 36.86 43.1149C37.2413 42.7337 37.8597 42.7336 38.241 43.1149C38.6224 43.4963 38.6224 44.1146 38.241 44.496C37.5805 45.1563 36.7131 45.4865 35.8457 45.4865Z" fill="#166780"/>
<path d="M37.2047 32.7591C37.7722 31.9801 38.1072 31.0217 38.1072 29.9865V16.3131C38.1072 7.31804 30.7892 -3.05176e-05 21.794 -3.05176e-05C12.7989 -3.05176e-05 5.48096 7.31804 5.48096 16.3131V29.9864C5.48096 32.5883 7.59785 34.7052 10.1998 34.7052H18.7355V36.2078H15.4485C10.9359 36.2078 7.26465 39.8791 7.26465 44.3916V49.0234C7.26465 49.5628 7.70186 50 8.24121 50H17.3794C17.9188 50 18.356 49.5628 18.356 49.0234C18.356 48.4841 17.9188 48.0468 17.3794 48.0468H9.21787V44.3917C9.21787 40.956 12.013 38.161 15.4486 38.161H16.5755C17.0267 40.3004 18.929 41.9112 21.2007 41.9112H22.3876C24.6593 41.9112 26.5616 40.3004 27.0128 38.161H27.7698C27.3839 39.1421 27.1719 40.2099 27.1719 41.3263C27.1719 44.0336 28.4186 46.455 30.3681 48.0468H26.2088C25.6694 48.0468 25.2322 48.4841 25.2322 49.0234C25.2322 49.5628 25.6694 50 26.2088 50H35.8456C40.6283 50 44.5192 46.109 44.5192 41.3263C44.5192 37.0059 41.344 33.4132 37.2047 32.7591ZM10.1998 32.7521C8.6748 32.7521 7.43408 31.5114 7.43408 29.9864V16.3131C7.43408 8.39499 13.876 1.95309 21.7941 1.95309C29.7123 1.95309 36.1541 8.39499 36.1541 16.3131V29.9864C36.1541 31.5114 34.9134 32.7521 33.3884 32.7521H28.894C31.4111 31.6047 33.0201 29.1134 33.0201 26.3181V12.684C33.0201 12.1446 32.5829 11.7074 32.0436 11.7074C31.5042 11.7074 31.067 12.1446 31.067 12.684V14.5312C29.7601 14.2883 28.5606 13.5666 27.7392 12.4995L26.5412 10.943C26.3563 10.7029 26.0704 10.5621 25.7673 10.5621C25.4642 10.5621 25.1782 10.7029 24.9934 10.943L23.7955 12.4995C22.7728 13.8282 21.1637 14.6216 19.4911 14.6216H12.521V12.684C12.521 12.1446 12.0838 11.7074 11.5444 11.7074C11.0051 11.7074 10.5679 12.1446 10.5679 12.684V26.3181C10.5679 29.1135 12.1768 31.6048 14.6939 32.7522H10.1998V32.7521ZM22.3876 39.958H21.2007C20.0148 39.958 19.0005 39.2099 18.6046 38.1609H19.7122C20.2516 38.1609 20.6888 37.7237 20.6888 37.1843V33.7287C20.6888 33.3302 20.4467 32.9717 20.0771 32.8229L15.7203 31.0677C13.777 30.2848 12.5213 28.4206 12.5213 26.3181V16.5748H19.4914C21.7659 16.5748 23.9536 15.4966 25.3436 13.6908L25.7676 13.1398L26.1916 13.6908C27.3811 15.2362 29.1548 16.2486 31.0672 16.5086V26.3182C31.0672 28.4206 29.8115 30.2849 27.8682 31.0678L23.5113 32.823C23.1417 32.9718 22.8997 33.3303 22.8997 33.7288V37.1844C22.8997 37.7238 23.3369 38.161 23.8763 38.161H24.9839C24.5878 39.21 23.5734 39.958 22.3876 39.958ZM28.1397 36.2079H24.8526V34.7053H30.2483C29.7154 35.1565 29.2375 35.6709 28.8262 36.2365C28.5981 36.2175 28.3684 36.2079 28.1397 36.2079ZM35.8456 48.0468C32.1398 48.0468 29.1251 45.032 29.1251 41.3263C29.1251 37.6206 32.1399 34.6058 35.8456 34.6058C39.5513 34.6058 42.5661 37.6207 42.5661 41.3263C42.5661 45.032 39.5513 48.0468 35.8456 48.0468Z" fill="#166780"/>
</g>
<defs>
<clipPath id="clip0_1008_10652">
<rect width="50" height="50" fill="white"/>
</clipPath>
</defs>
</svg>
