<svg width="44" height="44" viewBox="0 0 44 44" fill="none" xmlns="http://www.w3.org/2000/svg">
<g clip-path="url(#clip0_1008_11017)">
<path d="M19.1788 25.9917C17.9089 25.9917 16.8794 24.9622 16.8794 23.6923V23.3306H21.4782V23.6923C21.4782 24.9621 20.4487 25.9917 19.1788 25.9917Z" fill="#FAF7F5"/>
<path d="M38.3174 36.3671C38.3174 40.108 35.2849 43.1406 31.5439 43.1406C27.8031 43.1406 24.7705 40.1081 24.7705 36.3671C24.7705 32.6263 27.8031 29.5937 31.5439 29.5937C35.2849 29.5937 38.3174 32.6263 38.3174 36.3671Z" fill="#FEC914"/>
<path d="M19.1942 44C18.836 44 18.5076 43.7677 18.3862 43.4315C18.2645 43.0947 18.3712 42.7031 18.6494 42.4765C18.9363 42.2428 19.3482 42.2196 19.6595 42.4189C19.9513 42.6057 20.1037 42.9615 20.0383 43.3018C19.9613 43.7014 19.602 44 19.1942 44Z" fill="#166780"/>
<path d="M24.6591 19.2866C24.4387 19.2866 24.2183 19.2024 24.0504 19.0339C23.9157 18.8987 23.7368 18.8243 23.5467 18.8243C23.3566 18.8243 23.1777 18.8987 23.043 19.0339C22.708 19.37 22.1639 19.371 21.8277 19.0359C21.4915 18.701 21.4906 18.1568 21.8256 17.8206C22.2852 17.3595 22.8964 17.1055 23.5467 17.1055C24.197 17.1055 24.8083 17.3595 25.2678 17.8206C25.6029 18.1568 25.6019 18.701 25.2657 19.0359C25.098 19.2031 24.8785 19.2866 24.6591 19.2866Z" fill="#166780"/>
<path d="M15.9237 19.2866C15.7033 19.2866 15.483 19.2024 15.315 19.0339C15.1804 18.8987 15.0015 18.8243 14.8114 18.8243C14.6213 18.8243 14.4423 18.8987 14.3077 19.0339C13.9726 19.37 13.4285 19.371 13.0924 19.0359C12.7562 18.701 12.7552 18.1568 13.0903 17.8206C13.5499 17.3595 14.1611 17.1055 14.8114 17.1055C15.4617 17.1055 16.0729 17.3595 16.5324 17.8206C16.8675 18.1568 16.8666 18.701 16.5304 19.0359C16.3626 19.2031 16.1431 19.2866 15.9237 19.2866Z" fill="#166780"/>
<path d="M19.1787 26.8511C17.437 26.8511 16.02 25.4341 16.02 23.6923V23.3307C16.02 22.8561 16.4048 22.4714 16.8794 22.4714H21.4782C21.9528 22.4714 22.3375 22.8561 22.3375 23.3307V23.6923C22.3375 25.4341 20.9205 26.8511 19.1787 26.8511ZM17.8275 24.19C18.0305 24.7394 18.5596 25.1323 19.1787 25.1323C19.7979 25.1323 20.327 24.7394 20.5301 24.19H17.8275Z" fill="#166780"/>
<path d="M29.7078 36.2202C29.2331 36.2202 28.8484 35.8355 28.8484 35.3609V34.6196C28.8484 34.1449 29.2331 33.7602 29.7078 33.7602C30.1824 33.7602 30.5671 34.1449 30.5671 34.6196V35.3609C30.5671 35.8355 30.1823 36.2202 29.7078 36.2202Z" fill="#166780"/>
<path d="M33.3806 36.2202C32.906 36.2202 32.5212 35.8355 32.5212 35.3609V34.6196C32.5212 34.1449 32.906 33.7602 33.3806 33.7602C33.8552 33.7602 34.24 34.1449 34.24 34.6196V35.3609C34.24 35.8355 33.8552 36.2202 33.3806 36.2202Z" fill="#166780"/>
<path d="M31.5442 40.0281C30.7809 40.0281 30.0176 39.7376 29.4365 39.1564C29.101 38.8209 29.1009 38.2767 29.4365 37.9411C29.7721 37.6055 30.3163 37.6054 30.6519 37.9411C31.144 38.4332 31.9446 38.4332 32.4368 37.9411C32.7724 37.6056 33.3165 37.6055 33.6521 37.9411C33.9877 38.2767 33.9877 38.8209 33.6521 39.1564C33.0708 39.7376 32.3075 40.0281 31.5442 40.0281Z" fill="#166780"/>
<path d="M32.7401 28.828C33.2395 28.1426 33.5344 27.2992 33.5344 26.3881V14.3555C33.5344 6.4399 27.0945 0 19.1788 0C11.2631 0 4.82324 6.4399 4.82324 14.3555V26.3881C4.82324 28.6778 6.68611 30.5406 8.97583 30.5406H16.4873V31.8629H13.5947C9.62363 31.8629 6.39289 35.0936 6.39289 39.0646V43.1406C6.39289 43.6153 6.77763 44 7.25227 44H15.2939C15.7685 44 16.1532 43.6153 16.1532 43.1406C16.1532 42.666 15.7685 42.2812 15.2939 42.2812H8.11173V39.0647C8.11173 36.0413 10.5714 33.5817 13.5948 33.5817H14.5864C14.9835 35.4643 16.6575 36.8819 18.6566 36.8819H19.7011C21.7002 36.8819 23.3742 35.4643 23.7713 33.5817H24.4374C24.0978 34.445 23.9113 35.3848 23.9113 36.3672C23.9113 38.7496 25.0083 40.8805 26.7239 42.2812H23.0637C22.5891 42.2812 22.2044 42.666 22.2044 43.1406C22.2044 43.6153 22.5891 44 23.0637 44H31.5441C35.7529 44 39.1769 40.5759 39.1769 36.3672C39.1769 32.5652 36.3828 29.4036 32.7401 28.828ZM8.97583 28.8219C7.63383 28.8219 6.54199 27.7301 6.54199 26.3881V14.3555C6.54199 7.38762 12.2109 1.71875 19.1788 1.71875C26.1468 1.71875 31.8156 7.38762 31.8156 14.3555V26.3881C31.8156 27.7301 30.7238 28.8219 29.3818 28.8219H25.4268C27.6418 27.8121 29.0577 25.6199 29.0577 23.16V11.1619C29.0577 10.6873 28.673 10.3025 28.1983 10.3025C27.7237 10.3025 27.339 10.6873 27.339 11.1619V12.7875C26.1889 12.5738 25.1333 11.9386 24.4105 10.9996L23.3563 9.6299C23.1936 9.41858 22.942 9.29466 22.6752 9.29466C22.4085 9.29466 22.1568 9.41858 21.9942 9.6299L20.94 10.9996C20.04 12.1688 18.624 12.867 17.1522 12.867H11.0185V11.1619C11.0185 10.6873 10.6337 10.3025 10.1591 10.3025C9.68447 10.3025 9.29973 10.6873 9.29973 11.1619V23.16C9.29973 25.6199 10.7155 27.8122 12.9307 28.822H8.97583V28.8219ZM19.7011 35.163H18.6566C17.6131 35.163 16.7204 34.5048 16.372 33.5816H17.3467C17.8214 33.5816 18.2061 33.1969 18.2061 32.7223V29.6813C18.2061 29.3306 17.9931 29.0152 17.6679 28.8842L13.8339 27.3396C12.1237 26.6507 11.0187 25.0101 11.0187 23.16V14.5858H17.1524C19.154 14.5858 21.0792 13.6371 22.3023 12.0479L22.6755 11.5631L23.0486 12.0479C24.0953 13.4079 25.6562 14.2988 27.3391 14.5276V23.1601C27.3391 25.0101 26.2341 26.6508 24.524 27.3397L20.69 28.8843C20.3647 29.0152 20.1517 29.3307 20.1517 29.6814V32.7223C20.1517 33.197 20.5365 33.5817 21.0111 33.5817H21.9858C21.6373 34.5049 20.7446 35.163 19.7011 35.163ZM24.7629 31.863H21.8703V30.5407H26.6185C26.1496 30.9378 25.729 31.3904 25.367 31.8881C25.1664 31.8714 24.9642 31.863 24.7629 31.863ZM31.5441 42.2812C28.2831 42.2812 25.6301 39.6282 25.6301 36.3672C25.6301 33.1061 28.2832 30.4532 31.5441 30.4532C34.8051 30.4532 37.4582 33.1062 37.4582 36.3672C37.4582 39.6282 34.8051 42.2812 31.5441 42.2812Z" fill="#166780"/>
</g>
<defs>
<clipPath id="clip0_1008_11017">
<rect width="44" height="44" fill="white"/>
</clipPath>
</defs>
</svg>
