<svg width="40" height="40" viewBox="0 0 40 40" fill="none" xmlns="http://www.w3.org/2000/svg">
<path d="M6.20801 0.689697H18.6216V4.82756H6.20801V0.689697Z" fill="#76ACE7"/>
<path d="M14.4836 10.3448H2.07007L6.20793 4.82764H18.6215L14.4836 10.3448Z" fill="#E0DEDA"/>
<path d="M2.07007 10.3446H14.4836V28.2753H2.07007V10.3446Z" fill="#E0DEDA"/>
<path d="M18.6217 4.82764L22.7596 10.3448H14.4839L18.6217 4.82764Z" fill="#E0DEDA"/>
<path d="M14.4839 10.3446H22.7596V28.2753H14.4839V10.3446Z" fill="#E0DEDA"/>
<path d="M2.07007 15.8616H14.4836V28.2752H2.07007V15.8616Z" fill="#A3C7EF"/>
<path d="M28.2767 17.241C21.3803 11.7239 17.2424 18.0434 17.2424 24.1375C17.2424 30.2315 22.7596 35.9735 28.2767 33.2149C33.7939 35.9735 39.311 30.2312 39.311 24.1375C39.311 18.0438 35.1732 11.7239 28.2767 17.241Z" fill="#F28369"/>
<path d="M32.0446 11.7239C33.3638 11.7239 34.4332 11.1064 34.4332 10.3446C34.4332 9.58286 33.3638 8.96533 32.0446 8.96533C30.7254 8.96533 29.656 9.58286 29.656 10.3446C29.656 11.1064 30.7254 11.7239 32.0446 11.7239Z" fill="#9EC645"/>
<path d="M11.3867 30.2048C10.2348 34.1788 11.1756 35.8878 16.4746 37.4236C21.7737 38.9595 37.1141 40.5336 37.882 37.884C38.6499 35.2343 24.8457 28.3614 19.5464 26.8255C14.2471 25.2896 12.5386 26.2304 11.3867 30.2048Z" fill="#F9CB8B"/>
<path d="M6.85558 26.0197C5.53078 25.6357 1.55645 24.4838 0.78853 27.1334C0.0206124 29.7829 3.99494 30.935 5.31966 31.3187C0.577499 32.8164 1.1343 35.8499 3.78382 36.6178C6.43335 37.3857 11.0028 31.5298 11.0028 31.5298L11.7707 28.8802C11.7707 28.8802 11.0409 21.4885 8.39142 20.7205C5.74189 19.9525 3.64917 22.2183 6.85558 26.0197Z" fill="#C1D776"/>
<path d="M32.0445 12.4135C32.6494 12.4122 33.2433 12.2524 33.7672 11.95C34.291 11.6476 34.7265 11.2132 35.0301 10.69C35.0908 10.585 35.1228 10.4659 35.1228 10.3446C35.1228 10.2233 35.0908 10.1041 35.0301 9.99916C34.7275 9.47513 34.2923 9.03999 33.7682 8.73745C33.2441 8.43491 32.6497 8.27563 32.0446 8.27563C31.4394 8.27563 30.845 8.43491 30.3209 8.73745C29.7969 9.03999 29.3617 9.47513 29.0591 9.99916C28.9983 10.1041 28.9663 10.2233 28.9663 10.3446C28.9663 10.4659 28.9983 10.585 29.0591 10.69C29.3627 11.2131 29.7981 11.6476 30.3219 11.95C30.8457 12.2524 31.4397 12.4122 32.0445 12.4135ZM32.0445 9.65494C32.3353 9.6556 32.6227 9.71733 32.8882 9.83613C33.1536 9.95493 33.3911 10.1282 33.5854 10.3446C33.3916 10.5615 33.1541 10.7351 32.8886 10.854C32.6231 10.9728 32.3355 11.0342 32.0446 11.0342C31.7537 11.0342 31.466 10.9728 31.2005 10.854C30.935 10.7351 30.6976 10.5615 30.5038 10.3446C30.698 10.1282 30.9355 9.95494 31.2009 9.83614C31.4663 9.71734 31.7537 9.65561 32.0445 9.65494Z" fill="#0F3061"/>
<path d="M36.5235 34.7212C36.0704 34.3496 35.5354 33.9531 34.9287 33.5386C37.9254 31.7524 40.0006 28.0022 40.0006 24.1375C40.0006 20.6345 38.6202 16.4364 35.5365 14.9542C34.2612 14.3413 32.2991 14.0232 29.7225 15.4353C29.5993 14.2038 29.2251 13.1743 28.8728 12.2076C28.2072 10.3815 27.6815 8.93907 28.8934 6.51523L27.6598 5.89835C26.1823 8.85347 26.8912 10.7987 27.5769 12.68C27.9756 13.7739 28.3819 14.89 28.3786 16.2961C28.3441 16.321 28.3108 16.3445 28.2764 16.37C26.3835 14.9619 24.7674 14.4667 23.4489 14.4363V10.3446C23.4482 10.1956 23.3998 10.0506 23.311 9.93086L19.3113 4.59768V0.689643C19.3113 0.506738 19.2386 0.331325 19.1093 0.201992C18.9799 0.0726586 18.8045 0 18.6216 0H6.20803C6.02513 0 5.84971 0.0726586 5.72038 0.201992C5.59105 0.331325 5.51839 0.506738 5.51839 0.689643V4.59768L1.51846 9.93086C1.42963 10.0506 1.38132 10.1956 1.38053 10.3446V25.2708C0.762827 25.6452 0.313476 26.2436 0.126153 26.9412C-0.165135 27.9462 -0.0934126 29.4066 1.90267 30.6596C2.36623 30.9441 2.8537 31.1876 3.35955 31.3875C1.31536 32.4988 1.07062 33.8616 1.07795 34.4796C1.09303 35.7426 2.07974 36.8416 3.5917 37.28C3.81642 37.3442 4.04911 37.3761 4.28281 37.3749C5.52546 37.3749 7.05957 36.5343 8.85592 34.8663C9.39634 34.3646 9.89038 33.8537 10.3042 33.4024C10.3517 33.7856 10.4541 34.16 10.6083 34.514C11.1432 35.7295 12.2602 36.6184 14.23 37.3973L14.7372 36.1146C11.7128 34.9187 11.1098 33.6361 12.0488 30.3961C12.6026 28.4855 13.2422 27.4938 14.1876 27.08C15.2237 26.6264 16.8169 26.752 19.3542 27.4872C19.5618 27.5475 19.7826 27.6165 20.013 27.6917L18.2889 33.6407L19.6136 34.0247L21.3157 28.1517C24.0283 29.1705 27.624 30.8487 30.6531 32.5387C31.3898 32.9497 32.0467 33.335 32.6334 33.6956L31.9205 36.1563L33.2452 36.5403L33.845 34.4714C36.7156 36.3882 37.294 37.4357 37.2196 37.6924C37.2164 37.7034 36.7241 38.7872 30.4012 38.599C28.8942 38.5542 27.2341 38.439 25.5637 38.2701L26.2374 35.9455L24.9127 35.5615L24.172 38.1171C22.2382 37.8877 20.3445 37.5919 18.7143 37.255L18.4353 38.6057C21.9299 39.3275 26.6108 39.866 30.3603 39.9774C30.8754 39.9927 31.3573 40 31.8092 40C37.3105 40 38.2999 38.9196 38.5443 38.0761C38.8155 37.1406 38.173 36.0746 36.5235 34.7212ZM21.3802 9.65501H15.863L18.6216 5.97688L21.3802 9.65501ZM6.89768 1.37929H17.932V4.13786H6.89768V1.37929ZM6.55285 5.51715H17.2423L14.1389 9.65501H3.44946L6.55285 5.51715ZM2.75981 11.0343H13.7941V15.1722H2.75981V11.0343ZM10.3776 31.2088C8.58385 33.4736 5.46873 36.3878 3.97574 35.9552C3.06093 35.6902 2.46491 35.1044 2.45723 34.4631C2.44861 33.7323 3.25032 32.6952 5.52735 31.9762C5.66848 31.9316 5.79151 31.8428 5.87827 31.7228C5.96503 31.6029 6.01091 31.4583 6.00913 31.3103C6.00735 31.1623 5.95801 31.0188 5.8684 30.901C5.77878 30.7832 5.65365 30.6974 5.51149 30.6562C2.39163 29.7518 1.06329 28.6623 1.45122 27.3252C1.6819 26.5292 2.37939 26.1325 3.56446 26.1325C4.37005 26.1325 5.40115 26.3159 6.66389 26.6819C6.80605 26.7231 6.9577 26.7174 7.09642 26.6658C7.23515 26.6142 7.35357 26.5193 7.43421 26.3952C7.51484 26.271 7.55339 26.1243 7.54417 25.9765C7.53496 25.8288 7.47845 25.688 7.38301 25.5748C5.84321 23.7496 5.72011 22.4445 6.11829 21.8317C6.46768 21.2939 7.28456 21.1177 8.19938 21.3828C9.69237 21.8156 10.7661 25.944 11.0709 28.817L10.3776 31.2088ZM13.6347 25.8172C13.0696 26.0639 12.5716 26.442 12.1821 26.92C12.0739 26.3183 11.9297 25.6237 11.7416 24.9121C10.9938 22.0818 9.93133 20.4486 8.58368 20.0581C7.07164 19.6198 5.64994 20.021 4.96202 21.0803C4.62582 21.5982 4.10333 22.881 5.2365 24.9132C4.70205 24.8117 4.15978 24.7569 3.61583 24.7494H3.58997C3.3124 24.7484 3.03511 24.7673 2.76025 24.806V16.5514H13.7941V21.3789H15.1734V11.0343H22.0698V14.5803C21.7065 14.6672 21.3535 14.7925 21.0167 14.9542C17.933 16.4364 16.5527 20.6345 16.5527 24.1375C16.5533 24.5912 16.5819 25.0444 16.6384 25.4945C15.3975 25.3559 14.4378 25.4657 13.6347 25.8172ZM33.61 32.6792C32.9101 32.2425 32.1452 31.7921 31.3255 31.3344C27.4059 29.1476 22.5326 26.9724 19.7386 26.1627C19.1366 25.9882 18.5817 25.8459 18.067 25.7345C17.9781 25.2068 17.9329 24.6726 17.932 24.1375C17.932 20.5045 19.4462 17.2394 21.6142 16.1974C23.3527 15.3618 25.5074 15.9089 27.8458 17.7796C27.9475 17.8603 28.0701 17.9105 28.1992 17.9243C28.1018 18.3765 27.9748 18.8218 27.8188 19.2573C27.5408 19.1938 27.2789 19.0739 27.0492 18.9049C26.8196 18.736 26.6272 18.5215 26.484 18.275L25.29 18.9657C25.5928 19.4898 26.0282 19.9249 26.5524 20.2275C27.0767 20.53 27.6713 20.6893 28.2765 20.6893C28.8818 20.6893 29.4764 20.53 30.0006 20.2275C30.5249 19.9249 30.9602 19.4898 31.263 18.9657L30.0691 18.275C29.8943 18.5759 29.6466 18.8278 29.3488 19.0078C29.5399 18.3654 29.6675 17.7058 29.7298 17.0385C31.6726 15.778 33.4571 15.4848 34.9389 16.197C37.1071 17.2394 38.6213 20.5045 38.6213 24.1375C38.6213 27.7359 36.4884 31.3361 33.61 32.6794V32.6792Z" fill="#0F3061"/>
</svg>
