<svg width="72" height="72" viewBox="0 0 72 72" fill="none" xmlns="http://www.w3.org/2000/svg">
<circle cx="36" cy="36" r="36" fill="#F0E7D2"/>
<path d="M49.3468 57.0234H22.2412V52.3917C22.2412 48.4112 25.468 45.1845 29.4484 45.1845H42.1395C46.12 45.1845 49.3468 48.4112 49.3468 52.3917V57.0234Z" fill="#F0E7D2"/>
<path d="M33.5126 41.7287H24.1997C22.1329 41.7287 20.4574 40.0532 20.4574 37.9864V24.3131C20.4574 15.843 27.3238 8.97656 35.7939 8.97656C44.2642 8.97656 51.1306 15.843 51.1306 24.3131V37.9864C51.1306 40.0532 49.4551 41.7287 47.3883 41.7287H38.1502" fill="#F0E7D2"/>
<path d="M46.0435 23.5981C44.0557 23.5981 42.1802 22.6737 40.9652 21.0951L39.7673 19.5387L38.5693 21.0951C37.3544 22.6737 35.4788 23.5981 33.4911 23.5981H25.5444V34.3182C25.5444 36.8072 27.053 39.0462 29.3551 39.9736L33.7119 41.7288V45.1845H31.4503C31.4503 47.2557 33.1293 48.9347 35.2005 48.9347H36.3874C38.4586 48.9347 40.1376 47.2557 40.1376 45.1845H37.876V41.7288L42.2328 39.9736C44.5349 39.0462 46.0435 36.8073 46.0435 34.3183V23.5981Z" fill="#F0E7D2"/>
<path d="M35.794 37.536C34.351 37.536 33.1811 36.3662 33.1811 34.923V34.5121H38.4069V34.923C38.4069 36.3661 37.2371 37.536 35.794 37.536Z" fill="#FAF7F5"/>
<path d="M57.5426 49.3263C57.5426 53.5772 54.0965 57.0234 49.8454 57.0234C45.5944 57.0234 42.1483 53.5773 42.1483 49.3263C42.1483 45.0753 45.5944 41.6292 49.8454 41.6292C54.0965 41.6292 57.5426 45.0753 57.5426 49.3263Z" fill="#41B9D5"/>
<path d="M35.8115 58C35.4045 58 35.0313 57.736 34.8934 57.354C34.7551 56.9713 34.8763 56.5263 35.1925 56.2688C35.5185 56.0032 35.9865 55.9769 36.3403 56.2033C36.6719 56.4155 36.845 56.8199 36.7707 57.2065C36.6832 57.6607 36.2749 58 35.8115 58Z" fill="#021D45"/>
<path d="M42.0214 29.9166C41.7709 29.9166 41.5205 29.8209 41.3297 29.6294C41.1767 29.4758 40.9733 29.3912 40.7573 29.3912C40.5413 29.3912 40.338 29.4758 40.185 29.6294C39.8042 30.0113 39.1859 30.0125 38.8039 29.6317C38.4219 29.2511 38.4208 28.6327 38.8016 28.2507C39.3238 27.7267 40.0184 27.4381 40.7573 27.4381C41.4963 27.4381 42.1909 27.7267 42.7131 28.2507C43.0938 28.6327 43.0928 29.2511 42.7107 29.6317C42.5201 29.8217 42.2707 29.9166 42.0214 29.9166V29.9166Z" fill="#021D45"/>
<path d="M32.0949 29.9166C31.8444 29.9166 31.594 29.8209 31.4032 29.6294C31.2502 29.4758 31.0469 29.3912 30.8309 29.3912C30.6148 29.3912 30.4115 29.4758 30.2585 29.6294C29.8777 30.0113 29.2595 30.0125 28.8774 29.6317C28.4954 29.2511 28.4943 28.6327 28.8751 28.2507C29.3974 27.7267 30.0919 27.4381 30.8309 27.4381C31.5698 27.4381 32.2645 27.7267 32.7866 28.2507C33.1674 28.6327 33.1663 29.2511 32.7843 29.6317C32.5937 29.8217 32.3442 29.9166 32.0949 29.9166Z" fill="#021D45"/>
<path d="M35.7939 38.5126C33.8146 38.5126 32.2045 36.9023 32.2045 34.923V34.5122C32.2045 33.9729 32.6417 33.5356 33.1811 33.5356H38.4069C38.9463 33.5356 39.3835 33.9729 39.3835 34.5122V34.923C39.3835 36.9023 37.7732 38.5126 35.7939 38.5126V38.5126ZM34.2584 35.4887C34.4892 36.113 35.0904 36.5594 35.7939 36.5594C36.4976 36.5594 37.0988 36.113 37.3296 35.4887H34.2584Z" fill="#021D45"/>
<path d="M47.7587 49.1594C47.2193 49.1594 46.7821 48.7222 46.7821 48.1828V47.3404C46.7821 46.8011 47.2193 46.3639 47.7587 46.3639C48.298 46.3639 48.7353 46.8011 48.7353 47.3404V48.1828C48.7352 48.7222 48.2979 49.1594 47.7587 49.1594Z" fill="#021D45"/>
<path d="M51.9323 49.1594C51.393 49.1594 50.9558 48.7222 50.9558 48.1828V47.3404C50.9558 46.8011 51.393 46.3639 51.9323 46.3639C52.4717 46.3639 52.9089 46.8011 52.9089 47.3404V48.1828C52.9089 48.7222 52.4717 49.1594 51.9323 49.1594Z" fill="#021D45"/>
<path d="M49.8455 53.4865C48.9781 53.4865 48.1106 53.1563 47.4504 52.496C47.069 52.1146 47.0689 51.4963 47.4504 51.1149C47.8317 50.7336 48.4501 50.7335 48.8314 51.1149C49.3907 51.6741 50.3005 51.6741 50.8598 51.1149C51.2411 50.7337 51.8595 50.7336 52.2408 51.1149C52.6222 51.4963 52.6222 52.1146 52.2408 52.496C51.5803 53.1563 50.7129 53.4865 49.8455 53.4865V53.4865Z" fill="#021D45"/>
<path d="M51.2046 40.7591C51.7721 39.9802 52.1071 39.0218 52.1071 37.9865V24.3131C52.1071 15.3181 44.7891 8 35.7939 8C26.7988 8 19.4809 15.3181 19.4809 24.3131V37.9864C19.4809 40.5884 21.5978 42.7053 24.1997 42.7053H32.7354V44.2078H29.4484C24.9358 44.2078 21.2646 47.8791 21.2646 52.3916V57.0234C21.2646 57.5628 21.7018 58 22.2411 58H31.3793C31.9187 58 32.3559 57.5628 32.3559 57.0234C32.3559 56.4841 31.9187 56.0469 31.3793 56.0469H23.2178V52.3917C23.2178 48.9561 26.0129 46.161 29.4485 46.161H30.5754C31.0266 48.3004 32.9289 49.9112 35.2006 49.9112H36.3875C38.6592 49.9112 40.5615 48.3004 41.0127 46.161H41.7697C41.3838 47.1421 41.1718 48.21 41.1718 49.3264C41.1718 52.0336 42.4185 54.4551 44.368 56.0469H40.2087C39.6693 56.0469 39.2321 56.4841 39.2321 57.0234C39.2321 57.5628 39.6693 58 40.2087 58H49.8455C54.6282 58 58.5191 54.109 58.5191 49.3264C58.5191 45.006 55.3439 41.4132 51.2046 40.7591V40.7591ZM24.1997 40.7521C22.6747 40.7521 21.434 39.5114 21.434 37.9864V24.3131C21.434 16.395 27.8759 9.95312 35.794 9.95312C43.7122 9.95312 50.154 16.395 50.154 24.3131V37.9864C50.154 39.5114 48.9133 40.7521 47.3883 40.7521H42.8939C45.411 39.6047 47.02 37.1135 47.02 34.3182V20.684C47.02 20.1446 46.5828 19.7074 46.0435 19.7074C45.5041 19.7074 45.0669 20.1446 45.0669 20.684V22.5313C43.76 22.2884 42.5605 21.5666 41.7391 20.4995L40.5411 18.9431C40.3563 18.7029 40.0703 18.5621 39.7672 18.5621C39.4641 18.5621 39.1781 18.7029 38.9933 18.9431L37.7954 20.4995C36.7727 21.8282 35.1636 22.6216 33.491 22.6216H26.5209V20.684C26.5209 20.1446 26.0837 19.7074 25.5443 19.7074C25.005 19.7074 24.5678 20.1446 24.5678 20.684V34.3182C24.5678 37.1136 26.1767 39.6048 28.6938 40.7522H24.1997V40.7521ZM36.3875 47.958H35.2006C34.0147 47.958 33.0004 47.21 32.6045 46.1609H33.7121C34.2515 46.1609 34.6887 45.7237 34.6887 45.1844V41.7287C34.6887 41.3303 34.4466 40.9718 34.0771 40.8229L29.7202 39.0678C27.7769 38.2849 26.5212 36.4206 26.5212 34.3182V24.5748H33.4913C35.7658 24.5748 37.9535 23.4967 39.3435 21.6908L39.7675 21.1398L40.1915 21.6908C41.381 23.2362 43.1547 24.2486 45.0671 24.5086V34.3183C45.0671 36.4206 43.8114 38.285 41.8681 39.0679L37.5112 40.823C37.1416 40.9719 36.8996 41.3304 36.8996 41.7288V45.1845C36.8996 45.7238 37.3368 46.161 37.8762 46.161H38.9838C38.5877 47.2101 37.5733 47.958 36.3875 47.958ZM42.1396 44.2079H38.8525V42.7054H44.2482C43.7153 43.1565 43.2374 43.6709 42.8261 44.2365C42.598 44.2175 42.3683 44.2079 42.1396 44.2079V44.2079ZM49.8455 56.0469C46.1398 56.0469 43.125 53.032 43.125 49.3264C43.125 45.6206 46.1398 42.6059 49.8455 42.6059C53.5512 42.6059 56.566 45.6207 56.566 49.3264C56.566 53.032 53.5512 56.0469 49.8455 56.0469Z" fill="#021D45"/>
</svg>
