<svg width="40" height="40" viewBox="0 0 40 40" fill="none" xmlns="http://www.w3.org/2000/svg">
<g style="mix-blend-mode:luminosity" clip-path="url(#clip0_1240_30479)">
<path d="M31.9976 3.22412H8.00151C6.70666 3.22412 5.65698 4.2738 5.65698 5.56865V37.0351C5.65698 38.3299 6.70666 39.3796 8.00151 39.3796H31.9976C33.2925 39.3796 34.3421 38.3299 34.3421 37.0351V5.56865C34.3421 4.2738 33.2925 3.22412 31.9976 3.22412Z" fill="#A4E6FF"/>
<path d="M31.9978 37.9734H8.00244C7.38084 37.9734 6.7847 37.7265 6.34516 37.2869C5.90562 36.8474 5.65869 36.2512 5.65869 35.6296V37.0359C5.65869 37.6575 5.90562 38.2536 6.34516 38.6932C6.7847 39.1327 7.38084 39.3796 8.00244 39.3796H31.9978C32.6194 39.3796 33.2155 39.1327 33.655 38.6932C34.0946 38.2536 34.3415 37.6575 34.3415 37.0359V35.6296C34.3415 36.2512 34.0946 36.8474 33.655 37.2869C33.2155 37.7265 32.6194 37.9734 31.9978 37.9734Z" fill="#81DDFD"/>
<path d="M30.8016 5.83057H9.19771C8.75156 5.83057 8.38989 6.19224 8.38989 6.63838V35.9556C8.38989 36.4017 8.75156 36.7634 9.19771 36.7634H30.8016C31.2478 36.7634 31.6094 36.4017 31.6094 35.9556V6.63838C31.6094 6.19224 31.2478 5.83057 30.8016 5.83057Z" fill="#F9F7F8"/>
<path d="M30.8016 35.3571H9.19849C9.09234 35.3572 8.98721 35.3364 8.88911 35.2959C8.79101 35.2553 8.70187 35.1958 8.62677 35.1208C8.55168 35.0458 8.4921 34.9567 8.45146 34.8586C8.41081 34.7606 8.38989 34.6555 8.38989 34.5493V35.9556C8.38989 36.0617 8.41081 36.1668 8.45146 36.2649C8.4921 36.3629 8.55168 36.452 8.62677 36.5271C8.70187 36.6021 8.79101 36.6616 8.88911 36.7021C8.98721 36.7427 9.09234 36.7635 9.19849 36.7634H30.8016C30.9078 36.7635 31.0129 36.7427 31.111 36.7021C31.2091 36.6616 31.2982 36.6021 31.3733 36.5271C31.4484 36.452 31.508 36.3629 31.5486 36.2649C31.5893 36.1668 31.6102 36.0617 31.6102 35.9556V34.5493C31.6102 34.6555 31.5893 34.7606 31.5486 34.8586C31.508 34.9567 31.4484 35.0458 31.3733 35.1208C31.2982 35.1958 31.2091 35.2553 31.111 35.2959C31.0129 35.3364 30.9078 35.3572 30.8016 35.3571Z" fill="#EAEAEA"/>
<path d="M24.6462 3.22427V1.79224C24.6462 1.48144 24.5227 1.18336 24.303 0.963596C24.0832 0.743826 23.7851 0.620361 23.4743 0.620361H16.5259C16.2151 0.620361 15.917 0.743826 15.6972 0.963596C15.4775 1.18336 15.354 1.48144 15.354 1.79224V3.22427H24.6462Z" fill="#F7CC77"/>
<path d="M15.354 1.81787H24.6454V3.22412H15.354V1.81787Z" fill="#F9B96B"/>
<path d="M13.2852 3.22412H26.7141V5.83037H13.2852V3.22412Z" fill="#F9ED80"/>
<path d="M13.2852 4.42432H26.7141V5.83057H13.2852V4.42432Z" fill="#F7CC77"/>
<path d="M19.8375 11.9663C19.8832 11.9284 19.9407 11.9077 20 11.9077C20.0594 11.9077 20.1169 11.9284 20.1625 11.9663C20.7875 12.4858 23.0008 14.4929 23.0008 16.8882C23.0008 17.684 22.6847 18.4473 22.1219 19.01C21.5592 19.5728 20.7959 19.8889 20 19.8889C19.2042 19.8889 18.4409 19.5728 17.8782 19.01C17.3154 18.4473 16.9993 17.684 16.9993 16.8882C16.9993 14.4929 19.2118 12.4858 19.8375 11.9663Z" fill="#FF5C83"/>
<path d="M20 18.4874C19.3176 18.487 18.6557 18.2541 18.1234 17.827C17.5911 17.4 17.2202 16.8043 17.0719 16.1382C17.0244 16.3862 17.0001 16.638 16.9993 16.8905C16.9993 17.2846 17.0769 17.6748 17.2277 18.0389C17.3785 18.4029 17.5995 18.7338 17.8782 19.0124C18.1568 19.291 18.4876 19.5121 18.8517 19.6629C19.2158 19.8137 19.606 19.8913 20 19.8913C20.3941 19.8913 20.7843 19.8137 21.1484 19.6629C21.5125 19.5121 21.8433 19.291 22.1219 19.0124C22.4006 18.7338 22.6216 18.4029 22.7724 18.0389C22.9232 17.6748 23.0008 17.2846 23.0008 16.8905C23 16.638 22.9757 16.3862 22.9282 16.1382C22.7799 16.8043 22.409 17.4 21.8767 17.827C21.3444 18.2541 20.6825 18.487 20 18.4874Z" fill="#E5557F"/>
<path d="M19.8626 15.4006C20.1662 14.8047 20.1749 14.2006 19.8819 14.0513C19.589 13.9021 19.1053 14.2641 18.8017 14.86C18.4981 15.4559 18.4894 16.06 18.7824 16.2092C19.0753 16.3585 19.5589 15.9964 19.8626 15.4006Z" fill="#FFA4C7"/>
<path d="M32.0188 2.60859H25.2407V1.76094C25.2403 1.29403 25.0546 0.846374 24.7245 0.516224C24.3943 0.186073 23.9466 0.000413738 23.4797 0L16.5204 0C16.0535 0.000413738 15.6058 0.186073 15.2756 0.516224C14.9455 0.846374 14.7598 1.29403 14.7594 1.76094V2.60859H7.9813C7.20262 2.60963 6.45618 2.91963 5.90587 3.47053C5.35555 4.02143 5.04635 4.7682 5.04614 5.54688V37.0641C5.04697 37.8423 5.35645 38.5885 5.9067 39.1389C6.45694 39.6893 7.20303 39.999 7.9813 40H32.0188C32.7971 39.999 33.5432 39.6893 34.0934 39.1389C34.6437 38.5885 34.9531 37.8423 34.954 37.0641V5.54688C34.9537 4.7682 34.6445 4.02143 34.0942 3.47053C33.5439 2.91963 32.7975 2.60963 32.0188 2.60859ZM13.861 6.39297H26.1391V7.12109C26.1389 7.27664 26.077 7.42575 25.967 7.53574C25.857 7.64572 25.7079 7.70761 25.5524 7.70781H14.4477C14.2922 7.70761 14.143 7.64572 14.0331 7.53574C13.9231 7.42575 13.8612 7.27664 13.861 7.12109V6.39297ZM14.4477 8.88125H25.5524C26.0191 8.88063 26.4665 8.69501 26.7966 8.36508C27.1267 8.03514 27.3125 7.5878 27.3133 7.12109V6.39297H30.8204C30.8794 6.39317 30.9359 6.4167 30.9776 6.45841C31.0193 6.50012 31.0428 6.55664 31.043 6.61562V35.9828C31.0428 36.0417 31.0193 36.0982 30.9775 36.1398C30.9358 36.1813 30.8793 36.2047 30.8204 36.2047H9.17974C9.12082 36.2047 9.0643 36.1813 9.02257 36.1398C8.98084 36.0982 8.95729 36.0417 8.95708 35.9828V6.61562C8.95729 6.55664 8.98081 6.50012 9.02252 6.45841C9.06423 6.4167 9.12075 6.39317 9.17974 6.39297H12.6868V7.12109C12.6876 7.5878 12.8734 8.03514 13.2035 8.36508C13.5336 8.69501 13.981 8.88063 14.4477 8.88125ZM15.9321 1.76094C15.9319 1.68359 15.9469 1.60696 15.9764 1.53545C16.0059 1.46394 16.0492 1.39896 16.1039 1.34422C16.1585 1.28949 16.2235 1.2461 16.2949 1.21652C16.3664 1.18694 16.443 1.17177 16.5204 1.17188H23.4797C23.6353 1.17208 23.7844 1.23396 23.8944 1.34395C24.0044 1.45394 24.0662 1.60305 24.0665 1.75859V2.60859H15.9375L15.9321 1.76094ZM26.1391 3.78203V5.21953H13.861V3.78203H26.1391ZM33.7805 37.0633C33.7807 37.2948 33.7353 37.5242 33.6469 37.7382C33.5585 37.9522 33.4288 38.1467 33.2652 38.3106C33.1016 38.4744 32.9073 38.6045 32.6935 38.6933C32.4796 38.7821 32.2504 38.8279 32.0188 38.8281H7.9813C7.51419 38.8277 7.06633 38.642 6.73603 38.3117C6.40574 37.9814 6.21999 37.5335 6.21958 37.0664V5.54688C6.21999 5.07969 6.40571 4.63175 6.73598 4.30133C7.06626 3.97091 7.51412 3.785 7.9813 3.78437H12.6868V5.22187H9.17974C8.80993 5.22229 8.45534 5.36916 8.19355 5.63036C7.93177 5.89156 7.7841 6.24582 7.78286 6.61562V35.9828C7.78348 36.353 7.93088 36.7079 8.19273 36.9696C8.45458 37.2313 8.80952 37.3785 9.17974 37.3789H30.8204C31.1906 37.3785 31.5455 37.2313 31.8074 36.9696C32.0692 36.7079 32.2166 36.353 32.2172 35.9828V6.61562C32.2166 6.24541 32.0692 5.89055 31.8074 5.62885C31.5455 5.36714 31.1906 5.21994 30.8204 5.21953H27.3133V3.78203H32.0188C32.4864 3.78265 32.9346 3.96889 33.2649 4.29982C33.5953 4.63074 33.7807 5.07929 33.7805 5.54688V37.0633Z" fill="black"/>
<path d="M20.0001 20.4805C20.953 20.4794 21.8664 20.1005 22.5402 19.4268C23.2139 18.753 23.5929 17.8395 23.5939 16.8867C23.5939 14.2453 21.2556 12.0977 20.5392 11.5024C20.3879 11.377 20.1975 11.3083 20.0009 11.3083C19.8044 11.3083 19.614 11.377 19.4626 11.5024C18.7462 12.0969 16.408 14.2445 16.408 16.8859C16.4088 17.8386 16.7874 18.7521 17.4609 19.4259C18.1343 20.0998 19.0475 20.479 20.0001 20.4805ZM20.0001 12.5852C22.2994 14.6 22.422 16.5125 22.422 16.882C22.4387 17.21 22.3885 17.538 22.2745 17.8459C22.1604 18.1539 21.985 18.4355 21.7587 18.6735C21.5325 18.9115 21.2602 19.1011 20.9584 19.2306C20.6566 19.3601 20.3317 19.4269 20.0033 19.4269C19.6749 19.4269 19.3499 19.3601 19.0481 19.2306C18.7463 19.1011 18.474 18.9115 18.2478 18.6735C18.0216 18.4355 17.8461 18.1539 17.7321 17.8459C17.618 17.538 17.5678 17.21 17.5845 16.882C17.5783 16.5125 17.7009 14.6 20.0001 12.5852Z" fill="black"/>
<path d="M11.465 24.1172C11.3624 24.2343 11.3103 24.3873 11.3203 24.5426C11.3303 24.698 11.4014 24.8431 11.5181 24.9461L12.708 25.9922C12.7668 26.0434 12.8351 26.0824 12.909 26.1071C12.983 26.1317 13.0611 26.1414 13.1388 26.1357C13.2166 26.1299 13.2924 26.1088 13.3619 26.0736C13.4314 26.0384 13.4933 25.9898 13.5439 25.9305L15.3127 23.8375C15.4132 23.7187 15.4623 23.5648 15.4494 23.4097C15.4364 23.2546 15.3624 23.1111 15.2435 23.0106C15.1247 22.9101 14.9708 22.8609 14.8157 22.8739C14.6606 22.8868 14.5171 22.9609 14.4166 23.0797L13.0338 24.7156L12.2939 24.0625C12.1767 23.9599 12.0236 23.908 11.8681 23.9182C11.7127 23.9285 11.5677 24.0001 11.465 24.1172Z" fill="black"/>
<path d="M17.8757 23.2766C17.8759 23.4322 17.9379 23.5815 18.0481 23.6915C18.1582 23.8015 18.3076 23.8633 18.4632 23.8633H28.0945C28.2446 23.8555 28.3861 23.7904 28.4897 23.6814C28.5932 23.5723 28.6509 23.4277 28.6509 23.2773C28.6509 23.127 28.5932 22.9823 28.4897 22.8733C28.3861 22.7643 28.2446 22.6992 28.0945 22.6914H18.4632C18.3078 22.6914 18.1587 22.753 18.0486 22.8627C17.9385 22.9723 17.8764 23.1212 17.8757 23.2766Z" fill="black"/>
<path d="M18.4634 26.3538H24.2892C24.3687 26.3579 24.4482 26.3458 24.5229 26.3182C24.5975 26.2906 24.6658 26.2481 24.7235 26.1933C24.7812 26.1385 24.8272 26.0725 24.8586 25.9994C24.89 25.9262 24.9062 25.8475 24.9062 25.7679C24.9062 25.6883 24.89 25.6095 24.8586 25.5364C24.8272 25.4632 24.7812 25.3972 24.7235 25.3424C24.6658 25.2876 24.5975 25.2451 24.5229 25.2175C24.4482 25.1899 24.3687 25.1778 24.2892 25.1819H18.4634C18.3839 25.1778 18.3044 25.1899 18.2298 25.2175C18.1551 25.2451 18.0868 25.2876 18.0291 25.3424C17.9714 25.3972 17.9254 25.4632 17.894 25.5364C17.8626 25.6095 17.8464 25.6883 17.8464 25.7679C17.8464 25.8475 17.8626 25.9262 17.894 25.9994C17.9254 26.0725 17.9714 26.1385 18.0291 26.1933C18.0868 26.2481 18.1551 26.2906 18.2298 26.3182C18.3044 26.3458 18.3839 26.3579 18.4634 26.3538Z" fill="black"/>
<path d="M15.243 29.2767C15.1842 29.2269 15.1161 29.1892 15.0428 29.1657C14.9694 29.1423 14.8921 29.1335 14.8153 29.14C14.7385 29.1465 14.6638 29.168 14.5953 29.2034C14.5269 29.2388 14.4661 29.2873 14.4164 29.3462L13.0336 30.9821L12.2938 30.3306C12.1769 30.2277 12.024 30.1755 11.8686 30.1854C11.7132 30.1952 11.5681 30.2664 11.4653 30.3833C11.3624 30.5002 11.3101 30.6531 11.32 30.8085C11.3299 30.9639 11.4011 31.109 11.518 31.2118L12.7078 32.2587C12.7667 32.3097 12.8351 32.3486 12.909 32.3731C12.9829 32.3976 13.061 32.4072 13.1386 32.4015C13.2163 32.3958 13.2921 32.3748 13.3616 32.3397C13.4311 32.3046 13.493 32.2561 13.5438 32.197L15.3125 30.104C15.3623 30.0451 15.4 29.977 15.4235 29.9036C15.447 29.8301 15.4557 29.7528 15.4493 29.6759C15.4428 29.5991 15.4213 29.5243 15.3859 29.4558C15.3505 29.3873 15.3019 29.3264 15.243 29.2767Z" fill="black"/>
<path d="M28.0947 28.9563H18.4634C18.3839 28.9522 18.3044 28.9644 18.2298 28.9919C18.1551 29.0195 18.0868 29.062 18.0291 29.1168C17.9714 29.1717 17.9254 29.2376 17.894 29.3108C17.8626 29.3839 17.8464 29.4627 17.8464 29.5423C17.8464 29.6219 17.8626 29.7006 17.894 29.7738C17.9254 29.8469 17.9714 29.9129 18.0291 29.9677C18.0868 30.0225 18.1551 30.065 18.2298 30.0926C18.3044 30.1202 18.3839 30.1323 18.4634 30.1282H28.0947C28.2448 30.1205 28.3863 30.0553 28.4898 29.9463C28.5934 29.8373 28.6511 29.6927 28.6511 29.5423C28.6511 29.3919 28.5934 29.2473 28.4898 29.1383C28.3863 29.0292 28.2448 28.9641 28.0947 28.9563Z" fill="black"/>
<path d="M24.2891 31.4461H18.4633C18.3828 31.4403 18.3019 31.451 18.2257 31.4778C18.1495 31.5046 18.0797 31.5468 18.0205 31.6018C17.9614 31.6568 17.9142 31.7234 17.8819 31.7974C17.8497 31.8714 17.833 31.9513 17.833 32.0321C17.833 32.1128 17.8497 32.1927 17.8819 32.2668C17.9142 32.3408 17.9614 32.4074 18.0205 32.4624C18.0797 32.5174 18.1495 32.5596 18.2257 32.5863C18.3019 32.6131 18.3828 32.6239 18.4633 32.618H24.2891C24.4371 32.6072 24.5755 32.5408 24.6766 32.4321C24.7776 32.3234 24.8338 32.1805 24.8338 32.0321C24.8338 31.8837 24.7776 31.7408 24.6766 31.6321C24.5755 31.5234 24.4371 31.457 24.2891 31.4461Z" fill="black"/>
</g>
<defs>
<clipPath id="clip0_1240_30479">
<rect width="40" height="40" fill="white"/>
</clipPath>
</defs>
</svg>
