<svg width="94" height="94" viewBox="0 0 94 94" fill="none" xmlns="http://www.w3.org/2000/svg">
<rect opacity="0.6" width="107" height="107" rx="53.5" transform="matrix(-1 -8.74228e-08 -8.74228e-08 1 107 -13)" fill="#41B9D5"/>
<g clip-path="url(#clip0_148_9545)">
<path d="M52 40.4285C56.9706 40.4285 61 36.3991 61 31.4285C61 26.458 56.9706 22.4285 52 22.4285C47.0294 22.4285 43 26.458 43 31.4285C43 36.3991 47.0294 40.4285 52 40.4285Z" fill="#FEC914"/>
<path d="M78.5882 24.0994C78.039 23.5502 77.1487 23.5502 76.5995 24.0994L75.25 25.4488V20.4062C75.25 19.6296 74.6204 19 73.8438 19C73.0672 19 72.4375 19.6296 72.4375 20.4062V25.4488L71.0881 24.0993C70.5389 23.5501 69.6486 23.5501 69.0994 24.0993C68.5502 24.6485 68.5502 25.5388 69.0994 26.088L72.8494 29.838C73.3986 30.3872 74.2889 30.3872 74.8381 29.838L78.5881 26.088C79.1373 25.5389 79.1373 24.6485 78.5882 24.0994V24.0994Z" fill="#FEC914"/>
<path d="M51.6245 44.5C50.8479 44.5 50.2183 45.1296 50.2183 45.9062V59.9687C50.2183 60.7453 50.8479 61.375 51.6245 61.375C52.4011 61.375 53.0308 60.7453 53.0308 59.9687V45.9062C53.0308 45.1296 52.4011 44.5 51.6245 44.5Z" fill="#166780"/>
<path d="M60.9135 42.625C58.1132 42.625 55.8433 44.895 55.8433 47.6953V55.7001C55.8433 58.3165 57.9643 60.4375 60.5806 60.4375C63.0445 60.4375 65.0969 58.5489 65.3016 56.0936L65.9664 48.1164C66.2127 45.1603 63.8799 42.625 60.9135 42.625V42.625ZM63.1635 47.8828L62.4988 55.86C62.4156 56.8576 61.5816 57.625 60.5805 57.625C59.5175 57.625 58.6557 56.7632 58.6557 55.7001V47.6953C58.6557 46.4483 59.6666 45.4375 60.9134 45.4375C62.2345 45.4375 63.2732 46.5664 63.1635 47.8828V47.8828Z" fill="#166780"/>
<path d="M42.3353 42.625C39.369 42.625 37.0362 45.1603 37.2825 48.1164L37.9473 56.0936C38.1519 58.5489 40.2045 60.4375 42.6683 60.4375C45.2846 60.4375 47.4056 58.3165 47.4056 55.7001V47.6953C47.4056 44.895 45.1356 42.625 42.3353 42.625V42.625ZM44.5931 55.7001C44.5931 56.7631 43.7314 57.625 42.6683 57.625C41.6672 57.625 40.8332 56.8576 40.75 55.8599L40.0853 47.8828C39.9756 46.5664 41.0143 45.4374 42.3353 45.4374C43.5822 45.4374 44.5931 46.4483 44.5931 47.6952V55.7001Z" fill="#166780"/>
<path d="M50.6301 32.838C51.1793 33.3872 52.0696 33.3872 52.6188 32.838C53.168 32.2888 53.168 31.3985 52.6188 30.8493L50.6301 28.8606C50.0809 28.3114 49.1906 28.3114 48.6414 28.8606C48.0922 29.4098 48.0922 30.3001 48.6414 30.8493L50.6301 32.838Z" fill="#166780"/>
<path d="M66.1554 30.4375H61.3674C60.6829 25.6734 56.575 22 51.6245 22C46.674 22 42.5661 25.6734 41.8816 30.4375H37.0936C35.3944 30.4375 33.7599 31.1546 32.6093 32.405C31.4588 33.6554 30.8798 35.3439 31.0209 37.0373L33.0522 61.4123C33.1795 62.9398 33.8708 64.3526 34.9988 65.3905C36.1267 66.4284 37.592 67 39.1248 67H64.1242C65.657 67 67.1223 66.4284 68.2503 65.3905C69.3782 64.3527 70.0695 62.9398 70.1969 61.4123L72.2281 37.0373C72.3693 35.344 71.7903 33.6555 70.6398 32.4051C69.4891 31.1547 67.8547 30.4375 66.1554 30.4375V30.4375ZM51.6245 24.8125C55.5015 24.8125 58.6557 27.9667 58.6557 31.8437C58.6557 35.7208 55.5015 38.875 51.6245 38.875C47.7475 38.875 44.5933 35.7208 44.5933 31.8437C44.5933 27.9667 47.7475 24.8125 51.6245 24.8125V24.8125ZM69.4253 36.8037L67.3941 61.1787C67.2535 62.8658 65.8172 64.1875 64.1242 64.1875H39.1248C37.4318 64.1875 35.9955 62.8658 35.8549 61.1787L33.8236 36.8038C33.7466 35.8784 34.0503 34.9927 34.6789 34.3094C35.3076 33.6263 36.1652 33.25 37.0936 33.25H41.8816C42.5661 38.0141 46.674 41.6875 51.6245 41.6875C56.575 41.6875 60.6829 38.0141 61.3674 33.25H66.1554C67.0838 33.25 67.9414 33.6263 68.57 34.3095C69.1987 34.9927 69.5023 35.8784 69.4253 36.8037V36.8037Z" fill="#166780"/>
</g>
<defs>
<clipPath id="clip0_148_9545">
<rect width="48" height="48" fill="white" transform="translate(31 19)"/>
</clipPath>
</defs>
</svg>
