<svg width="19" height="16" viewBox="0 0 19 16" fill="none" xmlns="http://www.w3.org/2000/svg">
<path d="M13.6245 0.661118C17.565 0.661118 22.9645 6.54455 9.20463 15.2522C-4.57856 6.52937 0.876482 0.661118 4.7854 0.661118C7.71976 0.661118 9.20463 3.10258 9.20463 3.10258C9.20463 3.10258 10.6895 0.661118 13.6245 0.661118Z" fill="#E83D62"/>
<path d="M7.81943 15.415C8.18993 15.7922 8.68254 16 9.2066 16C9.73065 16 10.2233 15.7922 10.5938 15.415L12.6934 13.2772C12.9876 12.9777 12.9876 12.492 12.6934 12.1926C12.3992 11.8931 11.9223 11.8931 11.6282 12.1926L9.52838 14.3303C9.44241 14.4179 9.32812 14.4661 9.2065 14.4661C9.08487 14.4661 8.97058 14.4179 8.88451 14.3303L2.5816 7.91272C1.88842 7.20694 1.50668 6.26862 1.50668 5.27048C1.50668 4.27234 1.88842 3.33402 2.5816 2.62823C4.01256 1.17136 6.34077 1.17136 7.77173 2.62823L8.67391 3.54682C8.96807 3.84633 9.44502 3.84633 9.73909 3.54682L10.6413 2.62823C11.3345 1.92245 12.256 1.53377 13.2362 1.53377C14.2165 1.53377 15.1382 1.92245 15.8313 2.62823C16.5244 3.33402 16.9062 4.27234 16.9062 5.27048C16.9062 6.26862 16.5245 7.20694 15.8313 7.91272L13.9945 9.78292C13.7003 10.0824 13.7003 10.5681 13.9945 10.8675C14.2886 11.167 14.7655 11.167 15.0597 10.8675L16.8965 8.99727C17.8742 8.00179 18.4126 6.67826 18.4126 5.27048C18.4126 3.86259 17.8742 2.53917 16.8964 1.54369C15.9187 0.548205 14.6188 0 13.2361 0C11.8535 0 10.5536 0.548205 9.57589 1.54369L9.2063 1.92L8.83671 1.54369C6.81843 -0.511392 3.5344 -0.511392 1.51612 1.54369C0.538415 2.53917 0 3.86269 0 5.27048C0 6.67826 0.538415 8.00179 1.51612 8.99727L7.81943 15.415Z" fill="#0F2F5F"/>
</svg>
