<svg width="222" height="234" viewBox="0 0 222 234" fill="none" xmlns="http://www.w3.org/2000/svg">
<path opacity="0.03" d="M208.773 115.14C207.533 76.87 190.817 45.7221 155.763 26.3411C119.541 6.30444 83.1375 8.12595 47.9551 30.221C46.6791 31.0224 45.3848 31.8421 44.1453 32.7164C40.5723 35.2848 36.7442 36.6509 33.9551 32.1882C31.5125 28.2537 33.0255 24.7746 36.7989 22.0423C50.7989 11.9511 66.1661 5.02937 83.174 1.98744C150.276 -9.99814 211.635 33.3722 220.713 101.187C229.609 167.582 182.013 224.158 119.924 232.136C57.4708 240.169 -0.00579834 196.252 -10.0136 135.304C-11.0891 128.747 -11.1438 122.025 -12.1282 115.45C-13.3677 107.053 -19.4564 101.661 -26.7845 102.626C-34.8418 103.683 -39.1256 108.674 -39.3626 116.798C-40.2012 145.359 -49.2793 170.769 -67.9824 192.609C-86.0475 213.721 -108.98 226.726 -136.141 231.426C-171.615 237.582 -203.462 228.548 -231.206 205.578C-257.748 183.593 -270.563 154.758 -272.915 120.86C-273.206 116.634 -272.733 112.317 -275.43 108.619C-278.985 103.737 -283.907 101.46 -289.722 102.754C-296.777 104.338 -300.459 109.73 -301.115 116.506C-302.1 126.433 -302.337 136.324 -304.925 146.161C-317.102 192.464 -356.058 225.888 -403.727 232.136C-471.923 241.08 -533.61 186.052 -533.884 120.022C-533.938 109.111 -539.699 102.499 -548.285 102.499C-557.217 102.499 -562.212 108.637 -562.449 119.876C-563.597 177.09 -607.238 224.213 -664.751 232.154C-726.275 240.643 -787.36 194.995 -794.488 131.279C-794.926 127.381 -795.564 123.501 -795.928 119.585C-796.402 114.703 -794.561 110.623 -789.457 110.349C-783.879 110.058 -783.077 114.612 -782.821 119.22C-781.29 147.654 -771.392 172.682 -750.137 191.935C-720.386 218.894 -685.551 227.4 -647.123 214.814C-608.751 202.245 -585.819 175.05 -577.251 135.65C-575.884 129.384 -575.574 123.082 -575.428 116.707C-575.082 101.861 -564.162 90.2399 -550.144 89.4567C-536.327 88.6734 -524.478 98.291 -521.98 112.499C-519.738 125.268 -520.157 138.364 -515.545 150.86C-498.829 196.107 -456.41 223.484 -409.962 220.023C-361.509 216.416 -322.152 179.276 -315.188 132.444C-314.259 126.16 -314.186 119.767 -313.347 113.464C-311.397 98.7646 -299.457 88.6552 -285.256 89.4385C-271.22 90.2035 -260.118 101.807 -259.917 116.634C-259.535 145.341 -249.654 170.332 -229.019 190.059C-198.868 218.876 -162.92 227.892 -123.217 214.504C-84.2793 201.371 -61.4928 173.265 -54.0006 132.809C-52.998 127.399 -52.597 122.025 -52.4329 116.561C-51.959 101.333 -40.5657 89.6571 -26.1282 89.4203C-11.472 89.1653 0.23114 100.276 0.996765 115.541C2.83789 152.682 17.2936 183.301 49.1947 203.52C84.2312 225.724 120.981 226.635 156.911 205.943C190.854 186.398 207.697 155.96 208.773 115.14Z" fill="#EFF5FA"/>
<path opacity="0.05" d="M105.268 209.859C54.2988 209.877 12.7545 169.64 11.6243 119.129C11.1139 96.1419 -3.59705 80.0397 -24.6335 79.3839C-45.7612 78.7464 -61.7664 94.8122 -62.8055 118.255C-64.519 156.58 -82.3835 184.722 -116.818 201.225C-175.753 229.44 -245.061 188.402 -249.345 123.392C-249.764 117.053 -249.764 110.659 -251.878 104.539C-257.839 87.344 -274.483 77.3256 -292.657 80.0033C-310.704 82.6627 -323.483 97.6538 -323.993 116.743C-325.05 157.837 -349.149 191.608 -386.829 204.85C-446.147 225.688 -509.511 182.245 -511.28 119.548C-511.936 95.9598 -522.709 83.5552 -546.152 79.5661C-550.29 78.8557 -554.428 78.2546 -553.79 72.7536C-553.152 67.2344 -548.741 67.6534 -544.73 67.7991C-520.303 68.6552 -499.413 90.0945 -499.558 116.998C-499.759 153.793 -470.756 192.864 -425.785 198.074C-382.8 203.047 -339.324 168.31 -336.298 125.122C-335.933 119.986 -335.769 114.812 -335.022 109.73C-331.194 83.6645 -309.647 66.3237 -283.142 67.7991C-258.332 69.1834 -238.753 90.2948 -238.207 116.288C-237.313 158.183 -207.855 192.118 -167.824 197.382C-117.548 203.976 -75.3471 167.29 -74.1622 115.942C-73.6153 92.5899 -58.9227 74.4112 -36.0997 68.892C-15.1909 63.8282 7.26758 74.2655 17.6582 93.7011C21.778 101.406 22.9265 109.712 23.4551 118.237C26.2806 162.809 54.791 192.937 99.1426 198.256C140.742 203.247 183.58 167.29 186.57 124.831C188.939 91.3331 176.525 64.5386 147.942 46.9427C119.413 29.3833 89.9187 30.203 61.0983 47.5256C57.3614 49.7661 53.2963 52.5894 50.1791 47.4163C47.1713 42.4254 51.2363 39.8388 54.9368 37.4162C111.064 0.603344 188.046 35.8497 197.544 102.736C205.71 160.004 162.762 209.841 105.268 209.859Z" fill="#EFF5FA"/>
<path opacity="0.07" d="M-156.667 188.11C-195.076 188.037 -226.54 157.6 -227.488 119.603C-228.363 84.6298 -248.761 61.9701 -283.834 57.2342C-288.173 56.6513 -293.368 56.9063 -292.675 50.8771C-291.964 44.6111 -286.951 44.1921 -281.574 44.9389C-241.178 50.4946 -215.748 78.5823 -214.545 119.184C-213.597 150.915 -188.204 175.159 -155.957 175.105C-124.256 175.05 -98.7169 150.696 -97.8055 119.603C-96.5476 76.9066 -70.1883 47.143 -27.8237 44.775C3.65811 43.0081 34.9576 62.5166 44.3639 100.732C45.7311 106.306 46.2779 112.007 46.3326 117.818C46.5878 146.762 70.3769 172.7 98.4863 175.013C130.406 177.636 157.13 157.782 162.89 127.326C167.338 103.829 159.481 84.4841 141.252 70.1852C121.656 54.8116 99.7624 53.0811 77.2858 64.6842C73.0201 66.8882 68.1712 70.7316 64.8717 64.3199C61.9186 58.5821 66.4941 55.7223 71.1061 53.2633C115.33 29.6746 167.757 56.7242 176.124 106.488C181.848 140.569 156.674 181.553 115.239 187.801C78.7259 193.301 41.9394 166.981 34.7571 129.913C33.0071 120.933 33.9732 111.861 31.7675 102.9C25.2415 76.4147 2.72842 57.3435 -26.6752 57.307C-54.7482 57.2888 -78.0086 78.4184 -83.4409 106.051C-85.5373 116.743 -84.1518 127.654 -87.8706 138.31C-98.3888 168.547 -124.803 188.165 -156.667 188.11Z" fill="#DBF4F2"/>
<path opacity="0.1" d="M155.273 116.525C155.273 143.064 134.473 164.467 107.767 165.414C82.0095 166.325 59.3689 146.106 58.2752 119.694C57.1267 91.7155 47.6658 68.309 25.0069 51.0775C11.6085 40.877 -3.61293 35.3578 -20.4749 34.7567C-25.0322 34.5927 -29.8994 34.2649 -29.6806 28.6364C-29.4619 22.425 -24.1572 22.5343 -19.3812 22.8257C30.7491 25.9041 67.9184 64.8481 69.4861 115.942C70.1059 136.452 84.9626 152.445 104.286 153.428C124.228 154.449 140.89 140.805 143.405 120.605C145.155 106.543 139.723 94.8849 128.33 86.5788C116.572 77.9995 103.702 77.198 90.4679 83.209C88.2804 84.2108 86.3481 85.7773 84.2152 86.9067C81.2439 88.4914 78.2361 88.5825 76.1033 85.6134C73.6606 82.2254 74.9184 79.2017 77.9809 76.9794C88.8273 69.1287 101.041 66.1778 114.184 68.2179C138.119 71.9338 155.254 92.2802 155.273 116.525Z" fill="#EFF5FA"/>
<path opacity="0.2" d="M80.1134 116.907C80.0223 101.461 91.6161 89.5297 106.71 89.5115C121.585 89.4933 133.543 101.807 133.434 116.98C133.324 130.969 120.837 143.301 106.491 143.611C92.1812 143.902 80.2046 131.771 80.1134 116.907ZM93.1109 116.962C93.202 124.849 99.2359 131.024 106.765 130.915C114.512 130.805 120.655 123.956 120.4 115.687C120.163 108.164 113.801 102.299 106.035 102.444C98.4885 102.59 93.0197 108.747 93.1109 116.962Z" fill="#F0E7D2"/>
</svg>
