<svg width="119" height="94" viewBox="0 0 119 94" fill="none" xmlns="http://www.w3.org/2000/svg">
<mask id="mask0_1454_16221" style="mask-type:alpha" maskUnits="userSpaceOnUse" x="0" y="0" width="119" height="94">
<rect width="119" height="94" transform="matrix(-1 0 0 1 119 0)" fill="#D9D9D9"/>
</mask>
<g mask="url(#mask0_1454_16221)">
<path opacity="0.03" d="M17.9139 47.1927C18.5289 28.2062 26.822 12.7532 44.2133 3.13801C62.1833 -6.80252 80.2438 -5.89884 97.6983 5.06286C98.3314 5.46049 98.9735 5.86714 99.5884 6.30091C101.361 7.57511 103.26 8.25287 104.644 6.03884C105.856 4.08688 105.105 2.36084 103.233 1.00532C96.2875 -4.0011 88.6635 -7.4351 80.2257 -8.94426C46.9354 -14.8905 16.494 6.62624 11.9902 40.2704C7.57681 73.2098 31.1902 101.278 61.9933 105.236C92.9774 109.222 121.493 87.4338 126.458 57.1965C126.991 53.9432 127.018 50.6086 127.507 47.3463C128.122 43.1803 131.142 40.5054 134.778 40.9844C138.775 41.5085 140.901 43.9846 141.018 48.015C141.434 62.1848 145.938 74.7912 155.217 85.6264C164.179 96.1001 175.556 102.552 189.032 104.884C206.631 107.938 222.43 103.456 236.195 92.0606C249.363 81.1532 255.721 66.8478 256.887 50.0302C257.032 47.9337 256.797 45.792 258.135 43.9575C259.899 41.5356 262.341 40.406 265.226 41.0476C268.726 41.8338 270.552 44.5087 270.878 47.8704C271.366 52.7955 271.484 57.7025 272.768 62.5824C278.81 85.5541 298.136 102.137 321.786 105.236C355.619 109.673 386.223 82.3731 386.358 49.6145C386.386 44.2015 389.243 40.9211 393.503 40.9211C397.934 40.9211 400.412 43.9665 400.53 49.5423C401.1 77.927 422.751 101.305 451.284 105.245C481.807 109.457 512.112 86.8102 515.649 55.1993C515.866 53.2654 516.182 51.3406 516.363 49.3977C516.598 46.9758 515.685 44.9515 513.153 44.816C510.385 44.6714 509.987 46.9306 509.861 49.2169C509.101 63.3235 504.19 75.7401 493.645 85.292C478.886 98.6666 461.603 102.887 442.539 96.6423C423.501 90.4069 412.124 76.9149 407.874 57.3682C407.195 54.2595 407.042 51.1327 406.969 47.9698C406.797 40.6048 401.38 34.8393 394.425 34.4507C387.57 34.0621 381.692 38.8336 380.453 45.8823C379.34 52.2172 379.548 58.7147 377.26 64.9139C368.967 87.3615 347.922 100.944 324.879 99.2269C300.84 97.4376 281.315 79.0114 277.86 55.7777C277.399 52.66 277.363 49.488 276.946 46.3613C275.979 39.0685 270.055 34.0531 263.01 34.4417C256.046 34.8212 250.539 40.5777 250.439 47.9337C250.249 62.1758 245.347 74.5743 235.11 84.3612C220.151 98.6575 202.317 103.131 182.62 96.4887C163.302 89.9731 151.997 76.0293 148.28 55.9584C147.783 53.2745 147.584 50.6086 147.503 47.8975C147.267 40.3427 141.615 34.5501 134.452 34.4326C127.181 34.3061 121.375 39.8186 120.995 47.3915C120.082 65.8176 112.91 81.0086 97.0833 91.0395C79.7011 102.055 61.4688 102.507 43.6435 92.2414C26.804 82.5448 18.4475 67.4443 17.9139 47.1927Z" fill="#166780"/>
<path opacity="0.05" d="M69.2647 94.1842C94.5512 94.1933 115.162 74.2309 115.723 49.1717C115.976 37.7672 123.274 29.7786 133.711 29.4533C144.193 29.137 152.133 37.1075 152.649 48.7379C153.499 67.7515 162.362 81.7134 179.445 89.9008C208.684 103.899 243.068 83.5388 245.194 51.2863C245.402 48.1415 245.402 44.9696 246.451 41.9332C249.408 33.4024 257.665 28.4321 266.682 29.7605C275.635 31.0799 281.975 38.5172 282.228 47.9879C282.753 68.375 294.709 85.1293 313.402 91.6991C342.831 102.037 374.267 80.4844 375.144 49.3795C375.47 37.6768 380.815 31.5227 392.445 29.5436C394.498 29.1912 396.551 28.893 396.234 26.1639C395.918 23.4257 393.729 23.6335 391.74 23.7058C379.621 24.1306 369.257 34.7669 369.329 48.1144C369.428 66.3688 355.04 85.7529 332.729 88.3374C311.403 90.8045 289.834 73.5712 288.333 52.1448C288.152 49.5964 288.07 47.03 287.7 44.5087C285.8 31.5769 275.111 22.9739 261.961 23.7058C249.652 24.3926 239.939 34.8664 239.668 47.7619C239.225 68.5467 224.61 85.3824 204.75 87.994C179.807 91.2653 158.871 73.0651 158.283 47.5902C158.012 36.005 150.722 26.9862 139.399 24.2481C129.026 21.7358 117.884 26.9139 112.729 36.5562C110.685 40.3788 110.116 44.4996 109.853 48.7289C108.451 70.8421 94.307 85.789 72.3034 88.4278C51.6655 90.9039 30.4126 73.0651 28.9294 52.0002C27.7537 35.3815 33.9125 22.0882 48.0932 13.3586C62.2468 4.64712 76.8796 5.05378 91.1778 13.6478C93.0318 14.7594 95.0486 16.1601 96.5951 13.5936C98.0873 11.1175 96.0706 9.83427 94.2346 8.63237C66.3888 -9.6311 28.1968 7.8552 23.485 41.0385C19.4333 69.4504 40.7405 94.1752 69.2647 94.1842Z" fill="#166780"/>
<path opacity="0.07" d="M199.215 83.3943C218.27 83.3582 233.88 68.2576 234.35 49.4067C234.784 32.056 244.904 20.8141 262.305 18.4645C264.457 18.1754 267.035 18.3019 266.691 15.3107C266.338 12.202 263.851 11.9942 261.183 12.3647C241.142 15.1209 228.526 29.0557 227.929 49.1989C227.459 64.9411 214.861 76.9691 198.862 76.942C183.135 76.9149 170.465 64.8326 170.013 49.4067C169.389 28.2243 156.311 13.4581 135.294 12.2833C119.675 11.4068 104.147 21.0852 99.4801 40.0445C98.8018 42.8098 98.5305 45.6384 98.5034 48.5211C98.3767 62.8807 86.5746 75.7491 72.629 76.8968C56.7933 78.1981 43.5351 68.348 40.6773 53.2383C38.4706 41.5808 42.3685 31.9837 51.4123 24.8897C61.1344 17.2626 71.996 16.4041 83.147 22.1606C85.2632 23.2541 87.6689 25.1608 89.3058 21.9799C90.7709 19.1333 88.5009 17.7145 86.2128 16.4945C64.2725 4.79178 38.2626 18.2115 34.1115 42.9002C31.2717 59.8081 43.7612 80.1411 64.3178 83.2407C82.4325 85.9698 100.683 72.9116 104.246 54.5216C105.114 50.0664 104.635 45.5661 105.729 41.1199C108.967 27.9803 120.136 18.5188 134.724 18.5007C148.651 18.4916 160.191 28.9744 162.886 42.6833C163.926 47.9879 163.239 53.401 165.084 58.6876C170.302 73.6887 183.407 83.4214 199.215 83.3943Z" fill="#708092"/>
<path opacity="0.1" d="M44.4564 47.8795C44.4564 61.0461 54.7754 71.6645 68.0245 72.1344C80.8034 72.5862 92.0358 62.5553 92.5784 49.4519C93.1482 35.5713 97.8419 23.9589 109.083 15.41C115.731 10.3494 123.282 7.61125 131.648 7.31303C133.909 7.2317 136.323 7.06903 136.215 4.27665C136.106 1.19508 133.475 1.2493 131.105 1.39389C106.235 2.92112 87.7943 22.2419 87.0165 47.5903C86.709 57.7658 79.3383 65.7001 69.7519 66.1881C59.858 66.6942 51.5919 59.9256 50.3439 49.9037C49.4757 42.9273 52.1707 37.1437 57.8231 33.0229C63.6564 28.7665 70.0413 28.3689 76.6071 31.3511C77.6923 31.8481 78.651 32.6253 79.7091 33.1855C81.1833 33.9717 82.6755 34.0169 83.7336 32.5439C84.9455 30.8631 84.3215 29.3629 82.8021 28.2605C77.421 24.3656 71.3617 22.9016 64.8411 23.9137C52.9666 25.7572 44.4654 35.8514 44.4564 47.8795Z" fill="#166780"/>
<path opacity="0.2" d="M81.7441 48.0693C81.7893 40.406 76.0374 34.4869 68.5492 34.4778C61.1694 34.4688 55.2367 40.5777 55.291 48.1054C55.3452 55.0457 61.5402 61.1637 68.6577 61.3173C75.7571 61.4619 81.6989 55.4433 81.7441 48.0693ZM75.2959 48.0964C75.2506 52.0093 72.2571 55.0728 68.522 55.0186C64.6784 54.9644 61.6307 51.5665 61.7573 47.4638C61.8749 43.7316 65.0311 40.8217 68.8838 40.894C72.6279 40.9663 75.3411 44.0208 75.2959 48.0964Z" fill="#166780"/>
</g>
</svg>
