<svg width="40" height="40" viewBox="0 0 40 40" fill="none" xmlns="http://www.w3.org/2000/svg">
<path d="M36.7741 19.3549H37.4192C38.4902 19.3549 39.3547 20.2194 39.3547 21.2903C39.3547 21.8258 39.1354 22.3097 38.787 22.6581C38.587 22.8581 38.3418 23.0194 38.0644 23.1097C37.8644 23.1871 37.6451 23.2258 37.4192 23.2258H35.4838H33.5483C33.3225 23.2258 33.1031 23.1871 32.9031 23.1097C32.2192 22.8774 31.716 22.2645 31.6321 21.5291C31.6192 21.4516 31.6128 21.3678 31.6128 21.2903C31.6128 20.7549 31.8321 20.271 32.1805 19.9226C32.5289 19.5742 33.0128 19.3549 33.5483 19.3549H34.1934H35.0967H36.7741Z" fill="#FEC914"/>
<path d="M38.0646 30.9677V33.5484C38.0646 33.9032 37.7742 34.1935 37.4194 34.1935H35.4839C34.7742 34.1935 34.1936 33.6129 34.1936 32.9032V31.6129C34.1936 30.9032 34.7742 30.3226 35.4839 30.3226H35.5097H37.4194C37.7742 30.3226 38.0646 30.6129 38.0646 30.9677Z" fill="#F0D0B4"/>
<path d="M3.22579 30.3226H3.24514C3.94837 30.3355 4.51611 30.9097 4.51611 31.6129V32.9032C4.51611 33.6129 3.93546 34.1935 3.22579 34.1935H1.93546H1.2903C0.935464 34.1935 0.645142 33.9032 0.645142 33.5484V30.9677C0.645142 30.6129 0.935464 30.3226 1.2903 30.3226H1.93546H3.22579Z" fill="#F0D0B4"/>
<path d="M34.1935 12.0774V10.3226C34.1935 9.78709 34.4128 9.30321 34.7612 8.95483C35.1096 8.60644 35.5935 8.38708 36.1289 8.38708C37.1999 8.38708 38.0644 9.2516 38.0644 10.3226V12.2581H34.1935H34.187C34.1935 12.2 34.1935 12.1355 34.1935 12.0774Z" fill="#F0D0B4"/>
<path d="M22.0839 16.729L22.5807 18.7096L22.2001 19.0903C21.6194 19.6709 20.8259 20 20.0001 20C19.1743 20 18.3807 19.6709 17.8001 19.0903L17.4194 18.7096L17.9162 16.729C18.1872 16.8967 18.4646 17.0387 18.7614 17.1677C19.1549 17.3355 19.5743 17.4193 20.0001 17.4193C20.4259 17.4193 20.8452 17.3355 21.2388 17.1677C21.5356 17.0387 21.813 16.8967 22.0839 16.729Z" fill="#F0D0B4"/>
<path d="M25.1612 8.38712V11.2129C25.1612 12.5097 24.7741 13.742 24.0902 14.7807C23.5741 15.5613 22.8967 16.2323 22.0838 16.7291C21.8128 16.8968 21.5354 17.0387 21.2386 17.1678C20.8451 17.3355 20.4257 17.4194 19.9999 17.4194C19.5741 17.4194 19.1548 17.3355 18.7612 17.1678C18.4644 17.0387 18.187 16.8968 17.916 16.7291C16.0193 15.5613 14.8386 13.4839 14.8386 11.2129V8.38712C14.8386 7.67745 15.4193 7.0968 16.1289 7.0968H23.8709C24.5806 7.0968 25.1612 7.67745 25.1612 8.38712Z" fill="#F0D0B4"/>
<path d="M21.2904 27.0129C21.2904 27.2452 21.2258 27.4646 21.1162 27.6581L18.7097 26.4517V23.871C18.7097 23.5162 18.8517 23.1936 19.0904 22.9613C19.3226 22.7226 19.6452 22.5807 20 22.5807C20.7097 22.5807 21.2904 23.1613 21.2904 23.871V26.4517V27.0129Z" fill="#F0D0B4"/>
<path d="M5.80639 12.0774C5.80639 12.1355 5.80639 12.2 5.81284 12.2581H5.80639H1.93542V10.3226C1.93542 9.2516 2.79994 8.38708 3.87091 8.38708C4.40639 8.38708 4.89026 8.60644 5.23865 8.95483C5.58704 9.30321 5.80639 9.78709 5.80639 10.3226V12.0774Z" fill="#F0D0B4"/>
<path d="M17.4194 12.2581H22.5807C22.5807 13.6839 21.4259 14.8387 20.0001 14.8387C19.2904 14.8387 18.6452 14.5484 18.1743 14.0839C17.7098 13.6129 17.4194 12.9677 17.4194 12.2581Z" fill="#FEC914"/>
<path d="M17.4193 10.3226C17.7756 10.3226 18.0645 10.0338 18.0645 9.67745C18.0645 9.32114 17.7756 9.03229 17.4193 9.03229C17.063 9.03229 16.7742 9.32114 16.7742 9.67745C16.7742 10.0338 17.063 10.3226 17.4193 10.3226Z" fill="#166780"/>
<path d="M22.5807 10.3226C22.937 10.3226 23.2259 10.0338 23.2259 9.67745C23.2259 9.32114 22.937 9.03229 22.5807 9.03229C22.2244 9.03229 21.9355 9.32114 21.9355 9.67745C21.9355 10.0338 22.2244 10.3226 22.5807 10.3226Z" fill="#166780"/>
<path d="M23.2258 11.6129H16.7742V12.2581C16.7742 14.0368 18.2213 15.4839 20 15.4839C21.7787 15.4839 23.2258 14.0368 23.2258 12.2581V11.6129ZM20 14.1936C19.1587 14.1936 18.4413 13.6542 18.1748 12.9032H21.8245C21.5587 13.6542 20.8413 14.1936 20 14.1936Z" fill="#166780"/>
<path d="M40 7.74194V1.29032C40 0.57871 39.4213 0 38.7097 0H33.5484C32.8368 0 32.2581 0.57871 32.2581 1.29032V7.74194C32.2581 8.45355 32.8368 9.03226 33.5484 9.03226H33.9071C33.6852 9.41355 33.5484 9.85032 33.5484 10.3226V12.0806C33.5484 13.8897 32.4735 15.5194 30.811 16.2323L29.0574 16.9839C29.2923 16.5755 29.4923 16.1439 29.6445 15.6884L29.7445 15.389L29.5697 15.1265C28.7955 13.9658 28.3871 12.6161 28.3871 11.2226V8.3871C28.3871 4.47419 25.2032 1.29032 21.2903 1.29032H18.7097C14.7968 1.29032 11.6129 4.47419 11.6129 8.3871V11.2226C11.6129 12.6168 11.2045 13.9665 10.431 15.1265L10.2561 15.389L10.3561 15.6884C10.5077 16.1439 10.7084 16.5748 10.9432 16.9839L9.18968 16.2323C7.52645 15.5187 6.45161 13.8897 6.45161 12.0806V10.3226C6.45161 9.75032 6.25806 9.22645 5.94194 8.79806C7.73484 8.19936 9.03226 6.50774 9.03226 4.51613C9.03226 2.02581 7.00645 0 4.51613 0C2.02581 0 0 2.02581 0 4.51613C0 6.15548 0.880645 7.58903 2.19032 8.38C1.64387 8.85355 1.29032 9.54452 1.29032 10.3226V12.3806C1.29032 16.4819 3.71806 20.1935 7.47548 21.8374L10.6387 23.2213C10.4948 23.6897 10.3935 24.1742 10.3497 24.6742L9.32968 26.3058C8.44839 27.7168 7.09419 28.7826 5.51548 29.309C5.39871 29.3484 5.28 29.3787 5.16129 29.4116V28.3871C5.8729 28.3871 6.45161 27.8084 6.45161 27.0968V25.8064C6.45161 25.0948 5.8729 24.5161 5.16129 24.5161H1.29032C0.57871 24.5161 0 25.0948 0 25.8064V27.0968C0 27.8084 0.57871 28.3871 1.29032 28.3871V29.6774C0.57871 29.6774 0 30.2561 0 30.9677V33.5484C0 34.26 0.57871 34.8387 1.29032 34.8387V36.129C0.57871 36.129 0 36.7077 0 37.4194V38.7097C0 39.4213 0.57871 40 1.29032 40H5.16129C5.8729 40 6.45161 39.4213 6.45161 38.7097V37.4194C6.45161 36.7077 5.8729 36.129 5.16129 36.129V34.7942C5.97484 34.7284 6.78129 34.5858 7.56839 34.3613C9.2929 33.8684 10.9045 32.9923 12.2632 31.8213C12.7806 32.0994 13.3716 32.2581 13.9994 32.2581C14.0097 32.2581 14.0206 32.2561 14.031 32.2561C13.7697 34.1787 13.1981 36.0323 12.3265 37.7761L11.9935 38.4413L13.5097 38.9471C15.6058 39.6458 17.7897 40 20 40C22.2103 40 24.3942 39.6458 26.4903 38.9471L28.0065 38.4413L27.6735 37.7761C26.8013 36.0323 26.2303 34.1787 25.969 32.2561C25.9794 32.2561 25.9903 32.2581 26.0006 32.2581C26.62 32.2581 27.2032 32.1026 27.7155 31.831C28.869 32.9265 30.2587 33.7768 31.7671 34.28C32.7613 34.6116 33.7929 34.7884 34.8387 34.8239V37.4194H36.129V34.8387H37.4194C38.131 34.8387 38.7097 34.26 38.7097 33.5484V30.9677C38.7097 30.2561 38.131 29.6774 37.4194 29.6774H36.129V27.7419H36.7742C37.8413 27.7419 38.7097 26.8735 38.7097 25.8064V23.5123C39.4774 23.0645 40 22.2413 40 21.2903C40 19.8671 38.8426 18.7097 37.4194 18.7097H36.5239C37.9194 16.909 38.7097 14.6755 38.7097 12.3806V10.3226C38.7097 9.85032 38.5729 9.41355 38.351 9.03226H38.7097C39.4213 9.03226 40 8.45355 40 7.74194ZM33.5484 1.29032H38.7097L38.7103 7.74194H33.5484V1.29032ZM12.9032 11.2226V8.3871C12.9032 5.18581 15.5084 2.58065 18.7097 2.58065H21.2903C24.4916 2.58065 27.0968 5.18581 27.0968 8.3871V11.2226C27.0968 12.7619 27.5181 14.2555 28.3174 15.5639C27.7639 16.9781 26.68 18.111 25.2961 18.7387C24.8742 18.5632 24.4335 18.4232 23.9723 18.331L23.1077 18.1581L22.8206 17.011C24.6703 15.6929 25.8064 13.5497 25.8064 11.2155V8.3871C25.8064 7.32 24.9381 6.45161 23.871 6.45161H16.129C15.0619 6.45161 14.1935 7.32 14.1935 8.3871V11.2155C14.1935 13.5497 15.3297 15.6929 17.1794 17.0097L16.8929 18.1568L16.0284 18.3297C15.5677 18.4219 15.1265 18.5626 14.7045 18.7374C13.32 18.1097 12.2361 16.9768 11.6832 15.5626C12.4819 14.2555 12.9032 12.7619 12.9032 11.2226ZM20.9832 16.5723C20.3587 16.84 19.6406 16.84 19.0161 16.5723C16.8703 15.6523 15.4839 13.5497 15.4839 11.2155V8.3871C15.4839 8.03161 15.7735 7.74194 16.129 7.74194H23.871C24.2264 7.74194 24.5161 8.03161 24.5161 8.3871V11.2155C24.5161 13.5497 23.1297 15.6523 20.9832 16.5723ZM18.3419 17.68C18.3974 17.7058 18.451 17.7342 18.5077 17.7581C18.9813 17.9613 19.4839 18.0645 20 18.0645C20.5161 18.0645 21.0187 17.9613 21.4923 17.7581C21.549 17.7335 21.6026 17.7052 21.6581 17.6794L21.8658 18.5116L21.7465 18.631C20.8135 19.5639 19.1865 19.5639 18.2535 18.631L18.1342 18.5116L18.3419 17.68ZM2.58065 11.6129V10.3226C2.58065 9.61097 3.15935 9.03226 3.87097 9.03226C4.58258 9.03226 5.16129 9.61097 5.16129 10.3226V11.6129H2.58065ZM1.29032 4.51613C1.29032 2.73742 2.73742 1.29032 4.51613 1.29032C6.29484 1.29032 7.74194 2.73742 7.74194 4.51613C7.74194 6.29484 6.29484 7.74194 4.51613 7.74194C2.73742 7.74194 1.29032 6.29484 1.29032 4.51613ZM7.9929 20.6555C4.86581 19.2877 2.79484 16.2813 2.6 12.9032H5.22194C5.50516 14.8903 6.79806 16.611 8.68 17.4174L13.0697 19.2987C13.1632 19.3632 13.2632 19.4174 13.36 19.4774C12.4213 20.1361 11.6561 21.0129 11.1284 22.0271L7.9929 20.6555ZM1.29032 25.8064H5.16129L5.16194 27.0968H1.29032V25.8064ZM2.58065 28.3871H3.87097V29.6484C3.66387 29.6665 3.45613 29.6774 3.24774 29.6774H2.58065V28.3871ZM1.29032 30.9677H3.22581C3.58129 30.9677 3.87097 31.2574 3.87097 31.6129V32.9032C3.87097 33.2587 3.58129 33.5484 3.22581 33.5484H1.29032V30.9677ZM5.16194 38.7097H1.29032V37.4194H5.16129L5.16194 38.7097ZM2.58065 36.129V34.8387H3.87097V36.129H2.58065ZM7.21419 33.1206C6.50839 33.3219 5.78516 33.4497 5.05484 33.5084C5.11871 33.3168 5.16129 33.1161 5.16129 32.9032V31.6129C5.16129 31.3155 5.08839 31.0368 4.96774 30.7845C5.28968 30.7174 5.60968 30.6381 5.92387 30.5335C7.72903 29.9323 9.28129 28.7271 10.3226 27.1381V28.5819C10.3226 29.509 10.6703 30.3548 11.2387 31.0026C10.0606 31.9735 8.68194 32.7013 7.21419 33.1206ZM26.2006 37.6832L26.0819 37.7226C22.1529 39.0323 17.8465 39.0323 13.9181 37.7226L13.7994 37.6832C14.6168 35.8774 15.129 33.9664 15.3516 31.9942C15.5368 31.9206 15.7187 31.8374 15.891 31.7335L20 29.2684L24.1097 31.7342C24.2819 31.8374 24.4639 31.9213 24.649 31.9948C24.871 33.9671 25.3832 35.8774 26.2006 37.6832ZM20.6452 26.6981L19.3548 26.0529V23.871C19.3548 23.5155 19.6445 23.2258 20 23.2258C20.3555 23.2258 20.6452 23.5155 20.6452 23.871V26.6981ZM24.7735 30.6277L21.2181 28.4942C21.5761 28.1987 21.8148 27.7897 21.8935 27.3323L26.8929 28.9987L27.3013 27.7748L25.8064 27.2768V24.5161H24.5161V26.8465L21.9355 25.9865V23.871C21.9355 22.8039 21.0671 21.9355 20 21.9355C18.9329 21.9355 18.0645 22.8039 18.0645 23.871V25.9865L15.4839 26.8465V24.5161H14.1935V27.2768L12.6994 27.7748L13.1077 28.9987L18.6606 27.1477L19.951 27.7929L15.2271 30.6271C14.8561 30.8503 14.4316 30.9677 13.9994 30.9677C12.6832 30.9677 11.6129 29.8974 11.6129 28.5813V25.289C11.6129 22.531 13.5761 20.1361 16.2806 19.5948L17.2071 19.4097L17.3413 19.5439C18.051 20.2542 18.9955 20.6452 20 20.6452C21.0045 20.6452 21.949 20.2542 22.6587 19.5439L22.7929 19.4097L23.7194 19.5948C26.4239 20.1361 28.3871 22.531 28.3871 25.289V28.5813C28.3871 29.8974 27.3168 30.9677 26.0006 30.9677C25.5684 30.9677 25.1439 30.8503 24.7735 30.6277ZM28.7432 31.0213C29.3226 30.3716 29.6774 29.5181 29.6774 28.5813V27.1529L30.2342 28.0439C30.8413 29.0148 31.7039 29.7994 32.7277 30.311C33.0645 30.4794 33.4194 30.6071 33.7813 30.7116C33.6374 30.9819 33.5484 31.2858 33.5484 31.6129V32.9032C33.5484 33.0813 33.5806 33.251 33.6258 33.4148C33.1348 33.3329 32.6503 33.2135 32.1755 33.0555C30.9045 32.6323 29.7329 31.9252 28.7432 31.0213ZM37.4194 33.5484H35.4839C35.1284 33.5484 34.8387 33.2587 34.8387 32.9032V31.6129C34.8387 31.2574 35.1284 30.9677 35.4839 30.9677V30.9665C35.4929 30.9665 35.5013 30.9677 35.5103 30.9677H37.4194V33.5484ZM34.8387 29.6265C34.3064 29.5529 33.7852 29.3974 33.3045 29.1568C32.4929 28.7516 31.8097 28.1297 31.3284 27.36L29.6503 24.6742C29.6065 24.1742 29.5052 23.6897 29.3613 23.2213L31.2303 22.4032C31.4548 22.8684 31.8135 23.2523 32.2581 23.5116V25.8064C32.2581 26.8735 33.1264 27.7419 34.1935 27.7419H34.8387V29.6265ZM33.5484 23.871H34.8387V26.4516H34.1935C33.8381 26.4516 33.5484 26.1619 33.5484 25.8064V23.871ZM37.4194 25.8064C37.4194 26.1619 37.1297 26.4516 36.7742 26.4516H36.129V23.871H37.4194V25.8064ZM38.7097 21.2903C38.7097 22.0019 38.131 22.5806 37.4194 22.5806H33.5484C32.8368 22.5806 32.2581 22.0019 32.2581 21.2903C32.2581 20.5787 32.8368 20 33.5484 20V21.2903H34.8387V20H36.129V21.2903H37.4194V20C38.131 20 38.7097 20.5787 38.7097 21.2903ZM33.5484 18.7097C32.1897 18.7097 31.0852 19.7684 30.9871 21.1019L28.8723 22.0271C28.3439 21.0129 27.5794 20.1361 26.6406 19.4774C26.7374 19.4174 26.8381 19.3626 26.9316 19.2981L31.3206 17.4174C33.2026 16.611 34.4955 14.8903 34.7787 12.9032H37.3935C37.2652 15.0761 36.3484 17.1535 34.8194 18.7097H33.5484ZM37.4194 10.3226V11.6129H34.8387V10.3226C34.8387 9.61097 35.4174 9.03226 36.129 9.03226C36.8406 9.03226 37.4194 9.61097 37.4194 10.3226Z" fill="#166780"/>
<path d="M34.8386 2.58069H37.4193V3.87101H34.8386V2.58069Z" fill="#166780"/>
<path d="M34.8386 5.16125H37.4193V6.45158H34.8386V5.16125Z" fill="#166780"/>
<path d="M4.51617 6.45166C5.58327 6.45166 6.45166 5.58327 6.45166 4.51617C6.45166 3.44908 5.58327 2.58069 4.51617 2.58069C3.44908 2.58069 2.58069 3.44908 2.58069 4.51617C2.58069 5.58327 3.44908 6.45166 4.51617 6.45166ZM4.51617 3.87101C4.87166 3.87101 5.16133 4.16069 5.16133 4.51617C5.16133 4.87166 4.87166 5.16133 4.51617 5.16133C4.16069 5.16133 3.87101 4.87166 3.87101 4.51617C3.87101 4.16069 4.16069 3.87101 4.51617 3.87101Z" fill="#166780"/>
</svg>
