<svg width="398" height="637" viewBox="0 0 398 637" fill="none" xmlns="http://www.w3.org/2000/svg">
<path opacity="0.03" d="M364.759 323.133C361.593 225.37 318.89 145.8 229.341 96.2901C136.811 45.1051 43.8152 49.7583 -46.0603 106.201C-49.3201 108.249 -52.6265 110.343 -55.793 112.576C-64.9202 119.137 -74.6995 122.627 -81.8242 111.227C-88.0645 101.176 -84.1992 92.2884 -74.5598 85.3086C-38.7959 59.53 0.460693 41.8479 43.9084 34.077C215.324 3.45908 372.071 114.251 395.261 287.49C417.986 457.098 296.398 601.626 137.789 622.007C-21.752 642.528 -168.58 530.339 -194.145 374.644C-196.893 357.892 -197.033 340.722 -199.547 323.924C-202.714 302.473 -218.268 288.699 -236.988 291.166C-257.571 293.864 -268.514 306.614 -269.119 327.367C-271.261 400.329 -294.452 465.241 -342.231 521.033C-388.379 574.963 -446.961 608.187 -516.347 620.192C-606.968 635.92 -688.321 612.84 -759.197 554.164C-827 498 -859.737 424.34 -865.744 337.744C-866.489 326.949 -865.278 315.921 -872.17 306.475C-881.251 294.004 -893.824 288.188 -908.679 291.491C-926.701 295.54 -936.108 309.313 -937.784 326.623C-940.299 351.983 -940.904 377.25 -947.517 402.377C-978.624 520.661 -1078.14 606.047 -1199.91 622.007C-1374.12 644.854 -1531.71 504.282 -1532.41 335.604C-1532.55 307.731 -1547.26 290.84 -1569.2 290.84C-1592.01 290.84 -1604.77 306.521 -1605.38 335.231C-1608.31 481.388 -1719.79 601.766 -1866.72 622.054C-2023.88 643.738 -2179.93 527.129 -2198.14 364.36C-2199.26 354.402 -2200.89 344.491 -2201.82 334.487C-2203.03 322.016 -2198.32 311.593 -2185.29 310.895C-2171.04 310.151 -2168.99 321.784 -2168.33 333.556C-2164.42 406.192 -2139.14 470.127 -2084.84 519.311C-2008.84 588.178 -1919.85 609.909 -1821.68 577.755C-1723.66 545.648 -1665.08 476.176 -1643.19 375.528C-1639.7 359.521 -1638.91 343.421 -1638.53 327.135C-1637.65 289.211 -1609.76 259.524 -1573.95 257.523C-1538.65 255.522 -1508.38 280.091 -1502 316.386C-1496.27 349.005 -1497.34 382.461 -1485.56 414.382C-1442.86 529.967 -1334.49 599.905 -1215.84 591.063C-1092.06 581.85 -991.523 486.972 -973.734 367.338C-971.359 351.285 -971.173 334.952 -969.031 318.852C-964.048 281.301 -933.547 255.476 -897.271 257.477C-861.413 259.431 -833.054 289.072 -832.542 326.949C-831.564 400.283 -806.324 464.125 -753.609 514.519C-676.586 588.132 -584.755 611.165 -483.331 576.964C-383.862 543.415 -325.652 471.616 -306.513 368.269C-303.952 354.449 -302.927 340.722 -302.508 326.762C-301.298 287.862 -272.193 258.035 -235.311 257.43C-197.871 256.779 -167.974 285.163 -166.019 324.157C-161.315 419.035 -124.387 497.255 -42.8938 548.906C46.6091 605.628 140.49 607.955 232.274 555.094C318.983 505.166 362.012 427.411 364.759 323.133Z" fill="#FEC914"/>
<path opacity="0.05" d="M100.348 565.099C-29.855 565.145 -135.983 462.356 -138.87 333.323C-140.174 274.6 -177.754 233.466 -231.493 231.791C-285.465 230.162 -326.351 271.203 -329.006 331.09C-333.383 428.993 -379.019 500.885 -466.986 543.043C-617.539 615.12 -794.589 510.284 -805.532 344.212C-806.604 328.019 -806.604 311.686 -812.005 296.051C-827.233 252.125 -869.749 226.533 -916.177 233.373C-962.279 240.167 -994.923 278.462 -996.227 327.228C-998.928 432.204 -1060.49 518.474 -1156.75 552.302C-1308.28 605.535 -1470.15 494.556 -1474.66 334.394C-1476.34 274.135 -1503.86 242.447 -1563.75 232.256C-1574.32 230.441 -1584.89 228.906 -1583.26 214.853C-1581.63 200.754 -1570.36 201.824 -1560.11 202.197C-1497.71 204.384 -1444.35 259.152 -1444.72 327.879C-1445.23 421.874 -1371.14 521.684 -1256.26 534.993C-1146.45 547.696 -1035.39 458.959 -1027.66 348.632C-1026.73 335.51 -1026.31 322.295 -1024.4 309.313C-1014.62 242.726 -959.578 198.428 -891.869 202.197C-828.49 205.733 -778.477 259.664 -777.08 326.064C-774.798 433.088 -699.544 519.777 -597.282 533.224C-468.848 550.069 -361.044 456.354 -358.017 325.18C-356.62 265.527 -319.087 219.088 -260.784 204.989C-207.371 192.053 -150 218.715 -123.456 268.365C-112.932 288.048 -109.998 309.266 -108.647 331.043C-101.429 444.907 -28.5978 521.871 84.7013 535.458C190.969 548.208 300.403 456.354 308.04 347.888C314.094 262.316 282.381 193.867 209.363 148.918C136.484 104.061 61.1382 106.155 -12.4852 150.407C-22.0316 156.13 -32.4163 163.343 -40.3793 150.128C-48.063 137.378 -37.6785 130.77 -28.2252 124.582C115.157 30.5406 311.812 120.58 336.074 291.445C356.936 437.741 247.223 565.052 100.348 565.099Z" fill="#FEC914"/>
<path opacity="0.07" d="M-568.783 509.54C-666.901 509.354 -747.276 431.599 -749.698 334.533C-751.933 245.192 -804.042 187.307 -893.639 175.208C-904.722 173.719 -917.994 174.371 -916.224 158.969C-914.408 142.962 -901.602 141.891 -887.864 143.799C-784.67 157.991 -719.708 229.744 -716.635 333.463C-714.213 414.522 -649.345 476.456 -566.967 476.316C-485.985 476.176 -420.744 413.963 -418.416 334.533C-415.202 225.463 -347.866 149.43 -239.643 143.38C-159.22 138.867 -79.2635 188.703 -55.2346 286.326C-51.7421 300.565 -50.3451 315.13 -50.2054 329.973C-49.5535 403.912 11.2174 470.174 83.0247 476.083C164.565 482.784 232.833 432.064 247.548 354.263C258.911 294.237 238.84 244.82 192.272 208.292C142.212 169.02 86.2844 164.599 28.8665 194.24C17.9697 199.87 5.5827 209.688 -2.84601 193.309C-10.39 178.652 1.29852 171.346 13.0801 165.064C126.053 104.806 259.982 173.905 281.356 301.03C295.979 388.092 231.669 492.788 125.82 508.749C32.5454 522.801 -61.4281 455.563 -79.7758 360.87C-84.2462 337.93 -81.7782 314.757 -87.4129 291.864C-104.084 224.206 -161.595 175.487 -236.709 175.394C-308.423 175.348 -367.843 229.325 -381.72 299.914C-387.076 327.228 -383.537 355.1 -393.036 382.322C-419.906 459.564 -487.382 509.679 -568.783 509.54Z" fill="#708092"/>
<path opacity="0.1" d="M228.089 326.669C228.089 394.466 174.956 449.141 106.734 451.561C40.9338 453.888 -16.9032 402.237 -19.6972 334.766C-22.631 263.293 -46.7996 203.5 -104.683 159.48C-138.91 133.423 -177.794 119.323 -220.87 117.788C-232.511 117.369 -244.945 116.532 -244.386 102.153C-243.827 86.2858 -230.276 86.565 -218.075 87.3095C-90.0144 95.1734 4.93704 194.659 8.94186 325.18C10.5252 377.575 48.4778 418.43 97.8395 420.943C148.784 423.549 191.347 388.696 197.774 337.093C202.244 301.17 188.367 271.39 159.262 250.171C129.226 228.255 96.3494 226.207 62.5413 241.563C56.9531 244.122 52.0169 248.124 46.5685 251.009C38.9779 255.057 31.2943 255.29 25.8459 247.705C19.6059 239.05 22.819 231.326 30.6424 225.649C58.3502 205.593 89.5504 198.055 123.126 203.267C184.269 212.759 228.043 264.735 228.089 326.669Z" fill="#FEC914"/>
<path opacity="0.2" d="M36.0902 327.647C35.8574 288.188 65.4745 257.709 104.033 257.663C142.032 257.616 172.58 289.072 172.301 327.833C172.021 363.569 140.122 395.071 103.474 395.862C66.918 396.607 36.3231 365.617 36.0902 327.647ZM69.293 327.786C69.5258 347.935 84.9398 363.709 104.172 363.43C123.963 363.15 139.657 345.655 139.005 324.529C138.399 305.311 122.147 290.328 102.309 290.7C83.0304 291.073 69.0601 306.8 69.293 327.786Z" fill="#FEC914"/>
</svg>
