<svg width="237" height="336" viewBox="0 0 237 336" fill="none" xmlns="http://www.w3.org/2000/svg">
<path opacity="0.03" d="M218.651 165.432C216.903 110.504 193.331 65.798 143.899 37.981C92.8217 9.22291 41.4875 11.8373 -8.12427 43.5497C-9.92358 44.7 -11.7488 45.8765 -13.4967 47.1314C-18.535 50.8176 -23.9332 52.7784 -27.8661 46.3732C-31.3107 40.7261 -29.1771 35.7327 -23.8561 31.8111C-4.11414 17.3275 17.5557 7.39284 41.5391 3.02684C136.161 -14.1758 222.687 48.0725 235.488 145.406C248.032 240.7 180.915 321.902 93.3616 333.353C5.29407 344.883 -75.7557 281.85 -89.868 194.373C-91.3848 184.961 -91.4618 175.314 -92.85 165.876C-94.5979 153.824 -103.184 146.085 -113.517 147.471C-124.879 148.987 -130.92 156.151 -131.254 167.811C-132.437 208.804 -145.238 245.275 -171.612 276.621C-197.086 306.922 -229.424 325.589 -267.725 332.334C-317.748 341.17 -362.656 328.203 -401.78 295.236C-439.208 263.68 -457.279 222.295 -460.595 173.641C-461.006 167.576 -460.338 161.38 -464.142 156.072C-469.155 149.066 -476.095 145.798 -484.295 147.654C-494.243 149.929 -499.436 157.667 -500.361 167.393C-501.749 181.641 -502.083 195.837 -505.734 209.955C-522.905 276.412 -577.838 324.386 -645.058 333.353C-741.223 346.19 -828.211 267.21 -828.596 172.438C-828.673 156.778 -836.796 147.288 -848.904 147.288C-861.5 147.288 -868.543 156.099 -868.877 172.229C-870.496 254.347 -932.036 321.981 -1013.14 333.379C-1099.89 345.562 -1186.03 280.046 -1196.08 188.595C-1196.7 183 -1197.6 177.432 -1198.11 171.811C-1198.78 164.804 -1196.19 158.948 -1188.99 158.556C-1181.12 158.138 -1179.99 164.674 -1179.63 171.288C-1177.47 212.098 -1163.51 248.02 -1133.54 275.654C-1091.59 314.347 -1042.47 326.556 -988.28 308.491C-934.169 290.451 -901.832 251.419 -889.75 194.87C-887.822 185.876 -887.385 176.831 -887.179 167.68C-886.691 146.373 -871.293 129.693 -851.526 128.569C-832.041 127.445 -815.332 141.249 -811.811 161.641C-808.649 179.968 -809.24 198.765 -802.736 216.7C-779.164 281.641 -719.347 320.935 -653.849 315.968C-585.524 310.791 -530.025 257.484 -520.206 190.268C-518.895 181.249 -518.792 172.072 -517.61 163.027C-514.859 141.929 -498.022 127.419 -477.997 128.543C-458.204 129.641 -442.549 146.295 -442.267 167.576C-441.727 208.778 -427.794 244.647 -398.695 272.961C-356.178 314.321 -305.487 327.262 -249.5 308.046C-194.593 289.196 -162.461 248.857 -151.896 190.791C-150.482 183.027 -149.917 175.314 -149.685 167.471C-149.017 145.615 -132.951 128.857 -112.592 128.517C-91.9246 128.151 -75.4216 144.099 -74.3419 166.007C-71.7457 219.314 -51.3611 263.262 -6.37622 292.281C43.0299 324.151 94.8524 325.458 145.518 295.759C193.382 267.706 217.134 224.02 218.651 165.432Z" fill="#EFF5FA"/>
<path opacity="0.05" d="M72.6942 301.379C0.821228 301.405 -57.7618 243.654 -59.3556 171.157C-60.0754 138.164 -80.8199 115.053 -110.484 114.112C-140.277 113.197 -162.846 136.255 -164.312 169.902C-166.728 224.909 -191.92 265.301 -240.477 288.987C-323.584 329.484 -421.317 270.582 -427.357 177.275C-427.949 168.177 -427.949 159 -430.93 150.216C-439.336 125.536 -462.805 111.157 -488.434 115C-513.883 118.817 -531.902 140.334 -532.622 167.732C-534.113 226.713 -568.096 275.183 -621.229 294.19C-704.875 324.098 -794.228 261.745 -796.721 171.759C-797.647 137.902 -812.839 120.098 -845.896 114.373C-851.732 113.353 -857.567 112.491 -856.667 104.595C-855.767 96.6737 -849.547 97.275 -843.891 97.4841C-809.446 98.7129 -779.987 129.484 -780.193 168.098C-780.476 220.909 -739.578 276.987 -676.162 284.464C-615.548 291.602 -554.24 241.745 -549.973 179.759C-549.459 172.386 -549.228 164.961 -548.174 157.667C-542.776 120.255 -512.392 95.3665 -475.016 97.4841C-440.03 99.4711 -412.422 129.772 -411.651 167.079C-410.392 227.209 -368.851 275.915 -312.402 283.471C-241.506 292.935 -181.997 240.281 -180.326 166.582C-179.555 133.066 -158.836 106.974 -126.653 99.0528C-97.1687 91.7848 -65.4992 106.765 -50.847 134.661C-45.0375 145.719 -43.4181 157.641 -42.6727 169.876C-38.6883 233.85 1.51526 277.092 64.057 284.726C122.717 291.889 183.125 240.281 187.341 179.34C190.683 131.262 173.177 92.8044 132.871 67.5495C92.6416 42.347 51.05 43.5234 10.4095 68.3861C5.13983 71.6018 -0.592529 75.6541 -4.98822 68.2293C-9.22961 61.0659 -3.49731 57.3535 1.72089 53.8764C80.8685 1.03983 189.423 51.628 202.816 147.628C214.332 229.824 153.77 301.353 72.6942 301.379Z" fill="#EFF5FA"/>
<path opacity="0.07" d="M-296.67 270.164C-350.832 270.059 -395.2 226.373 -396.536 171.837C-397.77 121.641 -426.535 89.1184 -475.992 82.321C-482.11 81.4844 -489.436 81.8504 -488.46 73.1968C-487.457 64.2033 -480.388 63.602 -472.805 64.6739C-415.841 72.6478 -379.982 112.961 -378.285 171.236C-376.949 216.778 -341.141 251.576 -295.667 251.497C-250.965 251.419 -214.952 216.465 -213.666 171.837C-211.893 110.556 -174.723 67.8373 -114.983 64.4386C-70.5891 61.9027 -26.4525 89.9027 -13.1884 144.752C-11.2604 152.752 -10.4893 160.935 -10.4122 169.275C-10.0523 210.818 23.4935 248.046 63.1317 251.367C108.142 255.131 145.827 226.635 153.95 182.922C160.222 149.197 149.143 121.432 123.437 100.909C95.8035 78.8439 64.931 76.3602 33.236 93.0138C27.2209 96.1772 20.3832 101.694 15.7305 92.4909C11.5661 84.2556 18.0183 80.151 24.5218 76.6216C86.8837 42.7655 160.813 81.589 172.612 153.014C180.683 201.929 145.184 260.752 86.7551 269.719C35.2667 277.615 -16.6072 239.837 -26.7352 186.635C-29.2029 173.746 -27.8406 160.726 -30.951 147.863C-40.1536 109.85 -71.9 82.4778 -113.363 82.4256C-152.95 82.3994 -185.75 112.726 -193.41 152.386C-196.367 167.733 -194.413 183.393 -199.657 198.687C-214.489 242.085 -251.737 270.242 -296.67 270.164Z" fill="#DBF4F2"/>
<path opacity="0.1" d="M143.208 167.419C143.208 205.51 113.878 236.229 76.2191 237.589C39.897 238.896 7.97066 209.876 6.42833 171.968C4.80887 131.811 -8.53235 98.2163 -40.4844 73.4843C-59.3781 58.8438 -80.8423 50.9222 -104.62 50.0595C-111.046 49.8242 -117.91 49.3536 -117.601 41.2752C-117.293 32.3602 -109.813 32.517 -103.078 32.9353C-32.3872 37.3536 20.0266 93.249 22.2373 166.582C23.1113 196.02 44.0613 218.974 71.3093 220.386C99.4312 221.85 122.926 202.268 126.474 173.275C128.941 153.092 121.281 136.36 105.215 124.438C88.6349 112.125 70.4867 110.974 51.8244 119.602C48.7398 121.04 46.0149 123.288 43.0074 124.909C38.8174 127.184 34.576 127.314 31.5684 123.053C28.1239 118.19 29.8976 113.85 34.2161 110.661C49.5109 99.3928 66.7337 95.1575 85.2674 98.0856C119.019 103.419 143.182 132.621 143.208 167.419Z" fill="#EFF5FA"/>
<path opacity="0.2" d="M37.2234 167.968C37.0949 145.798 53.4437 128.674 74.728 128.648C95.7038 128.622 112.567 146.295 112.412 168.073C112.258 188.151 94.6498 205.85 74.4194 206.295C54.2405 206.713 37.3519 189.301 37.2234 167.968ZM55.5515 168.046C55.6801 179.367 64.1887 188.229 74.8051 188.072C85.73 187.916 94.3927 178.086 94.0328 166.216C93.6987 155.419 84.7274 147.001 73.7768 147.21C63.1347 147.419 55.423 156.256 55.5515 168.046Z" fill="#F0E7D2"/>
</svg>
