<svg width="15" height="17" viewBox="0 0 15 17" fill="none" xmlns="http://www.w3.org/2000/svg">
<path fill-rule="evenodd" clip-rule="evenodd" d="M4.05806 4.32752C4.05806 2.65546 5.41352 1.3 7.08557 1.3C8.75762 1.3 10.1131 2.65546 10.1131 4.32752C10.1131 5.99957 8.75762 7.35503 7.08557 7.35503C5.41352 7.35503 4.05806 5.99957 4.05806 4.32752ZM7.08557 0C4.69555 0 2.75806 1.93749 2.75806 4.32752C2.75806 6.71754 4.69555 8.65503 7.08557 8.65503C9.47559 8.65503 11.4131 6.71754 11.4131 4.32752C11.4131 1.93749 9.47559 0 7.08557 0ZM1.3 14.7475C1.3 13.3983 2.36216 12.3329 3.63798 12.3329H10.5333C11.8091 12.3329 12.8713 13.3983 12.8713 14.7475V15.6298H1.3V14.7475ZM3.63798 11.0329C1.61336 11.0329 0 12.7116 0 14.7475V16.2798C0 16.6388 0.291015 16.9298 0.65 16.9298H13.5213C13.8803 16.9298 14.1713 16.6388 14.1713 16.2798V14.7475C14.1713 12.7116 12.5579 11.0329 10.5333 11.0329H3.63798Z" fill="#F0E7D2"/>
</svg>
