<svg width="963" height="68" viewBox="0 0 963 68" fill="none" xmlns="http://www.w3.org/2000/svg">
<g opacity="0.04">
<path d="M0 7.59259H13.4759L27.7089 42.317H28.3145L42.5475 7.59259H56.0234V59.2754H45.4244V25.6362H44.9954L31.6204 59.0231H24.403L11.028 25.51H10.599V59.2754H0V7.59259Z" fill="white"/>
<path d="M92.7412 59.2754V7.59259H127.567V16.6018H103.668V28.9168H125.775V37.926H103.668V50.2663H127.667V59.2754H92.7412Z" fill="white"/>
<path d="M162 16.6018V7.59259H204.447V16.6018H188.624V59.2754H177.823V16.6018H162Z" fill="white"/>
<path d="M241.745 59.2754H230.036L247.878 7.59259H261.959L279.776 59.2754H268.066L255.12 19.4029H254.716L241.745 59.2754ZM241.013 38.9606H268.672V47.4903H241.013V38.9606Z" fill="white"/>
<path d="M313.711 7.59259H327.187L341.42 42.317H342.026L356.259 7.59259H369.734V59.2754H359.135V25.6362H358.706L345.331 59.0231H338.114L324.739 25.51H324.31V59.2754H313.711V7.59259Z" fill="white"/>
<path d="M489.755 59.2754V7.59259H510.146C514.049 7.59259 517.38 8.29078 520.139 9.68716C522.915 11.0667 525.026 13.0267 526.473 15.5671C527.937 18.0907 528.669 21.0601 528.669 24.4753C528.669 27.9074 527.929 30.86 526.448 33.3331C524.968 35.7893 522.823 37.6736 520.013 38.9859C517.22 40.2981 513.839 40.9543 509.868 40.9543H496.216V32.1722H508.102C510.188 32.1722 511.921 31.8862 513.3 31.3142C514.68 30.7422 515.706 29.8842 516.379 28.7402C517.069 27.5961 517.414 26.1745 517.414 24.4753C517.414 22.7593 517.069 21.3124 516.379 20.1348C515.706 18.9571 514.671 18.0654 513.275 17.4598C511.895 16.8373 510.154 16.5261 508.051 16.5261H500.682V59.2754H489.755ZM517.666 35.7557L530.511 59.2754H518.448L505.881 35.7557H517.666Z" fill="white"/>
<path d="M564.106 59.2754V7.59259H584.496C588.416 7.59259 591.756 8.34125 594.515 9.83857C597.274 11.3191 599.377 13.38 600.824 16.0213C602.288 18.6459 603.019 21.6741 603.019 25.1062C603.019 28.5383 602.279 31.5666 600.799 34.1911C599.318 36.8156 597.173 38.8597 594.364 40.3234C591.571 41.787 588.189 42.5189 584.219 42.5189H571.222V33.7621H582.452C584.555 33.7621 586.288 33.4004 587.651 32.6769C589.03 31.9367 590.057 30.9188 590.73 29.6234C591.419 28.3112 591.764 26.8054 591.764 25.1062C591.764 23.3902 591.419 21.8929 590.73 20.6142C590.057 19.3188 589.03 18.3178 587.651 17.6112C586.271 16.8878 584.522 16.5261 582.402 16.5261H575.033V59.2754H564.106Z" fill="white"/>
<path d="M637.832 59.2754V7.59259H648.759V28.9168H670.941V7.59259H681.843V59.2754H670.941V37.926H648.759V59.2754H637.832Z" fill="white"/>
<path d="M766.061 33.434C766.061 39.07 764.993 43.8648 762.856 47.8184C760.736 51.772 757.842 54.7919 754.175 56.878C750.524 58.9474 746.419 59.982 741.86 59.982C737.267 59.982 733.145 58.939 729.494 56.8528C725.843 54.7666 722.958 51.7468 720.838 47.7932C718.719 43.8396 717.659 39.0532 717.659 33.434C717.659 27.798 718.719 23.0032 720.838 19.0496C722.958 15.096 725.843 12.0846 729.494 10.0152C733.145 7.92907 737.267 6.88599 741.86 6.88599C746.419 6.88599 750.524 7.92907 754.175 10.0152C757.842 12.0846 760.736 15.096 762.856 19.0496C764.993 23.0032 766.061 27.798 766.061 33.434ZM754.982 33.434C754.982 29.7832 754.436 26.7045 753.342 24.1977C752.265 21.691 750.743 19.7899 748.774 18.4944C746.806 17.199 744.501 16.5513 741.86 16.5513C739.218 16.5513 736.914 17.199 734.945 18.4944C732.977 19.7899 731.446 21.691 730.352 24.1977C729.276 26.7045 728.737 29.7832 728.737 33.434C728.737 37.0848 729.276 40.1635 730.352 42.6703C731.446 45.1771 732.977 47.0781 734.945 48.3736C736.914 49.669 739.218 50.3167 741.86 50.3167C744.501 50.3167 746.806 49.669 748.774 48.3736C750.743 47.0781 752.265 45.1771 753.342 42.6703C754.436 40.1635 754.982 37.0848 754.982 33.434Z" fill="white"/>
<path d="M829.907 22.4565C829.705 20.4208 828.839 18.8393 827.308 17.7121C825.777 16.5849 823.699 16.0213 821.075 16.0213C819.291 16.0213 817.786 16.2737 816.557 16.7784C815.329 17.2663 814.387 17.9477 813.731 18.8225C813.092 19.6973 812.772 20.69 812.772 21.8003C812.738 22.7256 812.932 23.5332 813.352 24.223C813.79 24.9127 814.387 25.51 815.144 26.0147C815.901 26.5026 816.776 26.9316 817.769 27.3017C818.761 27.655 819.821 27.9579 820.948 28.2102L825.592 29.3206C827.846 29.8253 829.915 30.4983 831.8 31.3394C833.684 32.1806 835.316 33.2153 836.695 34.4434C838.075 35.6716 839.143 37.1184 839.9 38.784C840.674 40.4496 841.07 42.3591 841.087 44.5125C841.07 47.6754 840.262 50.4177 838.664 52.7394C837.082 55.0442 834.794 56.836 831.8 58.1146C828.822 59.3764 825.23 60.0073 821.024 60.0073C816.852 60.0073 813.218 59.368 810.122 58.0894C807.043 56.8107 804.638 54.9181 802.905 52.4113C801.189 49.8877 800.289 46.7669 800.205 43.0488H810.778C810.896 44.7817 811.392 46.2285 812.267 47.3894C813.159 48.5334 814.345 49.3998 815.826 49.9887C817.323 50.5607 819.014 50.8467 820.898 50.8467C822.749 50.8467 824.355 50.5775 825.718 50.0391C827.098 49.5008 828.166 48.7521 828.923 47.7932C829.68 46.8342 830.059 45.7322 830.059 44.4873C830.059 43.3264 829.714 42.3506 829.024 41.5599C828.351 40.7692 827.358 40.0963 826.046 39.5411C824.751 38.9859 823.161 38.4812 821.276 38.0269L815.649 36.6137C811.292 35.5538 807.851 33.8967 805.327 31.6423C802.804 29.3879 801.551 26.3512 801.567 22.5322C801.551 19.4029 802.383 16.6691 804.066 14.3305C805.765 11.992 808.095 10.1666 811.056 8.85438C814.017 7.54212 817.382 6.88599 821.15 6.88599C824.986 6.88599 828.334 7.54212 831.194 8.85438C834.071 10.1666 836.309 11.992 837.907 14.3305C839.505 16.6691 840.329 19.3777 840.38 22.4565H829.907Z" fill="white"/>
<path d="M887.078 7.59259V59.2754H876.151V7.59259H887.078Z" fill="white"/>
<path d="M951.821 22.4565C951.619 20.4208 950.752 18.8393 949.221 17.7121C947.69 16.5849 945.613 16.0213 942.988 16.0213C941.205 16.0213 939.699 16.2737 938.471 16.7784C937.243 17.2663 936.301 17.9477 935.644 18.8225C935.005 19.6973 934.685 20.69 934.685 21.8003C934.652 22.7256 934.845 23.5332 935.266 24.223C935.703 24.9127 936.301 25.51 937.058 26.0147C937.815 26.5026 938.69 26.9316 939.682 27.3017C940.675 27.655 941.735 27.9579 942.862 28.2102L947.505 29.3206C949.76 29.8253 951.829 30.4983 953.713 31.3394C955.597 32.1806 957.229 33.2153 958.609 34.4434C959.989 35.6716 961.057 37.1184 961.814 38.784C962.588 40.4496 962.983 42.3591 963 44.5125C962.983 47.6754 962.176 50.4177 960.577 52.7394C958.996 55.0442 956.708 56.836 953.713 58.1146C950.735 59.3764 947.144 60.0073 942.938 60.0073C938.765 60.0073 935.131 59.368 932.036 58.0894C928.957 56.8107 926.551 54.9181 924.818 52.4113C923.102 49.8877 922.202 46.7669 922.118 43.0488H932.692C932.81 44.7817 933.306 46.2285 934.181 47.3894C935.072 48.5334 936.259 49.3998 937.739 49.9887C939.236 50.5607 940.927 50.8467 942.811 50.8467C944.662 50.8467 946.269 50.5775 947.631 50.0391C949.011 49.5008 950.079 48.7521 950.836 47.7932C951.593 46.8342 951.972 45.7322 951.972 44.4873C951.972 43.3264 951.627 42.3506 950.937 41.5599C950.264 40.7692 949.272 40.0963 947.959 39.5411C946.664 38.9859 945.074 38.4812 943.19 38.0269L937.562 36.6137C933.205 35.5538 929.764 33.8967 927.241 31.6423C924.717 29.3879 923.464 26.3512 923.481 22.5322C923.464 19.4029 924.297 16.6691 925.979 14.3305C927.678 11.992 930.008 10.1666 932.969 8.85438C935.93 7.54212 939.295 6.88599 943.064 6.88599C946.9 6.88599 950.248 7.54212 953.108 8.85438C955.984 10.1666 958.222 11.992 959.82 14.3305C961.419 16.6691 962.243 19.3777 962.293 22.4565H951.821Z" fill="white"/>
<circle cx="424.327" cy="33.5674" r="16.5176" stroke="white" stroke-width="10"/>
<circle cx="424.327" cy="33.5674" r="28.5674" stroke="#FEC914" stroke-width="10"/>
</g>
</svg>
