<svg width="205" height="15" viewBox="0 0 205 15" fill="none" xmlns="http://www.w3.org/2000/svg">
<path d="M0 1.61624H2.8687L5.89857 9.00825H6.0275L9.05736 1.61624H11.9261V12.6183H9.66978V5.45729H9.57845L6.73124 12.5646H5.19482L2.34761 5.43043H2.25628V12.6183H0V1.61624Z" fill="white"/>
<path d="M19.7424 12.6183V1.61624H27.1559V3.53408H22.0685V6.15566H26.7745V8.0735H22.0685V10.7005H27.1774V12.6183H19.7424Z" fill="white"/>
<path d="M34.4861 3.53408V1.61624H43.522V3.53408H40.1536V12.6183H37.8544V3.53408H34.4861Z" fill="white"/>
<path d="M51.4619 12.6183H48.9692L52.7673 1.61624H55.7649L59.5576 12.6183H57.065L54.3091 4.13038H54.2231L51.4619 12.6183ZM51.3061 8.29376H57.1939V10.1095H51.3061V8.29376Z" fill="white"/>
<path d="M66.7817 1.61624H69.6504L72.6803 9.00825H72.8092L75.8391 1.61624H78.7078V12.6183H76.4515V5.45729H76.3601L73.5129 12.5646H71.9765L69.1293 5.43043H69.038V12.6183H66.7817V1.61624Z" fill="white"/>
<path d="M104.257 12.6183V1.61624H108.598C109.429 1.61624 110.138 1.76487 110.725 2.06212C111.316 2.3558 111.766 2.77303 112.074 3.31382C112.385 3.85103 112.541 4.48315 112.541 5.21017C112.541 5.94078 112.384 6.56931 112.068 7.09578C111.753 7.61866 111.297 8.01978 110.698 8.29913C110.104 8.57848 109.384 8.71815 108.539 8.71815H105.633V6.84866H108.163C108.607 6.84866 108.976 6.78778 109.27 6.66601C109.563 6.54425 109.782 6.36159 109.925 6.11806C110.072 5.87452 110.145 5.5719 110.145 5.21017C110.145 4.84487 110.072 4.53687 109.925 4.28617C109.782 4.03547 109.561 3.84566 109.264 3.71673C108.97 3.58422 108.6 3.51796 108.152 3.51796H106.583V12.6183H104.257ZM110.199 7.6115L112.933 12.6183H110.365L107.69 7.6115H110.199Z" fill="white"/>
<path d="M120.085 12.6183V1.61624H124.425C125.26 1.61624 125.971 1.77561 126.558 2.09436C127.146 2.40952 127.593 2.84824 127.901 3.41052C128.213 3.96922 128.369 4.61387 128.369 5.34448C128.369 6.07508 128.211 6.71973 127.896 7.27843C127.581 7.83713 127.124 8.27227 126.526 8.58385C125.931 8.89543 125.212 9.05122 124.366 9.05122H121.6V7.18711H123.99C124.438 7.18711 124.807 7.11011 125.097 6.95611C125.391 6.79852 125.609 6.58185 125.752 6.30608C125.899 6.02673 125.973 5.7062 125.973 5.34448C125.973 4.97917 125.899 4.66043 125.752 4.38824C125.609 4.11247 125.391 3.89938 125.097 3.74896C124.803 3.59496 124.431 3.51796 123.98 3.51796H122.411V12.6183H120.085Z" fill="white"/>
<path d="M135.779 12.6183V1.61624H138.105V6.15566H142.828V1.61624H145.148V12.6183H142.828V8.0735H138.105V12.6183H135.779Z" fill="white"/>
<path d="M163.076 7.11727C163.076 8.31704 162.849 9.33774 162.394 10.1794C161.943 11.021 161.327 11.6639 160.546 12.108C159.769 12.5485 158.895 12.7687 157.924 12.7687C156.947 12.7687 156.069 12.5467 155.292 12.1026C154.515 11.6585 153.901 11.0156 153.449 10.174C152.998 9.33237 152.773 8.31346 152.773 7.11727C152.773 5.9175 152.998 4.8968 153.449 4.05517C153.901 3.21354 154.515 2.57247 155.292 2.13196C156.069 1.68787 156.947 1.46582 157.924 1.46582C158.895 1.46582 159.769 1.68787 160.546 2.13196C161.327 2.57247 161.943 3.21354 162.394 4.05517C162.849 4.8968 163.076 5.9175 163.076 7.11727ZM160.718 7.11727C160.718 6.34011 160.602 5.68471 160.369 5.15108C160.14 4.61745 159.815 4.21275 159.396 3.93699C158.977 3.66122 158.487 3.52333 157.924 3.52333C157.362 3.52333 156.872 3.66122 156.452 3.93699C156.033 4.21275 155.708 4.61745 155.475 5.15108C155.246 5.68471 155.131 6.34011 155.131 7.11727C155.131 7.89443 155.246 8.54983 155.475 9.08346C155.708 9.61709 156.033 10.0218 156.452 10.2976C156.872 10.5733 157.362 10.7112 157.924 10.7112C158.487 10.7112 158.977 10.5733 159.396 10.2976C159.815 10.0218 160.14 9.61709 160.369 9.08346C160.602 8.54983 160.718 7.89443 160.718 7.11727Z" fill="white"/>
<path d="M176.668 4.78041C176.625 4.34706 176.44 4.0104 176.114 3.77045C175.788 3.5305 175.346 3.41052 174.787 3.41052C174.408 3.41052 174.087 3.46424 173.826 3.57168C173.564 3.67554 173.364 3.82059 173.224 4.00682C173.088 4.19306 173.02 4.40436 173.02 4.64073C173.013 4.83771 173.054 5.00962 173.144 5.15645C173.237 5.30329 173.364 5.43043 173.525 5.53787C173.686 5.64173 173.872 5.73306 174.084 5.81185C174.295 5.88706 174.521 5.95152 174.761 6.00524L175.749 6.24162C176.229 6.34906 176.669 6.49231 177.071 6.67138C177.472 6.85045 177.819 7.07071 178.113 7.33215C178.406 7.5936 178.634 7.9016 178.795 8.25615C178.96 8.61071 179.044 9.0172 179.048 9.47562C179.044 10.1489 178.872 10.7327 178.532 11.2269C178.195 11.7176 177.708 12.099 177.071 12.3712C176.437 12.6398 175.672 12.7741 174.777 12.7741C173.888 12.7741 173.115 12.638 172.456 12.3658C171.801 12.0936 171.288 11.6907 170.92 11.1571C170.554 10.6199 170.363 9.95553 170.345 9.16404H172.596C172.621 9.53292 172.726 9.84092 172.913 10.088C173.102 10.3316 173.355 10.516 173.67 10.6414C173.989 10.7631 174.349 10.824 174.75 10.824C175.144 10.824 175.486 10.7667 175.776 10.6521C176.07 10.5375 176.297 10.3781 176.458 10.174C176.619 9.96985 176.7 9.73527 176.7 9.47025C176.7 9.22313 176.626 9.01541 176.48 8.84709C176.336 8.67876 176.125 8.5355 175.846 8.41732C175.57 8.29913 175.232 8.19169 174.83 8.09499L173.632 7.79415C172.705 7.56853 171.972 7.21576 171.435 6.73585C170.898 6.25594 170.631 5.6095 170.635 4.79652C170.631 4.13038 170.808 3.5484 171.167 3.05059C171.528 2.55278 172.024 2.16419 172.655 1.88484C173.285 1.60549 174.001 1.46582 174.804 1.46582C175.62 1.46582 176.333 1.60549 176.942 1.88484C177.554 2.16419 178.03 2.55278 178.371 3.05059C178.711 3.5484 178.886 4.12501 178.897 4.78041H176.668Z" fill="white"/>
<path d="M188.838 1.61624V12.6183H186.512V1.61624H188.838Z" fill="white"/>
<path d="M202.62 4.78041C202.577 4.34706 202.393 4.0104 202.067 3.77045C201.741 3.5305 201.299 3.41052 200.74 3.41052C200.36 3.41052 200.04 3.46424 199.778 3.57168C199.517 3.67554 199.316 3.82059 199.177 4.00682C199.041 4.19306 198.973 4.40436 198.973 4.64073C198.965 4.83771 199.007 5.00962 199.096 5.15645C199.189 5.30329 199.316 5.43043 199.477 5.53787C199.639 5.64173 199.825 5.73306 200.036 5.81185C200.247 5.88706 200.473 5.95152 200.713 6.00524L201.702 6.24162C202.181 6.34906 202.622 6.49231 203.023 6.67138C203.424 6.85045 203.772 7.07071 204.065 7.33215C204.359 7.5936 204.586 7.9016 204.748 8.25615C204.912 8.61071 204.996 9.0172 205 9.47562C204.996 10.1489 204.825 10.7327 204.484 11.2269C204.148 11.7176 203.661 12.099 203.023 12.3712C202.389 12.6398 201.625 12.7741 200.729 12.7741C199.841 12.7741 199.067 12.638 198.408 12.3658C197.753 12.0936 197.241 11.6907 196.872 11.1571C196.507 10.6199 196.315 9.95553 196.297 9.16404H198.548C198.573 9.53292 198.679 9.84092 198.865 10.088C199.055 10.3316 199.307 10.516 199.623 10.6414C199.941 10.7631 200.301 10.824 200.702 10.824C201.096 10.824 201.438 10.7667 201.728 10.6521C202.022 10.5375 202.249 10.3781 202.411 10.174C202.572 9.96985 202.652 9.73527 202.652 9.47025C202.652 9.22313 202.579 9.01541 202.432 8.84709C202.289 8.67876 202.078 8.5355 201.798 8.41732C201.522 8.29913 201.184 8.19169 200.783 8.09499L199.585 7.79415C198.657 7.56853 197.925 7.21576 197.388 6.73585C196.851 6.25594 196.584 5.6095 196.587 4.79652C196.584 4.13038 196.761 3.5484 197.119 3.05059C197.481 2.55278 197.977 2.16419 198.607 1.88484C199.238 1.60549 199.954 1.46582 200.756 1.46582C201.573 1.46582 202.285 1.60549 202.894 1.88484C203.507 2.16419 203.983 2.55278 204.323 3.05059C204.663 3.5484 204.839 4.12501 204.85 4.78041H202.62Z" fill="white"/>
<circle cx="90.3291" cy="7.14577" r="3.58059" stroke="white" stroke-width="2"/>
<circle cx="90.3292" cy="7.14571" r="6.14571" stroke="#FEC914" stroke-width="2"/>
</svg>
