<svg width="246" height="196" viewBox="0 0 246 196" fill="none" xmlns="http://www.w3.org/2000/svg">
<path opacity="0.03" d="M23.215 194.206C25.3906 129.656 54.7289 77.1192 116.254 44.4295C179.826 10.6337 243.718 13.706 305.466 50.9735C307.706 52.3254 309.978 53.7079 312.153 55.1827C318.424 59.5147 325.143 61.8189 330.038 54.2917C334.325 47.6554 331.67 41.7872 325.047 37.1787C300.475 20.1579 273.504 8.48302 243.654 3.35221C125.884 -16.8638 18.1917 56.2887 2.25867 170.672C-13.3545 282.659 70.182 378.086 179.154 391.543C288.766 405.092 389.643 331.018 407.208 228.217C409.095 217.157 409.191 205.82 410.919 194.729C413.094 180.565 423.781 171.471 436.642 173.099C450.783 174.881 458.302 183.299 458.718 197.002C460.19 245.176 476.123 288.036 508.949 324.873C540.655 360.482 580.903 382.418 628.574 390.345C690.835 400.729 746.729 385.49 795.424 346.748C842.007 309.665 864.499 261.03 868.626 203.853C869.138 196.726 868.306 189.444 873.041 183.207C879.28 174.973 887.918 171.133 898.125 173.314C910.506 175.987 916.969 185.081 918.121 196.51C919.849 213.255 920.265 229.938 924.808 246.528C946.18 324.627 1014.55 381.005 1098.22 391.543C1217.91 406.628 1326.17 313.813 1326.65 202.44C1326.75 184.037 1336.86 172.884 1351.93 172.884C1367.61 172.884 1376.37 183.238 1376.79 202.194C1378.8 298.697 1455.4 378.178 1556.34 391.574C1664.32 405.891 1771.53 328.898 1784.04 221.427C1784.81 214.852 1785.93 208.308 1786.57 201.703C1787.4 193.469 1784.17 186.587 1775.21 186.126C1765.42 185.634 1764.01 193.315 1763.56 201.088C1760.88 249.048 1743.5 291.262 1706.2 323.736C1653.98 369.207 1592.84 383.555 1525.4 362.325C1458.05 341.126 1417.8 295.256 1402.77 228.801C1400.37 218.232 1399.82 207.602 1399.57 196.848C1398.96 171.809 1379.8 152.207 1355.19 150.886C1330.94 149.565 1310.14 165.787 1305.76 189.751C1301.83 211.288 1302.56 233.379 1294.47 254.455C1265.13 330.772 1190.68 376.949 1109.16 371.112C1024.12 365.029 955.042 302.383 942.82 223.393C941.189 212.794 941.061 202.01 939.589 191.38C936.166 166.586 915.209 149.534 890.286 150.855C865.651 152.146 846.166 171.717 845.814 196.726C845.142 245.146 827.802 287.298 791.584 320.572C738.666 369.176 675.574 384.384 605.891 361.803C537.551 339.651 497.559 292.245 484.409 224.008C482.65 214.883 481.946 205.82 481.658 196.603C480.826 170.918 460.83 151.224 435.49 150.825C409.767 150.395 389.227 169.136 387.883 194.882C384.652 257.527 359.281 309.173 303.291 343.276C241.798 380.728 177.298 382.264 114.238 347.363C54.6649 314.396 25.1027 263.057 23.215 194.206Z" fill="#EFF5FA"/>
<path opacity="0.05" d="M204.877 353.968C294.333 353.999 367.247 286.131 369.231 200.935C370.126 162.162 395.946 135.003 432.867 133.896C469.948 132.821 498.039 159.919 499.862 199.46C502.87 264.102 534.224 311.57 594.661 339.406C698.098 386.996 819.739 317.776 827.258 208.124C827.994 197.433 827.994 186.649 831.705 176.326C842.167 147.323 871.378 130.425 903.276 134.941C934.95 139.427 957.378 164.712 958.273 196.91C960.129 266.222 1002.43 323.184 1068.56 345.52C1172.67 380.667 1283.88 307.392 1286.98 201.642C1288.13 161.855 1307.04 140.932 1348.19 134.204C1355.45 133.005 1362.71 131.992 1361.59 122.713C1360.47 113.404 1352.73 114.111 1345.69 114.356C1302.82 115.8 1266.15 151.962 1266.41 197.34C1266.76 259.402 1215.86 325.304 1136.93 334.09C1061.49 342.478 985.181 283.888 979.87 211.043C979.23 202.379 978.942 193.654 977.63 185.082C970.911 141.116 933.094 111.868 886.575 114.356C843.031 116.691 808.669 152.3 807.709 196.142C806.142 266.806 754.439 324.044 684.18 332.923C595.941 344.045 521.874 282.168 519.795 195.558C518.835 156.171 493.048 125.509 452.991 116.2C416.294 107.659 376.877 125.263 358.641 158.045C351.41 171.041 349.394 185.051 348.466 199.43C343.507 274.61 293.469 325.426 215.627 334.398C142.617 342.816 67.4307 282.168 62.1837 210.551C58.0244 154.051 79.8124 108.857 129.979 79.178C180.05 49.5606 231.816 50.9432 282.399 80.1612C288.958 83.9402 296.092 88.7023 301.563 79.9769C306.842 71.5586 299.708 67.1959 293.213 63.1097C194.703 1.01762 59.592 60.4675 42.9231 173.284C28.5897 269.878 103.968 353.938 204.877 353.968Z" fill="#EFF5FA"/>
<path opacity="0.07" d="M664.6 317.284C732.011 317.162 787.233 265.823 788.897 201.734C790.433 142.745 826.234 104.525 887.791 96.5365C895.405 95.5534 904.523 95.9835 903.308 85.8141C902.06 75.2452 893.261 74.5385 883.823 75.7982C812.924 85.1689 768.293 132.544 766.181 201.027C764.517 254.547 719.95 295.44 663.352 295.348C607.714 295.256 562.891 254.179 561.291 201.734C559.083 129.718 512.82 79.5157 438.466 75.5217C383.212 72.5415 328.278 105.446 311.769 169.904C309.37 179.305 308.41 188.922 308.314 198.723C307.866 247.542 266.114 291.292 216.779 295.194C160.757 299.618 113.854 266.13 103.744 214.76C95.9374 175.127 109.727 142.499 141.721 118.381C176.115 92.4503 214.539 89.5316 253.988 109.102C261.475 112.82 269.985 119.303 275.776 108.488C280.959 98.8101 272.929 93.9865 264.834 89.8388C187.216 50.052 95.2015 95.6763 80.5162 179.613C70.47 237.096 114.654 306.224 187.376 316.762C251.461 326.041 316.025 281.645 328.63 219.123C331.702 203.976 330.006 188.676 333.877 173.56C345.331 128.888 384.844 96.7209 436.45 96.6594C485.721 96.6287 526.546 132.268 536.08 178.875C539.759 196.91 537.328 215.313 543.854 233.287C562.315 284.287 608.674 317.377 664.6 317.284Z" fill="#DBF4F2"/>
<path opacity="0.1" d="M117.113 196.541C117.113 241.306 153.619 277.406 200.49 279.003C245.698 280.539 285.434 246.436 287.354 201.887C289.37 154.696 305.974 115.217 345.743 86.1522C369.259 68.9471 395.974 59.6378 425.568 58.624C433.567 58.3475 442.109 57.7944 441.725 48.3009C441.341 37.8242 432.031 38.0086 423.649 38.5001C335.665 43.6924 270.429 109.379 267.678 195.558C266.59 230.153 240.515 257.128 206.601 258.787C171.599 260.508 142.357 237.496 137.942 203.424C134.87 179.705 144.404 160.042 164.401 146.032C185.037 131.561 207.625 130.21 230.852 140.348C234.692 142.038 238.083 144.68 241.826 146.585C247.041 149.258 252.32 149.412 256.064 144.404C260.351 138.689 258.143 133.589 252.768 129.841C233.732 116.599 212.296 111.622 189.228 115.063C147.22 121.331 117.145 155.649 117.113 196.541Z" fill="#EFF5FA"/>
<path opacity="0.2" d="M249.025 197.187C249.185 171.133 228.837 151.009 202.346 150.979C176.239 150.948 155.251 171.717 155.443 197.309C155.635 220.905 177.551 241.705 202.73 242.227C227.845 242.719 248.865 222.257 249.025 197.187ZM226.214 197.279C226.054 210.582 215.464 220.997 202.25 220.813C188.653 220.629 177.871 209.077 178.319 195.128C178.734 182.439 189.9 172.546 203.53 172.792C216.775 173.038 226.374 183.422 226.214 197.279Z" fill="#41B9D5"/>
</svg>
