<svg width="14" height="14" viewBox="0 0 14 14" fill="none" xmlns="http://www.w3.org/2000/svg">
<g clip-path="url(#clip0_1454_16585)">
<path fill-rule="evenodd" clip-rule="evenodd" d="M8.43555 6.56519C9.72891 6.5023 9.88203 7.51948 9.8957 7.81479C9.90117 7.61519 9.94492 7.08198 10.2621 6.61987V1.83198C10.2621 1.29058 9.81914 0.850342 9.27773 0.850342H7.73828V1.24683C7.73828 1.37261 7.63711 1.47378 7.51133 1.47378H3.65039C3.52461 1.47378 3.42344 1.37261 3.42344 1.24683V0.850342H1.88672C1.34531 0.850342 0.902344 1.29331 0.902344 1.83198V11.2519C0.902344 11.7933 1.34531 12.2363 1.88672 12.2363H7.05469C6.21797 10.3933 6.81953 7.51948 9.08359 7.71362C8.71992 7.49761 8.51484 7.10112 8.43555 6.56519Z" fill="#F9F9F9"/>
<path fill-rule="evenodd" clip-rule="evenodd" d="M5.39765 9.54842C5.58906 8.73631 5.0832 7.92146 4.27109 7.73006C3.45624 7.53865 2.64413 8.04451 2.45273 8.85662C2.26132 9.67146 2.76718 10.4836 3.57929 10.675C4.39413 10.8664 5.20898 10.3605 5.39765 9.54842Z" fill="#CBE558"/>
<path fill-rule="evenodd" clip-rule="evenodd" d="M10.2621 6.62271C9.94492 7.08482 9.89844 7.61803 9.89571 7.81764C9.89844 7.85865 9.89571 7.886 9.89571 7.8942V7.89693C10.2949 7.75748 10.6531 7.69732 10.9758 7.70553C11.643 7.40201 12.0066 6.75397 12.1406 5.85162C11.1262 5.8024 10.5684 6.17975 10.2621 6.62271Z" fill="#CBE558"/>
<path fill-rule="evenodd" clip-rule="evenodd" d="M9.8957 7.81759C9.88203 7.52227 9.73164 6.50509 8.43555 6.56798C8.51484 7.10118 8.71719 7.49767 9.08086 7.71368C9.33242 7.73556 9.60312 7.79298 9.8957 7.89688V7.89415C9.8957 7.88595 9.89297 7.8586 9.8957 7.81759Z" fill="#E2F1A1"/>
<path fill-rule="evenodd" clip-rule="evenodd" d="M9.8957 7.89689C9.60312 7.79572 9.33242 7.73557 9.08085 7.71369C6.81679 7.52228 6.21523 10.3934 7.05195 12.2363C7.44023 13.0922 8.14023 13.7266 9.13007 13.7266H10.6586C13.6883 13.7266 14.0082 7.77385 10.9758 7.70549C10.6531 7.69728 10.2949 7.75471 9.8957 7.89689Z" fill="#FF6977"/>
<path fill-rule="evenodd" clip-rule="evenodd" d="M3.65038 1.47109H7.51132C7.6371 1.47109 7.73828 1.36992 7.73828 1.24414V0.500391C7.73828 0.374609 7.6371 0.273438 7.51132 0.273438H3.65038C3.5246 0.273438 3.42343 0.374609 3.42343 0.500391V1.24414C3.42343 1.36992 3.52734 1.47109 3.65038 1.47109Z" fill="#FF6977"/>
<path d="M2.18751 8.79375C1.96329 9.75351 2.55938 10.716 3.51915 10.9402C3.65587 10.973 3.79532 10.9895 3.93204 10.9895C4.26016 10.9895 4.58282 10.8992 4.86719 10.7215C5.27188 10.4699 5.55626 10.0762 5.66563 9.61133C5.88985 8.65156 5.29376 7.68906 4.33399 7.46484C3.37696 7.23789 2.41446 7.83398 2.18751 8.79375ZM2.72071 8.91953C2.87657 8.25508 3.54649 7.83945 4.21094 7.99531C4.8754 8.15117 5.28829 8.81836 5.13243 9.48554C5.05587 9.8082 4.85899 10.0816 4.58009 10.2566C4.29844 10.4316 3.96759 10.4863 3.64493 10.4098C2.97774 10.2512 2.56485 9.58398 2.72071 8.91953Z" fill="black"/>
<path d="M2.66328 3.7898H8.86758C9.01797 3.7898 9.14102 3.66675 9.14102 3.51636C9.14102 3.36597 9.01797 3.24292 8.86758 3.24292H2.66328C2.51289 3.24292 2.38985 3.36597 2.38985 3.51636C2.38985 3.66675 2.51289 3.7898 2.66328 3.7898Z" fill="black"/>
<path d="M2.66328 5.21448H7.66993C7.82032 5.21448 7.94336 5.09143 7.94336 4.94104C7.94336 4.79065 7.82032 4.6676 7.66993 4.6676H2.66328C2.51289 4.6676 2.38985 4.79065 2.38985 4.94104C2.38985 5.09417 2.51289 5.21448 2.66328 5.21448Z" fill="black"/>
<path d="M3.55742 9.79733C3.60937 9.84381 3.675 9.87115 3.74336 9.87115C3.74609 9.87115 3.75156 9.87115 3.75429 9.87115C3.82812 9.86842 3.89648 9.83561 3.9457 9.78092L4.66757 8.98522C4.76875 8.87311 4.76054 8.70084 4.64843 8.59967C4.53632 8.4985 4.36406 8.5067 4.26289 8.61881L3.72695 9.20943L3.57382 9.06451C3.46445 8.96061 3.28945 8.96608 3.18828 9.07545C3.08437 9.18483 3.08984 9.35983 3.19921 9.461L3.55742 9.79733Z" fill="black"/>
<path d="M2.66328 6.64185H6.89063C7.04102 6.64185 7.16407 6.5188 7.16407 6.36841C7.16407 6.21802 7.04102 6.09497 6.89063 6.09497H2.66328C2.51289 6.09497 2.38985 6.21802 2.38985 6.36841C2.38985 6.5188 2.51289 6.64185 2.66328 6.64185Z" fill="black"/>
<path d="M13.352 10.0926C13.2809 9.29688 12.9992 8.60234 12.5617 8.1293C12.3102 7.85586 12.0094 7.66172 11.673 7.54688C12.0559 7.16406 12.3047 6.60898 12.4113 5.88984C12.4223 5.81328 12.4004 5.73672 12.3512 5.67656C12.302 5.61641 12.2309 5.58086 12.1543 5.57539C11.498 5.54258 10.9566 5.67383 10.5355 5.96367V1.83203C10.5355 1.14023 9.97227 0.576953 9.27773 0.576953H8.01172V0.500391C8.01172 0.224219 7.7875 0 7.51133 0H3.65039C3.37422 0 3.15 0.224219 3.15 0.500391V0.576953H1.88672C1.19492 0.576953 0.628906 1.14023 0.628906 1.83203V5.85703C0.628906 6.00742 0.751953 6.13047 0.902344 6.13047C1.05273 6.13047 1.17578 6.00742 1.17578 5.85703V1.83203C1.17578 1.44102 1.49297 1.12383 1.88672 1.12383H3.15273V1.24687C3.15273 1.52305 3.37695 1.74727 3.65313 1.74727H7.51406C7.79023 1.74727 8.01445 1.52305 8.01445 1.24687V1.12383H9.28047C9.67148 1.12383 9.98867 1.44102 9.98867 1.83203V6.54336C9.92578 6.64453 9.87383 6.7457 9.83008 6.84687C9.55664 6.49961 9.10547 6.26172 8.42188 6.29453C8.34531 6.29727 8.27148 6.33555 8.225 6.39297C8.17578 6.45312 8.15391 6.52969 8.16484 6.60625C8.2168 6.94531 8.3125 7.23242 8.45742 7.46484C8.43281 7.47031 8.4082 7.47305 8.38359 7.47852C7.93516 7.56875 7.54414 7.79023 7.22695 8.13203C6.78945 8.60234 6.51055 9.29961 6.43672 10.0953C6.3793 10.7297 6.45586 11.3805 6.65 11.9629H1.88672C1.4957 11.9629 1.17578 11.6457 1.17578 11.252V8.0418C1.17578 7.89141 1.05273 7.76836 0.902344 7.76836C0.751953 7.76836 0.628906 7.89141 0.628906 8.0418V11.252C0.628906 11.9465 1.19219 12.5098 1.88672 12.5098H6.88242C7.36914 13.4613 8.17852 14 9.13281 14H10.6613C11.684 14 12.5398 13.3793 13.0129 12.2965C13.3 11.632 13.4203 10.85 13.352 10.0926ZM7.46758 1.19766H3.69688V0.546875H7.46484V1.19766H7.46758ZM11.8125 6.125C11.6594 6.77852 11.3641 7.20781 10.9129 7.43203C10.6859 7.43203 10.448 7.46211 10.1992 7.52227C10.2457 7.24883 10.3633 6.86875 10.6559 6.57617C10.932 6.3 11.3203 6.14961 11.8125 6.125ZM9.33242 7.10664C9.45547 7.22969 9.52656 7.38008 9.56758 7.51406C9.43359 7.48398 9.30234 7.45937 9.17656 7.4457C8.99336 7.31992 8.86211 7.12578 8.78008 6.84961C9.00977 6.88516 9.1957 6.96992 9.33242 7.10664ZM12.5098 12.0777C12.2855 12.5918 11.7469 13.4531 10.6613 13.4531H9.13281C8.08281 13.4531 7.54414 12.6465 7.30625 12.1297C7.30625 12.1297 7.30625 12.127 7.30352 12.127C7.29531 12.1105 7.28984 12.0941 7.28164 12.0777C6.74844 10.8582 6.90156 9.28594 7.62891 8.50391C7.95156 8.15664 8.37266 7.97891 8.87305 7.97891C9.16016 7.97891 9.47188 8.03633 9.80547 8.15391C9.86289 8.17305 9.92852 8.17305 9.98594 8.15391C10.8992 7.83398 11.6512 7.9543 12.1625 8.50391C12.8898 9.28594 13.0402 10.8582 12.5098 12.0777Z" fill="black"/>
<path d="M0.902344 7.22422C1.05273 7.22422 1.17578 7.10117 1.17578 6.95078V6.94531C1.17578 6.79492 1.05273 6.67188 0.902344 6.67188C0.751953 6.67188 0.628906 6.79492 0.628906 6.94531V6.95078C0.628906 7.10117 0.751953 7.22422 0.902344 7.22422Z" fill="black"/>
</g>
<defs>
<clipPath id="clip0_1454_16585">
<rect width="14" height="14" fill="white"/>
</clipPath>
</defs>
</svg>
