<svg width="40" height="40" viewBox="0 0 40 40" fill="none" xmlns="http://www.w3.org/2000/svg">
<path fill-rule="evenodd" clip-rule="evenodd" d="M24.1016 18.7578C27.7969 18.5781 28.2344 21.4844 28.2734 22.3281C28.2891 21.7578 28.4141 20.2344 29.3203 18.9141V5.23438C29.3203 3.6875 28.0547 2.42969 26.5078 2.42969H22.1094V3.5625C22.1094 3.92187 21.8203 4.21094 21.4609 4.21094H10.4297C10.0703 4.21094 9.78125 3.92187 9.78125 3.5625V2.42969H5.39062C3.84375 2.42969 2.57812 3.69531 2.57812 5.23438V32.1484C2.57812 33.6953 3.84375 34.9609 5.39062 34.9609H20.1562C17.7656 29.6953 19.4844 21.4844 25.9531 22.0391C24.9141 21.4219 24.3281 20.2891 24.1016 18.7578Z" fill="#F9F9F9"/>
<path fill-rule="evenodd" clip-rule="evenodd" d="M15.4218 27.2812C15.9687 24.9609 14.5234 22.6328 12.2031 22.0859C9.87494 21.539 7.55463 22.9843 7.00775 25.3046C6.46088 27.6327 7.90619 29.9531 10.2265 30.4999C12.5546 31.0468 14.8828 29.6015 15.4218 27.2812Z" fill="#CBE558"/>
<path fill-rule="evenodd" clip-rule="evenodd" d="M29.3203 18.9219C28.4141 20.2422 28.2812 21.7657 28.2734 22.336C28.2812 22.4532 28.2734 22.5313 28.2734 22.5547V22.5625C29.4141 22.1641 30.4375 21.9922 31.3594 22.0157C33.2656 21.1485 34.3047 19.2969 34.6875 16.7188C31.7891 16.5782 30.1953 17.6563 29.3203 18.9219Z" fill="#CBE558"/>
<path fill-rule="evenodd" clip-rule="evenodd" d="M28.2734 22.336C28.2344 21.4922 27.8047 18.586 24.1016 18.7657C24.3281 20.2891 24.9063 21.4219 25.9453 22.0391C26.6641 22.1016 27.4375 22.2657 28.2734 22.5625V22.5547C28.2734 22.5313 28.2656 22.4532 28.2734 22.336Z" fill="#E2F1A1"/>
<path fill-rule="evenodd" clip-rule="evenodd" d="M28.2734 22.5625C27.4375 22.2734 26.664 22.1016 25.9453 22.0391C19.4765 21.4922 17.7578 29.6953 20.1484 34.9609C21.2578 37.4063 23.2578 39.2188 26.0859 39.2188H30.4531C39.1093 39.2188 40.0234 22.2109 31.3593 22.0156C30.4375 21.9922 29.414 22.1563 28.2734 22.5625Z" fill="#FF6977"/>
<path fill-rule="evenodd" clip-rule="evenodd" d="M10.4297 4.20312H21.4609C21.8203 4.20312 22.1094 3.91406 22.1094 3.55469V1.42969C22.1094 1.07031 21.8203 0.78125 21.4609 0.78125H10.4297C10.0703 0.78125 9.78125 1.07031 9.78125 1.42969V3.55469C9.78125 3.91406 10.0781 4.20312 10.4297 4.20312Z" fill="#FF6977"/>
<path d="M6.2501 25.1249C5.60947 27.8671 7.3126 30.6171 10.0548 31.2578C10.4454 31.3515 10.8438 31.3984 11.2345 31.3984C12.172 31.3984 13.0938 31.1406 13.9063 30.6328C15.0626 29.914 15.8751 28.789 16.1876 27.4609C16.8282 24.7187 15.1251 21.9687 12.3829 21.3281C9.64854 20.6796 6.89854 22.3828 6.2501 25.1249ZM7.77354 25.4843C8.21885 23.5859 10.1329 22.3984 12.0313 22.8437C13.9298 23.289 15.1095 25.1953 14.6642 27.1015C14.4454 28.0234 13.8829 28.8046 13.086 29.3046C12.2813 29.8046 11.336 29.9609 10.4142 29.7421C8.50791 29.289 7.32822 27.3828 7.77354 25.4843Z" fill="black"/>
<path d="M7.60938 10.8281H25.3359C25.7656 10.8281 26.1172 10.4766 26.1172 10.0469C26.1172 9.61719 25.7656 9.26562 25.3359 9.26562H7.60938C7.17969 9.26562 6.82812 9.61719 6.82812 10.0469C6.82812 10.4766 7.17969 10.8281 7.60938 10.8281Z" fill="black"/>
<path d="M7.60938 14.8984H21.9141C22.3438 14.8984 22.6953 14.5469 22.6953 14.1172C22.6953 13.6875 22.3438 13.3359 21.9141 13.3359H7.60938C7.17969 13.3359 6.82812 13.6875 6.82812 14.1172C6.82812 14.5547 7.17969 14.8984 7.60938 14.8984Z" fill="black"/>
<path d="M10.1642 27.9921C10.3126 28.125 10.5001 28.2031 10.6954 28.2031C10.7032 28.2031 10.7188 28.2031 10.7267 28.2031C10.9376 28.1953 11.1329 28.1015 11.2735 27.9453L13.336 25.6718C13.6251 25.3515 13.6017 24.8593 13.2813 24.5703C12.961 24.2812 12.4688 24.3046 12.1798 24.625L10.6485 26.3125L10.211 25.8984C9.89853 25.6015 9.39853 25.6171 9.10947 25.9296C8.81259 26.2421 8.82822 26.7421 9.14072 27.0312L10.1642 27.9921Z" fill="black"/>
<path d="M7.60938 18.9766H19.6875C20.1172 18.9766 20.4688 18.625 20.4688 18.1953C20.4688 17.7656 20.1172 17.4141 19.6875 17.4141H7.60938C7.17969 17.4141 6.82812 17.7656 6.82812 18.1953C6.82812 18.625 7.17969 18.9766 7.60938 18.9766Z" fill="black"/>
<path d="M38.1484 28.8359C37.9453 26.5625 37.1406 24.5781 35.8906 23.2266C35.1719 22.4453 34.3125 21.8906 33.3516 21.5625C34.4453 20.4688 35.1562 18.8828 35.4609 16.8281C35.4922 16.6094 35.4297 16.3906 35.2891 16.2188C35.1484 16.0469 34.9453 15.9453 34.7266 15.9297C32.8516 15.8359 31.3047 16.2109 30.1016 17.0391V5.23438C30.1016 3.25781 28.4922 1.64844 26.5078 1.64844H22.8906V1.42969C22.8906 0.640625 22.25 0 21.4609 0H10.4297C9.64062 0 9 0.640625 9 1.42969V1.64844H5.39062C3.41406 1.64844 1.79688 3.25781 1.79688 5.23438V16.7344C1.79688 17.1641 2.14844 17.5156 2.57812 17.5156C3.00781 17.5156 3.35938 17.1641 3.35938 16.7344V5.23438C3.35938 4.11719 4.26562 3.21094 5.39062 3.21094H9.00781V3.5625C9.00781 4.35156 9.64844 4.99219 10.4375 4.99219H21.4688C22.2578 4.99219 22.8984 4.35156 22.8984 3.5625V3.21094H26.5156C27.6328 3.21094 28.5391 4.11719 28.5391 5.23438V18.6953C28.3594 18.9844 28.2109 19.2734 28.0859 19.5625C27.3047 18.5703 26.0156 17.8906 24.0625 17.9844C23.8438 17.9922 23.6328 18.1016 23.5 18.2656C23.3594 18.4375 23.2969 18.6562 23.3281 18.875C23.4766 19.8438 23.75 20.6641 24.1641 21.3281C24.0938 21.3438 24.0234 21.3516 23.9531 21.3672C22.6719 21.625 21.5547 22.2578 20.6484 23.2344C19.3984 24.5781 18.6016 26.5703 18.3906 28.8438C18.2266 30.6563 18.4453 32.5156 19 34.1797H5.39062C4.27344 34.1797 3.35938 33.2734 3.35938 32.1484V22.9766C3.35938 22.5469 3.00781 22.1953 2.57812 22.1953C2.14844 22.1953 1.79688 22.5469 1.79688 22.9766V32.1484C1.79688 34.1328 3.40625 35.7422 5.39062 35.7422H19.6641C21.0547 38.4609 23.3672 40 26.0938 40H30.4609C33.3828 40 35.8281 38.2266 37.1797 35.1328C38 33.2344 38.3438 31 38.1484 28.8359ZM21.3359 3.42188H10.5625V1.5625H21.3281V3.42188H21.3359ZM33.75 17.5C33.3125 19.3672 32.4688 20.5938 31.1797 21.2344C30.5312 21.2344 29.8516 21.3203 29.1406 21.4922C29.2734 20.7109 29.6094 19.625 30.4453 18.7891C31.2344 18 32.3438 17.5703 33.75 17.5ZM26.6641 20.3047C27.0156 20.6562 27.2188 21.0859 27.3359 21.4688C26.9531 21.3828 26.5781 21.3125 26.2188 21.2734C25.6953 20.9141 25.3203 20.3594 25.0859 19.5703C25.7422 19.6719 26.2734 19.9141 26.6641 20.3047ZM35.7422 34.5078C35.1016 35.9766 33.5625 38.4375 30.4609 38.4375H26.0938C23.0938 38.4375 21.5547 36.1328 20.875 34.6562C20.875 34.6562 20.875 34.6484 20.8672 34.6484C20.8438 34.6016 20.8281 34.5547 20.8047 34.5078C19.2812 31.0234 19.7188 26.5312 21.7969 24.2969C22.7188 23.3047 23.9219 22.7969 25.3516 22.7969C26.1719 22.7969 27.0625 22.9609 28.0156 23.2969C28.1797 23.3516 28.3672 23.3516 28.5312 23.2969C31.1406 22.3828 33.2891 22.7266 34.75 24.2969C36.8281 26.5312 37.2578 31.0234 35.7422 34.5078Z" fill="black"/>
<path d="M2.57812 20.6406C3.00781 20.6406 3.35938 20.2891 3.35938 19.8594V19.8438C3.35938 19.4141 3.00781 19.0625 2.57812 19.0625C2.14844 19.0625 1.79688 19.4141 1.79688 19.8438V19.8594C1.79688 20.2891 2.14844 20.6406 2.57812 20.6406Z" fill="black"/>
</svg>
