<svg width="513" height="508" viewBox="0 0 513 508" fill="none" xmlns="http://www.w3.org/2000/svg">
<path fill-rule="evenodd" clip-rule="evenodd" d="M74.0746 331.445L8.65258 149.585C7.71258 146.937 9.10858 144.003 11.7566 143.035C97.7706 112.108 194.693 83.3452 277.545 48.0042C281.248 45.6692 284.153 47.9762 285.748 52.3902L388.537 317.263L416.449 394.865C417.389 397.513 416.022 400.475 413.373 401.415L216.681 472.126L140.009 499.693C137.36 500.661 134.427 499.266 133.458 496.617L74.0746 331.445Z" fill="white"/>
<path fill-rule="evenodd" clip-rule="evenodd" d="M128.615 271.1L95.9471 80.6403C95.4631 77.8493 97.3431 75.2013 100.105 74.7173L325.079 36.1583L376.602 27.6723C379.422 26.4473 384.007 27.8713 385.089 34.1653L440.742 311.996L454.669 393.272C455.153 396.034 453.273 398.711 450.511 399.195L244.505 434.508L164.188 448.291C161.425 448.747 158.748 446.867 158.264 444.105L128.615 271.1Z" fill="white"/>
<path fill-rule="evenodd" clip-rule="evenodd" d="M191.645 214.942V398.055C191.645 400.988 194.037 403.409 196.971 403.409H281.988H407.847H425.933H500.042C502.975 403.409 505.368 400.988 505.368 398.055V312.023V74.3742V71.8962H451.253C446.04 71.8962 435.218 72.6362 435.218 60.8182L435.104 7.99121H196.971C194.037 7.99121 191.645 10.3832 191.645 13.3162V59.0232V78.3602V214.942Z" fill="white"/>
<path fill-rule="evenodd" clip-rule="evenodd" d="M101.359 112.223C70.8837 122.475 40.6937 132.642 11.7567 143.036C9.10768 144.004 7.71268 146.937 8.65268 149.586L74.0747 331.446L133.459 496.618C134.427 499.266 137.361 500.662 140.01 499.694L216.682 472.127L391.387 409.333L101.359 112.223Z" fill="#B5C4CF"/>
<path fill-rule="evenodd" clip-rule="evenodd" d="M191.644 59.0254L100.105 74.7164C97.3421 75.2004 95.4631 77.8494 95.9471 80.6394L101.358 112.221L128.614 271.1L158.263 444.104C158.747 446.866 161.424 448.746 164.187 448.29L244.504 434.507L391.382 409.332L425.93 403.409H407.846L191.644 59.0254Z" fill="#D7E7EC"/>
<path fill-rule="evenodd" clip-rule="evenodd" d="M505.367 312.023V74.3742V71.8962V71.0702C505.367 69.5322 504.712 69.2762 502.348 66.9692L443.933 11.2662C441.17 8.64621 440.715 7.99121 439.091 7.99121H435.104H196.971C194.037 7.99121 191.645 10.3832 191.645 13.3162V398.053C191.645 400.986 194.037 403.407 196.971 403.407H500.041C502.975 403.407 505.367 400.986 505.367 398.053V312.023Z" fill="#EDF3F4"/>
<path fill-rule="evenodd" clip-rule="evenodd" d="M191.645 59.0254L170.199 62.6994V417.734C170.199 420.696 172.591 423.088 175.525 423.088H260.542H311.125L391.385 409.333L425.933 403.41H407.847H385.603H281.988H196.971C194.037 403.41 191.645 400.989 191.645 398.056C191.645 285.054 191.645 172.025 191.645 59.0254Z" fill="#B5C4CF"/>
<path fill-rule="evenodd" clip-rule="evenodd" d="M128.615 271.101L101.357 112.223C93.9805 114.701 86.6325 117.178 79.3125 119.656L82.7015 139.391L109.959 298.269L139.637 471.273C140.093 474.035 142.77 475.915 145.533 475.459L225.85 461.676L263.958 455.155L378.737 413.862L377.37 411.726L311.123 423.089L244.505 434.509L164.188 448.292C161.424 448.748 158.748 446.868 158.264 444.106L128.615 271.101Z" fill="#9AAFB7"/>
<path fill-rule="evenodd" clip-rule="evenodd" d="M505.369 312.023V74.3742V71.8962C505.369 69.0202 504.429 68.9912 502.35 66.9692L443.935 11.2662C441.172 8.64621 440.717 7.99121 439.093 7.99121H435.106H375.836C448.264 104.93 452.394 279.671 398.65 388.741C396.172 393.81 393.58 398.68 390.875 403.407H407.85H425.936H500.045C502.979 403.407 505.371 400.986 505.371 398.053V312.023H505.369Z" fill="#D7E7EC"/>
<path fill-rule="evenodd" clip-rule="evenodd" d="M435.218 60.8192C435.218 72.6372 446.041 71.8972 451.253 71.8972H505.368V71.0712C505.368 69.5332 504.713 69.2772 502.349 66.9702L443.934 11.2672C441.171 8.64719 440.716 7.99219 439.092 7.99219H435.105L435.218 60.8192Z" fill="white"/>
<path fill-rule="evenodd" clip-rule="evenodd" d="M502.349 66.9702L443.934 11.2672C441.171 8.64719 440.716 7.99219 439.092 7.99219H435.105L435.219 60.8192C435.219 72.6372 446.042 71.8972 451.254 71.8972H505.368V71.0712C505.368 69.5332 504.713 69.2772 502.349 66.9702Z" fill="#B5C4CF"/>
<path d="M508.653 62.6202C508.349 62.3342 448.208 4.97916 448.208 4.97916C445.909 2.77316 443.531 0.493164 439.091 0.493164H196.971C189.899 0.493164 184.145 6.24716 184.145 13.3182V52.7012L98.8104 67.3292C91.9704 68.5292 87.3704 75.0752 88.5554 81.9082L92.8864 107.16C65.1494 116.494 36.6724 126.116 9.18142 135.991C2.68542 138.366 -0.723583 145.589 1.59442 152.124L56.2784 304.14C57.3784 307.199 60.2614 309.103 63.3364 309.103C64.1784 309.103 65.0364 308.96 65.8744 308.658C69.7724 307.256 71.7954 302.96 70.3934 299.062L16.5184 149.295C42.4184 140.022 69.2404 130.946 95.4534 122.123L121.224 272.368L150.878 445.4C151.949 451.508 157.318 455.854 163.378 455.854C164.064 455.854 164.76 455.798 165.458 455.683L245.774 441.9L308.534 431.142L214.143 465.069L139.708 491.832L81.9004 331.043C80.4994 327.145 76.2044 325.122 72.3054 326.523C68.4074 327.924 66.3844 332.22 67.7854 336.118L126.413 499.192C128.288 504.32 133.146 507.508 138.281 507.508C139.7 507.508 141.141 507.264 142.545 506.751L219.216 479.185L393.31 416.61L426.569 410.909H500.04C507.112 410.909 512.866 405.143 512.866 398.055V71.0712C512.867 66.5822 510.431 64.2922 508.653 62.6202ZM488.782 64.3972H451.252L450.322 64.4012C448.525 64.4132 444.318 64.4442 443.251 63.3842C443.005 63.1392 442.717 62.3212 442.717 60.8022L442.63 20.3872L488.782 64.3972ZM497.867 395.908H199.145V249.741C199.145 245.599 195.787 242.241 191.645 242.241C187.503 242.241 184.145 245.599 184.145 249.741V398.054C184.145 405.142 189.899 410.908 196.971 410.908H337.783L243.238 427.114L165.256 440.497L136.008 269.832L103.739 81.7022L184.144 67.9192V214.941C184.144 219.083 187.502 222.441 191.644 222.441C195.786 222.441 199.144 219.083 199.144 214.941V15.4922H427.619L427.717 60.8182C427.717 66.3122 429.388 70.7562 432.683 74.0282C437.746 79.0552 444.903 79.4052 449.346 79.4052C449.728 79.4052 450.09 79.4022 450.429 79.4002L497.867 79.3972V395.908Z" fill="black"/>
<path d="M457.233 124.449H242.797C238.655 124.449 235.297 121.091 235.297 116.949C235.297 112.807 238.655 109.449 242.797 109.449H457.233C461.375 109.449 464.733 112.807 464.733 116.949C464.733 121.091 461.375 124.449 457.233 124.449Z" fill="black"/>
<path d="M457.233 177.731H242.797C238.655 177.731 235.297 174.373 235.297 170.231C235.297 166.089 238.655 162.731 242.797 162.731H457.233C461.375 162.731 464.733 166.089 464.733 170.231C464.733 174.373 461.375 177.731 457.233 177.731Z" fill="black"/>
<path d="M457.233 231.015H242.797C238.655 231.015 235.297 227.657 235.297 223.515C235.297 219.373 238.655 216.015 242.797 216.015H457.233C461.375 216.015 464.733 219.373 464.733 223.515C464.733 227.657 461.375 231.015 457.233 231.015Z" fill="black"/>
<path d="M457.233 284.296H242.797C238.655 284.296 235.297 280.938 235.297 276.796C235.297 272.654 238.655 269.296 242.797 269.296H457.233C461.375 269.296 464.733 272.654 464.733 276.796C464.733 280.938 461.375 284.296 457.233 284.296Z" fill="black"/>
<path d="M457.233 337.578H242.797C238.655 337.578 235.297 334.22 235.297 330.078C235.297 325.936 238.655 322.578 242.797 322.578H457.233C461.375 322.578 464.733 325.936 464.733 330.078C464.733 334.22 461.375 337.578 457.233 337.578Z" fill="black"/>
</svg>
