<svg width="30" height="40" viewBox="0 0 30 40" fill="none" xmlns="http://www.w3.org/2000/svg">
<path d="M26.9517 3.224H2.95561C1.66077 3.224 0.611084 4.27368 0.611084 5.56853V37.0349C0.611084 38.3298 1.66077 39.3795 2.95561 39.3795H26.9517C28.2466 39.3795 29.2962 38.3298 29.2962 37.0349V5.56853C29.2962 4.27368 28.2466 3.224 26.9517 3.224Z" fill="#A4E6FF"/>
<path d="M26.9516 37.9734H2.9563C2.3347 37.9734 1.73856 37.7265 1.29902 37.2869C0.859479 36.8474 0.612549 36.2512 0.612549 35.6296V37.0359C0.612549 37.6575 0.859479 38.2536 1.29902 38.6932C1.73856 39.1327 2.3347 39.3796 2.9563 39.3796H26.9516C27.5732 39.3796 28.1694 39.1327 28.6089 38.6932C29.0484 38.2536 29.2954 37.6575 29.2954 37.0359V35.6296C29.2954 36.2512 29.0484 36.8474 28.6089 37.2869C28.1694 37.7265 27.5732 37.9734 26.9516 37.9734Z" fill="#81DDFD"/>
<path d="M25.7555 5.83057H4.15156C3.70542 5.83057 3.34375 6.19224 3.34375 6.63838V35.9556C3.34375 36.4017 3.70542 36.7634 4.15156 36.7634H25.7555C26.2016 36.7634 26.5633 36.4017 26.5633 35.9556V6.63838C26.5633 6.19224 26.2016 5.83057 25.7555 5.83057Z" fill="#F9F7F8"/>
<path d="M25.7555 35.3572H4.15234C4.04619 35.3573 3.94107 35.3365 3.84297 35.2959C3.74487 35.2554 3.65572 35.1959 3.58063 35.1209C3.50553 35.0458 3.44596 34.9568 3.40532 34.8587C3.36467 34.7606 3.34375 34.6555 3.34375 34.5494V35.9556C3.34375 36.0618 3.36467 36.1669 3.40532 36.2649C3.44596 36.363 3.50553 36.4521 3.58063 36.5271C3.65572 36.6021 3.74487 36.6616 3.84297 36.7022C3.94107 36.7427 4.04619 36.7635 4.15234 36.7634H25.7555C25.8616 36.7635 25.9667 36.7427 26.0648 36.7022C26.1629 36.6616 26.2521 36.6021 26.3272 36.5271C26.4023 36.4521 26.4619 36.363 26.5025 36.2649C26.5431 36.1669 26.5641 36.0618 26.5641 35.9556V34.5494C26.5641 34.6555 26.5431 34.7606 26.5025 34.8587C26.4619 34.9568 26.4023 35.0458 26.3272 35.1209C26.2521 35.1959 26.1629 35.2554 26.0648 35.2959C25.9667 35.3365 25.8616 35.3573 25.7555 35.3572Z" fill="#EAEAEA"/>
<path d="M19.6 3.22427V1.79224C19.6 1.48144 19.4766 1.18336 19.2568 0.963596C19.037 0.743826 18.739 0.620361 18.4282 0.620361H11.4797C11.1689 0.620361 10.8709 0.743826 10.6511 0.963596C10.4313 1.18336 10.3079 1.48144 10.3079 1.79224V3.22427H19.6Z" fill="#F7CC77"/>
<path d="M10.3079 1.81775H19.5993V3.224H10.3079V1.81775Z" fill="#F9B96B"/>
<path d="M8.23926 3.224H21.6682V5.83025H8.23926V3.224Z" fill="#F9ED80"/>
<path d="M8.23926 4.42432H21.6682V5.83057H8.23926V4.42432Z" fill="#F7CC77"/>
<path d="M14.7914 11.9665C14.8371 11.9287 14.8946 11.908 14.9539 11.908C15.0132 11.908 15.0707 11.9287 15.1164 11.9665C15.7414 12.4861 17.9547 14.4931 17.9547 16.8884C17.9547 17.6843 17.6385 18.4475 17.0758 19.0103C16.513 19.573 15.7498 19.8892 14.9539 19.8892C14.158 19.8892 13.3948 19.573 12.832 19.0103C12.2693 18.4475 11.9531 17.6843 11.9531 16.8884C11.9531 14.4931 14.1656 12.4861 14.7914 11.9665Z" fill="#FF5C83"/>
<path d="M14.9539 18.4876C14.2715 18.4872 13.6096 18.2543 13.0773 17.8272C12.545 17.4002 12.1741 16.8045 12.0258 16.1384C11.9782 16.3863 11.9539 16.6382 11.9531 16.8907C11.9531 17.2848 12.0307 17.675 12.1815 18.0391C12.3324 18.4031 12.5534 18.7339 12.832 19.0126C13.1107 19.2912 13.4415 19.5123 13.8056 19.6631C14.1696 19.8139 14.5598 19.8915 14.9539 19.8915C15.348 19.8915 15.7382 19.8139 16.1023 19.6631C16.4663 19.5123 16.7971 19.2912 17.0758 19.0126C17.3544 18.7339 17.5755 18.4031 17.7263 18.0391C17.8771 17.675 17.9547 17.2848 17.9547 16.8907C17.9539 16.6382 17.9296 16.3863 17.882 16.1384C17.7337 16.8045 17.3628 17.4002 16.8305 17.8272C16.2983 18.2543 15.6363 18.4872 14.9539 18.4876Z" fill="#E5557F"/>
<path d="M14.8164 15.4005C15.1201 14.8046 15.1287 14.2006 14.8358 14.0513C14.5428 13.902 14.0592 14.2641 13.7556 14.86C13.4519 15.4558 13.4433 16.0599 13.7362 16.2092C14.0292 16.3584 14.5128 15.9964 14.8164 15.4005Z" fill="#FFA4C7"/>
<path d="M26.9727 2.60859H20.1945V1.76094C20.1941 1.29403 20.0085 0.846374 19.6783 0.516224C19.3482 0.186073 18.9005 0.000413738 18.4336 0L11.4742 0C11.0073 0.000413738 10.5597 0.186073 10.2295 0.516224C9.89935 0.846374 9.7137 1.29403 9.71328 1.76094V2.60859H2.93516C2.15648 2.60963 1.41004 2.91963 0.859726 3.47053C0.309412 4.02143 0.000206297 4.7682 0 5.54688V37.0641C0.00082682 37.8423 0.310306 38.5885 0.860553 39.1389C1.4108 39.6893 2.15689 39.999 2.93516 40H26.9727C27.7509 39.999 28.497 39.6893 29.0473 39.1389C29.5975 38.5885 29.907 37.8423 29.9078 37.0641V5.54688C29.9076 4.7682 29.5984 4.02143 29.0481 3.47053C28.4978 2.91963 27.7513 2.60963 26.9727 2.60859ZM8.81484 6.39297H21.093V7.12109C21.0928 7.27664 21.0309 7.42575 20.9209 7.53574C20.8109 7.64572 20.6618 7.70761 20.5063 7.70781H9.40156C9.24602 7.70761 9.0969 7.64572 8.98692 7.53574C8.87693 7.42575 8.81505 7.27664 8.81484 7.12109V6.39297ZM9.40156 8.88125H20.5063C20.973 8.88063 21.4204 8.69501 21.7505 8.36508C22.0805 8.03514 22.2664 7.5878 22.2672 7.12109V6.39297H25.7742C25.8332 6.39317 25.8897 6.4167 25.9314 6.45841C25.9731 6.50012 25.9967 6.55664 25.9969 6.61562V35.9828C25.9967 36.0417 25.9731 36.0982 25.9314 36.1398C25.8897 36.1813 25.8331 36.2047 25.7742 36.2047H4.13359C4.07468 36.2047 4.01816 36.1813 3.97643 36.1398C3.93469 36.0982 3.91114 36.0417 3.91094 35.9828V6.61562C3.91114 6.55664 3.93467 6.50012 3.97638 6.45841C4.01809 6.4167 4.07461 6.39317 4.13359 6.39297H7.64062V7.12109C7.64145 7.5878 7.82727 8.03514 8.15735 8.36508C8.48744 8.69501 8.93486 8.88063 9.40156 8.88125ZM10.8859 1.76094C10.8857 1.68359 10.9008 1.60696 10.9303 1.53545C10.9598 1.46394 11.0031 1.39896 11.0577 1.34422C11.1124 1.28949 11.1773 1.2461 11.2488 1.21652C11.3203 1.18694 11.3969 1.17177 11.4742 1.17188H18.4336C18.5891 1.17208 18.7383 1.23396 18.8482 1.34395C18.9582 1.45394 19.0201 1.60305 19.0203 1.75859V2.60859H10.8914L10.8859 1.76094ZM21.093 3.78203V5.21953H8.81484V3.78203H21.093ZM28.7344 37.0633C28.7346 37.2948 28.6892 37.5242 28.6008 37.7382C28.5123 37.9522 28.3826 38.1467 28.219 38.3106C28.0554 38.4744 27.8612 38.6045 27.6473 38.6933C27.4335 38.7821 27.2042 38.8279 26.9727 38.8281H2.93516C2.46805 38.8277 2.02019 38.642 1.68989 38.3117C1.35959 37.9814 1.17385 37.5335 1.17344 37.0664V5.54688C1.17385 5.07969 1.35957 4.63175 1.68984 4.30133C2.02012 3.97091 2.46798 3.785 2.93516 3.78437H7.64062V5.22187H4.13359C3.76379 5.22229 3.4092 5.36916 3.14741 5.63036C2.88563 5.89156 2.73796 6.24582 2.73672 6.61562V35.9828C2.73734 36.353 2.88473 36.7079 3.14659 36.9696C3.40844 37.2313 3.76338 37.3785 4.13359 37.3789H25.7742C26.1444 37.3785 26.4994 37.2313 26.7612 36.9696C27.0231 36.7079 27.1705 36.353 27.1711 35.9828V6.61562C27.1705 6.24541 27.0231 5.89055 26.7612 5.62885C26.4994 5.36714 26.1444 5.21994 25.7742 5.21953H22.2672V3.78203H26.9727C27.4402 3.78265 27.8885 3.96889 28.2188 4.29982C28.5491 4.63074 28.7346 5.07929 28.7344 5.54688V37.0633Z" fill="black"/>
<path d="M14.9538 20.4802C15.9066 20.4792 16.82 20.1002 17.4938 19.4265C18.1675 18.7528 18.5465 17.8393 18.5475 16.8865C18.5475 14.2451 16.2092 12.0974 15.4928 11.5021C15.3415 11.3767 15.1511 11.3081 14.9545 11.3081C14.758 11.3081 14.5676 11.3767 14.4163 11.5021C13.6999 12.0966 11.3616 14.2443 11.3616 16.8857C11.3624 17.8384 11.7411 18.7518 12.4145 19.4257C13.0879 20.0995 14.0011 20.4788 14.9538 20.4802ZM14.9538 12.5849C17.253 14.5998 17.3756 16.5123 17.3756 16.8818C17.3923 17.2098 17.3421 17.5377 17.2281 17.8457C17.1141 18.1537 16.9386 18.4352 16.7124 18.6733C16.4861 18.9113 16.2138 19.1008 15.912 19.2304C15.6103 19.3599 15.2853 19.4267 14.9569 19.4267C14.6285 19.4267 14.3035 19.3599 14.0017 19.2304C13.6999 19.1008 13.4277 18.9113 13.2014 18.6733C12.9752 18.4352 12.7997 18.1537 12.6857 17.8457C12.5717 17.5377 12.5215 17.2098 12.5381 16.8818C12.5319 16.5123 12.6545 14.5998 14.9538 12.5849Z" fill="black"/>
<path d="M6.41863 24.1174C6.31599 24.2345 6.26395 24.3874 6.27391 24.5428C6.28387 24.6982 6.35501 24.8433 6.47175 24.9463L7.6616 25.9924C7.72037 26.0436 7.78871 26.0826 7.86266 26.1072C7.93661 26.1319 8.0147 26.1416 8.09244 26.1359C8.17017 26.1301 8.24599 26.109 8.31552 26.0738C8.38505 26.0386 8.44692 25.9899 8.49753 25.9307L10.2663 23.8377C10.3668 23.7189 10.4159 23.565 10.403 23.4099C10.39 23.2548 10.316 23.1112 10.1971 23.0107C10.0783 22.9103 9.92443 22.8611 9.76935 22.8741C9.61426 22.887 9.47068 22.9611 9.37019 23.0799L7.98738 24.7158L7.24753 24.0627C7.13035 23.9601 6.9772 23.9082 6.82176 23.9184C6.66632 23.9287 6.52131 24.0002 6.41863 24.1174Z" fill="black"/>
<path d="M12.8296 23.2767C12.8298 23.4324 12.8918 23.5817 13.0019 23.6917C13.1121 23.8017 13.2614 23.8635 13.4171 23.8635H23.0483C23.1985 23.8557 23.34 23.7906 23.4435 23.6816C23.5471 23.5725 23.6048 23.4279 23.6048 23.2775C23.6048 23.1272 23.5471 22.9825 23.4435 22.8735C23.34 22.7645 23.1985 22.6993 23.0483 22.6916H13.4171C13.2617 22.6916 13.1126 22.7532 13.0025 22.8628C12.8924 22.9725 12.8302 23.1213 12.8296 23.2767Z" fill="black"/>
<path d="M13.4173 26.354H19.2431C19.3226 26.3581 19.402 26.346 19.4767 26.3184C19.5514 26.2908 19.6196 26.2483 19.6774 26.1935C19.7351 26.1387 19.781 26.0727 19.8124 25.9996C19.8439 25.9264 19.86 25.8477 19.86 25.7681C19.86 25.6885 19.8439 25.6097 19.8124 25.5366C19.781 25.4634 19.7351 25.3974 19.6774 25.3426C19.6196 25.2878 19.5514 25.2453 19.4767 25.2177C19.402 25.1901 19.3226 25.178 19.2431 25.1821H13.4173C13.3378 25.178 13.2583 25.1901 13.1836 25.2177C13.109 25.2453 13.0407 25.2878 12.983 25.3426C12.9253 25.3974 12.8793 25.4634 12.8479 25.5366C12.8165 25.6097 12.8003 25.6885 12.8003 25.7681C12.8003 25.8477 12.8165 25.9264 12.8479 25.9996C12.8793 26.0727 12.9253 26.1387 12.983 26.1935C13.0407 26.2483 13.109 26.2908 13.1836 26.3184C13.2583 26.346 13.3378 26.3581 13.4173 26.354Z" fill="black"/>
<path d="M10.1969 29.2765C10.138 29.2268 10.07 29.1891 9.99661 29.1656C9.92322 29.1422 9.84592 29.1334 9.76915 29.1399C9.69237 29.1463 9.61762 29.1679 9.54918 29.2033C9.48074 29.2386 9.41995 29.2872 9.37029 29.3461L7.98748 30.982L7.24763 30.3305C7.13077 30.2276 6.97783 30.1753 6.82245 30.1852C6.66708 30.1951 6.52199 30.2663 6.41912 30.3832C6.31624 30.5 6.264 30.653 6.27389 30.8084C6.28378 30.9637 6.35499 31.1088 6.47185 31.2117L7.66169 32.2586C7.72056 32.3096 7.78892 32.3484 7.86285 32.373C7.93677 32.3975 8.01481 32.4071 8.09248 32.4014C8.17016 32.3957 8.24593 32.3746 8.31546 32.3395C8.38498 32.3044 8.44689 32.2559 8.49763 32.1969L10.2664 30.1039C10.3162 30.045 10.3539 29.9769 10.3774 29.9035C10.4008 29.83 10.4096 29.7526 10.4031 29.6758C10.3967 29.599 10.3751 29.5242 10.3397 29.4556C10.3043 29.3871 10.2558 29.3263 10.1969 29.2765Z" fill="black"/>
<path d="M23.0485 28.9563H13.4173C13.3378 28.9522 13.2583 28.9644 13.1836 28.9919C13.109 29.0195 13.0407 29.062 12.983 29.1168C12.9253 29.1717 12.8793 29.2376 12.8479 29.3108C12.8165 29.3839 12.8003 29.4627 12.8003 29.5423C12.8003 29.6219 12.8165 29.7006 12.8479 29.7738C12.8793 29.8469 12.9253 29.9129 12.983 29.9677C13.0407 30.0225 13.109 30.065 13.1836 30.0926C13.2583 30.1202 13.3378 30.1323 13.4173 30.1282H23.0485C23.1987 30.1205 23.3402 30.0553 23.4437 29.9463C23.5472 29.8373 23.605 29.6927 23.605 29.5423C23.605 29.3919 23.5472 29.2473 23.4437 29.1383C23.3402 29.0292 23.1987 28.9641 23.0485 28.9563Z" fill="black"/>
<path d="M19.243 31.446H13.4172C13.3366 31.4401 13.2557 31.4509 13.1796 31.4776C13.1034 31.5044 13.0335 31.5466 12.9744 31.6016C12.9152 31.6566 12.868 31.7232 12.8358 31.7972C12.8035 31.8712 12.7869 31.9511 12.7869 32.0319C12.7869 32.1127 12.8035 32.1925 12.8358 32.2666C12.868 32.3406 12.9152 32.4072 12.9744 32.4622C13.0335 32.5172 13.1034 32.5594 13.1796 32.5862C13.2557 32.6129 13.3366 32.6237 13.4172 32.6178H19.243C19.391 32.607 19.5294 32.5406 19.6304 32.4319C19.7315 32.3232 19.7876 32.1803 19.7876 32.0319C19.7876 31.8835 19.7315 31.7406 19.6304 31.6319C19.5294 31.5232 19.391 31.4568 19.243 31.446Z" fill="black"/>
</svg>
