<svg width="24" height="25" viewBox="0 0 24 25" fill="none" xmlns="http://www.w3.org/2000/svg">
<path d="M6.54534 12.5665H11.1408V17.1619C11.1408 17.629 11.525 18.0207 11.9996 18.0207C12.4742 18.0207 12.8584 17.629 12.8584 17.1619V12.5665H17.4538C17.9209 12.5665 18.3126 12.1823 18.3126 11.7077C18.3126 11.233 17.9209 10.8488 17.4538 10.8488H12.8584V6.25341C12.8584 5.78633 12.4742 5.39459 11.9996 5.39459C11.525 5.39459 11.1408 5.78633 11.1408 6.25341V10.8488H6.54534C6.07826 10.8488 5.68652 11.233 5.68652 11.7077C5.68652 12.1823 6.07826 12.5665 6.54534 12.5665Z" fill="#41B9D5"/>
</svg>
