<svg width="40" height="40" viewBox="0 0 40 40" fill="none" xmlns="http://www.w3.org/2000/svg">
<path d="M36.1289 21.2896L27.0967 30.967V39.3541H12.9031V30.967L3.87085 21.2896L7.09666 18.709L16.7741 27.7412V31.6122C17.5999 30.7864 18.7225 30.3219 19.8902 30.3219H19.9999H20.1096C21.2773 30.3219 22.3999 30.7864 23.2257 31.6122V27.7412L32.9031 18.709L36.1289 21.2896Z" fill="#FCD770"/>
<path d="M23.2256 27.7413V31.6123C22.3998 30.7865 21.2772 30.322 20.1094 30.322H19.9998L23.2256 27.7413Z" fill="#FFC729"/>
<path d="M20 30.322H19.8903C18.7226 30.322 17.6 30.7865 16.7742 31.6123V27.7413L20 30.322Z" fill="#FFC729"/>
<path d="M37.9353 18.0641C38.7224 18.0641 39.3547 18.6964 39.3547 19.4835C39.3547 20.1609 38.8773 20.7415 38.2128 20.8706L36.1289 21.2899L32.9031 18.7093L33.1611 17.9415C33.3934 17.2448 34.045 16.7738 34.7805 16.7738C35.2321 16.7738 35.6644 16.9544 35.9805 17.2706L36.774 18.0641H37.9353Z" fill="#F0D0B4"/>
<path d="M38.7096 7.74147C39.1225 8.15438 39.3547 8.71567 39.3547 9.29631C39.3547 9.94793 39.0644 10.5608 38.5676 10.9802L35.4838 13.5479L32.3999 10.9802C31.9031 10.5608 31.6128 9.94793 31.6128 9.29631C31.6128 8.71567 31.8451 8.15438 32.258 7.74147C32.6709 7.32857 33.2321 7.09631 33.8128 7.09631H33.9289C34.5096 7.09631 35.0709 7.32857 35.4838 7.74147C35.8967 7.32857 36.458 7.09631 37.0386 7.09631H37.1547C37.7354 7.09631 38.2967 7.32857 38.7096 7.74147Z" fill="#FF826E"/>
<path d="M29.6773 1.28957C30.0902 1.70247 30.3225 2.26376 30.3225 2.84441C30.3225 3.49602 30.0322 4.10893 29.5354 4.52828L26.4515 7.09602L23.3677 4.52828C22.8709 4.10893 22.5806 3.49602 22.5806 2.84441C22.5806 2.26376 22.8128 1.70247 23.2257 1.28957C23.6386 0.876667 24.1999 0.644409 24.7806 0.644409H24.8967C25.4773 0.644409 26.0386 0.876667 26.4515 1.28957C26.8644 0.876667 27.4257 0.644409 28.0064 0.644409H28.1225C28.7031 0.644409 29.2644 0.876667 29.6773 1.28957Z" fill="#FF826E"/>
<path d="M25.161 16.7867C24.7675 17.1738 24.232 17.419 23.6256 17.419C22.9675 17.419 22.3417 17.1157 21.9288 16.5996L21.161 15.6448C20.4256 14.7286 19.3159 14.1932 18.1417 14.1932H18.0643C17.2256 14.1932 16.3997 14.4448 15.703 14.9093C15.161 15.2706 14.8385 15.8706 14.8385 16.5222V16.6706C14.8385 16.7415 14.8385 16.8061 14.8449 16.877L14.9288 18.0641H14.1933C13.6772 18.0641 13.2127 18.2641 12.8707 18.5867L12.4449 16.8835C12.3223 16.3802 12.2578 15.8706 12.2578 15.348C12.2578 13.6061 12.9675 12.0254 14.1094 10.8835C15.2514 9.74154 16.832 9.03186 18.5739 9.03186H21.4256C24.9094 9.03186 27.7417 11.8641 27.7417 15.348C27.7417 15.8706 27.6772 16.3802 27.5546 16.8835L27.1288 18.5867C26.7868 18.2641 26.3223 18.0641 25.8062 18.0641H25.0707L25.161 16.7867Z" fill="#656D78"/>
<path d="M27.1289 18.5867C27.5096 18.9415 27.7418 19.4447 27.7418 19.9996C27.7418 20.5351 27.5225 21.0189 27.1741 21.3673C26.8257 21.7157 26.3418 21.9351 25.8064 21.9351H24.7483C24.7935 21.7286 24.8257 21.5157 24.8386 21.3028L25.0709 18.0641H25.8064C26.3225 18.0641 26.787 18.2641 27.1289 18.5867Z" fill="#F0D0B4"/>
<path d="M25.1612 16.7867L25.0709 18.0641L24.8386 21.3028C24.8257 21.5157 24.7935 21.7286 24.7483 21.9351C24.4386 23.4705 23.4064 24.7286 22.0322 25.3544C21.4128 25.6447 20.7225 25.806 19.9999 25.806C19.2773 25.806 18.587 25.6447 17.9677 25.3544C17.4967 25.1415 17.0709 24.8512 16.6967 24.5028C15.9741 23.8318 15.458 22.9415 15.2515 21.9351C15.2064 21.7286 15.1741 21.5157 15.1612 21.3028L14.9289 18.0641L14.8451 16.877C14.8386 16.806 14.8386 16.7415 14.8386 16.6705V16.5221C14.8386 15.8705 15.1612 15.2705 15.7031 14.9092C16.3999 14.4447 17.2257 14.1931 18.0644 14.1931H18.1418C19.316 14.1931 20.4257 14.7286 21.1612 15.6447L21.9289 16.5996C22.3418 17.1157 22.9677 17.4189 23.6257 17.4189C24.2322 17.4189 24.7677 17.1738 25.1612 16.7867Z" fill="#F0D0B4"/>
<path d="M22.0322 25.3612L23.2258 27.7418L20 30.3225L16.7742 27.7418L17.9677 25.3612V25.3547C18.5871 25.6451 19.2774 25.8063 20 25.8063C20.7226 25.8063 21.4129 25.6451 22.0322 25.3547V25.3612Z" fill="#F0D0B4"/>
<path d="M21.9354 20.6444V21.2896C21.9354 22.3605 21.0709 23.2251 19.9999 23.2251C18.929 23.2251 18.0645 22.3605 18.0645 21.2896V20.6444H21.9354Z" fill="#FF826E"/>
<path d="M16.774 1.28957C17.1869 1.70247 17.4192 2.26376 17.4192 2.84441C17.4192 3.49602 17.1289 4.10893 16.6321 4.52828L13.5482 7.09602L10.4643 4.52828C9.96757 4.10893 9.67725 3.49602 9.67725 2.84441C9.67725 2.26376 9.9095 1.70247 10.3224 1.28957C10.7353 0.876667 11.2966 0.644409 11.8772 0.644409H11.9934C12.574 0.644409 13.1353 0.876667 13.5482 1.28957C13.9611 0.876667 14.5224 0.644409 15.1031 0.644409H15.2192C15.7998 0.644409 16.3611 0.876667 16.774 1.28957Z" fill="#FF826E"/>
<path d="M15.2514 21.9351H14.1933C13.6578 21.9351 13.1739 21.7157 12.8256 21.3673C12.4772 21.0189 12.2578 20.5351 12.2578 19.9996C12.2578 19.4447 12.4901 18.9415 12.8707 18.5867C13.2127 18.2641 13.6772 18.0641 14.1933 18.0641H14.9288L15.161 21.3028C15.1739 21.5157 15.2062 21.7286 15.2514 21.9351Z" fill="#F0D0B4"/>
<path d="M7.74179 7.74147C8.1547 8.15438 8.38695 8.71567 8.38695 9.29631C8.38695 9.94793 8.09663 10.5608 7.59986 10.9802L4.51599 13.5479L1.43212 10.9802C0.935342 10.5608 0.64502 9.94793 0.64502 9.29631C0.64502 8.71567 0.877278 8.15438 1.29018 7.74147C1.70308 7.32857 2.26437 7.09631 2.84502 7.09631H2.96115C3.54179 7.09631 4.10308 7.32857 4.51599 7.74147C4.92889 7.32857 5.49018 7.09631 6.07083 7.09631H6.18695C6.7676 7.09631 7.32889 7.32857 7.74179 7.74147Z" fill="#FF826E"/>
<path d="M6.83857 17.9415L7.09663 18.7093L3.87083 21.2899L1.78695 20.8706C1.12244 20.7415 0.64502 20.1609 0.64502 19.4835C0.64502 19.0899 0.799858 18.7351 1.05792 18.477C1.31599 18.219 1.67083 18.0641 2.06437 18.0641H3.22566L4.01921 17.2706C4.33534 16.9544 4.7676 16.7738 5.21921 16.7738C5.9547 16.7738 6.60631 17.2448 6.83857 17.9415Z" fill="#F0D0B4"/>
<path d="M20.0001 23.871C21.4233 23.871 22.5807 22.7135 22.5807 21.2903V20H17.4194V21.2903C17.4194 22.7135 18.5769 23.871 20.0001 23.871ZM21.2904 21.2903C21.2904 22.0019 20.7117 22.5806 20.0001 22.5806C19.2885 22.5806 18.7098 22.0019 18.7098 21.2903H21.2904Z" fill="black"/>
<path d="M13.5484 7.93677L17.0438 5.02387C17.6922 4.48323 18.0645 3.68839 18.0645 2.84387C18.0645 2.08645 17.7696 1.37419 17.2303 0.834194C16.6922 0.296129 15.9774 0 15.2167 0H15.1058C14.5445 0 14.0077 0.16129 13.5484 0.462581C13.089 0.16129 12.5522 0 11.9909 0H11.88C11.1193 0 10.4045 0.296129 9.86255 0.837419C9.32707 1.37355 9.03223 2.08645 9.03223 2.84387C9.03223 3.68903 9.40449 4.48323 10.0529 5.02387L13.5484 7.93677ZM10.7787 1.7471C11.0729 1.45226 11.4645 1.29032 11.88 1.29032H11.9909C12.4071 1.29032 12.798 1.45226 13.0922 1.7471L13.5484 2.20258L14.0045 1.7471C14.2987 1.45226 14.6903 1.29032 15.1058 1.29032H15.2167C15.6329 1.29032 16.0238 1.45226 16.3206 1.74903C16.6129 2.04194 16.7742 2.43097 16.7742 2.84387C16.7742 3.30452 16.5716 3.73806 16.2174 4.0329L13.5484 6.25677L10.8793 4.0329C10.5251 3.73806 10.3225 3.30452 10.3225 2.84387C10.3225 2.43097 10.4838 2.04194 10.7787 1.7471Z" fill="black"/>
<path d="M4.51613 14.3884L8.01161 11.4755C8.66 10.9349 9.03226 10.14 9.03226 9.29553C9.03226 8.53811 8.73742 7.82585 8.19806 7.28585C7.66 6.74779 6.94516 6.45166 6.18452 6.45166H6.07355C5.51226 6.45166 4.97548 6.61295 4.51613 6.91424C4.05677 6.61295 3.52 6.45166 2.95871 6.45166H2.84774C2.0871 6.45166 1.37226 6.74779 0.830323 7.28908C0.294839 7.82521 0 8.53811 0 9.29553C0 10.1407 0.372258 10.9349 1.02065 11.4755L4.51613 14.3884ZM1.74645 8.19876C2.04065 7.90392 2.43226 7.74198 2.84774 7.74198H2.95871C3.37484 7.74198 3.76581 7.90392 4.06 8.19876L4.51613 8.65424L4.97226 8.19876C5.26645 7.90392 5.65806 7.74198 6.07355 7.74198H6.18452C6.60065 7.74198 6.99161 7.90392 7.28839 8.20069C7.58065 8.4936 7.74194 8.88263 7.74194 9.29553C7.74194 9.75618 7.53935 10.1897 7.18516 10.4846L4.51613 12.7084L1.8471 10.4846C1.4929 10.1897 1.29032 9.75618 1.29032 9.29553C1.29032 8.88263 1.45161 8.4936 1.74645 8.19876Z" fill="black"/>
<path d="M26.4517 7.93677L29.9472 5.02387C30.5955 4.48323 30.9678 3.68839 30.9678 2.84387C30.9678 2.08645 30.673 1.37419 30.1336 0.834194C29.5955 0.296129 28.8807 0 28.1201 0H28.0091C27.4478 0 26.911 0.16129 26.4517 0.462581C25.9923 0.16129 25.4555 0 24.8943 0H24.7833C24.0226 0 23.3078 0.296129 22.7659 0.837419C22.2304 1.37355 21.9355 2.08645 21.9355 2.84387C21.9355 3.68903 22.3078 4.48323 22.9562 5.02387L26.4517 7.93677ZM23.682 1.7471C23.9762 1.45226 24.3678 1.29032 24.7833 1.29032H24.8943C25.3104 1.29032 25.7014 1.45226 25.9955 1.7471L26.4517 2.20258L26.9078 1.7471C27.202 1.45226 27.5936 1.29032 28.0091 1.29032H28.1201C28.5362 1.29032 28.9272 1.45226 29.2239 1.74903C29.5162 2.04194 29.6775 2.43097 29.6775 2.84387C29.6775 3.30452 29.4749 3.73806 29.1207 4.0329L26.4517 6.25677L23.7826 4.0329C23.4284 3.73806 23.2259 3.30452 23.2259 2.84387C23.2259 2.43097 23.3872 2.04194 23.682 1.7471Z" fill="black"/>
<path d="M31.9884 11.4755L35.4839 14.3884L38.9794 11.4755C39.6278 10.9349 40 10.14 40 9.29553C40 8.53811 39.7052 7.82585 39.1658 7.28585C38.6278 6.74779 37.9129 6.45166 37.1523 6.45166H37.0413C36.48 6.45166 35.9433 6.61295 35.4839 6.91424C35.0245 6.61295 34.4878 6.45166 33.9265 6.45166H33.8155C33.0549 6.45166 32.34 6.74779 31.7981 7.28908C31.2626 7.82521 30.9678 8.53811 30.9678 9.29553C30.9678 10.14 31.34 10.9349 31.9884 11.4755ZM32.7142 8.19876C33.0084 7.90392 33.4 7.74198 33.8155 7.74198H33.9265C34.3426 7.74198 34.7336 7.90392 35.0278 8.19876L35.4839 8.65424L35.94 8.19876C36.2342 7.90392 36.6258 7.74198 37.0413 7.74198H37.1523C37.5684 7.74198 37.9594 7.90392 38.2562 8.20069C38.5484 8.4936 38.7097 8.88263 38.7097 9.29553C38.7097 9.75618 38.5071 10.1897 38.1529 10.4846L35.4839 12.7084L32.8149 10.4846C32.4607 10.1897 32.2581 9.75618 32.2581 9.29553C32.2581 8.88263 32.4194 8.4936 32.7142 8.19876Z" fill="black"/>
<path d="M37.9368 17.4193H37.0413L36.4394 16.8174C35.9955 16.3735 35.4052 16.129 34.7774 16.129C33.7645 16.129 32.8684 16.7748 32.5477 17.7361L32.3432 18.3497L23.4168 26.6813L22.8877 25.6226C23.9968 24.9322 24.8452 23.8574 25.2432 22.5813H25.8064C27.2297 22.5813 28.3871 21.4239 28.3871 20.0006C28.3871 19.4039 28.1748 18.8606 27.8335 18.4226L28.18 17.04C28.3174 16.4864 28.3871 15.9187 28.3871 15.351C28.3871 11.511 25.2632 8.38708 21.4232 8.38708H18.5768C14.7368 8.38708 11.6129 11.511 11.6129 15.351C11.6129 15.9181 11.6826 16.4864 11.8206 17.04L12.1665 18.4213C11.8252 18.86 11.6129 19.4032 11.6129 20C11.6129 21.4232 12.7703 22.5806 14.1935 22.5806H14.7574C15.1555 23.8568 16.0032 24.9322 17.1129 25.6219L16.5839 26.6806L7.65677 18.3497L7.45226 17.7355C7.13161 16.7748 6.23548 16.129 5.22258 16.129C4.59484 16.129 4.00452 16.3735 3.56065 16.8174L2.95871 17.4193H2.06323C0.925806 17.4193 0 18.3451 0 19.4826C0 20.4626 0.697419 21.3135 1.65806 21.5058L3.54064 21.8819L12.2581 31.2219V40H27.7419V31.2219L36.4594 21.8819L38.3419 21.5058C39.3026 21.3135 40 20.4626 40 19.4826C40 18.3451 39.0742 17.4193 37.9368 17.4193ZM17.4194 29.0845L18.4355 29.8974C18.0826 30.0032 17.7406 30.1393 17.4194 30.32V29.0845ZM25.8064 21.2903H25.4852L25.6697 18.7097H25.8064C26.5181 18.7097 27.0968 19.2884 27.0968 20C27.0968 20.7116 26.5181 21.2903 25.8064 21.2903ZM12.9032 20C12.9032 19.2884 13.4819 18.7097 14.1935 18.7097H14.3303L14.5142 21.2903H14.1935C13.4819 21.2903 12.9032 20.7116 12.9032 20ZM14.1935 16.5193V16.6716C14.1935 16.7561 14.1968 16.84 14.2032 16.9219L14.2387 17.4193H14.1935C13.8742 17.4193 13.5716 17.4851 13.2884 17.5916L13.0723 16.7277C12.96 16.2768 12.9032 15.8135 12.9032 15.351C12.9032 12.2226 15.4484 9.67741 18.5768 9.67741H21.4232C24.5516 9.67741 27.0968 12.2226 27.0968 15.351C27.0968 15.8129 27.04 16.2768 26.9277 16.7271L26.7116 17.5916C26.429 17.4851 26.1258 17.4193 25.8064 17.4193H25.7619L25.7877 17.0574C26.2019 16.5664 26.4516 15.9322 26.4516 15.2406V14.8387H25.1613V15.2406C25.1613 16.0864 24.4735 16.7742 23.6277 16.7742C23.1594 16.7742 22.7232 16.5645 22.431 16.1981L21.6665 15.2432C20.8045 14.1664 19.5194 13.5484 18.1394 13.5484H18.0645C17.0929 13.5484 16.1516 13.8335 15.3426 14.3722C14.6232 14.8522 14.1935 15.6548 14.1935 16.5193ZM15.8052 21.2555L15.4897 16.8284C15.4858 16.7761 15.4839 16.7239 15.4839 16.6716V16.5193C15.4839 16.0871 15.6987 15.6858 16.0587 15.4458C16.6542 15.049 17.3484 14.8387 18.0645 14.8387H18.1394C19.1245 14.8387 20.0426 15.28 20.6581 16.0497L21.4226 17.0045C21.9613 17.6781 22.7652 18.0645 23.6277 18.0645C23.9065 18.0645 24.1761 18.0239 24.4303 17.9484L24.1948 21.2555C24.0381 23.4458 22.1955 25.1613 20 25.1613C17.8045 25.1613 15.9619 23.4458 15.8052 21.2555ZM20 26.4516C20.5987 26.4516 21.1755 26.349 21.7181 26.1684L22.4155 27.5639L20 29.4961L17.5845 27.5639L18.2819 26.1684C18.8245 26.349 19.4013 26.4516 20 26.4516ZM22.5806 29.0845V30.32C22.2594 30.1393 21.9174 30.0032 21.5645 29.8974L22.5806 29.0845ZM1.29032 19.4826C1.29032 19.0568 1.63677 18.7097 2.06323 18.7097H3.4929L4.4729 17.7297C4.6729 17.5297 4.93935 17.4193 5.22258 17.4193C5.67935 17.4193 6.08387 17.711 6.22903 18.1439L6.34323 18.4864L3.70323 20.5987L1.91226 20.2406C1.55161 20.1684 1.29032 19.8497 1.29032 19.4826ZM26.4516 30.7135V38.7097H13.5484V30.7135L4.81806 21.3593L7.06452 19.5619L16.129 28.0226V33.171L17.2303 32.069C17.9406 31.3587 18.8845 30.9677 19.889 30.9677H20.111C21.1155 30.9677 22.06 31.3587 22.7697 32.069L23.871 33.171V28.0226L32.9355 19.5619L35.1819 21.3593L26.4516 30.7135ZM38.0884 20.2406L36.2974 20.5987L33.6574 18.4864L33.7716 18.1445C33.9161 17.711 34.3206 17.4193 34.7774 17.4193C35.06 17.4193 35.3271 17.5297 35.5271 17.7297L36.5071 18.7097H37.9368C38.3632 18.7097 38.7097 19.0568 38.7097 19.4826C38.7097 19.8497 38.4484 20.1684 38.0884 20.2406Z" fill="black"/>
</svg>
