<svg width="16" height="16" viewBox="0 0 16 16" fill="none" xmlns="http://www.w3.org/2000/svg">
<g clip-path="url(#clip0_1454_16664)">
<path d="M13.1669 2.14454L8.32956 0.825261C8.11378 0.766417 7.88622 0.766417 7.67044 0.825261L2.83309 2.14454C2.62825 2.20042 2.45756 2.33848 2.3619 2.52801C2.14447 2.95879 1.61894 3.7772 0.568686 4.33326C0.36978 4.43857 0.261405 4.66082 0.309905 4.8806C0.634123 6.34951 2.15672 11.664 7.73687 15.1055C7.89697 15.2043 8.10309 15.2043 8.26319 15.1055C13.8433 11.664 15.3659 6.34954 15.6902 4.8806C15.7387 4.66082 15.6303 4.43857 15.4314 4.33326C14.3811 3.7772 13.8556 2.95879 13.6382 2.52801C13.5424 2.33848 13.3717 2.20039 13.1669 2.14454Z" fill="#ECEAEC"/>
<path d="M12.2732 3.45872L8.19775 2.34729C8.06828 2.31197 7.93175 2.31197 7.80228 2.34729L3.72687 3.45875C3.60959 3.49075 3.50631 3.56313 3.44094 3.66563C3.178 4.07797 2.78165 4.58016 2.21006 5.04279C2.05344 5.16954 1.99225 5.38035 2.05312 5.57244C2.64222 7.43135 4.1395 10.7652 7.7124 13.2891C7.88362 13.41 8.1164 13.41 8.28762 13.2891C11.8611 10.7652 13.3578 7.43144 13.9469 5.57244C14.0078 5.38038 13.9466 5.16957 13.79 5.04282C13.2184 4.58019 12.822 4.07797 12.5591 3.66563C12.4937 3.5631 12.3904 3.49072 12.2732 3.45872Z" fill="#A4CCFF"/>
<path d="M12.008 13.2605C13.1148 13.2605 14.0121 12.3633 14.0121 11.2565C14.0121 10.1497 13.1148 9.25244 12.008 9.25244C10.9012 9.25244 10.004 10.1497 10.004 11.2565C10.004 12.3633 10.9012 13.2605 12.008 13.2605Z" fill="#FF8086"/>
<path d="M12.4465 12.8222C11.3397 12.8222 10.4424 11.925 10.4424 10.8182C10.4424 10.3767 10.5869 9.96995 10.8287 9.63879C10.3296 10.0033 10.004 10.5912 10.004 11.2565C10.004 12.3633 10.9013 13.2606 12.008 13.2606C12.6734 13.2606 13.2613 12.935 13.6258 12.4359C13.2947 12.6777 12.8879 12.8222 12.4465 12.8222Z" fill="#E83D62"/>
<path d="M7.80228 2.34718L3.72684 3.45865C3.60956 3.49065 3.50628 3.56302 3.44091 3.66552C3.178 4.07787 2.78166 4.58005 2.21003 5.04268C2.05341 5.16946 1.99225 5.38027 2.05309 5.57234C2.64219 7.43124 4.13947 10.7651 7.71238 13.289C7.798 13.3494 7.89897 13.3797 8 13.3797V2.32068C7.9335 2.32068 7.867 2.32952 7.80228 2.34718Z" fill="#41B9D5"/>
<path d="M8.58106 14.7689C2.34506 11.0444 1.05621 4.90726 0.929774 4.21972L0.913056 4.12866C0.804618 4.19951 0.690962 4.26841 0.568681 4.33316C0.369806 4.43847 0.261399 4.66072 0.309931 4.88051C0.634118 6.34944 2.15671 11.6639 7.73687 15.1054C7.89699 15.2042 8.10309 15.2042 8.26318 15.1054C8.40812 15.0161 8.54868 14.9247 8.68818 14.8329L8.58106 14.7689Z" fill="#DAD8DB"/>
<path d="M12.0081 10.7394C12.1375 10.7394 12.2424 10.6345 12.2424 10.505V10.2545C12.2424 10.1251 12.1375 10.0201 12.0081 10.0201C11.8786 10.0201 11.7737 10.1251 11.7737 10.2545V10.505C11.7737 10.6345 11.8786 10.7394 12.0081 10.7394Z" fill="black"/>
<path d="M11.7737 12.2586C11.7737 12.388 11.8786 12.4929 12.0081 12.4929C12.1375 12.4929 12.2424 12.388 12.2424 12.2586V12.0081C12.2424 11.8786 12.1375 11.7737 12.0081 11.7737C11.8786 11.7737 11.7737 11.8786 11.7737 12.0081V12.2586Z" fill="black"/>
<path d="M15.0141 11.0221H14.2341C14.2092 10.7839 14.1464 10.557 14.0525 10.3468L14.7285 9.95649C14.8406 9.89177 14.879 9.74843 14.8143 9.63633C14.7496 9.52421 14.6062 9.4858 14.4942 9.55055L13.8176 9.94118C13.6796 9.75186 13.5127 9.58502 13.3234 9.44702L13.714 8.77043C13.7788 8.65833 13.7404 8.51499 13.6283 8.45027C13.5162 8.38552 13.3728 8.42396 13.3081 8.53605L12.9178 9.21211C12.7076 9.11821 12.4806 9.05536 12.2425 9.03046V8.25049C12.2425 8.12105 12.1375 8.01611 12.0081 8.01611C11.8786 8.01611 11.7737 8.12105 11.7737 8.25049V9.03046C11.5355 9.05536 11.3085 9.11821 11.0983 9.21211L10.708 8.53605C10.6433 8.42396 10.5 8.38552 10.3879 8.45027C10.2758 8.51499 10.2374 8.65833 10.3021 8.77043L10.6927 9.44702C10.5034 9.58502 10.3365 9.75186 10.1985 9.94118L9.52195 9.55055C9.40986 9.4858 9.26651 9.52424 9.2018 9.63633C9.13708 9.74843 9.17548 9.89177 9.28758 9.95649L9.96364 10.3468C9.86973 10.557 9.80689 10.784 9.78198 11.0221H9.00201C8.87258 11.0221 8.76764 11.1271 8.76764 11.2565C8.76764 11.386 8.87258 11.4909 9.00201 11.4909H9.78211C9.80664 11.7245 9.8677 11.9528 9.96286 12.1667L9.28758 12.5566C9.17548 12.6213 9.13708 12.7646 9.2018 12.8767C9.2452 12.9519 9.32398 12.994 9.40498 12.994C9.44473 12.994 9.48505 12.9838 9.52195 12.9625L10.3897 12.4615C10.5018 12.3968 10.5402 12.2535 10.4755 12.1414C10.4747 12.1399 10.4737 12.1386 10.4728 12.1372C10.3195 11.8705 10.2384 11.5661 10.2384 11.2565C10.2384 10.2807 11.0323 9.48686 12.0081 9.48686C12.9839 9.48686 13.7777 10.2807 13.7777 11.2565C13.7777 12.2323 12.9839 13.0262 12.0081 13.0262C11.6985 13.0262 11.3942 12.9451 11.1276 12.7919C11.1261 12.791 11.1247 12.79 11.1232 12.7891C11.0111 12.7243 10.8678 12.7628 10.8031 12.8749L10.3021 13.7426C10.2374 13.8547 10.2758 13.9981 10.3879 14.0628C10.4248 14.0841 10.4651 14.0942 10.5048 14.0942C10.5858 14.0942 10.6646 14.0522 10.708 13.977L11.0979 13.3017C11.3118 13.3969 11.5401 13.4579 11.7737 13.4825V14.2626C11.7737 14.392 11.8786 14.4969 12.0081 14.4969C12.1375 14.4969 12.2425 14.392 12.2425 14.2626V13.4826C12.4807 13.4577 12.7076 13.3948 12.9178 13.3009L13.3081 13.977C13.3515 14.0522 13.4303 14.0942 13.5113 14.0942C13.551 14.0942 13.5914 14.0841 13.6283 14.0628C13.7404 13.9981 13.7788 13.8547 13.714 13.7426L13.3234 13.066C13.5127 12.928 13.6796 12.7612 13.8176 12.5719L14.4942 12.9625C14.5311 12.9838 14.5714 12.9939 14.6111 12.9939C14.6921 12.9939 14.7709 12.9519 14.8143 12.8767C14.879 12.7646 14.8406 12.6213 14.7285 12.5566L14.0525 12.1662C14.1464 11.9561 14.2092 11.7291 14.2341 11.4909H15.0141C15.1435 11.4909 15.2485 11.3859 15.2485 11.2565C15.2485 11.1271 15.1435 11.0221 15.0141 11.0221Z" fill="black"/>
<path d="M13.0101 11.4908C13.1395 11.4908 13.2444 11.3859 13.2444 11.2565C13.2444 11.127 13.1395 11.0221 13.0101 11.0221H12.7596C12.6301 11.0221 12.5252 11.127 12.5252 11.2565C12.5252 11.3859 12.6301 11.4908 12.7596 11.4908H13.0101Z" fill="black"/>
<path d="M11.006 11.4908H11.2565C11.386 11.4908 11.4909 11.3859 11.4909 11.2565C11.4909 11.127 11.386 11.0221 11.2565 11.0221H11.006C10.8766 11.0221 10.7717 11.127 10.7717 11.2565C10.7717 11.3859 10.8766 11.4908 11.006 11.4908Z" fill="black"/>
<path d="M15.8579 4.27749C14.2294 3.57953 13.738 2.17778 13.7334 2.16425C13.7087 2.0899 13.6483 2.03287 13.5728 2.01225L8.06167 0.50925C8.02129 0.498219 7.9787 0.498219 7.93832 0.50925L2.42724 2.01228C2.35205 2.03278 2.29177 2.0899 2.26674 2.16372C2.26196 2.17778 1.77062 3.57956 0.142028 4.27752C0.0442158 4.31946 -0.0130653 4.42202 0.00252839 4.5273C0.0129659 4.59787 0.271153 6.28052 1.37118 8.48058C2.01637 9.77095 2.81896 10.9701 3.75658 12.0447C4.92877 13.3881 6.31623 14.5393 7.88045 15.4662C7.91729 15.4881 7.95861 15.499 7.99995 15.499C8.04126 15.499 8.08261 15.4881 8.11945 15.4662C8.64692 15.1536 9.16004 14.8119 9.64451 14.4505C9.74826 14.3731 9.7696 14.2262 9.6922 14.1224C9.61482 14.0187 9.46795 13.9973 9.3642 14.0747C8.92957 14.3989 8.4712 14.7069 7.99992 14.9915C6.53092 14.1047 5.22536 13.0132 4.11768 11.7456C3.20677 10.7032 2.42655 9.53976 1.79871 8.28752C1.01678 6.72799 0.624121 5.30708 0.495902 4.63193C1.92799 3.95215 2.50724 2.80825 2.66459 2.43337L7.99998 0.978312L13.3353 2.4334C13.4926 2.80818 14.0714 3.9514 15.5025 4.63127C15.406 5.12146 15.062 6.60196 14.1471 8.39448C14.0882 8.50977 14.134 8.65095 14.2493 8.7098C14.3646 8.76864 14.5057 8.72286 14.5646 8.60758C15.7184 6.34693 15.9866 4.60052 15.9974 4.52727C16.013 4.42199 15.9557 4.31943 15.8579 4.27749Z" fill="black"/>
<path d="M12.3106 3.71181C12.5907 4.16881 13.0594 4.78702 13.7805 5.33521C13.5927 5.9614 13.2659 6.87127 12.7288 7.89065C12.6685 8.00518 12.7124 8.14693 12.8269 8.20724C12.9414 8.26759 13.0832 8.22365 13.1435 8.10915C13.7457 6.96627 14.0922 5.95518 14.2767 5.30824C14.3039 5.21306 14.2683 5.11106 14.1879 5.0534C13.4105 4.4964 12.9306 3.84215 12.6649 3.3914C12.6339 3.33881 12.5835 3.30037 12.5246 3.28431L8.06553 2.06821C8.04453 2.06209 8.02256 2.05884 8.00016 2.05884C8.00012 2.05884 8.00006 2.05884 8.00003 2.05884C7.97772 2.05909 7.95562 2.06206 7.93462 2.06818L3.4754 3.28434C3.4165 3.3004 3.36619 3.33884 3.33515 3.39143C3.06937 3.84228 2.58931 4.49662 1.81184 5.05362C1.73137 5.11127 1.69581 5.21324 1.72297 5.30843C1.98097 6.21268 2.48884 7.60915 3.44328 9.12706C4.5845 10.942 6.07359 12.4746 7.86919 13.6821C7.90875 13.7087 7.95437 13.722 8 13.722C8.04562 13.722 8.09125 13.7087 8.13081 13.6821C8.30241 13.5667 8.47353 13.4466 8.63937 13.3254C8.74384 13.249 8.76662 13.1023 8.69022 12.9978C8.61378 12.8933 8.46716 12.8706 8.36269 12.947C8.32037 12.978 8.27734 13.0086 8.23441 13.0394V2.60015L12.3106 3.71181ZM3.84012 8.87752C2.96831 7.49096 2.48137 6.21059 2.21925 5.33543C2.94037 4.78724 3.40922 4.1689 3.68944 3.71181L7.76562 2.60015V13.0394C6.18731 11.9103 4.86797 10.5121 3.84012 8.87752Z" fill="black"/>
</g>
<defs>
<clipPath id="clip0_1454_16664">
<rect width="16" height="16" fill="white"/>
</clipPath>
</defs>
</svg>
