<svg width="94" height="94" viewBox="0 0 94 94" fill="none" xmlns="http://www.w3.org/2000/svg">
<rect opacity="0.6" width="107" height="107" rx="53.5" transform="matrix(-1 -8.74228e-08 -8.74228e-08 1 107 -13)" fill="#41B9D5"/>
<g clip-path="url(#clip0_148_9613)">
<path fill-rule="evenodd" clip-rule="evenodd" d="M54.805 35.3295L57.8953 39.6314C58.6814 40.7277 60.0834 41.609 61.4405 41.3222C61.6316 41.2835 61.8232 41.2205 62.0115 41.1311C62.4774 40.9069 63.0246 40.4645 63.458 40.16C64.0825 39.718 64.8002 39.2936 65.2695 38.6872L65.3053 38.6423C66.2348 37.4088 66.3126 35.6578 65.3741 34.3316L62.9797 30.9377C62.5912 30.4029 62.1759 29.9576 61.7453 29.5905C58.269 26.6505 53.7528 28.9659 54.2731 32.8168C54.5599 33.6296 54.7482 34.4837 54.805 35.3295Z" fill="#FEC914"/>
<path d="M74.4094 28.7937H69.974C69.5336 28.7937 69.1768 29.1505 69.1768 29.5905C69.1768 30.0309 69.5336 30.3877 69.974 30.3877H74.4094C74.959 30.3877 75.406 30.8343 75.406 31.383V47.9721C75.406 49.6654 75.1551 50.5957 74.5672 51.0834C73.9711 51.577 72.8632 51.7879 70.8618 51.7879H65.3033L67.1667 46.0094C67.7039 44.3462 67.5317 43.1094 67.0793 41.6526L66.1804 38.772C66.4717 38.2966 66.6735 37.7647 66.7712 37.1966C66.9739 36.0212 66.709 34.8409 66.0251 33.8723L63.6248 30.4701C63.6042 30.4417 63.5832 30.4153 63.5626 30.3877H66.9162C67.3566 30.3877 67.7134 30.0309 67.7134 29.5905C67.7134 29.1505 67.3566 28.7937 66.9162 28.7937H62.0317C60.0616 27.2545 57.8941 27.2401 56.4163 27.8317C55.2326 28.3055 54.3506 29.1538 53.864 30.2113C53.396 29.4961 52.853 28.8584 52.2565 28.3401C52.3722 27.758 52.3158 27.1078 52.0847 26.4796C51.7798 25.6506 51.2112 24.9964 50.5249 24.6854L49.6828 24.303C49.2621 24.1119 48.7921 24.0962 48.3582 24.2594C47.9252 24.4221 47.582 24.743 47.3934 25.1604L47.1408 25.7133L46.9509 25.6268L46.9488 25.6259C44.5861 24.5523 42.1269 24.6961 40.0241 26.0309C37.5951 27.5738 35.8952 30.5718 35.6814 33.6164C34.522 33.6123 32.7905 33.6749 31.1487 34.1219V24.8942C31.1487 22.6493 29.3215 20.823 27.0758 20.823C24.8284 20.823 23 22.6489 23 24.8942V58.264C23 60.059 24.4609 61.5195 26.2572 61.5195H73.7432C75.5391 61.5195 77 60.059 77 58.264V31.383C77 29.9551 75.8378 28.7937 74.4094 28.7937ZM65.6493 45.52L63.7336 51.4617C63.0608 53.5459 61.7536 54.2018 60.7558 53.9274C60.1897 53.7713 59.6652 53.2855 59.5902 52.5332C59.5894 52.5184 59.5874 52.5036 59.5857 52.4887C59.5713 52.2968 59.5849 52.0891 59.6356 51.865C59.6421 51.8423 59.6623 51.7884 59.6772 51.7488C59.7517 51.5482 59.8535 51.2734 59.8753 50.9685C59.9132 50.4346 59.6829 49.9872 59.2471 49.7433C58.9051 49.55 58.7094 49.3061 58.7111 49.0738C58.7119 48.9304 58.7889 48.799 58.9117 48.7314C59.0765 48.6412 59.3039 48.6774 59.5552 48.8348C59.8514 49.019 60.2177 49.0515 60.5596 48.925C61.054 48.7417 61.4574 48.2576 61.6646 47.598L62.5376 44.8488C62.8161 43.9688 62.8136 43.7196 62.6793 42.8392C62.6744 42.8083 62.6682 42.7778 62.6595 42.7477L62.4053 41.8249C62.5656 41.7449 62.7238 41.6506 62.8791 41.5406L64.9247 40.1003L65.5571 42.126C65.9979 43.5466 66.0205 44.3709 65.6493 45.52ZM54.7585 45.8479C54.8343 45.0404 55.0378 44.4678 55.2738 43.8045C55.7188 42.5545 56.214 41.1583 55.8177 38.105L57.2481 40.0957C58.0885 41.2679 59.4469 42.1466 60.8484 42.1742L61.1109 43.1259C61.2085 43.7661 61.2044 43.7797 61.0186 44.3672L60.1452 47.1172C60.1213 47.1926 60.0945 47.2544 60.069 47.3039C59.4143 47.0056 58.7292 47.013 58.145 47.3344C57.5155 47.6796 57.122 48.3425 57.1175 49.0639C57.1125 49.8195 57.5217 50.5137 58.2509 51.0002C58.2286 51.0707 58.2006 51.1461 58.1829 51.1934C58.145 51.2956 58.1091 51.392 58.084 51.4987C58.0824 51.5061 58.0811 51.5136 58.0795 51.521C55.8576 50.6047 54.5216 48.3911 54.7585 45.8479ZM57.0083 29.3116C58.3695 28.7669 60.5807 28.9886 62.3283 31.397L64.7228 34.791C65.1611 35.4119 65.3305 36.1703 65.2003 36.9259C65.0705 37.6815 64.6569 38.339 64.0364 38.7762L61.9608 40.2379C60.6804 41.143 59.1848 40.0611 58.5426 39.1663L55.5795 35.0415C55.5041 34.2402 55.3245 33.4343 55.0576 32.6573C54.8792 31.1692 55.6397 29.8595 57.0083 29.3116ZM53.5093 33.0433C53.5175 33.071 53.527 33.0981 53.5381 33.1245C53.9023 34.1751 54.0832 35.2899 54.0099 36.3368C54.0041 36.4146 53.9975 36.4904 53.9901 36.565C53.9876 36.5836 53.9852 36.6021 53.9839 36.621C53.8611 37.7466 53.4945 38.4799 52.6524 39.3262C50.5504 41.4401 46.6905 42.3786 44.3924 41.3346L41.16 39.8642C41.6597 37.5414 42.6139 36.593 43.7061 35.5091C45.1641 34.0626 46.8026 32.4348 47.3196 27.5458L50.0935 28.8077C50.3514 28.9247 50.6027 29.0743 50.8462 29.2494C50.8594 29.2592 50.873 29.2687 50.8866 29.2782C52.0109 30.1022 52.9585 31.4988 53.5093 33.0433ZM48.8448 25.82C48.8629 25.7796 48.895 25.7602 48.9194 25.7512C48.9433 25.7421 48.9816 25.7351 49.0236 25.7545L49.8661 26.1368C50.1619 26.2711 50.4322 26.6048 50.5883 27.03C50.6237 27.1256 50.6501 27.2228 50.6715 27.3192L48.5918 26.3729L48.8448 25.82ZM37.2523 34.1685C37.2865 31.4617 38.7441 28.7323 40.879 27.3765C41.5926 26.9233 42.5818 26.5031 43.7946 26.5031C44.4036 26.5031 45.0685 26.6089 45.7837 26.8697C45.3894 31.594 44.0249 32.9474 42.5838 34.3774C41.471 35.4811 40.3253 36.6178 39.6978 39.1136C37.5563 37.6943 37.2354 35.463 37.2523 34.1685ZM73.7428 59.9255H26.2572C25.3401 59.9255 24.594 59.1802 24.594 58.264V24.8942C24.594 23.5281 25.7076 22.417 27.0758 22.417C28.4428 22.417 29.5547 23.5281 29.5547 24.8942V35.2149V35.2224V44.7191C29.5547 45.74 30.3857 46.5705 31.407 46.5705H36.2849C36.7254 46.5705 37.0821 46.2138 37.0821 45.7733C37.0821 45.3333 36.7254 44.9766 36.2849 44.9766H31.407C31.2669 44.9766 31.1487 44.8583 31.1487 44.7187V35.7851C32.7184 35.2718 34.5299 35.2059 35.7086 35.2108C35.9945 37.8521 37.4929 39.9495 39.9294 41.0553L39.9302 41.0557L43.7324 42.7856C44.5721 43.1667 45.5563 43.3467 46.5937 43.3467C49.1229 43.3467 51.966 42.2772 53.7825 40.4501C53.9979 40.2338 54.1903 40.0195 54.3629 39.8041C54.4132 41.466 54.089 42.379 53.7717 43.2705C53.5868 43.7905 53.3972 44.324 53.2732 44.9766H39.3007C38.8607 44.9766 38.5039 45.3333 38.5039 45.7733C38.5039 46.2138 38.8607 46.5705 39.3007 46.5705H53.1414C53.1727 48.0166 53.6156 49.4095 54.4264 50.5648C55.3097 51.8234 56.5967 52.7503 58.0898 53.2167C58.3938 54.3752 59.3076 55.1819 60.3326 55.4641C60.6177 55.5424 60.9156 55.5836 61.2184 55.5836C62.4292 55.5836 63.7221 54.9261 64.6223 53.3819H70.8618C73.145 53.3819 74.4902 53.1092 75.406 52.4484V58.264C75.406 59.1802 74.6599 59.9255 73.7428 59.9255Z" fill="#166780"/>
<path d="M55.7372 19.8029H57.5388L55.2976 22.0318C55.069 22.2592 54.9998 22.6024 55.1229 22.9006C55.2461 23.1989 55.537 23.3938 55.86 23.3938H59.656C60.096 23.3938 60.4528 23.037 60.4528 22.5966C60.4528 22.1566 60.096 21.7998 59.656 21.7998H57.7914L60.0326 19.571C60.2617 19.3431 60.3305 18.9999 60.2073 18.7017C60.0841 18.4034 59.7932 18.2089 59.4706 18.2089H55.7372C55.2972 18.2089 54.9404 18.5657 54.9404 19.0057C54.9404 19.4461 55.2972 19.8029 55.7372 19.8029V19.8029Z" fill="#166780"/>
<path d="M63.5655 16.0744H65.3659L63.1263 18.3C62.8973 18.5274 62.828 18.871 62.9512 19.1693C63.0744 19.4675 63.3653 19.6624 63.6883 19.6624H67.4843C67.9243 19.6624 68.2811 19.3056 68.2811 18.8652C68.2811 18.4252 67.9243 18.0684 67.4843 18.0684H65.6209L67.8605 15.8429C68.0895 15.6155 68.1588 15.2723 68.0356 14.9736C67.9128 14.6753 67.6215 14.4804 67.2989 14.4804H63.5655C63.1251 14.4804 62.7683 14.8372 62.7683 15.2776C62.7683 15.7176 63.1251 16.0744 63.5655 16.0744V16.0744Z" fill="#166780"/>
</g>
<defs>
<clipPath id="clip0_148_9613">
<rect width="54" height="54" fill="white" transform="translate(23 11)"/>
</clipPath>
</defs>
</svg>
