<svg width="72" height="72" viewBox="0 0 72 72" fill="none" xmlns="http://www.w3.org/2000/svg">
<circle cx="36" cy="36" r="36" fill="#F0E7D2"/>
<g clip-path="url(#clip0_1_2)">
<path fill-rule="evenodd" clip-rule="evenodd" d="M39.9152 31.824L42.4332 35.3293C43.0737 36.2226 44.2161 36.9407 45.3219 36.707C45.4776 36.6755 45.6337 36.6241 45.7871 36.5513C46.1668 36.3687 46.6126 36.0081 46.9658 35.76C47.4747 35.3998 48.0594 35.0541 48.4418 34.5599L48.471 34.5233C49.2283 33.5183 49.2918 32.0916 48.5271 31.011L46.576 28.2455C46.2595 27.8098 45.9211 27.4469 45.5703 27.1478C42.7377 24.7523 39.0578 26.6389 39.4818 29.7766C39.7155 30.439 39.8689 31.1349 39.9152 31.824Z" fill="#64B0D9"/>
<path d="M55.8892 26.4986H52.2751C51.9162 26.4986 51.6255 26.7893 51.6255 27.1478C51.6255 27.5067 51.9162 27.7974 52.2751 27.7974H55.8892C56.337 27.7974 56.7012 28.1613 56.7012 28.6084V42.1255C56.7012 43.5052 56.4968 44.2632 56.0177 44.6606C55.532 45.0628 54.6293 45.2346 52.9985 45.2346H48.4693L49.9877 40.5262C50.4254 39.171 50.2851 38.1633 49.9165 36.9763L49.184 34.6291C49.4214 34.2417 49.5858 33.8083 49.6654 33.3454C49.8306 32.3877 49.6147 31.4259 49.0575 30.6367L47.1017 27.8645C47.0849 27.8414 47.0678 27.8199 47.051 27.7974H49.7836C50.1424 27.7974 50.4331 27.5067 50.4331 27.1478C50.4331 26.7893 50.1424 26.4986 49.7836 26.4986H45.8036C44.1983 25.2444 42.4322 25.2327 41.2281 25.7148C40.2636 26.1008 39.5449 26.792 39.1485 27.6537C38.7671 27.071 38.3247 26.5513 37.8386 26.129C37.9329 25.6547 37.8869 25.1249 37.6986 24.613C37.4502 23.9376 36.9869 23.4045 36.4277 23.1511L35.7415 22.8395C35.3988 22.6838 35.0157 22.671 34.6623 22.804C34.3094 22.9366 34.0298 23.1981 33.8761 23.5381L33.6703 23.9886L33.5155 23.9181L33.5139 23.9174C31.5887 23.0426 29.5849 23.1598 27.8715 24.2474C25.8923 25.5046 24.5072 27.9474 24.333 30.4282C23.3883 30.4249 21.9774 30.4759 20.6397 30.8401V23.3213C20.6397 21.4921 19.1509 20.0039 17.321 20.0039C15.4898 20.0039 14 21.4917 14 23.3213V50.5114C14 51.974 15.1904 53.1641 16.654 53.1641H55.3463C56.8096 53.1641 58 51.974 58 50.5114V28.6084C58 27.4449 57.053 26.4986 55.8892 26.4986ZM48.7513 40.1274L47.1903 44.9688C46.6422 46.6671 45.577 47.2015 44.7639 46.9779C44.3027 46.8507 43.8754 46.4549 43.8143 45.8419C43.8136 45.8298 43.8119 45.8177 43.8106 45.8057C43.7988 45.6492 43.8099 45.48 43.8512 45.2974C43.8566 45.279 43.873 45.235 43.8851 45.2028C43.9459 45.0393 44.0288 44.8154 44.0466 44.567C44.0775 44.1319 43.8898 43.7673 43.5346 43.5686C43.256 43.4112 43.0966 43.2124 43.0979 43.0231C43.0986 42.9063 43.1613 42.7992 43.2614 42.7441C43.3957 42.6706 43.581 42.7002 43.7857 42.8284C44.0271 42.9785 44.3255 43.005 44.6042 42.9019C45.007 42.7525 45.3356 42.3581 45.5045 41.8206L46.2158 39.5806C46.4427 38.8635 46.4407 38.6604 46.3313 37.9431C46.3273 37.9179 46.3222 37.893 46.3152 37.8685L46.1081 37.1166C46.2386 37.0515 46.3676 36.9746 46.4941 36.8849L48.1608 35.7114L48.6761 37.362C49.0353 38.5194 49.0538 39.1912 48.7513 40.1274ZM39.8773 40.3946C39.939 39.7367 40.1049 39.2701 40.2972 38.7296C40.6598 37.7111 41.0633 36.5734 40.7403 34.0856L41.9059 35.7077C42.5907 36.6627 43.6974 37.3788 44.8395 37.4012L45.0533 38.1767C45.1329 38.6984 45.1295 38.7094 44.9781 39.1881L44.2664 41.4289C44.247 41.4903 44.2252 41.5407 44.2043 41.581C43.6709 41.3379 43.1127 41.344 42.6367 41.6058C42.1237 41.8871 41.8031 42.4272 41.7994 43.015C41.7954 43.6307 42.1288 44.1964 42.7229 44.5928C42.7048 44.6502 42.682 44.7116 42.6675 44.7502C42.6367 44.8335 42.6075 44.912 42.587 44.999C42.5856 45.005 42.5846 45.0111 42.5833 45.0171C40.7729 44.2705 39.6842 42.4669 39.8773 40.3946ZM41.7105 26.9206C42.8196 26.4768 44.6213 26.6574 46.0453 28.6198L47.9963 31.3853C48.3535 31.8912 48.4915 32.5092 48.3854 33.1248C48.2797 33.7405 47.9426 34.2763 47.4371 34.6324L45.7458 35.8235C44.7025 36.561 43.4839 35.6795 42.9606 34.9503L40.5463 31.5894C40.4849 30.9365 40.3385 30.2798 40.121 29.6467C39.9756 28.4342 40.5953 27.367 41.7105 26.9206ZM38.8594 29.9613C38.8661 29.9838 38.8739 30.0059 38.8829 30.0274C39.1797 30.8834 39.3271 31.7918 39.2673 32.6448C39.2626 32.7083 39.2572 32.77 39.2512 32.8308C39.2492 32.8459 39.2472 32.861 39.2462 32.8764C39.1461 33.7935 38.8474 34.3911 38.1612 35.0806C36.4485 36.803 33.3034 37.5677 31.4309 36.7171L28.797 35.519C29.2042 33.6264 29.9817 32.8536 30.8716 31.9704C32.0596 30.7918 33.3947 29.4655 33.816 25.4818L36.0762 26.51C36.2863 26.6053 36.4911 26.7272 36.6895 26.8699C36.7003 26.8779 36.7113 26.8857 36.7224 26.8934C37.6385 27.5648 38.4106 28.7028 38.8594 29.9613ZM35.0587 24.0756C35.0735 24.0427 35.0997 24.0269 35.1195 24.0195C35.1389 24.0121 35.1702 24.0064 35.2044 24.0222L35.8909 24.3337C36.1319 24.4431 36.3521 24.7151 36.4794 25.0615C36.5082 25.1394 36.5297 25.2186 36.5472 25.2971L34.8526 24.5261L35.0587 24.0756ZM25.613 30.8781C25.6408 28.6725 26.8285 26.4486 28.5681 25.3438C29.1495 24.9745 29.9555 24.6321 30.9438 24.6321C31.4399 24.6321 31.9818 24.7184 32.5645 24.9309C32.2433 28.7803 31.1314 29.8831 29.9572 31.0482C29.0505 31.9476 28.1169 32.8737 27.6057 34.9074C25.8607 33.7509 25.5992 31.9328 25.613 30.8781ZM55.346 51.8653H16.654C15.9067 51.8653 15.2988 51.258 15.2988 50.5114V23.3213C15.2988 22.2081 16.2062 21.3027 17.321 21.3027C18.4348 21.3027 19.3409 22.2081 19.3409 23.3213V31.7307V31.7368V39.4748C19.3409 40.3067 20.018 40.9834 20.8502 40.9834H24.8248C25.1836 40.9834 25.4743 40.6927 25.4743 40.3339C25.4743 39.9753 25.1836 39.6846 24.8248 39.6846H20.8502C20.736 39.6846 20.6397 39.5883 20.6397 39.4745V32.1953C21.9187 31.777 23.3947 31.7233 24.3551 31.7274C24.5881 33.8795 25.809 35.5885 27.7943 36.4895L27.795 36.4898L30.8931 37.8994C31.5772 38.2099 32.3792 38.3566 33.2245 38.3566C35.2853 38.3566 37.6019 37.4852 39.082 35.9964C39.2576 35.8201 39.4143 35.6456 39.555 35.47C39.5959 36.8242 39.3318 37.5681 39.0733 38.2945C38.9225 38.7182 38.7681 39.1529 38.6671 39.6846H27.282C26.9235 39.6846 26.6328 39.9753 26.6328 40.3339C26.6328 40.6927 26.9235 40.9834 27.282 40.9834H38.5597C38.5852 42.1617 38.946 43.2967 39.6067 44.238C40.3264 45.2635 41.3751 46.0188 42.5917 46.3988C42.8394 47.3428 43.584 48.0001 44.4192 48.23C44.6515 48.2938 44.8942 48.3274 45.1409 48.3274C46.1275 48.3274 47.1809 47.7916 47.9144 46.5334H52.9985C54.8589 46.5334 55.955 46.3112 56.7012 45.7728V50.5114C56.7012 51.258 56.0933 51.8653 55.346 51.8653Z" fill="#021D45"/>
<path d="M40.6749 19.1728H42.1429L40.3167 20.9889C40.1304 21.1742 40.074 21.4538 40.1743 21.6968C40.2747 21.9399 40.5117 22.0987 40.7749 22.0987H43.868C44.2265 22.0987 44.5172 21.808 44.5172 21.4491C44.5172 21.0906 44.2265 20.7999 43.868 20.7999H42.3486L44.1748 18.9838C44.3614 18.7981 44.4175 18.5185 44.3171 18.2755C44.2168 18.0324 43.9798 17.874 43.7169 17.874H40.6749C40.3163 17.874 40.0256 18.1647 40.0256 18.5232C40.0256 18.882 40.3163 19.1728 40.6749 19.1728Z" fill="#021D45"/>
<path d="M47.0534 16.1347H48.5204L46.6955 17.9482C46.5089 18.1335 46.4525 18.4134 46.5529 18.6565C46.6532 18.8995 46.8902 19.0583 47.1534 19.0583H50.2465C50.605 19.0583 50.8957 18.7676 50.8957 18.4087C50.8957 18.0502 50.605 17.7595 50.2465 17.7595H48.7281L50.553 15.9461C50.7396 15.7608 50.796 15.4811 50.6956 15.2378C50.5956 14.9947 50.3583 14.8359 50.0954 14.8359H47.0534C46.6945 14.8359 46.4038 15.1266 46.4038 15.4855C46.4038 15.844 46.6945 16.1347 47.0534 16.1347Z" fill="#021D45"/>
</g>
<defs>
<clipPath id="clip0_1_2">
<rect width="44" height="44" fill="white" transform="translate(14 12)"/>
</clipPath>
</defs>
</svg>
