<svg width="16" height="16" viewBox="0 0 16 16" fill="none" xmlns="http://www.w3.org/2000/svg">
<path fill-rule="evenodd" clip-rule="evenodd" d="M2.17813 7.17815C-1.58749 13.7375 12.2438 13.4438 10.0406 7.6094C9.85938 7.5594 9.72188 7.1344 9.53126 7.10628C7.83751 6.87503 6.21563 7.04378 3.98751 6.93753C3.64063 6.9344 2.82501 6.91565 2.17813 7.17815Z" fill="#E6E6E6"/>
<path fill-rule="evenodd" clip-rule="evenodd" d="M0.2375 10.3031V14.0031C0.2375 14.4031 0.565625 14.7312 0.965625 14.7312H15.0344C15.4344 14.7312 15.7625 14.4031 15.7625 14.0031V10.3031H2.49063C2.31875 10.3031 2.17813 10.1625 2.17813 9.9906V4.1156C2.17813 3.58123 1.74063 3.14685 1.20625 3.14685C0.671875 3.14685 0.234375 3.58435 0.234375 4.1156L0.2375 10.3031Z" fill="#B5722F"/>
<path fill-rule="evenodd" clip-rule="evenodd" d="M3.57187 6.93745C3.61249 8.52495 4.74062 9.85933 6.28124 10.3031H9.17499L9.95937 8.99995L9.41562 7.60933C9.37499 7.99995 9.24374 8.26558 8.95312 8.55933C8.94687 8.56558 8.93749 8.57495 8.93124 8.5812C8.68124 8.82495 8.36874 9.01558 8.03437 9.14683C7.41562 9.38745 6.72499 9.42183 6.24374 9.20308L5.11562 8.69058C4.33749 8.33745 4.00312 7.65933 3.98749 6.94058C3.88437 6.93745 3.74062 6.93433 3.57187 6.93745Z" fill="#C2C7CC"/>
<path fill-rule="evenodd" clip-rule="evenodd" d="M8 11.1375C7.89687 12.2937 9.10312 13.5062 10.2937 13.5937H13.8969C15.3344 13.5937 15.7625 13.2937 15.7625 11.9312V10.3031H8.20312C8.11875 10.5562 8.03125 10.7969 8 11.1375Z" fill="#91561A"/>
<path fill-rule="evenodd" clip-rule="evenodd" d="M7.44376 4.29373L7.27188 4.67186L8.12501 5.06249C8.21563 5.10311 8.30626 5.15936 8.39376 5.22186C8.54063 4.90936 8.37501 4.41561 8.05626 4.27186L7.80626 4.15936C7.66876 4.09374 7.50626 4.15623 7.44376 4.29373Z" fill="#EDA93B"/>
<path fill-rule="evenodd" clip-rule="evenodd" d="M7.00001 4.54993C6.81563 7.4593 5.45001 6.66243 5.11563 8.69055L6.24376 9.20305C6.72501 9.4218 7.41563 9.38743 8.03438 9.1468C8.38126 9.01243 8.70313 8.81243 8.95626 8.5593C9.24688 8.26868 9.37813 8.00305 9.41876 7.6093C9.42188 7.58118 9.42501 7.55305 9.42813 7.52493C9.43438 7.4218 9.43438 7.31555 9.42813 7.2093C9.41251 6.9593 9.35626 6.70618 9.27188 6.46555C9.09063 5.95305 8.77188 5.4968 8.40001 5.2218C8.31251 5.1593 8.22188 5.10305 8.13126 5.06243L7.27501 4.6718L7.00001 4.54993Z" fill="#FFDDA6"/>
<path fill-rule="evenodd" clip-rule="evenodd" d="M7 4.54688C5.35313 3.79688 4.00625 5.38751 3.9875 6.85938C3.9875 6.88438 3.9875 6.91251 3.9875 6.93751C4.00313 7.65626 4.3375 8.33438 5.11563 8.68751C5.45 6.65938 6.8125 7.45938 7 4.54688Z" fill="#808080"/>
<path fill-rule="evenodd" clip-rule="evenodd" d="M7 4.54691C5.84375 4.02191 4.83438 4.64691 4.33125 5.57816C4.88438 4.96566 5.7125 4.65316 6.63125 5.07503L6.90313 5.19691L6.93125 5.20941C6.95938 5.01253 6.98438 4.79378 7 4.54691Z" fill="#666666"/>
<path fill-rule="evenodd" clip-rule="evenodd" d="M6.99999 4.54993C6.98437 4.79055 6.96249 5.00618 6.93124 5.1968L7.75624 5.5718C7.84999 5.61555 7.94062 5.66868 8.02499 5.73118C8.39687 6.00305 8.71249 6.46243 8.89687 6.97493C8.98437 7.21555 9.03749 7.46868 9.05312 7.71868C9.05937 7.82493 9.05937 7.93118 9.05312 8.0343C9.04999 8.06243 9.04999 8.09368 9.04687 8.1218C9.02812 8.2968 8.99062 8.4468 8.93124 8.5843C8.94062 8.57805 8.94687 8.56868 8.95312 8.56243C9.24374 8.2718 9.37499 8.00618 9.41562 7.61243C9.41874 7.5843 9.42187 7.55618 9.42499 7.52493C9.43124 7.4218 9.43124 7.31555 9.42499 7.2093C9.40937 6.9593 9.35312 6.70618 9.26874 6.46555C9.08749 5.95305 8.76874 5.4968 8.39687 5.2218C8.30937 5.1593 8.21874 5.10305 8.12812 5.06243L7.27187 4.6718L6.99999 4.54993Z" fill="#FCC368"/>
<path fill-rule="evenodd" clip-rule="evenodd" d="M9.175 10.3031C9.0875 11.2531 9.66875 12.1031 10.6062 12.3219H14.1812C15.4 12.3219 15.7625 12.075 15.7625 10.9563V6.04065C15.7625 5.75002 15.5219 5.5094 15.2312 5.5094H11.4812C9.55 5.5094 9.53437 6.1969 9.425 7.2094C9.43125 7.31565 9.43125 7.4219 9.425 7.52502C9.42187 7.55627 9.42187 7.5844 9.41562 7.61252C9.75312 9.3469 9.25312 9.4719 9.175 10.3031Z" fill="#F78411"/>
<path fill-rule="evenodd" clip-rule="evenodd" d="M11.4906 9.9593L11.3813 10.3031L11.2313 10.7718C11.1719 10.9624 11.0406 11.0624 10.9563 11.0093C10.4625 10.6999 10.05 11.3593 10.625 11.6843C10.7656 11.7624 10.6469 11.9718 10.6281 12.0531C10.6188 12.0968 10.6125 12.1406 10.6094 12.1812C10.6063 12.2281 10.6063 12.2749 10.6094 12.3218C10.6719 13.0406 11.7063 13.3281 12.1938 12.3218C12.2313 12.2437 12.2656 12.1562 12.2969 12.0624L12.8625 10.3031C13 9.88118 12.9656 9.56868 12.8375 9.15305L12.5375 8.19055H11.3969L11.3938 8.9843L11.5281 9.46868C11.5594 9.69993 11.5594 9.73743 11.4906 9.9593Z" fill="#FFDDA6"/>
<path fill-rule="evenodd" clip-rule="evenodd" d="M12.2656 9.15308C12.3938 9.5687 12.4281 9.8812 12.2906 10.3031L11.8813 11.5718L11.7219 12.0593C11.6906 12.1531 11.6563 12.2406 11.6188 12.3187C11.4625 12.6406 11.2531 12.8281 11.0375 12.9156C11.3969 13.0656 11.8938 12.9312 12.1906 12.3187C12.2281 12.2406 12.2625 12.1531 12.2938 12.0593L12.4406 11.6L12.8594 10.3V10.2968C12.8594 10.2968 12.8594 10.2968 12.8594 10.2937C12.8719 10.2593 12.8813 10.225 12.8906 10.1937C12.9906 9.82495 12.9531 9.5312 12.8344 9.14995C12.8344 9.14995 12.8344 9.14995 12.8344 9.14683L12.5344 8.18433L12.525 8.19683C12.525 8.19995 12.5219 8.19995 12.5219 8.19995C12.4625 8.27495 12.3875 8.3437 12.3094 8.4062C12.2375 8.46245 12.1594 8.51558 12.0844 8.56558L12.2656 9.15308Z" fill="#FCC368"/>
<path fill-rule="evenodd" clip-rule="evenodd" d="M9.425 7.20938L10.3406 8.48438C10.575 8.80938 10.9875 9.07188 11.3906 8.98438C11.4469 8.97188 11.5031 8.95313 11.5594 8.92813C11.6969 8.8625 11.8594 8.73125 11.9875 8.64063C12.1719 8.50938 12.3844 8.38438 12.525 8.20313L12.5344 8.19063C12.8094 7.825 12.8344 7.30625 12.5563 6.9125L11.8469 5.90625C11.7313 5.74688 11.6094 5.61563 11.4813 5.50625C10.45 4.63438 9.1125 5.32188 9.26875 6.4625C9.35 6.70625 9.40625 6.95938 9.425 7.20938Z" fill="#64B0D9"/>
<path fill-rule="evenodd" clip-rule="evenodd" d="M11.3 6.35621L12.0094 7.36246C12.1344 7.54058 12.1969 7.74058 12.2062 7.94371C12.2094 8.02496 12.2031 8.10933 12.1875 8.19058C12.1562 8.35308 12.0906 8.50621 11.9906 8.64058L11.9937 8.63746C12.0969 8.56558 12.2062 8.49371 12.3094 8.41558C12.3906 8.35308 12.4656 8.28433 12.525 8.20621L12.5344 8.19371C12.5906 8.11871 12.6375 8.03433 12.6719 7.94683C12.8062 7.61558 12.7719 7.22808 12.5531 6.91558L11.8469 5.90621C11.7312 5.74683 11.6094 5.61558 11.4812 5.50621C10.7312 4.87183 9.81562 5.06246 9.43437 5.65621C9.87187 5.47808 10.4375 5.53746 10.9344 5.95621C11.0594 6.06558 11.1844 6.19683 11.3 6.35621Z" fill="#4A83C9"/>
<path d="M15.2312 5.27186H13.9156C13.7844 5.27186 13.6781 5.37811 13.6781 5.50936C13.6781 5.64061 13.7844 5.74686 13.9156 5.74686H15.2312C15.3938 5.74686 15.525 5.87811 15.525 6.04061V10.9562C15.525 11.4594 15.45 11.7344 15.275 11.8781C15.0969 12.025 14.7688 12.0875 14.1781 12.0875H12.5312L13.0844 10.375C13.2438 9.88124 13.1937 9.51561 13.0594 9.08436L12.7937 8.23124C12.8812 8.09061 12.9406 7.93124 12.9688 7.76561C13.0281 7.41874 12.95 7.06874 12.7469 6.78124L12.0344 5.77186C12.0281 5.76249 12.0219 5.75624 12.0156 5.74686H13.0094C13.1406 5.74686 13.2469 5.64061 13.2469 5.50936C13.2469 5.37811 13.1406 5.27186 13.0094 5.27186H11.5625C10.9781 4.81561 10.3375 4.81249 9.9 4.98749C9.55 5.12811 9.2875 5.37811 9.14375 5.69374C9.00625 5.48124 8.84375 5.29374 8.66875 5.14061C8.70312 4.96874 8.6875 4.77499 8.61875 4.59061C8.52812 4.34374 8.35938 4.14999 8.15625 4.05936L7.90625 3.94686C7.78125 3.89061 7.64375 3.88436 7.5125 3.93436C7.38437 3.98124 7.28125 4.07811 7.22813 4.19999L7.15312 4.36249L7.09688 4.33749C6.39688 4.01874 5.66875 4.06249 5.04375 4.45624C4.325 4.91249 3.82187 5.80311 3.75625 6.70311C3.4125 6.70311 2.9 6.72186 2.4125 6.85311V4.11874C2.4125 3.45311 1.87187 2.91249 1.20625 2.91249C0.540625 2.90936 0 3.44999 0 4.11561V14.0031C0 14.5344 0.434375 14.9687 0.965625 14.9687H15.0344C15.5656 14.9687 16 14.5375 16 14.0031V6.04061C16 5.61561 15.6562 5.27186 15.2312 5.27186ZM12.6375 10.2281L12.0688 11.9875C11.8688 12.6062 11.4812 12.8 11.1875 12.7187C11.0188 12.6719 10.8656 12.5281 10.8406 12.3062C10.8406 12.3031 10.8406 12.2969 10.8406 12.2937C10.8375 12.2375 10.8406 12.175 10.8562 12.1094C10.8594 12.1031 10.8656 12.0875 10.8687 12.075C10.8906 12.0156 10.9219 11.9344 10.9281 11.8437C10.9406 11.6844 10.8719 11.5531 10.7406 11.4812C10.6406 11.425 10.5813 11.3531 10.5813 11.2844C10.5813 11.2406 10.6031 11.2031 10.6406 11.1844C10.6906 11.1562 10.7563 11.1687 10.8313 11.2156C10.9187 11.2687 11.0281 11.2812 11.1281 11.2437C11.275 11.1906 11.3938 11.0469 11.4563 10.85L11.7156 10.0344C11.7969 9.77499 11.7969 9.69999 11.7563 9.43749C11.7563 9.42811 11.7531 9.41874 11.75 9.40936L11.675 9.13436C11.7219 9.10936 11.7688 9.08124 11.8156 9.04999L12.4219 8.62186L12.6094 9.22186C12.7406 9.64374 12.7469 9.88749 12.6375 10.2281ZM9.40938 10.325C9.43125 10.0844 9.49063 9.91561 9.5625 9.71874C9.69375 9.34686 9.84063 8.93436 9.725 8.03124L10.15 8.62186C10.4 8.96874 10.8 9.22811 11.2156 9.23749L11.2937 9.51874C11.3219 9.70936 11.3219 9.71249 11.2656 9.88749L11.0063 10.7031C11 10.725 10.9906 10.7437 10.9844 10.7594C10.7906 10.6719 10.5875 10.6719 10.4156 10.7687C10.2281 10.8719 10.1125 11.0687 10.1125 11.2812C10.1125 11.5062 10.2312 11.7094 10.4469 11.8562C10.4406 11.8781 10.4313 11.9 10.4281 11.9125C10.4156 11.9437 10.4062 11.9719 10.4 12.0031C10.4 12.0062 10.4 12.0062 10.4 12.0094C9.73438 11.7344 9.34062 11.0781 9.40938 10.325ZM10.075 5.42499C10.4781 5.26249 11.1344 5.32811 11.65 6.04374L12.3594 7.04999C12.4906 7.23436 12.5406 7.45936 12.5 7.68124C12.4625 7.90624 12.3375 8.09999 12.1562 8.22811L11.5406 8.66249C11.1625 8.93124 10.7188 8.60936 10.5281 8.34374L9.65 7.12186C9.62812 6.88436 9.575 6.64686 9.49687 6.41561C9.44687 5.97499 9.67188 5.58749 10.075 5.42499ZM9.04062 6.53124C9.04375 6.54061 9.04688 6.54686 9.05 6.55624C9.15938 6.86874 9.2125 7.19686 9.19063 7.50936C9.1875 7.53124 9.1875 7.55624 9.18437 7.57811C9.18437 7.58436 9.18437 7.59061 9.18125 7.59374C9.14375 7.92811 9.0375 8.14374 8.7875 8.39374C8.16563 9.01874 7.02187 9.29686 6.34062 8.98749L5.38438 8.55311C5.53125 7.86561 5.81562 7.58436 6.1375 7.26249C6.56875 6.83436 7.05625 6.35311 7.20937 4.90311L8.03125 5.27811C8.10625 5.31249 8.18125 5.35624 8.25313 5.40936C8.25625 5.41249 8.2625 5.41561 8.26562 5.41874C8.59688 5.65936 8.87812 6.07499 9.04062 6.53124ZM7.65625 4.39061C7.6625 4.37811 7.67188 4.37186 7.67812 4.36874C7.68437 4.36561 7.69688 4.36249 7.70937 4.36874L7.95937 4.48124C8.04688 4.52186 8.12813 4.61874 8.17188 4.74686C8.18125 4.77499 8.19062 4.80311 8.19687 4.83124L7.58125 4.54999L7.65625 4.39061ZM4.22188 6.86561C4.23125 6.06249 4.6625 5.25624 5.29688 4.85311C5.50938 4.71874 5.8 4.59374 6.15938 4.59374C6.34063 4.59374 6.5375 4.62499 6.75 4.70311C6.63438 6.10311 6.22813 6.50311 5.80312 6.92811C5.47187 7.25624 5.13438 7.59061 4.94688 8.33124C4.3125 7.90936 4.21875 7.24686 4.22188 6.86561ZM15.0344 14.4969H0.965625C0.69375 14.4969 0.471875 14.275 0.471875 14.0031V4.11561C0.471875 3.70936 0.803125 3.38124 1.20625 3.38124C1.6125 3.38124 1.94062 3.70936 1.94062 4.11561V7.17499V7.17811V9.99061C1.94062 10.2937 2.1875 10.5406 2.49062 10.5406H3.9375C4.06875 10.5406 4.175 10.4344 4.175 10.3031C4.175 10.1719 4.06875 10.0656 3.9375 10.0656H2.49062C2.45 10.0656 2.41563 10.0312 2.41563 9.99061V7.34374C2.88125 7.19061 3.41875 7.17186 3.76562 7.17499C3.85 7.95624 4.29375 8.57811 5.01562 8.90624L6.14375 9.41874C6.39375 9.53124 6.68437 9.58436 6.99062 9.58436C7.74062 9.58436 8.58125 9.26874 9.12187 8.72499C9.18437 8.65936 9.24375 8.59686 9.29375 8.53436C9.30937 9.02811 9.2125 9.29686 9.11875 9.56249C9.0625 9.71561 9.00625 9.87499 8.97188 10.0687H4.83125C4.7 10.0687 4.59375 10.175 4.59375 10.3062C4.59375 10.4375 4.7 10.5437 4.83125 10.5437H8.93125C8.94062 10.9719 9.07187 11.3844 9.3125 11.7281C9.575 12.1 9.95625 12.375 10.3969 12.5125C10.4875 12.8562 10.7563 13.0937 11.0625 13.1781C11.1469 13.2 11.2344 13.2125 11.325 13.2125C11.6844 13.2125 12.0656 13.0187 12.3344 12.5594H14.1844C14.8594 12.5594 15.2594 12.4781 15.5312 12.2812V14.0031C15.5281 14.275 15.3063 14.4969 15.0344 14.4969Z" fill="black"/>
<path d="M9.69999 2.60928H10.2344L9.57187 3.26865C9.50312 3.3374 9.48437 3.4374 9.51874 3.5249C9.55312 3.6124 9.64062 3.67178 9.73749 3.67178H10.8625C10.9937 3.67178 11.1 3.56553 11.1 3.43428C11.1 3.30303 10.9937 3.19678 10.8625 3.19678H10.3094L10.9719 2.5374C11.0406 2.46865 11.0594 2.36865 11.025 2.28115C10.9906 2.19365 10.9031 2.13428 10.8062 2.13428H9.69999C9.56874 2.13428 9.46249 2.24053 9.46249 2.37178C9.46249 2.50303 9.56874 2.60928 9.69999 2.60928Z" fill="black"/>
<path d="M12.0188 1.50308H12.5531L11.8906 2.16245C11.8219 2.2312 11.8031 2.3312 11.8375 2.4187C11.8719 2.5062 11.9594 2.56558 12.0562 2.56558H13.1812C13.3125 2.56558 13.4187 2.45933 13.4187 2.32808C13.4187 2.19683 13.3125 2.09058 13.1812 2.09058H12.6281L13.2906 1.4312C13.3594 1.36245 13.3781 1.26245 13.3438 1.17495C13.3062 1.08745 13.2219 1.02808 13.125 1.02808H12.0188C11.8875 1.02808 11.7812 1.13433 11.7812 1.26558C11.7844 1.39683 11.8875 1.50308 12.0188 1.50308Z" fill="black"/>
</svg>
