<svg width="40" height="40" viewBox="0 0 40 40" fill="none" xmlns="http://www.w3.org/2000/svg">
<path fill-rule="evenodd" clip-rule="evenodd" d="M5.44526 17.9453C-3.9688 34.3437 30.6093 33.6093 25.1015 19.0234C24.6484 18.8984 24.3046 17.8359 23.8281 17.7656C19.5937 17.1874 15.539 17.6093 9.9687 17.3437C9.10151 17.3359 7.06245 17.289 5.44526 17.9453Z" fill="#E6E6E6"/>
<path fill-rule="evenodd" clip-rule="evenodd" d="M0.59375 25.7578V35.0078C0.59375 36.0078 1.41406 36.8281 2.41406 36.8281H37.5859C38.5859 36.8281 39.4062 36.0078 39.4062 35.0078V25.7578H6.22656C5.79688 25.7578 5.44531 25.4063 5.44531 24.9766V10.2891C5.44531 8.95312 4.35156 7.86719 3.01562 7.86719C1.67969 7.86719 0.585938 8.96094 0.585938 10.2891L0.59375 25.7578Z" fill="#B5722F"/>
<path fill-rule="evenodd" clip-rule="evenodd" d="M8.92969 17.3437C9.03125 21.3124 11.8516 24.6484 15.7031 25.7578H22.9375L24.8984 22.4999L23.5391 19.0234C23.4375 19.9999 23.1094 20.664 22.3828 21.3984C22.3672 21.414 22.3437 21.4374 22.3281 21.4531C21.7031 22.0624 20.9219 22.539 20.0859 22.8671C18.5391 23.4687 16.8125 23.5546 15.6094 23.0078L12.7891 21.7265C10.8437 20.8437 10.0078 19.1484 9.96875 17.3515C9.71094 17.3437 9.35156 17.3359 8.92969 17.3437Z" fill="#C2C7CC"/>
<path fill-rule="evenodd" clip-rule="evenodd" d="M20.0001 27.8437C19.7422 30.7344 22.7579 33.7656 25.7344 33.9844H34.7422C38.336 33.9844 39.4063 33.2344 39.4063 29.8281V25.7578H20.5079C20.2969 26.3906 20.0782 26.9922 20.0001 27.8437Z" fill="#91561A"/>
<path fill-rule="evenodd" clip-rule="evenodd" d="M18.6094 10.7344L18.1797 11.6797L20.3125 12.6563C20.5391 12.7578 20.7656 12.8985 20.9844 13.0547C21.3516 12.2735 20.9375 11.0391 20.1406 10.6797L19.5156 10.3985C19.1719 10.2344 18.7656 10.3906 18.6094 10.7344Z" fill="#EDA93B"/>
<path fill-rule="evenodd" clip-rule="evenodd" d="M17.5 11.375C17.0391 18.6484 13.625 16.6562 12.7891 21.7266L15.6094 23.0078C16.8125 23.5547 18.5391 23.4688 20.0859 22.8672C20.9531 22.5312 21.7578 22.0312 22.3906 21.3984C23.1172 20.6719 23.4453 20.0078 23.5469 19.0234C23.5547 18.9531 23.5625 18.8828 23.5703 18.8125C23.5859 18.5547 23.5859 18.2891 23.5703 18.0234C23.5313 17.3984 23.3906 16.7656 23.1797 16.1641C22.7266 14.8828 21.9297 13.7422 21 13.0547C20.7812 12.8984 20.5547 12.7578 20.3281 12.6562L18.1875 11.6797L17.5 11.375Z" fill="#FFDDA6"/>
<path fill-rule="evenodd" clip-rule="evenodd" d="M17.5 11.3672C13.3828 9.4922 10.0156 13.4688 9.96875 17.1485C9.96875 17.211 9.96875 17.2813 9.96875 17.3438C10.0078 19.1406 10.8437 20.836 12.7891 21.7188C13.625 16.6485 17.0312 18.6485 17.5 11.3672Z" fill="#808080"/>
<path fill-rule="evenodd" clip-rule="evenodd" d="M17.5 11.3672C14.6094 10.0547 12.0859 11.6172 10.8281 13.9453C12.2109 12.4141 14.2812 11.6328 16.5781 12.6875L17.2578 12.9922L17.3281 13.0235C17.3984 12.5313 17.4609 11.9844 17.5 11.3672Z" fill="#666666"/>
<path fill-rule="evenodd" clip-rule="evenodd" d="M17.5 11.375C17.4609 11.9766 17.4062 12.5156 17.3281 12.9922L19.3906 13.9297C19.625 14.0391 19.8516 14.1719 20.0625 14.3281C20.9922 15.0078 21.7813 16.1562 22.2422 17.4375C22.4609 18.0391 22.5938 18.6719 22.6328 19.2969C22.6484 19.5625 22.6484 19.8281 22.6328 20.0859C22.625 20.1562 22.625 20.2344 22.6172 20.3047C22.5703 20.7422 22.4766 21.1172 22.3281 21.4609C22.3516 21.4453 22.3672 21.4219 22.3828 21.4062C23.1094 20.6797 23.4375 20.0156 23.5391 19.0312C23.5469 18.9609 23.5547 18.8906 23.5625 18.8125C23.5781 18.5547 23.5781 18.2891 23.5625 18.0234C23.5234 17.3984 23.3828 16.7656 23.1719 16.1641C22.7188 14.8828 21.9219 13.7422 20.9922 13.0547C20.7734 12.8984 20.5469 12.7578 20.3203 12.6562L18.1797 11.6797L17.5 11.375Z" fill="#FCC368"/>
<path fill-rule="evenodd" clip-rule="evenodd" d="M22.9375 25.7578C22.7187 28.1328 24.1718 30.2578 26.5156 30.8047H35.4531C38.5 30.8047 39.4062 30.1875 39.4062 27.3906V15.1016C39.4062 14.375 38.8046 13.7734 38.0781 13.7734H28.7031C23.875 13.7734 23.8359 15.4922 23.5625 18.0234C23.5781 18.2891 23.5781 18.5547 23.5625 18.8125C23.5546 18.8906 23.5546 18.9609 23.539 19.0312C24.3828 23.3672 23.1328 23.6797 22.9375 25.7578Z" fill="#F78411"/>
<path fill-rule="evenodd" clip-rule="evenodd" d="M28.7267 24.8984L28.4532 25.7578L28.0782 26.9297C27.9298 27.4063 27.6017 27.6562 27.3907 27.5234C26.1564 26.75 25.1251 28.3984 26.5626 29.2109C26.9142 29.4062 26.6173 29.9297 26.5704 30.1328C26.547 30.2422 26.5314 30.3516 26.5235 30.4531C26.5157 30.5703 26.5157 30.6875 26.5235 30.8047C26.6798 32.6016 29.2657 33.3203 30.4845 30.8047C30.5782 30.6094 30.6642 30.3906 30.7423 30.1562L32.1564 25.7578C32.5001 24.7031 32.4142 23.9219 32.0939 22.8828L31.3439 20.4766H28.4923L28.4845 22.4609L28.8204 23.6719C28.8985 24.25 28.8985 24.3438 28.7267 24.8984Z" fill="#FFDDA6"/>
<path fill-rule="evenodd" clip-rule="evenodd" d="M30.6641 22.8828C30.9844 23.9219 31.0703 24.7031 30.7266 25.7578L29.7031 28.9297L29.3047 30.1484C29.2266 30.3828 29.1406 30.6016 29.0469 30.7969C28.6562 31.6016 28.1328 32.0703 27.5938 32.2891C28.4922 32.6641 29.7344 32.3281 30.4766 30.7969C30.5703 30.6016 30.6562 30.3828 30.7344 30.1484L31.1016 29L32.1484 25.75V25.7422C32.1484 25.7422 32.1484 25.7422 32.1484 25.7344C32.1797 25.6484 32.2031 25.5625 32.2266 25.4844C32.4766 24.5625 32.3828 23.8281 32.0859 22.875C32.0859 22.875 32.0859 22.875 32.0859 22.8672L31.3359 20.4609L31.3125 20.4922C31.3125 20.5 31.3047 20.5 31.3047 20.5C31.1562 20.6875 30.9687 20.8594 30.7734 21.0156C30.5937 21.1563 30.3984 21.2891 30.2109 21.4141L30.6641 22.8828Z" fill="#FCC368"/>
<path fill-rule="evenodd" clip-rule="evenodd" d="M23.5626 18.0234L25.8516 21.2109C26.4376 22.0234 27.4688 22.6796 28.4766 22.4609C28.6173 22.4296 28.7579 22.3828 28.8985 22.3203C29.2423 22.1562 29.6485 21.8281 29.9688 21.6015C30.4298 21.2734 30.961 20.9609 31.3126 20.5078L31.336 20.4765C32.0235 19.5624 32.086 18.2656 31.3907 17.2812L29.6173 14.7656C29.3282 14.3671 29.0235 14.039 28.7032 13.7656C26.1251 11.5859 22.7813 13.3046 23.1719 16.1562C23.3751 16.7656 23.5157 17.3984 23.5626 18.0234Z" fill="#64B0D9"/>
<path fill-rule="evenodd" clip-rule="evenodd" d="M28.25 15.8906L30.0234 18.4062C30.3359 18.8515 30.4922 19.3515 30.5156 19.8593C30.5234 20.0625 30.5078 20.2734 30.4688 20.4765C30.3906 20.8828 30.2266 21.2656 29.9766 21.6015L29.9844 21.5937C30.2422 21.414 30.5156 21.2343 30.7734 21.039C30.9766 20.8828 31.1641 20.7109 31.3125 20.5156L31.3359 20.4843C31.4766 20.2968 31.5938 20.0859 31.6797 19.8671C32.0156 19.039 31.9297 18.0703 31.3828 17.289L29.6172 14.7656C29.3281 14.3671 29.0234 14.039 28.7031 13.7656C26.8281 12.1796 24.5391 12.6562 23.5859 14.1406C24.6797 13.6953 26.0938 13.8437 27.3359 14.8906C27.6484 15.164 27.9609 15.4921 28.25 15.8906Z" fill="#4A83C9"/>
<path d="M38.0781 13.1797H34.7891C34.4609 13.1797 34.1953 13.4453 34.1953 13.7735C34.1953 14.1016 34.4609 14.3672 34.7891 14.3672H38.0781C38.4844 14.3672 38.8125 14.6953 38.8125 15.1016V27.3907C38.8125 28.6485 38.625 29.336 38.1875 29.6953C37.7422 30.0625 36.9219 30.2188 35.4453 30.2188H31.3281L32.7109 25.9375C33.1094 24.7032 32.9844 23.7891 32.6484 22.711L31.9844 20.5782C32.2031 20.2266 32.3516 19.8282 32.4219 19.4141C32.5703 18.5469 32.375 17.6719 31.8672 16.9532L30.0859 14.4297C30.0703 14.4063 30.0547 14.3907 30.0391 14.3672H32.5234C32.8516 14.3672 33.1172 14.1016 33.1172 13.7735C33.1172 13.4453 32.8516 13.1797 32.5234 13.1797H28.9062C27.4453 12.0391 25.8438 12.0313 24.75 12.4688C23.875 12.8203 23.2188 13.4453 22.8594 14.2344C22.5156 13.7032 22.1094 13.2344 21.6719 12.8516C21.7578 12.4219 21.7188 11.9375 21.5469 11.4766C21.3203 10.8594 20.8984 10.375 20.3906 10.1485L19.7656 9.86722C19.4531 9.7266 19.1094 9.71097 18.7812 9.83597C18.4609 9.95316 18.2031 10.1953 18.0703 10.5L17.8828 10.9063L17.7422 10.8438C15.9922 10.0469 14.1719 10.1563 12.6094 11.1407C10.8125 12.2813 9.55469 14.5078 9.39062 16.7578C8.53125 16.7578 7.25 16.8047 6.03125 17.1328V10.2969C6.03125 8.63285 4.67969 7.28128 3.01562 7.28128C1.35156 7.27347 0 8.62503 0 10.2891V35.0078C0 36.336 1.08594 37.4219 2.41406 37.4219H37.5859C38.9141 37.4219 40 36.3438 40 35.0078V15.1016C40 14.0391 39.1406 13.1797 38.0781 13.1797ZM31.5938 25.5703L30.1719 29.9688C29.6719 31.5157 28.7031 32 27.9688 31.7969C27.5469 31.6797 27.1641 31.3203 27.1016 30.7657C27.1016 30.7578 27.1016 30.7422 27.1016 30.7344C27.0938 30.5938 27.1016 30.4375 27.1406 30.2735C27.1484 30.2578 27.1641 30.2188 27.1719 30.1875C27.2266 30.0391 27.3047 29.836 27.3203 29.6094C27.3516 29.211 27.1797 28.8828 26.8516 28.7032C26.6016 28.5625 26.4531 28.3828 26.4531 28.211C26.4531 28.1016 26.5078 28.0078 26.6016 27.961C26.7266 27.8907 26.8906 27.9219 27.0781 28.0391C27.2969 28.1719 27.5703 28.2032 27.8203 28.1094C28.1875 27.9766 28.4844 27.6172 28.6406 27.125L29.2891 25.086C29.4922 24.4375 29.4922 24.25 29.3906 23.5938C29.3906 23.5703 29.3828 23.5469 29.375 23.5235L29.1875 22.836C29.3047 22.7735 29.4219 22.7032 29.5391 22.625L31.0547 21.5547L31.5234 23.0547C31.8516 24.1094 31.8672 24.7188 31.5938 25.5703ZM23.5234 25.8125C23.5781 25.211 23.7266 24.7891 23.9062 24.2969C24.2344 23.3672 24.6016 22.336 24.3125 20.0782L25.375 21.5547C26 22.4219 27 23.0703 28.0391 23.0938L28.2344 23.7969C28.3047 24.2735 28.3047 24.2813 28.1641 24.7188L27.5156 26.7578C27.5 26.8125 27.4766 26.8594 27.4609 26.8985C26.9766 26.6797 26.4688 26.6797 26.0391 26.9219C25.5703 27.1797 25.2812 27.6719 25.2812 28.2032C25.2812 28.7657 25.5781 29.2735 26.1172 29.6407C26.1016 29.6953 26.0781 29.75 26.0703 29.7813C26.0391 29.8594 26.0156 29.9297 26 30.0078C26 30.0157 26 30.0157 26 30.0235C24.3359 29.336 23.3516 27.6953 23.5234 25.8125ZM25.1875 13.5625C26.1953 13.1563 27.8359 13.3203 29.125 15.1094L30.8984 17.625C31.2266 18.086 31.3516 18.6485 31.25 19.2032C31.1562 19.7657 30.8438 20.25 30.3906 20.5703L28.8516 21.6563C27.9062 22.3282 26.7969 21.5235 26.3203 20.8594L24.125 17.8047C24.0703 17.211 23.9375 16.6172 23.7422 16.0391C23.6172 14.9375 24.1797 13.9688 25.1875 13.5625ZM22.6016 16.3282C22.6094 16.3516 22.6172 16.3672 22.625 16.3907C22.8984 17.1719 23.0312 17.9922 22.9766 18.7735C22.9688 18.8282 22.9688 18.8907 22.9609 18.9453C22.9609 18.961 22.9609 18.9766 22.9531 18.9844C22.8594 19.8203 22.5938 20.3594 21.9688 20.9844C20.4141 22.5469 17.5547 23.2422 15.8516 22.4688L13.4609 21.3828C13.8281 19.6641 14.5391 18.961 15.3438 18.1563C16.4219 17.086 17.6406 15.8828 18.0234 12.2578L20.0781 13.1953C20.2656 13.2813 20.4531 13.3907 20.6328 13.5235C20.6406 13.5313 20.6562 13.5391 20.6641 13.5469C21.4922 14.1485 22.1953 15.1875 22.6016 16.3282ZM19.1406 10.9766C19.1562 10.9453 19.1797 10.9297 19.1953 10.9219C19.2109 10.9141 19.2422 10.9063 19.2734 10.9219L19.8984 11.2032C20.1172 11.3047 20.3203 11.5469 20.4297 11.8672C20.4531 11.9375 20.4766 12.0078 20.4922 12.0782L18.9531 11.375L19.1406 10.9766ZM10.5547 17.1641C10.5781 15.1563 11.6562 13.1407 13.2422 12.1328C13.7734 11.7969 14.5 11.4844 15.3984 11.4844C15.8516 11.4844 16.3438 11.5625 16.875 11.7578C16.5859 15.2578 15.5703 16.2578 14.5078 17.3203C13.6797 18.1407 12.8359 18.9766 12.3672 20.8282C10.7812 19.7735 10.5469 18.1172 10.5547 17.1641ZM37.5859 36.2422H2.41406C1.73438 36.2422 1.17969 35.6875 1.17969 35.0078V10.2891C1.17969 9.27347 2.00781 8.45316 3.01562 8.45316C4.03125 8.45316 4.85156 9.27347 4.85156 10.2891V17.9375V17.9453V24.9766C4.85156 25.7344 5.46875 26.3516 6.22656 26.3516H9.84375C10.1719 26.3516 10.4375 26.086 10.4375 25.7578C10.4375 25.4297 10.1719 25.1641 9.84375 25.1641H6.22656C6.125 25.1641 6.03906 25.0782 6.03906 24.9766V18.3594C7.20312 17.9766 8.54688 17.9297 9.41406 17.9375C9.625 19.8907 10.7344 21.4453 12.5391 22.2657L15.3594 23.5469C15.9844 23.8282 16.7109 23.961 17.4766 23.961C19.3516 23.961 21.4531 23.1719 22.8047 21.8125C22.9609 21.6485 23.1094 21.4922 23.2344 21.336C23.2734 22.5703 23.0312 23.2422 22.7969 23.9063C22.6562 24.2891 22.5156 24.6875 22.4297 25.1719H12.0781C11.75 25.1719 11.4844 25.4375 11.4844 25.7657C11.4844 26.0938 11.75 26.3594 12.0781 26.3594H22.3281C22.3516 27.4297 22.6797 28.461 23.2812 29.3203C23.9375 30.25 24.8906 30.9375 25.9922 31.2813C26.2188 32.1407 26.8906 32.7344 27.6562 32.9453C27.8672 33 28.0859 33.0313 28.3125 33.0313C29.2109 33.0313 30.1641 32.5469 30.8359 31.3985H35.4609C37.1484 31.3985 38.1484 31.1953 38.8281 30.7032V35.0078C38.8203 35.6875 38.2656 36.2422 37.5859 36.2422Z" fill="black"/>
<path d="M24.25 6.52344H25.5859L23.9297 8.17187C23.7578 8.34375 23.7109 8.59375 23.7969 8.8125C23.8828 9.03125 24.1016 9.17969 24.3438 9.17969H27.1563C27.4844 9.17969 27.75 8.91406 27.75 8.58594C27.75 8.25781 27.4844 7.99219 27.1563 7.99219H25.7734L27.4297 6.34375C27.6016 6.17187 27.6484 5.92187 27.5625 5.70312C27.4766 5.48437 27.2578 5.33594 27.0156 5.33594H24.25C23.9219 5.33594 23.6562 5.60156 23.6562 5.92969C23.6562 6.25781 23.9219 6.52344 24.25 6.52344Z" fill="black"/>
<path d="M30.0469 3.75781H31.3828L29.7266 5.40625C29.5547 5.57812 29.5078 5.82812 29.5937 6.04688C29.6797 6.26562 29.8984 6.41406 30.1406 6.41406H32.9531C33.2812 6.41406 33.5469 6.14844 33.5469 5.82031C33.5469 5.49219 33.2812 5.22656 32.9531 5.22656H31.5703L33.2266 3.57812C33.3984 3.40625 33.4453 3.15625 33.3594 2.9375C33.2656 2.71875 33.0547 2.57031 32.8125 2.57031H30.0469C29.7188 2.57031 29.4531 2.83594 29.4531 3.16406C29.4609 3.49219 29.7188 3.75781 30.0469 3.75781Z" fill="black"/>
</svg>
