<svg width="54" height="54" viewBox="0 0 54 54" fill="none" xmlns="http://www.w3.org/2000/svg">
<g clip-path="url(#clip0_1008_10511)">
<path fill-rule="evenodd" clip-rule="evenodd" d="M31.805 24.3295L34.8953 28.6314C35.6814 29.7277 37.0834 30.609 38.4405 30.3222C38.6316 30.2835 38.8232 30.2205 39.0115 30.1311C39.4774 29.9069 40.0246 29.4645 40.458 29.16C41.0825 28.718 41.8002 28.2936 42.2695 27.6872L42.3053 27.6423C43.2348 26.4088 43.3126 24.6578 42.3741 23.3316L39.9797 19.9377C39.5912 19.4029 39.1759 18.9576 38.7453 18.5905C35.269 15.6505 30.7528 17.9659 31.2731 21.8168C31.5599 22.6296 31.7482 23.4837 31.805 24.3295Z" fill="#FEC914"/>
<path d="M51.4094 17.7937H46.974C46.5336 17.7937 46.1768 18.1505 46.1768 18.5905C46.1768 19.0309 46.5336 19.3877 46.974 19.3877H51.4094C51.959 19.3877 52.406 19.8343 52.406 20.383V36.9721C52.406 38.6654 52.1551 39.5957 51.5672 40.0834C50.9711 40.577 49.8632 40.7879 47.8618 40.7879H42.3033L44.1667 35.0094C44.7039 33.3462 44.5317 32.1094 44.0793 30.6526L43.1804 27.772C43.4717 27.2966 43.6735 26.7647 43.7712 26.1966C43.9739 25.0212 43.709 23.8408 43.0251 22.8723L40.6248 19.4701C40.6042 19.4417 40.5832 19.4153 40.5626 19.3877H43.9162C44.3566 19.3877 44.7134 19.0309 44.7134 18.5905C44.7134 18.1505 44.3566 17.7937 43.9162 17.7937H39.0317C37.0616 16.2545 34.8941 16.2401 33.4163 16.8317C32.2327 17.3055 31.3506 18.1538 30.864 19.2113C30.396 18.4961 29.853 17.8584 29.2565 17.3401C29.3722 16.758 29.3158 16.1078 29.0847 15.4796C28.7798 14.6507 28.2112 13.9964 27.5249 13.6854L26.6828 13.303C26.2621 13.1119 25.7921 13.0962 25.3582 13.2594C24.9252 13.4221 24.582 13.743 24.3934 14.1604L24.1408 14.7133L23.9509 14.6268L23.9488 14.6259C21.5861 13.5523 19.1269 13.6961 17.0241 15.0309C14.5951 16.5738 12.8952 19.5718 12.6814 22.6164C11.522 22.6123 9.79047 22.6749 8.1487 23.1219V13.8942C8.1487 11.6493 6.32153 9.82298 4.07579 9.82298C1.8284 9.82298 0 11.6489 0 13.8942V47.264C0 49.059 1.46091 50.5195 3.25717 50.5195H50.7432C52.5391 50.5195 54 49.059 54 47.264V20.383C54 18.9551 52.8378 17.7937 51.4094 17.7937ZM42.6493 34.52L40.7336 40.4617C40.0608 42.5459 38.7536 43.2018 37.7558 42.9274C37.1897 42.7713 36.6652 42.2855 36.5902 41.5332C36.5894 41.5184 36.5874 41.5036 36.5857 41.4887C36.5713 41.2968 36.5849 41.0891 36.6356 40.865C36.6422 40.8423 36.6623 40.7884 36.6772 40.7488C36.7517 40.5482 36.8535 40.2734 36.8753 39.9685C36.9132 39.4346 36.6829 38.9872 36.2471 38.7433C35.9051 38.55 35.7094 38.3061 35.7111 38.0738C35.7119 37.9304 35.7889 37.799 35.9117 37.7314C36.0765 37.6412 36.3039 37.6774 36.5552 37.8348C36.8514 38.019 37.2177 38.0515 37.5596 37.925C38.054 37.7417 38.4574 37.2576 38.6646 36.598L39.5376 33.8488C39.8161 32.9688 39.8136 32.7196 39.6793 31.8392C39.6744 31.8083 39.6682 31.7778 39.6595 31.7477L39.4053 30.8249C39.5656 30.7449 39.7238 30.6506 39.8791 30.5406L41.9247 29.1003L42.5571 31.126C42.9979 32.5466 43.0205 33.3709 42.6493 34.52ZM31.7585 34.8479C31.8343 34.0404 32.0378 33.4678 32.2738 32.8045C32.7188 31.5545 33.214 30.1583 32.8177 27.105L34.2481 29.0957C35.0885 30.2679 36.4469 31.1466 37.8484 31.1742L38.1109 32.1259C38.2085 32.7661 38.2044 32.7797 38.0186 33.3672L37.1452 36.1172C37.1213 36.1926 37.0945 36.2544 37.069 36.3039C36.4143 36.0056 35.7292 36.013 35.145 36.3344C34.5155 36.6796 34.122 37.3425 34.1175 38.0639C34.1125 38.8195 34.5217 39.5137 35.2509 40.0002C35.2286 40.0707 35.2006 40.1461 35.1829 40.1934C35.145 40.2956 35.1091 40.392 35.084 40.4987C35.0824 40.5061 35.0811 40.5136 35.0795 40.521C32.8576 39.6047 31.5216 37.3911 31.7585 34.8479ZM34.0083 18.3116C35.3695 17.7669 37.5807 17.9886 39.3283 20.397L41.7228 23.791C42.1611 24.4119 42.3305 25.1703 42.2003 25.9259C42.0705 26.6815 41.6569 27.339 41.0364 27.7762L38.9608 29.2379C37.6804 30.143 36.1848 29.0611 35.5426 28.1663L32.5795 24.0415C32.5042 23.2402 32.3245 22.4343 32.0576 21.6573C31.8792 20.1692 32.6397 18.8595 34.0083 18.3116ZM30.5093 22.0434C30.5175 22.071 30.527 22.0981 30.5381 22.1245C30.9023 23.1751 31.0832 24.2899 31.0099 25.3368C31.0041 25.4146 30.9975 25.4904 30.9901 25.565C30.9876 25.5836 30.9852 25.6021 30.9839 25.621C30.8611 26.7466 30.4945 27.4799 29.6524 28.3262C27.5504 30.4401 23.6905 31.3786 21.3924 30.3346L18.16 28.8642C18.6597 26.5414 19.6139 25.593 20.7061 24.5091C22.1641 23.0626 23.8026 21.4348 24.3196 16.5458L27.0935 17.8077C27.3514 17.9247 27.6027 18.0743 27.8462 18.2494C27.8594 18.2592 27.873 18.2687 27.8866 18.2782C29.0109 19.1022 29.9585 20.4988 30.5093 22.0434ZM25.8448 14.82C25.8629 14.7796 25.8951 14.7602 25.9194 14.7512C25.9433 14.7421 25.9816 14.7351 26.0236 14.7545L26.8661 15.1368C27.1619 15.2711 27.4322 15.6048 27.5883 16.03C27.6237 16.1256 27.6501 16.2228 27.6715 16.3192L25.5918 15.3729L25.8448 14.82ZM14.2523 23.1685C14.2865 20.4617 15.7441 17.7323 17.879 16.3765C18.5926 15.9233 19.5818 15.5031 20.7946 15.5031C21.4036 15.5031 22.0685 15.6089 22.7837 15.8697C22.3895 20.594 21.0249 21.9474 19.5838 23.3774C18.471 24.4811 17.3253 25.6178 16.6978 28.1136C14.5563 26.6943 14.2354 24.463 14.2523 23.1685ZM50.7428 48.9255H3.25717C2.34009 48.9255 1.59398 48.1802 1.59398 47.264V13.8942C1.59398 12.5281 2.70758 11.417 4.07579 11.417C5.44276 11.417 6.55472 12.5281 6.55472 13.8942V24.2149V24.2224V33.7191C6.55472 34.74 7.3857 35.5705 8.40701 35.5705H13.2849C13.7254 35.5705 14.0821 35.2138 14.0821 34.7733C14.0821 34.3333 13.7254 33.9766 13.2849 33.9766H8.40701C8.26694 33.9766 8.1487 33.8583 8.1487 33.7187V24.7851C9.71837 24.2718 11.5299 24.2059 12.7086 24.2108C12.9945 26.8521 14.4929 28.9495 16.9294 30.0553L16.9302 30.0557L20.7324 31.7856C21.5721 32.1667 22.5563 32.3467 23.5937 32.3467C26.1229 32.3467 28.966 31.2772 30.7825 29.4501C30.9979 29.2338 31.1903 29.0195 31.3629 28.8041C31.4132 30.466 31.089 31.379 30.7717 32.2705C30.5868 32.7905 30.3972 33.324 30.2732 33.9766H16.3007C15.8607 33.9766 15.5039 34.3333 15.5039 34.7733C15.5039 35.2138 15.8607 35.5705 16.3007 35.5705H30.1414C30.1727 37.0166 30.6156 38.4095 31.4264 39.5648C32.3097 40.8234 33.5967 41.7503 35.0898 42.2167C35.3938 43.3752 36.3076 44.1819 37.3326 44.4641C37.6177 44.5424 37.9156 44.5836 38.2184 44.5836C39.4292 44.5836 40.7221 43.9261 41.6223 42.3819H47.8618C50.145 42.3819 51.4902 42.1092 52.406 41.4484V47.264C52.406 48.1802 51.6599 48.9255 50.7428 48.9255Z" fill="#166780"/>
<path d="M32.7372 8.8029H34.5388L32.2976 11.0318C32.069 11.2592 31.9998 11.6024 32.1229 11.9006C32.2461 12.1989 32.537 12.3938 32.86 12.3938H36.656C37.096 12.3938 37.4528 12.037 37.4528 11.5966C37.4528 11.1566 37.096 10.7998 36.656 10.7998H34.7914L37.0326 8.57095C37.2617 8.34312 37.3305 7.99994 37.2073 7.70166C37.0841 7.40338 36.7932 7.20892 36.4706 7.20892H32.7372C32.2972 7.20892 31.9404 7.5657 31.9404 8.00571C31.9404 8.44612 32.2972 8.8029 32.7372 8.8029Z" fill="#166780"/>
<path d="M40.5655 5.07442H42.3659L40.1263 7.29997C39.8973 7.52739 39.828 7.87099 39.9512 8.16927C40.0744 8.46755 40.3653 8.66242 40.6883 8.66242H44.4843C44.9243 8.66242 45.2811 8.30563 45.2811 7.86522C45.2811 7.42522 44.9243 7.06844 44.4843 7.06844H42.6209L44.8605 4.84288C45.0895 4.61546 45.1588 4.27228 45.0356 3.97359C44.9128 3.67531 44.6215 3.48044 44.2989 3.48044H40.5655C40.1251 3.48044 39.7683 3.83722 39.7683 4.27763C39.7683 4.71764 40.1251 5.07442 40.5655 5.07442Z" fill="#166780"/>
</g>
<defs>
<clipPath id="clip0_1008_10511">
<rect width="54" height="54" fill="white"/>
</clipPath>
</defs>
</svg>
