<svg width="40" height="40" viewBox="0 0 40 40" fill="none" xmlns="http://www.w3.org/2000/svg">
<path d="M28.9296 25.0655L17.3348 24.7556L4.84668 24.1118C4.99243 25.0611 5.21567 25.9968 5.51418 26.9096L6.49855 29.9167L7.69223 38.1249H17.4999L19.3749 32.3229L21.2499 38.1249L30.3798 38.0312L28.9296 25.0655Z" fill="#007AF6"/>
<path d="M31.25 22.6988L36.7855 17.6068C37.2087 17.2038 37.5457 16.7189 37.7759 16.1818C38.0062 15.6446 38.125 15.0662 38.125 14.4818C38.125 13.893 38.0045 13.3105 37.771 12.77C37.5375 12.2295 37.1959 11.7426 36.7671 11.3391L28.75 3.75H26.0078L26.875 8.125L33.125 14.5947L29.3155 18.4541L31.25 22.6988Z" fill="#F6BB92"/>
<path d="M12.4999 3.75L12.4007 13.4703L11.664 13.9297L11.3788 12.5C10.9228 11.7128 10.6368 10.8387 10.5393 9.93423C10.4417 9.02971 10.5348 8.11479 10.8124 7.24844L11.0624 6.46953L11.6874 3.75H12.4999Z" fill="#E57C90"/>
<path d="M5.86709 19.3159L12.6067 19.3821L11.3982 23.1281L4.64146 21.4385L4.60303 20.3645L5.86709 19.3159Z" fill="#005DBB"/>
<path d="M25.5757 16.1222L26.275 12.5H12.192L12.8912 16.3566L10.7432 22.5L19.2333 23.9696V23.9697H19.2335H19.2336L27.7238 22.4646L25.5757 16.1222Z" fill="#F6BB92"/>
<path d="M27.7242 22.4648L24.5656 23.025L23.8203 20.0453L25.3172 19.0484L24.8242 17.5937L25.0328 17.4828C25.3205 17.3359 25.6394 17.2603 25.9625 17.2625L27.7242 22.4648Z" fill="#F6BB92"/>
<path d="M12.401 13.4705L5.73812 17.6219L5.86719 19.316L4.60312 20.3646L4.73484 23.2251L3.54734 22.3901C3.02718 21.991 2.60581 21.4776 2.31582 20.8895C2.02583 20.3015 1.875 19.6547 1.875 18.9991C1.87501 18.3937 2.00361 17.7952 2.25231 17.2433C2.501 16.6913 2.8641 16.1985 3.31758 15.7974L7.71148 11.9115L10.0959 3.75H12.5L12.401 13.4705Z" fill="#F6BB92"/>
<path d="M26.2851 12.3683C27.1631 10.9144 27.438 9.17492 27.0514 7.52109L26.8055 6.46969L26.1805 3.75H12.4305L11.8055 6.46969L11.5555 7.24844C11.2778 8.11482 11.1848 9.02979 11.2825 9.93432C11.3802 10.8389 11.6664 11.7129 12.1226 12.5H26.2056L26.2851 12.3683Z" fill="#FF8AA0"/>
<path d="M28.9297 25.0656L28.6212 22.3082C22.4104 23.4075 16.0558 23.4184 9.8413 22.3405L4.65247 21.4399V21.4414C4.64905 22.3352 4.71393 23.228 4.84653 24.1119L17.5 26.4844L28.9297 25.0656Z" fill="#0A71CD"/>
<path d="M28.7547 23.5031L27.5352 24.2906H24.8812L24.5273 22.8734C25.8971 22.7375 27.2617 22.5492 28.6211 22.3086L28.7547 23.5031Z" fill="#0A71CD"/>
<path d="M29.3155 18.4538L28.5274 17.7628C28.2242 17.497 27.8483 17.3282 27.4481 17.2784C27.048 17.2286 26.6421 17.2999 26.283 17.4833L26.0742 17.5938L26.5668 19.0483L25.0703 20.0458L26.1424 24.3342C26.2145 24.6224 26.3895 24.8744 26.6346 25.0424C26.8796 25.2105 27.1777 25.2831 27.4726 25.2465L28.9292 25.0656L31.25 22.6989L29.3155 18.4538Z" fill="#F6BB92"/>
<path d="M3.16695 22.8859L4.15008 23.6406C4.29322 24.8176 4.55109 25.9777 4.92 27.1045L5.88742 30.0605L7.0739 38.215C7.09553 38.3636 7.16992 38.4994 7.28349 38.5977C7.39705 38.6959 7.54218 38.75 7.69234 38.75H17.5C17.6322 38.75 17.7609 38.7081 17.8677 38.6303C17.9746 38.5526 18.054 38.4429 18.0947 38.3172L19.375 34.3555L20.6553 38.3172C20.6956 38.4444 20.7759 38.5552 20.8842 38.6331C20.9925 38.7111 21.123 38.7521 21.2564 38.75L30.3863 38.6562C30.4741 38.6554 30.5608 38.636 30.6406 38.5994C30.7204 38.5627 30.7916 38.5097 30.8496 38.4437C30.9075 38.3778 30.9509 38.3003 30.9769 38.2164C31.0029 38.1326 31.011 38.0441 31.0005 37.957L29.4849 25.3085L31.6802 23.1516L37.2081 18.0666L37.2159 18.0592C37.7022 17.5962 38.0889 17.0389 38.3526 16.4214C38.6163 15.8039 38.7513 15.1391 38.7494 14.4677C38.7476 13.7962 38.6089 13.1322 38.3418 12.5162C38.0748 11.9001 37.685 11.345 37.1962 10.8846L29.1797 3.29609C29.0636 3.18622 28.9098 3.12499 28.75 3.125H10.0959C9.96073 3.12499 9.82917 3.16881 9.72099 3.24991C9.61281 3.331 9.53384 3.44499 9.49593 3.57477L7.16226 11.5629L2.90359 15.3292C2.36222 15.808 1.93348 16.4006 1.64811 17.0646C1.36274 17.7285 1.2278 18.4474 1.25297 19.1697C1.27814 19.892 1.4628 20.5997 1.79371 21.2422C2.12461 21.8847 2.59356 22.446 3.16695 22.8859ZM5.19586 20.6893L6.0907 19.9433L10.9579 19.9917L10.3297 21.7891C10.2023 21.7679 5.20179 20.9014 5.20179 20.9014L5.19586 20.6893ZM12.9406 13.125H25.5179L24.9622 16.0037L25.8294 18.7887L24.7239 19.5256C24.6166 19.5972 24.5341 19.7001 24.4876 19.8204C24.4411 19.9407 24.433 20.0724 24.4643 20.1975L24.9643 22.1991C20.5133 22.6847 16.0191 22.6119 11.5861 21.9827L13.5061 16.2453L12.9406 13.125ZM25.6262 24.8458L18.125 25.777V23.7565C20.5116 23.8005 22.8985 23.6891 25.2706 23.4231L25.6262 24.8458ZM11.3937 18.7459L6.44679 18.6968L6.39008 17.952L11.9206 14.5062L12.247 16.3059L11.3937 18.7459ZM5.28281 22.1842C5.28281 22.1842 14.4844 23.6208 16.875 23.7192V25.7313L5.40219 23.5802C5.34333 23.1173 5.30354 22.652 5.28281 22.1842ZM17.0452 37.5H8.23304L7.11664 29.8268C7.11148 29.7913 6.10797 26.7152 6.10797 26.7152C5.91246 26.1173 5.75031 25.5091 5.62226 24.8932L16.875 27.003V30.625C16.875 30.7123 16.8933 30.7986 16.9287 30.8784C16.9641 30.9582 17.0158 31.0297 17.0805 31.0883L18.6562 32.5152L17.0452 37.5ZM29.6765 37.4141L21.7031 37.4953C21.7031 37.4953 19.8764 31.938 19.8005 31.8672C19.7982 31.8648 19.7968 31.862 19.7943 31.8598L18.125 30.3478V27.0366L28.2822 25.7757L29.6765 37.4141ZM28.5011 4.375L36.3387 11.7939C36.7038 12.1374 36.995 12.5517 37.1946 13.0115C37.3943 13.4713 37.4981 13.9669 37.5 14.4681C37.5018 14.9694 37.4015 15.4657 37.2052 15.9269C37.0088 16.3882 36.7206 16.8045 36.3581 17.1507L30.8269 22.2389C30.8219 22.2435 30.8169 22.2482 30.812 22.253L28.5411 24.4844L26.8759 24.6911L25.7836 20.3214L26.9141 19.568C27.0268 19.4928 27.1121 19.383 27.157 19.2551C27.202 19.1272 27.2041 18.9882 27.1631 18.859L26.8672 17.9274C27.0844 17.8734 27.3115 17.8729 27.5289 17.9261C27.7463 17.9793 27.9475 18.0845 28.1152 18.2327L28.9034 18.9237C29.0232 19.0287 29.1787 19.084 29.338 19.0782C29.4973 19.0723 29.6483 19.0059 29.7602 18.8924L33.5696 15.033C33.6856 14.9156 33.7504 14.757 33.7498 14.592C33.7493 14.4269 33.6835 14.2688 33.5668 14.152L27.8236 8.40938C27.7938 8.06236 27.739 7.71794 27.6595 7.37883L26.9653 4.375H28.5011ZM27.7629 10.1164L32.244 14.5976L29.2846 17.5954L28.9395 17.2928C28.6067 16.9991 28.2047 16.7947 27.7713 16.6987C27.3379 16.6027 26.8872 16.6183 26.4614 16.744L26.4637 16.7415L26.2221 16.0718C26.2221 16.0718 26.8954 12.577 26.8973 12.5562C27.3325 11.8027 27.6259 10.9757 27.7629 10.1164ZM12.1509 7.43922L12.928 4.375H25.6827L26.4427 7.66344C26.78 9.09207 26.5681 10.5953 25.8489 11.875H12.495C11.8055 10.4981 11.682 8.90601 12.1509 7.43922ZM3.73164 16.2656L8.12554 12.3797C8.21392 12.3016 8.27838 12.2 8.31148 12.0868L10.5645 4.375H11.6455L10.9605 7.05766C10.6569 8.0073 10.5553 9.00997 10.6623 10.0012C10.7693 10.9925 11.0825 11.9504 11.5817 12.8134C11.5949 12.836 11.6096 12.8578 11.6255 12.8787L5.40765 17.0914C5.31068 17.1518 5.23212 17.2376 5.18051 17.3396C5.1289 17.4415 5.10621 17.5556 5.11492 17.6695L5.21945 19.0425L4.16242 19.9234C4.08979 19.984 4.03184 20.0602 3.99293 20.1464C3.95403 20.2325 3.93518 20.3264 3.93781 20.4209L3.98008 21.9343C3.98008 21.9343 2.5 20.1259 2.5 18.9991C2.50013 18.4822 2.60999 17.9713 2.82231 17.5001C3.03463 17.0289 3.34457 16.6081 3.73164 16.2656Z" fill="black"/>
<path d="M19.375 19.375C19.5408 19.375 19.6997 19.3092 19.8169 19.1919C19.9342 19.0747 20 18.9158 20 18.75V18.125C20 17.9592 19.9342 17.8003 19.8169 17.6831C19.6997 17.5658 19.5408 17.5 19.375 17.5C19.2092 17.5 19.0503 17.5658 18.9331 17.6831C18.8158 17.8003 18.75 17.9592 18.75 18.125V18.75C18.75 18.9158 18.8158 19.0747 18.9331 19.1919C19.0503 19.3092 19.2092 19.375 19.375 19.375Z" fill="black"/>
</svg>
