<svg width="78" height="123" viewBox="0 0 78 123" fill="none" xmlns="http://www.w3.org/2000/svg">
<path d="M49.3252 105.89C56.0288 109.767 56.0288 116.04 49.3252 119.894C42.6217 123.771 31.7313 123.771 25.0277 119.894C18.3241 116.017 18.3241 109.743 25.0277 105.89C31.7313 102.037 42.6217 102.037 49.3252 105.89Z" fill="#325C84"/>
<ellipse cx="39.5" cy="113.5" rx="11.5" ry="3.5" fill="#203E6A"/>
<path d="M36 52V111.714C36 112.253 36.2696 112.738 36.755 113.007L38.1571 113.816C38.238 113.869 38.5615 114.031 38.939 114.031C39.3165 114.031 39.6401 113.843 39.721 113.816L40.8804 113.142C41.5005 112.792 41.878 112.145 41.878 111.417V52H36Z" fill="#021D45"/>
<circle cx="39" cy="39" r="39" fill="#166780"/>
<path d="M70 38.9887C70 21.8741 56.1208 8.00004 39 8.00004C21.8792 8.00005 8 21.8741 8 38.9887C8 56.1032 21.8792 69.9773 39 69.9773C56.1208 69.9773 70 56.1032 70 38.9887Z" fill="#41B9D5"/>
<path d="M11.8535 39.0853C11.8535 54.0985 24.0763 66.3168 39.095 66.3168C54.1137 66.3168 66.3365 54.0985 66.3365 39.0853C66.3365 24.072 54.1137 11.8538 39.095 11.8538C24.0763 11.8385 11.8535 24.0568 11.8535 39.0853ZM64.1517 39.0853C64.1517 52.8919 52.922 64.1175 39.1103 64.1175C25.2986 64.1175 14.0689 52.8919 14.0689 39.0853C14.0689 25.2786 25.2986 14.053 39.1103 14.053C52.922 14.0378 64.1517 25.2786 64.1517 39.0853Z" fill="#021D45"/>
<path d="M39.246 61.9915C51.8078 61.9915 61.9912 51.8081 61.9912 39.2462C61.9912 26.6844 51.8078 16.501 39.246 16.501C26.6841 16.501 16.5007 26.6844 16.5007 39.2462C16.5007 51.8081 26.6841 61.9915 39.246 61.9915Z" fill="#021D45"/>
<path d="M39.2459 64.5186C44.2443 64.5186 49.1305 63.0364 53.2865 60.2594C57.4426 57.4825 60.6818 53.5354 62.5946 48.9175C64.5074 44.2996 65.0079 39.2181 64.0328 34.3157C63.0576 29.4133 60.6506 24.9102 57.1162 21.3758C53.5818 17.8414 49.0787 15.4344 44.1763 14.4592C39.2739 13.4841 34.1925 13.9846 29.5745 15.8974C24.9566 17.8102 21.0095 21.0495 18.2326 25.2055C15.4556 29.3615 13.9734 34.2477 13.9734 39.2461C13.981 45.9465 16.6461 52.3702 21.3839 57.1081C26.1218 61.846 32.5455 64.511 39.2459 64.5186ZM39.2459 18.5686C43.3355 18.5686 47.3333 19.7814 50.7337 22.0534C54.1341 24.3255 56.7844 27.5549 58.3494 31.3332C59.9144 35.1115 60.3239 39.2691 59.5261 43.2801C58.7282 47.2912 56.7589 50.9755 53.8671 53.8673C50.9753 56.7591 47.2909 58.7285 43.2799 59.5263C39.2688 60.3242 35.1113 59.9147 31.3329 58.3496C27.5546 56.7846 24.3252 54.1343 22.0532 50.7339C19.7811 47.3335 18.5684 43.3358 18.5684 39.2461C18.5747 33.7641 20.7552 28.5083 24.6316 24.6319C28.508 20.7555 33.7638 18.5749 39.2459 18.5686Z" fill="#021D45"/>
</svg>
