<svg width="94" height="94" viewBox="0 0 94 94" fill="none" xmlns="http://www.w3.org/2000/svg">
<rect opacity="0.6" width="107" height="107" rx="53.5" transform="matrix(-1 -8.74228e-08 -8.74228e-08 1 107 -13)" fill="#41B9D5"/>
<g clip-path="url(#clip0_148_9640)">
<path d="M64.3468 66.0234H37.2412V61.3917C37.2412 57.4112 40.468 54.1844 44.4484 54.1844H57.1395C61.12 54.1844 64.3468 57.4112 64.3468 61.3917V66.0234Z" fill="#8BCFD8"/>
<path d="M48.5127 50.7287H39.1998C37.133 50.7287 35.4575 49.0532 35.4575 46.9864V33.3131C35.4575 24.8429 42.3239 17.9765 50.794 17.9765C59.2643 17.9765 66.1307 24.8429 66.1307 33.3131V46.9864C66.1307 49.0532 64.4552 50.7287 62.3884 50.7287H53.1503" fill="#8BCFD8"/>
<path d="M61.0435 32.5981C59.0557 32.5981 57.1802 31.6737 55.9652 30.0951L54.7673 28.5386L53.5693 30.0951C52.3544 31.6737 50.4788 32.5981 48.4911 32.5981H40.5444V43.3181C40.5444 45.8072 42.053 48.0462 44.3551 48.9736L48.7119 50.7288V54.1844H46.4503C46.4503 56.2556 48.1293 57.9346 50.2005 57.9346H51.3874C53.4586 57.9346 55.1376 56.2556 55.1376 54.1844H52.876V50.7288L57.2328 48.9736C59.5349 48.0462 61.0435 45.8073 61.0435 43.3182V32.5981Z" fill="#8BCFD8"/>
<path d="M50.7941 46.536C49.3511 46.536 48.1812 45.3662 48.1812 43.923V43.5121H53.407V43.923C53.407 45.3661 52.2372 46.536 50.7941 46.536Z" fill="#FAF7F5"/>
<path d="M72.5427 58.3262C72.5427 62.5772 69.0966 66.0234 64.8455 66.0234C60.5945 66.0234 57.1484 62.5773 57.1484 58.3262C57.1484 54.0753 60.5945 50.6292 64.8455 50.6292C69.0966 50.6292 72.5427 54.0753 72.5427 58.3262Z" fill="#FEC914"/>
<path d="M50.8116 67C50.4046 67 50.0315 66.736 49.8935 66.354C49.7552 65.9713 49.8764 65.5262 50.1926 65.2687C50.5186 65.0032 50.9866 64.9768 51.3404 65.2033C51.672 65.4155 51.8451 65.8199 51.7708 66.2065C51.6833 66.6607 51.275 67 50.8116 67Z" fill="#166780"/>
<path d="M57.0215 38.9166C56.7711 38.9166 56.5207 38.8209 56.3298 38.6294C56.1768 38.4757 55.9735 38.3912 55.7575 38.3912C55.5415 38.3912 55.3381 38.4757 55.1851 38.6294C54.8044 39.0113 54.1861 39.0125 53.8041 38.6317C53.422 38.251 53.421 37.6327 53.8017 37.2506C54.324 36.7266 55.0185 36.438 55.7575 36.438C56.4964 36.438 57.1911 36.7266 57.7132 37.2506C58.094 37.6327 58.0929 38.251 57.7109 38.6317C57.5203 38.8216 57.2709 38.9166 57.0215 38.9166V38.9166Z" fill="#166780"/>
<path d="M47.095 38.9166C46.8445 38.9166 46.5942 38.8209 46.4033 38.6294C46.2503 38.4757 46.047 38.3912 45.831 38.3912C45.615 38.3912 45.4116 38.4757 45.2586 38.6294C44.8778 39.0113 44.2596 39.0125 43.8776 38.6317C43.4955 38.251 43.4944 37.6327 43.8752 37.2506C44.3975 36.7266 45.092 36.438 45.831 36.438C46.5699 36.438 47.2646 36.7266 47.7867 37.2506C48.1675 37.6327 48.1664 38.251 47.7844 38.6317C47.5938 38.8216 47.3444 38.9166 47.095 38.9166Z" fill="#166780"/>
<path d="M50.794 47.5126C48.8147 47.5126 47.2046 45.9023 47.2046 43.923V43.5122C47.2046 42.9728 47.6418 42.5356 48.1812 42.5356H53.407C53.9464 42.5356 54.3836 42.9728 54.3836 43.5122V43.923C54.3836 45.9023 52.7733 47.5126 50.794 47.5126V47.5126ZM49.2585 44.4886C49.4893 45.113 50.0905 45.5593 50.794 45.5593C51.4977 45.5593 52.0989 45.113 52.3297 44.4886H49.2585Z" fill="#166780"/>
<path d="M62.7588 58.1593C62.2194 58.1593 61.7822 57.7221 61.7822 57.1828V56.3404C61.7822 55.801 62.2194 55.3638 62.7588 55.3638C63.2981 55.3638 63.7354 55.801 63.7354 56.3404V57.1828C63.7353 57.7221 63.298 58.1593 62.7588 58.1593Z" fill="#166780"/>
<path d="M66.9324 58.1593C66.393 58.1593 65.9558 57.7221 65.9558 57.1828V56.3404C65.9558 55.801 66.393 55.3638 66.9324 55.3638C67.4717 55.3638 67.9089 55.801 67.9089 56.3404V57.1828C67.9089 57.7221 67.4717 58.1593 66.9324 58.1593Z" fill="#166780"/>
<path d="M64.8457 62.4865C63.9783 62.4865 63.1109 62.1563 62.4506 61.496C62.0693 61.1146 62.0692 60.4963 62.4506 60.1149C62.8319 59.7336 63.4503 59.7335 63.8317 60.1149C64.3909 60.6741 65.3007 60.6741 65.86 60.1149C66.2413 59.7337 66.8597 59.7336 67.241 60.1149C67.6224 60.4963 67.6224 61.1146 67.241 61.496C66.5805 62.1563 65.7131 62.4865 64.8457 62.4865V62.4865Z" fill="#166780"/>
<path d="M66.2047 49.7591C66.7722 48.9801 67.1072 48.0217 67.1072 46.9865V33.3131C67.1072 24.318 59.7892 17 50.794 17C41.7989 17 34.481 24.318 34.481 33.3131V46.9864C34.481 49.5883 36.5979 51.7052 39.1998 51.7052H47.7355V53.2078H44.4485C39.9359 53.2078 36.2646 56.8791 36.2646 61.3916V66.0234C36.2646 66.5628 36.7019 67 37.2412 67H46.3794C46.9188 67 47.356 66.5628 47.356 66.0234C47.356 65.4841 46.9188 65.0468 46.3794 65.0468H38.2179V61.3917C38.2179 57.956 41.013 55.161 44.4486 55.161H45.5755C46.0267 57.3004 47.929 58.9112 50.2007 58.9112H51.3876C53.6593 58.9112 55.5616 57.3004 56.0128 55.161H56.7698C56.3839 56.1421 56.1719 57.2099 56.1719 58.3263C56.1719 61.0336 57.4186 63.455 59.3681 65.0468H55.2088C54.6694 65.0468 54.2322 65.4841 54.2322 66.0234C54.2322 66.5628 54.6694 67 55.2088 67H64.8456C69.6283 67 73.5192 63.109 73.5192 58.3263C73.5192 54.0059 70.344 50.4132 66.2047 49.7591V49.7591ZM39.1998 49.7521C37.6748 49.7521 36.4341 48.5114 36.4341 46.9864V33.3131C36.4341 25.395 42.876 18.9531 50.7941 18.9531C58.7123 18.9531 65.1541 25.395 65.1541 33.3131V46.9864C65.1541 48.5114 63.9134 49.7521 62.3884 49.7521H57.894C60.4111 48.6047 62.0201 46.1134 62.0201 43.3181V29.684C62.0201 29.1446 61.5829 28.7074 61.0436 28.7074C60.5042 28.7074 60.067 29.1446 60.067 29.684V31.5312C58.7601 31.2883 57.5605 30.5666 56.7392 29.4995L55.5412 27.943C55.3564 27.7029 55.0704 27.5621 54.7673 27.5621C54.4642 27.5621 54.1782 27.7029 53.9934 27.943L52.7955 29.4995C51.7728 30.8282 50.1637 31.6216 48.4911 31.6216H41.521V29.684C41.521 29.1446 41.0838 28.7074 40.5444 28.7074C40.0051 28.7074 39.5679 29.1446 39.5679 29.684V43.3181C39.5679 46.1135 41.1768 48.6048 43.6939 49.7522H39.1998V49.7521ZM51.3876 56.958H50.2007C49.0148 56.958 48.0005 56.2099 47.6046 55.1609H48.7122C49.2516 55.1609 49.6888 54.7237 49.6888 54.1843V50.7287C49.6888 50.3302 49.4467 49.9717 49.0771 49.8229L44.7203 48.0677C42.777 47.2848 41.5213 45.4206 41.5213 43.3181V33.5748H48.4914C50.7659 33.5748 52.9536 32.4966 54.3436 30.6908L54.7676 30.1398L55.1916 30.6908C56.3811 32.2362 58.1548 33.2486 60.0672 33.5086V43.3182C60.0672 45.4206 58.8115 47.2849 56.8682 48.0678L52.5113 49.823C52.1417 49.9718 51.8997 50.3303 51.8997 50.7288V54.1844C51.8997 54.7238 52.3369 55.161 52.8763 55.161H53.9839C53.5878 56.21 52.5734 56.958 51.3876 56.958ZM57.1396 53.2079H53.8526V51.7053H59.2483C58.7154 52.1565 58.2375 52.6709 57.8262 53.2365C57.5981 53.2175 57.3684 53.2079 57.1396 53.2079V53.2079ZM64.8456 65.0468C61.1398 65.0468 58.1251 62.032 58.1251 58.3263C58.1251 54.6206 61.1399 51.6058 64.8456 51.6058C68.5513 51.6058 71.5661 54.6207 71.5661 58.3263C71.5661 62.032 68.5513 65.0468 64.8456 65.0468Z" fill="#166780"/>
</g>
<defs>
<clipPath id="clip0_148_9640">
<rect width="50" height="50" fill="white" transform="translate(29 17)"/>
</clipPath>
</defs>
</svg>
