<svg width="32" height="40" viewBox="0 0 32 40" fill="none" xmlns="http://www.w3.org/2000/svg">
<path d="M31.3333 11.333H24.8333C23.8583 11.333 22.9166 11.6497 22.1333 12.233L21.8583 12.433C21.0833 13.0164 20.1333 13.333 19.1666 13.333H14.6666C13.9333 13.333 13.3333 12.733 13.3333 11.9997C13.3333 11.2664 13.9333 10.6664 14.6666 10.6664C13.9333 10.6664 13.3333 10.0664 13.3333 9.33302C13.3333 8.59968 13.9333 7.99968 14.6666 7.99968C13.9333 7.99968 13.3333 7.39968 13.3333 6.66635C13.3333 5.93302 13.9333 5.33302 14.6666 5.33302H8.66659C7.93325 5.33302 7.33325 4.73302 7.33325 3.99968C7.33325 3.26635 7.93325 2.66635 8.66659 2.66635H14.6666C14.6666 1.55802 15.5583 0.666351 16.6666 0.666351H19.8666C21.2166 0.666351 22.4916 1.28302 23.3333 2.33302C24.1749 3.38302 25.4499 3.99968 26.7999 3.99968H31.3333V11.333Z" fill="#F9DBAF"/>
<path d="M18.6665 2.66636C18.6665 2.29969 18.3665 1.99969 17.9998 1.99969H14.7915C14.7165 2.21636 14.6748 2.44136 14.6665 2.66636H18.6665Z" fill="#EDB88E"/>
<path d="M9.99992 10.6664C9.99992 11.3997 9.39992 11.9997 8.66659 11.9997C7.93325 11.9997 7.33325 11.3997 7.33325 10.6664C7.33325 9.93303 8.66659 7.99969 8.66659 7.99969C8.66659 7.99969 9.99992 9.93303 9.99992 10.6664Z" fill="#FF7373"/>
<path d="M26.8664 8.66635C24.9998 8.66635 23.1831 9.24968 21.6664 10.333C20.1498 11.4164 18.3331 11.9997 16.4664 11.9997H15.4081C14.7414 12.0164 14.1581 11.5497 14.0248 10.8914C14.0248 10.8747 14.0248 10.858 14.0248 10.8414C13.3831 11.1997 13.1498 12.008 13.5081 12.6497C13.7414 13.0747 14.1914 13.333 14.6748 13.333H19.1748C20.1498 13.333 21.0914 13.0164 21.8748 12.433L22.1498 12.233C22.9248 11.6497 23.8748 11.333 24.8414 11.333H31.3414V8.66635H26.8664Z" fill="#EDB88E"/>
<path d="M13.3331 3.99967H9.33313C8.66646 3.99967 8.09979 3.49967 8.01646 2.84134C7.37479 3.19967 7.14146 4.00801 7.49979 4.64967C7.73313 5.07467 8.18313 5.34134 8.66646 5.33301H14.6665C14.6665 4.59967 14.0665 3.99967 13.3331 3.99967Z" fill="#EDB88E"/>
<path d="M9.33325 10.6664C8.59992 10.6664 7.99992 10.0664 7.99992 9.33302C8.00825 9.18302 8.04159 9.03302 8.09159 8.89969C7.72492 9.43302 7.46659 10.033 7.33325 10.6664C7.33325 11.3997 7.93325 11.9997 8.66659 11.9997C9.39992 11.9997 9.99992 11.3997 9.99992 10.6664C9.99992 10.608 9.99159 10.5497 9.98325 10.4914C9.78325 10.608 9.55825 10.6664 9.33325 10.6664Z" fill="#EF5350"/>
<path d="M6.6665 15.333H9.33317V20.6663H6.6665V15.333Z" fill="#E9F1F2"/>
<path d="M9.33317 19.2497V20.6663H6.6665V15.333H7.33317V16.6663C7.33317 17.883 8.15817 18.9413 9.33317 19.2497Z" fill="#D0D8DA"/>
<path d="M3.33317 21.333H12.6665C14.1415 21.333 15.3332 22.5247 15.3332 23.9997V36.6663C15.3332 38.1413 14.1415 39.333 12.6665 39.333H3.33317C1.85817 39.333 0.666504 38.1413 0.666504 36.6663V23.9997C0.666504 22.5247 1.85817 21.333 3.33317 21.333Z" fill="#E9F1F2"/>
<path d="M12.6665 33.333C8.24984 33.333 4.6665 29.7497 4.6665 25.333V21.333H3.33317C1.85817 21.333 0.666504 22.5247 0.666504 23.9997V36.6663C0.666504 38.1413 1.85817 39.333 3.33317 39.333H12.6665C14.1415 39.333 15.3332 38.1413 15.3332 36.6663V33.333H12.6665Z" fill="#D0D8DA"/>
<path d="M3.33325 21.333H12.6666C12.6666 22.808 11.4749 23.9997 9.99992 23.9997H5.99992C4.52492 23.9997 3.33325 22.808 3.33325 21.333Z" fill="#93999A"/>
<path d="M11.9999 21.333C11.9999 22.0663 11.3999 22.6663 10.6666 22.6663H9.33325V21.333H5.33325V22.6663C4.59992 22.6663 3.99992 22.0663 3.99992 21.333H3.33325C3.33325 22.6413 4.29159 23.758 5.58325 23.958C5.71659 23.983 5.85825 23.9997 5.99992 23.9997H9.99992C11.4749 23.9997 12.6666 22.808 12.6666 21.333H11.9999Z" fill="#656B76"/>
<path d="M5.99976 20.6664H9.99976V23.9997H5.99976V20.6664Z" fill="#00B4D8"/>
<path d="M3.33325 26.6664H12.6666V34.6664H3.33325V26.6664Z" fill="#ADE8F4"/>
<path d="M6.6665 15.333H9.33317V17.9997H6.6665V15.333Z" fill="#FF7373"/>
<path d="M3.33325 26.6664V34.6664H12.6666V26.6664H3.33325ZM11.3333 33.2164C8.47492 32.733 6.09992 30.733 5.13325 27.9997H9.33325C10.4416 27.9997 11.3333 28.8914 11.3333 29.9997V33.2164Z" fill="#48CAE4"/>
<path d="M7.33317 16.6663V15.333H6.6665V17.9997H7.6915C7.45817 17.5913 7.33317 17.133 7.33317 16.6663Z" fill="#EF5350"/>
<path d="M8.66642 22.6664C7.55809 22.6664 6.66642 21.7747 6.66642 20.6664H5.99976V23.9997H9.99976V22.6664H8.66642Z" fill="#0096C7"/>
<path d="M14.6666 7.33334C14.0583 7.33334 13.5333 6.91668 13.3833 6.33334C13.3499 6.44168 13.3333 6.55001 13.3333 6.66668C13.3333 7.40001 13.9333 8.00001 14.6666 8.00001H15.3333C15.3333 7.63334 15.0333 7.33334 14.6666 7.33334Z" fill="#EDB88E"/>
<path d="M14.6666 10C14.0583 10 13.5333 9.58333 13.3833 9C13.3499 9.10833 13.3333 9.21667 13.3333 9.33333C13.3333 10.0667 13.9333 10.6667 14.6666 10.6667H15.3333C15.3333 10.3 15.0333 10 14.6666 10Z" fill="#EDB88E"/>
<path d="M8.66675 6H11.3334C11.7001 6 12.0001 5.7 12.0001 5.33333C12.0001 4.96667 11.7001 4.66667 11.3334 4.66667H8.66675C8.30008 4.66667 8.00008 4.36667 8.00008 4C8.00008 3.63333 8.30008 3.33333 8.66675 3.33333H18.0001C18.3667 3.33333 18.6667 3.03333 18.6667 2.66667C18.6667 2.3 18.3667 2 18.0001 2H15.5167C15.7501 1.59167 16.1917 1.33333 16.6667 1.33333H19.8667C21.0167 1.33333 22.1001 1.85 22.8167 2.75C23.7834 3.96667 25.2501 4.66667 26.8001 4.66667H31.3334C31.7001 4.66667 32.0001 4.36667 32.0001 4C32.0001 3.63333 31.7001 3.33333 31.3334 3.33333H26.8001C25.6501 3.33333 24.5667 2.81667 23.8501 1.91667C22.8834 0.7 21.4167 0 19.8667 0H16.6667C15.4501 0 14.3917 0.825 14.0834 2H8.66675C7.55841 2 6.66675 2.89167 6.66675 4C6.66675 5.10833 7.55841 6 8.66675 6Z" fill="#0F3061"/>
<path d="M31.3334 10.6667H24.8334C23.7168 10.6667 22.6334 11.0333 21.7334 11.7L21.4584 11.9C20.8001 12.3917 19.9918 12.6583 19.1668 12.6667H14.6668C14.3001 12.6667 14.0001 12.3667 14.0001 12C14.0001 11.6333 14.3001 11.3333 14.6668 11.3333C15.0334 11.3333 15.3334 11.0333 15.3334 10.6667C15.3334 10.3 15.0334 9.99999 14.6668 9.99999C14.3001 9.99999 14.0001 9.69999 14.0001 9.33332C14.0001 8.96666 14.3001 8.66666 14.6668 8.66666C15.0334 8.66666 15.3334 8.36666 15.3334 7.99999C15.3334 7.63332 15.0334 7.33332 14.6668 7.33332C14.3001 7.33332 14.0001 7.03332 14.0001 6.66666C14.0001 6.29999 14.3001 5.99999 14.6668 5.99999C15.0334 5.99999 15.3334 5.69999 15.3334 5.33332C15.3334 4.96666 15.0334 4.66666 14.6668 4.66666C13.5584 4.66666 12.6668 5.56666 12.6668 6.66666C12.6668 7.15832 12.8501 7.63332 13.1751 7.99999C12.4918 8.75832 12.4918 9.90832 13.1751 10.6667C12.4418 11.4917 12.5084 12.7583 13.3334 13.4917C13.7001 13.8167 14.1751 14 14.6668 14H19.1668C20.2834 14 21.3668 13.6333 22.2668 12.9667L22.5418 12.7667C23.2001 12.275 24.0084 12.0083 24.8334 12H31.3334C31.7001 12 32.0001 11.7 32.0001 11.3333C32.0001 10.9667 31.7001 10.6667 31.3334 10.6667Z" fill="#0F3061"/>
<path d="M8.66675 12.6663C9.77508 12.6663 10.6667 11.7746 10.6667 10.6663C10.6667 9.81631 9.65008 8.24964 9.21675 7.62464C8.98342 7.32464 8.55008 7.26631 8.25008 7.49964C8.20008 7.53297 8.15841 7.58297 8.12508 7.62464C7.68341 8.24964 6.66675 9.81631 6.66675 10.6663C6.66675 11.7746 7.55841 12.6663 8.66675 12.6663ZM8.66675 9.23297C8.96675 9.67464 9.19175 10.158 9.33341 10.6663C9.33341 11.033 9.03341 11.333 8.66675 11.333C8.30008 11.333 8.00008 11.033 8.00008 10.6663C8.14175 10.158 8.36675 9.67464 8.66675 9.23297Z" fill="#0F3061"/>
<path d="M12.6667 20.6667H10.6667C10.6667 20.3 10.3667 20 10 20V15.3333C10 14.9667 9.7 14.6667 9.33333 14.6667H6.66667C6.3 14.6667 6 14.9667 6 15.3333V20C5.63333 20 5.33333 20.3 5.33333 20.6667V23.2083C4.53333 22.925 4 22.175 4 21.3333C4 20.9667 3.7 20.6667 3.33333 20.6667C1.49167 20.6667 0 22.1583 0 24V28.6667C0 29.0333 0.3 29.3333 0.666667 29.3333C1.03333 29.3333 1.33333 29.0333 1.33333 28.6667V24C1.33333 23.1167 1.90833 22.3417 2.75 22.0833C3.1 23.5917 4.45 24.6583 6 24.6667H10C11.5417 24.6667 12.8833 23.6 13.2417 22.0917C14.0833 22.3417 14.6667 23.1167 14.6667 24V36.6667C14.6667 37.775 13.775 38.6667 12.6667 38.6667H3.33333C2.225 38.6667 1.33333 37.775 1.33333 36.6667V31.3333C1.33333 30.9667 1.03333 30.6667 0.666667 30.6667C0.3 30.6667 0 30.9667 0 31.3333V36.6667C0 38.5083 1.49167 40 3.33333 40H12.6667C14.5083 40 16 38.5083 16 36.6667V24C16 22.1583 14.5083 20.6667 12.6667 20.6667ZM8.66667 16V17.3333H7.33333V16H8.66667ZM7.33333 18.6667H8.66667V20H7.33333V18.6667ZM6.66667 23.3333V21.3333H9.33333V23.3333H6.66667ZM10.6667 23.2083V22H11.875C11.675 22.5667 11.2333 23.0083 10.6667 23.2083Z" fill="#0F3061"/>
<path d="M12.6667 32.6667C13.0334 32.6667 13.3334 32.3667 13.3334 32V26.6667C13.3334 26.3 13.0334 26 12.6667 26H3.33341C2.96675 26 2.66675 26.3 2.66675 26.6667V34.6667C2.66675 35.0333 2.96675 35.3333 3.33341 35.3333H12.6667C13.0334 35.3333 13.3334 35.0333 13.3334 34.6667C13.3334 34.3 13.0334 34 12.6667 34H4.00008V27.3333H12.0001V32C12.0001 32.3667 12.3001 32.6667 12.6667 32.6667Z" fill="#0F3061"/>
<path d="M5.33325 29.3333V32C5.33325 32.3667 5.63325 32.6667 5.99992 32.6667C6.36659 32.6667 6.66659 32.3667 6.66659 32V29.3333C6.66659 28.9667 6.36659 28.6667 5.99992 28.6667C5.63325 28.6667 5.33325 28.9667 5.33325 29.3333Z" fill="#0F3061"/>
<path d="M9.33325 29.3333V32C9.33325 32.3667 9.63325 32.6667 9.99992 32.6667C10.3666 32.6667 10.6666 32.3667 10.6666 32V29.3333C10.6666 28.9667 10.3666 28.6667 9.99992 28.6667C9.63325 28.6667 9.33325 28.9667 9.33325 29.3333Z" fill="#0F3061"/>
<path d="M7.99992 32.6667C8.36811 32.6667 8.66659 32.3682 8.66659 32C8.66659 31.6318 8.36811 31.3333 7.99992 31.3333C7.63173 31.3333 7.33325 31.6318 7.33325 32C7.33325 32.3682 7.63173 32.6667 7.99992 32.6667Z" fill="#0F3061"/>
</svg>
