<svg width="40" height="40" viewBox="0 0 40 40" fill="none" xmlns="http://www.w3.org/2000/svg">
<path d="M0.585938 6.79472C0.585938 3.33527 3.41523 0.536673 6.88617 0.586595C10.2483 0.634955 12.9821 3.39222 13.0034 6.75456C13.0152 8.63753 12.1887 10.3275 10.8752 11.4739C10.7366 11.5948 10.7566 11.8156 10.9149 11.9092L12.0848 12.6014C12.274 12.7133 12.1946 13.0033 11.9748 13.0032L6.67719 13.0019C3.30242 12.9392 0.585938 10.1844 0.585938 6.79472Z" fill="#7ACAA6"/>
<path d="M12.0848 12.6015L10.9148 11.9093C10.7573 11.8161 10.7355 11.5957 10.8734 11.4754C12.2018 10.3169 13.0327 8.60237 13.0027 6.69432C12.9505 3.39393 10.2793 0.684794 6.97984 0.588622C6.51195 0.575028 6.05539 0.613309 5.61523 0.697919C8.46719 1.24464 10.6406 3.75846 10.6595 6.75463C10.6687 8.20565 10.18 9.54206 9.35422 10.6034C8.85562 11.2442 9.01766 12.1736 9.71648 12.5871L9.74094 12.6015C9.92805 12.7122 9.85211 12.9966 9.63781 13.0028L11.9747 13.0033C12.1945 13.0034 12.2739 12.7135 12.0848 12.6015Z" fill="#57BE92"/>
<path d="M30.8383 23.1224H16.7534C13.2356 23.1224 11.3105 19.0227 13.5573 16.3159L13.6822 16.1653C14.672 14.9728 15.2138 13.4717 15.2138 11.9219V9.20586C15.2139 4.44516 19.0731 0.585938 23.8338 0.585938C28.5944 0.585938 32.4536 4.44516 32.4536 9.20578V12.0136C32.4536 13.5796 33.0068 15.0953 34.0155 16.2932C36.2904 18.9946 34.3699 23.1224 30.8383 23.1224Z" fill="#C59191"/>
<path d="M38.2421 30.1025V39.4142H9.34912V30.1728C9.34912 28.0806 10.603 26.1923 12.5319 25.3806L17.1952 23.3525L18.7663 22.6697C19.9577 22.1517 20.7288 20.9767 20.7288 19.6775V19.0743H26.8632V19.6462C26.8632 20.9517 27.6413 22.1314 28.8405 22.6454L35.1491 25.3493C37.0296 26.1829 38.2421 28.0462 38.2421 30.1025Z" fill="white"/>
<path d="M17.1951 25.5731C18.7869 26.0488 21.1301 26.5561 23.9861 26.5062C26.6658 26.4594 28.8657 25.9383 30.3963 25.4494L31.1569 23.6383L28.8408 22.6456C27.6409 22.1313 26.863 20.9516 26.863 19.6462V19.0747H20.7284V19.6773C20.7284 20.9765 19.9577 22.152 18.7662 22.67L16.8904 23.4856L17.1951 25.5731Z" fill="#FFCEBF"/>
<path d="M35.1495 25.3494L30.3973 23.3126L30.3965 23.3127V39.414H38.2422V30.1026C38.2422 28.046 37.0298 26.1826 35.1495 25.3494Z" fill="#8795DE"/>
<path d="M17.1952 23.3524V39.4141H9.34912V30.1727C9.34912 28.0805 10.603 26.1923 12.5319 25.3805L17.1952 23.3524Z" fill="#8795DE"/>
<path d="M25.5387 17.8248H24.1656C23.5406 17.8248 23.0339 17.3182 23.0339 16.6932C23.0339 16.0682 23.5406 15.5615 24.1656 15.5615H25.5387C26.1637 15.5615 26.6703 16.0682 26.6703 16.6932C26.6703 17.3182 26.1637 17.8248 25.5387 17.8248Z" fill="white"/>
<path d="M24.1656 16.1475C23.8646 16.1475 23.6199 16.3923 23.6199 16.6932C23.6199 16.994 23.8647 17.2389 24.1656 17.2389H25.5387C25.8396 17.2389 26.0844 16.994 26.0844 16.6932C26.0844 16.3923 25.8396 16.1475 25.5387 16.1475H24.1656Z" fill="#0F3061"/>
<path d="M23.7958 30.311C24.1084 30.311 24.3617 30.0577 24.3617 29.7452C24.3617 29.4327 24.1084 29.1793 23.7958 29.1793C23.4833 29.1793 23.23 29.4327 23.23 29.7452C23.23 30.0577 23.4833 30.311 23.7958 30.311Z" fill="#0F3061"/>
<path d="M25.9221 22.4417C26.6278 22.4417 27.3004 22.3 27.9134 22.0442C27.2558 21.4372 26.8629 20.5735 26.8629 19.6462V19.0747H20.7283V19.6773C20.7283 20.1467 20.6273 20.5996 20.4426 21.0115C21.3715 21.897 22.6282 22.4417 24.0129 22.4417H25.9221Z" fill="#FFB09E"/>
<path d="M29.927 9.846V14.9209C29.927 17.78 27.6092 20.0976 24.7502 20.0976H22.841C19.982 20.0976 17.6643 17.7799 17.6643 14.9209V9.846C17.6643 7.98608 19.1721 6.47827 21.032 6.47827H26.5592C28.4192 6.47835 29.927 7.98608 29.927 9.846Z" fill="#FFCEBF"/>
<path d="M25.5385 17.8248H24.1653C23.5403 17.8248 23.0337 17.3182 23.0337 16.6932C23.0337 16.0682 23.5403 15.5615 24.1653 15.5615H25.5385C26.1635 15.5615 26.6701 16.0682 26.6701 16.6932C26.6701 17.3182 26.1635 17.8248 25.5385 17.8248Z" fill="#685E68"/>
<path d="M25.019 5.13516C25.1505 3.47695 26.7379 2.37656 28.2573 1.80664C30.7707 3.31266 32.4533 6.0625 32.4533 9.20562V9.7982C32.3144 9.82734 32.1761 9.85289 32.0394 9.87328C31.2024 9.99828 30.4896 9.94422 30.0026 9.87328C26.8647 9.45523 24.8603 7.13781 25.019 5.13516Z" fill="#B98080"/>
<path d="M23.8336 0.585938C25.7803 0.585938 27.5761 1.23156 29.0191 2.31992C28.2993 3.5725 26.6464 6.04898 23.5468 7.88234C21.2459 9.24343 19.0763 9.70078 17.7402 9.87351H15.2139V9.20578C15.2138 4.44516 19.073 0.585938 23.8336 0.585938Z" fill="#C59191"/>
<path d="M33.4693 39.414H14.7126L13.678 29.6548C13.6047 28.9626 14.1473 28.3594 14.8434 28.3594H33.3384C34.0345 28.3594 34.5772 28.9626 34.5037 29.6548L33.4693 39.414Z" fill="#EFEDEF"/>
<path d="M33.3386 28.3594H30.9949C31.691 28.3594 32.2336 28.9626 32.1603 29.6548L31.1257 39.4141H33.4695L34.504 29.6548C34.5774 28.9626 34.0347 28.3594 33.3386 28.3594Z" fill="#E5E1E5"/>
<path d="M39.4141 40H0.585937C0.262266 40 0 39.7377 0 39.4141C0 39.0905 0.262266 38.8281 0.585937 38.8281H39.4141C39.7377 38.8281 40 39.0905 40 39.4141C40 39.7377 39.7377 40 39.4141 40Z" fill="#C9BFC8"/>
<path d="M24.0911 35.5273C24.9972 35.5273 25.7317 34.7928 25.7317 33.8867C25.7317 32.9806 24.9972 32.2461 24.0911 32.2461C23.185 32.2461 22.4504 32.9806 22.4504 33.8867C22.4504 34.7928 23.185 35.5273 24.0911 35.5273Z" fill="#C9BFC8"/>
<path d="M9.13851 7.38043C9.46211 7.38043 9.72445 7.11809 9.72445 6.7945C9.72445 6.4709 9.46211 6.20856 9.13851 6.20856C8.81492 6.20856 8.55258 6.4709 8.55258 6.7945C8.55258 7.11809 8.81492 7.38043 9.13851 7.38043ZM4.45101 7.38043C4.77461 7.38043 5.03695 7.11809 5.03695 6.7945C5.03695 6.4709 4.77461 6.20856 4.45101 6.20856C4.12742 6.20856 3.86508 6.4709 3.86508 6.7945C3.86508 7.11809 4.12742 7.38043 4.45101 7.38043ZM6.79476 7.38043C7.11836 7.38043 7.3807 7.11809 7.3807 6.7945C7.3807 6.4709 7.11836 6.20856 6.79476 6.20856C6.47117 6.20856 6.20883 6.4709 6.20883 6.7945C6.20883 7.11809 6.47117 7.38043 6.79476 7.38043ZM6.66625 13.5877C6.66984 13.5878 6.67344 13.5878 6.67703 13.5878L11.9746 13.5891H11.9749C12.3409 13.5891 12.6516 13.352 12.7483 12.999C12.845 12.6459 12.6982 12.2835 12.3832 12.0972L11.5775 11.6204C12.8725 10.3369 13.6009 8.58567 13.5893 6.75083C13.5661 3.08145 10.5628 0.0534068 6.89453 0.000594276C3.09336 -0.0540151 0 3.02075 0 6.79465C0 10.4136 2.98187 13.5093 6.66625 13.5877ZM2.84766 2.78997C3.92812 1.72497 5.35625 1.15114 6.87773 1.17231C9.91312 1.21598 12.3982 3.72176 12.4174 6.75817C12.4278 8.39637 11.7253 9.95426 10.49 11.0322C10.2834 11.2124 10.1752 11.4828 10.2002 11.7555C10.2252 12.0281 10.3809 12.274 10.6165 12.4133L10.6223 12.4168L6.68281 12.4158C3.63742 12.3574 1.17187 9.84848 1.17187 6.79465C1.17187 5.27739 1.76703 3.8552 2.84766 2.78997ZM39.4141 38.828H38.8281V30.1022C38.8281 27.8161 37.4773 25.7402 35.3801 24.8106L32.2921 23.4871C33.0435 23.25 33.7223 22.8272 34.2747 22.2407C35.108 21.3559 35.5859 20.1554 35.5859 18.9468C35.5859 17.8364 35.198 16.7882 34.4638 15.9155C33.5455 14.8251 33.0398 13.4393 33.0398 12.0132V9.20543C33.0398 6.74622 32.0821 4.43466 30.3432 2.69661C28.6043 0.957547 26.2925 -0.000108849 23.8337 -0.000108849C18.7577 -0.000108849 14.6282 4.12942 14.6282 9.20536V11.9218C14.6285 13.3974 14.0486 14.8059 13.1062 15.9413C11.9202 17.3702 11.6738 19.3022 12.4633 20.9832C13.0492 22.231 14.1061 23.1275 15.3713 23.5069L12.3049 24.8404C10.1536 25.7457 8.76343 27.8387 8.76343 30.1726V37.0703C8.76343 37.3939 9.0257 37.6562 9.34937 37.6562C9.67304 37.6562 9.93531 37.3939 9.93531 37.0703V30.1726C9.93531 28.3115 11.0438 26.6424 12.7659 25.9178L16.6094 24.2464V25.5771V25.5814V27.7733H14.8436C14.3459 27.7733 13.8696 27.9855 13.5367 28.3555C13.2039 28.7255 13.0431 29.2215 13.0956 29.7164L14.0615 38.828H0.585937C0.262266 38.828 0 39.0903 0 39.4139C0 39.7375 0.262266 39.9999 0.585937 39.9999H14.7114H14.7171H33.4693H33.47H33.4708H39.4141C39.7377 39.9999 40 39.7375 40 39.4139C40 39.0903 39.7377 38.828 39.4141 38.828ZM33.5673 16.67C34.1212 17.3286 34.4141 18.1159 34.4141 18.9468C34.4141 19.8598 34.0523 20.7675 33.4216 21.4371C32.7538 22.1461 31.8364 22.5366 30.8384 22.5366H30.0748L29.0717 22.1067C28.1955 21.7309 27.5962 20.9254 27.4737 19.9981C29.2816 19.0247 30.5134 17.1142 30.5134 14.921V10.5161C30.6848 10.5277 30.8562 10.534 31.027 10.534C31.3088 10.534 31.5895 10.518 31.868 10.4864V12.0132C31.868 13.715 32.4716 15.3689 33.5673 16.67ZM23.976 25.9201C21.8798 25.9572 19.7994 25.6916 17.7812 25.1318V23.7368L17.9507 23.6631C17.952 23.6625 17.9534 23.6619 17.9548 23.6614L19.0001 23.2068C20.1637 22.701 20.9859 21.6649 21.2352 20.4541C21.7455 20.6025 22.284 20.6836 22.8415 20.6836H24.7508C25.3104 20.6836 25.8509 20.6018 26.3629 20.4524C26.6204 21.6576 27.4458 22.6844 28.6099 23.1838L29.7255 23.6619C29.7262 23.6622 29.7269 23.6625 29.7276 23.6628L29.8103 23.6982V25.0167C27.9141 25.5817 25.9535 25.8856 23.976 25.9201ZM29.8102 26.2367V27.7734H17.7812V26.3453C19.6808 26.8433 21.6311 27.0954 23.5946 27.0954C23.7285 27.0954 23.8625 27.0942 23.9965 27.0918C25.9644 27.0575 27.9163 26.7699 29.8102 26.2367ZM31.868 9.30489C30.254 9.52293 28.4347 9.09059 27.1812 8.11942C26.9255 7.92129 26.5575 7.96786 26.3592 8.22372C26.161 8.4795 26.2077 8.84754 26.4635 9.04575C27.283 9.68059 28.2713 10.1278 29.3415 10.3532V13.5432C29.0599 14.1849 28.7465 14.7186 28.0398 15.3015C27.7423 15.547 27.4167 15.7508 27.068 15.9125C26.7832 15.3568 26.2048 14.9754 25.5387 14.9754H24.1656C23.2185 14.9754 22.448 15.746 22.448 16.693C22.448 17.64 23.2185 18.4106 24.1656 18.4106H25.5387C26.3358 18.4106 27.0076 17.8648 27.2005 17.1275C27.9844 16.8288 29.2624 15.7633 29.2627 15.7629C28.8659 17.8932 26.9944 19.5114 24.7509 19.5114H22.8414C20.3102 19.5114 18.2508 17.4521 18.2508 14.9207V10.3915C20.2409 10.0796 22.1209 9.40614 23.8451 8.38629C26.4705 6.8334 28.1544 4.80419 29.1707 3.20098C30.9095 4.74965 31.8987 6.96989 31.868 9.30489ZM26.0843 16.6947C26.0834 16.9949 25.8391 17.2389 25.5387 17.2389H24.1655C23.8646 17.2389 23.6198 16.994 23.6198 16.6932C23.6198 16.3923 23.8647 16.1475 24.1655 16.1475H25.5387C25.839 16.1475 26.0833 16.3913 26.0843 16.6914V16.6947ZM15.8 9.20536C15.8 4.77559 19.4038 1.17177 23.8337 1.17177C25.4223 1.17177 26.9405 1.63036 28.2377 2.48411C27.3025 3.98325 25.7284 5.91106 23.2486 7.37794C21.5474 8.38418 19.6814 9.02661 17.7022 9.28739H17.6656C17.6654 9.28739 17.6652 9.28739 17.6648 9.28739C17.6645 9.28739 17.6644 9.28739 17.6641 9.28739H15.8V9.20536ZM13.5239 20.485C12.9298 19.2196 13.1152 17.7653 14.0073 16.6906C15.1266 15.3421 15.8013 13.6758 15.8001 11.9218V10.4593H17.079V14.921C17.079 17.1154 18.3123 19.0268 20.1219 19.9997C20.0087 20.934 19.4111 21.7502 18.5328 22.1321L17.6025 22.5366H16.7532C15.3555 22.5366 14.1181 21.7505 13.5239 20.485ZM33.9213 29.5929L32.9423 38.828H15.2398L14.2609 29.5929C14.2431 29.4255 14.2953 29.2644 14.4079 29.1393C14.5205 29.0142 14.6752 28.9453 14.8435 28.9453H33.3386C33.5069 28.9453 33.6616 29.0142 33.7742 29.1393C33.8868 29.2644 33.939 29.4255 33.9213 29.5929ZM37.6562 38.828H34.1207L35.0866 29.7165C35.1391 29.2216 34.9782 28.7256 34.6455 28.3556C34.3126 27.9856 33.8363 27.7734 33.3386 27.7734H30.982V25.4573C30.9821 25.4502 30.9822 25.4432 30.982 25.4361V24.2005L34.9118 25.8848C36.579 26.6239 37.6562 28.2793 37.6562 30.1022V38.828ZM24.091 31.66C22.8633 31.66 21.8644 32.6589 21.8644 33.8866C21.8644 35.1143 22.8633 36.1132 24.091 36.1132C25.3187 36.1132 26.3176 35.1143 26.3176 33.8866C26.3176 32.6589 25.3187 31.66 24.091 31.66ZM24.091 34.9413C23.5094 34.9413 23.0363 34.4682 23.0363 33.8866C23.0363 33.305 23.5094 32.8319 24.091 32.8319C24.6726 32.8319 25.1457 33.305 25.1457 33.8866C25.1457 34.4682 24.6726 34.9413 24.091 34.9413Z" fill="#0F3061"/>
</svg>
