<svg width="456" height="228" viewBox="0 0 456 228" fill="none" xmlns="http://www.w3.org/2000/svg">
<path d="M17.6631 108.403C15.1436 158.808 48.7143 184.688 97.1323 190.835C151.446 197.732 207.215 188.43 261.3 183.698C281.673 181.916 302.115 180.578 322.581 180.69C341.866 180.796 362.743 186.124 381.688 183.176C429.045 175.802 453.451 126.743 446.07 83.9573C441.495 57.4266 424.31 32.0717 393.896 33.7583C372.527 34.9461 353.582 44.2544 333.168 49.2961C306.287 55.9363 277.717 54.8647 251.355 46.2274C238.188 41.9048 225.631 35.7734 212.818 30.4052C187.297 19.7268 160.308 12.023 132.825 11.5983C105.35 11.1657 77.258 18.4108 55.0421 35.3588C31.6173 53.2302 19.0697 80.2677 17.6631 108.403Z" stroke="#41B9D5" stroke-width="4.2643" stroke-miterlimit="10"/>
<path d="M436.795 123.631C438.043 148.401 430.364 167.093 416.426 180.356C402.473 193.633 382.197 201.514 358.179 204.543C315.829 209.883 272.602 205.378 229.925 200.931C218.224 199.712 206.563 198.497 194.974 197.49C174.7 195.729 154.349 194.405 133.967 194.516C126.553 194.556 118.898 195.365 111.238 196.175C108.956 196.416 106.673 196.657 104.396 196.878C94.4552 197.843 84.6047 198.424 75.2482 196.977C28.4877 189.748 4.31152 141.612 11.6179 99.5427C15.0433 79.8243 22.5865 58.1522 39.4394 46.2818C56.359 34.3645 76.0666 37.3817 94.8258 42.6149C102.691 44.809 110.72 47.4467 118.874 50.1256C119.567 50.353 120.26 50.5807 120.954 50.8084C129.818 53.7176 138.823 56.6341 147.895 59.0336C166.037 63.8319 184.488 66.5757 202.706 63.0535C213.146 61.0349 222.902 57.065 232.491 52.7322C234.83 51.6754 237.158 50.5976 239.483 49.521C246.707 46.1765 253.906 42.8431 261.344 40.1823C280.957 33.1668 301.904 28.799 322.738 28.4735C349.982 28.0482 377.81 35.1833 399.804 51.8441C422.983 69.4029 435.403 95.9686 436.795 123.631Z" fill="#DBF4F2" stroke="#41B9D5"/>
<path d="M402.707 165.366C402.707 165.366 383.879 178.676 362.253 167.143L382.481 155.827L402.707 165.366Z" fill="#6F3428"/>
<path d="M264.093 76.4033C264.093 76.4033 245.775 110.844 251.509 121.018L272.366 109.41L264.093 76.4033Z" fill="#6F3428"/>
<path d="M256.206 111.367C253.914 109.65 251.706 107.72 249.586 105.618C245.411 101.468 241.568 96.6485 238.068 91.5067C238.068 91.4986 238.068 91.4986 238.068 91.4986C235.716 88.0473 233.518 84.4438 231.482 80.7962C225.594 70.2721 220.995 59.3814 217.722 50.66C214.305 41.562 212.319 34.8157 211.792 33.2693C211.732 33.089 211.69 32.9789 211.664 32.9448L221.572 4.42308C226.361 -3.26472 229.045 21.6856 229.045 21.6856C230.366 20.9084 231.968 18.6269 232.913 17.397C233.978 16.0048 234.795 18.2082 234.941 18.9934C235.768 23.5805 232.086 32.3018 232.086 32.3018L255.712 67.0151C257.161 69.1424 258.779 71.1494 260.536 73.0023C261.66 74.1981 262.853 75.3338 264.096 76.4015C266.19 85.3312 265.978 102.544 256.206 111.367Z" fill="#F9B384"/>
<path opacity="0.6" d="M256.206 111.367C253.915 109.651 251.707 107.72 249.587 105.618C257.002 97.1013 262.674 82.9576 264.097 76.4055C265.221 77.6014 262.852 75.3379 264.097 76.4055C266.19 85.3312 265.979 102.544 256.206 111.367Z" fill="#F69F77"/>
<path d="M402.711 165.368C389.804 162.848 379.63 163.01 371.04 164.719C367.921 165.342 365.016 166.163 362.255 167.145L359.656 176.481L354.527 194.939L351.196 206.932L348.163 217.822L346.459 223.964H254.899L269.383 129.286L251.507 121.018C252.658 119.317 253.713 117.32 254.694 115.107C260.12 102.85 263.035 84.2714 264.092 76.4033C269.205 80.8101 275.227 84.1071 281.797 85.988C289.593 88.2174 298.99 90.1484 307.783 89.9421C308.091 89.9341 308.388 89.9241 308.686 89.916C329.024 89.1208 338.097 95.3143 338.097 95.3143C342.698 96.2277 354.695 100.849 365.166 105.47C369.784 107.495 374.103 109.528 377.376 111.235C386.169 115.838 392.551 124.022 394.919 133.683L402.711 165.368Z" fill="#FEC914"/>
<path opacity="0.6" d="M371.04 164.719C367.921 165.342 365.016 166.163 362.255 167.145L367.767 147.318L371.04 164.719Z" fill="#AE5140"/>
<path opacity="0.3" d="M238.066 91.4985C235.714 88.0472 233.872 84.9304 229.452 77.0664C236.383 74.6867 240.527 84.9304 238.066 91.4985Z" fill="#FEC914"/>
<path opacity="0.6" d="M360.652 172.908L354.528 194.94L351.198 206.932L269.037 213.21L259.698 196.826C319.765 195.586 344.9 187.005 360.652 172.908Z" fill="#AE5140"/>
<path opacity="0.6" d="M217.718 50.6599C214.302 41.562 212.316 34.8156 211.788 33.2692L227.161 23.7246C227.75 32.4119 220.897 44.7929 217.718 50.6599Z" fill="#F69F77"/>
<path d="M314.945 111.293C315.842 114.49 317.772 117.282 320.302 119.299C322.841 121.312 325.9 122.636 329.091 123.207C332.282 123.788 335.605 123.636 338.752 122.793C340.328 122.378 341.861 121.773 343.307 120.996C344.774 120.249 346.138 119.303 347.441 118.26L347.897 118.746C346.722 120.004 345.361 121.09 343.903 122.031C342.424 122.943 340.834 123.682 339.173 124.225C335.847 125.302 332.24 125.519 328.788 124.882C325.345 124.239 322.012 122.757 319.375 120.405C318.06 119.235 316.909 117.873 316.032 116.351C315.175 114.82 314.554 113.154 314.294 111.439L314.945 111.293Z" fill="#AE5140"/>
<path d="M352.287 78.6611L349.739 98.6238C348.794 106.081 342.352 111.616 334.854 111.411C326.82 111.197 320.626 104.579 320.626 96.797C320.626 96.0358 320.686 95.2586 320.806 94.4814L321.265 91.5609L323.064 80.1755L333.186 79.6547L352.287 78.6611Z" fill="#F9B384"/>
<path d="M316.838 45.7727C317.122 42.8302 318.494 39.3228 320.059 36.1419C323.05 30.0626 328.84 25.8421 335.531 24.8746C345.585 23.4224 358.582 24.8386 365.661 34.5174C373.642 45.4302 367.01 67.2496 358.455 69.1105C349.899 70.9713 316.838 45.7727 316.838 45.7727Z" fill="#102048"/>
<path d="M343.044 83.7852C339.627 87.0302 331.755 94.6239 320.806 94.4796L323.063 80.1717L333.185 79.6509L343.044 83.7852Z" fill="#F69F77"/>
<path d="M357.613 50.9167L356.089 58.8689L355.713 60.8159L354.213 68.6399L353.352 73.1248L352.287 78.6593L347.08 81.7941C347.08 81.7941 345.657 82.7516 343.042 83.7851C343.042 83.7851 343.042 83.7932 343.034 83.7932C339.09 85.3656 332.434 87.1082 323.897 85.9805C323.301 85.9044 322.738 85.7662 322.21 85.5799C318.188 84.2038 316.126 79.9593 315.223 74.6712C314.558 70.7852 314.508 66.3344 314.754 62.0378C315.137 55.2975 316.254 48.9337 316.834 45.7748C325.789 37.7545 338.015 36.2943 347.08 34.5176L357.613 50.9167Z" fill="#F9B384"/>
<path d="M316.838 45.7727C331.102 34.5175 350.317 45.919 350.317 45.919C350.317 45.919 347.378 63.6462 353.058 62.1839C358.738 60.7197 364.503 48.8695 364.503 48.8695L351.502 30.0767L323.06 34.9882L316.838 45.7727Z" fill="#102048"/>
<path d="M352.323 62.7666C355.118 57.8471 360.558 56.2687 363.481 60.0004C366.407 63.7321 366.518 75.4741 352.137 72.9382L352.323 62.7666Z" fill="#F9B384"/>
<path d="M328.41 58.8786C327.485 61.3864 326.052 63.6199 325.117 65.9715C325.009 66.2559 324.872 66.5824 324.802 66.8328C324.726 67.0812 324.686 67.3235 324.728 67.5078C324.734 67.7061 324.848 67.8443 324.985 68.0086C325.157 68.1508 325.371 68.295 325.641 68.3972C326.714 68.8098 328.042 68.912 329.335 69.0402L329.347 69.5409C328.036 69.7132 326.69 69.8715 325.263 69.4568C324.906 69.3627 324.542 69.1744 324.202 68.912C323.881 68.6255 323.565 68.2109 323.503 67.7442C323.405 67.2855 323.483 66.8568 323.585 66.4802C323.689 66.0997 323.803 65.8172 323.937 65.4927C324.985 62.9689 326.544 60.8436 327.961 58.6562L328.41 58.8786Z" fill="#F69F77"/>
<path d="M337.973 59.4076C337.623 60.5894 336.662 61.3486 335.825 61.1002C334.988 60.8518 334.592 59.692 334.94 58.5082C335.289 57.3264 336.25 56.5673 337.087 56.8156C337.927 57.064 338.322 58.2258 337.973 59.4076Z" fill="#102048"/>
<path d="M322.829 58.6968C323.178 57.514 322.783 56.3539 321.946 56.1057C321.109 55.8574 320.147 56.615 319.798 57.7978C319.449 58.9806 319.845 60.1407 320.681 60.389C321.518 60.6372 322.48 59.8796 322.829 58.6968Z" fill="#102048"/>
<path d="M332.645 54.8445C333.364 54.1594 334.215 53.5905 335.176 53.2099C336.133 52.8254 337.214 52.6631 338.275 52.7933C339.338 52.9195 340.345 53.3482 341.18 53.9551C342.019 54.56 342.705 55.3232 343.232 56.1665L342.856 56.497C342.099 55.9041 341.362 55.3412 340.577 54.9045C339.793 54.4699 338.968 54.1694 338.117 54.0592C337.266 53.9431 336.389 54.0272 335.52 54.2495C334.649 54.4759 333.795 54.8485 332.93 55.2571L332.645 54.8445Z" fill="#102048"/>
<path d="M325.135 54.9147C324.44 53.803 323.301 53.2722 322.138 53.2762C321.557 53.2782 320.974 53.4144 320.414 53.6608C319.853 53.9092 319.321 54.2637 318.762 54.6703L318.372 54.3579C318.704 53.6948 319.217 53.1019 319.877 52.6733C320.53 52.2426 321.331 51.9922 322.142 52.0022C322.952 52.0103 323.769 52.2646 324.412 52.7654C325.057 53.2522 325.523 53.9893 325.609 54.7605L325.135 54.9147Z" fill="#102048"/>
<path d="M322.978 73.2349L332.25 73.4312C332.25 73.4312 327.109 80.4219 323.335 73.9159L322.978 73.2349Z" fill="white"/>
<path d="M354.544 66.5186C354.55 65.7174 354.692 64.9102 354.978 64.133C355.261 63.3558 355.711 62.6026 356.38 62.0057C357.041 61.4088 357.973 61.0302 358.884 61.0743C359.797 61.1043 360.606 61.515 361.213 62.0538L360.964 62.4864C360.24 62.2681 359.545 62.1199 358.908 62.2C358.274 62.2761 357.709 62.5425 357.219 62.9652C356.724 63.3858 356.32 63.9607 355.971 64.5877C355.623 65.2186 355.339 65.9037 355.035 66.6148L354.544 66.5186Z" fill="#F69F77"/>
<path opacity="0.3" d="M342.988 75.851C346.595 75.851 349.519 72.9193 349.519 69.3029C349.519 65.6865 346.595 62.7549 342.988 62.7549C339.38 62.7549 336.456 65.6865 336.456 69.3029C336.456 72.9193 339.38 75.851 342.988 75.851Z" fill="#FEC914"/>
<path opacity="0.3" d="M319.809 68.4193C319.809 71.3498 317.875 73.8356 315.225 74.6729C314.56 70.787 314.51 66.3361 314.756 62.0396C317.653 62.7126 319.809 65.3106 319.809 68.4193Z" fill="#FEC914"/>
<path d="M188.394 41.1733C188.394 41.1733 206.989 50.2993 203.543 65.4386L191.243 68.8899L188.394 41.1733Z" fill="#102048"/>
<path d="M188.394 41.1736C190.39 39.2025 200.623 27.8672 200.266 13.6974C199.994 2.95294 204.747 7.80638 205.359 15.2198C205.359 15.2198 207.972 0.0564961 215.177 1.59285L213.059 4.49931C213.059 4.49931 215.79 -0.636568 217.996 0.73754C220.202 2.11165 218.204 6.50438 218.204 6.50438C218.204 6.50438 219.233 2.69454 221.123 2.4041C223.013 2.11365 224.747 8.08281 220.52 23.6567C220.52 23.6567 225.101 19.1037 226.909 18.3345C228.72 17.5653 228.598 29.4816 215.758 42.1631C202.921 54.8445 193.838 64.6536 193.838 64.6536L188.394 41.1736Z" fill="#F9B384"/>
<path d="M113.464 103.295C113.915 103.994 188.394 41.1733 188.394 41.1733L203.543 65.4386L127.522 155.186L113.464 103.295Z" fill="#41B9D5"/>
<path d="M215.309 1.69704C214.422 3.06914 213.6 4.49533 212.845 5.94355C212.102 7.39979 211.397 8.87605 210.809 10.3984C210.186 11.9067 209.686 13.4611 209.269 15.0375L208.963 16.2233L208.727 17.4232C208.525 18.2204 208.484 19.0376 208.332 19.8469L208 19.8289C208.02 18.1663 208.174 16.4917 208.545 14.8632C208.913 13.2347 209.397 11.6283 210.026 10.0839C210.667 8.54555 211.371 7.03122 212.216 5.59502C213.055 4.15681 213.972 2.77069 215.047 1.49072L215.309 1.69704Z" fill="#F69F77"/>
<path d="M218.364 6.54848C218.116 7.90256 217.824 9.24662 217.526 10.5867C217.237 11.9307 216.893 13.2588 216.587 14.5988L215.572 18.591C215.215 19.917 214.861 21.243 214.463 22.561L214.138 22.4909C214.316 21.1208 214.575 19.7688 214.847 18.4187C215.131 17.0726 215.442 15.7326 215.766 14.3965C216.116 13.0665 216.441 11.7304 216.827 10.4104C217.205 9.08838 217.594 7.76836 218.04 6.46436L218.364 6.54848Z" fill="#F69F77"/>
<path d="M222.883 3.021C223.368 7.69216 223.157 12.4054 222.469 17.0525C222.279 18.2123 222.08 19.3721 221.802 20.5158C221.67 21.0887 221.528 21.6596 221.364 22.2265L221.246 22.6531L221.192 22.8514C221.2 22.8334 221.196 22.7833 221.176 22.7533C221.151 22.6912 221.039 22.6731 220.983 22.7152L221.282 22.4508C222.156 21.6756 223.037 20.9084 223.93 20.1533L225.286 19.0336C225.526 18.8433 225.724 18.681 226.008 18.4747C226.407 18.2003 226.985 18.2484 227.336 18.5889C227.516 18.7371 227.632 19.0316 227.654 19.1898L227.74 19.6445C227.772 19.949 227.824 20.2534 227.828 20.5559C227.846 20.8604 227.856 21.1628 227.838 21.4653C227.832 21.7677 227.82 22.0702 227.78 22.3667C227.674 23.5665 227.39 24.7343 227.033 25.866C226.299 28.1295 225.238 30.2568 224.002 32.2578C222.757 34.2569 221.338 36.1298 219.852 37.9406C219.101 38.8379 218.297 39.6912 217.524 40.5686L215.081 43.0824L214.843 42.8481L217.18 40.2581C217.918 39.3587 218.683 38.4834 219.392 37.566C220.827 35.7432 222.189 33.8623 223.37 31.8753C224.531 29.8802 225.578 27.813 226.259 25.6257C226.597 24.534 226.857 23.4183 226.949 22.2906C226.985 22.0101 226.993 21.7277 226.997 21.4473C227.013 21.1648 227.001 20.8864 226.983 20.608C226.979 20.3275 226.927 20.0551 226.899 19.7787L226.821 19.3741C226.795 19.2439 226.791 19.2579 226.751 19.2078C226.683 19.1397 226.553 19.1217 226.467 19.1818L225.806 19.6906L224.459 20.7882C223.568 21.5314 222.687 22.2906 221.812 23.0557L221.452 23.3662C221.162 23.6006 220.673 23.4944 220.499 23.1759C220.401 23.0217 220.379 22.8154 220.423 22.6571L220.485 22.4328L220.603 22.0161C220.767 21.4633 220.911 20.9024 221.045 20.3396C221.32 19.2158 221.546 18.0801 221.754 16.9403C222.146 14.6548 222.397 12.3433 222.537 10.0257C222.677 7.70819 222.729 5.37461 222.553 3.06106L222.883 3.021Z" fill="#F69F77"/>
<path d="M83.3879 157.845C83.3879 157.845 57.6554 147.669 47.1478 167.137C33.9349 191.616 53.7892 220.38 53.7892 220.38H88.7146L83.3879 157.845Z" fill="#FEC914"/>
<path d="M58.1968 165.869C57.5414 166.55 56.982 167.319 56.4785 168.12C55.971 168.919 55.5534 169.775 55.1718 170.644C54.4185 172.387 53.8431 174.208 53.4435 176.068C52.6403 179.788 52.3845 183.62 52.5623 187.426C52.7282 191.236 53.3655 195.015 54.3146 198.713C55.2836 202.409 56.6283 206.002 58.2267 209.486L57.929 209.636C57.4935 208.777 57.0319 207.927 56.6423 207.046C56.4425 206.607 56.2267 206.175 56.0429 205.728L55.4775 204.394C54.7702 202.597 54.1328 200.77 53.5953 198.909C52.5504 195.184 51.879 191.342 51.7132 187.464C51.5454 183.592 51.8231 179.682 52.7402 175.904C53.1937 174.017 53.8171 172.164 54.6443 170.404C55.0679 169.528 55.5314 168.669 56.0849 167.866C56.6303 167.059 57.2457 166.295 57.961 165.628L58.1968 165.869Z" fill="#102048"/>
<path d="M149.764 72.4697C158.202 77.6316 164.036 74.5629 165.74 68.9904C167.445 63.4178 173.675 42.4276 147.634 45.8108C147.634 45.8108 115.724 32.911 102.219 51.9422C90.3073 68.73 101.236 80.3358 83.0345 94.2571C70.3431 103.964 55.9533 121.018 84.495 150.183L115.452 141.634L149.764 72.4697Z" fill="#AE5140"/>
<path d="M140.15 96.8091C140.781 99.7636 147.608 107.411 150.342 110.28C158.601 118.953 160.426 135.222 136.873 140.196L123.622 109.252L140.15 96.8091Z" fill="#6F3428"/>
<path d="M141.325 100.679L138.539 113.535L134.21 133.539L110.056 128.422L115.738 89.1895L140.37 100.252L141.325 100.679Z" fill="#F9B384"/>
<path d="M156.186 75.2622C156.186 75.2622 163.157 83.0982 162.911 85.0913C162.665 87.0863 156.186 90.6598 156.186 90.6598V75.2622Z" fill="#F69F77"/>
<path d="M141.324 100.679L138.539 113.535C131.11 109.571 125.689 99.7656 125.689 99.7656L140.369 100.252L141.324 100.679Z" fill="#F69F77"/>
<path d="M157.82 93.0931C156.841 100.543 154.369 106.265 149.087 106.776C134.483 108.194 113.464 91.7931 113.464 91.7931L114.597 61.7611L130.479 51.938L156.186 56.7213C156.493 60.1125 158.068 70.4824 158.323 80.9124C158.425 85.1149 158.313 89.3273 157.82 93.0931Z" fill="#F9B384"/>
<path d="M160.221 61.7635L157.052 64.2093C140.531 51.2854 143.955 69.904 142.423 75.8651C140.888 81.8263 133.06 80.2559 126.95 76.404L125.859 84.7488L107.498 85.3297L106.433 62.0019L124.742 47.6519L158.637 54.28L160.221 61.7635Z" fill="#AE5140"/>
<path d="M136.503 148.38C145.522 143.531 142.964 130.869 139.454 126.537C135.943 122.204 121.024 114.935 119.216 101.292C118.209 93.7045 125.861 84.7468 125.861 84.7468L110.341 76.3979L94.4365 101.466L106.437 144.518L136.503 148.38Z" fill="#AE5140"/>
<path d="M147.741 217.863L72.0376 217.915C68.7309 169.32 80.8129 144.472 91.2586 132.267C97.836 124.588 107.77 120.788 117.79 122.018C126.506 123.093 134.072 127.246 141.741 145.338L105.904 162.045L128.909 202.653C131.219 206.736 134.568 210.137 138.606 212.511L147.741 217.863Z" fill="#41B9D5"/>
<path d="M105.905 162.043C105.905 162.043 117.17 207.242 121.344 213.191C125.69 219.385 135.02 217.829 151.284 217.865L130.739 171.978L105.905 162.043Z" fill="#166780"/>
<path d="M197.808 205.578L194.553 217.588L151.284 217.865H147.74L138.607 212.508C134.569 210.135 131.22 206.734 128.91 202.651L105.905 162.043L141.742 145.335C145.592 154.397 149.46 166.973 153.508 184.397C154.054 186.747 155.68 188.71 157.888 189.675L197.808 205.578Z" fill="#41B9D5"/>
<path d="M130.739 79.705C129.438 72.4679 120.873 71.5105 119.382 76.4C117.892 81.2895 118.255 89.6903 129.013 89.1936L130.739 79.705Z" fill="#F9B384"/>
<path d="M127.303 80.2738L125.962 78.7394C125.516 78.2607 125.055 77.802 124.575 77.5276C124.086 77.2532 123.698 77.1751 123.249 77.4154C122.787 77.6498 122.346 78.1505 121.888 78.6633L121.44 78.439C121.63 77.7359 121.942 77.0108 122.641 76.468C122.977 76.1855 123.472 76.0353 123.948 76.0293C124.427 76.0533 124.869 76.2056 125.219 76.4279C125.932 76.8686 126.423 77.4575 126.823 78.0704C127.221 78.6874 127.53 79.3424 127.738 80.0314L127.303 80.2738Z" fill="#F69F77"/>
<path opacity="0.2" d="M157.441 95.4768C157.075 95.5529 150.206 93.5779 150.206 87.092C150.206 83.6327 153.227 80.6821 156.678 80.6821C157.249 80.6821 157.803 80.7583 158.322 80.9125C158.426 85.1149 158.336 91.4106 157.441 95.4768Z" fill="#EE6F57"/>
<path d="M282.23 218.327H192.178L209.189 144.871H299.244L282.23 218.327Z" fill="#166780"/>
<path opacity="0.6" d="M282.23 218.327L299.242 144.871C273.501 204.586 235.253 211.204 192.176 218.327" fill="#102048"/>
<path d="M250.69 183.691C252.061 180.413 250.942 176.818 248.19 175.662C245.439 174.505 242.097 176.224 240.726 179.502C239.355 182.78 240.474 186.375 243.225 187.532C245.977 188.689 249.319 186.969 250.69 183.691Z" fill="white"/>
<path d="M393.85 164.002L393.578 171.467L392.352 204.925V204.967C392.25 207.495 391.584 209.938 390.452 212.142C389.319 214.329 387.7 216.276 385.688 217.823H348.165L269.797 218.087C268.401 218.087 266.968 214.824 269.038 213.21C273.613 209.622 280.778 205.676 285.763 202.481C288.515 200.722 291.795 199.953 295.034 200.372C300.427 201.063 308.207 203.805 317.885 200.945C319.564 200.45 321.268 200.065 322.988 199.801L354.531 194.941L366.945 193.029L367.294 171.948L367.404 165.568C368.589 165.252 369.798 164.972 371.043 164.723C377.558 163.421 384.997 163.019 393.85 164.002Z" fill="#F9B384"/>
<path opacity="0.6" d="M393.85 164.002L393.578 171.467C388.995 169.853 371.288 164.805 367.404 165.564C368.589 165.248 369.798 164.967 371.043 164.719C377.558 163.421 384.997 163.018 393.85 164.002Z" fill="#F69F77"/>
<path opacity="0.3" d="M392.349 204.924V204.966C392.247 207.494 391.582 209.938 390.449 212.141C389.316 214.329 387.698 216.276 385.686 217.822H374.285C376.281 206.829 384.589 203.412 392.349 204.924Z" fill="#EE6F57"/>
<path d="M362.178 193.511C363.51 192.972 364.909 192.516 366.36 192.347C367.802 192.121 369.279 192.131 370.731 192.287C372.186 192.44 373.62 192.782 374.983 193.295C376.352 193.8 377.646 194.477 378.813 195.378L378.538 195.795C377.285 195.208 375.956 194.747 374.633 194.363C373.305 193.982 371.952 193.702 370.587 193.551C369.223 193.389 367.844 193.337 366.467 193.431C365.085 193.485 363.72 193.734 362.33 193.984L362.178 193.511Z" fill="#F69F77"/>
<path d="M455.505 217.896H0.729492V228H455.505V217.896Z" fill="#D3DFFF"/>
<path d="M0.729492 217.915H455.503" stroke="#102048" stroke-width="6" stroke-miterlimit="10"/>
</svg>
