<svg width="106" height="106" viewBox="0 0 106 106" fill="none" xmlns="http://www.w3.org/2000/svg">
<rect opacity="0.37" width="106" height="106" rx="53" transform="matrix(-1 -8.74228e-08 -8.74228e-08 1 106 0)" fill="#41B9D5"/>
<path d="M76.2904 52.4031L62.9678 66.6773V79.0483H42.0323V66.6773L28.7097 52.4031L33.4678 48.5967L47.742 61.9193V67.6289C48.96 66.4109 50.6158 65.7257 52.3383 65.7257H52.5H52.6618C54.3842 65.7257 56.04 66.4109 57.2581 67.6289V61.9193L71.5323 48.5967L76.2904 52.4031Z" fill="#FEC914"/>
<path d="M57.2581 61.9194V67.6291C56.04 66.411 54.3842 65.7259 52.6618 65.7259H52.5L57.2581 61.9194Z" fill="#FFC729"/>
<path d="M52.5 65.7259H52.3382C50.6158 65.7259 48.96 66.411 47.7419 67.6291V61.9194L52.5 65.7259Z" fill="#FFC729"/>
<path d="M52.5001 56.2097C54.5993 56.2097 56.3065 54.5025 56.3065 52.4032V50.5H48.6936V52.4032C48.6936 54.5025 50.4008 56.2097 52.5001 56.2097ZM54.4033 52.4032C54.4033 53.4529 53.5497 54.3065 52.5001 54.3065C51.4504 54.3065 50.5968 53.4529 50.5968 52.4032H54.4033Z" fill="#166780"/>
<path d="M42.9838 32.7067L48.1396 28.4102C49.096 27.6128 49.6451 26.4404 49.6451 25.1947C49.6451 24.0775 49.2102 23.0269 48.4147 22.2304C47.621 21.4368 46.5666 21 45.4447 21H45.281C44.4531 21 43.6613 21.2379 42.9838 21.6823C42.3063 21.2379 41.5145 21 40.6866 21H40.5229C39.401 21 38.3466 21.4368 37.5472 22.2352C36.7574 23.026 36.3225 24.0775 36.3225 25.1947C36.3225 26.4413 36.8716 27.6128 37.828 28.4102L42.9838 32.7067ZM38.8985 23.577C39.3325 23.1421 39.9101 22.9032 40.5229 22.9032H40.6866C41.3004 22.9032 41.8771 23.1421 42.311 23.577L42.9838 24.2488L43.6566 23.577C44.0905 23.1421 44.6682 22.9032 45.281 22.9032H45.4447C46.0585 22.9032 46.6351 23.1421 47.0729 23.5798C47.504 24.0119 47.7419 24.5857 47.7419 25.1947C47.7419 25.8742 47.4431 26.5136 46.9206 26.9485L42.9838 30.2287L39.047 26.9485C38.5245 26.5136 38.2257 25.8742 38.2257 25.1947C38.2257 24.5857 38.4636 24.0119 38.8985 23.577Z" fill="#166780"/>
<path d="M29.6613 42.2229L34.8171 37.9263C35.7735 37.1289 36.3226 35.9565 36.3226 34.7108C36.3226 33.5936 35.8877 32.543 35.0921 31.7465C34.2985 30.9529 33.2441 30.5161 32.1222 30.5161H31.9585C31.1306 30.5161 30.3388 30.754 29.6613 31.1984C28.9837 30.754 28.192 30.5161 27.3641 30.5161H27.2004C26.0785 30.5161 25.0241 30.9529 24.2247 31.7513C23.4349 32.5421 23 33.5936 23 34.7108C23 35.9574 23.5491 37.1289 24.5055 37.9263L29.6613 42.2229ZM25.576 33.0931C26.01 32.6582 26.5876 32.4193 27.2004 32.4193H27.3641C27.9779 32.4193 28.5546 32.6582 28.9885 33.0931L29.6613 33.7649L30.3341 33.0931C30.768 32.6582 31.3456 32.4193 31.9585 32.4193H32.1222C32.736 32.4193 33.3126 32.6582 33.7504 33.0959C34.1815 33.528 34.4194 34.1018 34.4194 34.7108C34.4194 35.3903 34.1205 36.0298 33.5981 36.4646L29.6613 39.7449L25.7245 36.4646C25.202 36.0298 24.9032 35.3903 24.9032 34.7108C24.9032 34.1018 25.1411 33.528 25.576 33.0931Z" fill="#166780"/>
<path d="M62.016 32.7067L67.1719 28.4102C68.1282 27.6128 68.6773 26.4404 68.6773 25.1947C68.6773 24.0775 68.2424 23.0269 67.4469 22.2304C66.6532 21.4368 65.5988 21 64.4769 21H64.3132C63.4853 21 62.6936 21.2379 62.016 21.6823C61.3385 21.2379 60.5467 21 59.7188 21H59.5552C58.4332 21 57.3788 21.4368 56.5795 22.2352C55.7896 23.026 55.3547 24.0775 55.3547 25.1947C55.3547 26.4413 55.9038 27.6128 56.8602 28.4102L62.016 32.7067ZM57.9308 23.577C58.3647 23.1421 58.9423 22.9032 59.5552 22.9032H59.7188C60.3326 22.9032 60.9093 23.1421 61.3432 23.577L62.016 24.2488L62.6888 23.577C63.1228 23.1421 63.7004 22.9032 64.3132 22.9032H64.4769C65.0907 22.9032 65.6674 23.1421 66.1051 23.5798C66.5362 24.0119 66.7741 24.5857 66.7741 25.1947C66.7741 25.8742 66.4753 26.5136 65.9529 26.9485L62.016 30.2287L58.0792 26.9485C57.5568 26.5136 57.258 25.8742 57.258 25.1947C57.258 24.5857 57.4959 24.0119 57.9308 23.577Z" fill="#166780"/>
<path d="M70.1829 37.9263L75.3388 42.2229L80.4946 37.9263C81.451 37.1289 82.0001 35.9565 82.0001 34.7108C82.0001 33.5936 81.5652 32.543 80.7696 31.7465C79.976 30.9529 78.9216 30.5161 77.7997 30.5161H77.636C76.8081 30.5161 76.0163 30.754 75.3388 31.1984C74.6612 30.754 73.8695 30.5161 73.0416 30.5161H72.8779C71.756 30.5161 70.7016 30.9529 69.9022 31.7513C69.1124 32.5421 68.6775 33.5936 68.6775 34.7108C68.6775 35.9565 69.2266 37.1289 70.1829 37.9263ZM71.2535 33.0931C71.6874 32.6582 72.2651 32.4193 72.8779 32.4193H73.0416C73.6554 32.4193 74.2321 32.6582 74.666 33.0931L75.3388 33.7649L76.0116 33.0931C76.4455 32.6582 77.0231 32.4193 77.636 32.4193H77.7997C78.4134 32.4193 78.9901 32.6582 79.4279 33.0959C79.8589 33.528 80.0968 34.1018 80.0968 34.7108C80.0968 35.3903 79.798 36.0298 79.2756 36.4646L75.3388 39.7449L71.402 36.4646C70.8795 36.0298 70.5807 35.3903 70.5807 34.7108C70.5807 34.1018 70.8186 33.528 71.2535 33.0931Z" fill="#166780"/>
<path d="M78.9567 46.6937H77.6359L76.748 45.8058C76.0933 45.1511 75.2226 44.7904 74.2967 44.7904C72.8027 44.7904 71.4809 45.743 71.0079 47.1609L70.7063 48.0659L57.5397 60.355L56.7594 58.7934C58.3952 57.7752 59.6466 56.1898 60.2338 54.3075H61.0645C63.1638 54.3075 64.871 52.6003 64.871 50.5011C64.871 49.6208 64.5579 48.8196 64.0545 48.1734L64.5655 46.1341C64.7682 45.3176 64.871 44.4802 64.871 43.6428C64.871 37.9788 60.2633 33.3711 54.5993 33.3711H50.4007C44.7367 33.3711 40.129 37.9788 40.129 43.6428C40.129 44.4793 40.2318 45.3176 40.4355 46.1341L40.9455 48.1715C40.4421 48.8186 40.129 49.6199 40.129 50.5001C40.129 52.5994 41.8362 54.3066 43.9355 54.3066H44.7672C45.3543 56.1889 46.6048 57.7752 48.2415 58.7925L47.4612 60.3541L34.2937 48.0659L33.9921 47.16C33.5191 45.743 32.1973 44.7904 30.7033 44.7904C29.7774 44.7904 28.9067 45.1511 28.252 45.8058L27.3641 46.6937H26.0433C24.3656 46.6937 23 48.0592 23 49.7369C23 51.1824 24.0287 52.4376 25.4456 52.7212L28.2225 53.276L41.0806 67.0525V80.0001H63.9194V67.0525L76.7775 53.276L79.5544 52.7212C80.9713 52.4376 82 51.1824 82 49.7369C82 48.0592 80.6344 46.6937 78.9567 46.6937ZM48.6935 63.8998L50.1923 65.0988C49.6718 65.2549 49.1675 65.4557 48.6935 65.7221V63.8998ZM61.0645 52.4034H60.5906L60.8628 48.5969H61.0645C62.1141 48.5969 62.9677 49.4505 62.9677 50.5001C62.9677 51.5498 62.1141 52.4034 61.0645 52.4034ZM42.0323 50.5001C42.0323 49.4505 42.8859 48.5969 43.9355 48.5969H44.1372L44.4084 52.4034H43.9355C42.8859 52.4034 42.0323 51.5498 42.0323 50.5001ZM43.9355 45.3662V45.5908C43.9355 45.7154 43.9402 45.8391 43.9498 45.96L44.0021 46.6937H43.9355C43.4644 46.6937 43.0181 46.7907 42.6004 46.9478L42.2816 45.6735C42.116 45.0084 42.0323 44.3251 42.0323 43.6428C42.0323 39.0284 45.7864 35.2743 50.4007 35.2743H54.5993C59.2136 35.2743 62.9677 39.0284 62.9677 43.6428C62.9677 44.3242 62.884 45.0084 62.7184 45.6726L62.3996 46.9478C61.9828 46.7907 61.5356 46.6937 61.0645 46.6937H60.9989L61.0369 46.1598C61.6479 45.4356 62.0161 44.5002 62.0161 43.4801V42.8872H60.1129V43.4801C60.1129 44.7276 59.0985 45.7421 57.8509 45.7421C57.16 45.7421 56.5168 45.4328 56.0857 44.8923L54.958 43.4839C53.6867 41.8956 51.791 40.984 49.7555 40.984H49.6452C48.212 40.984 46.8236 41.4046 45.6303 42.1992C44.5693 42.9072 43.9355 44.091 43.9355 45.3662ZM46.3126 52.352L45.8473 45.822C45.8416 45.7449 45.8387 45.6678 45.8387 45.5908V45.3662C45.8387 44.7286 46.1556 44.1367 46.6866 43.7827C47.5649 43.1974 48.5889 42.8872 49.6452 42.8872H49.7555C51.2087 42.8872 52.5628 43.5381 53.4706 44.6734L54.5983 46.0818C55.3929 47.0753 56.5786 47.6453 57.8509 47.6453C58.262 47.6453 58.6598 47.5853 59.0347 47.474L58.6874 52.352C58.4561 55.5827 55.7383 58.113 52.5 58.113C49.2617 58.113 46.5439 55.5827 46.3126 52.352ZM52.5 60.0163C53.3831 60.0163 54.2338 59.8649 55.0341 59.5985L56.0628 61.6568L52.5 64.5069L48.9372 61.6568L49.9659 59.5985C50.7662 59.8649 51.6169 60.0163 52.5 60.0163ZM56.3064 63.8998V65.7221C55.8325 65.4557 55.3282 65.2549 54.8077 65.0988L56.3064 63.8998ZM24.9032 49.7369C24.9032 49.1089 25.4142 48.5969 26.0433 48.5969H28.152L29.5975 47.1514C29.8925 46.8564 30.2855 46.6937 30.7033 46.6937C31.377 46.6937 31.9737 47.1238 32.1878 47.7623L32.3563 48.2676L28.4623 51.3832L25.8206 50.8551C25.2886 50.7485 24.9032 50.2784 24.9032 49.7369ZM62.0161 66.3026V78.0969H42.9839V66.3026L30.1066 52.5052L33.4202 49.854L46.7903 62.3334V69.9273L48.4147 68.3019C49.4625 67.2542 50.8547 66.6775 52.3363 66.6775H52.6637C54.1453 66.6775 55.5385 67.2542 56.5853 68.3019L58.2097 69.9273V62.3334L71.5798 49.854L74.8934 52.5052L62.0161 66.3026ZM79.1804 50.8551L76.5387 51.3832L72.6447 48.2676L72.8131 47.7633C73.0263 47.1238 73.623 46.6937 74.2967 46.6937C74.7135 46.6937 75.1075 46.8564 75.4025 47.1514L76.848 48.5969H78.9567C79.5858 48.5969 80.0968 49.1089 80.0968 49.7369C80.0968 50.2784 79.7114 50.7485 79.1804 50.8551Z" fill="#166780"/>
</svg>
