<svg width="40" height="38" viewBox="0 0 40 38" fill="none" xmlns="http://www.w3.org/2000/svg">
<path d="M9.61885 36.4974H3.87231V29.4035C3.87231 28.9712 4.22276 28.6208 4.65509 28.6208H8.83607C9.2684 28.6208 9.61885 28.9712 9.61885 29.4035V36.4974Z" fill="#FFE27A"/>
<path d="M18.455 36.4974H12.7085V25.131C12.7085 24.6987 13.0589 24.3482 13.4913 24.3482H17.6723C18.1046 24.3482 18.455 24.6987 18.455 25.131V36.4974Z" fill="#FFBA57"/>
<path d="M27.2912 36.4974H21.5447V20.8584C21.5447 20.4261 21.8951 20.0756 22.3275 20.0756H26.5084C26.9408 20.0756 27.2912 20.4261 27.2912 20.8584V36.4974Z" fill="#98DB7C"/>
<path d="M36.1274 36.4974H30.3809V16.5858C30.3809 16.1535 30.7313 15.8031 31.1636 15.8031H35.3446C35.7769 15.8031 36.1274 16.1535 36.1274 16.5858V36.4974Z" fill="#8BCAFF"/>
<path d="M3.87231 35.0884H9.61885V36.4974H3.87231V35.0884Z" fill="#F9CF58"/>
<path d="M12.7085 35.0884H18.455V36.4974H12.7085V35.0884Z" fill="#FFAC3E"/>
<path d="M21.5447 35.0884H27.2912V36.4974H21.5447V35.0884Z" fill="#82D361"/>
<path d="M30.3809 35.0884H36.1274V36.4974H30.3809V35.0884Z" fill="#6CC4FF"/>
<path d="M30.6051 7.97363L33.0501 9.67367L32.23 1.50397L24.2786 3.57489L26.7236 5.27493C26.7236 5.27493 22.2443 14.0103 6.06011 19.0046C5.22668 19.2619 5.45557 20.4963 6.3257 20.4359C12.8101 19.9854 23.5179 17.6706 30.6051 7.97363Z" fill="#FF4755"/>
<path d="M29.9039 7.47845C29.7297 7.35539 29.4901 7.39524 29.3628 7.56628C22.0827 17.3491 12.743 18.581 6.3256 19.0268C6.23104 19.0334 6.14454 19.0239 6.06572 19.0028L6.06 19.0046C5.23229 19.2657 5.46415 20.4957 6.32998 20.4355C12.8148 19.9844 23.5194 17.6684 30.605 7.97356L29.9039 7.47845Z" fill="#FC2B3A"/>
<path d="M39.4129 35.9103H36.7147V24.9238C36.7147 24.5995 36.4518 24.3367 36.1276 24.3367C35.8034 24.3367 35.5405 24.5995 35.5405 24.9238V35.9103H30.9681V16.5858C30.9681 16.478 31.0559 16.3901 31.1638 16.3901H35.3448C35.4527 16.3901 35.5405 16.478 35.5405 16.5858V22.5754C35.5405 22.8997 35.8034 23.1625 36.1276 23.1625C36.4518 23.1625 36.7147 22.8997 36.7147 22.5754V16.5858C36.7147 15.8305 36.1002 15.216 35.3448 15.216H31.1638C30.4085 15.216 29.794 15.8305 29.794 16.5858V35.9104H27.8784V20.8584C27.8784 20.1031 27.2639 19.4885 26.5086 19.4885H22.3276C21.5722 19.4885 20.9577 20.1031 20.9577 20.8584V35.9104H19.0422V25.131C19.0422 24.3757 18.4277 23.7611 17.6723 23.7611H13.4914C12.736 23.7611 12.1215 24.3757 12.1215 25.131V30.2646C12.1215 30.5888 12.3843 30.8517 12.7086 30.8517C13.0328 30.8517 13.2957 30.5888 13.2957 30.2646V25.131C13.2957 25.023 13.3835 24.9353 13.4914 24.9353H17.6723C17.7803 24.9353 17.868 25.023 17.868 25.131V35.9103H13.2957V32.6129C13.2957 32.2887 13.0328 32.0258 12.7086 32.0258C12.3843 32.0258 12.1215 32.2887 12.1215 32.6129V35.9103H10.2059V29.4035C10.2059 28.6482 9.59147 28.0337 8.83609 28.0337H4.65519C3.89988 28.0337 3.28532 28.6482 3.28532 29.4035V35.9103H0.587084C0.262857 35.9103 0 36.1732 0 36.4974C0 36.8216 0.262857 37.0845 0.587084 37.0845H39.4129C39.7371 37.0845 40 36.8216 40 36.4974C40 36.1732 39.7371 35.9103 39.4129 35.9103ZM22.1319 20.8584C22.1319 20.7505 22.2197 20.6627 22.3276 20.6627H26.5086C26.6164 20.6627 26.7043 20.7505 26.7043 20.8584V35.9104H22.1319V20.8584ZM4.45949 29.4035C4.45949 29.2957 4.54732 29.2078 4.65519 29.2078H8.83616C8.94411 29.2078 9.03186 29.2957 9.03186 29.4035V35.9103H4.45949V29.4035Z" fill="black"/>
<path d="M6.26911 21.0249C6.30129 21.0249 6.33377 21.0237 6.36633 21.0215C10.696 20.7208 14.7675 19.7759 18.4678 18.2131C23.4503 16.1087 27.5752 12.9365 30.7362 8.7799L32.7149 10.1557C33.1047 10.4464 33.6987 10.097 33.6342 9.61504L32.8141 1.44534C32.7874 1.09645 32.4185 0.839778 32.082 0.935825L24.1306 3.00674C23.656 3.11383 23.5351 3.7925 23.9434 4.05692L25.9402 5.44526C25.5429 6.06945 24.6676 7.3071 23.1414 8.82099C22.9112 9.04941 22.9097 9.42107 23.1381 9.65121C23.3664 9.88142 23.7382 9.88291 23.9683 9.65457C26.3211 7.32072 27.2094 5.61426 27.246 5.54279C27.3801 5.28119 27.3001 4.96072 27.0588 4.79289L25.6615 3.82138L31.7144 2.24494L32.3387 8.46389L30.9403 7.4916C30.6784 7.30952 30.3193 7.3698 30.1311 7.62718C27.0549 11.8362 22.9771 15.0339 18.011 17.1314C13.5509 19.015 9.1726 19.6495 6.28508 19.8501C6.11639 19.8933 6.06528 19.5836 6.23326 19.5656C12.6657 17.5805 18.0377 14.7899 22.2 11.2713C22.4477 11.062 22.4787 10.6916 22.2693 10.444C22.0601 10.1964 21.6895 10.1653 21.442 10.3747C17.4012 13.7906 12.1677 16.5054 5.88712 18.4436C5.23491 18.6449 4.85221 19.2774 4.97714 19.9476C5.09588 20.585 5.63107 21.0249 6.26911 21.0249Z" fill="black"/>
</svg>
