<svg width="1280" height="596" viewBox="0 0 1280 596" fill="none" xmlns="http://www.w3.org/2000/svg">
<path opacity="0.03" d="M1266.76 294.133C1263.59 196.37 1220.89 116.8 1131.34 67.2901C1038.81 16.1051 945.815 20.7583 855.94 77.2014C852.68 79.2488 849.374 81.3428 846.207 83.5763C837.08 90.1373 827.301 93.6272 820.176 82.2269C813.936 72.176 817.801 63.2884 827.44 56.3086C863.204 30.53 902.461 12.8479 945.908 5.07705C1117.32 -25.5409 1274.07 85.2514 1297.26 258.49C1319.99 428.098 1198.4 572.626 1039.79 593.007C880.248 613.528 733.42 501.339 707.855 345.644C705.107 328.892 704.967 311.722 702.453 294.924C699.286 273.473 683.732 259.699 665.012 262.166C644.429 264.864 633.486 277.614 632.881 298.367C630.739 371.329 607.548 436.241 559.769 492.033C513.621 545.963 455.039 579.187 385.653 591.192C295.032 606.92 213.679 583.84 142.803 525.164C75.0001 469 42.2632 395.34 36.256 308.744C35.5109 297.949 36.7216 286.921 29.8296 277.475C20.7489 265.004 8.17566 259.188 -6.67944 262.491C-24.7012 266.54 -34.1078 280.313 -35.7842 297.623C-38.2988 322.983 -38.9044 348.25 -45.517 373.377C-76.6241 491.661 -176.139 577.047 -297.914 593.007C-472.123 615.854 -629.708 475.282 -630.407 306.604C-630.546 278.731 -645.262 261.84 -667.195 261.84C-690.013 261.84 -702.773 277.521 -703.378 306.231C-706.312 452.388 -817.795 572.766 -964.716 593.054C-1121.88 614.738 -1277.93 498.129 -1296.14 335.36C-1297.26 325.402 -1298.89 315.491 -1299.82 305.487C-1301.03 293.016 -1296.32 282.593 -1283.29 281.895C-1269.04 281.151 -1266.99 292.784 -1266.33 304.556C-1262.42 377.192 -1237.14 441.127 -1182.84 490.311C-1106.84 559.178 -1017.85 580.909 -919.685 548.755C-821.66 516.648 -763.078 447.176 -741.191 346.528C-737.698 330.521 -736.907 314.421 -736.534 298.135C-735.65 260.211 -707.756 230.524 -671.945 228.523C-636.647 226.522 -606.378 251.091 -599.998 287.386C-594.27 320.005 -595.341 353.461 -583.56 385.382C-540.857 500.967 -432.494 570.905 -313.84 562.063C-190.063 552.85 -89.5233 457.972 -71.7345 338.338C-69.3595 322.285 -69.1733 305.952 -67.0312 289.852C-62.0485 252.301 -31.5466 226.476 4.72949 228.477C40.5867 230.431 68.9463 260.072 69.4585 297.949C70.4364 371.283 95.6761 435.125 148.391 485.519C225.414 559.132 317.245 582.165 418.669 547.964C518.138 514.415 576.348 442.616 595.487 339.269C598.048 325.449 599.073 311.722 599.492 297.762C600.702 258.862 629.807 229.035 666.689 228.43C704.129 227.779 734.026 256.163 735.981 295.157C740.685 390.035 777.613 468.255 859.106 519.906C948.609 576.628 1042.49 578.955 1134.27 526.094C1220.98 476.166 1264.01 398.411 1266.76 294.133Z" fill="#EFF5FA"/>
<path opacity="0.05" d="M1002.35 536.099C872.145 536.145 766.018 433.356 763.13 304.323C761.826 245.6 724.246 204.466 670.507 202.791C616.535 201.162 575.649 242.203 572.995 302.09C568.617 399.993 522.981 471.885 435.015 514.043C284.461 586.12 107.411 481.284 96.4678 315.212C95.3967 299.019 95.3967 282.686 89.9949 267.051C74.7673 223.125 32.251 197.533 -14.177 204.373C-60.279 211.167 -92.9229 249.462 -94.2268 298.228C-96.9277 403.204 -158.49 489.474 -254.746 523.302C-406.277 576.535 -568.146 465.556 -572.663 305.394C-574.339 245.135 -601.861 213.447 -661.747 203.256C-672.318 201.441 -682.889 199.906 -681.259 185.853C-679.629 171.754 -668.359 172.824 -658.115 173.197C-595.714 175.384 -542.347 230.152 -542.72 298.879C-543.232 392.874 -469.143 492.684 -354.261 505.993C-244.454 518.696 -133.39 429.959 -125.66 319.632C-124.729 306.51 -124.31 293.295 -122.4 280.313C-112.621 213.726 -57.578 169.428 10.1313 173.197C73.5099 176.733 123.524 230.664 124.921 297.064C127.202 404.088 202.456 490.777 304.718 504.224C433.152 521.069 540.956 427.354 543.983 296.18C545.38 236.527 582.913 190.088 641.216 175.989C694.629 163.053 752.001 189.715 778.544 239.365C789.069 259.048 792.002 280.266 793.353 302.043C800.571 415.907 873.402 492.871 986.702 506.458C1092.97 519.208 1202.4 427.354 1210.04 318.888C1216.09 233.316 1184.38 164.867 1111.36 119.918C1038.48 75.061 963.138 77.1549 889.515 121.407C879.969 127.13 869.584 134.343 861.621 121.128C853.937 108.378 864.322 101.77 873.775 95.5815C1017.16 1.54064 1213.81 91.5798 1238.07 262.445C1258.94 408.741 1149.22 536.052 1002.35 536.099Z" fill="#EFF5FA"/>
<path opacity="0.07" d="M333.217 480.54C235.099 480.354 154.724 402.599 152.302 305.533C150.067 216.192 97.9575 158.307 8.36139 146.208C-2.72172 144.719 -15.9935 145.371 -14.224 129.969C-12.4078 113.962 0.398413 112.892 14.1359 114.799C117.33 128.992 182.292 200.744 185.365 304.463C187.787 385.522 252.655 447.456 335.033 447.316C416.015 447.177 481.256 384.963 483.584 305.533C486.798 196.463 554.134 120.43 662.357 114.381C742.78 109.867 822.736 159.703 846.765 257.326C850.258 271.565 851.655 286.13 851.795 300.973C852.447 374.913 913.217 441.174 985.025 447.083C1066.56 453.784 1134.83 403.064 1149.55 325.263C1160.91 265.237 1140.84 215.82 1094.27 179.293C1044.21 140.02 988.284 135.599 930.867 165.24C919.97 170.87 907.583 180.688 899.154 164.309C891.61 149.652 903.299 142.346 915.08 136.064C1028.05 75.8057 1161.98 144.905 1183.36 272.031C1197.98 359.092 1133.67 463.788 1027.82 479.749C934.545 493.801 840.572 426.563 822.224 331.871C817.754 308.93 820.222 285.757 814.587 262.864C797.916 195.206 740.405 146.488 665.291 146.395C593.577 146.348 534.157 200.325 520.28 270.914C514.924 298.228 518.463 326.101 508.964 353.322C482.094 430.565 414.618 480.679 333.217 480.54Z" fill="#DBF4F2"/>
<path opacity="0.1" d="M1130.09 297.669C1130.09 365.466 1076.96 420.141 1008.73 422.561C942.934 424.887 885.097 373.237 882.303 305.766C879.369 234.293 855.2 174.499 797.317 130.48C763.09 104.422 724.206 90.3233 681.13 88.7878C669.489 88.369 657.055 87.5314 657.614 73.153C658.173 57.2857 671.724 57.5649 683.925 58.3094C811.986 66.1733 906.937 165.658 910.942 296.18C912.525 348.575 950.478 389.43 999.839 391.943C1050.78 394.549 1093.35 359.696 1099.77 308.092C1104.24 272.17 1090.37 242.389 1061.26 221.171C1031.23 199.254 998.349 197.207 964.541 212.562C958.953 215.122 954.017 219.123 948.568 222.008C940.978 226.057 933.294 226.289 927.846 218.705C921.606 210.05 924.819 202.325 932.642 196.649C960.35 176.593 991.55 169.055 1025.13 174.267C1086.27 183.759 1130.04 235.735 1130.09 297.669Z" fill="#EFF5FA"/>
<path opacity="0.2" d="M938.09 298.647C937.857 259.188 967.475 228.709 1006.03 228.663C1044.03 228.616 1074.58 260.072 1074.3 298.833C1074.02 334.569 1042.12 366.071 1005.47 366.863C968.918 367.607 938.323 336.617 938.09 298.647ZM971.293 298.786C971.526 318.935 986.94 334.709 1006.17 334.43C1025.96 334.151 1041.66 316.655 1041 295.529C1040.4 276.312 1024.15 261.328 1004.31 261.701C985.03 262.073 971.06 277.801 971.293 298.786Z" fill="#F0E7D2"/>
</svg>
