<svg width="426" height="629" viewBox="0 0 426 629" fill="none" xmlns="http://www.w3.org/2000/svg">
<path d="M34.5 142L100.868 178.742C103.923 180.433 107.638 180.409 110.67 178.678L158.437 151.406C161.192 149.834 164.529 149.661 167.43 150.941L218.078 173.276C225.668 176.622 226.118 187.222 218.84 191.2L105.787 252.996L18.5324 299.63C11.2845 303.503 11.544 313.981 18.9747 317.491L103.26 357.306C104.913 358.087 106.702 358.403 108.527 358.292C122.678 357.436 188.683 356.087 236.649 400.5C290.649 450.5 221.5 639 420 622" stroke="#325D84" stroke-width="11" stroke-linecap="round"/>
<g clip-path="url(#clip0_1655_12613)">
<path d="M143.673 113.12L58.9651 161.86L2.48926 128.829L87.1971 80.0891L143.673 113.12Z" fill="#41B9D5"/>
<path d="M58.9652 164L0 130.123V128.018L58.9652 161.907V164Z" fill="#F0E7D2"/>
<path d="M58.9652 161.907L0 128.018L2.6427 126.689L61.6197 160.578L58.9652 161.907Z" fill="#F0E7D2"/>
<path d="M58.9648 164V161.907L61.6193 160.578V162.683L58.9648 164Z" fill="#F0E7D2"/>
<path d="M144.357 114.99L85.3799 81.1007V78.9958L144.357 112.885V114.99Z" fill="#F0E7D2"/>
<path d="M144.357 112.885L85.3799 78.9957L88.0226 77.667L147 111.556L144.357 112.885Z" fill="#F0E7D2"/>
<path d="M144.356 114.989V112.885L146.999 111.556V113.661L144.356 114.989Z" fill="#F0E7D2"/>
<path d="M28.2789 131.017L19.3008 136.19L8.94238 130.217L17.9087 125.055L28.2789 131.017Z" fill="#3D322C"/>
<path d="M37.2565 125.854L28.2784 131.017L17.9082 125.055L26.8863 119.893L37.2565 125.854Z" fill="#F0E7D2"/>
<path d="M46.235 120.692L37.2569 125.854L26.8867 119.893L35.8648 114.731L46.235 120.692Z" fill="#3D322C"/>
<path d="M55.2135 115.518L46.2355 120.692L35.8652 114.731L44.8433 109.557L55.2135 115.518Z" fill="#F0E7D2"/>
<path d="M64.1793 110.356L55.213 115.518L44.8428 109.557L53.8209 104.395L64.1793 110.356Z" fill="#3D322C"/>
<path d="M73.1578 105.194L64.1797 110.356L53.8213 104.395L62.7994 99.2324L73.1578 105.194Z" fill="#F0E7D2"/>
<path d="M82.1353 100.032L73.1573 105.194L62.7988 99.2325L71.7769 94.0586L82.1353 100.032Z" fill="#3D322C"/>
<path d="M100.091 89.6961L91.1134 94.8582L80.7432 88.8965L89.7213 83.7344L100.091 89.6961Z" fill="#3D322C"/>
<path d="M91.1139 94.8582L82.1358 100.032L71.7773 94.0586L80.7436 88.8965L91.1139 94.8582Z" fill="#F0E7D2"/>
<path d="M47.6158 131.816L38.6495 136.99L28.2793 131.016L37.2574 125.854L47.6158 131.816Z" fill="#3D322C"/>
<path d="M56.5934 126.654L47.6153 131.816L37.2568 125.854L46.2349 120.692L56.5934 126.654Z" fill="#F0E7D2"/>
<path d="M38.6491 136.99L29.671 142.152L19.3008 136.19L28.2789 131.016L38.6491 136.99Z" fill="#F0E7D2"/>
<path d="M65.5719 121.492L56.5938 126.654L46.2354 120.692L55.2134 115.518L65.5719 121.492Z" fill="#3D322C"/>
<path d="M74.5494 116.318L65.5713 121.492L55.2129 115.518L64.1792 110.356L74.5494 116.318Z" fill="#F0E7D2"/>
<path d="M83.528 111.156L74.5499 116.318L64.1797 110.356L73.1578 105.194L83.528 111.156Z" fill="#3D322C"/>
<path d="M92.5055 105.994L83.5275 111.156L73.1572 105.194L82.1353 100.032L92.5055 105.994Z" fill="#F0E7D2"/>
<path d="M101.484 100.832L92.506 105.994L82.1357 100.032L91.1138 94.8582L101.484 100.832Z" fill="#3D322C"/>
<path d="M110.45 95.6578L101.483 100.832L91.1133 94.8582L100.091 89.696L110.45 95.6578Z" fill="#F0E7D2"/>
<path d="M102.522 85.9098L100.104 87.2973V2.76327L102.522 1.37573V85.9098Z" fill="#F0E7D2"/>
<path d="M97.6846 85.9098L100.103 87.2973V2.76327L97.6846 1.37573V85.9098Z" fill="#F0E7D2"/>
<path d="M102.522 1.37578L100.103 0L97.6846 1.37578L100.103 2.76332L102.522 1.37578Z" fill="#F0E7D2"/>
<path d="M100.104 24.5288L16.5879 72.587V52.5265L100.104 4.46826V24.5288Z" fill="#F46269"/>
<path d="M45.6573 51.08C45.1146 51.3975 44.5719 51.5739 44.0292 51.6209C43.4866 51.6679 43.0028 51.5503 42.5781 51.2564L43.6517 48.9164C43.9467 49.081 44.277 49.1751 44.6427 49.1751C45.0085 49.1868 45.3624 49.081 45.7163 48.8811C46.1057 48.6577 46.4006 48.3872 46.5894 48.0933C46.7781 47.7875 46.8725 47.47 46.8725 47.1408C46.8725 46.9762 46.8489 46.8351 46.7899 46.7527C46.7309 46.6587 46.6484 46.5999 46.5422 46.5646C46.436 46.5293 46.3062 46.5176 46.1528 46.5176C45.9995 46.5176 45.8343 46.5176 45.6573 46.5176L44.5719 46.5293C44.3596 46.5411 44.1472 46.5058 43.9467 46.447C43.7461 46.3765 43.5691 46.2706 43.404 46.1178C43.2506 45.9649 43.1208 45.7532 43.0264 45.4828C42.9321 45.2123 42.8849 44.8713 42.8849 44.4715C42.8849 44.0129 42.9557 43.5544 43.0972 43.0605C43.2388 42.5784 43.4512 42.108 43.7107 41.6494C43.9703 41.2026 44.2888 40.7793 44.6545 40.403C45.0203 40.0267 45.4214 39.7092 45.8461 39.4623C46.3298 39.1801 46.8135 39.0272 47.2854 39.0037C47.7573 38.9802 48.1703 39.1095 48.536 39.38L47.5804 41.5083C47.309 41.379 47.0377 41.3202 46.7663 41.3202C46.495 41.3202 46.1882 41.426 45.8579 41.6142C45.5394 41.8023 45.2798 42.0375 45.0792 42.3197C44.8905 42.6019 44.7961 42.9076 44.7961 43.2251C44.7961 43.3897 44.8315 43.5191 44.8905 43.6014C44.9495 43.6837 45.0439 43.7425 45.1618 43.766C45.2798 43.8013 45.4096 43.813 45.563 43.8013C45.7163 43.8013 45.8815 43.8013 46.0585 43.7895L47.1321 43.7543C47.6394 43.7307 48.0523 43.8718 48.3354 44.1776C48.6304 44.4833 48.7719 45.0242 48.7719 45.812C48.7719 46.2824 48.7012 46.7527 48.5596 47.2466C48.418 47.7405 48.2175 48.2226 47.9461 48.6929C47.6748 49.1633 47.3444 49.5984 46.9551 50.0099C46.6012 50.445 46.1528 50.7978 45.6573 51.08Z" fill="#F0E7D2"/>
<path d="M51.5915 47.4583V38.4746L49.3027 39.7916V37.6868L55.7797 33.9592V36.0641L53.4909 37.381V46.3648L51.5915 47.4583Z" fill="#F0E7D2"/>
<path d="M55.5088 45.2124L58.1161 32.6187L60.3813 31.3135L62.9886 40.8969L60.9947 42.0493L60.4874 39.7093L57.9391 41.1791L57.4318 44.1071L55.5088 45.2124ZM58.529 37.8514L58.3285 38.992L60.1099 37.969L59.9212 37.0635C59.8032 36.5814 59.6852 36.0523 59.579 35.4879C59.4728 34.9234 59.3549 34.3943 59.2487 33.8769L59.2015 33.9122C59.0953 34.5589 58.9891 35.2292 58.8829 35.8994C58.765 36.5814 58.647 37.2282 58.529 37.8514Z" fill="#F0E7D2"/>
<path d="M63.9082 40.3796V29.291L66.9166 27.5625C67.3649 27.3038 67.7779 27.1274 68.1672 27.0098C68.5565 26.904 68.8987 26.8922 69.1818 26.9981C69.4767 27.1039 69.7009 27.3155 69.8779 27.6683C70.043 28.0093 70.1374 28.5149 70.1374 29.1734C70.1374 29.9848 70.0076 30.7374 69.7363 31.4194C69.4649 32.1014 69.111 32.7011 68.6509 33.2185L70.5503 36.5697L68.4267 37.7809L66.8222 34.7001L65.784 35.2998V39.2978L63.9082 40.3796ZM65.784 33.3008L66.7515 32.7363C67.247 32.4541 67.6245 32.1014 67.884 31.6663C68.1436 31.243 68.2734 30.7491 68.2734 30.2082C68.2734 29.6673 68.1436 29.3616 67.884 29.291C67.6245 29.2205 67.247 29.3381 66.7515 29.6203L65.784 30.1847V33.3008Z" fill="#F0E7D2"/>
<path d="M73.1462 35.0528V26.0691L70.8574 27.3861V25.2813L77.3344 21.5537V23.6585L75.0456 24.9755V33.9592L73.1462 35.0528Z" fill="#F0E7D2"/>
<path d="M16.5875 52.5264L14.6055 51.5857V71.6462L16.5875 72.5869V52.5264Z" fill="#E83D62"/>
<path d="M100.104 4.46829L98.1218 3.52759L14.6055 51.5858L16.5875 52.5265L100.104 4.46829Z" fill="#FF7381"/>
<path d="M16.5758 134.779L14.1572 136.179V51.6446L16.5758 50.2571V134.779Z" fill="#F0E7D2"/>
<path d="M11.7383 134.779L14.1568 136.179V51.6446L11.7383 50.2571V134.779Z" fill="#F0E7D2"/>
<path d="M16.5754 50.2571L14.1568 48.8813L11.7383 50.2571L14.1568 51.6447L16.5754 50.2571Z" fill="#F0E7D2"/>
</g>
<defs>
<clipPath id="clip0_1655_12613">
<rect width="147" height="164" fill="white"/>
</clipPath>
</defs>
</svg>
