<svg width="40" height="40" viewBox="0 0 40 40" fill="none" xmlns="http://www.w3.org/2000/svg">
<path d="M20 0.78125C9.37658 0.78125 0.78125 9.37814 0.78125 20C0.78125 30.6235 9.37814 39.2188 20 39.2188C30.6235 39.2188 39.2188 30.6219 39.2188 20C39.2188 9.58799 30.7822 0.78125 20 0.78125Z" fill="#FF9171"/>
<path d="M34.5313 0.78125V5.46876H39.2188C38.5963 6.09118 34.9696 9.71791 34.5313 10.1563H29.8438V5.46876C30.2816 5.03095 33.9077 1.40484 34.5313 0.78125Z" fill="#DCEF6C"/>
<path d="M32.1875 20C32.1875 26.7204 26.7204 32.1875 20 32.1875C13.2797 32.1875 7.8125 26.7204 7.8125 20C7.8125 13.2797 13.2797 7.8125 20 7.8125C26.7201 7.8125 32.1875 13.2795 32.1875 20Z" fill="#EEFAFF"/>
<path d="M20 25.1563C22.8477 25.1563 25.1563 22.8477 25.1563 20C25.1563 17.1523 22.8477 14.8438 20 14.8438C17.1523 14.8438 14.8438 17.1523 14.8438 20C14.8438 22.8477 17.1523 25.1563 20 25.1563Z" fill="#FF9171"/>
<path d="M39.7712 6.02125C39.9945 5.79781 40.0615 5.4618 39.9405 5.16984C39.8196 4.87789 39.5348 4.6875 39.2188 4.6875H35.3125V0.78125C35.3125 0.465234 35.1221 0.180391 34.8302 0.0594531C34.5382 -0.0613281 34.2022 0.00546874 33.9788 0.228828L30.9498 3.25781C27.6946 1.12469 23.9236 0 20 0C8.93898 0 0 8.93609 0 20C0 31.061 8.93609 40 20 40C24.4902 40 28.7312 38.5493 32.2645 35.8047C32.6052 35.54 32.6669 35.0491 32.4023 34.7084C32.1375 34.3678 31.6469 34.3061 31.306 34.5707C28.0494 37.1004 24.1398 38.4375 20 38.4375C9.83352 38.4375 1.5625 30.1665 1.5625 20C1.5625 9.83352 9.83352 1.5625 20 1.5625C23.5075 1.5625 26.8823 2.53719 29.8191 4.38852L29.2913 4.91633C29.1448 5.06289 29.0625 5.26156 29.0625 5.46875V9.83258L28.597 10.298C26.2206 8.18625 23.1973 7.03125 20 7.03125C12.8491 7.03125 7.03125 12.8491 7.03125 20C7.03125 27.1509 12.8491 32.9688 20 32.9688C27.1509 32.9688 32.9688 27.1509 32.9688 20C32.9688 16.8027 31.8138 13.7795 29.702 11.403L30.1674 10.9375H34.5312C34.7384 10.9375 34.9371 10.8552 35.0837 10.7087L35.6116 10.1808C37.4628 13.117 38.4375 16.4919 38.4375 20C38.4375 23.3832 37.5155 26.6899 35.7713 29.5627C35.5474 29.9315 35.6648 30.412 36.0337 30.6359C36.401 30.8589 36.882 30.7438 37.1069 30.3735C38.9995 27.2563 40 23.6692 40 20C40 16.0758 38.8752 12.3046 36.7423 9.05016L39.7712 6.02125ZM31.4062 20C31.4062 26.2895 26.2895 31.4062 20 31.4062C13.7105 31.4062 8.59375 26.2895 8.59375 20C8.59375 13.7105 13.7105 8.59375 20 8.59375C22.78 8.59375 25.4108 9.58687 27.4902 11.4049L23.6077 15.2874C22.576 14.4937 21.3209 14.0625 20 14.0625C16.7261 14.0625 14.0625 16.7261 14.0625 20C14.0625 23.2739 16.7261 25.9375 20 25.9375C23.2739 25.9375 25.9375 23.2739 25.9375 20C25.9375 18.6791 25.5063 17.4241 24.7126 16.3923L28.5951 12.5098C30.4131 14.5893 31.4062 17.2201 31.4062 20ZM24.375 20C24.375 22.4124 22.4124 24.375 20 24.375C17.5876 24.375 15.625 22.4124 15.625 20C15.625 17.5876 17.5876 15.625 20 15.625C20.9025 15.625 21.7633 15.8987 22.4901 16.405L19.4476 19.4475C19.1425 19.7526 19.1425 20.2473 19.4476 20.5524C19.7528 20.8575 20.2473 20.8574 20.5525 20.5524L23.595 17.5099C24.1013 18.2368 24.375 19.0976 24.375 20ZM34.2076 9.375H30.625V5.79242C31.6699 4.7475 32.7523 3.66508 33.75 2.66742V5.46875C33.75 5.90016 34.0998 6.25 34.5312 6.25H37.3326L34.2076 9.375Z" fill="#0F3061"/>
<path d="M34.375 33.5938C34.8065 33.5938 35.1563 33.244 35.1563 32.8125C35.1563 32.381 34.8065 32.0312 34.375 32.0312C33.9435 32.0312 33.5938 32.381 33.5938 32.8125C33.5938 33.244 33.9435 33.5938 34.375 33.5938Z" fill="#0F3061"/>
</svg>
