<svg width="628" height="790" viewBox="0 0 628 790" fill="none" xmlns="http://www.w3.org/2000/svg">
<path d="M622 741.283L540.39 782.033C535.353 784.548 529.46 784.7 524.3 782.448L469.444 758.501C454.315 751.896 454.226 730.468 469.3 723.738L551.094 687.221C565.505 680.787 566.244 660.605 552.342 653.135L461.818 604.489C459.053 603.003 455.963 602.226 452.824 602.226H341.627C338.436 602.226 335.296 603.029 332.498 604.562L219.437 666.498C213.8 669.586 206.985 669.615 201.322 666.575L112.254 618.766L33.7274 577.198C19.8635 569.859 20.362 549.831 34.5739 543.192L393.5 375.5L525.328 315.367C542.76 307.416 538.798 281.587 519.785 279.226L407.407 265.272C388.096 262.874 384.445 236.446 402.382 228.902L529.15 175.587C546.428 168.32 543.861 143.075 525.473 139.435L462.129 126.896C459.157 126.307 456.086 126.438 453.175 127.278L384.191 147.174C362.57 153.409 349.972 123.531 369.53 112.403L394.163 98.3891C408.262 90.3685 406.475 69.5091 391.218 64.0029L230.5 6" stroke="#325D84" stroke-width="11" stroke-linecap="round"/>
</svg>
