<svg width="578" height="520" viewBox="0 0 578 520" fill="none" xmlns="http://www.w3.org/2000/svg">
<path d="M245.5 12.5L390.92 124.035C396.545 128.35 396.698 131.992 390.014 134.358C372.251 140.645 324.945 157.696 201 203C61.402 254.025 256.098 257.677 413.475 253.747C436.039 253.184 441.753 287.515 420.125 293.97L415 295.5L343.495 326.813C340.231 328.242 336.631 328.725 333.105 328.206L116.767 296.349C113.009 295.796 109.171 296.382 105.749 298.031L35.3333 331.97C26.7532 336.105 29.6985 349 39.2232 349V349C39.7401 349 40.256 349.045 40.7652 349.134L174.5 372.5L263.996 388.092C276.674 390.3 277.443 408.213 265 411.5V411.5L130.871 450.248C110.936 456.007 113.347 484.99 133.96 487.376L303.5 507" stroke="#325D84" stroke-width="11" stroke-linecap="round"/>
<path d="M264.921 4.57488C275.533 10.7119 275.533 20.6428 264.921 26.7426C254.31 32.8796 237.07 32.8796 226.459 26.7426C215.847 20.6056 215.847 10.6747 226.459 4.57488C237.07 -1.52496 254.31 -1.52496 264.921 4.57488Z" fill="#325C84"/>
<path d="M311.93 502.985C318.633 506.862 318.633 513.136 311.93 516.989C305.226 520.866 294.336 520.866 287.632 516.989C280.929 513.112 280.929 506.839 287.632 502.985C294.336 499.132 305.226 499.132 311.93 502.985Z" fill="#325C84"/>
</svg>
