<svg width="418" height="966" viewBox="0 0 418 966" fill="none" xmlns="http://www.w3.org/2000/svg">
<path d="M407.922 5.07801C407.413 2.08343 404.573 0.0686288 401.578 0.577829C398.583 1.08703 396.569 3.92741 397.078 6.92199L407.922 5.07801ZM194.787 206.994L193.022 201.785C192.737 201.882 192.46 202.002 192.194 202.144L194.787 206.994ZM283.5 403.5L285.053 408.776L295.778 405.618L286.732 399.049L283.5 403.5ZM370.266 545.727C367.631 547.237 366.718 550.598 368.227 553.234C369.737 555.869 373.098 556.782 375.734 555.273L370.266 545.727ZM192.194 202.144L124.028 238.576L129.213 248.277L197.379 211.845L192.194 202.144ZM283.5 403.5C281.947 398.224 281.944 398.225 281.942 398.225C281.941 398.226 281.939 398.226 281.936 398.227C281.932 398.228 281.926 398.23 281.92 398.232C281.907 398.236 281.889 398.241 281.868 398.247C281.825 398.26 281.765 398.278 281.689 398.302C281.538 398.348 281.324 398.415 281.051 398.502C280.506 398.676 279.728 398.932 278.762 399.269C276.832 399.943 274.139 400.946 271.046 402.276C264.923 404.908 256.96 408.939 250.269 414.408C243.659 419.812 237.525 427.259 236.678 436.811C235.813 446.565 240.595 456.695 251.763 467.036L259.237 458.964C249.405 449.861 247.187 442.831 247.635 437.783C248.1 432.533 251.591 427.535 257.231 422.925C262.79 418.381 269.702 414.828 275.392 412.381C278.205 411.171 280.653 410.26 282.387 409.654C283.253 409.352 283.938 409.127 284.397 408.98C284.627 408.907 284.8 408.853 284.912 408.819C284.967 408.802 285.007 408.79 285.031 408.783C285.043 408.779 285.051 408.777 285.055 408.776C285.057 408.775 285.057 408.775 285.057 408.775C285.057 408.775 285.056 408.775 285.056 408.775C285.055 408.776 285.053 408.776 283.5 403.5ZM251.763 467.036C257.726 472.556 265.872 476.919 274.939 480.532C284.062 484.168 294.474 487.182 305.236 489.84C316.007 492.499 327.275 494.836 338.101 497.077C348.974 499.329 359.373 501.479 368.6 503.793C377.871 506.118 385.645 508.534 391.345 511.233C397.327 514.065 399.672 516.585 400.272 518.341C400.668 519.499 400.819 522.085 396.205 527.096C391.648 532.044 383.429 538.188 370.266 545.727L375.734 555.273C389.196 547.562 398.586 540.749 404.297 534.547C409.95 528.408 413.027 521.65 410.681 514.784C408.539 508.515 402.474 504.331 396.052 501.291C389.347 498.117 380.723 495.493 371.275 493.124C361.783 490.743 351.143 488.545 340.331 486.306C329.471 484.057 318.407 481.761 307.873 479.16C297.331 476.557 287.466 473.683 279.012 470.314C270.503 466.923 263.774 463.166 259.237 458.964L251.763 467.036ZM397.078 6.92199C402.003 35.8839 392.383 62.3867 374.505 86.2053C356.574 110.095 330.563 130.942 303.56 148.173C276.604 165.374 248.949 178.79 227.999 187.914C217.534 192.471 208.764 195.948 202.62 198.282C199.549 199.449 197.136 200.329 195.497 200.916C194.678 201.209 194.052 201.429 193.634 201.574C193.426 201.647 193.269 201.701 193.167 201.736C193.115 201.753 193.077 201.766 193.053 201.775C193.041 201.779 193.032 201.782 193.027 201.784C193.025 201.784 193.023 201.785 193.022 201.785C193.022 201.785 193.022 201.785 194.787 206.994C196.552 212.204 196.554 212.203 196.557 212.202C196.559 212.201 196.563 212.2 196.568 212.198C196.576 212.195 196.588 212.191 196.604 212.186C196.635 212.175 196.68 212.16 196.739 212.14C196.856 212.099 197.027 212.04 197.25 211.963C197.697 211.807 198.353 211.577 199.204 211.272C200.905 210.663 203.385 209.758 206.527 208.565C212.809 206.178 221.743 202.636 232.391 197.999C253.668 188.733 281.879 175.057 309.477 157.446C337.027 139.866 364.257 118.183 383.303 92.8086C402.402 67.3626 413.497 37.8661 407.922 5.07801L397.078 6.92199ZM120.368 291.846L280.268 407.951L286.732 399.049L126.831 282.945L120.368 291.846ZM124.028 238.576C103.518 249.537 101.55 278.182 120.368 291.846L126.831 282.945C114.585 274.053 115.866 255.411 129.213 248.277L124.028 238.576Z" fill="#325D84"/>
<path d="M375 550.999C375 550.999 332.5 617.157 205.5 579C78.4998 540.843 75 641.999 75 641.999" stroke="#325D84" stroke-width="14" stroke-linecap="round"/>
<path d="M79 647.5L150.287 686.965L207.316 654.406L281.149 686.965L150.287 758.496L95.4879 787.784C75.8755 798.266 77.6192 826.933 98.3574 834.961L267.726 900.523C298.706 912.515 290.116 958.5 256.896 958.5H7" stroke="#325D84" stroke-width="14" stroke-linecap="round"/>
</svg>
