<svg width="72" height="72" viewBox="0 0 72 72" fill="none" xmlns="http://www.w3.org/2000/svg">
<circle cx="36" cy="36" r="36" fill="#F0E7D2"/>
<g clip-path="url(#clip0_1_2)">
<path d="M46.3468 61.0234H19.2412V56.3917C19.2412 52.4112 22.468 49.1845 26.4484 49.1845H39.1395C43.12 49.1845 46.3468 52.4112 46.3468 56.3917V61.0234Z" fill="#F0E7D2"/>
<path d="M30.5126 45.7287H21.1997C19.1329 45.7287 17.4574 44.0532 17.4574 41.9864V28.3131C17.4574 19.843 24.3238 12.9766 32.7939 12.9766C41.2642 12.9766 48.1306 19.843 48.1306 28.3131V41.9864C48.1306 44.0532 46.4551 45.7287 44.3883 45.7287H35.1502" fill="#F0E7D2"/>
<path d="M43.0435 27.5981C41.0557 27.5981 39.1802 26.6737 37.9652 25.0951L36.7673 23.5387L35.5693 25.0951C34.3544 26.6737 32.4788 27.5981 30.4911 27.5981H22.5444V38.3182C22.5444 40.8072 24.053 43.0462 26.3551 43.9736L30.7119 45.7288V49.1845H28.4503C28.4503 51.2557 30.1293 52.9347 32.2005 52.9347H33.3874C35.4586 52.9347 37.1376 51.2557 37.1376 49.1845H34.876V45.7288L39.2328 43.9736C41.5349 43.0462 43.0435 40.8073 43.0435 38.3183V27.5981Z" fill="#F0E7D2"/>
<path d="M32.794 41.536C31.351 41.536 30.1811 40.3662 30.1811 38.923V38.5121H35.4069V38.923C35.4069 40.3661 34.2371 41.536 32.794 41.536Z" fill="#FAF7F5"/>
<path d="M54.5426 53.3263C54.5426 57.5772 51.0965 61.0234 46.8454 61.0234C42.5944 61.0234 39.1483 57.5773 39.1483 53.3263C39.1483 49.0753 42.5944 45.6292 46.8454 45.6292C51.0965 45.6292 54.5426 49.0753 54.5426 53.3263Z" fill="#41B9D5"/>
<path d="M32.8115 62C32.4045 62 32.0313 61.736 31.8934 61.354C31.7551 60.9713 31.8763 60.5263 32.1925 60.2688C32.5185 60.0032 32.9865 59.9769 33.3403 60.2033C33.6719 60.4155 33.845 60.8199 33.7707 61.2065C33.6832 61.6607 33.2749 62 32.8115 62Z" fill="#021D45"/>
<path d="M39.0214 33.9166C38.7709 33.9166 38.5205 33.8209 38.3297 33.6294C38.1767 33.4758 37.9733 33.3912 37.7573 33.3912C37.5413 33.3912 37.338 33.4758 37.185 33.6294C36.8042 34.0113 36.1859 34.0125 35.8039 33.6317C35.4219 33.2511 35.4208 32.6327 35.8016 32.2507C36.3238 31.7267 37.0184 31.4381 37.7573 31.4381C38.4963 31.4381 39.1909 31.7267 39.7131 32.2507C40.0938 32.6327 40.0928 33.2511 39.7107 33.6317C39.5201 33.8217 39.2707 33.9166 39.0214 33.9166Z" fill="#021D45"/>
<path d="M29.0949 33.9166C28.8444 33.9166 28.594 33.8209 28.4032 33.6294C28.2502 33.4758 28.0469 33.3912 27.8309 33.3912C27.6148 33.3912 27.4115 33.4758 27.2585 33.6294C26.8777 34.0113 26.2595 34.0125 25.8774 33.6317C25.4954 33.2511 25.4943 32.6327 25.8751 32.2507C26.3974 31.7267 27.0919 31.4381 27.8309 31.4381C28.5698 31.4381 29.2645 31.7267 29.7866 32.2507C30.1674 32.6327 30.1663 33.2511 29.7843 33.6317C29.5937 33.8217 29.3442 33.9166 29.0949 33.9166Z" fill="#021D45"/>
<path d="M32.7939 42.5126C30.8146 42.5126 29.2045 40.9023 29.2045 38.923V38.5122C29.2045 37.9728 29.6417 37.5356 30.1811 37.5356H35.4069C35.9463 37.5356 36.3835 37.9728 36.3835 38.5122V38.923C36.3835 40.9023 34.7732 42.5126 32.7939 42.5126ZM31.2584 39.4887C31.4892 40.113 32.0904 40.5594 32.7939 40.5594C33.4976 40.5594 34.0988 40.113 34.3296 39.4887H31.2584Z" fill="#021D45"/>
<path d="M44.7587 53.1594C44.2193 53.1594 43.7821 52.7222 43.7821 52.1828V51.3404C43.7821 50.8011 44.2193 50.3639 44.7587 50.3639C45.298 50.3639 45.7353 50.8011 45.7353 51.3404V52.1828C45.7352 52.7222 45.2979 53.1594 44.7587 53.1594Z" fill="#021D45"/>
<path d="M48.9323 53.1594C48.393 53.1594 47.9558 52.7222 47.9558 52.1828V51.3404C47.9558 50.8011 48.393 50.3639 48.9323 50.3639C49.4717 50.3639 49.9089 50.8011 49.9089 51.3404V52.1828C49.9089 52.7222 49.4717 53.1594 48.9323 53.1594Z" fill="#021D45"/>
<path d="M46.8455 57.4865C45.9781 57.4865 45.1106 57.1563 44.4504 56.496C44.069 56.1146 44.0689 55.4963 44.4504 55.1149C44.8317 54.7336 45.4501 54.7335 45.8314 55.1149C46.3907 55.6741 47.3005 55.6741 47.8598 55.1149C48.2411 54.7337 48.8595 54.7336 49.2408 55.1149C49.6222 55.4963 49.6222 56.1146 49.2408 56.496C48.5803 57.1563 47.7129 57.4865 46.8455 57.4865Z" fill="#021D45"/>
<path d="M48.2046 44.7591C48.7721 43.9802 49.1071 43.0218 49.1071 41.9865V28.3131C49.1071 19.3181 41.7891 12 32.7939 12C23.7988 12 16.4809 19.3181 16.4809 28.3131V41.9864C16.4809 44.5884 18.5978 46.7053 21.1997 46.7053H29.7354V48.2078H26.4484C21.9358 48.2078 18.2646 51.8791 18.2646 56.3916V61.0234C18.2646 61.5628 18.7018 62 19.2411 62H28.3793C28.9187 62 29.3559 61.5628 29.3559 61.0234C29.3559 60.4841 28.9187 60.0469 28.3793 60.0469H20.2178V56.3917C20.2178 52.9561 23.0129 50.161 26.4485 50.161H27.5754C28.0266 52.3004 29.9289 53.9112 32.2006 53.9112H33.3875C35.6592 53.9112 37.5615 52.3004 38.0127 50.161H38.7697C38.3838 51.1421 38.1718 52.21 38.1718 53.3264C38.1718 56.0336 39.4185 58.4551 41.368 60.0469H37.2087C36.6693 60.0469 36.2321 60.4841 36.2321 61.0234C36.2321 61.5628 36.6693 62 37.2087 62H46.8455C51.6282 62 55.5191 58.109 55.5191 53.3264C55.5191 49.006 52.344 45.4132 48.2046 44.7591ZM21.1997 44.7521C19.6747 44.7521 18.434 43.5114 18.434 41.9864V28.3131C18.434 20.395 24.8759 13.9531 32.794 13.9531C40.7122 13.9531 47.154 20.395 47.154 28.3131V41.9864C47.154 43.5114 45.9133 44.7521 44.3883 44.7521H39.8939C42.411 43.6047 44.02 41.1135 44.02 38.3182V24.684C44.02 24.1446 43.5828 23.7074 43.0435 23.7074C42.5041 23.7074 42.0669 24.1446 42.0669 24.684V26.5312C40.76 26.2884 39.5605 25.5666 38.7391 24.4995L37.5411 22.9431C37.3563 22.7029 37.0703 22.5621 36.7672 22.5621C36.4641 22.5621 36.1781 22.7029 35.9933 22.9431L34.7954 24.4995C33.7727 25.8282 32.1636 26.6216 30.491 26.6216H23.5209V24.684C23.5209 24.1446 23.0837 23.7074 22.5443 23.7074C22.005 23.7074 21.5678 24.1446 21.5678 24.684V38.3182C21.5678 41.1136 23.1767 43.6048 25.6938 44.7522H21.1997V44.7521ZM33.3875 51.958H32.2006C31.0147 51.958 30.0004 51.21 29.6045 50.1609H30.7121C31.2515 50.1609 31.6887 49.7237 31.6887 49.1844V45.7287C31.6887 45.3303 31.4466 44.9718 31.0771 44.8229L26.7202 43.0678C24.7769 42.2849 23.5212 40.4206 23.5212 38.3182V28.5748H30.4913C32.7658 28.5748 34.9535 27.4967 36.3435 25.6908L36.7675 25.1398L37.1915 25.6908C38.381 27.2362 40.1547 28.2486 42.0671 28.5086V38.3183C42.0671 40.4206 40.8114 42.285 38.8681 43.0679L34.5112 44.823C34.1416 44.9719 33.8996 45.3304 33.8996 45.7288V49.1845C33.8996 49.7238 34.3368 50.161 34.8762 50.161H35.9838C35.5877 51.2101 34.5733 51.958 33.3875 51.958ZM39.1396 48.2079H35.8525V46.7054H41.2482C40.7153 47.1565 40.2374 47.6709 39.8261 48.2365C39.598 48.2175 39.3683 48.2079 39.1396 48.2079ZM46.8455 60.0469C43.1398 60.0469 40.125 57.032 40.125 53.3264C40.125 49.6206 43.1398 46.6059 46.8455 46.6059C50.5512 46.6059 53.566 49.6207 53.566 53.3264C53.566 57.032 50.5512 60.0469 46.8455 60.0469Z" fill="#021D45"/>
</g>
<defs>
<clipPath id="clip0_1_2">
<rect width="50" height="50" fill="white" transform="translate(11 12)"/>
</clipPath>
</defs>
</svg>
