<svg width="44" height="44" viewBox="0 0 44 44" fill="none" xmlns="http://www.w3.org/2000/svg">
<g clip-path="url(#clip0_1008_10955)">
<path d="M19.25 19.6429C23.8063 19.6429 27.5 15.9492 27.5 11.3929C27.5 6.83653 23.8063 3.14288 19.25 3.14288C14.6936 3.14288 11 6.83653 11 11.3929C11 15.9492 14.6936 19.6429 19.25 19.6429Z" fill="#FEC914"/>
<path d="M43.6225 4.67448C43.1191 4.17106 42.3029 4.17106 41.7995 4.67448L40.5625 5.91138V1.28906C40.5625 0.577156 39.9854 0 39.2735 0C38.5616 0 37.9844 0.577156 37.9844 1.28906V5.91138L36.7474 4.6744C36.244 4.17098 35.4279 4.17098 34.9244 4.6744C34.421 5.17782 34.421 5.99397 34.9244 6.49739L38.3619 9.93489C38.8654 10.4383 39.6815 10.4383 40.1849 9.93489L43.6224 6.49739C44.1259 5.99405 44.1259 5.17782 43.6225 4.67448Z" fill="#FEC914"/>
<path d="M18.9058 23.375C18.1939 23.375 17.6167 23.9522 17.6167 24.6641V37.5547C17.6167 38.2666 18.1939 38.8438 18.9058 38.8438C19.6177 38.8438 20.1948 38.2666 20.1948 37.5547V24.6641C20.1948 23.9522 19.6177 23.375 18.9058 23.375Z" fill="#166780"/>
<path d="M27.4207 21.6562C24.8538 21.6562 22.7729 23.7371 22.7729 26.304V33.6418C22.7729 36.0401 24.7172 37.9844 27.1155 37.9844C29.3741 37.9844 31.2555 36.2532 31.4431 34.0025L32.0525 26.69C32.2782 23.9803 30.1399 21.6562 27.4207 21.6562ZM29.4832 26.476L28.8738 33.7884C28.7976 34.7029 28.0331 35.4062 27.1155 35.4062C26.141 35.4062 25.351 34.6163 25.351 33.6418V26.304C25.351 25.161 26.2777 24.2344 27.4206 24.2344C28.6316 24.2344 29.5838 25.2692 29.4832 26.476Z" fill="#166780"/>
<path d="M10.3908 21.6562C7.67167 21.6562 5.53329 23.9803 5.75904 26.69L6.36843 34.0025C6.55603 36.2532 8.43754 37.9844 10.696 37.9844C13.0943 37.9844 15.0386 36.0401 15.0386 33.6418V26.304C15.0386 23.7371 12.9577 21.6562 10.3908 21.6562ZM12.4605 33.6418C12.4605 34.6162 11.6705 35.4062 10.696 35.4062C9.77834 35.4062 9.01384 34.7029 8.93761 33.7883L8.32823 26.4759C8.22768 25.2692 9.17987 24.2343 10.3907 24.2343C11.5338 24.2343 12.4605 25.161 12.4605 26.3039V33.6418Z" fill="#166780"/>
<path d="M17.9943 12.6849C18.4977 13.1883 19.3138 13.1883 19.8173 12.6849C20.3207 12.1814 20.3207 11.3653 19.8173 10.8619L17.9943 9.03888C17.4908 8.53546 16.6747 8.53546 16.1713 9.03888C15.6678 9.5423 15.6678 10.3585 16.1713 10.8619L17.9943 12.6849Z" fill="#166780"/>
<path d="M32.2258 10.4844H27.8368C27.2093 6.11729 23.4437 2.75 18.9058 2.75C14.3679 2.75 10.6023 6.11729 9.97482 10.4844H5.58582C4.02821 10.4844 2.52989 11.1417 1.47518 12.2879C0.42055 13.4342 -0.1102 14.9819 0.0191364 16.5342L1.88114 38.878C1.99785 40.2781 2.63155 41.5732 3.66555 42.5246C4.69946 43.476 6.04267 44 7.44775 44H30.3638C31.7689 44 33.1121 43.476 34.1461 42.5246C35.18 41.5733 35.8137 40.2781 35.9305 38.878L37.7924 16.5342C37.9219 14.982 37.3911 13.4343 36.3365 12.288C35.2817 11.1418 33.7835 10.4844 32.2258 10.4844ZM18.9058 5.32812C22.4597 5.32812 25.3511 8.21949 25.3511 11.7734C25.3511 15.3274 22.4597 18.2188 18.9058 18.2188C15.3518 18.2188 12.4605 15.3274 12.4605 11.7734C12.4605 8.21949 15.3518 5.32812 18.9058 5.32812ZM35.2232 16.32L33.3613 38.6638C33.2323 40.2103 31.9158 41.4219 30.3638 41.4219H7.44775C5.8958 41.4219 4.57924 40.2103 4.45033 38.6638L2.58832 16.3201C2.51768 15.4719 2.79612 14.66 3.37233 14.0337C3.94863 13.4075 4.73479 13.0625 5.58582 13.0625H9.97482C10.6023 17.4296 14.3679 20.7969 18.9058 20.7969C23.4437 20.7969 27.2093 17.4296 27.8368 13.0625H32.2258C33.0768 13.0625 33.863 13.4075 34.4392 14.0338C35.0155 14.66 35.2938 15.4719 35.2232 16.32Z" fill="#166780"/>
</g>
<defs>
<clipPath id="clip0_1008_10955">
<rect width="44" height="44" fill="white"/>
</clipPath>
</defs>
</svg>
