<svg width="48" height="48" viewBox="0 0 48 48" fill="none" xmlns="http://www.w3.org/2000/svg">
<g clip-path="url(#clip0_1008_10590)">
<path d="M21 21.4285C25.9706 21.4285 30 17.3991 30 12.4285C30 7.45798 25.9706 3.42854 21 3.42854C16.0294 3.42854 12 7.45798 12 12.4285C12 17.3991 16.0294 21.4285 21 21.4285Z" fill="#FEC914"/>
<path d="M47.5882 5.09941C47.039 4.55022 46.1487 4.55022 45.5995 5.09941L44.25 6.44875V1.40622C44.25 0.629594 43.6204 -3.05176e-05 42.8438 -3.05176e-05C42.0672 -3.05176e-05 41.4375 0.629594 41.4375 1.40622V6.44875L40.0881 5.09931C39.5389 4.55013 38.6486 4.55013 38.0994 5.09931C37.5502 5.6485 37.5502 6.53884 38.0994 7.08803L41.8494 10.838C42.3986 11.3872 43.2889 11.3872 43.8381 10.838L47.5881 7.08803C48.1373 6.53894 48.1373 5.6485 47.5882 5.09941Z" fill="#FEC914"/>
<path d="M20.6245 25.5C19.8479 25.5 19.2183 26.1296 19.2183 26.9062V40.9687C19.2183 41.7453 19.8479 42.375 20.6245 42.375C21.4011 42.375 22.0308 41.7453 22.0308 40.9687V26.9062C22.0308 26.1296 21.4011 25.5 20.6245 25.5Z" fill="#166780"/>
<path d="M29.9135 23.625C27.1132 23.625 24.8433 25.895 24.8433 28.6953V36.7001C24.8433 39.3165 26.9643 41.4375 29.5806 41.4375C32.0445 41.4375 34.0969 39.5489 34.3016 37.0936L34.9664 29.1164C35.2127 26.1603 32.8799 23.625 29.9135 23.625ZM32.1635 28.8828L31.4988 36.86C31.4156 37.8576 30.5816 38.625 29.5805 38.625C28.5175 38.625 27.6557 37.7632 27.6557 36.7001V28.6953C27.6557 27.4483 28.6666 26.4375 29.9134 26.4375C31.2345 26.4375 32.2732 27.5664 32.1635 28.8828Z" fill="#166780"/>
<path d="M11.3353 23.625C8.369 23.625 6.03622 26.1603 6.2825 29.1164L6.94729 37.0936C7.15194 39.5489 9.2045 41.4375 11.6683 41.4375C14.2846 41.4375 16.4056 39.3165 16.4056 36.7001V28.6953C16.4056 25.895 14.1356 23.625 11.3353 23.625ZM13.5931 36.7001C13.5931 37.7631 12.7314 38.625 11.6683 38.625C10.6672 38.625 9.83319 37.8576 9.75004 36.8599L9.08525 28.8828C8.97557 27.5664 10.0143 26.4374 11.3353 26.4374C12.5822 26.4374 13.5931 27.4483 13.5931 28.6952V36.7001Z" fill="#166780"/>
<path d="M19.6301 13.838C20.1793 14.3872 21.0696 14.3872 21.6188 13.838C22.168 13.2888 22.168 12.3985 21.6188 11.8493L19.6301 9.86059C19.0809 9.31141 18.1906 9.31141 17.6414 9.86059C17.0922 10.4098 17.0922 11.3001 17.6414 11.8493L19.6301 13.838Z" fill="#166780"/>
<path d="M35.1554 11.4375H30.3674C29.6829 6.67338 25.575 2.99997 20.6245 2.99997C15.674 2.99997 11.5661 6.67338 10.8816 11.4375H6.09363C4.39441 11.4375 2.75988 12.1546 1.60928 13.405C0.458782 14.6554 -0.120218 16.3439 0.0208761 18.0373L2.05216 42.4123C2.17947 43.9398 2.87078 45.3526 3.99878 46.3905C5.12669 47.4284 6.592 48 8.12481 48H33.1242C34.657 48 36.1223 47.4284 37.2503 46.3905C38.3782 45.3527 39.0695 43.9398 39.1969 42.4123L41.2281 18.0373C41.3693 16.344 40.7903 14.6555 39.6398 13.4051C38.4891 12.1547 36.8547 11.4375 35.1554 11.4375ZM20.6245 5.81247C24.5015 5.81247 27.6558 8.96669 27.6558 12.8437C27.6558 16.7208 24.5015 19.875 20.6245 19.875C16.7475 19.875 13.5933 16.7208 13.5933 12.8437C13.5933 8.96669 16.7475 5.81247 20.6245 5.81247ZM38.4253 17.8037L36.3941 42.1787C36.2535 43.8658 34.8172 45.1875 33.1242 45.1875H8.12481C6.43178 45.1875 4.99553 43.8658 4.85491 42.1787L2.82363 17.8038C2.74656 16.8784 3.05031 15.9927 3.67891 15.3094C4.30759 14.6263 5.16522 14.25 6.09363 14.25H10.8816C11.5661 19.0141 15.674 22.6875 20.6245 22.6875C25.575 22.6875 29.6829 19.0141 30.3674 14.25H35.1554C36.0838 14.25 36.9414 14.6263 37.57 15.3095C38.1987 15.9927 38.5023 16.8784 38.4253 17.8037Z" fill="#166780"/>
</g>
<defs>
<clipPath id="clip0_1008_10590">
<rect width="48" height="48" fill="white"/>
</clipPath>
</defs>
</svg>
