<svg width="25" height="25" viewBox="0 0 25 25" fill="none" xmlns="http://www.w3.org/2000/svg">
<path d="M23.2515 10.2854C23.3009 8.85408 22.9879 7.43344 22.3415 6.15542C21.9029 5.63102 21.2942 5.27713 20.6215 5.15542C17.839 4.90295 15.045 4.79947 12.2515 4.84542C9.46814 4.79738 6.6842 4.89752 3.91149 5.14542C3.36331 5.24514 2.85601 5.50227 2.45149 5.88542C1.55149 6.71542 1.45149 8.13542 1.35149 9.33542C1.2064 11.493 1.2064 13.6579 1.35149 15.8154C1.38042 16.4908 1.48099 17.1613 1.65149 17.8154C1.77207 18.3205 2.01601 18.7878 2.36149 19.1754C2.76876 19.5789 3.28788 19.8506 3.85149 19.9554C6.00741 20.2215 8.17971 20.3318 10.3515 20.2854C13.8515 20.3354 16.9215 20.2854 20.5515 20.0054C21.1289 19.9071 21.6627 19.635 22.0815 19.2254C22.3615 18.9453 22.5706 18.6025 22.6915 18.2254C23.0491 17.128 23.2248 15.9795 23.2115 14.8254C23.2515 14.2654 23.2515 10.8854 23.2515 10.2854ZM9.99149 15.4254V9.23542L15.9115 12.3454C14.2515 13.2654 12.0615 14.3054 9.99149 15.4254Z" fill="white"/>
</svg>
