<svg width="22" height="22" viewBox="0 0 22 22" fill="none" xmlns="http://www.w3.org/2000/svg">
<path fill-rule="evenodd" clip-rule="evenodd" d="M4.15378 9.6823V9.02345C4.15378 9.02345 4.15193 7.70954 4.65551 6.49495C4.65551 6.49495 5.15909 5.28035 6.09076 4.35255C6.09076 4.35255 7.02243 3.42475 8.2391 2.92622C8.2391 2.92622 9.45578 2.4277 10.7706 2.43502C10.7706 2.43502 12.1075 2.44514 13.325 2.97924C13.325 2.97924 14.4963 3.4931 15.398 4.41932C15.398 4.41932 16.2962 5.34193 16.7887 6.53159C16.7887 6.53159 17.2977 7.76088 17.2977 9.09757V9.6823C17.2977 9.6823 17.2977 13.0998 18.3703 14.9524C18.3703 14.9524 18.5469 15.2583 18.5472 15.6107C18.5472 15.6107 18.5475 15.9632 18.3718 16.2687C18.3718 16.2687 18.1962 16.5743 17.8914 16.7513C17.8914 16.7513 17.5866 16.9283 17.2342 16.9296L4.21967 16.9296C4.21967 16.9296 3.86489 16.9283 3.56013 16.7513C3.56013 16.7513 3.25536 16.5743 3.07967 16.2687C3.07967 16.2687 2.90399 15.9632 2.9043 15.6107C2.9043 15.6107 2.90461 15.2583 3.08084 14.9531C3.08084 14.9531 4.15378 13.0998 4.15378 9.6823ZM5.47147 9.6823C5.47147 9.6823 5.47147 13.4537 4.22199 15.6119L17.2295 15.6119C17.2295 15.6119 15.98 13.4531 15.98 9.6823V9.09757C15.98 9.09757 15.98 6.90622 14.4538 5.33849C14.4538 5.33849 12.9259 3.76907 10.7633 3.75269C10.7633 3.75269 9.71174 3.74683 8.7387 4.14553C8.7387 4.14553 7.76567 4.54422 7.02057 5.28623C7.02057 5.28623 6.27547 6.02824 5.87273 6.99961C5.87273 6.99961 5.46999 7.97098 5.47147 9.02345V9.6823Z" fill="#1C1C1C"/>
<path d="M14.0206 16.9296V16.2708C14.0206 15.9069 13.7256 15.6119 13.3617 15.6119C12.9979 15.6119 12.7029 15.9069 12.7029 16.2708V16.9296C12.7029 17.7483 12.124 18.3272 12.124 18.3272C11.5451 18.9062 10.7264 18.9062 10.7264 18.9062C9.90765 18.9062 9.32873 18.3272 9.32873 18.3272C8.74982 17.7483 8.74982 16.9296 8.74982 16.9296V16.2708C8.74982 15.9069 8.45484 15.6119 8.09097 15.6119C7.7271 15.6119 7.43213 15.9069 7.43213 16.2708L7.43213 16.9296C7.43213 18.2941 8.39698 19.259 8.39698 19.259C9.36184 20.2239 10.7264 20.2239 10.7264 20.2239C12.0909 20.2239 13.0557 19.259 13.0557 19.259C14.0206 18.2941 14.0206 16.9296 14.0206 16.9296Z" fill="#1C1C1C"/>
</svg>
