<svg width="16" height="17" viewBox="0 0 16 17" fill="none" xmlns="http://www.w3.org/2000/svg">
<path fill-rule="evenodd" clip-rule="evenodd" d="M10.5 2.5V2C10.5 1.72386 10.7239 1.5 11 1.5C11.2761 1.5 11.5 1.72386 11.5 2V2.5H13C13 2.5 13.4142 2.5 13.7071 2.79289C13.7071 2.79289 14 3.08579 14 3.5V13.5C14 13.5 14 13.9142 13.7071 14.2071C13.7071 14.2071 13.4142 14.5 13 14.5H3C3 14.5 2.58579 14.5 2.29289 14.2071C2.29289 14.2071 2 13.9142 2 13.5V3.5C2 3.5 2 3.08579 2.29289 2.79289C2.29289 2.79289 2.58579 2.5 3 2.5H4.5V2C4.5 1.72386 4.72386 1.5 5 1.5C5.27614 1.5 5.5 1.72386 5.5 2V2.5H10.5ZM3 6.5V13.5H13V6.5H3ZM13 5.5H3V3.5H4.5V4C4.5 4.27614 4.72386 4.5 5 4.5C5.27614 4.5 5.5 4.27614 5.5 4V3.5H10.5V4C10.5 4.27614 10.7239 4.5 11 4.5C11.2761 4.5 11.5 4.27614 11.5 4V3.5H13V5.5Z" fill="black" fill-opacity="0.4"/>
</svg>
