<svg width="24" height="24" viewBox="0 0 24 24" fill="none" xmlns="http://www.w3.org/2000/svg">
<path d="M9.37494 10.9219C9.4893 10.8548 9.5841 10.7589 9.64989 10.6437C9.71568 10.5286 9.75017 10.3982 9.74994 10.2656V3.51564C9.75099 3.39483 9.72284 3.27555 9.66787 3.16795C9.61291 3.06036 9.53277 2.96763 9.43427 2.89767C9.33577 2.82771 9.22183 2.78257 9.10213 2.76612C8.98244 2.74966 8.86054 2.76236 8.74681 2.80314C6.84802 3.47954 5.20467 4.72621 4.04167 6.37253C2.87868 8.01885 2.25288 9.98435 2.24994 12C2.25095 12.5973 2.30428 13.1933 2.40931 13.7813C2.43185 13.8987 2.48181 14.0092 2.55512 14.1037C2.62843 14.1982 2.72302 14.274 2.83119 14.325C2.93101 14.3721 3.03961 14.3976 3.14994 14.4C3.28183 14.3992 3.41118 14.3636 3.52494 14.2969L9.37494 10.9219ZM8.24994 4.65002V9.83439L3.75931 12.4313C3.74994 12.2813 3.74994 12.1406 3.74994 12C3.75282 10.4798 4.17426 8.98975 4.96804 7.69324C5.76182 6.39673 6.89729 5.34383 8.24994 4.65002Z" fill="#0A0A0A"/>
<path d="M20.4656 7.1625C20.4559 7.15204 20.4494 7.13903 20.4468 7.125L20.4093 7.07812C19.5513 5.60906 18.3235 4.39034 16.8481 3.54326C15.3727 2.69619 13.7012 2.25031 11.9999 2.25C11.801 2.25 11.6103 2.32902 11.4696 2.46967C11.329 2.61032 11.2499 2.80109 11.2499 3V11.5688L3.83431 15.8531C3.74787 15.9009 3.67187 15.9655 3.61075 16.043C3.54964 16.1206 3.50466 16.2096 3.47845 16.3048C3.45225 16.4 3.44535 16.4995 3.45816 16.5974C3.47097 16.6954 3.50324 16.7897 3.55306 16.875V16.8937L3.58118 16.9406C4.66263 18.7919 6.32413 20.2351 8.30851 21.0468C10.2929 21.8585 12.4895 21.9936 14.5584 21.431C16.6272 20.8684 18.453 19.6396 19.753 17.9347C21.0531 16.2298 21.7549 14.144 21.7499 12C21.7522 10.3029 21.3094 8.63494 20.4656 7.1625Z" fill="#0A0A0A"/>
</svg>
