<svg width="24" height="24" viewBox="0 0 24 24" fill="none" xmlns="http://www.w3.org/2000/svg">
<path d="M15.3655 7.50928C15.6227 8.2282 15.7528 8.98639 15.7499 9.74989C15.7499 11.5401 15.0388 13.257 13.7729 14.5229C12.507 15.7887 10.7901 16.4999 8.99992 16.4999H8.63431C9.09967 17.8162 9.96178 18.9558 11.1018 19.7617C12.2419 20.5676 13.6038 21.0002 14.9999 20.9999H21.1874C21.3366 20.9999 21.4797 20.9406 21.5852 20.8351C21.6907 20.7297 21.7499 20.5866 21.7499 20.4374V14.2499C21.7523 12.5222 21.0913 10.8596 19.9032 9.60522C18.7152 8.35088 17.0908 7.60058 15.3655 7.50928Z" fill="white"/>
<path fill-rule="evenodd" clip-rule="evenodd" d="M11.8701 2.8209C11.8701 2.8209 10.4918 2.25 8.99994 2.25H8.99939C8.99939 2.25 7.50785 2.2501 6.12981 2.8209C6.12981 2.8209 4.75153 3.39181 3.69664 4.4467C3.69664 4.4467 2.64175 5.50159 2.07084 6.87987C2.07084 6.87987 1.49994 8.25816 1.49994 9.75V15.9375C1.49994 15.9375 1.49994 16.4812 1.88436 16.8656C1.88436 16.8656 2.26879 17.25 2.81244 17.25H8.99994C8.99994 17.25 10.4918 17.25 11.8701 16.6791C11.8701 16.6791 13.2483 16.1082 14.3032 15.0533C14.3032 15.0533 15.3581 13.9984 15.929 12.6201C15.929 12.6201 16.4999 11.2418 16.4999 9.75C16.4999 9.75 16.4999 8.25816 15.929 6.87987C15.929 6.87987 15.3581 5.50159 14.3032 4.4467C14.3032 4.4467 13.2483 3.39181 11.8701 2.8209ZM14.9999 9.75C14.9999 9.75 14.9999 8.55653 14.5432 7.4539C14.5432 7.4539 14.0865 6.35127 13.2426 5.50736C13.2426 5.50736 12.3987 4.66345 11.296 4.20672C11.296 4.20672 10.1936 3.75009 9.00043 3.75L8.99994 3.75C8.99994 3.75 7.80647 3.75 6.70384 4.20672C6.70384 4.20672 5.60121 4.66345 4.7573 5.50736C4.7573 5.50736 3.91338 6.35127 3.45666 7.4539C3.45666 7.4539 2.99994 8.55653 2.99994 9.75L2.99994 15.75H8.99994C8.99994 15.75 10.1934 15.75 11.296 15.2933C11.296 15.2933 12.3987 14.8366 13.2426 13.9926C13.2426 13.9926 14.0865 13.1487 14.5432 12.0461C14.5432 12.0461 14.9999 10.9435 14.9999 9.75Z" fill="white"/>
<path d="M15.4052 6.76033C15.392 6.75963 15.3788 6.75928 15.3656 6.75928C15.333 6.75928 15.3005 6.76139 15.2683 6.76562C14.9097 6.81253 14.6357 7.10857 14.6166 7.46964C14.6159 7.48284 14.6156 7.49606 14.6156 7.50928C14.6156 7.52019 14.6158 7.5311 14.6163 7.542C14.6239 7.71578 14.6916 7.88151 14.8079 8.01084C14.941 8.15873 15.1273 8.24772 15.3259 8.25823C17.7141 8.38462 19.3587 10.121 19.3587 10.121C21.0033 11.8573 20.9999 14.2489 20.9999 14.2489V20.2499H14.9999C13.0923 20.2504 11.5348 19.1493 11.5348 19.1493C9.97746 18.0484 9.34161 16.2504 9.34161 16.2504L9.34141 16.2499C9.23547 15.9502 8.95215 15.7499 8.63431 15.7499L8.62511 15.75C8.54304 15.751 8.46169 15.7654 8.38431 15.7928C8.19677 15.8591 8.04326 15.9972 7.95753 16.1767C7.90933 16.2776 7.88431 16.388 7.88431 16.4999L7.88448 16.5162C7.88621 16.5959 7.90063 16.6748 7.9272 16.7499C8.72196 18.9978 10.6689 20.3742 10.6689 20.3742C12.6158 21.7505 14.9999 21.7499 14.9999 21.7499H21.1874C21.7311 21.7499 22.1155 21.3655 22.1155 21.3655C22.4999 20.9811 22.4999 20.4374 22.4999 20.4374V14.251C22.5019 12.811 21.9699 11.473 21.9699 11.473C21.4379 10.1349 20.4477 9.08947 20.4477 9.08947C19.4576 8.04403 18.1503 7.44023 18.1503 7.44023C16.8434 6.83654 15.4057 6.76035 15.4057 6.76035L15.4052 6.76033Z" fill="white"/>
</svg>
