<svg width="8" height="8" viewBox="0 0 8 8" fill="none" xmlns="http://www.w3.org/2000/svg">
<path d="M1.17155 0.464318C0.976284 0.269056 0.659702 0.269056 0.46444 0.464318C0.269178 0.65958 0.269178 0.976162 0.46444 1.17142L3.29289 3.99987L0.464477 6.82828C0.269215 7.02354 0.269215 7.34012 0.464477 7.53539C0.659739 7.73065 0.976322 7.73065 1.17158 7.53539L3.99999 4.70698L6.8284 7.53539C7.02366 7.73065 7.34024 7.73065 7.53551 7.53539C7.73077 7.34012 7.73077 7.02354 7.53551 6.82828L4.7071 3.99987L7.53555 1.17143C7.73081 0.976163 7.73081 0.659581 7.53555 0.464318C7.34028 0.269056 7.0237 0.269056 6.82844 0.464318L3.99999 3.29276L1.17155 0.464318Z" fill="#9E9E9E"/>
</svg>
