<svg width="213" height="58" viewBox="0 0 213 58" fill="none" xmlns="http://www.w3.org/2000/svg">
<path d="M60.7734 3.92599L60.301 3.45358C55.6963 -1.15119 48.2236 -1.15119 43.6189 3.45358L37.678 9.39446C37.678 9.39446 37.6303 9.44218 37.5634 9.51376L37.2724 9.80484C37.1149 9.96231 36.9383 10.1293 36.8143 10.2438C34.9342 11.9378 32.1522 14.1376 29.1651 14.6053C31.4365 17.9407 33.6506 21.0901 34.896 24.5735C35.8742 27.2982 34.0371 30.0945 30.7875 31.0298C27.5761 31.9555 23.8589 30.2424 23.0524 27.3507C22.8043 26.4632 22.7948 25.442 23.0954 24.5735C24.2979 21.0997 26.5072 17.9646 28.769 14.653C28.4636 14.6864 28.1582 14.7055 27.8529 14.6959C26.3784 14.653 24.9993 14.1281 23.73 13.1165C23.3531 12.8158 22.6134 12.0953 22.6134 12.0953L21.3203 10.8021L20.6665 10.1484C15.9616 5.44342 8.29806 5.44342 3.59307 10.1484C-1.11192 14.8534 -1.11192 22.5169 3.59307 27.2219L7.902 31.5308C8.53665 32.1655 9.19038 32.8192 9.84889 33.4777L13.1414 36.7702L15.6514 39.2611C16.3719 39.9816 17.0543 40.6592 17.6746 41.2748C19.6979 43.2885 21.0769 44.6532 21.1055 44.6866C21.1771 44.7582 28.5639 51.997 35.4782 45.8939L53.4631 27.9281L60.7782 20.6129C65.3782 16.0034 65.3782 8.53554 60.7734 3.92599Z" fill="white"/>
<path d="M76.0378 41.5085H70.7698V14.6052H90.2673V19.501H76.0331V25.4228H87.8814V30.1946H76.0331V41.5085H76.0378ZM96.1366 19.9782C95.335 19.9782 94.6574 19.7014 94.0991 19.1431C93.5408 18.5848 93.264 17.9072 93.264 17.1056C93.264 16.2801 93.5408 15.5929 94.0991 15.0346C94.6574 14.4763 95.335 14.1996 96.1366 14.1996C96.9621 14.1996 97.6445 14.4763 98.1885 15.0346C98.7325 15.5929 99.0045 16.2848 99.0045 17.1056C99.0045 17.9072 98.7325 18.5848 98.1885 19.1431C97.6493 19.6967 96.9621 19.9782 96.1366 19.9782ZM98.6084 41.5085H93.7125V21.1855H98.6084V41.5085ZM148.698 32.5757H132.035V32.6568C132.364 34.0263 133.037 35.1095 134.048 35.9064C135.065 36.7033 136.325 37.0994 137.833 37.0994C140.028 37.0994 141.631 36.4552 142.647 35.1668H147.872C147.104 37.1137 145.835 38.6645 144.069 39.8145C142.304 40.9645 140.223 41.5419 137.837 41.5419C134.631 41.5419 132.001 40.5351 129.959 38.5166C127.917 36.5029 126.896 33.9452 126.896 30.8436C126.896 27.7467 127.917 25.189 129.959 23.1705C132.001 21.1568 134.626 20.1452 137.837 20.1452C141.02 20.1452 143.625 21.1521 145.653 23.1705C147.681 25.1842 148.698 27.7419 148.698 30.8436V32.5757ZM137.837 24.5925C136.411 24.5925 135.203 24.9409 134.216 25.6423C133.228 26.3438 132.541 27.322 132.159 28.5817V28.6629H143.511V28.5817C143.124 27.3458 142.433 26.3724 141.435 25.6614C140.433 24.9504 139.235 24.5925 137.837 24.5925ZM188.518 41.6374H183.623V14.6052H188.518V41.6374ZM207.171 40.9311V38.5452H207.09C205.802 40.7116 203.812 41.7948 201.126 41.7948C198.549 41.7948 196.382 40.9311 194.626 39.2037C192.87 37.4764 191.992 34.9139 191.992 31.5116V21.1855H196.888V31.5116C196.888 33.406 197.346 34.828 198.267 35.7919C199.183 36.751 200.438 37.233 202.032 37.233C203.597 37.233 204.843 36.7415 205.778 35.7537C206.709 34.766 207.176 33.3535 207.176 31.5164V21.1855H212.072V40.8071C212.072 44.1521 211.142 46.643 209.276 48.2749C207.41 49.9069 204.972 50.7228 201.951 50.7228C199.484 50.7228 197.37 50.1407 195.614 48.9764C193.858 47.812 192.708 46.0608 192.159 43.7322H197.055C197.852 45.5693 199.484 46.4903 201.951 46.4903C205.43 46.4855 207.171 44.634 207.171 40.9311ZM112.151 36.6031C111.654 36.8656 111.039 36.9992 110.304 36.9992C108.028 36.9992 106.887 35.7394 106.887 33.2151V25.1508H112.284V20.7083H106.887V14.5765H101.992V33.2104C101.992 35.9541 102.741 38.0299 104.234 39.4423C105.728 40.8548 107.751 41.561 110.304 41.561C110.953 41.561 111.569 41.5133 112.151 41.4226V36.6031ZM124.896 36.6031C124.4 36.8656 123.784 36.9992 123.05 36.9992C120.773 36.9992 119.633 35.7394 119.633 33.2151V25.1508H125.03V20.7083H119.633V14.5765H114.737V33.2104C114.737 35.9541 115.486 38.0299 116.98 39.4423C118.473 40.8548 120.497 41.561 123.05 41.561C123.698 41.561 124.314 41.5133 124.896 41.4226V36.6031ZM171.183 23.1276C171.101 20.9039 171.526 18.6803 175.248 18.623C176.298 18.623 179.137 18.5562 180.168 18.8998V14.4954C179.271 14.2711 177.166 14.1614 175.219 14.1614C172.476 14.1614 170.305 14.9201 168.701 16.4423C167.098 17.9645 166.296 20.1929 166.296 23.1276V41.5371H171.192V30.8626H179.18V26.4201H171.192V23.1276H171.183ZM163.013 20.8562C162.36 20.7464 161.672 20.6844 160.938 20.6844C158.194 20.6844 156.023 21.4479 154.419 22.9653C152.816 24.4875 152.014 26.7446 152.014 29.7317V41.5371H156.91V29.7365C156.91 26.7494 158.256 25.251 160.942 25.251C161.768 25.251 162.45 25.4133 163.018 25.6996V20.8562H163.013Z" fill="white"/>
<path d="M70.9035 47.2347H74.5396C76.0379 47.2347 77.312 47.7501 78.3427 48.7665C79.3877 49.7829 79.903 51.0235 79.903 52.4933C79.903 53.9964 79.3877 55.2657 78.357 56.2964C77.3263 57.3271 76.0522 57.8424 74.5348 57.8424H70.8987V47.2347H70.9035ZM72.8933 55.9671H74.53C75.575 55.9671 76.3958 55.6331 76.9875 54.9841C77.5935 54.3161 77.8989 53.481 77.8989 52.498C77.8989 51.5437 77.5935 50.7563 76.9875 50.1026C76.3958 49.4489 75.575 49.1148 74.53 49.1148H72.8933V55.9671Z" fill="white"/>
<path d="M81.7014 47.1299H83.6579V48.9957H81.7014V47.1299ZM81.7014 49.9643H83.6579V57.8473H81.7014V49.9643Z" fill="white"/>
<path d="M89.1599 57.9999C88.1769 57.9999 87.2655 57.6372 86.4638 56.9263C85.6622 56.1962 85.2661 55.1989 85.2661 53.9105C85.2661 52.6221 85.6622 51.62 86.4638 50.909C87.2655 50.1789 88.1769 49.8163 89.1599 49.8163C90.3719 49.8163 91.269 50.47 91.584 51.0904H91.6889V49.969H93.6311V57.852H91.6889V56.7306H91.584C91.2643 57.3462 90.3719 57.9999 89.1599 57.9999ZM87.8238 55.6474C88.2771 56.0578 88.8068 56.2677 89.4319 56.2677C90.057 56.2677 90.5819 56.053 91.04 55.6474C91.5076 55.237 91.7367 54.6453 91.7367 53.9057C91.7367 53.1661 91.5076 52.5696 91.04 52.164C90.5867 51.7536 90.057 51.5437 89.4319 51.5437C88.8068 51.5437 88.2819 51.7536 87.8238 52.164C87.3848 52.5744 87.1557 53.1661 87.1557 53.9057C87.1557 54.6453 87.3848 55.237 87.8238 55.6474Z" fill="white"/>
<path d="M100.12 49.8118C101.103 49.8118 102 50.1744 102.802 50.9045C103.603 51.6155 104.014 52.6176 104.014 53.906C104.014 55.1943 103.603 56.1964 102.802 56.9217C102 57.6327 101.103 57.9954 100.12 57.9954C98.9079 57.9954 98.0108 57.3416 97.6958 56.7213H97.5908V57.8427H95.6487V51.2958H95.6344V47.1252H97.5908V51.0811H97.6958C98.0155 50.4655 98.9079 49.8118 100.12 49.8118ZM98.2255 55.6477C98.6979 56.058 99.2276 56.268 99.8479 56.268C100.468 56.268 100.998 56.0533 101.442 55.6477C101.895 55.2373 102.124 54.6456 102.124 53.906C102.124 53.1663 101.895 52.5699 101.442 52.1643C101.003 51.7539 100.473 51.5439 99.8479 51.5439C99.2228 51.5439 98.6979 51.7539 98.2255 52.1643C97.7722 52.5746 97.5431 53.1663 97.5431 53.906C97.5431 54.6456 97.7722 55.2373 98.2255 55.6477Z" fill="white"/>
<path d="M109.277 49.8116C110.232 49.8116 111.2 50.1886 112.007 50.9187C112.842 51.6488 113.281 52.9801 113.081 54.6168H107.183C107.426 55.7239 108.318 56.3442 109.473 56.3442C110.399 56.3442 110.852 56.1629 111.52 55.7382L112.599 56.7832C111.84 57.5849 110.781 57.9953 109.416 57.9953C108.323 57.9953 107.354 57.6326 106.505 56.9216C105.67 56.1915 105.245 55.1942 105.245 53.9202C105.245 51.1764 107.507 49.8116 109.277 49.8116ZM109.277 51.4818C108.352 51.4818 107.459 52.1021 107.202 53.1948H111.339C111.172 52.1021 110.251 51.4818 109.277 51.4818Z" fill="white"/>
<path d="M119.027 49.9643V51.5724H117.343V55.4709C117.343 55.9719 117.601 56.2153 118.102 56.2153C118.359 56.2153 118.679 56.1533 119.027 56.0483V57.6421C118.617 57.8377 118.135 57.9427 117.558 57.9427C116.179 57.9427 115.406 57.4273 115.406 55.8956V51.5771H114.298V49.969H115.406V47.9506H117.348V49.969H119.027V49.9643Z" fill="white"/>
<path d="M124.366 49.8116C125.321 49.8116 126.289 50.1886 127.096 50.9187C127.931 51.6488 128.37 52.9801 128.169 54.6168H122.271C122.515 55.7239 123.407 56.3442 124.562 56.3442C125.488 56.3442 125.941 56.1629 126.609 55.7382L127.687 56.7832C126.929 57.5849 125.869 57.9953 124.505 57.9953C123.412 57.9953 122.443 57.6326 121.594 56.9216C120.759 56.1915 120.334 55.1942 120.334 53.9202C120.334 51.1764 122.591 49.8116 124.366 49.8116ZM124.366 51.4818C123.441 51.4818 122.548 52.1021 122.291 53.1948H126.428C126.261 52.1021 125.335 51.4818 124.366 51.4818Z" fill="white"/>
<path d="M135.252 51.7683L133.629 52.2073C133.371 51.649 132.994 51.3723 132.493 51.3723C131.992 51.3723 131.596 51.6586 131.596 52.0833C131.596 52.4316 131.854 52.7036 132.355 52.904L133.281 53.2237C133.992 53.4814 134.354 53.6484 134.827 54.0111C135.314 54.3594 135.524 54.8748 135.524 55.5571C135.524 56.3302 135.237 56.9219 134.646 57.3609C134.054 57.7856 133.343 57.9955 132.479 57.9955C130.89 57.9955 129.735 57.1939 129.416 55.8148L130.962 55.3281C131.191 55.9818 131.735 56.4351 132.479 56.4351C133.133 56.4351 133.634 56.0725 133.634 55.5858C133.634 55.2374 133.362 54.9654 132.813 54.7507L131.902 54.431C130.446 53.9013 129.716 53.114 129.716 52.0642C129.716 51.3818 129.974 50.8378 130.504 50.4275C131.033 50.0171 131.673 49.8071 132.412 49.8071C133.81 49.8119 134.813 50.5563 135.252 51.7683Z" fill="white"/>
<path d="M149.017 55.3135L150.215 56.7069C149.232 57.5705 148.034 57.9952 146.608 57.9952C145.109 57.9952 143.816 57.4799 142.728 56.4492C141.65 55.4042 141.106 54.1015 141.106 52.5363C141.106 50.9712 141.65 49.6732 142.728 48.6425C143.821 47.5975 145.109 47.0822 146.608 47.0822C148.001 47.0822 149.184 47.5068 150.153 48.3419L148.955 49.7066C148.273 49.2056 147.529 48.9479 146.727 48.9479C145.725 48.9479 144.875 49.2963 144.198 49.9786C143.52 50.661 143.167 51.5104 143.167 52.5411C143.167 53.5718 143.515 54.4355 144.198 55.1179C144.88 55.8002 145.73 56.1342 146.727 56.1342C147.576 56.1342 148.335 55.8622 149.017 55.3135Z" fill="white"/>
<path d="M157.568 52.1782H162.04C162.493 55.8 160.112 57.9854 157.296 57.9998C155.779 57.9998 154.491 57.4844 153.417 56.4537C152.343 55.423 151.809 54.1203 151.809 52.5408C151.809 50.9805 152.353 49.6778 153.431 48.647C154.51 47.602 155.798 47.0867 157.296 47.0867C158.69 47.0867 159.873 47.5114 160.842 48.3464L159.644 49.7112C158.962 49.2101 158.217 48.9524 157.416 48.9524C156.414 48.9524 155.564 49.2865 154.887 49.9688C154.209 50.6512 153.87 51.5006 153.87 52.5456C153.87 53.5906 154.204 54.44 154.853 55.1224C155.507 55.8047 156.337 56.1388 157.325 56.1388C158.995 56.1388 159.964 55.3657 160.222 53.834H157.568V52.1782Z" fill="white"/>
<path d="M173.445 47.2345H175.63V57.847H173.645V51.0853H173.569L170.553 57.847H169.126L166.111 51.0853H166.034V57.847H164.049V47.2345H166.23L169.837 55.3131L173.445 47.2345Z" fill="white"/>
</svg>
