<svg width="8" height="10" viewBox="0 0 8 10" fill="none" xmlns="http://www.w3.org/2000/svg">
<path d="M3.27888 0.875V9.125C3.27888 9.33211 3.43644 9.5 3.6308 9.5C3.82517 9.5 3.98273 9.33211 3.98273 9.125V0.875C3.98273 0.667893 3.82517 0.5 3.6308 0.5C3.43644 0.5 3.27888 0.667893 3.27888 0.875Z" fill="#E83D62"/>
<path d="M3.87965 9.39017L7.04696 6.01516C7.11296 5.94484 7.15003 5.84946 7.15003 5.75C7.15003 5.65054 7.11296 5.55516 7.04696 5.48484C6.98096 5.41451 6.89145 5.375 6.79811 5.375C6.70478 5.375 6.61526 5.41451 6.54926 5.48484L3.6308 8.59467L0.712343 5.48484C0.646344 5.41451 0.556831 5.375 0.463495 5.375C0.37016 5.375 0.280647 5.41451 0.214648 5.48484C0.14865 5.55516 0.111572 5.65054 0.111572 5.75C0.111572 5.84946 0.14865 5.94484 0.214648 6.01516L3.38196 9.39017C3.51939 9.53661 3.74222 9.53661 3.87965 9.39017Z" fill="#E83D62"/>
</svg>
