<svg width="8" height="10" viewBox="0 0 8 10" fill="none" xmlns="http://www.w3.org/2000/svg">
<path d="M3.71885 0.875V9.125C3.71885 9.33211 3.88954 9.5 4.1001 9.5C4.31066 9.5 4.48135 9.33211 4.48135 9.125V0.875C4.48135 0.667893 4.31066 0.5 4.1001 0.5C3.88954 0.5 3.71885 0.667893 3.71885 0.875Z" fill="#1A9D25"/>
<path d="M4.36968 9.39017L7.80093 6.01516C7.87243 5.94484 7.9126 5.84946 7.9126 5.75C7.9126 5.65054 7.87243 5.55516 7.80093 5.48484C7.72943 5.41451 7.63246 5.375 7.53135 5.375C7.43023 5.375 7.33326 5.41451 7.26176 5.48484L4.1001 8.59467L0.938432 5.48484C0.866934 5.41451 0.769961 5.375 0.668848 5.375C0.567734 5.375 0.470761 5.41451 0.399263 5.48484C0.327765 5.55516 0.287598 5.65054 0.287598 5.75C0.287598 5.84946 0.327765 5.94484 0.399263 6.01516L3.83051 9.39017C3.9794 9.53661 4.2208 9.53661 4.36968 9.39017Z" fill="#1A9D25"/>
</svg>
