<svg width="24" height="24" viewBox="0 0 24 24" fill="none" xmlns="http://www.w3.org/2000/svg">
<path d="M7.49994 20.25H4.49994C4.30109 20.25 4.11029 20.171 3.96967 20.0304C3.82904 19.8896 3.74994 19.6989 3.74994 19.5V4.5C3.74994 4.30106 3.82904 4.11035 3.96967 3.96964C4.11029 3.82901 4.30109 3.75 4.49994 3.75H7.49994V20.25Z" fill="white"/>
<path d="M10.4999 11.25H16.4999C16.9142 11.25 17.2499 10.9142 17.2499 10.5C17.2499 10.0858 16.9142 9.75 16.4999 9.75H10.4999C10.0857 9.75 9.74994 10.0858 9.74994 10.5C9.74994 10.9142 10.0857 11.25 10.4999 11.25Z" fill="white"/>
<path d="M10.4999 14.25H16.4999C16.9142 14.25 17.2499 13.9142 17.2499 13.5C17.2499 13.0858 16.9142 12.75 16.4999 12.75H10.4999C10.0857 12.75 9.74994 13.0858 9.74994 13.5C9.74994 13.9142 10.0857 14.25 10.4999 14.25Z" fill="white"/>
<path fill-rule="evenodd" clip-rule="evenodd" d="M2.99994 4.5C2.99994 4.5 2.99994 3.87868 3.43928 3.43934C3.43928 3.43934 3.87862 3 4.49994 3H19.4999C19.4999 3 20.1213 3 20.5606 3.43934C20.5606 3.43934 20.9999 3.87868 20.9999 4.5V19.5C20.9999 19.5 20.9999 20.1213 20.5606 20.5607C20.5606 20.5607 20.1213 21 19.4999 21H4.49994C4.49994 21 3.87862 21 3.43928 20.5607C3.43928 20.5607 2.99994 20.1213 2.99994 19.5V4.5ZM4.49994 4.5V19.5H19.4999V4.5H4.49994Z" fill="white"/>
<path d="M6.74994 3.75V20.25C6.74994 20.6642 7.08573 21 7.49994 21C7.91415 21 8.24994 20.6642 8.24994 20.25V3.75C8.24994 3.33579 7.91415 3 7.49994 3C7.08573 3 6.74994 3.33579 6.74994 3.75Z" fill="white"/>
</svg>
