<svg width="10" height="11" viewBox="0 0 10 11" fill="none" xmlns="http://www.w3.org/2000/svg">
<path d="M9.06841 5.23293C9.13821 5.30464 9.17687 5.40101 9.17599 5.50108C9.17511 5.60115 9.13477 5.69682 9.06372 5.7673L5.21997 9.60637C4.72766 10.0987 4.05995 10.3752 3.36372 10.3752C2.66749 10.3752 1.99978 10.0987 1.50747 9.60637C1.01516 9.11406 0.738586 8.44634 0.738586 7.75012C0.738586 7.05389 1.01516 6.38617 1.50747 5.89387L6.16216 1.17824C6.33438 0.996653 6.5412 0.85138 6.77045 0.750985C6.9997 0.65059 7.24672 0.597105 7.49697 0.593681C7.74721 0.590258 7.9956 0.636966 8.22751 0.731053C8.45942 0.82514 8.67014 0.9647 8.84727 1.14151C9.02439 1.31832 9.16432 1.5288 9.25882 1.76054C9.35331 1.99228 9.40046 2.24059 9.39748 2.49084C9.3945 2.74109 9.34145 2.98821 9.24146 3.21763C9.14147 3.44705 8.99656 3.65414 8.81528 3.82668L4.16059 8.5423C4.05655 8.64795 3.93249 8.7318 3.79567 8.78894C3.65884 8.84609 3.512 8.87538 3.36372 8.87512C3.14081 8.87566 2.92277 8.80998 2.73726 8.6864C2.55174 8.56282 2.40712 8.38692 2.32174 8.18101C2.23637 7.9751 2.21409 7.74847 2.25772 7.52988C2.30136 7.31129 2.40895 7.11058 2.56685 6.95324L6.47153 2.98762C6.50532 2.94972 6.54645 2.91907 6.59244 2.89754C6.63842 2.87602 6.6883 2.86405 6.73905 2.86237C6.78979 2.86069 6.84035 2.86934 6.88766 2.88778C6.93496 2.90622 6.97803 2.93408 7.01425 2.96966C7.05047 3.00525 7.07909 3.04782 7.09836 3.09479C7.11764 3.14176 7.12718 3.19216 7.1264 3.24293C7.12562 3.2937 7.11454 3.34378 7.09382 3.39013C7.07311 3.43649 7.0432 3.47816 7.00591 3.51262L3.10122 7.48293C3.06568 7.51777 3.03742 7.55934 3.01811 7.60521C2.99879 7.65108 2.9888 7.70034 2.98872 7.75012C2.9901 7.82389 3.01294 7.89567 3.05446 7.95667C3.09597 8.01767 3.15436 8.06525 3.22249 8.09359C3.29062 8.12194 3.36553 8.12982 3.43806 8.11627C3.51059 8.10272 3.57761 8.06833 3.63091 8.0173L8.28091 3.29699C8.38655 3.19295 8.4704 3.06889 8.52755 2.93206C8.58469 2.79524 8.61399 2.64839 8.61372 2.50012C8.61427 2.27721 8.54858 2.05917 8.42501 1.87365C8.30143 1.68814 8.12552 1.54352 7.91961 1.45814C7.71371 1.37276 7.48708 1.35048 7.26848 1.39412C7.04989 1.43776 6.84919 1.54535 6.69184 1.70324L2.04185 6.42355C1.86026 6.59577 1.71498 6.8026 1.61459 7.03185C1.51419 7.26109 1.46071 7.50812 1.45729 7.75836C1.45386 8.0086 1.50057 8.257 1.59466 8.48891C1.68874 8.72082 1.82831 8.93154 2.00511 9.10866C2.18192 9.28578 2.3924 9.42572 2.62414 9.52021C2.85588 9.61471 3.10419 9.66186 3.35444 9.65888C3.60469 9.6559 3.85181 9.60285 4.08123 9.50286C4.31066 9.40287 4.51774 9.25796 4.69028 9.07668L8.53403 5.23293C8.60513 5.16251 8.70115 5.12301 8.80122 5.12301C8.90129 5.12301 8.99731 5.16251 9.06841 5.23293Z" fill="#424242"/>
</svg>
