<svg width="14" height="14" viewBox="0 0 14 14" fill="none" xmlns="http://www.w3.org/2000/svg">
<path d="M4.47217 9.85374C4.56594 9.75997 4.6188 9.63261 4.6188 9.5C4.6188 9.36739 4.56613 9.24021 4.47236 9.14645L4.46804 9.14218C4.37467 9.0512 4.24917 9 4.1188 9C3.9862 9 3.85902 9.05268 3.76525 9.14645L1.26544 11.6463C1.17167 11.74 1.1188 11.8674 1.1188 12C1.1188 12.1326 1.17148 12.2598 1.26525 12.3536C1.35902 12.4473 1.4862 12.5 1.6188 12.5C1.75141 12.5 1.87859 12.4473 1.97236 12.3536L4.47217 9.85374Z" fill="#1C1C1C"/>
<path fill-rule="evenodd" clip-rule="evenodd" d="M8.23258 0.284624C8.23258 0.284624 8.41789 0.207031 8.6188 0.207031C8.6188 0.207031 8.8197 0.207031 9.00502 0.284624C9.00502 0.284624 9.19033 0.362215 9.3286 0.502642L13.1134 4.28745C13.1134 4.28745 13.2565 4.42842 13.3341 4.61373C13.3341 4.61373 13.4117 4.79904 13.4117 4.99995C13.4117 4.99995 13.4117 5.20085 13.3341 5.38616C13.3341 5.38616 13.2565 5.57147 13.1161 5.70975L9.46241 9.36345C9.46241 9.36345 9.82212 10.3403 9.49963 11.4476C9.49963 11.4476 9.25073 12.3022 8.63719 13.1129C8.63719 13.1129 8.50594 13.2875 8.31387 13.3914C8.31387 13.3914 8.12179 13.4954 7.90387 13.5098C7.90387 13.5098 7.68595 13.5242 7.48187 13.4464C7.48187 13.4464 7.27778 13.3687 7.12774 13.216L0.391769 6.48002C0.391769 6.48002 0.240393 6.32994 0.163377 6.13117C0.163377 6.13117 0.0863614 5.93241 0.0970955 5.71952C0.0970955 5.71952 0.10783 5.50663 0.204447 5.31662C0.204447 5.31662 0.301065 5.12661 0.467037 4.9923C0.467037 4.9923 1.77452 3.93574 3.29345 4.00357C3.29345 4.00357 3.82987 4.02752 4.24867 4.16297L7.9063 0.505359C7.9063 0.505359 8.04727 0.362215 8.23258 0.284624ZM8.6188 1.20703L4.72235 5.1035C4.56998 5.25587 4.33714 5.29348 4.14455 5.19684C4.14455 5.19684 3.80709 5.0275 3.24884 5.00257C3.24884 5.00257 2.10853 4.95165 1.09583 5.76987L7.83485 12.5089L7.8379 12.512C7.8379 12.512 8.34214 11.8456 8.53953 11.1679C8.53953 11.1679 8.80857 10.2442 8.42198 9.47433C8.32525 9.28172 8.36284 9.0488 8.51524 8.89639L12.409 5.00264L12.4117 4.99995L8.62149 1.20975L8.6188 1.20703Z" fill="#1C1C1C"/>
</svg>
