<svg width="17" height="16" viewBox="0 0 17 16" fill="none" xmlns="http://www.w3.org/2000/svg">
<path d="M14.5405 14.3562C14.4472 14.4481 14.3215 14.4998 14.1905 14.5C14.0578 14.4994 13.9303 14.448 13.8343 14.3562L11.1343 11.65C9.99714 12.6051 8.53517 13.0844 7.05328 12.9878C5.57138 12.8912 4.18398 12.2263 3.18043 11.1316C2.17688 10.037 1.63467 8.59717 1.66688 7.11248C1.6991 5.62779 2.30324 4.21286 3.35333 3.16277C4.40341 2.11269 5.81834 1.50855 7.30303 1.47633C8.78772 1.44412 10.2275 1.98633 11.3222 2.98988C12.4168 3.99343 13.0818 5.38083 13.1783 6.86273C13.2749 8.34462 12.7957 9.80659 11.8405 10.9437L14.5405 13.6437C14.5878 13.6903 14.6253 13.7457 14.6509 13.8069C14.6765 13.868 14.6897 13.9337 14.6897 14C14.6897 14.0663 14.6765 14.1319 14.6509 14.1931C14.6253 14.2542 14.5878 14.3097 14.5405 14.3562ZM7.44053 12C8.37999 12 9.29835 11.7214 10.0795 11.1995C10.8606 10.6775 11.4694 9.93567 11.829 9.06772C12.1885 8.19977 12.2825 7.24471 12.0993 6.3233C11.916 5.40189 11.4636 4.55552 10.7993 3.89122C10.135 3.22692 9.28861 2.77452 8.36721 2.59124C7.4458 2.40797 6.49073 2.50203 5.62278 2.86155C4.75483 3.22106 4.01298 3.82988 3.49105 4.61102C2.96911 5.39215 2.69053 6.31051 2.69053 7.24998C2.69218 8.50925 3.19316 9.71647 4.0836 10.6069C4.97404 11.4973 6.18126 11.9983 7.44053 12Z" fill="#9E9E9E"/>
</svg>
