<svg width="51" height="50" viewBox="0 0 51 50" fill="none" xmlns="http://www.w3.org/2000/svg">
<path d="M25.5 49.375C30.4013 49.375 35.1925 47.9454 39.2677 45.2671C43.343 42.5887 46.5192 38.7819 48.3949 34.3279C50.2705 29.874 50.7613 24.973 49.8051 20.2447C48.8489 15.5164 46.4887 11.1732 43.023 7.76427C39.5573 4.35537 35.1417 2.03388 30.3346 1.09336C25.5275 0.152845 20.5448 0.635549 16.0166 2.48044C11.4884 4.32533 7.61813 7.44953 4.89513 11.458C2.17213 15.4664 0.718737 20.1791 0.718737 25C0.731332 31.4608 3.34625 37.6535 7.99091 42.222C12.6356 46.7906 18.9315 49.3626 25.5 49.375ZM15.9687 23.125L30.4324 23.125L25.5953 18.3672C25.2388 18.0157 25.0386 17.5395 25.0386 17.043C25.0386 16.5465 25.2388 16.0702 25.5953 15.7187C25.7728 15.5431 25.9847 15.4047 26.2181 15.3121C26.4516 15.2194 26.7018 15.1744 26.9535 15.1797C27.2016 15.1748 27.4481 15.2202 27.6776 15.3129C27.9072 15.4056 28.1149 15.5438 28.2879 15.7187L36.3656 23.6641C36.5452 23.8397 36.6906 24.0462 36.7945 24.2734C36.9854 24.7396 36.9854 25.2604 36.7945 25.7266C36.6906 25.9538 36.5452 26.1603 36.3656 26.3359L28.2879 34.2812C27.9253 34.6044 27.4502 34.7781 26.961 34.7662C26.4718 34.7544 26.006 34.5579 25.66 34.2176C25.314 33.8773 25.1143 33.4191 25.1023 32.9379C25.0902 32.4568 25.2667 31.9895 25.5953 31.6328L30.4324 26.875L15.9687 26.875C15.4632 26.875 14.9783 26.6775 14.6208 26.3258C14.2633 25.9742 14.0625 25.4973 14.0625 25C14.0625 24.5027 14.2633 24.0258 14.6208 23.6742C14.9783 23.3225 15.4632 23.125 15.9687 23.125Z" fill="#F62088"/>
</svg>
