<svg width="24" height="24" viewBox="0 0 24 24" fill="none" xmlns="http://www.w3.org/2000/svg">
<path d="M15.7499 13.125C15.7499 15.1961 14.071 16.875 11.9999 16.875C9.92883 16.875 8.24994 15.1961 8.24994 13.125C8.24994 11.0539 9.92883 9.375 11.9999 9.375C14.071 9.375 15.7499 11.0539 15.7499 13.125Z" fill="white"/>
<path d="M8.62494 7.875C8.62494 9.53192 7.28186 10.875 5.62494 10.875C3.96802 10.875 2.62494 9.53192 2.62494 7.875C2.62494 6.21808 3.96802 4.875 5.62494 4.875C7.28186 4.875 8.62494 6.21808 8.62494 7.875Z" fill="white"/>
<path d="M21.3749 7.875C21.3749 9.53192 20.0319 10.875 18.3749 10.875C16.718 10.875 15.3749 9.53192 15.3749 7.875C15.3749 6.21808 16.718 4.875 18.3749 4.875C20.0319 4.875 21.3749 6.21808 21.3749 7.875Z" fill="white"/>
<path fill-rule="evenodd" clip-rule="evenodd" d="M11.9999 8.625C11.9999 8.625 13.8639 8.625 15.1819 9.94302C15.1819 9.94302 16.4999 11.261 16.4999 13.125C16.4999 13.125 16.4999 14.989 15.1819 16.307C15.1819 16.307 13.8639 17.625 11.9999 17.625C11.9999 17.625 10.136 17.625 8.81796 16.307C8.81796 16.307 7.49994 14.989 7.49994 13.125C7.49994 13.125 7.49994 11.261 8.81796 9.94302C8.81796 9.94302 10.136 8.625 11.9999 8.625ZM11.9999 10.125C11.9999 10.125 10.7573 10.125 9.87862 11.0037C9.87862 11.0037 8.99994 11.8824 8.99994 13.125C8.99994 13.125 8.99994 14.3676 9.87862 15.2463C9.87862 15.2463 10.7573 16.125 11.9999 16.125C11.9999 16.125 13.2426 16.125 14.1213 15.2463C14.1213 15.2463 14.9999 14.3676 14.9999 13.125C14.9999 13.125 14.9999 11.8824 14.1213 11.0037C14.1213 11.0037 13.2426 10.125 11.9999 10.125Z" fill="white"/>
<path d="M22.2739 13.5737L22.2742 13.574C22.3933 13.7333 22.5708 13.8388 22.7676 13.8673C22.8032 13.8724 22.839 13.875 22.8749 13.875L22.8763 13.875C23.0377 13.8747 23.1947 13.8224 23.3239 13.7257C23.5134 13.5842 23.6249 13.3615 23.6249 13.125L23.6249 13.1164C23.6231 12.9575 23.5708 12.8033 23.4757 12.676L23.4751 12.6751C22.5736 11.4694 21.2269 10.796 21.2269 10.796C19.8798 10.1225 18.3737 10.125 18.3737 10.125L18.3749 10.125C18.7892 10.125 19.1249 10.4608 19.1249 10.875C19.1249 11.2886 18.7902 11.6241 18.3766 11.625L22.2739 13.5737Z" fill="white"/>
<path d="M3.44378 12.1377C4.47299 11.6231 5.62368 11.625 5.62368 11.625L5.62474 11.625H5.62494C5.63654 11.625 5.64813 11.6247 5.65971 11.6242C5.84596 11.6155 6.02232 11.5378 6.15438 11.4062C6.29527 11.2658 6.37461 11.0752 6.37494 10.8762L6.37494 10.8752V10.875C6.37494 10.8296 6.37082 10.7844 6.36265 10.7398C6.29745 10.3841 5.98777 10.1256 5.62619 10.125L5.62494 10.125C4.11951 10.1228 2.77296 10.796 2.77296 10.796C1.42632 11.4694 0.524827 12.6751 0.524827 12.6751L0.524284 12.6759C0.427295 12.8056 0.374939 12.9631 0.374939 13.125L0.37498 13.1328C0.375329 13.1661 0.377893 13.1994 0.382655 13.2323C0.411115 13.4292 0.516614 13.6067 0.675943 13.7257C0.805584 13.8226 0.96309 13.875 1.12494 13.875C1.13497 13.875 1.14499 13.8748 1.15501 13.8744C1.38078 13.8653 1.59043 13.755 1.72569 13.574C2.41457 12.6523 3.44378 12.1377 3.44378 12.1377Z" fill="white"/>
<path d="M14.786 18.4259C16.0639 19.2241 16.7254 20.5778 16.7254 20.5778L16.7258 20.5786L16.726 20.5791C16.8518 20.8366 17.1133 21 17.3999 21L17.4205 20.9997C17.5276 20.9968 17.6328 20.9709 17.729 20.9239C17.9866 20.7982 18.1499 20.5366 18.1499 20.25L18.1497 20.2295C18.1467 20.1224 18.1209 20.0172 18.0739 19.9209L18.0736 19.9203C17.2235 18.1798 15.5806 17.1537 15.5806 17.1537C13.9373 16.1274 11.9999 16.1274 11.9999 16.1274C10.0626 16.1274 8.41932 17.1537 8.41932 17.1537C6.77636 18.1798 5.92629 19.9203 5.92629 19.9203L5.92603 19.9208C5.87596 20.0234 5.84995 20.1359 5.84995 20.25L5.85001 20.2598C5.85105 20.3395 5.86478 20.4185 5.8907 20.4939C5.95537 20.682 6.09212 20.8367 6.27086 20.9239C6.37335 20.974 6.4859 21 6.59995 21L6.61717 20.9998C6.89751 20.9934 7.15085 20.8311 7.27389 20.5791C7.93533 19.2245 9.21391 18.4259 9.21391 18.4259C10.4925 17.6274 11.9999 17.6274 11.9999 17.6274C13.5074 17.6274 14.786 18.4259 14.786 18.4259Z" fill="white"/>
<path d="M7.26172 6.33439C7.7094 6.8109 7.83199 7.45312 7.83199 7.45312C7.86929 7.64851 7.98267 7.82107 8.1472 7.93286C8.27153 8.01733 8.41838 8.0625 8.56869 8.0625L8.57355 8.06248C8.61911 8.06219 8.66456 8.05774 8.70931 8.0492C9.06292 7.9817 9.31869 7.67248 9.31869 7.3125L9.31868 7.30827C9.31842 7.26249 9.31397 7.21684 9.30539 7.17187C9.10107 6.1015 8.35493 5.30731 8.35493 5.30731C7.60879 4.51312 6.55323 4.24249 6.55323 4.24249C5.49767 3.97186 4.46145 4.30907 4.46145 4.30907C3.42524 4.64628 2.73111 5.4863 2.73111 5.4863C2.03699 6.32632 1.90115 7.40753 1.90115 7.40753C1.76531 8.48873 2.23006 9.47436 2.23006 9.47436C2.69481 10.46 3.6154 11.043 3.6154 11.043C4.53568 11.6259 5.62494 11.625 5.62494 11.625L5.6257 11.625C5.82461 11.6248 6.0153 11.5456 6.15581 11.4048C6.29613 11.2642 6.37494 11.0736 6.37494 10.875L6.37494 10.8742C6.37452 10.4603 6.03886 10.125 5.62494 10.125L5.62418 10.125C4.97036 10.1257 4.418 9.77582 4.418 9.77582C3.86565 9.42599 3.58679 8.83461 3.58679 8.83461C3.30794 8.24324 3.38945 7.59452 3.38945 7.59452C3.47095 6.94579 3.88743 6.44178 3.88743 6.44178C4.3039 5.93776 4.92563 5.73544 4.92563 5.73544C5.54736 5.53311 6.1807 5.69549 6.1807 5.69549C6.81403 5.85787 7.26172 6.33439 7.26172 6.33439Z" fill="white"/>
<path d="M19.5819 9.77582C19.0295 10.1257 18.3757 10.125 18.3757 10.125L18.3749 10.125C18.3632 10.125 18.3514 10.1253 18.3397 10.1258L17.6258 10.9103C17.6345 11.0965 17.7124 11.2728 17.8441 11.4048C17.9846 11.5456 18.1753 11.6248 18.3742 11.625L18.3749 11.625C19.4642 11.6259 20.3845 11.043 20.3845 11.043C21.3051 10.46 21.7698 9.47436 21.7698 9.47436C22.2346 8.48873 22.0987 7.40753 22.0987 7.40753C21.9629 6.32632 21.2688 5.4863 21.2688 5.4863C20.5746 4.64628 19.5384 4.30907 19.5384 4.30907C18.5022 3.97186 17.4466 4.24249 17.4466 4.24249C16.3911 4.51312 15.6449 5.30731 15.6449 5.30731C14.8988 6.10149 14.6945 7.17187 14.6945 7.17187C14.6856 7.21822 14.6812 7.26531 14.6812 7.3125C14.6812 7.33504 14.6822 7.35756 14.6842 7.38001C14.7144 7.71338 14.9618 7.98643 15.2906 8.0492C15.3369 8.05804 15.384 8.0625 15.4312 8.0625C15.4537 8.0625 15.4762 8.06148 15.4987 8.05945C15.8321 8.02932 16.1051 7.78192 16.1679 7.45312C16.2905 6.8109 16.7382 6.33439 16.7382 6.33439C17.1858 5.85787 17.8192 5.69549 17.8192 5.69549C18.4525 5.53311 19.0742 5.73544 19.0742 5.73544C19.696 5.93776 20.1124 6.44178 20.1124 6.44178C20.5289 6.94579 20.6104 7.59452 20.6104 7.59452C20.6919 8.24324 20.4131 8.83461 20.4131 8.83461C20.1342 9.42599 19.5819 9.77582 19.5819 9.77582Z" fill="white"/>
</svg>
