<svg width="24" height="24" viewBox="0 0 24 24" fill="none" xmlns="http://www.w3.org/2000/svg">
<path d="M15.75 13.125C15.75 15.1961 14.0711 16.875 12 16.875C9.92889 16.875 8.25 15.1961 8.25 13.125C8.25 11.0539 9.92889 9.375 12 9.375C14.0711 9.375 15.75 11.0539 15.75 13.125Z" fill="black" fill-opacity="0.1"/>
<path d="M8.625 7.875C8.625 9.53192 7.28192 10.875 5.625 10.875C3.96808 10.875 2.625 9.53192 2.625 7.875C2.625 6.21808 3.96808 4.875 5.625 4.875C7.28192 4.875 8.625 6.21808 8.625 7.875Z" fill="black" fill-opacity="0.1"/>
<path d="M21.375 7.875C21.375 9.53192 20.0319 10.875 18.375 10.875C16.7181 10.875 15.375 9.53192 15.375 7.875C15.375 6.21808 16.7181 4.875 18.375 4.875C20.0319 4.875 21.375 6.21808 21.375 7.875Z" fill="black" fill-opacity="0.1"/>
<path fill-rule="evenodd" clip-rule="evenodd" d="M12 8.625C12 8.625 13.864 8.625 15.182 9.94302C15.182 9.94302 16.5 11.261 16.5 13.125C16.5 13.125 16.5 14.989 15.182 16.307C15.182 16.307 13.864 17.625 12 17.625C12 17.625 10.136 17.625 8.81802 16.307C8.81802 16.307 7.5 14.989 7.5 13.125C7.5 13.125 7.5 11.261 8.81802 9.94302C8.81802 9.94302 10.136 8.625 12 8.625ZM12 10.125C12 10.125 10.7574 10.125 9.87868 11.0037C9.87868 11.0037 9 11.8824 9 13.125C9 13.125 9 14.3676 9.87868 15.2463C9.87868 15.2463 10.7574 16.125 12 16.125C12 16.125 13.2426 16.125 14.1213 15.2463C14.1213 15.2463 15 14.3676 15 13.125C15 13.125 15 11.8824 14.1213 11.0037C14.1213 11.0037 13.2426 10.125 12 10.125Z" fill="#1C1C1C"/>
<path d="M22.274 13.5737L22.2743 13.574C22.3933 13.7333 22.5708 13.8388 22.7677 13.8673C22.8032 13.8724 22.8391 13.875 22.875 13.875L22.8763 13.875C23.0377 13.8747 23.1947 13.8224 23.324 13.7258C23.5134 13.5842 23.625 13.3615 23.625 13.125L23.625 13.1164C23.6231 12.9575 23.5709 12.8033 23.4757 12.676L23.4751 12.6752C22.5736 11.4694 21.227 10.796 21.227 10.796C19.8799 10.1225 18.3737 10.125 18.3737 10.125L18.375 10.125C18.7892 10.125 19.125 10.4608 19.125 10.875C19.125 11.2886 18.7902 11.6241 18.3767 11.625L22.274 13.5737Z" fill="#1C1C1C"/>
<path d="M3.44384 12.1377C4.47305 11.6231 5.62375 11.625 5.62375 11.625L5.6248 11.625H5.625C5.6366 11.625 5.64819 11.6247 5.65977 11.6242C5.84603 11.6156 6.02238 11.5378 6.15444 11.4062C6.29533 11.2658 6.37467 11.0752 6.375 10.8763L6.375 10.8752V10.875C6.375 10.8296 6.37088 10.7844 6.36271 10.7398C6.29751 10.3841 5.98783 10.1256 5.62625 10.125L5.625 10.125C4.11958 10.1228 2.77302 10.796 2.77302 10.796C1.42638 11.4694 0.524888 12.6752 0.524888 12.6752L0.524345 12.6759C0.427356 12.8057 0.375 12.9632 0.375 13.125L0.375041 13.1329C0.37539 13.1661 0.377954 13.1994 0.382716 13.2323C0.411176 13.4292 0.516675 13.6067 0.676004 13.7258C0.805645 13.8227 0.963152 13.875 1.125 13.875C1.13503 13.875 1.14505 13.8748 1.15507 13.8744C1.38084 13.8653 1.59049 13.755 1.72575 13.574C2.41463 12.6523 3.44384 12.1377 3.44384 12.1377Z" fill="#1C1C1C"/>
<path d="M14.786 18.426C16.064 19.2241 16.7254 20.5778 16.7254 20.5778L16.7258 20.5787L16.7261 20.5791C16.8518 20.8367 17.1134 21 17.4 21L17.4205 20.9998C17.5276 20.9968 17.6328 20.971 17.7291 20.924C17.9866 20.7982 18.15 20.5367 18.15 20.25L18.1497 20.2295C18.1468 20.1224 18.121 20.0172 18.074 19.921L18.0737 19.9204C17.2236 18.1798 15.5806 17.1537 15.5806 17.1537C13.9374 16.1274 12 16.1274 12 16.1274C10.0626 16.1274 8.41938 17.1537 8.41938 17.1537C6.77642 18.1798 5.92635 19.9204 5.92635 19.9204L5.92609 19.9209C5.87602 20.0234 5.85001 20.136 5.85001 20.25L5.85007 20.2598C5.85111 20.3395 5.86484 20.4185 5.89076 20.4939C5.95543 20.682 6.09218 20.8367 6.27092 20.924C6.37341 20.974 6.48596 21 6.60001 21L6.61723 20.9998C6.89757 20.9934 7.15091 20.8311 7.27395 20.5791C7.93539 19.2245 9.21397 18.426 9.21397 18.426C10.4925 17.6274 12 17.6274 12 17.6274C13.5075 17.6274 14.786 18.426 14.786 18.426Z" fill="#1C1C1C"/>
<path d="M7.26178 6.33434C7.70946 6.81085 7.83205 7.45308 7.83205 7.45308C7.86935 7.64846 7.98273 7.82103 8.14726 7.93281C8.27159 8.01729 8.41844 8.06245 8.56875 8.06245L8.57361 8.06244C8.61917 8.06214 8.66462 8.05769 8.70938 8.04915C9.06298 7.98165 9.31875 7.67244 9.31875 7.31245L9.31874 7.30823C9.31848 7.26245 9.31403 7.21679 9.30545 7.17183C9.10113 6.10145 8.35499 5.30726 8.35499 5.30726C7.60885 4.51308 6.55329 4.24244 6.55329 4.24244C5.49773 3.97181 4.46151 4.30902 4.46151 4.30902C3.4253 4.64623 2.73117 5.48625 2.73117 5.48625C2.03705 6.32628 1.90121 7.40748 1.90121 7.40748C1.76537 8.48868 2.23012 9.47431 2.23012 9.47431C2.69487 10.4599 3.61547 11.043 3.61547 11.043C4.53574 11.6259 5.625 11.625 5.625 11.625L5.62576 11.625C5.82467 11.6247 6.01536 11.5455 6.15587 11.4047C6.29619 11.2641 6.375 11.0736 6.375 10.875L6.375 10.8742C6.37458 10.4603 6.03892 10.125 5.625 10.125L5.62424 10.125C4.97042 10.1256 4.41806 9.77578 4.41806 9.77578C3.86571 9.42594 3.58685 8.83457 3.58685 8.83457C3.308 8.24319 3.38951 7.59447 3.38951 7.59447C3.47101 6.94575 3.88749 6.44173 3.88749 6.44173C4.30396 5.93772 4.92569 5.73539 4.92569 5.73539C5.54742 5.53307 6.18076 5.69545 6.18076 5.69545C6.81409 5.85783 7.26178 6.33434 7.26178 6.33434Z" fill="#1C1C1C"/>
<path d="M19.5819 9.77578C19.0296 10.1256 18.3758 10.125 18.3758 10.125L18.375 10.125C18.3632 10.125 18.3515 10.1252 18.3397 10.1258L17.6258 10.9102C17.6346 11.0965 17.7124 11.2728 17.8441 11.4047C17.9846 11.5455 18.1753 11.6247 18.3742 11.625L18.375 11.625C19.4643 11.6259 20.3845 11.043 20.3845 11.043C21.3051 10.4599 21.7699 9.47431 21.7699 9.47431C22.2346 8.48868 22.0988 7.40748 22.0988 7.40748C21.9629 6.32628 21.2688 5.48625 21.2688 5.48625C20.5747 4.64623 19.5385 4.30902 19.5385 4.30902C18.5023 3.97181 17.4467 4.24244 17.4467 4.24244C16.3911 4.51308 15.645 5.30726 15.645 5.30726C14.8989 6.10145 14.6945 7.17183 14.6945 7.17183C14.6857 7.21818 14.6812 7.26526 14.6812 7.31245C14.6812 7.33499 14.6823 7.35752 14.6843 7.37996C14.7144 7.71334 14.9618 7.98639 15.2906 8.04915C15.337 8.058 15.3841 8.06245 15.4312 8.06245C15.4538 8.06245 15.4763 8.06144 15.4988 8.05941C15.8321 8.02928 16.1052 7.78187 16.1679 7.45308C16.2905 6.81085 16.7382 6.33434 16.7382 6.33434C17.1859 5.85783 17.8192 5.69545 17.8192 5.69545C18.4526 5.53307 19.0743 5.73539 19.0743 5.73539C19.696 5.93772 20.1125 6.44173 20.1125 6.44173C20.529 6.94575 20.6105 7.59447 20.6105 7.59447C20.692 8.24319 20.4131 8.83457 20.4131 8.83457C20.1343 9.42594 19.5819 9.77578 19.5819 9.77578Z" fill="#1C1C1C"/>
</svg>
