<svg width="24" height="24" viewBox="0 0 24 24" fill="none" xmlns="http://www.w3.org/2000/svg">
<path d="M20.2499 6.75H5.24994C5.05103 6.75 4.86026 6.67098 4.71961 6.53033C4.57896 6.38968 4.49994 6.19891 4.49994 6C4.49994 5.80109 4.57896 5.61032 4.71961 5.46967C4.86026 5.32902 5.05103 5.25 5.24994 5.25H17.9999C18.1989 5.25 18.3896 5.17098 18.5303 5.03033C18.6709 4.88968 18.7499 4.69891 18.7499 4.5C18.7499 4.30109 18.6709 4.11032 18.5303 3.96967C18.3896 3.82902 18.1989 3.75 17.9999 3.75H5.24994C4.65396 3.75247 4.0831 3.99031 3.66168 4.41174C3.24025 4.83316 3.00241 5.40402 2.99994 6V18C3.00241 18.596 3.24025 19.1668 3.66168 19.5883C4.0831 20.0097 4.65396 20.2475 5.24994 20.25H20.2499C20.6478 20.25 21.0293 20.092 21.3106 19.8107C21.5919 19.5294 21.7499 19.1478 21.7499 18.75V8.25C21.7499 7.85218 21.5919 7.47064 21.3106 7.18934C21.0293 6.90804 20.6478 6.75 20.2499 6.75ZM16.8749 14.625C16.6524 14.625 16.4349 14.559 16.2499 14.4354C16.0649 14.3118 15.9207 14.1361 15.8356 13.9305C15.7504 13.725 15.7281 13.4988 15.7716 13.2805C15.815 13.0623 15.9221 12.8618 16.0794 12.7045C16.2368 12.5472 16.4372 12.44 16.6555 12.3966C16.8737 12.3532 17.0999 12.3755 17.3055 12.4606C17.511 12.5458 17.6867 12.69 17.8103 12.875C17.934 13.06 17.9999 13.2775 17.9999 13.5C17.9999 13.7984 17.8814 14.0845 17.6704 14.2955C17.4595 14.5065 17.1733 14.625 16.8749 14.625Z" fill="white"/>
</svg>
